<?xml version="1.0" encoding="UTF-8" standalone="no"?>
<!-- Created with Inkscape (http://www.inkscape.org/) -->

<svg
   xmlns:dc="http://purl.org/dc/elements/1.1/"
   xmlns:cc="http://creativecommons.org/ns#"
   xmlns:rdf="http://www.w3.org/1999/02/22-rdf-syntax-ns#"
   xmlns:svg="http://www.w3.org/2000/svg"
   xmlns="http://www.w3.org/2000/svg"
   xmlns:sodipodi="http://sodipodi.sourceforge.net/DTD/sodipodi-0.dtd"
   xmlns:inkscape="http://www.inkscape.org/namespaces/inkscape"
   id="svg18549"
   version="1.1"
   inkscape:version="0.48.4 r9939"
   width="55"
   height="65"
   xml:space="preserve"
   sodipodi:docname="LED1.svg"><metadata
     id="metadata18555"><rdf:RDF><cc:Work
         rdf:about=""><dc:format>image/svg+xml</dc:format><dc:type
           rdf:resource="http://purl.org/dc/dcmitype/StillImage" /><dc:title /></cc:Work></rdf:RDF></metadata><defs
     id="defs18553"><clipPath
       clipPathUnits="userSpaceOnUse"
       id="clipPath18563"><path
         d="m 452,198 82,0 0,-76 -82,0 0,76 z"
         id="path18565"
         inkscape:connector-curvature="0" /></clipPath><clipPath
       clipPathUnits="userSpaceOnUse"
       id="clipPath18573"><path
         d="m 452,198 82,0 0,-76 -82,0 0,76 z"
         id="path18575"
         inkscape:connector-curvature="0" /></clipPath><clipPath
       clipPathUnits="userSpaceOnUse"
       id="clipPath18583"><path
         d="m 452,198 82,0 0,-76 -82,0 0,76 z"
         id="path18585"
         inkscape:connector-curvature="0" /></clipPath><clipPath
       clipPathUnits="userSpaceOnUse"
       id="clipPath18593"><path
         d="m 452,198 82,0 0,-76 -82,0 0,76 z"
         id="path18595"
         inkscape:connector-curvature="0" /></clipPath><clipPath
       clipPathUnits="userSpaceOnUse"
       id="clipPath18603"><path
         d="m 452,198 82,0 0,-76 -82,0 0,76 z"
         id="path18605"
         inkscape:connector-curvature="0" /></clipPath><clipPath
       clipPathUnits="userSpaceOnUse"
       id="clipPath18613"><path
         d="m 452,198 82,0 0,-76 -82,0 0,76 z"
         id="path18615"
         inkscape:connector-curvature="0" /></clipPath><clipPath
       clipPathUnits="userSpaceOnUse"
       id="clipPath18623"><path
         d="m 452,198 82,0 0,-76 -82,0 0,76 z"
         id="path18625"
         inkscape:connector-curvature="0" /></clipPath><clipPath
       clipPathUnits="userSpaceOnUse"
       id="clipPath18633"><path
         d="m 452,198 82,0 0,-76 -82,0 0,76 z"
         id="path18635"
         inkscape:connector-curvature="0" /></clipPath><clipPath
       clipPathUnits="userSpaceOnUse"
       id="clipPath18643"><path
         d="m 452,198 82,0 0,-76 -82,0 0,76 z"
         id="path18645"
         inkscape:connector-curvature="0" /></clipPath><clipPath
       clipPathUnits="userSpaceOnUse"
       id="clipPath18653"><path
         d="m 452,198 82,0 0,-76 -82,0 0,76 z"
         id="path18655"
         inkscape:connector-curvature="0" /></clipPath><clipPath
       clipPathUnits="userSpaceOnUse"
       id="clipPath18663"><path
         d="m 452,198 82,0 0,-76 -82,0 0,76 z"
         id="path18665"
         inkscape:connector-curvature="0" /></clipPath><clipPath
       clipPathUnits="userSpaceOnUse"
       id="clipPath18673"><path
         d="m 452,198 82,0 0,-76 -82,0 0,76 z"
         id="path18675"
         inkscape:connector-curvature="0" /></clipPath><clipPath
       clipPathUnits="userSpaceOnUse"
       id="clipPath18683"><path
         d="m 452,198 82,0 0,-76 -82,0 0,76 z"
         id="path18685"
         inkscape:connector-curvature="0" /></clipPath><clipPath
       clipPathUnits="userSpaceOnUse"
       id="clipPath18693"><path
         d="m 452,198 82,0 0,-76 -82,0 0,76 z"
         id="path18695"
         inkscape:connector-curvature="0" /></clipPath><clipPath
       clipPathUnits="userSpaceOnUse"
       id="clipPath18703"><path
         d="m 452,198 82,0 0,-76 -82,0 0,76 z"
         id="path18705"
         inkscape:connector-curvature="0" /></clipPath><clipPath
       clipPathUnits="userSpaceOnUse"
       id="clipPath18713"><path
         d="m 1808,488 328,0 0,304 -328,0 0,-304 z"
         id="path18715"
         inkscape:connector-curvature="0" /></clipPath></defs><sodipodi:namedview
     pagecolor="#ffffff"
     bordercolor="#666666"
     borderopacity="1"
     objecttolerance="10"
     gridtolerance="10"
     guidetolerance="10"
     inkscape:pageopacity="0"
     inkscape:pageshadow="2"
     inkscape:window-width="1864"
     inkscape:window-height="883"
     id="namedview18551"
     showgrid="true"
     inkscape:snap-global="true"
     inkscape:zoom="6.6245614"
     inkscape:cx="38.447724"
     inkscape:cy="39.740146"
     inkscape:window-x="0"
     inkscape:window-y="0"
     inkscape:window-maximized="0"
     inkscape:current-layer="g18557"><inkscape:grid
       type="xygrid"
       id="grid18719"
       empspacing="5"
       visible="true"
       enabled="true"
       snapvisiblegridlinesonly="true" /></sodipodi:namedview><g
     id="g18557"
     inkscape:groupmode="layer"
     inkscape:label="schemeit-project (1)"
     transform="matrix(0.2268294,0,0,0.225,0,-6.25)"><g
       id="g18579"
       transform="matrix(4.1666668,0,0,-4.1666668,-1948.2843,846.72082)"
       style="stroke:#1a1a1a"><g
         id="g18581"
         clip-path="url(#clipPath18583)"
         style="stroke:#1a1a1a"><path
           d="m 509.66002,160.01 c 0,10.8524 -8.79761,19.65 -19.65,19.65 -10.8524,0 -19.65,-8.7976 -19.65,-19.65 0,-10.85239 8.7976,-19.65 19.65,-19.65 10.85239,0 19.65,8.79761 19.65,19.65 z"
           style="fill:#ffffff;fill-opacity:1;fill-rule:nonzero;stroke:#1a1a1a"
           id="path18587"
           inkscape:connector-curvature="0" /></g></g><g
       id="g18589"
       transform="matrix(4.1666668,0,0,-4.1666668,-1948.2843,846.72082)"
       style="stroke:#1a1a1a"><g
         id="g18591"
         clip-path="url(#clipPath18593)"
         style="stroke:#1a1a1a;stroke-width:2.12471318"><path
           d="m 509.66002,160.01 c 0,10.8524 -8.79761,19.65 -19.65,19.65 -10.8524,0 -19.65,-8.7976 -19.65,-19.65 0,-10.85239 8.7976,-19.65 19.65,-19.65 10.85239,0 19.65,8.79761 19.65,19.65 z"
           style="fill:none;stroke:#1a1a1a;stroke-width:2.12471318;stroke-linecap:butt;stroke-linejoin:miter;stroke-miterlimit:4;stroke-opacity:1;stroke-dasharray:none"
           id="path18597"
           inkscape:connector-curvature="0" /></g></g><g
       id="g18599"
       transform="matrix(4.1666668,0,0,-4.1666668,-1948.2843,846.72082)"
       style="stroke:#1a1a1a;stroke-width:2.12471318"><g
         id="g18601"
         clip-path="url(#clipPath18603)"
         style="stroke:#1a1a1a;stroke-width:2.12471318"><path
           d="m 482,152.25999 c 22,0 16,0 16,0"
           style="fill:none;stroke:#1a1a1a;stroke-width:2.12471318;stroke-linecap:round;stroke-linejoin:miter;stroke-miterlimit:10;stroke-opacity:1;stroke-dasharray:none"
           id="path18607"
           inkscape:connector-curvature="0" /></g></g><g
       id="g18619"
       transform="matrix(4.1666668,0,0,-4.1666668,-1947.701,846.09147)"
       style="fill:#1a1a1a;stroke:#1a1a1a"><g
         id="g18621"
         clip-path="url(#clipPath18623)"
         style="fill:#1a1a1a;stroke:#1a1a1a"><path
           d="m 489.85999,152.53999 c 0,0 0,0 -7.85999,14.72 15.72,0 15.72,0 15.72,0 l -7.86001,-14.72 z"
           style="fill:#1a1a1a;stroke:#1a1a1a;stroke-width:1.49000001;stroke-linecap:round;stroke-linejoin:round;stroke-miterlimit:10;stroke-opacity:1;stroke-dasharray:none"
           id="path18627"
           inkscape:connector-curvature="0" /></g></g><g
       id="g18639"
       transform="matrix(4.1666668,0,0,-4.1666668,-1948.2843,828.45639)"
       style="stroke:#1a1a1a;stroke-width:2.12471318;stroke-linecap:round;stroke-miterlimit:4;stroke-dasharray:none"><g
         id="g18641"
         clip-path="url(#clipPath18643)"
         style="stroke:#1a1a1a;stroke-width:2.12471318;stroke-linecap:round;stroke-miterlimit:4;stroke-dasharray:none"><path
           d="m 489.93171,126.02953 0,62.93333"
           style="fill:none;stroke:#1a1a1a;stroke-width:2.12471318;stroke-linecap:round;stroke-linejoin:miter;stroke-miterlimit:4;stroke-opacity:1;stroke-dasharray:none"
           id="path18647"
           inkscape:connector-curvature="0"
           sodipodi:nodetypes="cc" /></g></g><g
       id="g18649"
       transform="matrix(4.1666668,0,0,-4.1666668,-1948.2843,846.72082)"
       style="stroke:#1a1a1a"><g
         id="g18651"
         clip-path="url(#clipPath18653)"
         style="stroke:#1a1a1a"><path
           d="m 516.5,151.02 4.23999,4.23999 2.83002,-7.06999 -7.07001,2.83 z"
           style="fill:#000000;fill-opacity:1;fill-rule:nonzero;stroke:#1a1a1a"
           id="path18657"
           inkscape:connector-curvature="0" /></g></g><g
       id="g18659"
       transform="matrix(4.1666668,0,0,-4.1666668,-1948.2843,846.72082)"
       style="fill:#1a1a1a;stroke:#1a1a1a"><g
         id="g18661"
         clip-path="url(#clipPath18663)"
         style="fill:#1a1a1a;stroke:#1a1a1a"><path
           d="m 516.5,151.02 4.23999,4.23999 2.83002,-7.06999 -7.07001,2.83 z"
           style="fill:#1a1a1a;stroke:#1a1a1a;stroke-width:1;stroke-linecap:square;stroke-linejoin:round;stroke-miterlimit:10;stroke-opacity:1;stroke-dasharray:none"
           id="path18667"
           inkscape:connector-curvature="0" /></g></g><g
       id="g18669"
       transform="matrix(4.1666668,0,0,-4.1666668,-1948.2843,846.72082)"
       style="stroke:#1a1a1a;stroke-width:2.12471318"><g
         id="g18671"
         clip-path="url(#clipPath18673)"
         style="stroke:#1a1a1a;stroke-width:2.12471318"><path
           d="m 512.25,159.52 8.48999,-8.48001"
           style="fill:none;stroke:#1a1a1a;stroke-width:2.12471318;stroke-linecap:round;stroke-linejoin:round;stroke-miterlimit:10;stroke-opacity:1;stroke-dasharray:none"
           id="path18677"
           inkscape:connector-curvature="0" /></g></g><g
       id="g18679"
       transform="matrix(4.1666668,0,0,-4.1666668,-1948.2843,846.72082)"
       style="stroke:#1a1a1a"><g
         id="g18681"
         clip-path="url(#clipPath18683)"
         style="stroke:#1a1a1a"><path
           d="m 514.82001,139.96001 4.23999,4.25 2.83001,-7.07001 -7.07,2.82001 z"
           style="fill:#000000;fill-opacity:1;fill-rule:nonzero;stroke:#1a1a1a"
           id="path18687"
           inkscape:connector-curvature="0" /></g></g><g
       id="g18689"
       transform="matrix(4.1666668,0,0,-4.1666668,-1948.2843,846.72082)"
       style="fill:#1a1a1a;stroke:#1a1a1a"><g
         id="g18691"
         clip-path="url(#clipPath18693)"
         style="fill:#1a1a1a;stroke:#1a1a1a"><path
           d="m 514.82001,139.96001 4.23999,4.25 2.83001,-7.07001 -7.07,2.82001 z"
           style="fill:#1a1a1a;stroke:#1a1a1a;stroke-width:1;stroke-linecap:round;stroke-linejoin:round;stroke-miterlimit:10;stroke-opacity:1;stroke-dasharray:none"
           id="path18697"
           inkscape:connector-curvature="0" /></g></g><g
       id="g18699"
       transform="matrix(4.1666668,0,0,-4.1666668,-1948.2843,846.72082)"
       style="stroke:#1a1a1a;stroke-width:2.12471318"><g
         id="g18701"
         clip-path="url(#clipPath18703)"
         style="stroke:#1a1a1a;stroke-width:2.12471318"><path
           d="M 510.59,148.42999 519.08002,139.95"
           style="fill:none;stroke:#1a1a1a;stroke-width:2.12471318;stroke-linecap:round;stroke-linejoin:round;stroke-miterlimit:10;stroke-opacity:1;stroke-dasharray:none"
           id="path18707"
           inkscape:connector-curvature="0" /></g></g></g></svg>