<?xml version="1.0" encoding="UTF-8" standalone="no"?>
<!-- Created with Inkscape (http://www.inkscape.org/) -->

<svg
   xmlns:dc="http://purl.org/dc/elements/1.1/"
   xmlns:cc="http://creativecommons.org/ns#"
   xmlns:rdf="http://www.w3.org/1999/02/22-rdf-syntax-ns#"
   xmlns:svg="http://www.w3.org/2000/svg"
   xmlns="http://www.w3.org/2000/svg"
   xmlns:sodipodi="http://sodipodi.sourceforge.net/DTD/sodipodi-0.dtd"
   xmlns:inkscape="http://www.inkscape.org/namespaces/inkscape"
   width="240"
   height="160"
   id="svg2"
   version="1.1"
   inkscape:version="0.48.4 r9939"
   sodipodi:docname="servoinprog.svg">
  <sodipodi:namedview
     id="base"
     pagecolor="#ffffff"
     bordercolor="#666666"
     borderopacity="1.0"
     inkscape:pageopacity="0.0"
     inkscape:pageshadow="2"
     inkscape:zoom="1.4"
     inkscape:cx="56.839488"
     inkscape:cy="110.85291"
     inkscape:document-units="px"
     inkscape:current-layer="layer1"
     showgrid="true"
     showguides="true"
     inkscape:guide-bbox="true"
     inkscape:window-width="1127"
     inkscape:window-height="702"
     inkscape:window-x="684"
     inkscape:window-y="124"
     inkscape:window-maximized="0"
     inkscape:snap-grids="false">
    <inkscape:grid
       spacingy="0.5px"
       spacingx="0.5px"
       snapvisiblegridlinesonly="true"
       enabled="true"
       visible="true"
       empspacing="5"
       id="grid2993"
       type="xygrid" />
    <sodipodi:guide
       id="guide2995"
       position="62.678572,36.339286"
       orientation="0,1" />
    <sodipodi:guide
       id="guide2997"
       position="255,30"
       orientation="1,0" />
    <sodipodi:guide
       id="guide4367"
       position="310,2.5"
       orientation="1,0" />
    <sodipodi:guide
       orientation="0,1"
       position="63.450207,76.708459"
       id="guide3981" />
    <sodipodi:guide
       orientation="0,1"
       position="60,116.875"
       id="guide3983" />
  </sodipodi:namedview>
  <defs
     id="defs4">
    <inkscape:path-effect
       effect="spiro"
       id="path-effect3918"
       is_visible="true" />
    <inkscape:path-effect
       effect="spiro"
       id="path-effect3884"
       is_visible="true" />
    <inkscape:path-effect
       effect="spiro"
       id="path-effect3062"
       is_visible="true" />
    <inkscape:path-effect
       phi="10"
       teeth="7"
       is_visible="true"
       id="path-effect4396"
       effect="gears" />
    <inkscape:path-effect
       is_visible="true"
       id="path-effect4385"
       effect="spiro" />
    <inkscape:path-effect
       is_visible="true"
       id="path-effect4381"
       effect="spiro" />
    <inkscape:path-effect
       phi="5"
       teeth="10"
       is_visible="true"
       id="path-effect4377"
       effect="gears" />
    <inkscape:path-effect
       is_visible="true"
       id="path-effect3027"
       effect="spiro" />
    <inkscape:path-effect
       is_visible="true"
       id="path-effect2991"
       effect="spiro" />
    <inkscape:path-effect
       effect="spiro"
       id="path-effect3884-7"
       is_visible="true" />
    <inkscape:path-effect
       effect="spiro"
       id="path-effect3884-0"
       is_visible="true" />
    <inkscape:path-effect
       effect="spiro"
       id="path-effect3918-4"
       is_visible="true" />
  </defs>
  <metadata
     id="metadata7">
    <rdf:RDF>
      <cc:Work
         rdf:about="">
        <dc:format>image/svg+xml</dc:format>
        <dc:type
           rdf:resource="http://purl.org/dc/dcmitype/StillImage" />
        <dc:title></dc:title>
      </cc:Work>
    </rdf:RDF>
  </metadata>
  <g
     id="layer1"
     inkscape:groupmode="layer"
     inkscape:label="Layer 1"
     transform="translate(0,-892.36218)">
    <g
       style="fill:none"
       width="0.8"
       x="0.6"
       y="70.2664"
       height="1.6"
       id="connector0terminal"
       transform="matrix(1.2500018,0,0,1.2500018,57.517176,859.94183)" />
    <g
       style="fill:none"
       width="0.8"
       x="0.6"
       y="23.8664"
       height="1.6"
       id="connector1terminal"
       transform="matrix(1.2500018,0,0,1.2500018,57.517176,859.94183)" />
    <g
       style="fill:none"
       width="0.8"
       x="0.6"
       y="47.0664"
       height="1.6"
       id="connector2terminal"
       transform="matrix(1.2500018,0,0,1.2500018,57.517176,859.94183)" />
    <g
       id="g4024"
       transform="translate(-16.120178,1.0674383)">
      <rect
         id="connector0pin"
         height="2.0000029"
         y="947.77496"
         x="58.267178"
         width="12.000018"
         style="fill:none" />
      <rect
         id="connector1pin"
         height="2.0000029"
         y="889.7749"
         x="58.267178"
         width="12.000018"
         style="fill:none" />
      <rect
         id="connector2pin"
         height="2.0000029"
         y="918.7749"
         x="58.267178"
         width="12.000018"
         style="fill:none" />
      <g
         transform="matrix(1.65,0,0,1.65,-204.05737,-682.37498)"
         id="g3964">
        <rect
           ry="3.25"
           rx="3.25"
           y="963.7934"
           x="160.18086"
           height="85"
           width="80"
           id="rect4292"
           style="fill:#ffffff;fill-opacity:1;fill-rule:nonzero;stroke:#333333;stroke-width:2;stroke-linecap:round;stroke-linejoin:round;stroke-miterlimit:10;stroke-opacity:1;stroke-dasharray:none;stroke-dashoffset:0" />
        <path
           style="fill:#ffffff;stroke:#333333;stroke-width:2.00000286;stroke-linecap:round;stroke-linejoin:round"
           inkscape:connector-curvature="0"
           d="m 272.25808,987.89215 c -1.383,-3.14801 -4.733,-4.81501 -7.97501,-4.20501 l 0,-10e-4 -36.49105,5.86701 0.005,0.011 c -1.513,0.211 -3.02301,0.616 -4.49201,1.261 -8.59601,3.77501 -12.50402,13.80495 -8.72901,22.40105 3.775,8.596 13.80502,12.504 22.40003,8.729 1.469,-0.645 2.78901,-1.484 3.96801,-2.455 l 0.005,0.011 29.01104,-22.89904 -0.001,-0.002 c 2.642,-1.974 3.682,-5.56901 2.299,-8.71801 z"
           id="path4008" />
        <path
           style="fill:#ffffff;fill-opacity:1;fill-rule:nonzero;stroke:#333333;stroke-width:0.55358446;stroke-linecap:round;stroke-linejoin:bevel;stroke-miterlimit:10;stroke-opacity:1;stroke-dasharray:none;stroke-dashoffset:0"
           d="m 229.63261,994.40468 c -0.49837,0 -0.89958,0.40121 -0.89958,0.89958 l 0,0.90822 c -0.39247,0.0541 -0.77375,0.12687 -1.15042,0.2249 l -0.34598,-0.83903 c -0.19071,-0.46043 -0.70729,-0.6751 -1.16772,-0.48439 l -0.89957,0.37194 c -0.46043,0.19072 -0.6751,0.71593 -0.48439,1.17637 l 0.346,0.83902 c -0.3372,0.19847 -0.66692,0.40489 -0.97742,0.64014 l -0.64009,-0.64014 c -0.3524,-0.35239 -0.91912,-0.35239 -1.27152,0 l -0.68333,0.69194 c -0.35239,0.3524 -0.35239,0.9191 0,1.2715 l 0.64008,0.64007 c -0.23334,0.3085 -0.45159,0.634 -0.64872,0.9688 l -0.83903,-0.346 c -0.46043,-0.1907 -0.98566,0.033 -1.17637,0.493 l -0.37194,0.8909 c -0.19071,0.4605 0.0326,0.9857 0.49304,1.1764 l 0.83038,0.346 c -0.0971,0.3742 -0.17121,0.7606 -0.2249,1.1504 l -0.90822,0 c -0.49837,0 -0.89958,0.4012 -0.89958,0.8996 l 0,0.9688 c 0,0.4983 0.40121,0.8995 0.89958,0.8995 l 0.90822,0 c 0.0541,0.3926 0.12685,0.7737 0.2249,1.1504 l -0.83038,0.346 c -0.46043,0.1908 -0.68375,0.7073 -0.49304,1.1678 l 0.37194,0.8995 c 0.19071,0.4605 0.71594,0.6751 1.17637,0.4844 l 0.83903,-0.346 c 0.1986,0.3374 0.41335,0.6668 0.64872,0.9774 l -0.64008,0.6402 c -0.35239,0.3523 -0.35239,0.9191 0,1.2714 l 0.68333,0.6834 c 0.3524,0.3524 0.91912,0.3524 1.27152,0 l 0.64009,-0.6401 c 0.31069,0.2354 0.63999,0.4501 0.97742,0.6487 l -0.346,0.8391 c -0.19071,0.4604 0.0239,0.9856 0.48439,1.1763 l 0.89957,0.372 c 0.46043,0.1906 0.97701,-0.032 1.16772,-0.4931 l 0.34598,-0.8304 c 0.37678,0.098 0.75783,0.1709 1.15042,0.2249 l 0,0.9083 c 0,0.4983 0.40121,0.8996 0.89958,0.8996 l 0.96878,0 c 0.49837,0 0.89957,-0.4013 0.89957,-0.8996 l 0,-0.9083 c 0.3898,-0.054 0.77622,-0.1278 1.15042,-0.2249 l 0.34599,0.8304 c 0.19071,0.4605 0.71593,0.6837 1.17636,0.4931 l 0.89092,-0.372 c 0.46044,-0.1907 0.68376,-0.7159 0.49304,-1.1763 l -0.34599,-0.8391 c 0.33477,-0.1971 0.66032,-0.4154 0.96878,-0.6487 l 0.64008,0.6401 c 0.3524,0.3524 0.91912,0.3524 1.27152,0 l 0.69198,-0.6834 c 0.35239,-0.3523 0.35239,-0.9191 0,-1.2714 l -0.64009,-0.6402 c 0.2352,-0.3105 0.44162,-0.6401 0.64009,-0.9774 l 0.83902,0.346 c 0.46044,0.1907 0.98565,-0.024 1.17637,-0.4844 l 0.37194,-0.8995 c 0.19071,-0.4605 -0.0239,-0.977 -0.48439,-1.1678 l -0.83903,-0.346 c 0.098,-0.3766 0.17082,-0.7579 0.2249,-1.1504 l 0.90822,0 c 0.49837,0 0.89958,-0.4012 0.89958,-0.8995 l 0,-0.9688 c 0,-0.4984 -0.40121,-0.8996 -0.89958,-0.8996 l -0.90822,0 c -0.0537,-0.3897 -0.12788,-0.7763 -0.2249,-1.1504 l 0.83903,-0.346 c 0.46044,-0.1907 0.6751,-0.7159 0.48439,-1.1764 l -0.37194,-0.8909 c -0.19072,-0.4604 -0.71593,-0.6837 -1.17637,-0.493 l -0.83902,0.346 c -0.19704,-0.3346 -0.40688,-0.6605 -0.64009,-0.9688 l 0.64009,-0.64007 c 0.35239,-0.3524 0.35239,-0.9191 0,-1.2715 l -0.69198,-0.69194 c -0.3524,-0.35239 -0.91912,-0.35239 -1.27152,0 l -0.64008,0.64014 c -0.30832,-0.23326 -0.63419,-0.4431 -0.96878,-0.64014 l 0.34599,-0.83902 c 0.19072,-0.46044 -0.0326,-0.98565 -0.49304,-1.17637 l -0.89092,-0.37194 c -0.46043,-0.19071 -0.98564,0.0239 -1.17636,0.48439 l -0.34599,0.83903 c -0.37409,-0.097 -0.76074,-0.17122 -1.15042,-0.2249 l 0,-0.90822 c 0,-0.49837 -0.4012,-0.89958 -0.89957,-0.89958 l -0.96878,0 z"
           id="rect4402"
           inkscape:connector-curvature="0" />
        <circle
           d="m 70.000001,47.866402 c 0,4.307821 -3.492179,7.8 -7.8,7.8 -4.307821,0 -7.8,-3.492179 -7.8,-7.8 0,-4.307821 3.492179,-7.800001 7.8,-7.800001 4.307821,0 7.8,3.49218 7.8,7.800001 z"
           style="fill:none;stroke:#333333;stroke-width:1.60000002;stroke-linecap:round;stroke-linejoin:round"
           sodipodi:ry="7.8000002"
           sodipodi:rx="7.8000002"
           sodipodi:cy="47.866402"
           sodipodi:cx="62.200001"
           cx="62.200001"
           cy="47.866402"
           r="7.8000002"
           id="circle4010"
           transform="matrix(0.93750135,0,0,0.93750135,171.80442,961.29354)" />
        <path
           style="fill:none;stroke:#333333;stroke-width:2;stroke-linecap:round;stroke-linejoin:miter;stroke-opacity:1"
           d="m 159.46568,980.58358 -20,0"
           id="path3882"
           inkscape:path-effect="#path-effect3884"
           inkscape:original-d="m 159.46568,980.58358 -20,0"
           inkscape:connector-curvature="0" />
        <path
           style="fill:none;stroke:#333333;stroke-width:2;stroke-linecap:round;stroke-linejoin:miter;stroke-opacity:1"
           d="m 159.46568,1004.9586 -20,0"
           id="path3882-4"
           inkscape:path-effect="#path-effect3884-7"
           inkscape:original-d="m 159.46568,1004.9586 -20,0"
           inkscape:connector-curvature="0" />
        <path
           style="fill:none;stroke:#333333;stroke-width:2;stroke-linecap:round;stroke-linejoin:miter;stroke-opacity:1"
           d="m 159.46568,1029.3336 -20,0"
           id="path3882-9"
           inkscape:path-effect="#path-effect3884-0"
           inkscape:original-d="m 159.46568,1029.3336 -20,0"
           inkscape:connector-curvature="0" />
      </g>
      <g
         id="text3960"
         style="font-size:12px;font-style:normal;font-variant:normal;font-weight:normal;font-stretch:normal;line-height:125%;letter-spacing:0px;word-spacing:0px;fill:#333333;fill-opacity:1;stroke:none;font-family:Arial;-inkscape-font-specification:Arial">
        <path
           id="path4014"
           d="m 65.638672,939.86218 0,-8.58984 3.240234,0 c 0.570308,10e-6 1.005854,0.0274 1.306641,0.082 0.421869,0.0703 0.775384,0.20411 1.060547,0.40137 0.285149,0.19727 0.514641,0.47364 0.688476,0.8291 0.173821,0.35547 0.260735,0.7461 0.260742,1.17187 -7e-6,0.73048 -0.232429,1.34864 -0.697265,1.8545 -0.46485,0.50586 -1.304693,0.75879 -2.519531,0.75879 l -2.203125,0 0,3.49218 z m 1.136719,-4.50586 2.220703,0 c 0.73437,10e-6 1.255854,-0.13671 1.564453,-0.41015 0.308587,-0.27344 0.462884,-0.6582 0.46289,-1.1543 -6e-6,-0.35937 -0.09083,-0.66699 -0.27246,-0.92285 -0.181647,-0.25585 -0.420904,-0.4248 -0.717774,-0.50684 -0.191411,-0.0508 -0.544927,-0.0762 -1.060547,-0.0762 l -2.197265,0 z"
           inkscape:connector-curvature="0" />
        <path
           id="path4016"
           d="m 73.126953,936.75085 c 0,-1.15233 0.320312,-2.00585 0.960938,-2.56054 0.535154,-0.46093 1.187497,-0.6914 1.957031,-0.69141 0.855464,10e-6 1.554683,0.28028 2.097656,0.84082 0.542963,0.56055 0.814447,1.33497 0.814453,2.32324 -6e-6,0.80079 -0.120123,1.43067 -0.360351,1.88965 -0.24024,0.45899 -0.589849,0.81543 -1.048828,1.06934 -0.458989,0.2539 -0.959965,0.38086 -1.50293,0.38086 -0.871096,0 -1.575197,-0.2793 -2.112305,-0.83789 -0.53711,-0.5586 -0.805664,-1.36328 -0.805664,-2.41407 z m 1.083984,0 c -10e-7,0.79688 0.173827,1.39356 0.521485,1.79004 0.347654,0.39649 0.785153,0.59473 1.3125,0.59473 0.523434,0 0.95898,-0.19922 1.30664,-0.59766 0.347652,-0.39843 0.52148,-1.00585 0.521485,-1.82226 -5e-6,-0.76953 -0.17481,-1.35254 -0.524414,-1.74903 -0.349614,-0.39647 -0.784184,-0.59472 -1.303711,-0.59472 -0.527347,0 -0.964846,0.19727 -1.3125,0.5918 -0.347658,0.39453 -0.521486,0.99023 -0.521485,1.7871 z"
           inkscape:connector-curvature="0" />
        <path
           id="path4018"
           d="m 81.347656,939.86218 -1.904297,-6.22265 1.089844,0 0.990234,3.59179 0.369141,1.33594 c 0.01562,-0.0664 0.123044,-0.49414 0.322266,-1.2832 l 0.990234,-3.64453 1.083984,0 0.931641,3.60937 0.310547,1.18945 0.357422,-1.20117 1.066406,-3.59765 1.025391,0 -1.945313,6.22265 -1.095703,0 -0.990234,-3.72656 -0.240235,-1.06055 -1.259765,4.78711 z"
           inkscape:connector-curvature="0" />
        <path
           id="path4020"
           d="m 93.130859,937.85828 1.089844,0.13476 c -0.171881,0.63672 -0.49024,1.13086 -0.955078,1.48242 -0.464848,0.35157 -1.058598,0.52735 -1.78125,0.52735 -0.910159,0 -1.631838,-0.28028 -2.165039,-0.84082 -0.533204,-0.56055 -0.799805,-1.34668 -0.799805,-2.3584 0,-1.04687 0.269531,-1.85937 0.808594,-2.4375 0.539061,-0.57812 1.238279,-0.86718 2.097656,-0.86719 0.832027,10e-6 1.511714,0.28321 2.039063,0.84961 0.527338,0.56641 0.791009,1.36329 0.791015,2.39063 -6e-6,0.0625 -0.002,0.15625 -0.0059,0.28125 l -4.640625,0 c 0.03906,0.68359 0.23242,1.20703 0.580078,1.57031 0.347654,0.36328 0.781247,0.54492 1.300781,0.54492 0.386715,0 0.716793,-0.10156 0.990235,-0.30469 0.273433,-0.20312 0.490229,-0.52734 0.65039,-0.97265 z m -3.46289,-1.70508 3.474609,0 c -0.04688,-0.52344 -0.179692,-0.91601 -0.398437,-1.17774 -0.335942,-0.40624 -0.771489,-0.60937 -1.306641,-0.60937 -0.484378,0 -0.891604,0.16211 -1.22168,0.48633 -0.33008,0.32422 -0.512697,0.75781 -0.547851,1.30078 z"
           inkscape:connector-curvature="0" />
        <path
           id="path4022"
           d="m 95.539062,939.86218 0,-6.22265 0.949219,0 0,0.94336 c 0.242186,-0.4414 0.465818,-0.73242 0.670899,-0.87305 0.205075,-0.14062 0.430661,-0.21093 0.676757,-0.21094 0.355466,10e-6 0.716794,0.11329 1.083985,0.33985 l -0.363281,0.97851 c -0.257816,-0.15234 -0.515629,-0.22851 -0.773438,-0.22851 -0.230471,0 -0.437502,0.0693 -0.621094,0.208 -0.183596,0.13868 -0.314455,0.33106 -0.392578,0.57715 -0.117189,0.37501 -0.175783,0.78516 -0.175781,1.23047 l 0,3.25781 z"
           inkscape:connector-curvature="0" />
      </g>
      <g
         id="text3973"
         style="font-size:12px;font-style:normal;font-variant:normal;font-weight:normal;font-stretch:normal;line-height:125%;letter-spacing:0px;word-spacing:0px;fill:#333333;fill-opacity:1;stroke:none;font-family:Arial;-inkscape-font-specification:Arial">
        <path
           id="path3986"
           d="m 69.945312,1017.0287 0,-1.0078 3.638672,-0.01 0,3.1875 c -0.558601,0.4453 -1.134773,0.7802 -1.728515,1.0049 -0.593757,0.2246 -1.203131,0.3369 -1.828125,0.3369 -0.843754,0 -1.610355,-0.1807 -2.299805,-0.542 -0.689455,-0.3613 -1.209962,-0.8838 -1.561523,-1.5674 -0.351564,-0.6836 -0.527345,-1.4473 -0.527344,-2.291 -10e-7,-0.836 0.174804,-1.6162 0.524414,-2.3408 0.349608,-0.7246 0.852537,-1.2627 1.508789,-1.6143 0.656247,-0.3516 1.412105,-0.5273 2.267578,-0.5273 0.621088,0 1.182611,0.1006 1.68457,0.3017 0.501946,0.2012 0.895501,0.4815 1.180664,0.8408 0.285149,0.3594 0.501945,0.8282 0.650391,1.4063 l -1.025391,0.2812 c -0.128913,-0.4375 -0.289069,-0.7812 -0.480468,-1.0312 -0.191413,-0.25 -0.46485,-0.4502 -0.820313,-0.6006 -0.355474,-0.1504 -0.750005,-0.2256 -1.183594,-0.2256 -0.519535,0 -0.968753,0.079 -1.347656,0.2373 -0.378909,0.1582 -0.684573,0.3662 -0.916992,0.624 -0.232424,0.2579 -0.413088,0.5411 -0.541992,0.8497 -0.218752,0.5312 -0.328127,1.1074 -0.328125,1.7285 -2e-6,0.7656 0.131834,1.4062 0.395508,1.9218 0.263669,0.5157 0.647458,0.8985 1.151367,1.1485 0.503902,0.25 1.039058,0.375 1.605469,0.375 0.492182,0 0.97265,-0.095 1.441406,-0.2842 0.468743,-0.1894 0.824211,-0.3916 1.066406,-0.6064 l 0,-1.5997 z"
           inkscape:connector-curvature="0" />
        <path
           id="path3988"
           d="m 75.107422,1020.3979 0,-6.2227 0.949219,0 0,0.9434 c 0.242185,-0.4414 0.465818,-0.7324 0.670898,-0.8731 0.205076,-0.1406 0.430661,-0.2109 0.676758,-0.2109 0.355465,0 0.716793,0.1133 1.083984,0.3399 L 78.125,1015.353 c -0.257816,-0.1524 -0.515628,-0.2285 -0.773438,-0.2285 -0.230471,0 -0.437502,0.069 -0.621093,0.208 -0.183596,0.1386 -0.314455,0.331 -0.392578,0.5771 -0.11719,0.375 -0.175783,0.7852 -0.175782,1.2305 l 0,3.2578 z"
           inkscape:connector-curvature="0" />
        <path
           id="path3990"
           d="m 78.734375,1017.2866 c 0,-1.1524 0.320312,-2.0059 0.960937,-2.5606 0.535155,-0.4609 1.187498,-0.6914 1.957032,-0.6914 0.855464,0 1.554682,0.2803 2.097656,0.8408 0.542963,0.5606 0.814447,1.335 0.814453,2.3233 -6e-6,0.8008 -0.120123,1.4306 -0.360351,1.8896 -0.24024,0.459 -0.589849,0.8154 -1.048829,1.0694 -0.458988,0.2539 -0.959964,0.3808 -1.502929,0.3808 -0.871096,0 -1.575197,-0.2793 -2.112305,-0.8379 -0.53711,-0.5586 -0.805664,-1.3633 -0.805664,-2.414 z m 1.083984,0 c -10e-7,0.7968 0.173827,1.3935 0.521485,1.79 0.347654,0.3965 0.785153,0.5947 1.3125,0.5947 0.523433,0 0.95898,-0.1992 1.30664,-0.5976 0.347652,-0.3985 0.52148,-1.0059 0.521485,-1.8223 -5e-6,-0.7695 -0.17481,-1.3525 -0.524414,-1.749 -0.349614,-0.3965 -0.784184,-0.5947 -1.303711,-0.5947 -0.527347,0 -0.964846,0.1972 -1.3125,0.5918 -0.347658,0.3945 -0.521486,0.9902 -0.521485,1.7871 z"
           inkscape:connector-curvature="0" />
        <path
           id="path3992"
           d="m 89.884766,1020.3979 0,-0.9141 c -0.48438,0.7032 -1.142582,1.0547 -1.97461,1.0547 -0.36719,0 -0.709963,-0.07 -1.02832,-0.2109 -0.318361,-0.1406 -0.554689,-0.3174 -0.708984,-0.5303 -0.154298,-0.2129 -0.262697,-0.4736 -0.325196,-0.7822 -0.04297,-0.2071 -0.06445,-0.5352 -0.06445,-0.9844 l 0,-3.8555 1.054688,0 0,3.4512 c -2e-6,0.5508 0.02148,0.9219 0.06445,1.1133 0.0664,0.2773 0.207029,0.4951 0.421875,0.6533 0.214841,0.1582 0.480466,0.2373 0.796875,0.2373 0.316403,0 0.613277,-0.081 0.890625,-0.2432 0.277339,-0.1621 0.473628,-0.3828 0.588867,-0.6621 0.11523,-0.2793 0.172847,-0.6845 0.172851,-1.2158 l 0,-3.334 1.054688,0 0,6.2227 z"
           inkscape:connector-curvature="0" />
        <path
           id="path3994"
           d="m 92.486328,1020.3979 0,-6.2227 0.949219,0 0,0.8848 c 0.457029,-0.6836 1.117185,-1.0254 1.980469,-1.0254 0.374996,0 0.719722,0.067 1.034179,0.2022 0.314448,0.1347 0.5498,0.3115 0.706055,0.5302 0.156244,0.2188 0.265619,0.4785 0.328125,0.7793 0.03906,0.1953 0.05859,0.5371 0.05859,1.0254 l 0,3.8262 -1.054688,0 0,-3.7852 c -5e-6,-0.4297 -0.04102,-0.7509 -0.123047,-0.9638 -0.08204,-0.2129 -0.227543,-0.3828 -0.436523,-0.5098 -0.208988,-0.1269 -0.454105,-0.1904 -0.735352,-0.1904 -0.449221,0 -0.836916,0.1426 -1.163086,0.4277 -0.326173,0.2852 -0.489259,0.8262 -0.489257,1.6231 l 0,3.3984 z"
           inkscape:connector-curvature="0" />
        <path
           id="path3996"
           d="m 103.20313,1020.3979 0,-0.7852 c -0.39454,0.6172 -0.97462,0.9258 -1.74024,0.9258 -0.4961,0 -0.95215,-0.1367 -1.36816,-0.4101 -0.41602,-0.2735 -0.738286,-0.6553 -0.9668,-1.1456 -0.228516,-0.4902 -0.342774,-1.0537 -0.342774,-1.6904 0,-0.6211 0.103515,-1.1845 0.310547,-1.6904 0.20703,-0.5059 0.517577,-0.8936 0.931637,-1.1631 0.41406,-0.2695 0.87695,-0.4043 1.38868,-0.4043 0.37499,0 0.70898,0.079 1.00195,0.2373 0.29296,0.1582 0.53124,0.3643 0.71484,0.6182 l 0,-3.0821 1.04883,0 0,8.5899 z m -3.333989,-3.1055 c -2e-6,0.7969 0.167969,1.3926 0.503909,1.7871 0.33593,0.3946 0.73242,0.5918 1.18945,0.5918 0.46093,0 0.85254,-0.1884 1.1748,-0.5654 0.32227,-0.377 0.4834,-0.9522 0.4834,-1.7256 0,-0.8515 -0.16406,-1.4765 -0.49218,-1.875 -0.32813,-0.3984 -0.73243,-0.5976 -1.21289,-0.5976 -0.46876,0 -0.86036,0.1914 -1.17481,0.5742 -0.31445,0.3828 -0.471681,0.9863 -0.471679,1.8105 z"
           inkscape:connector-curvature="0" />
      </g>
      <g
         id="text3977"
         style="font-size:12px;font-style:normal;font-variant:normal;font-weight:normal;font-stretch:normal;line-height:125%;letter-spacing:0px;word-spacing:0px;fill:#333333;fill-opacity:1;stroke:none;font-family:Arial;-inkscape-font-specification:Arial">
        <path
           id="path3999"
           d="m 72.095703,976.61951 1.136719,0.28711 c -0.238289,0.93359 -0.667,1.64551 -1.286133,2.13574 -0.619147,0.49023 -1.375982,0.73535 -2.270508,0.73535 -0.925785,0 -1.678714,-0.18848 -2.258789,-0.56543 -0.58008,-0.37695 -1.021486,-0.92285 -1.324219,-1.6377 -0.302735,-0.71484 -0.454102,-1.48241 -0.454101,-2.30273 -10e-7,-0.89453 0.170898,-1.6748 0.512695,-2.34082 0.341796,-0.66601 0.828123,-1.17187 1.458985,-1.51758 0.630856,-0.34569 1.325191,-0.51854 2.083007,-0.51855 0.85937,10e-6 1.582025,0.21876 2.167969,0.65625 0.58593,0.43751 0.994133,1.05274 1.224609,1.8457 l -1.11914,0.26367 c -0.199226,-0.62499 -0.488288,-1.08007 -0.867188,-1.36523 -0.378912,-0.28515 -0.855474,-0.42773 -1.429687,-0.42774 -0.66016,10e-6 -1.211918,0.15821 -1.655274,0.47461 -0.443361,0.31642 -0.754885,0.74122 -0.93457,1.27442 -0.179689,0.53321 -0.269533,1.08301 -0.269531,1.64941 -2e-6,0.73047 0.106443,1.36817 0.319336,1.91309 0.212888,0.54492 0.543942,0.95215 0.993164,1.22168 0.449215,0.26953 0.935543,0.40429 1.458984,0.40429 0.636714,0 1.175776,-0.18359 1.617188,-0.55078 0.441399,-0.36718 0.740227,-0.9121 0.896484,-1.63476 z"
           inkscape:connector-curvature="0" />
        <path
           id="path4001"
           d="m 74.111328,976.5199 c 0,-1.15234 0.320312,-2.00586 0.960938,-2.56055 0.535154,-0.46093 1.187497,-0.6914 1.957031,-0.69141 0.855464,1e-5 1.554683,0.28028 2.097656,0.84082 0.542963,0.56056 0.814447,1.33497 0.814453,2.32325 -6e-6,0.80078 -0.120123,1.43066 -0.360351,1.88965 -0.24024,0.45898 -0.589849,0.81543 -1.048828,1.06933 -0.458989,0.25391 -0.959965,0.38086 -1.50293,0.38086 -0.871096,0 -1.575197,-0.2793 -2.112305,-0.83789 -0.53711,-0.55859 -0.805664,-1.36328 -0.805664,-2.41406 z m 1.083984,0 c -10e-7,0.79687 0.173827,1.39355 0.521485,1.79004 0.347654,0.39648 0.785153,0.59472 1.3125,0.59472 0.523434,0 0.95898,-0.19921 1.30664,-0.59765 0.347652,-0.39844 0.52148,-1.00586 0.521485,-1.82227 -5e-6,-0.76953 -0.17481,-1.35253 -0.524414,-1.74902 -0.349614,-0.39648 -0.784184,-0.59472 -1.303711,-0.59473 -0.527347,10e-6 -0.964846,0.19727 -1.3125,0.5918 -0.347658,0.39453 -0.521486,0.99024 -0.521485,1.78711 z"
           inkscape:connector-curvature="0" />
        <path
           id="path4003"
           d="m 81.183594,979.63123 0,-6.22266 0.949218,0 0,0.88476 c 0.45703,-0.68358 1.117185,-1.02538 1.980469,-1.02539 0.374996,1e-5 0.719722,0.0674 1.03418,0.20215 0.314448,0.13477 0.549799,0.31153 0.706055,0.53028 0.156244,0.21875 0.265619,0.47852 0.328125,0.77929 0.03906,0.19532 0.05859,0.53712 0.05859,1.02539 l 0,3.82618 -1.054687,0 0,-3.78516 c -5e-6,-0.42968 -0.04102,-0.75097 -0.123047,-0.96387 -0.08204,-0.21288 -0.227544,-0.38281 -0.436523,-0.50976 -0.208989,-0.12695 -0.454106,-0.19043 -0.735352,-0.19043 -0.449222,0 -0.836917,0.14258 -1.163086,0.42773 -0.326174,0.28516 -0.48926,0.82618 -0.489258,1.62305 l 0,3.39844 z"
           inkscape:connector-curvature="0" />
        <path
           id="path4005"
           d="m 90.166016,978.68787 0.152343,0.93164 c -0.296878,0.0625 -0.562502,0.0937 -0.796875,0.0937 -0.382814,0 -0.679689,-0.0606 -0.890625,-0.18164 -0.210938,-0.1211 -0.359376,-0.28028 -0.445312,-0.47754 -0.08594,-0.19727 -0.128907,-0.61231 -0.128906,-1.24512 l 0,-3.58008 -0.773438,0 0,-0.82031 0.773438,0 0,-1.54102 1.048828,-0.63281 0,2.17383 1.060547,0 0,0.82031 -1.060547,0 0,3.63867 c -2e-6,0.30079 0.01855,0.49415 0.05566,0.58008 0.03711,0.0859 0.09765,0.1543 0.18164,0.20508 0.08398,0.0508 0.2041,0.0762 0.360352,0.0762 0.117185,0 0.271481,-0.0137 0.462891,-0.041 z"
           inkscape:connector-curvature="0" />
        <path
           id="path4007"
           d="m 91.179687,979.63123 0,-6.22266 0.949219,0 0,0.94336 c 0.242186,-0.4414 0.465818,-0.73242 0.670899,-0.87305 0.205075,-0.14062 0.430661,-0.21093 0.676757,-0.21094 0.355466,1e-5 0.716794,0.11329 1.083985,0.33985 l -0.363281,0.97851 c -0.257816,-0.15233 -0.515629,-0.22851 -0.773438,-0.22851 -0.230471,0 -0.437502,0.0693 -0.621094,0.20801 -0.183596,0.13867 -0.314455,0.33106 -0.392578,0.57714 -0.117189,0.37501 -0.175783,0.78516 -0.175781,1.23047 l 0,3.25782 z"
           inkscape:connector-curvature="0" />
        <path
           id="path4009"
           d="m 94.806641,976.5199 c -10e-7,-1.15234 0.320311,-2.00586 0.960937,-2.56055 0.535154,-0.46093 1.187498,-0.6914 1.957031,-0.69141 0.855465,1e-5 1.554683,0.28028 2.097657,0.84082 0.542964,0.56056 0.814444,1.33497 0.814454,2.32325 -1e-5,0.80078 -0.12012,1.43066 -0.36035,1.88965 -0.24024,0.45898 -0.589852,0.81543 -1.048831,1.06933 -0.458989,0.25391 -0.959965,0.38086 -1.50293,0.38086 -0.871096,0 -1.575197,-0.2793 -2.112304,-0.83789 -0.53711,-0.55859 -0.805665,-1.36328 -0.805664,-2.41406 z m 1.083984,0 c -10e-7,0.79687 0.173826,1.39355 0.521484,1.79004 0.347654,0.39648 0.785154,0.59472 1.3125,0.59472 0.523434,0 0.95898,-0.19921 1.306641,-0.59765 0.347651,-0.39844 0.521479,-1.00586 0.521484,-1.82227 -5e-6,-0.76953 -0.174809,-1.35253 -0.524414,-1.74902 -0.349613,-0.39648 -0.784183,-0.59472 -1.303711,-0.59473 -0.527346,10e-6 -0.964846,0.19727 -1.3125,0.5918 -0.347658,0.39453 -0.521485,0.99024 -0.521484,1.78711 z"
           inkscape:connector-curvature="0" />
        <path
           id="path4011"
           d="m 101.85547,979.63123 0,-8.58985 1.05469,0 0,8.58985 z"
           inkscape:connector-curvature="0" />
      </g>
    </g>
  </g>
</svg>
