<!-- Created with Inkscape (http://www.inkscape.org/) -->
<svg xmlns:rdf="http://www.w3.org/1999/02/22-rdf-syntax-ns#" xmlns="http://www.w3.org/2000/svg" version="1.1" xmlns:cc="http://creativecommons.org/ns#" xmlns:xlink="http://www.w3.org/1999/xlink" viewBox="0 0 1495 537.4" xmlns:dc="http://purl.org/dc/elements/1.1/">
<metadata>
<rdf:RDF>
<cc:Work rdf:about="">
<dc:format>image/svg+xml</dc:format>
<dc:type rdf:resource="http://purl.org/dc/dcmitype/StillImage"/>
<dc:title/>
</cc:Work>
</rdf:RDF>
</metadata>
<defs>
<pattern id="pattern6067" xlink:href="#pattern6061" patternTransform="matrix(10,0,0,10,-16.397347,-31.403108)"/>
<pattern id="pattern6061" xlink:href="#Polkadots-med" patternTransform="matrix(10,0,0,10,-15.913779,-31.191007)"/>
<pattern id="pattern5949" xlink:href="#pattern5478" patternTransform="matrix(10,0,0,10,-238.43971,-105.87211)"/>
<pattern id="pattern5478" xlink:href="#Polkadots-med" patternTransform="matrix(10,0,0,10,-607.98022,-366.17081)"/>
<pattern id="Polkadots-med" height="10" width="10" patternUnits="userSpaceOnUse" patternTransform="translate(0,0) scale(10,10)" fill="#000">
<circle cy="0.81" cx="2.567" r="0.15"/>
<circle cy="2.33" cx="3.048" r="0.15"/>
<circle cy="2.415" cx="4.418" r="0.15"/>
<circle cy="3.029" cx="1.844" r="0.15"/>
<circle cy="1.363" cx="6.08" r="0.15"/>
<circle cy="4.413" cx="5.819" r="0.15"/>
<circle cy="4.048" cx="4.305" r="0.15"/>
<circle cy="3.045" cx="5.541" r="0.15"/>
<circle cy="5.527" cx="4.785" r="0.15"/>
<circle cy="5.184" cx="2.667" r="0.15"/>
<circle cy="1.448" cx="7.965" r="0.15"/>
<circle cy="5.049" cx="7.047" r="0.15"/>
<circle cy="0.895" cx="4.34" r="0.15"/>
<circle cy="0.34" cx="7.125" r="0.15"/>
<circle cy="1.049" cx="9.553" r="0.15"/>
<circle cy="2.689" cx="7.006" r="0.15"/>
<circle cy="2.689" cx="8.909" r="0.15"/>
<circle cy="4.407" cx="9.315" r="0.15"/>
<circle cy="3.87" cx="7.82" r="0.15"/>
<circle cy="5.948" cx="8.27" r="0.15"/>
<circle cy="7.428" cx="7.973" r="0.15"/>
<circle cy="8.072" cx="9.342" r="0.15"/>
<circle cy="9.315" cx="8.206" r="0.15"/>
<circle cy="9.475" cx="9.682" r="0.15"/>
<circle cy="6.186" cx="9.688" r="0.15"/>
<circle cy="6.296" cx="3.379" r="0.15"/>
<circle cy="8.204" cx="2.871" r="0.15"/>
<circle cy="8.719" cx="4.59" r="0.15"/>
<circle cy="9.671" cx="3.181" r="0.15"/>
<circle cy="7.315" cx="5.734" r="0.15"/>
<circle cy="6.513" cx="6.707" r="0.15"/>
<circle cy="9.67" cx="5.73" r="0.15"/>
<circle cy="8.373" cx="6.535" r="0.15"/>
<circle cy="7.154" cx="4.37" r="0.15"/>
<circle cy="7.25" cx="0.622" r="0.15"/>
<circle cy="5.679" cx="0.831" r="0.15"/>
<circle cy="8.519" cx="1.257" r="0.15"/>
<circle cy="6.877" cx="1.989" r="0.15"/>
<circle cy="3.181" cx="0.374" r="0.15"/>
<circle cy="1.664" cx="1.166" r="0.15"/>
<circle cy="0.093" cx="1.151" r="0.15"/>
<circle cy="10.09" cx="1.151" r="0.15"/>
<circle cy="4.451" cx="1.302" r="0.15"/>
<circle cy="3.763" cx="3.047" r="0.15"/>
</pattern>
<pattern id="pattern3765" width="390.3125" patternUnits="userSpaceOnUse" patternTransform="translate(560.5625,341.15625)" height="74.375">
<path stroke-linejoin="miter" d="m0.9493,0.4932,388.9,0,0,73.37-389.3,0z" stroke="#000" stroke-linecap="butt" stroke-width="1px" fill="#00F"/>
</pattern>
</defs>
<text style="letter-spacing:0px;word-spacing:0px;" font-weight="normal" xml:space="preserve" font-size="40px" font-style="normal" y="947.09045" x="799.21112" font-family="Sans" line-height="125%" fill="#000000"><tspan x="799.21112" y="947.09045"/></text>
<g transform="translate(-163.47604,-679.81519)">
<g transform="translate(50.41228,104.42544)">
<g transform="translate(23.018079,535.42412)">
<rect height="74.38" width="387.8" stroke="#000" y="341.2" x="561.5" stroke-width="0.9968" fill="#00F"/>
<rect height="74.38" width="390.3" y="341.1" x="561.1" fill="url(#pattern5949)"/>
<g transform="translate(0.2250546,-0.2250548)" stroke="url(#pattern3765)">
<path stroke-linejoin="miter" d="m949.3,341.7,194.4-145.6,0,74.27-194,144.9z" stroke="#000" stroke-linecap="butt" stroke-width="1px" fill="#00F"/>
<path fill="url(#pattern6067)" d="m948.8,342.2,194.4-145.6,0,74.27-194,144.9z"/>
</g>
<path stroke-linejoin="miter" d="m949.7,318.1,0,23.24-388.2,0,0-23.32c129.4,0.1658,258.8,0.0796,388.2,0.0796z" stroke="#000" stroke-linecap="butt" stroke-width="0.99830389px" fill="#d5d5d5"/>
<path stroke-linejoin="miter" d="m949.8,415.8,0,22.79-388.2,0.4501,0-23.32c129.4,0.1658,258.8,0.0796,388.2,0.0796z" stroke="#000" stroke-linecap="butt" stroke-width="0.99830389px" fill="#d5d5d5"/>
<path stroke-linejoin="bevel" d="m949.7,415.5,194.1-144.9,0,22.48-194,145.5z" stroke="#000" stroke-linecap="butt" stroke-width="1px" fill="#d5d5d5"/>
<path stroke-linejoin="miter" d="m949.9,318.1,194.1-144.9,0,22.48-194,145.1z" stroke="#000" stroke-linecap="butt" stroke-width="1px" fill="#d5d5d5"/>
<path stroke-linejoin="bevel" d="M561.5,317.9,949.6,318.4,1144,172.9,754.5,172.2z" stroke="#000" stroke-linecap="butt" stroke-width="1px" fill="#d5d5d5"/>
</g>
<g style="letter-spacing:0px;word-spacing:0px;" font-family="Sans" font-size="40px" line-height="125%" font-style="normal" font-weight="normal" fill="#000">
<path d="m657.6,842.6v-5.3h-5.26v-2.215h5.26v-5.26h2.241v5.26h5.26v2.215h-5.26v5.3h-2.241z"/>
<path d="m703.3,842.6v-5.3h-5.26v-2.215h5.26v-5.26h2.241v5.26h5.26v2.215h-5.26v5.3h-2.241z"/>
<path d="m741.6,842.6v-5.3h-5.26v-2.215h5.26v-5.26h2.241v5.26h5.26v2.215h-5.26v5.3h-2.241z"/>
<path d="m787.3,842.6v-5.3h-5.26v-2.215h5.26v-5.26h2.241v5.26h5.26v2.215h-5.26v5.3h-2.241z"/>
<path d="m833,842.6v-5.3h-5.26v-2.215h5.26v-5.26h2.241v5.26h5.26v2.215h-5.26v5.3h-2.241z"/>
<path d="m878.7,842.6v-5.3h-5.26v-2.215h5.26v-5.26h2.241v5.26h5.26v2.215h-5.26v5.3h-2.241z"/>
<path d="m917,842.6v-5.3h-5.26v-2.215h5.26v-5.26h2.241v5.26h5.26v2.215h-5.26v5.3h-2.241z"/>
</g>
<g style="letter-spacing:0px;word-spacing:0px;" font-family="Sans" font-size="40px" line-height="125%" font-style="normal" font-weight="normal" fill="#000">
<path d="m974.8,832.6,0-5.3-5.26,0,0-2.215,5.26,0,0-5.26,2.241,0,0,5.26,5.26,0,0,2.215-5.26,0,0,5.3z"/>
</g>
<g style="letter-spacing:0px;word-spacing:0px;" font-family="Sans" font-size="40px" line-height="125%" font-style="normal" font-weight="normal" fill="#000">
<path d="m1005,812.3,0-5.3-5.26,0,0-2.215,5.26,0,0-5.26,2.241,0,0,5.26,5.26,0,0,2.215-5.26,0,0,5.3z"/>
</g>
<g style="letter-spacing:0px;word-spacing:0px;" font-family="Sans" font-size="40px" line-height="125%" font-style="normal" font-weight="normal" fill="#000">
<path d="m1040,787.1,0-5.3-5.26,0,0-2.215,5.26,0,0-5.26,2.241,0,0,5.26,5.26,0,0,2.215-5.26,0,0,5.3z"/>
</g>
<g style="letter-spacing:0px;word-spacing:0px;" font-weight="normal" transform="translate(-7.0020627,0)" font-size="40px" font-style="normal" font-family="Sans" line-height="125%" fill="#000">
<path d="m649.3,987.3,0-2.386,7.291,0,0,2.386z"/>
<path d="m688.3,987.3,0-2.386,7.291,0,0,2.386z"/>
<path d="m727.3,987.3,0-2.386,7.291,0,0,2.386z"/>
<path d="m766.3,987.3,0-2.386,7.291,0,0,2.386z"/>
<path d="m805.2,987.3,0-2.386,7.291,0,0,2.386z"/>
<path d="m844.2,987.3,0-2.386,7.291,0,0,2.386z"/>
<path d="m883.2,987.3v-2.386h7.291v2.386h-7.291z"/>
<path d="m937.1,987.3,0-2.386,7.291,0,0,2.386z"/>
</g>
<g style="letter-spacing:0px;word-spacing:0px;" font-family="Sans" font-size="40px" line-height="125%" font-style="normal" font-weight="normal" fill="#000">
<path d="m1009,972.2,0-2.386,7.29,0,0,2.386z"/>
</g>
<g style="letter-spacing:0px;word-spacing:0px;" font-family="Sans" font-size="40px" line-height="125%" font-style="normal" font-weight="normal" fill="#000">
<path d="m1049,946.6,0-2.386,7.29,0,0,2.386z"/>
</g>
<g style="letter-spacing:0px;word-spacing:0px;" font-family="Sans" font-size="40px" line-height="125%" font-style="normal" font-weight="normal" fill="#000">
<path d="m1081,923.4,0-2.386,7.29,0,0,2.386z"/>
</g>
<g style="letter-spacing:0px;word-spacing:0px;" font-family="Sans" font-size="40px" line-height="125%" font-style="normal" font-weight="normal" fill="#000">
<path d="m1140,880.9,0-2.386,7.29,0,0,2.386z"/>
</g>
<g transform="matrix(1.0351654,0,0,1.0351654,-109.14409,523.50151)">
<path style="baseline-shift:baseline;block-progression:tb;color:#000000;direction:ltr;text-indent:0;text-align:start;enable-background:accumulate;text-transform:none;" fill="#000" d="m703.7,341.4,0,25.06,1,0,0-25.06-1,0z"/>
<path d="m704.2,371.1-4.506-8.439,8.563,0.1688z" fill-rule="evenodd" stroke="#000" stroke-width="0.8pt"/>
<path style="baseline-shift:baseline;block-progression:tb;color:#000000;direction:ltr;text-indent:0;text-align:start;enable-background:accumulate;text-transform:none;" fill="#000" d="m703.7,371.3,0,42.5,1,0,0-42.5-1,0z"/>
</g>
<g transform="matrix(1.0351654,0,0,1.0351654,-34.081728,523.50125)">
<path style="baseline-shift:baseline;block-progression:tb;color:#000000;direction:ltr;text-indent:0;text-align:start;enable-background:accumulate;text-transform:none;" fill="#000" d="m703.7,341.4,0,25.06,1,0,0-25.06-1,0z"/>
<path d="m704.2,371.1-4.506-8.439,8.563,0.1688z" fill-rule="evenodd" stroke="#000" stroke-width="0.8pt"/>
<path style="baseline-shift:baseline;block-progression:tb;color:#000000;direction:ltr;text-indent:0;text-align:start;enable-background:accumulate;text-transform:none;" fill="#000" d="m703.7,371.3,0,42.5,1,0,0-42.5-1,0z"/>
</g>
<g transform="matrix(1.0351654,0,0,1.0351654,41.426058,523.50125)">
<path style="baseline-shift:baseline;block-progression:tb;color:#000000;direction:ltr;text-indent:0;text-align:start;enable-background:accumulate;text-transform:none;" fill="#000" d="m703.7,341.4,0,25.06,1,0,0-25.06-1,0z"/>
<path d="m704.2,371.1-4.506-8.439,8.563,0.1688z" fill-rule="evenodd" stroke="#000" stroke-width="0.8pt"/>
<path style="baseline-shift:baseline;block-progression:tb;color:#000000;direction:ltr;text-indent:0;text-align:start;enable-background:accumulate;text-transform:none;" fill="#000" d="m703.7,371.3,0,42.5,1,0,0-42.5-1,0z"/>
</g>
<g transform="matrix(1.0351654,0,0,1.0351654,117.05561,523.50125)">
<path style="baseline-shift:baseline;block-progression:tb;color:#000000;direction:ltr;text-indent:0;text-align:start;enable-background:accumulate;text-transform:none;" fill="#000" d="m703.7,341.4,0,25.06,1,0,0-25.06-1,0z"/>
<path d="m704.2,371.1-4.506-8.439,8.563,0.1688z" fill-rule="evenodd" stroke="#000" stroke-width="0.8pt"/>
<path style="baseline-shift:baseline;block-progression:tb;color:#000000;direction:ltr;text-indent:0;text-align:start;enable-background:accumulate;text-transform:none;" fill="#000" d="m703.7,371.3,0,42.5,1,0,0-42.5-1,0z"/>
</g>
<g transform="matrix(1.0351654,0,0,1.0351654,191.76755,523.50125)">
<path style="baseline-shift:baseline;block-progression:tb;color:#000000;direction:ltr;text-indent:0;text-align:start;enable-background:accumulate;text-transform:none;" fill="#000" d="m703.7,341.4,0,25.06,1,0,0-25.06-1,0z"/>
<path d="m704.2,371.1-4.506-8.439,8.563,0.1688z" fill-rule="evenodd" stroke="#000" stroke-width="0.8pt"/>
<path style="baseline-shift:baseline;block-progression:tb;color:#000000;direction:ltr;text-indent:0;text-align:start;enable-background:accumulate;text-transform:none;" fill="#000" d="m703.7,371.3,0,42.5,1,0,0-42.5-1,0z"/>
</g>
<g transform="matrix(1,0,0,1.0176174,308.67542,500.22521)">
<path style="baseline-shift:baseline;block-progression:tb;color:#000000;direction:ltr;text-indent:0;text-align:start;enable-background:accumulate;text-transform:none;" fill="#000" d="m703.7,341.4,0,25.06,1,0,0-25.06-1,0z"/>
<path d="m704.2,371.1-4.506-8.439,8.563,0.1688z" fill-rule="evenodd" stroke="#000" stroke-width="0.8pt"/>
<path style="baseline-shift:baseline;block-progression:tb;color:#000000;direction:ltr;text-indent:0;text-align:start;enable-background:accumulate;text-transform:none;" fill="#000" d="m703.7,371.3,0,42.5,1,0,0-42.5-1,0z"/>
</g>
<g transform="matrix(1,0,0,1.0176174,380.65122,445.21725)">
<path style="baseline-shift:baseline;block-progression:tb;color:#000000;direction:ltr;text-indent:0;text-align:start;enable-background:accumulate;text-transform:none;" fill="#000" d="m703.7,341.4,0,25.06,1,0,0-25.06-1,0z"/>
<path d="m704.2,371.1-4.506-8.439,8.563,0.1688z" fill-rule="evenodd" stroke="#000" stroke-width="0.8pt"/>
<path style="baseline-shift:baseline;block-progression:tb;color:#000000;direction:ltr;text-indent:0;text-align:start;enable-background:accumulate;text-transform:none;" fill="#000" d="m703.7,371.3,0,42.5,1,0,0-42.5-1,0z"/>
</g>
<path stroke-linejoin="miter" d="m314.5,396.1c0,20.39-16.53,36.92-36.92,36.92s-36.92-16.53-36.92-36.92,16.53-36.92,36.92-36.92,36.92,16.53,36.92,36.92z" fill-rule="evenodd" transform="translate(-59.214782,517.86164)" stroke="#000" stroke-linecap="butt" stroke-width="1px" fill="#FFF"/>
<text style="letter-spacing:0px;word-spacing:0px;" font-weight="normal" xml:space="preserve" font-size="40px" font-style="normal" y="905.78967" x="210.66046" font-family="Sans" line-height="125%" fill="#000000"><tspan font-size="27px" line-height="125%" y="905.78967" x="210.66046">+</tspan><tspan y="939.53967" x="210.66046" line-height="50%"/></text>
<g style="letter-spacing:0px;word-spacing:0px;" font-weight="normal" transform="matrix(1.3492497,0,0,1,-1147.466,-37.618838)" font-size="40px" font-style="normal" font-family="Sans" line-height="125%" fill="#000">
<path d="m1009,972.2,0-2.386,7.29,0,0,2.386z"/>
</g>
<g style="letter-spacing:0px;word-spacing:0px;" font-weight="normal" transform="translate(188.93095,-104.42544)" font-size="40px" font-style="normal" font-family="Sans" line-height="125%" fill="#000">
<path d="m-67.98,1028c-2.63-6.914-5.26-13.83-7.891-20.74h3.711c1.655,4.652,3.357,9.288,4.979,13.95,0.2874,0.8768,0.5544,1.76,0.8026,2.649,1.018-3.395,2.34-6.689,3.524-10.03,0.7981-2.191,1.596-4.382,2.394-6.574h3.613c-2.617,6.914-5.234,13.83-7.852,20.74h-3.281z"/>
<path d="m-47.02,1036c-2.949-3.824-5.195-8.253-6.297-12.97-1.412-6.24-0.4509-12.93,2.533-18.58,1.071-2.105,2.349-4.1,3.764-5.989h2.52c-1.997,3.37-3.907,6.856-4.821,10.7-1.796,6.828-1.173,14.21,1.618,20.69,0.8935,2.136,1.98,4.19,3.204,6.154h-2.52z"/>
<path d="m-32.7,1025,0.5078,3.105c-0.9896,0.2084-1.875,0.3125-2.656,0.3125-1.276,0-2.266-0.2018-2.969-0.6054-0.7031-0.4037-1.198-0.9343-1.484-1.592-0.2865-0.6576-0.4297-2.041-0.4297-4.15v-11.93h-2.578v-2.734h2.578v-5.137l3.496-2.109v7.246h3.535v2.734h-3.535v12.13c-0.000007,1.003,0.06184,1.647,0.1855,1.934,0.1237,0.2864,0.3255,0.5143,0.6055,0.6836,0.2799,0.1692,0.6803,0.2539,1.201,0.2539,0.3906,0,0.9049-0.046,1.543-0.1367z"/>
<path d="m-26.98,1036-2.52,0c3.893-6.25,5.84-12.51,5.84-18.77-0.000009-2.448-0.28-4.876-0.8398-7.285-0.4427-1.953-1.061-3.828-1.855-5.625-0.5078-1.172-1.556-3.125-3.145-5.859h2.52c2.448,3.268,4.258,6.55,5.43,9.844,1.003,2.839,1.504,5.807,1.504,8.906-0.000012,3.516-0.6738,6.914-2.021,10.2-1.348,3.281-2.985,6.146-4.912,8.594z"/>
</g>
<g style="letter-spacing:0px;word-spacing:0px;" font-weight="normal" transform="translate(441.85746,-198.79478)" font-size="40px" font-style="normal" font-family="Sans" line-height="125%" fill="#000">
<path d="m-73.76,1022,0-23.62,17.08,0,0,2.788-13.95,0,0,7.235,13.07,0,0,2.771-13.07,0,0,8.041,14.5,0,0,2.788z"/>
<path d="m-52.22,1022,0-23.62,2.9,0,0,23.62z"/>
<path d="m-33.09,1017,2.997,0.3706c-0.4727,1.751-1.348,3.11-2.626,4.077-1.278,0.9668-2.911,1.45-4.898,1.45-2.503,0-4.488-0.7708-5.954-2.312-1.466-1.542-2.199-3.703-2.199-6.486-0.000001-2.879,0.7412-5.113,2.224-6.703,1.482-1.59,3.405-2.385,5.769-2.385,2.288,0,4.157,0.7788,5.607,2.336,1.45,1.558,2.175,3.749,2.175,6.574-0.000017,0.1719-0.0054,0.4297-0.01611,0.7734h-12.76c0.1074,1.88,0.6392,3.319,1.595,4.318,0.956,0.999,2.148,1.498,3.577,1.498,1.063,0,1.971-0.2793,2.723-0.8379,0.7519-0.5586,1.348-1.45,1.789-2.675zm-9.523-4.689,9.555,0c-0.1289-1.44-0.4942-2.519-1.096-3.239-0.9238-1.117-2.122-1.676-3.593-1.676-1.332,0-2.452,0.4458-3.36,1.337-0.9077,0.8916-1.41,2.084-1.507,3.577z"/>
<path d="m-15.27,1016,2.852,0.3706c-0.3115,1.966-1.109,3.505-2.393,4.616-1.284,1.112-2.86,1.668-4.729,1.668-2.342,0-4.224-0.7654-5.648-2.296-1.423-1.531-2.135-3.725-2.135-6.582-0.000001-1.848,0.3062-3.464,0.9185-4.85s1.544-2.425,2.796-3.118c1.251-0.6929,2.613-1.039,4.085-1.039,1.858,0,3.378,0.4699,4.56,1.41,1.182,0.9399,1.939,2.275,2.272,4.004l-2.82,0.4351c-0.2686-1.149-0.7439-2.014-1.426-2.594s-1.507-0.8701-2.473-0.8701c-1.461,0-2.648,0.5237-3.561,1.571-0.9131,1.047-1.37,2.704-1.37,4.971-0.000004,2.299,0.4404,3.969,1.321,5.011,0.8809,1.042,2.03,1.563,3.448,1.563,1.139,0,2.089-0.3491,2.852-1.047,0.7627-0.6983,1.246-1.772,1.45-3.223z"/>
<path d="m-3.607,1019,0.4189,2.562c-0.8164,0.1719-1.547,0.2579-2.191,0.2579-1.053,0-1.869-0.1665-2.449-0.4996-0.5801-0.333-0.9883-0.7707-1.225-1.313-0.2363-0.5425-0.3545-1.684-0.3545-3.424v-9.845h-2.127v-2.256h2.127v-4.238l2.884-1.74v5.978h2.917v2.256h-2.917v10.01c-0.0000056,0.8271,0.05102,1.359,0.1531,1.595,0.102,0.2363,0.2685,0.4243,0.4995,0.564,0.231,0.1396,0.5613,0.2094,0.991,0.2094,0.3223,0,0.7466-0.038,1.273-0.1128z"/>
<path d="m-0.7715,1002,0-3.336,2.9,0,0,3.336zm0,20.29,0-17.11,2.9,0,0,17.11z"/>
<path d="m6.528,1022,0-17.11,2.61,0,0,2.594c0.666-1.214,1.281-2.014,1.845-2.401,0.564-0.3867,1.184-0.58,1.861-0.58,0.9775,0,1.971,0.3115,2.981,0.9345l-0.999,2.691c-0.709-0.4189-1.418-0.6284-2.127-0.6284-0.6338,0-1.203,0.1907-1.708,0.572-0.5049,0.3814-0.8648,0.9105-1.08,1.587-0.3223,1.031-0.4834,2.159-0.4834,3.384v8.959z"/>
<path d="m28.75,1016,2.852,0.3706c-0.3115,1.966-1.109,3.505-2.393,4.616-1.284,1.112-2.86,1.668-4.729,1.668-2.342,0-4.224-0.7654-5.648-2.296-1.423-1.531-2.135-3.725-2.135-6.582-0.000001-1.848,0.3062-3.464,0.9185-4.85s1.544-2.425,2.796-3.118c1.251-0.6929,2.613-1.039,4.085-1.039,1.858,0,3.378,0.4699,4.56,1.41,1.182,0.9399,1.939,2.275,2.272,4.004l-2.82,0.4351c-0.2686-1.149-0.7439-2.014-1.426-2.594s-1.507-0.8701-2.473-0.8701c-1.461,0-2.648,0.5237-3.561,1.571-0.9131,1.047-1.37,2.704-1.37,4.971-0.000005,2.299,0.4404,3.969,1.321,5.011,0.8809,1.042,2.03,1.563,3.448,1.563,1.139,0,2.089-0.3491,2.852-1.047,0.7627-0.6983,1.246-1.772,1.45-3.223z"/>
<path d="m-73.67,1063,0-23.62,15.94,0,0,2.788-12.81,0,0,7.315,11.09,0,0,2.788-11.09,0,0,10.73z"/>
<path d="m-42.31,1058,2.997,0.3706c-0.4727,1.751-1.348,3.11-2.626,4.077-1.278,0.9668-2.911,1.45-4.898,1.45-2.503,0-4.488-0.7708-5.954-2.312-1.466-1.542-2.199-3.703-2.199-6.486-0.000001-2.879,0.7412-5.113,2.224-6.703,1.482-1.59,3.405-2.385,5.769-2.385,2.288,0,4.157,0.7788,5.607,2.336,1.45,1.558,2.175,3.749,2.175,6.574-0.000017,0.1719-0.0054,0.4297-0.01611,0.7734h-12.76c0.1074,1.88,0.6392,3.319,1.595,4.318,0.956,0.999,2.148,1.498,3.577,1.498,1.063,0,1.971-0.2793,2.723-0.8379,0.7519-0.5586,1.348-1.45,1.789-2.675zm-9.523-4.689,9.555,0c-0.1289-1.44-0.4942-2.519-1.096-3.239-0.9238-1.117-2.122-1.676-3.593-1.676-1.332,0-2.452,0.4458-3.36,1.337-0.9077,0.8916-1.41,2.084-1.507,3.577z"/>
<path d="m-35.64,1043,0-3.336,2.9,0,0,3.336zm0,20.29,0-17.11,2.9,0,0,17.11z"/>
<path d="m-28.37,1063,0-23.62,2.9,0,0,23.62z"/>
<path d="m-9.859,1063,0-2.159c-1.085,1.697-2.68,2.546-4.786,2.546-1.364,0-2.618-0.376-3.762-1.128s-2.03-1.802-2.659-3.15c-0.6284-1.348-0.9426-2.898-0.9426-4.649-0.000001-1.708,0.2847-3.258,0.854-4.649s1.423-2.457,2.562-3.198c1.139-0.7412,2.412-1.112,3.819-1.112,1.031,0,1.95,0.2175,2.755,0.6525,0.8057,0.4351,1.461,1.002,1.966,1.7v-8.476h2.884v23.62zm-9.168-8.54c-0.000004,2.191,0.4619,3.83,1.386,4.915,0.9238,1.085,2.014,1.627,3.271,1.627,1.268,0,2.344-0.5183,3.231-1.555,0.8862-1.037,1.329-2.618,1.329-4.745-0.0000133-2.342-0.4512-4.06-1.354-5.156-0.9024-1.096-2.014-1.644-3.335-1.644-1.289,0-2.366,0.5264-3.231,1.579-0.8648,1.053-1.297,2.712-1.297,4.979z"/>
<path d="m-1.835,1063,0-3.303,3.303,0,0,3.303c-0.0000062,1.214-0.2148,2.194-0.6445,2.941-0.4297,0.7466-1.112,1.324-2.046,1.732l-0.8057-1.241c0.6123-0.2686,1.063-0.6633,1.354-1.184,0.29-0.521,0.4512-1.27,0.4834-2.248z"/>
<path d="m16.15,1063,0-23.62,17.08,0,0,2.788-13.95,0,0,7.235,13.07,0,0,2.771-13.07,0,0,8.041,14.5,0,0,2.788z"/>
</g>
<flowRoot style="letter-spacing:0px;word-spacing:0px;" font-weight="normal" xml:space="preserve" transform="translate(113.06376,575.38975)" line-height="125%" font-size="40px" font-style="normal" font-family="Sans" fill="#000000"><flowRegion><rect y="-164" x="177" width="655.6" height="124.8"/></flowRegion><flowPara/><flowPara/></flowRoot>
<g style="letter-spacing:0px;word-spacing:0px;" font-family="Sans" font-size="40px" line-height="125%" font-style="normal" font-weight="normal" fill="#000">
<path style="text-align:center;" d="m593.4,585.1,3.126,0,0,13.65c-0.00002,2.374-0.2686,4.259-0.8057,5.656-0.5371,1.396-1.507,2.532-2.908,3.408-1.402,0.8755-3.241,1.313-5.519,1.313-2.213,0-4.023-0.3814-5.43-1.144-1.407-0.7627-2.412-1.866-3.013-3.311-0.6016-1.445-0.9024-3.419-0.9023-5.922v-13.65h3.126v13.63c0,2.052,0.1907,3.564,0.572,4.536,0.3813,0.9722,1.037,1.721,1.966,2.248,0.9292,0.5264,2.065,0.7896,3.408,0.7896,2.299,0,3.937-0.521,4.915-1.563,0.9775-1.042,1.466-3.045,1.466-6.01z"/>
<path style="text-align:center;" d="m601.4,615.2,0-23.67,2.643,0,0,2.224c0.623-0.8701,1.327-1.523,2.111-1.958,0.7842-0.435,1.735-0.6526,2.852-0.6526,1.461,0.00001,2.75,0.376,3.867,1.128s1.96,1.813,2.53,3.182c0.5693,1.37,0.854,2.871,0.854,4.504-0.00002,1.751-0.3142,3.327-0.9426,4.729s-1.542,2.476-2.739,3.223c-1.198,0.7466-2.457,1.12-3.779,1.12-0.9668,0-1.834-0.2041-2.602-0.6123-0.7681-0.4082-1.399-0.9238-1.893-1.547v8.331zm2.626-15.02c0,2.202,0.4458,3.83,1.337,4.882,0.8916,1.053,1.971,1.579,3.239,1.579,1.289,0.00001,2.393-0.5452,3.311-1.636,0.9184-1.09,1.378-2.78,1.378-5.068-0.00002-2.181-0.4485-3.813-1.345-4.898-0.897-1.085-1.969-1.627-3.215-1.627-1.235,0.00001-2.328,0.5774-3.279,1.732-0.9507,1.155-1.426,2.833-1.426,5.035z"/>
<path style="text-align:center;" d="m619.8,615.2,0-23.67,2.643,0,0,2.224c0.623-0.8701,1.327-1.523,2.111-1.958,0.7842-0.435,1.735-0.6526,2.852-0.6526,1.461,0.00001,2.75,0.376,3.867,1.128s1.96,1.813,2.53,3.182c0.5693,1.37,0.854,2.871,0.854,4.504-0.00001,1.751-0.3142,3.327-0.9426,4.729s-1.542,2.476-2.739,3.223c-1.198,0.7466-2.457,1.12-3.779,1.12-0.9668,0-1.834-0.2041-2.602-0.6123-0.7681-0.4082-1.399-0.9238-1.893-1.547v8.331zm2.626-15.02c0,2.202,0.4458,3.83,1.337,4.882,0.8916,1.053,1.971,1.579,3.239,1.579,1.289,0.00001,2.393-0.5452,3.311-1.636,0.9184-1.09,1.378-2.78,1.378-5.068-0.00002-2.181-0.4485-3.813-1.345-4.898-0.897-1.085-1.969-1.627-3.215-1.627-1.235,0.00001-2.328,0.5774-3.279,1.732-0.9507,1.155-1.426,2.833-1.426,5.035z"/>
<path style="text-align:center;" d="m649.9,603.2,2.997,0.3706c-0.4727,1.751-1.348,3.11-2.626,4.077-1.278,0.9668-2.911,1.45-4.898,1.45-2.503,0-4.488-0.7708-5.954-2.312-1.466-1.542-2.199-3.703-2.199-6.486,0-2.879,0.7412-5.113,2.224-6.703,1.482-1.59,3.405-2.385,5.769-2.385,2.288,0.00001,4.157,0.7788,5.607,2.336,1.45,1.558,2.175,3.749,2.175,6.574-0.00001,0.1719-0.005,0.4297-0.0161,0.7734h-12.76c0.1074,1.88,0.6392,3.319,1.595,4.318,0.956,0.999,2.148,1.499,3.577,1.499,1.063,0.00001,1.971-0.2793,2.723-0.8379,0.7519-0.5586,1.348-1.45,1.789-2.675zm-9.523-4.689,9.555,0c-0.1289-1.439-0.4942-2.519-1.096-3.239-0.9238-1.117-2.122-1.676-3.593-1.676-1.332,0.00002-2.452,0.4458-3.36,1.337-0.9077,0.8916-1.41,2.084-1.507,3.577z"/>
<path style="text-align:center;" d="m656.5,608.7,0-17.11,2.61,0,0,2.594c0.666-1.214,1.281-2.014,1.845-2.401,0.564-0.3867,1.184-0.5801,1.861-0.5801,0.9775,0.00001,1.971,0.3115,2.981,0.9346l-0.999,2.691c-0.709-0.4189-1.418-0.6284-2.127-0.6284-0.6338,0.00001-1.203,0.1907-1.708,0.572-0.5049,0.3814-0.8648,0.9104-1.08,1.587-0.3223,1.031-0.4834,2.159-0.4834,3.384v8.959z"/>
<path style="text-align:center;" d="m687.9,602.4,2.852,0.3706c-0.3115,1.966-1.109,3.505-2.393,4.616-1.284,1.112-2.86,1.668-4.729,1.668-2.342,0-4.224-0.7654-5.648-2.296-1.423-1.531-2.135-3.725-2.135-6.582-0.00001-1.848,0.3062-3.464,0.9184-4.85,0.6123-1.386,1.544-2.425,2.796-3.118,1.251-0.6928,2.613-1.039,4.085-1.039,1.858,0.00001,3.378,0.47,4.56,1.41s1.939,2.275,2.272,4.004l-2.82,0.4351c-0.2686-1.149-0.7439-2.014-1.426-2.594-0.6821-0.5801-1.507-0.8701-2.473-0.8701-1.461,0.00002-2.648,0.5237-3.561,1.571-0.9131,1.047-1.37,2.704-1.37,4.971,0,2.299,0.4404,3.969,1.321,5.011,0.8808,1.042,2.03,1.563,3.448,1.563,1.139,0.00001,2.089-0.3491,2.852-1.047,0.7627-0.6982,1.246-1.772,1.45-3.223z"/>
<path style="text-align:center;" d="m692.1,600.1c0-3.169,0.8808-5.516,2.643-7.042,1.472-1.268,3.266-1.901,5.382-1.901,2.353,0.00001,4.275,0.7708,5.769,2.312,1.493,1.542,2.24,3.671,2.24,6.389-0.00002,2.202-0.3303,3.934-0.991,5.197-0.6607,1.262-1.622,2.242-2.884,2.941-1.262,0.6982-2.64,1.047-4.133,1.047-2.396,0-4.332-0.7681-5.809-2.304s-2.216-3.749-2.216-6.639zm2.981,0c0,2.191,0.478,3.832,1.434,4.923,0.956,1.09,2.159,1.636,3.609,1.636,1.439,0.00001,2.637-0.5478,3.593-1.644s1.434-2.766,1.434-5.011c-0.00001-2.116-0.4807-3.719-1.442-4.81-0.9614-1.09-2.157-1.635-3.585-1.635-1.45,0.00001-2.653,0.5425-3.609,1.627-0.9561,1.085-1.434,2.723-1.434,4.915z"/>
<path style="text-align:center;" d="m711.6,608.7,0-17.11,2.61,0,0,2.433c1.257-1.88,3.072-2.82,5.446-2.82,1.031,0.00001,1.979,0.1853,2.844,0.5559,0.8647,0.3706,1.512,0.8567,1.942,1.458,0.4297,0.6016,0.7305,1.316,0.9024,2.143,0.1074,0.5371,0.1611,1.477,0.1611,2.82v10.52h-2.9v-10.41c-0.00002-1.182-0.1128-2.065-0.3384-2.651-0.2256-0.5854-0.6258-1.053-1.2-1.402-0.5747-0.3491-1.249-0.5237-2.022-0.5237-1.235,0.00001-2.302,0.3921-3.198,1.176-0.897,0.7842-1.345,2.272-1.345,4.463v9.346z"/>
<path style="text-align:center;" d="m741,608.7,0-2.159c-1.085,1.697-2.68,2.546-4.786,2.546-1.364,0-2.618-0.376-3.762-1.128s-2.03-1.802-2.659-3.15c-0.6284-1.348-0.9426-2.898-0.9426-4.649,0-1.708,0.2847-3.258,0.854-4.649s1.423-2.457,2.562-3.198c1.139-0.7412,2.412-1.112,3.819-1.112,1.031,0.00001,1.95,0.2175,2.755,0.6526,0.8056,0.4351,1.461,1.002,1.966,1.7v-8.476h2.884v23.62zm-9.168-8.54c0,2.191,0.4619,3.83,1.386,4.915,0.9238,1.085,2.014,1.627,3.271,1.627,1.268,0.00001,2.344-0.5183,3.231-1.555,0.8862-1.037,1.329-2.618,1.329-4.745-0.00002-2.342-0.4512-4.061-1.354-5.156-0.9024-1.096-2.014-1.644-3.335-1.644-1.289,0.00001-2.366,0.5264-3.231,1.579-0.8648,1.053-1.297,2.712-1.297,4.979z"/>
<path style="text-align:center;" d="m759.5,608.7,0-2.514c-1.332,1.934-3.142,2.9-5.43,2.9-1.01,0-1.952-0.1934-2.828-0.5801-0.8755-0.3867-1.525-0.8728-1.95-1.458-0.4243-0.5854-0.7224-1.302-0.8943-2.151-0.1182-0.5693-0.1772-1.472-0.1772-2.707v-10.6h2.9v9.491c-0.00001,1.515,0.0591,2.535,0.1772,3.062,0.1826,0.7627,0.5693,1.362,1.16,1.797,0.5908,0.4351,1.321,0.6526,2.191,0.6526,0.8701,0,1.687-0.2229,2.449-0.6687,0.7627-0.4458,1.302-1.053,1.619-1.821,0.3169-0.7681,0.4753-1.883,0.4753-3.344v-9.168h2.9v17.11z"/>
<path style="text-align:center;" d="m777.8,602.4,2.852,0.3706c-0.3115,1.966-1.109,3.505-2.393,4.616-1.284,1.112-2.86,1.668-4.729,1.668-2.342,0-4.224-0.7654-5.648-2.296-1.423-1.531-2.135-3.725-2.135-6.582,0-1.848,0.3062-3.464,0.9185-4.85s1.544-2.425,2.796-3.118c1.251-0.6928,2.613-1.039,4.085-1.039,1.858,0.00001,3.378,0.47,4.56,1.41s1.939,2.275,2.272,4.004l-2.82,0.4351c-0.2686-1.149-0.7439-2.014-1.426-2.594-0.6821-0.5801-1.507-0.8701-2.473-0.8701-1.461,0.00002-2.648,0.5237-3.561,1.571-0.9131,1.047-1.37,2.704-1.37,4.971-0.00001,2.299,0.4404,3.969,1.321,5.011,0.8809,1.042,2.03,1.563,3.448,1.563,1.139,0.00001,2.089-0.3491,2.852-1.047,0.7627-0.6982,1.246-1.772,1.45-3.223z"/>
<path style="text-align:center;" d="m789.5,606.1,0.4189,2.562c-0.8164,0.1719-1.547,0.2578-2.191,0.2578-1.053,0-1.869-0.1665-2.449-0.4995-0.5801-0.333-0.9883-0.7708-1.225-1.313-0.2363-0.5425-0.3545-1.684-0.3545-3.424v-9.845h-2.127v-2.256h2.127v-4.238l2.884-1.74v5.978h2.917v2.256h-2.917v10.01c0,0.8272,0.051,1.359,0.1531,1.595,0.102,0.2363,0.2686,0.4243,0.4995,0.564,0.231,0.1396,0.5613,0.2095,0.991,0.2095,0.3223,0.00001,0.7466-0.0376,1.273-0.1128z"/>
<path style="text-align:center;" d="m792.3,588.4,0-3.335,2.9,0,0,3.335zm0,20.29,0-17.11,2.9,0,0,17.11z"/>
<path style="text-align:center;" d="m804.4,608.7-6.51-17.11,3.062,0,3.674,10.25c0.3975,1.106,0.7627,2.256,1.096,3.448,0.2578-0.9023,0.6177-1.987,1.08-3.255l3.803-10.44h2.981l-6.478,17.11z"/>
<path style="text-align:center;" d="m827.9,603.2,2.997,0.3706c-0.4727,1.751-1.348,3.11-2.626,4.077-1.278,0.9668-2.911,1.45-4.898,1.45-2.503,0-4.488-0.7708-5.954-2.312-1.466-1.542-2.199-3.703-2.199-6.486,0-2.879,0.7412-5.113,2.224-6.703,1.482-1.59,3.405-2.385,5.769-2.385,2.288,0.00001,4.157,0.7788,5.607,2.336,1.45,1.558,2.175,3.749,2.175,6.574-0.00001,0.1719-0.005,0.4297-0.0161,0.7734h-12.76c0.1074,1.88,0.6392,3.319,1.595,4.318,0.956,0.999,2.148,1.499,3.577,1.499,1.063,0.00001,1.971-0.2793,2.723-0.8379,0.7519-0.5586,1.348-1.45,1.789-2.675zm-9.523-4.689,9.555,0c-0.1289-1.439-0.4942-2.519-1.096-3.239-0.9238-1.117-2.122-1.676-3.593-1.676-1.332,0.00002-2.452,0.4458-3.36,1.337-0.9077,0.8916-1.41,2.084-1.507,3.577z"/>
<path style="text-align:center;" d="m843.7,615.2,0-23.67,2.643,0,0,2.224c0.623-0.8701,1.327-1.523,2.111-1.958,0.7842-0.435,1.735-0.6526,2.852-0.6526,1.461,0.00001,2.75,0.376,3.867,1.128s1.96,1.813,2.53,3.182c0.5693,1.37,0.854,2.871,0.854,4.504-0.00002,1.751-0.3142,3.327-0.9426,4.729s-1.542,2.476-2.739,3.223c-1.198,0.7466-2.457,1.12-3.779,1.12-0.9668,0-1.834-0.2041-2.602-0.6123-0.7681-0.4082-1.399-0.9238-1.893-1.547v8.331zm2.626-15.02c-0.00001,2.202,0.4458,3.83,1.337,4.882,0.8916,1.053,1.971,1.579,3.239,1.579,1.289,0.00001,2.393-0.5452,3.311-1.636,0.9184-1.09,1.378-2.78,1.378-5.068-0.00001-2.181-0.4485-3.813-1.345-4.898-0.897-1.085-1.969-1.627-3.215-1.627-1.235,0.00001-2.328,0.5774-3.279,1.732-0.9507,1.155-1.426,2.833-1.426,5.035z"/>
<path style="text-align:center;" d="m862,608.7,0-23.62,2.9,0,0,23.62z"/>
<path style="text-align:center;" d="m880.6,606.6c-1.074,0.9131-2.108,1.558-3.102,1.934-0.9937,0.376-2.06,0.564-3.198,0.564-1.88,0-3.325-0.4592-4.334-1.378-1.01-0.9184-1.515-2.092-1.515-3.521,0-0.8379,0.1907-1.603,0.572-2.296,0.3814-0.6929,0.8809-1.249,1.499-1.668,0.6177-0.4189,1.313-0.7358,2.087-0.9507,0.5693-0.1504,1.429-0.2954,2.578-0.4351,2.342-0.2793,4.066-0.6123,5.172-0.999,0.0107-0.3974,0.0161-0.6499,0.0161-0.7573-0.00002-1.182-0.2739-2.014-0.8218-2.498-0.7412-0.6553-1.842-0.9829-3.303-0.9829-1.364,0.00001-2.371,0.239-3.021,0.717-0.6499,0.478-1.131,1.324-1.442,2.538l-2.836-0.3867c0.2578-1.214,0.6821-2.194,1.273-2.941,0.5908-0.7466,1.445-1.321,2.562-1.724,1.117-0.4028,2.412-0.6042,3.883-0.6042,1.461,0.00001,2.648,0.1719,3.561,0.5156,0.9131,0.3438,1.584,0.7761,2.014,1.297,0.4297,0.521,0.7304,1.179,0.9023,1.974,0.0967,0.4942,0.145,1.386,0.145,2.675v3.867c-0.00001,2.696,0.0618,4.402,0.1853,5.116,0.1235,0.7144,0.3679,1.399,0.7332,2.054h-3.029c-0.3008-0.6016-0.4942-1.305-0.5801-2.111zm-0.2417-6.478c-1.053,0.4297-2.632,0.7949-4.737,1.096-1.192,0.1719-2.036,0.3652-2.53,0.5801-0.4941,0.2148-0.8755,0.5291-1.144,0.9426-0.2686,0.4136-0.4028,0.8728-0.4028,1.378,0,0.7734,0.2927,1.418,0.8782,1.934,0.5854,0.5156,1.442,0.7734,2.57,0.7734,1.117,0,2.111-0.2444,2.981-0.7332,0.8701-0.4888,1.509-1.157,1.917-2.006,0.3115-0.6553,0.4673-1.622,0.4673-2.9z"/>
<path style="text-align:center;" d="m894.1,606.1,0.419,2.562c-0.8164,0.1719-1.547,0.2578-2.191,0.2578-1.053,0-1.869-0.1665-2.449-0.4995-0.5801-0.333-0.9883-0.7708-1.225-1.313-0.2363-0.5425-0.3545-1.684-0.3545-3.424v-9.845h-2.127v-2.256h2.127v-4.238l2.884-1.74v5.978h2.916v2.256h-2.916v10.01c-0.00001,0.8272,0.051,1.359,0.1531,1.595,0.102,0.2363,0.2686,0.4243,0.4995,0.564,0.231,0.1396,0.5613,0.2095,0.991,0.2095,0.3223,0.00001,0.7466-0.0376,1.273-0.1128z"/>
<path style="text-align:center;" d="m908.6,603.2,2.997,0.3706c-0.4727,1.751-1.348,3.11-2.626,4.077-1.278,0.9668-2.911,1.45-4.898,1.45-2.503,0-4.488-0.7708-5.954-2.312-1.466-1.542-2.199-3.703-2.199-6.486,0-2.879,0.7412-5.113,2.224-6.703,1.482-1.59,3.405-2.385,5.769-2.385,2.288,0.00001,4.157,0.7788,5.607,2.336,1.45,1.558,2.175,3.749,2.175,6.574-0.00002,0.1719-0.005,0.4297-0.0161,0.7734h-12.76c0.1074,1.88,0.6392,3.319,1.595,4.318,0.956,0.999,2.148,1.499,3.577,1.499,1.063,0.00001,1.971-0.2793,2.723-0.8379,0.7519-0.5586,1.348-1.45,1.789-2.675zm-9.523-4.689,9.555,0c-0.1289-1.439-0.4942-2.519-1.096-3.239-0.9238-1.117-2.122-1.676-3.593-1.676-1.332,0.00002-2.452,0.4458-3.36,1.337-0.9077,0.8916-1.41,2.084-1.507,3.577z"/>
<path style="text-align:center;" d="m927.6,608.7-5.237-17.11,2.997,0,2.723,9.877,1.015,3.674c0.043-0.1826,0.3384-1.359,0.8862-3.529l2.723-10.02h2.981l2.562,9.926,0.854,3.271,0.9829-3.303,2.933-9.894h2.82l-5.35,17.11h-3.013l-2.723-10.25-0.6606-2.916-3.464,13.16z"/>
<path style="text-align:center;" d="m948.3,588.4,0-3.335,2.9,0,0,3.335zm0,20.29,0-17.11,2.9,0,0,17.11z"/>
<path style="text-align:center;" d="m962,606.1,0.419,2.562c-0.8164,0.1719-1.547,0.2578-2.191,0.2578-1.053,0-1.869-0.1665-2.449-0.4995-0.5801-0.333-0.9883-0.7708-1.225-1.313-0.2363-0.5425-0.3545-1.684-0.3545-3.424v-9.845h-2.127v-2.256h2.127v-4.238l2.884-1.74v5.978h2.916v2.256h-2.916v10.01c-0.00001,0.8272,0.051,1.359,0.1531,1.595,0.102,0.2363,0.2686,0.4243,0.4995,0.564,0.231,0.1396,0.5613,0.2095,0.991,0.2095,0.3223,0.00001,0.7466-0.0376,1.273-0.1128z"/>
<path style="text-align:center;" d="m964.8,608.7,0-23.62,2.9,0,0,8.476c1.354-1.568,3.062-2.353,5.124-2.353,1.268,0.00001,2.369,0.2498,3.303,0.7493,0.9346,0.4995,1.603,1.19,2.006,2.071,0.4028,0.8809,0.6042,2.159,0.6042,3.835v10.84h-2.9v-10.84c-0.00001-1.45-0.3142-2.506-0.9426-3.166-0.6284-0.6606-1.517-0.991-2.667-0.991-0.8594,0.00001-1.668,0.2229-2.425,0.6687-0.7573,0.4458-1.297,1.05-1.619,1.813-0.3223,0.7627-0.4834,1.815-0.4834,3.158v9.362z"/>
<path style="text-align:center;" d="m623.1,647.8c-1.074,0.9131-2.108,1.558-3.102,1.934-0.9937,0.376-2.06,0.564-3.198,0.564-1.88,0-3.325-0.4592-4.334-1.378-1.01-0.9184-1.515-2.092-1.515-3.521,0-0.8379,0.1907-1.603,0.572-2.296,0.3814-0.6929,0.8809-1.249,1.499-1.668,0.6177-0.4189,1.313-0.7358,2.087-0.9507,0.5693-0.1504,1.429-0.2954,2.578-0.4351,2.342-0.2793,4.066-0.6123,5.172-0.999,0.0107-0.3974,0.0161-0.6499,0.0161-0.7573-0.00001-1.182-0.2739-2.014-0.8218-2.498-0.7412-0.6553-1.842-0.9829-3.303-0.9829-1.364,0.00001-2.371,0.239-3.021,0.717-0.6499,0.478-1.131,1.324-1.442,2.538l-2.836-0.3867c0.2578-1.214,0.6821-2.194,1.273-2.941,0.5908-0.7466,1.445-1.321,2.562-1.724,1.117-0.4028,2.412-0.6042,3.883-0.6042,1.461,0.00001,2.648,0.1719,3.561,0.5156,0.9131,0.3438,1.584,0.7761,2.014,1.297,0.4297,0.521,0.7304,1.179,0.9023,1.974,0.0967,0.4942,0.145,1.386,0.145,2.675v3.867c-0.00001,2.696,0.0618,4.402,0.1853,5.116,0.1235,0.7144,0.3679,1.399,0.7332,2.054h-3.029c-0.3008-0.6016-0.4942-1.305-0.5801-2.111zm-0.2417-6.478c-1.053,0.4297-2.632,0.7949-4.737,1.096-1.192,0.1719-2.036,0.3652-2.53,0.5801-0.4942,0.2148-0.8755,0.5291-1.144,0.9426-0.2686,0.4136-0.4028,0.8728-0.4028,1.378,0,0.7734,0.2927,1.418,0.8782,1.934,0.5854,0.5156,1.442,0.7734,2.57,0.7734,1.117,0,2.111-0.2444,2.981-0.7332,0.8701-0.4888,1.509-1.157,1.917-2.006,0.3115-0.6553,0.4673-1.622,0.4673-2.9z"/>
<path style="text-align:center;" d="m630.3,649.9,0-17.11,2.61,0,0,2.594c0.666-1.214,1.281-2.014,1.845-2.401,0.564-0.3867,1.184-0.5801,1.861-0.5801,0.9775,0.00001,1.971,0.3115,2.981,0.9346l-0.999,2.691c-0.709-0.4189-1.418-0.6284-2.127-0.6284-0.6338,0.00001-1.203,0.1907-1.708,0.572-0.5049,0.3814-0.8648,0.9104-1.08,1.587-0.3223,1.031-0.4834,2.159-0.4834,3.384v8.959z"/>
<path style="text-align:center;" d="m653.1,644.4,2.997,0.3706c-0.4727,1.751-1.348,3.11-2.626,4.077-1.278,0.9668-2.911,1.45-4.898,1.45-2.503,0-4.488-0.7708-5.954-2.312-1.466-1.542-2.199-3.703-2.199-6.486,0-2.879,0.7412-5.113,2.224-6.703,1.482-1.59,3.405-2.385,5.769-2.385,2.288,0.00001,4.157,0.7788,5.607,2.336,1.45,1.558,2.175,3.749,2.175,6.574-0.00001,0.1719-0.005,0.4297-0.0161,0.7734h-12.76c0.1074,1.88,0.6392,3.319,1.595,4.318,0.956,0.999,2.148,1.499,3.577,1.499,1.063,0.00001,1.971-0.2793,2.723-0.8379,0.7519-0.5586,1.348-1.45,1.789-2.675zm-9.523-4.689,9.555,0c-0.1289-1.439-0.4942-2.519-1.096-3.239-0.9238-1.117-2.122-1.676-3.593-1.676-1.332,0.00002-2.452,0.4458-3.36,1.337-0.9077,0.8916-1.41,2.084-1.507,3.577z"/>
<path style="text-align:center;" d="m670.9,647.8c-1.074,0.9131-2.108,1.558-3.102,1.934-0.9937,0.376-2.06,0.564-3.198,0.564-1.88,0-3.325-0.4592-4.334-1.378-1.01-0.9184-1.515-2.092-1.515-3.521,0-0.8379,0.1907-1.603,0.572-2.296,0.3813-0.6929,0.8809-1.249,1.499-1.668,0.6177-0.4189,1.313-0.7358,2.087-0.9507,0.5693-0.1504,1.429-0.2954,2.578-0.4351,2.342-0.2793,4.066-0.6123,5.172-0.999,0.0107-0.3974,0.0161-0.6499,0.0161-0.7573-0.00002-1.182-0.2739-2.014-0.8218-2.498-0.7412-0.6553-1.842-0.9829-3.303-0.9829-1.364,0.00001-2.371,0.239-3.021,0.717-0.6499,0.478-1.131,1.324-1.442,2.538l-2.836-0.3867c0.2578-1.214,0.6821-2.194,1.273-2.941,0.5908-0.7466,1.445-1.321,2.562-1.724,1.117-0.4028,2.412-0.6042,3.883-0.6042,1.461,0.00001,2.648,0.1719,3.561,0.5156,0.9131,0.3438,1.584,0.7761,2.014,1.297,0.4297,0.521,0.7304,1.179,0.9023,1.974,0.0967,0.4942,0.145,1.386,0.145,2.675v3.867c-0.00002,2.696,0.0617,4.402,0.1853,5.116,0.1235,0.7144,0.3679,1.399,0.7332,2.054h-3.029c-0.3008-0.6016-0.4942-1.305-0.5801-2.111zm-0.2417-6.478c-1.053,0.4297-2.632,0.7949-4.737,1.096-1.192,0.1719-2.036,0.3652-2.53,0.5801-0.4941,0.2148-0.8755,0.5291-1.144,0.9426-0.2686,0.4136-0.4028,0.8728-0.4028,1.378-0.00001,0.7734,0.2927,1.418,0.8782,1.934,0.5854,0.5156,1.442,0.7734,2.57,0.7734,1.117,0,2.111-0.2444,2.981-0.7332,0.8701-0.4888,1.509-1.157,1.917-2.006,0.3115-0.6553,0.4673-1.622,0.4673-2.9z"/>
<path style="text-align:center;" d="m678.8,649.9,0-3.303,3.303,0,0,3.303c-0.00001,1.214-0.2148,2.194-0.6445,2.941-0.4297,0.7466-1.112,1.324-2.046,1.732l-0.8057-1.241c0.6123-0.2686,1.063-0.6633,1.354-1.184,0.29-0.521,0.4512-1.27,0.4834-2.248z"/>
<path style="text-align:center;" d="m694.2,649.9,9.072-23.62,3.368,0,9.668,23.62-3.561,0-2.755-7.154-9.877,0-2.594,7.154zm6.816-9.7,8.008,0-2.465-6.542c-0.752-1.987-1.311-3.62-1.676-4.898-0.3008,1.515-0.7251,3.019-1.273,4.512z"/>
<path style="text-align:center;" d="m719.2,649.9,0-3.303,3.303,0,0,3.303c0,1.214-0.2148,2.194-0.6445,2.941-0.4297,0.7466-1.112,1.324-2.046,1.732l-0.8057-1.241c0.6123-0.2686,1.063-0.6633,1.354-1.184,0.29-0.521,0.4512-1.27,0.4834-2.248z"/>
<path style="text-align:center;" d="m747.9,647.8c-1.074,0.9131-2.108,1.558-3.102,1.934-0.9937,0.376-2.06,0.564-3.198,0.564-1.88,0-3.325-0.4592-4.334-1.378-1.01-0.9184-1.515-2.092-1.515-3.521,0-0.8379,0.1907-1.603,0.572-2.296,0.3814-0.6929,0.8809-1.249,1.499-1.668,0.6177-0.4189,1.313-0.7358,2.087-0.9507,0.5693-0.1504,1.429-0.2954,2.578-0.4351,2.342-0.2793,4.066-0.6123,5.172-0.999,0.0107-0.3974,0.0161-0.6499,0.0161-0.7573-0.00001-1.182-0.2739-2.014-0.8218-2.498-0.7412-0.6553-1.842-0.9829-3.303-0.9829-1.364,0.00001-2.371,0.239-3.021,0.717-0.6499,0.478-1.131,1.324-1.442,2.538l-2.836-0.3867c0.2578-1.214,0.6821-2.194,1.273-2.941,0.5908-0.7466,1.445-1.321,2.562-1.724,1.117-0.4028,2.412-0.6042,3.883-0.6042,1.461,0.00001,2.648,0.1719,3.561,0.5156,0.9131,0.3438,1.584,0.7761,2.014,1.297,0.4297,0.521,0.7304,1.179,0.9023,1.974,0.0967,0.4942,0.145,1.386,0.145,2.675v3.867c-0.00001,2.696,0.0618,4.402,0.1853,5.116,0.1235,0.7144,0.3679,1.399,0.7332,2.054h-3.029c-0.3008-0.6016-0.4942-1.305-0.5801-2.111zm-0.2417-6.478c-1.053,0.4297-2.632,0.7949-4.737,1.096-1.192,0.1719-2.036,0.3652-2.53,0.5801-0.4942,0.2148-0.8755,0.5291-1.144,0.9426-0.2686,0.4136-0.4028,0.8728-0.4028,1.378,0,0.7734,0.2927,1.418,0.8782,1.934,0.5854,0.5156,1.442,0.7734,2.57,0.7734,1.117,0,2.111-0.2444,2.981-0.7332,0.8701-0.4888,1.509-1.157,1.917-2.006,0.3115-0.6553,0.4673-1.622,0.4673-2.9z"/>
<path style="text-align:center;" d="m755.1,649.9,0-17.11,2.61,0,0,2.433c1.257-1.88,3.072-2.82,5.446-2.82,1.031,0.00001,1.979,0.1853,2.844,0.5559,0.8647,0.3706,1.512,0.8567,1.942,1.458,0.4297,0.6016,0.7304,1.316,0.9023,2.143,0.1074,0.5371,0.1611,1.477,0.1611,2.82v10.52h-2.9v-10.41c-0.00001-1.182-0.1128-2.065-0.3384-2.651-0.2256-0.5854-0.6257-1.053-1.2-1.402-0.5747-0.3491-1.249-0.5237-2.022-0.5237-1.235,0.00001-2.302,0.3921-3.198,1.176-0.897,0.7842-1.345,2.272-1.345,4.463v9.346z"/>
<path style="text-align:center;" d="m784.6,649.9,0-2.159c-1.085,1.697-2.68,2.546-4.786,2.546-1.364,0-2.618-0.376-3.762-1.128s-2.03-1.802-2.659-3.15c-0.6284-1.348-0.9426-2.898-0.9426-4.649,0-1.708,0.2847-3.258,0.854-4.649s1.423-2.457,2.562-3.198c1.139-0.7412,2.412-1.112,3.819-1.112,1.031,0.00001,1.95,0.2175,2.755,0.6526,0.8057,0.4351,1.461,1.002,1.966,1.7v-8.476h2.884v23.62zm-9.168-8.54c-0.00001,2.191,0.4619,3.83,1.386,4.915,0.9238,1.085,2.014,1.627,3.271,1.627,1.268,0.00001,2.344-0.5183,3.231-1.555,0.8862-1.037,1.329-2.618,1.329-4.745-0.00001-2.342-0.4512-4.061-1.354-5.156-0.9024-1.096-2.014-1.644-3.335-1.644-1.289,0.00001-2.366,0.5264-3.231,1.579-0.8648,1.053-1.297,2.712-1.297,4.979z"/>
<path style="text-align:center;" d="m812.2,643.7,2.852,0.3706c-0.3115,1.966-1.109,3.505-2.393,4.616-1.284,1.112-2.86,1.668-4.729,1.668-2.342,0-4.224-0.7654-5.648-2.296-1.423-1.531-2.135-3.725-2.135-6.582,0-1.848,0.3062-3.464,0.9184-4.85,0.6123-1.386,1.544-2.425,2.796-3.118,1.251-0.6928,2.613-1.039,4.085-1.039,1.858,0.00001,3.378,0.47,4.56,1.41s1.939,2.275,2.272,4.004l-2.82,0.4351c-0.2686-1.149-0.7439-2.014-1.426-2.594-0.6821-0.5801-1.507-0.8701-2.473-0.8701-1.461,0.00002-2.648,0.5237-3.561,1.571-0.9131,1.047-1.37,2.704-1.37,4.971,0,2.299,0.4404,3.969,1.321,5.011,0.8809,1.042,2.03,1.563,3.448,1.563,1.139,0.00001,2.089-0.3491,2.852-1.047,0.7627-0.6982,1.246-1.772,1.45-3.223z"/>
<path style="text-align:center;" d="m817.5,649.9,0-23.62,2.9,0,0,8.476c1.354-1.568,3.062-2.353,5.124-2.353,1.268,0.00001,2.369,0.2498,3.303,0.7493,0.9346,0.4995,1.603,1.19,2.006,2.071,0.4028,0.8809,0.6042,2.159,0.6042,3.835v10.84h-2.9v-10.84c-0.00002-1.45-0.3142-2.506-0.9426-3.166-0.6284-0.6606-1.517-0.991-2.667-0.991-0.8594,0.00001-1.668,0.2229-2.425,0.6687-0.7573,0.4458-1.297,1.05-1.619,1.813-0.3223,0.7627-0.4834,1.815-0.4834,3.158v9.362z"/>
<path style="text-align:center;" d="m847,647.8c-1.57,1.388-3.546,2.389-5.667,2.478-1.964,0.1316-4.199-0.2658-5.482-1.901-1.628-1.984-1.221-5.25,0.8446-6.778,1.807-1.407,4.177-1.408,6.339-1.74,1.256-0.1909,2.518-0.3999,3.724-0.808,0.0568-1.221,0.0533-2.743-1.101-3.485-1.376-0.8863-3.133-0.8622-4.691-0.595-1.21,0.1743-2.14,1.127-2.515,2.256-0.1568,0.4598-0.1806,1.041-0.785,0.7706-0.7721-0.1053-1.544-0.2106-2.316-0.3159,0.3313-1.717,1.237-3.44,2.865-4.237,2.193-1.118,4.773-1.204,7.166-0.8505,1.57,0.2776,3.265,1.053,3.865,2.64,0.6048,1.485,0.4035,3.121,0.4446,4.688,0.0219,2.596-0.0772,5.2,0.1628,7.789,0.0184,0.7467,0.5911,1.693,0.6603,2.2h-2.934c-0.3287-0.6575-0.5024-1.383-0.5801-2.111zm-0.2417-6.478c-2.14,0.8677-4.48,0.937-6.702,1.481-1.218,0.2482-2.227,1.38-2.109,2.659,0.0217,1.392,1.327,2.428,2.65,2.515,2.19,0.2925,4.706-0.5969,5.694-2.691,0.5488-1.243,0.4571-2.637,0.4673-3.964z"/>
<path style="text-align:center;" d="m854.2,649.9,0-17.11,2.61,0,0,2.594c0.666-1.214,1.281-2.014,1.845-2.401,0.564-0.3867,1.184-0.5801,1.861-0.5801,0.9775,0.00001,1.971,0.3115,2.981,0.9346l-0.999,2.691c-0.709-0.4189-1.418-0.6284-2.127-0.6284-0.6338,0.00001-1.203,0.1907-1.708,0.572-0.5049,0.3814-0.8648,0.9104-1.08,1.587-0.3223,1.031-0.4834,2.159-0.4834,3.384v8.959z"/>
<path style="text-align:center;" d="m864.7,651.3c0.9399,0.1396,1.88,0.2793,2.82,0.4189,0.0741,1.173,0.9421,2.173,2.079,2.452,1.623,0.4162,3.525,0.4062,4.963-0.5508,1.32-0.9192,1.699-2.607,1.67-4.125-0.0454-0.4918,0.1722-1.753-0.0978-1.715-1.363,1.641-3.597,2.367-5.681,2.04-2.223-0.1927-4.163-1.681-5.152-3.646-1.575-2.969-1.539-6.677-0.18-9.719,0.9781-2.265,3.238-3.914,5.716-4.044,2.158-0.252,4.386,0.6773,5.691,2.422v-2.062h2.675c-0.008,5.252,0.0162,10.5-0.0127,15.75-0.084,2.188-0.2167,4.678-1.934,6.275-2.06,2.01-5.208,2.308-7.918,1.833-1.941-0.3493-3.976-1.546-4.451-3.592-0.1496-0.5666-0.1996-1.156-0.1861-1.741zm2.401-10.28c-0.01,2.035,0.353,4.404,2.143,5.662,1.843,1.372,4.719,0.9337,6.061-0.9389,1.257-1.744,1.29-4.043,1.102-6.101-0.1698-1.971-1.33-3.973-3.272-4.634-1.78-0.6396-3.874,0.0945-4.923,1.655-0.8897,1.257-1.106,2.854-1.112,4.357z"/>
<path style="text-align:center;" d="m895.3,644.4,2.997,0.3706c-0.4727,1.751-1.348,3.11-2.626,4.077-1.278,0.9668-2.911,1.45-4.898,1.45-2.503,0-4.488-0.7708-5.954-2.312-1.466-1.542-2.199-3.703-2.199-6.486,0-2.879,0.7412-5.113,2.224-6.703,1.482-1.59,3.405-2.385,5.769-2.385,2.288,0.00001,4.157,0.7788,5.607,2.336,1.45,1.558,2.175,3.749,2.175,6.574-0.00002,0.1719-0.005,0.4297-0.0161,0.7734h-12.76c0.1074,1.88,0.6392,3.319,1.595,4.318,0.956,0.999,2.148,1.499,3.577,1.499,1.063,0.00001,1.971-0.2793,2.723-0.8379,0.7519-0.5586,1.348-1.45,1.789-2.675zm-9.523-4.689,9.555,0c-0.1289-1.439-0.4942-2.519-1.096-3.239-0.9238-1.117-2.122-1.676-3.593-1.676-1.332,0.00002-2.452,0.4458-3.36,1.337-0.9077,0.8916-1.41,2.084-1.507,3.577z"/>
<path style="text-align:center;" d="m917.2,646.1,0-6.478-6.429,0,0-2.707,6.429,0,0-6.429,2.739,0,0,6.429,6.429,0,0,2.707-6.429,0,0,6.478z"/>
<path style="text-align:center;" d="m941.3,656.5,0-8.379c-0.4512,0.6338-1.082,1.16-1.893,1.579s-1.673,0.6284-2.586,0.6284c-2.03,0-3.779-0.811-5.245-2.433s-2.199-3.846-2.199-6.671c-0.00001-1.719,0.2981-3.26,0.8943-4.625,0.5962-1.364,1.461-2.398,2.594-3.102,1.133-0.7036,2.377-1.055,3.73-1.055,2.116,0.00001,3.781,0.8916,4.995,2.675v-2.288h2.61v23.67zm-8.943-15.16c0,2.202,0.4619,3.854,1.386,4.955,0.9238,1.101,2.03,1.652,3.319,1.652,1.235,0.00001,2.299-0.5237,3.19-1.571,0.8916-1.047,1.337-2.64,1.337-4.778-0.00001-2.277-0.47-3.991-1.41-5.14s-2.044-1.724-3.311-1.724c-1.257,0.00002-2.323,0.5344-3.198,1.603-0.8755,1.069-1.313,2.737-1.313,5.003z"/>
</g>
<g style="letter-spacing:0px;word-spacing:0px;" font-family="Sans" font-size="40px" line-height="125%" font-style="normal" font-weight="normal" fill="#000">
<path style="text-align:center;" d="m1211,977,0-23.62,3.126,0,0,20.83,11.63,0,0,2.788z"/>
<path style="text-align:center;" d="m1228,968.5c0-3.169,0.8808-5.516,2.642-7.042,1.472-1.268,3.266-1.901,5.382-1.901,2.352,0.00002,4.275,0.7708,5.768,2.312,1.493,1.542,2.24,3.671,2.24,6.389,0,2.202-0.3304,3.934-0.991,5.197-0.6606,1.262-1.622,2.242-2.884,2.941-1.262,0.6982-2.64,1.047-4.133,1.047-2.396,0-4.332-0.7681-5.809-2.304s-2.216-3.749-2.216-6.639zm2.981,0c0,2.191,0.4781,3.832,1.434,4.923,0.9561,1.09,2.159,1.636,3.609,1.636,1.439,0,2.637-0.5478,3.593-1.644,0.9561-1.096,1.434-2.766,1.434-5.011,0-2.116-0.4807-3.719-1.442-4.81-0.9614-1.09-2.156-1.635-3.585-1.636-1.45,0.00002-2.653,0.5425-3.609,1.627-0.956,1.085-1.434,2.723-1.434,4.915z"/>
<path style="text-align:center;" d="m1251,977-5.237-17.11,2.997,0,2.723,9.877,1.015,3.674c0.043-0.1826,0.3384-1.359,0.8863-3.529l2.723-10.02h2.981l2.562,9.926,0.854,3.271,0.9829-3.303,2.933-9.894h2.82l-5.35,17.11h-3.013l-2.723-10.25-0.6606-2.917-3.464,13.16z"/>
<path style="text-align:center;" d="m1283,971.5,2.997,0.3706c-0.4727,1.751-1.348,3.11-2.626,4.077-1.278,0.9668-2.911,1.45-4.898,1.45-2.503,0-4.488-0.7708-5.954-2.312-1.466-1.542-2.199-3.703-2.199-6.486,0-2.879,0.7412-5.113,2.224-6.703,1.482-1.59,3.405-2.385,5.768-2.385,2.288,0.00002,4.157,0.7788,5.608,2.336,1.45,1.558,2.175,3.749,2.175,6.574-0.0001,0.1719-0.01,0.4297-0.016,0.7734h-12.76c0.1074,1.88,0.6392,3.319,1.595,4.318,0.9561,0.999,2.148,1.499,3.577,1.499,1.064,0,1.971-0.2793,2.723-0.8379s1.348-1.45,1.789-2.675zm-9.523-4.689,9.555,0c-0.1289-1.439-0.4941-2.519-1.096-3.239-0.9238-1.117-2.122-1.676-3.593-1.676-1.332,0.00001-2.452,0.4458-3.36,1.337-0.9078,0.8916-1.41,2.084-1.507,3.577z"/>
<path style="text-align:center;" d="m1290,977,0-17.11,2.61,0,0,2.594c0.666-1.214,1.281-2.014,1.845-2.401,0.564-0.3867,1.184-0.5801,1.861-0.5801,0.9775,0.00002,1.971,0.3115,2.981,0.9346l-0.999,2.691c-0.709-0.4189-1.418-0.6284-2.127-0.6284-0.6338,0.00002-1.203,0.1907-1.708,0.572-0.5049,0.3814-0.8648,0.9104-1.08,1.587-0.3223,1.031-0.4834,2.159-0.4834,3.384v8.959z"/>
<path style="text-align:center;" d="m1321,970.8,2.852,0.3706c-0.3116,1.966-1.109,3.505-2.393,4.616-1.284,1.112-2.86,1.668-4.729,1.668-2.342,0-4.224-0.7654-5.648-2.296-1.423-1.531-2.135-3.725-2.135-6.582,0-1.848,0.3061-3.464,0.9185-4.85,0.6123-1.386,1.544-2.425,2.796-3.118,1.252-0.6929,2.613-1.039,4.085-1.039,1.858,0.00002,3.378,0.47,4.56,1.41s1.939,2.275,2.272,4.004l-2.82,0.4351c-0.2685-1.149-0.7439-2.014-1.426-2.594-0.6821-0.5801-1.507-0.8701-2.473-0.8701-1.461,0.00001-2.648,0.5237-3.561,1.571-0.9131,1.047-1.37,2.704-1.37,4.971-0.0001,2.299,0.4404,3.969,1.321,5.011,0.8809,1.042,2.03,1.563,3.448,1.563,1.139,0,2.089-0.3491,2.852-1.047,0.7627-0.6982,1.246-1.772,1.45-3.223z"/>
<path style="text-align:center;" d="m1325,968.5c0-3.169,0.8809-5.516,2.643-7.042,1.472-1.268,3.266-1.901,5.382-1.901,2.352,0.00002,4.275,0.7708,5.768,2.312,1.493,1.542,2.24,3.671,2.24,6.389-0.0001,2.202-0.3304,3.934-0.991,5.197-0.6607,1.262-1.622,2.242-2.884,2.941-1.262,0.6982-2.64,1.047-4.133,1.047-2.396,0-4.332-0.7681-5.809-2.304s-2.216-3.749-2.216-6.639zm2.981,0c0,2.191,0.478,3.832,1.434,4.923,0.956,1.09,2.159,1.636,3.609,1.636,1.439,0,2.637-0.5478,3.593-1.644,0.9561-1.096,1.434-2.766,1.434-5.011,0-2.116-0.4807-3.719-1.442-4.81-0.9615-1.09-2.156-1.635-3.585-1.636-1.45,0.00002-2.653,0.5425-3.609,1.627-0.9561,1.085-1.434,2.723-1.434,4.915z"/>
<path style="text-align:center;" d="m1345,977,0-17.11,2.61,0,0,2.433c1.257-1.88,3.072-2.82,5.446-2.82,1.031,0.00002,1.979,0.1853,2.844,0.5559,0.8647,0.3706,1.512,0.8567,1.942,1.458,0.4296,0.6016,0.7304,1.316,0.9023,2.143,0.1074,0.5371,0.1611,1.477,0.1611,2.82v10.52h-2.9v-10.41c0-1.182-0.1128-2.065-0.3383-2.651-0.2256-0.5854-0.6258-1.053-1.2-1.402-0.5747-0.3491-1.249-0.5237-2.022-0.5237-1.235,0.00002-2.302,0.3921-3.198,1.176-0.897,0.7842-1.345,2.272-1.345,4.463v9.346z"/>
<path style="text-align:center;" d="m1374,977,0-2.159c-1.085,1.697-2.68,2.546-4.786,2.546-1.364,0-2.618-0.376-3.762-1.128s-2.03-1.802-2.659-3.15c-0.6284-1.348-0.9427-2.898-0.9427-4.649,0-1.708,0.2847-3.258,0.854-4.649,0.5694-1.391,1.423-2.457,2.562-3.198,1.139-0.7412,2.412-1.112,3.819-1.112,1.031,0.00002,1.95,0.2176,2.755,0.6526,0.8056,0.4351,1.461,1.002,1.966,1.7v-8.476h2.884v23.62zm-9.168-8.54c0,2.191,0.4619,3.83,1.386,4.915,0.9239,1.085,2.014,1.627,3.271,1.627,1.268,0,2.344-0.5183,3.231-1.555,0.8862-1.037,1.329-2.618,1.329-4.745,0-2.342-0.4512-4.061-1.354-5.156-0.9024-1.096-2.014-1.644-3.336-1.644-1.289,0.00002-2.366,0.5264-3.231,1.579-0.8647,1.053-1.297,2.712-1.297,4.979z"/>
<path style="text-align:center;" d="m1393,977,0-2.514c-1.332,1.934-3.142,2.9-5.43,2.9-1.01,0-1.952-0.1934-2.828-0.5801-0.8755-0.3867-1.525-0.8728-1.95-1.458-0.4243-0.5854-0.7224-1.302-0.8943-2.151-0.1181-0.5693-0.1772-1.472-0.1772-2.707v-10.6h2.9v9.491c0,1.515,0.059,2.535,0.1772,3.062,0.1826,0.7627,0.5694,1.362,1.16,1.797,0.5908,0.4351,1.321,0.6526,2.191,0.6526,0.8701,0,1.686-0.2229,2.449-0.6687,0.7627-0.4458,1.302-1.053,1.619-1.821,0.3169-0.7681,0.4753-1.883,0.4753-3.344v-9.168h2.9v17.11z"/>
<path style="text-align:center;" d="m1411,970.8,2.852,0.3706c-0.3115,1.966-1.109,3.505-2.393,4.616-1.284,1.112-2.86,1.668-4.729,1.668-2.342,0-4.224-0.7654-5.648-2.296-1.423-1.531-2.135-3.725-2.135-6.582,0-1.848,0.3061-3.464,0.9184-4.85s1.544-2.425,2.796-3.118c1.251-0.6929,2.613-1.039,4.085-1.039,1.858,0.00002,3.378,0.47,4.56,1.41s1.939,2.275,2.272,4.004l-2.82,0.4351c-0.2686-1.149-0.7439-2.014-1.426-2.594-0.6822-0.5801-1.507-0.8701-2.473-0.8701-1.461,0.00001-2.648,0.5237-3.561,1.571s-1.37,2.704-1.37,4.971c0,2.299,0.4404,3.969,1.321,5.011,0.8809,1.042,2.03,1.563,3.448,1.563,1.139,0,2.089-0.3491,2.852-1.047,0.7627-0.6982,1.246-1.772,1.45-3.223z"/>
<path style="text-align:center;" d="m1423,974.5,0.419,2.562c-0.8165,0.1719-1.547,0.2578-2.192,0.2578-1.053,0-1.869-0.1665-2.449-0.4995-0.5801-0.333-0.9883-0.7708-1.225-1.313-0.2363-0.5425-0.3545-1.684-0.3545-3.424v-9.845h-2.127v-2.256h2.127v-4.238l2.884-1.74v5.978h2.916v2.256h-2.916v10.01c0,0.8272,0.051,1.359,0.1531,1.595,0.102,0.2363,0.2685,0.4243,0.4995,0.564,0.2309,0.1396,0.5613,0.2095,0.991,0.2095,0.3222,0,0.7465-0.0376,1.273-0.1128z"/>
<path style="text-align:center;" d="m1426,956.8,0-3.335,2.9,0,0,3.335zm0,20.29,0-17.11,2.9,0,0,17.11z"/>
<path style="text-align:center;" d="m1438,977-6.51-17.11,3.062,0,3.674,10.25c0.3974,1.106,0.7627,2.256,1.096,3.448,0.2578-0.9023,0.6177-1.987,1.08-3.255l3.803-10.44h2.981l-6.478,17.11z"/>
<path style="text-align:center;" d="m1461,971.5,2.997,0.3706c-0.4727,1.751-1.348,3.11-2.626,4.077-1.278,0.9668-2.911,1.45-4.898,1.45-2.503,0-4.488-0.7708-5.954-2.312-1.466-1.542-2.2-3.703-2.2-6.486,0-2.879,0.7412-5.113,2.224-6.703,1.482-1.59,3.405-2.385,5.769-2.385,2.288,0.00002,4.157,0.7788,5.607,2.336,1.45,1.558,2.175,3.749,2.175,6.574,0,0.1719-0.01,0.4297-0.016,0.7734h-12.76c0.1074,1.88,0.6391,3.319,1.595,4.318,0.956,0.999,2.148,1.499,3.577,1.499,1.064,0,1.971-0.2793,2.723-0.8379,0.7519-0.5586,1.348-1.45,1.788-2.675zm-9.523-4.689,9.555,0c-0.1289-1.439-0.4942-2.519-1.096-3.239-0.9239-1.117-2.122-1.676-3.593-1.676-1.332,0.00001-2.452,0.4458-3.36,1.337-0.9077,0.8916-1.41,2.084-1.507,3.577z"/>
<path style="text-align:center;" d="m1477,983.6,0-23.67,2.643,0,0,2.224c0.623-0.8701,1.327-1.523,2.111-1.958,0.7842-0.435,1.735-0.6526,2.852-0.6526,1.461,0.00002,2.75,0.376,3.867,1.128s1.96,1.813,2.53,3.182c0.5693,1.37,0.854,2.871,0.854,4.504,0,1.751-0.3142,3.327-0.9426,4.729s-1.542,2.476-2.739,3.223c-1.198,0.7466-2.457,1.12-3.778,1.12-0.9668,0-1.834-0.2041-2.602-0.6123-0.7681-0.4082-1.399-0.9238-1.893-1.547v8.331zm2.626-15.02c0,2.202,0.4458,3.83,1.337,4.882,0.8916,1.053,1.971,1.579,3.239,1.579,1.289,0,2.393-0.5452,3.311-1.636,0.9184-1.09,1.378-2.78,1.378-5.068,0-2.181-0.4485-3.813-1.346-4.898-0.897-1.085-1.968-1.627-3.215-1.627-1.235,0.00002-2.328,0.5774-3.279,1.732-0.9507,1.155-1.426,2.833-1.426,5.035z"/>
<path style="text-align:center;" d="m1495,977,0-23.62,2.9,0,0,23.62z"/>
<path style="text-align:center;" d="m1514,974.9c-1.074,0.9131-2.108,1.558-3.102,1.934-0.9937,0.376-2.06,0.564-3.198,0.564-1.88,0-3.325-0.4592-4.334-1.378-1.01-0.9185-1.515-2.092-1.515-3.521,0-0.8379,0.1906-1.603,0.572-2.296,0.3813-0.6929,0.8808-1.249,1.498-1.668,0.6177-0.4189,1.313-0.7358,2.087-0.9507,0.5693-0.1504,1.429-0.2954,2.578-0.4351,2.342-0.2793,4.066-0.6123,5.172-0.999,0.011-0.3974,0.016-0.6499,0.016-0.7573,0-1.182-0.274-2.014-0.8218-2.498-0.7412-0.6553-1.842-0.9829-3.303-0.9829-1.364,0.00002-2.371,0.239-3.021,0.717-0.6499,0.478-1.131,1.324-1.442,2.538l-2.836-0.3867c0.2578-1.214,0.6821-2.194,1.273-2.941,0.5908-0.7466,1.445-1.321,2.562-1.724,1.117-0.4028,2.412-0.6042,3.883-0.6042,1.461,0.00002,2.648,0.1719,3.561,0.5156,0.913,0.3438,1.584,0.7761,2.014,1.297,0.4297,0.521,0.7305,1.179,0.9024,1.974,0.097,0.4942,0.145,1.386,0.145,2.675v3.867c0,2.696,0.062,4.402,0.1853,5.116,0.1235,0.7144,0.3679,1.399,0.7331,2.054h-3.029c-0.3008-0.6016-0.4942-1.305-0.5801-2.111zm-0.2417-6.478c-1.053,0.4297-2.632,0.7949-4.737,1.096-1.192,0.1719-2.036,0.3652-2.53,0.5801-0.4942,0.2148-0.8755,0.5291-1.144,0.9426-0.2685,0.4136-0.4028,0.8728-0.4028,1.378,0,0.7734,0.2927,1.418,0.8782,1.934,0.5854,0.5156,1.442,0.7734,2.57,0.7734,1.117,0,2.111-0.2444,2.981-0.7332,0.8701-0.4888,1.509-1.157,1.918-2.006,0.3115-0.6553,0.4673-1.622,0.4673-2.9z"/>
<path style="text-align:center;" d="m1527,974.5,0.419,2.562c-0.8164,0.1719-1.547,0.2578-2.191,0.2578-1.053,0-1.869-0.1665-2.449-0.4995-0.5801-0.333-0.9883-0.7708-1.225-1.313-0.2363-0.5425-0.3545-1.684-0.3545-3.424v-9.845h-2.127v-2.256h2.127v-4.238l2.884-1.74v5.978h2.916v2.256h-2.916v10.01c0,0.8272,0.051,1.359,0.1531,1.595,0.102,0.2363,0.2686,0.4243,0.4995,0.564,0.231,0.1396,0.5613,0.2095,0.991,0.2095,0.3222,0,0.7466-0.0376,1.273-0.1128z"/>
<path style="text-align:center;" d="m1542,971.5,2.997,0.3706c-0.4727,1.751-1.348,3.11-2.626,4.077-1.278,0.9668-2.911,1.45-4.898,1.45-2.503,0-4.488-0.7708-5.954-2.312-1.466-1.542-2.199-3.703-2.199-6.486,0-2.879,0.7412-5.113,2.224-6.703,1.482-1.59,3.405-2.385,5.768-2.385,2.288,0.00002,4.157,0.7788,5.608,2.336,1.45,1.558,2.175,3.749,2.175,6.574-0.0001,0.1719-0.01,0.4297-0.016,0.7734h-12.76c0.1074,1.88,0.6392,3.319,1.595,4.318,0.9561,0.999,2.148,1.499,3.577,1.499,1.064,0,1.971-0.2793,2.723-0.8379s1.348-1.45,1.789-2.675zm-9.523-4.689,9.555,0c-0.1289-1.439-0.4941-2.519-1.096-3.239-0.9238-1.117-2.122-1.676-3.593-1.676-1.332,0.00001-2.452,0.4458-3.36,1.337-0.9078,0.8916-1.41,2.084-1.507,3.577z"/>
<path style="text-align:center;" d="m1561,977-5.237-17.11,2.997,0,2.723,9.877,1.015,3.674c0.043-0.1826,0.3383-1.359,0.8862-3.529l2.723-10.02h2.981l2.562,9.926,0.854,3.271,0.9829-3.303,2.933-9.894h2.82l-5.35,17.11h-3.013l-2.723-10.25-0.6606-2.917-3.464,13.16z"/>
<path style="text-align:center;" d="m1582,956.8,0-3.335,2.9,0,0,3.335zm0,20.29,0-17.11,2.9,0,0,17.11z"/>
<path style="text-align:center;" d="m1595,974.5,0.4189,2.562c-0.8164,0.1719-1.547,0.2578-2.191,0.2578-1.053,0-1.869-0.1665-2.449-0.4995-0.5801-0.333-0.9883-0.7708-1.225-1.313-0.2363-0.5425-0.3545-1.684-0.3545-3.424v-9.845h-2.127v-2.256h2.127v-4.238l2.884-1.74v5.978h2.916v2.256h-2.916v10.01c0,0.8272,0.051,1.359,0.153,1.595,0.1021,0.2363,0.2686,0.4243,0.4996,0.564,0.2309,0.1396,0.5612,0.2095,0.9909,0.2095,0.3223,0,0.7466-0.0376,1.273-0.1128z"/>
<path style="text-align:center;" d="m1598,977,0-23.62,2.9,0,0,8.476c1.354-1.568,3.062-2.353,5.124-2.353,1.268,0.00002,2.369,0.2498,3.303,0.7493,0.9346,0.4995,1.603,1.19,2.006,2.071,0.4029,0.8809,0.6043,2.159,0.6043,3.835v10.84h-2.9v-10.84c0-1.45-0.3142-2.506-0.9426-3.166-0.6285-0.6606-1.517-0.991-2.667-0.991-0.8594,0.00002-1.668,0.2229-2.425,0.6687-0.7574,0.4458-1.297,1.05-1.619,1.813-0.3223,0.7627-0.4834,1.815-0.4834,3.158v9.362z"/>
<path style="text-align:center;" d="m1256,1016c-1.074,0.9131-2.108,1.558-3.102,1.934-0.9937,0.376-2.06,0.564-3.198,0.564-1.88,0-3.325-0.4592-4.334-1.378-1.01-0.9185-1.515-2.092-1.515-3.521,0-0.8378,0.1906-1.603,0.572-2.296,0.3813-0.6929,0.8808-1.249,1.498-1.668,0.6177-0.419,1.313-0.7359,2.087-0.9507,0.5693-0.1504,1.429-0.2954,2.578-0.4351,2.342-0.2792,4.066-0.6123,5.172-0.999,0.011-0.3974,0.016-0.6499,0.016-0.7573,0-1.182-0.274-2.014-0.8218-2.498-0.7412-0.6552-1.842-0.9829-3.303-0.9829-1.364,0-2.371,0.239-3.021,0.7171-0.6499,0.478-1.131,1.324-1.442,2.538l-2.836-0.3867c0.2578-1.214,0.6821-2.194,1.273-2.941,0.5908-0.7466,1.445-1.321,2.562-1.724,1.117-0.4028,2.412-0.6042,3.883-0.6043,1.461,0.0001,2.648,0.1719,3.561,0.5157,0.913,0.3437,1.584,0.7761,2.014,1.297,0.4297,0.521,0.7305,1.179,0.9024,1.974,0.097,0.4941,0.145,1.386,0.145,2.675v3.867c0,2.696,0.062,4.402,0.1853,5.116,0.1235,0.7144,0.3679,1.399,0.7331,2.054h-3.029c-0.3008-0.6016-0.4941-1.305-0.58-2.111zm-0.2417-6.478c-1.053,0.4297-2.632,0.7949-4.737,1.096-1.192,0.1719-2.036,0.3652-2.53,0.5801-0.4942,0.2148-0.8755,0.529-1.144,0.9426s-0.4028,0.8728-0.4028,1.378c0,0.7734,0.2927,1.418,0.8782,1.934,0.5854,0.5156,1.442,0.7734,2.57,0.7734,1.117,0,2.111-0.2444,2.981-0.7331,0.8701-0.4888,1.509-1.158,1.918-2.006,0.3115-0.6553,0.4673-1.622,0.4673-2.9z"/>
<path style="text-align:center;" d="m1264,1018,0-17.11,2.61,0,0,2.594c0.666-1.214,1.281-2.014,1.845-2.401,0.564-0.3867,1.184-0.58,1.861-0.5801,0.9775,0.0001,1.971,0.3116,2.981,0.9346l-0.999,2.691c-0.709-0.4189-1.418-0.6284-2.127-0.6284-0.6338,0-1.203,0.1907-1.708,0.572-0.5049,0.3814-0.8648,0.9104-1.08,1.587-0.3223,1.031-0.4834,2.159-0.4834,3.384v8.959z"/>
<path style="text-align:center;" d="m1286,1013,2.997,0.3706c-0.4727,1.751-1.348,3.11-2.626,4.077-1.278,0.9668-2.911,1.45-4.898,1.45-2.503,0-4.488-0.7708-5.954-2.312-1.466-1.542-2.2-3.703-2.2-6.486,0-2.879,0.7412-5.113,2.224-6.703,1.482-1.59,3.405-2.385,5.769-2.385,2.288,0.0001,4.157,0.7789,5.607,2.336,1.45,1.558,2.175,3.749,2.175,6.574,0,0.1719-0.01,0.4297-0.016,0.7734h-12.76c0.1074,1.88,0.6391,3.319,1.595,4.318,0.956,0.999,2.148,1.498,3.577,1.498,1.064,0,1.971-0.2793,2.723-0.8379,0.7519-0.5586,1.348-1.45,1.788-2.675zm-9.523-4.689,9.555,0c-0.129-1.44-0.4942-2.519-1.096-3.239-0.9239-1.117-2.122-1.676-3.593-1.676-1.332,0-2.452,0.4458-3.36,1.337-0.9077,0.8916-1.41,2.084-1.507,3.577z"/>
<path style="text-align:center;" d="m1304,1016c-1.074,0.9131-2.108,1.558-3.102,1.934-0.9936,0.376-2.06,0.564-3.198,0.564-1.88,0-3.325-0.4592-4.334-1.378-1.01-0.9185-1.515-2.092-1.515-3.521,0-0.8378,0.1907-1.603,0.572-2.296,0.3814-0.6929,0.8809-1.249,1.499-1.668,0.6176-0.419,1.313-0.7359,2.087-0.9507,0.5694-0.1504,1.429-0.2954,2.578-0.4351,2.342-0.2792,4.066-0.6123,5.172-0.999,0.011-0.3974,0.016-0.6499,0.016-0.7573,0-1.182-0.2739-2.014-0.8217-2.498-0.7413-0.6552-1.842-0.9829-3.303-0.9829-1.364,0-2.371,0.239-3.021,0.7171-0.6499,0.478-1.131,1.324-1.442,2.538l-2.836-0.3867c0.2578-1.214,0.6822-2.194,1.273-2.941,0.5908-0.7466,1.445-1.321,2.562-1.724,1.117-0.4028,2.412-0.6042,3.883-0.6043,1.461,0.0001,2.648,0.1719,3.561,0.5157,0.9131,0.3437,1.584,0.7761,2.014,1.297,0.4297,0.521,0.7304,1.179,0.9023,1.974,0.097,0.4941,0.145,1.386,0.145,2.675v3.867c0,2.696,0.062,4.402,0.1854,5.116,0.1235,0.7144,0.3679,1.399,0.7331,2.054h-3.029c-0.3008-0.6016-0.4941-1.305-0.5801-2.111zm-0.2417-6.478c-1.053,0.4297-2.632,0.7949-4.737,1.096-1.192,0.1719-2.036,0.3652-2.53,0.5801-0.4941,0.2148-0.8755,0.529-1.144,0.9426-0.2686,0.4136-0.4028,0.8728-0.4028,1.378,0,0.7734,0.2927,1.418,0.8781,1.934,0.5855,0.5156,1.442,0.7734,2.57,0.7734,1.117,0,2.111-0.2444,2.981-0.7331,0.8701-0.4888,1.509-1.158,1.917-2.006,0.3116-0.6553,0.4673-1.622,0.4673-2.9z"/>
<path style="text-align:center;" d="m1312,1018,0-3.303,3.303,0,0,3.303c0,1.214-0.2148,2.194-0.6445,2.941-0.4297,0.7466-1.112,1.324-2.046,1.732l-0.8057-1.241c0.6123-0.2686,1.064-0.6633,1.354-1.184,0.2901-0.521,0.4512-1.27,0.4834-2.248z"/>
<path style="text-align:center;" d="m1327,1018,9.072-23.62,3.368,0,9.668,23.62-3.561,0-2.755-7.154-9.877,0-2.594,7.154zm6.816-9.7,8.008,0-2.465-6.542c-0.752-1.987-1.31-3.62-1.676-4.898-0.3008,1.515-0.7251,3.019-1.273,4.512z"/>
<path style="text-align:center;" d="m1352,1018,0-3.303,3.303,0,0,3.303c0,1.214-0.2149,2.194-0.6446,2.941-0.4297,0.7466-1.112,1.324-2.046,1.732l-0.8057-1.241c0.6123-0.2686,1.064-0.6633,1.354-1.184,0.29-0.521,0.4512-1.27,0.4834-2.248z"/>
<path style="text-align:center;" d="m1381,1016c-1.074,0.9131-2.108,1.558-3.102,1.934-0.9937,0.376-2.06,0.564-3.198,0.564-1.88,0-3.325-0.4592-4.334-1.378-1.01-0.9185-1.515-2.092-1.515-3.521,0-0.8378,0.1907-1.603,0.572-2.296,0.3814-0.6929,0.8809-1.249,1.499-1.668,0.6176-0.419,1.313-0.7359,2.087-0.9507,0.5694-0.1504,1.429-0.2954,2.578-0.4351,2.342-0.2792,4.066-0.6123,5.172-0.999,0.011-0.3974,0.016-0.6499,0.016-0.7573,0-1.182-0.2739-2.014-0.8217-2.498-0.7413-0.6552-1.842-0.9829-3.303-0.9829-1.364,0-2.371,0.239-3.021,0.7171-0.6499,0.478-1.131,1.324-1.442,2.538l-2.836-0.3867c0.2578-1.214,0.6821-2.194,1.273-2.941,0.5908-0.7466,1.445-1.321,2.562-1.724,1.117-0.4028,2.412-0.6042,3.883-0.6043,1.461,0.0001,2.648,0.1719,3.561,0.5157,0.9131,0.3437,1.584,0.7761,2.014,1.297,0.4296,0.521,0.7304,1.179,0.9023,1.974,0.097,0.4941,0.145,1.386,0.145,2.675v3.867c0,2.696,0.062,4.402,0.1853,5.116,0.1236,0.7144,0.3679,1.399,0.7332,2.054h-3.029c-0.3008-0.6016-0.4942-1.305-0.5801-2.111zm-0.2417-6.478c-1.053,0.4297-2.632,0.7949-4.737,1.096-1.192,0.1719-2.036,0.3652-2.53,0.5801-0.4941,0.2148-0.8755,0.529-1.144,0.9426-0.2686,0.4136-0.4029,0.8728-0.4028,1.378-0.0001,0.7734,0.2927,1.418,0.8781,1.934,0.5855,0.5156,1.442,0.7734,2.57,0.7734,1.117,0,2.111-0.2444,2.981-0.7331,0.8701-0.4888,1.509-1.158,1.917-2.006,0.3115-0.6553,0.4673-1.622,0.4673-2.9z"/>
<path style="text-align:center;" d="m1388,1018,0-17.11,2.61,0,0,2.433c1.257-1.88,3.072-2.82,5.446-2.82,1.031,0.0001,1.979,0.1854,2.844,0.556,0.8647,0.3706,1.512,0.8567,1.942,1.458,0.4297,0.6016,0.7305,1.316,0.9024,2.143,0.1074,0.5371,0.1611,1.477,0.1611,2.82v10.52h-2.9v-10.41c0-1.182-0.1128-2.065-0.3384-2.651-0.2256-0.5855-0.6257-1.053-1.2-1.402-0.5747-0.3491-1.249-0.5237-2.022-0.5237-1.235,0-2.302,0.3921-3.198,1.176-0.897,0.7842-1.346,2.272-1.346,4.463v9.346z"/>
<path style="text-align:center;" d="m1418,1018,0-2.159c-1.085,1.697-2.68,2.546-4.786,2.546-1.364,0-2.618-0.376-3.762-1.128s-2.03-1.802-2.659-3.15c-0.6285-1.348-0.9427-2.898-0.9427-4.649,0-1.708,0.2847-3.258,0.854-4.649,0.5694-1.391,1.423-2.457,2.562-3.198,1.139-0.7412,2.412-1.112,3.819-1.112,1.031,0.0001,1.95,0.2176,2.755,0.6526,0.8056,0.4351,1.461,1.002,1.966,1.7v-8.476h2.884v23.62zm-9.168-8.54c0,2.191,0.4619,3.83,1.386,4.915,0.9239,1.085,2.014,1.627,3.271,1.627,1.268,0,2.344-0.5183,3.231-1.555,0.8863-1.037,1.329-2.618,1.329-4.745,0-2.342-0.4512-4.06-1.354-5.156-0.9024-1.096-2.014-1.644-3.336-1.644-1.289,0-2.366,0.5264-3.231,1.579-0.8647,1.053-1.297,2.712-1.297,4.979z"/>
<path style="text-align:center;" d="m1445,1012,2.852,0.3706c-0.3115,1.966-1.109,3.505-2.393,4.616-1.284,1.112-2.86,1.668-4.729,1.668-2.342,0-4.224-0.7654-5.648-2.296-1.423-1.531-2.135-3.725-2.135-6.582,0-1.848,0.3062-3.464,0.9185-4.85s1.544-2.425,2.796-3.118c1.251-0.6928,2.613-1.039,4.085-1.039,1.858,0.0001,3.378,0.47,4.56,1.41,1.182,0.9399,1.939,2.275,2.272,4.004l-2.82,0.4351c-0.2686-1.149-0.7439-2.014-1.426-2.594-0.6822-0.58-1.507-0.8701-2.473-0.8701-1.461,0-2.648,0.5237-3.561,1.571-0.9131,1.047-1.37,2.704-1.37,4.971,0,2.299,0.4404,3.969,1.321,5.011,0.8808,1.042,2.03,1.563,3.448,1.563,1.139,0,2.089-0.3491,2.852-1.047,0.7627-0.6983,1.246-1.772,1.45-3.223z"/>
<path style="text-align:center;" d="m1451,1018,0-23.62,2.9,0,0,8.476c1.354-1.568,3.062-2.352,5.124-2.353,1.268,0.0001,2.369,0.2498,3.303,0.7493,0.9346,0.4995,1.603,1.19,2.006,2.071,0.4028,0.8808,0.6042,2.159,0.6043,3.835v10.84h-2.9v-10.84c0-1.45-0.3142-2.506-0.9427-3.166-0.6284-0.6607-1.517-0.991-2.667-0.991-0.8594,0-1.668,0.2229-2.425,0.6687-0.7574,0.4458-1.297,1.05-1.619,1.813-0.3223,0.7628-0.4834,1.816-0.4834,3.158v9.362z"/>
<path style="text-align:center;" d="m1480,1016c-1.074,0.9131-2.108,1.558-3.102,1.934-0.9936,0.376-2.06,0.564-3.198,0.564-1.88,0-3.325-0.4592-4.334-1.378-1.01-0.9185-1.515-2.092-1.515-3.521,0-0.8378,0.1907-1.603,0.572-2.296,0.3814-0.6929,0.8809-1.249,1.499-1.668,0.6176-0.419,1.313-0.7359,2.087-0.9507,0.5694-0.1504,1.429-0.2954,2.578-0.4351,2.342-0.2792,4.066-0.6123,5.172-0.999,0.011-0.3974,0.016-0.6499,0.016-0.7573,0-1.182-0.2739-2.014-0.8217-2.498-0.7413-0.6552-1.842-0.9829-3.303-0.9829-1.364,0-2.371,0.239-3.021,0.7171-0.6499,0.478-1.131,1.324-1.442,2.538l-2.836-0.3867c0.2578-1.214,0.6821-2.194,1.273-2.941,0.5908-0.7466,1.445-1.321,2.562-1.724,1.117-0.4028,2.412-0.6042,3.883-0.6043,1.461,0.0001,2.648,0.1719,3.561,0.5157,0.9131,0.3437,1.584,0.7761,2.014,1.297,0.4296,0.521,0.7304,1.179,0.9023,1.974,0.097,0.4941,0.145,1.386,0.145,2.675v3.867c0,2.696,0.062,4.402,0.1853,5.116,0.1236,0.7144,0.3679,1.399,0.7332,2.054h-3.029c-0.3008-0.6016-0.4942-1.305-0.5801-2.111zm-0.2417-6.478c-1.053,0.4297-2.632,0.7949-4.737,1.096-1.192,0.1719-2.036,0.3652-2.53,0.5801-0.4941,0.2148-0.8755,0.529-1.144,0.9426-0.2686,0.4136-0.4028,0.8728-0.4028,1.378,0,0.7734,0.2927,1.418,0.8781,1.934,0.5855,0.5156,1.442,0.7734,2.57,0.7734,1.117,0,2.111-0.2444,2.981-0.7331,0.8701-0.4888,1.509-1.158,1.917-2.006,0.3115-0.6553,0.4673-1.622,0.4673-2.9z"/>
<path style="text-align:center;" d="m1487,1018,0-17.11,2.61,0,0,2.594c0.666-1.214,1.281-2.014,1.845-2.401,0.5639-0.3867,1.184-0.58,1.861-0.5801,0.9776,0.0001,1.971,0.3116,2.981,0.9346l-0.999,2.691c-0.709-0.4189-1.418-0.6284-2.127-0.6284-0.6338,0-1.203,0.1907-1.708,0.572-0.5049,0.3814-0.8647,0.9104-1.08,1.587-0.3222,1.031-0.4834,2.159-0.4834,3.384v8.959z"/>
<path style="text-align:center;" d="m1498,1020,2.82,0.419c0.1182,0.8701,0.4458,1.504,0.9829,1.901,0.7198,0.5372,1.703,0.8057,2.949,0.8057,1.343,0,2.379-0.2685,3.11-0.8057,0.7305-0.5371,1.225-1.289,1.482-2.256,0.1503-0.5908,0.2202-1.832,0.2094-3.722-1.268,1.493-2.847,2.24-4.737,2.24-2.352,0-4.173-0.8487-5.462-2.546s-1.934-3.733-1.934-6.107c0-1.633,0.2954-3.139,0.8863-4.52,0.5908-1.38,1.448-2.447,2.57-3.198,1.123-0.752,2.441-1.128,3.956-1.128,2.02,0.0001,3.685,0.8165,4.995,2.449v-2.062h2.675v14.79c-0.0001,2.664-0.2713,4.552-0.8138,5.664s-1.402,1.99-2.578,2.634c-1.176,0.6445-2.624,0.9668-4.342,0.9668-2.041,0-3.69-0.4592-4.947-1.378-1.257-0.9185-1.864-2.302-1.821-4.149zm2.401-10.28c0,2.245,0.4458,3.883,1.337,4.914,0.8916,1.031,2.009,1.547,3.352,1.547,1.332,0,2.449-0.5129,3.352-1.539,0.9023-1.026,1.354-2.634,1.354-4.826,0-2.095-0.4646-3.674-1.394-4.737-0.9292-1.063-2.049-1.595-3.36-1.595-1.289,0-2.385,0.5237-3.287,1.571-0.9023,1.047-1.354,2.602-1.354,4.665z"/>
<path style="text-align:center;" d="m1529,1013,2.997,0.3706c-0.4727,1.751-1.348,3.11-2.626,4.077-1.278,0.9668-2.911,1.45-4.898,1.45-2.503,0-4.488-0.7708-5.954-2.312-1.466-1.542-2.199-3.703-2.199-6.486,0-2.879,0.7412-5.113,2.224-6.703,1.482-1.59,3.405-2.385,5.769-2.385,2.288,0.0001,4.157,0.7789,5.607,2.336,1.45,1.558,2.175,3.749,2.175,6.574,0,0.1719-0.01,0.4297-0.016,0.7734h-12.76c0.1074,1.88,0.6391,3.319,1.595,4.318,0.956,0.999,2.148,1.498,3.577,1.498,1.064,0,1.971-0.2793,2.723-0.8379,0.7519-0.5586,1.348-1.45,1.788-2.675zm-9.523-4.689,9.555,0c-0.129-1.44-0.4942-2.519-1.096-3.239-0.9239-1.117-2.122-1.676-3.593-1.676-1.332,0-2.452,0.4458-3.36,1.337-0.9077,0.8916-1.41,2.084-1.507,3.577z"/>
<path style="text-align:center;" d="m1551,1014,0-6.478-6.429,0,0-2.707,6.429,0,0-6.429,2.739,0,0,6.429,6.429,0,0,2.707-6.429,0,0,6.478z"/>
<path style="text-align:center;" d="m1575,1025,0-8.379c-0.4511,0.6338-1.082,1.16-1.893,1.579-0.811,0.4189-1.673,0.6284-2.586,0.6284-2.03,0-3.779-0.8111-5.245-2.433s-2.2-3.846-2.2-6.671c0-1.719,0.2981-3.26,0.8943-4.624s1.461-2.398,2.594-3.102c1.133-0.7036,2.377-1.055,3.73-1.056,2.116,0.0001,3.781,0.8917,4.995,2.675v-2.288h2.61v23.67zm-8.943-15.16c0,2.202,0.4619,3.854,1.386,4.955,0.9238,1.101,2.03,1.652,3.319,1.652,1.235,0,2.299-0.5237,3.19-1.571,0.8916-1.047,1.337-2.64,1.337-4.778,0-2.277-0.47-3.991-1.41-5.14s-2.044-1.724-3.311-1.724c-1.257,0-2.323,0.5345-3.198,1.603-0.8755,1.069-1.313,2.737-1.313,5.003z"/>
</g>
<g style="letter-spacing:0px;word-spacing:0px;" font-weight="normal" transform="translate(898.93022,82.759105)" font-size="40px" font-style="normal" font-family="Sans" line-height="125%" fill="#000">
<path style="text-align:center;" d="m62.93,1022,0-23.62,8.137,0c1.837,0.00003,3.239,0.1128,4.206,0.3384,1.354,0.3116,2.508,0.8755,3.464,1.692,1.246,1.053,2.178,2.398,2.796,4.036,0.6177,1.638,0.9265,3.51,0.9265,5.615-0.000022,1.794-0.2095,3.384-0.6284,4.77-0.419,1.386-0.9561,2.532-1.611,3.44-0.6553,0.9077-1.372,1.622-2.151,2.143-0.7788,0.521-1.719,0.9158-2.82,1.184-1.101,0.2686-2.366,0.4029-3.795,0.4029zm3.126-2.788,5.043,0c1.558,0,2.78-0.145,3.666-0.4351,0.8862-0.29,1.593-0.6982,2.119-1.225,0.7412-0.7412,1.319-1.738,1.732-2.989,0.4136-1.252,0.6203-2.769,0.6204-4.552-0.000019-2.471-0.4055-4.369-1.217-5.696-0.8111-1.327-1.797-2.216-2.957-2.667-0.8379-0.3222-2.186-0.4834-4.044-0.4834h-4.963z"/>
<path style="text-align:center;" d="m86.42,1002,0-3.336,2.9,0,0,3.336zm0,20.29,0-17.11,2.9,0,0,17.11z"/>
<path style="text-align:center;" d="m105.5,1017,2.997,0.3706c-0.4727,1.751-1.348,3.11-2.626,4.077-1.278,0.9668-2.911,1.45-4.898,1.45-2.503,0-4.488-0.7708-5.954-2.312-1.466-1.542-2.199-3.703-2.199-6.486-0.000001-2.879,0.7412-5.113,2.224-6.703,1.482-1.59,3.405-2.385,5.769-2.385,2.288,0,4.157,0.7788,5.607,2.336,1.45,1.558,2.175,3.749,2.175,6.574-0.00001,0.1719-0.005,0.4297-0.0161,0.7734h-12.76c0.1074,1.88,0.6392,3.319,1.595,4.318,0.956,0.999,2.148,1.498,3.577,1.498,1.063,0,1.971-0.2793,2.723-0.8379,0.7519-0.5586,1.348-1.45,1.789-2.675zm-9.523-4.689,9.555,0c-0.1289-1.44-0.4942-2.519-1.096-3.239-0.9238-1.117-2.122-1.676-3.593-1.676-1.332,0-2.452,0.4458-3.36,1.337-0.9077,0.8916-1.41,2.084-1.507,3.577z"/>
<path style="text-align:center;" d="m112.1,1022,0-23.62,2.9,0,0,23.62z"/>
<path style="text-align:center;" d="m131.2,1017,2.997,0.3706c-0.4727,1.751-1.348,3.11-2.626,4.077-1.278,0.9668-2.911,1.45-4.898,1.45-2.503,0-4.488-0.7708-5.954-2.312-1.466-1.542-2.199-3.703-2.199-6.486,0-2.879,0.7412-5.113,2.224-6.703,1.482-1.59,3.405-2.385,5.769-2.385,2.288,0,4.157,0.7788,5.607,2.336,1.45,1.558,2.175,3.749,2.175,6.574-0.00002,0.1719-0.005,0.4297-0.0161,0.7734h-12.76c0.1074,1.88,0.6392,3.319,1.595,4.318,0.956,0.999,2.148,1.498,3.577,1.498,1.063,0,1.971-0.2793,2.723-0.8379,0.7519-0.5586,1.348-1.45,1.789-2.675zm-9.523-4.689,9.555,0c-0.1289-1.44-0.4942-2.519-1.096-3.239-0.9238-1.117-2.122-1.676-3.593-1.676-1.332,0-2.452,0.4458-3.36,1.337-0.9077,0.8916-1.41,2.084-1.507,3.577z"/>
<path style="text-align:center;" d="m149,1016,2.852,0.3706c-0.3115,1.966-1.109,3.505-2.393,4.616-1.284,1.112-2.86,1.668-4.729,1.668-2.342,0-4.224-0.7654-5.648-2.296-1.423-1.531-2.135-3.725-2.135-6.582,0-1.848,0.3062-3.464,0.9185-4.85s1.544-2.425,2.796-3.118c1.251-0.6929,2.613-1.039,4.085-1.039,1.858,0,3.378,0.4699,4.56,1.41,1.182,0.9399,1.939,2.275,2.272,4.004l-2.82,0.4351c-0.2686-1.149-0.7439-2.014-1.426-2.594s-1.507-0.8701-2.473-0.8701c-1.461,0-2.648,0.5237-3.561,1.571-0.9131,1.047-1.37,2.704-1.37,4.971,0,2.299,0.4404,3.969,1.321,5.011,0.8808,1.042,2.03,1.563,3.448,1.563,1.139,0,2.089-0.3491,2.852-1.047,0.7627-0.6983,1.246-1.772,1.45-3.223z"/>
<path style="text-align:center;" d="m160.7,1019,0.419,2.562c-0.8164,0.1719-1.547,0.2579-2.191,0.2579-1.053,0-1.869-0.1665-2.449-0.4996-0.5801-0.333-0.9883-0.7707-1.225-1.313-0.2363-0.5425-0.3545-1.684-0.3545-3.424v-9.845h-2.127v-2.256h2.127v-4.238l2.884-1.74v5.978h2.916v2.256h-2.916v10.01c0,0.8271,0.051,1.359,0.1531,1.595,0.102,0.2363,0.2686,0.4243,0.4995,0.564,0.231,0.1396,0.5613,0.2094,0.991,0.2094,0.3222,0,0.7466-0.038,1.273-0.1128z"/>
<path style="text-align:center;" d="m163.5,1022,0-17.11,2.61,0,0,2.594c0.666-1.214,1.281-2.014,1.845-2.401,0.564-0.3867,1.184-0.58,1.861-0.58,0.9775,0,1.971,0.3115,2.981,0.9345l-0.999,2.691c-0.709-0.4189-1.418-0.6284-2.127-0.6284-0.6338,0-1.203,0.1907-1.708,0.572-0.5049,0.3814-0.8648,0.9105-1.08,1.587-0.3223,1.031-0.4834,2.159-0.4834,3.384v8.959z"/>
<path style="text-align:center;" d="m174.5,1002,0-3.336,2.9,0,0,3.336zm0,20.29,0-17.11,2.9,0,0,17.11z"/>
<path style="text-align:center;" d="m193,1016,2.852,0.3706c-0.3115,1.966-1.109,3.505-2.393,4.616-1.284,1.112-2.86,1.668-4.729,1.668-2.342,0-4.224-0.7654-5.648-2.296-1.423-1.531-2.135-3.725-2.135-6.582,0-1.848,0.3062-3.464,0.9185-4.85s1.544-2.425,2.796-3.118c1.251-0.6929,2.613-1.039,4.085-1.039,1.858,0,3.378,0.4699,4.56,1.41,1.182,0.9399,1.939,2.275,2.272,4.004l-2.82,0.4351c-0.2686-1.149-0.7439-2.014-1.426-2.594s-1.507-0.8701-2.473-0.8701c-1.461,0-2.648,0.5237-3.561,1.571-0.9131,1.047-1.37,2.704-1.37,4.971-0.00001,2.299,0.4404,3.969,1.321,5.011,0.8808,1.042,2.03,1.563,3.448,1.563,1.139,0,2.089-0.3491,2.852-1.047,0.7627-0.6983,1.246-1.772,1.45-3.223z"/>
<path style="text-align:center;" d="m207.5,1022,0-17.11,2.594,0,0,2.401c0.5371-0.8378,1.251-1.512,2.143-2.022,0.8916-0.5102,1.907-0.7653,3.045-0.7653,1.268,0,2.307,0.2632,3.118,0.7895,0.811,0.5264,1.383,1.262,1.716,2.208,1.354-1.998,3.115-2.997,5.285-2.997,1.697,0,3.002,0.4699,3.916,1.41,0.9131,0.9399,1.37,2.387,1.37,4.342v11.75h-2.884v-10.78c-0.00002-1.16-0.094-1.995-0.282-2.506-0.188-0.5103-0.5291-0.9212-1.023-1.233-0.4942-0.3115-1.074-0.4673-1.74-0.4673-1.203,0-2.202,0.4002-2.997,1.2-0.7949,0.8003-1.192,2.081-1.192,3.843v9.942h-2.9v-11.12c-0.00001-1.289-0.2363-2.256-0.709-2.9-0.4727-0.6445-1.246-0.9668-2.32-0.9668-0.8164,0-1.571,0.2149-2.264,0.6446-0.6929,0.4297-1.195,1.058-1.507,1.885-0.3115,0.8272-0.4673,2.02-0.4673,3.577v8.878z"/>
<path style="text-align:center;" d="m246.2,1020c-1.074,0.9131-2.108,1.558-3.102,1.934-0.9937,0.376-2.06,0.564-3.198,0.564-1.88,0-3.325-0.4592-4.334-1.378-1.01-0.9184-1.515-2.092-1.515-3.521,0-0.8379,0.1907-1.603,0.572-2.296,0.3813-0.6929,0.8809-1.249,1.499-1.668,0.6177-0.4189,1.313-0.7358,2.087-0.9507,0.5693-0.1504,1.429-0.2954,2.578-0.4351,2.342-0.2792,4.066-0.6122,5.172-0.999,0.0107-0.3974,0.0161-0.6499,0.0161-0.7573-0.00002-1.182-0.2739-2.014-0.8218-2.498-0.7412-0.6552-1.842-0.9829-3.303-0.9829-1.364,0-2.371,0.2391-3.021,0.7171-0.6499,0.478-1.131,1.324-1.442,2.538l-2.836-0.3867c0.2578-1.214,0.6821-2.194,1.273-2.941,0.5908-0.7465,1.445-1.321,2.562-1.724,1.117-0.4028,2.412-0.6042,3.883-0.6042,1.461,0,2.648,0.1718,3.561,0.5156,0.9131,0.3437,1.584,0.7761,2.014,1.297,0.4297,0.521,0.7304,1.179,0.9023,1.974,0.0967,0.4941,0.145,1.386,0.145,2.675v3.867c-0.00002,2.696,0.0618,4.402,0.1853,5.116,0.1235,0.7144,0.3679,1.399,0.7332,2.054h-3.029c-0.3008-0.6016-0.4942-1.305-0.5801-2.111zm-0.2417-6.478c-1.053,0.4297-2.632,0.7949-4.737,1.096-1.192,0.1719-2.036,0.3652-2.53,0.5801-0.4941,0.2148-0.8755,0.529-1.144,0.9426-0.2686,0.4136-0.4028,0.8728-0.4028,1.378-0.00001,0.7734,0.2927,1.418,0.8782,1.934,0.5854,0.5156,1.442,0.7734,2.57,0.7734,1.117,0,2.111-0.2444,2.981-0.7331,0.8701-0.4888,1.509-1.158,1.917-2.006,0.3115-0.6553,0.4673-1.622,0.4673-2.9z"/>
<path style="text-align:center;" d="m259.7,1019,0.4189,2.562c-0.8164,0.1719-1.547,0.2579-2.191,0.2579-1.053,0-1.869-0.1665-2.449-0.4996-0.5801-0.333-0.9883-0.7707-1.225-1.313-0.2363-0.5425-0.3545-1.684-0.3545-3.424v-9.845h-2.127v-2.256h2.127v-4.238l2.884-1.74v5.978h2.917v2.256h-2.917v10.01c0,0.8271,0.051,1.359,0.1531,1.595,0.102,0.2363,0.2686,0.4243,0.4995,0.564,0.231,0.1396,0.5613,0.2094,0.991,0.2094,0.3223,0,0.7466-0.038,1.273-0.1128z"/>
<path style="text-align:center;" d="m274.3,1017,2.997,0.3706c-0.4727,1.751-1.348,3.11-2.626,4.077-1.278,0.9668-2.911,1.45-4.898,1.45-2.503,0-4.488-0.7708-5.954-2.312-1.466-1.542-2.199-3.703-2.199-6.486-0.00001-2.879,0.7412-5.113,2.224-6.703,1.482-1.59,3.405-2.385,5.769-2.385,2.288,0,4.157,0.7788,5.607,2.336,1.45,1.558,2.175,3.749,2.175,6.574-0.00002,0.1719-0.005,0.4297-0.0161,0.7734h-12.76c0.1074,1.88,0.6392,3.319,1.595,4.318,0.956,0.999,2.148,1.498,3.577,1.498,1.063,0,1.971-0.2793,2.723-0.8379,0.7519-0.5586,1.348-1.45,1.789-2.675zm-9.523-4.689,9.555,0c-0.1289-1.44-0.4942-2.519-1.096-3.239-0.9238-1.117-2.122-1.676-3.593-1.676-1.332,0-2.452,0.4458-3.36,1.337-0.9077,0.8916-1.41,2.084-1.507,3.577z"/>
<path style="text-align:center;" d="m280.9,1022,0-17.11,2.61,0,0,2.594c0.666-1.214,1.281-2.014,1.845-2.401,0.564-0.3867,1.184-0.58,1.861-0.58,0.9775,0,1.971,0.3115,2.981,0.9345l-0.999,2.691c-0.709-0.4189-1.418-0.6284-2.127-0.6284-0.6338,0-1.203,0.1907-1.708,0.572-0.5049,0.3814-0.8648,0.9105-1.08,1.587-0.3223,1.031-0.4834,2.159-0.4834,3.384v8.959z"/>
<path style="text-align:center;" d="m292,1002,0-3.336,2.9,0,0,3.336zm0,20.29,0-17.11,2.9,0,0,17.11z"/>
<path style="text-align:center;" d="m310.5,1020c-1.074,0.9131-2.108,1.558-3.102,1.934-0.9937,0.376-2.06,0.564-3.198,0.564-1.88,0-3.325-0.4592-4.334-1.378-1.01-0.9184-1.515-2.092-1.515-3.521,0-0.8379,0.1907-1.603,0.572-2.296,0.3814-0.6929,0.8809-1.249,1.499-1.668,0.6177-0.4189,1.313-0.7358,2.087-0.9507,0.5693-0.1504,1.429-0.2954,2.578-0.4351,2.342-0.2792,4.066-0.6122,5.172-0.999,0.0107-0.3974,0.0161-0.6499,0.0161-0.7573-0.00001-1.182-0.2739-2.014-0.8218-2.498-0.7412-0.6552-1.842-0.9829-3.303-0.9829-1.364,0-2.371,0.2391-3.021,0.7171-0.6499,0.478-1.131,1.324-1.442,2.538l-2.836-0.3867c0.2578-1.214,0.6821-2.194,1.273-2.941,0.5908-0.7465,1.445-1.321,2.562-1.724,1.117-0.4028,2.412-0.6042,3.883-0.6042,1.461,0,2.648,0.1718,3.561,0.5156,0.9131,0.3437,1.584,0.7761,2.014,1.297,0.4297,0.521,0.7305,1.179,0.9024,1.974,0.0967,0.4941,0.145,1.386,0.145,2.675v3.867c-0.00002,2.696,0.0618,4.402,0.1853,5.116,0.1235,0.7144,0.3679,1.399,0.7332,2.054h-3.029c-0.3008-0.6016-0.4942-1.305-0.5801-2.111zm-0.2417-6.478c-1.053,0.4297-2.632,0.7949-4.737,1.096-1.192,0.1719-2.036,0.3652-2.53,0.5801-0.4942,0.2148-0.8755,0.529-1.144,0.9426-0.2686,0.4136-0.4028,0.8728-0.4028,1.378,0,0.7734,0.2927,1.418,0.8782,1.934,0.5854,0.5156,1.442,0.7734,2.57,0.7734,1.117,0,2.111-0.2444,2.981-0.7331,0.8701-0.4888,1.509-1.158,1.917-2.006,0.3115-0.6553,0.4673-1.622,0.4673-2.9z"/>
<path style="text-align:center;" d="m317.6,1022,0-23.62,2.9,0,0,23.62z"/>
</g>
<g style="letter-spacing:0px;word-spacing:0px;" font-weight="normal" transform="translate(1047.1621,-242.6696)" font-size="40px" font-style="normal" font-family="Sans" line-height="125%" fill="#000">
<path style="text-align:center;" d="m195.7,1022v-2.159c-1.041,1.778-3.146,2.711-5.166,2.536-2.825-0.1043-5.315-2.17-6.261-4.783-1.012-2.715-0.9472-5.804,0.0289-8.52,0.7719-2.284,2.811-4.085,5.204-4.464,2.11-0.4188,4.45,0.2698,5.805,1.988,0.3455,0.5868,0.1421-0.4345,0.1964-0.704v-7.516h2.884v23.62h-2.691zm-9.168-8.54c-0.0241,2.067,0.4396,4.403,2.205,5.701,1.608,1.312,4.172,1.041,5.514-0.5259,1.56-1.703,1.588-4.21,1.433-6.381-0.1306-1.868-0.874-3.879-2.593-4.832-1.707-0.9933-4.077-0.5311-5.262,1.059-1.105,1.392-1.277,3.266-1.297,4.979z"/>
</g>
<path d="m969.7,641.4-0.75,0.6562,108.2,122.8,0.75-0.6562-108.2-122.8z" style="baseline-shift:baseline;block-progression:tb;color:#000000;direction:ltr;text-indent:0;text-align:start;enable-background:accumulate;text-transform:none;" fill="#000"/>
<path d="m1081,768-7.577-2.545,6.001-5.291,1.576,7.836z" fill-rule="evenodd" stroke="#000" stroke-width="0.8pt"/>
<path d="m1102,884.7-0.5937,0.7812,93,73.78,0.625-0.7812-93.03-73.78z" style="baseline-shift:baseline;block-progression:tb;color:#000000;direction:ltr;text-indent:0;text-align:start;enable-background:accumulate;text-transform:none;" fill="#000"/>
<path d="m1098,882.3,7.907,1.166-4.971,6.268-2.936-7.434z" fill-rule="evenodd" stroke="#000" stroke-width="0.8pt"/>
<path style="baseline-shift:baseline;block-progression:tb;color:#000000;direction:ltr;text-indent:0;text-align:start;enable-background:accumulate;text-transform:none;" fill="#000" d="M487.4,862.1,487,863l127.3,59.25,0.4062-0.9062-127.3-59.25z"/>
<path d="m618.7,923.8-7.962,0.7062,3.376-7.253,4.586,6.547z" fill-rule="evenodd" stroke="#000" stroke-width="0.8pt"/>
<path d="m881.8,915.5-0.9062,0.375,73.91,178.2,0.9062-0.4063l-73.9-178.5z" style="baseline-shift:baseline;block-progression:tb;color:#000000;direction:ltr;text-indent:0;text-align:start;enable-background:accumulate;text-transform:none;" fill="#000"/>
<path d="m879.9,912.1c2.039-0.846,4.381,0.1226,5.227,2.162s-0.1226,4.381-2.162,5.227-4.381-0.1226-5.227-2.162,0.1226-4.381,2.162-5.227z" fill-rule="evenodd" stroke="#000" stroke-width="0.8pt"/>
</g>
<path d="m266.9,850.5,0,2,0,128.6,4,0,0-126.6,677.1,0,0.1562,27.31,4-0.0312-0.1562-29.28,0-2-2,0-681.1,0-2,0z" style="baseline-shift:baseline;block-progression:tb;color:#000000;direction:ltr;text-indent:0;text-align:start;enable-background:accumulate;text-transform:none;" fill="#000"/>
<path d="m950.1,885.7c-2.208,0.0112-4.009-1.772-4.02-3.98-0.0112-2.208,1.772-4.009,3.98-4.02,2.208-0.0111,4.009,1.772,4.02,3.98,0.0111,2.208-1.772,4.009-3.98,4.02z" fill-rule="evenodd" stroke="#000" stroke-width="0.8pt"/>
<path stroke-linejoin="miter" style="marker-end:none;" d="m269.5,1055,0,96.18,681.1,0,0.1478-72.49" stroke="#000" stroke-linecap="butt" stroke-miterlimit="4" stroke-dasharray="none" stroke-width="4" fill="none"/>
<path stroke-linejoin="miter" d="m1340,836.9-98.57,0.9002" stroke="#000" stroke-linecap="butt" stroke-width="1px" fill="none"/>
<path stroke-linejoin="miter" d="m1340,909.3-98.57,0.9002" stroke="#000" stroke-linecap="butt" stroke-width="1px" fill="none"/>
<g transform="translate(-19.211238,640.37047)">
<path d="m1311,282.2,0,35.53,1,0,0-35.53-1,0z" style="baseline-shift:baseline;block-progression:tb;color:#000000;direction:ltr;text-indent:0;text-align:start;enable-background:accumulate;text-transform:none;" fill="#000"/>
<path d="m1311,270.9,5.013,14.35-9.913,0.2251z" fill-rule="evenodd" stroke="#000" stroke-width="0.8pt"/>
</g>
<g transform="matrix(1,0,0,-1,-19.155013,1104.6024)">
<path d="m1311,282.2,0,35.53,1,0,0-35.53-1,0z" style="baseline-shift:baseline;block-progression:tb;color:#000000;direction:ltr;text-indent:0;text-align:start;enable-background:accumulate;text-transform:none;" fill="#000"/>
<path d="m1311,270.9,5.013,14.35-9.913,0.2251z" fill-rule="evenodd" stroke="#000" stroke-width="0.8pt"/>
</g>
</g>
</svg>
