<!-- Created with Inkscape (http://www.inkscape.org/) -->
<svg xmlns:rdf="http://www.w3.org/1999/02/22-rdf-syntax-ns#" xmlns="http://www.w3.org/2000/svg" viewBox="0 0 465.69 324.51" height="100%" width="100%" version="1.1" xmlns:cc="http://creativecommons.org/ns#" xmlns:dc="http://purl.org/dc/elements/1.1/">
<metadata>
<rdf:RDF>
<cc:Work rdf:about="">
<dc:format>image/svg+xml</dc:format>
<dc:type rdf:resource="http://purl.org/dc/dcmitype/StillImage"/>
<dc:title/>
</cc:Work>
</rdf:RDF>
</metadata>
<path stroke-linejoin="round" d="m161.8,183.4,0,91.5" stroke-dashoffset="0" stroke="#948a54" stroke-linecap="butt" stroke-miterlimit="10" stroke-dasharray="5.625, 1.875" stroke-width="1.875" fill="none"/>
<path stroke-linejoin="round" d="m98.84,182.9,62.96,0" stroke-dashoffset="0" stroke="#948a54" stroke-linecap="butt" stroke-miterlimit="10" stroke-dasharray="5.625, 1.875" stroke-width="1.875" fill="none"/>
<path stroke-linejoin="round" d="m223.3,229.1,0,47.16" stroke-dashoffset="0" stroke="#948a54" stroke-linecap="butt" stroke-miterlimit="10" stroke-dasharray="5.625, 1.875" stroke-width="1.875" fill="none"/>
<path stroke-linejoin="round" d="m285.5,256,0,20.25" stroke-dashoffset="0" stroke="#948a54" stroke-linecap="butt" stroke-miterlimit="10" stroke-dasharray="5.625, 1.875" stroke-width="1.875" fill="none"/>
<path stroke-linejoin="round" d="m347.5,272.2,0,8.6" stroke="#4a7ebb" stroke-linecap="butt" stroke-miterlimit="10" stroke-dasharray="none" stroke-width="0.9375" fill="none"/>
<path stroke-linejoin="round" d="m98.84,229.6,124.7,0" stroke-dashoffset="0" stroke="#948a54" stroke-linecap="butt" stroke-miterlimit="10" stroke-dasharray="5.625, 1.875" stroke-width="1.875" fill="none"/>
<path stroke-linejoin="round" d="m99.49,256.1,186.3-0.0375" stroke-dashoffset="0" stroke="#948a54" stroke-linecap="butt" stroke-miterlimit="10" stroke-dasharray="5.625, 1.875" stroke-width="1.875" fill="none"/>
<path stroke-linejoin="round" d="m99.07,270,248.9,0" stroke-dashoffset="0" stroke="#948a54" stroke-linecap="butt" stroke-miterlimit="10" stroke-dasharray="5.625, 1.875" stroke-width="1.875" fill="none"/>
<path stroke-linejoin="round" d="m409.8,270.4,0,13.01" stroke="#000" stroke-linecap="butt" stroke-miterlimit="10" stroke-dasharray="none" stroke-width="1.875" fill="none"/>
<path stroke-linejoin="round" d="m347.8,270.3,0,13.01" stroke="#000" stroke-linecap="butt" stroke-miterlimit="10" stroke-dasharray="none" stroke-width="1.875" fill="none"/>
<path stroke-linejoin="round" d="m285.5,270.2,0,13.02" stroke="#000" stroke-linecap="butt" stroke-miterlimit="10" stroke-dasharray="none" stroke-width="1.875" fill="none"/>
<path stroke-linejoin="round" d="m223.4,270.4,0,13.01" stroke="#000" stroke-linecap="butt" stroke-miterlimit="10" stroke-dasharray="none" stroke-width="1.875" fill="none"/>
<path stroke-linejoin="round" d="m161.8,270.4,0,13.01" stroke="#000" stroke-linecap="butt" stroke-miterlimit="10" stroke-dasharray="none" stroke-width="1.875" fill="none"/>
<path fill-rule="nonzero" fill="#000" d="m160.2,298.2c0.1038,0.5084-0.3401,0.7033-0.7524,0.6226h-5.766c-0.5018-0.145-0.479-1.347,0.1538-1.263h2.318v-9.009c-0.8176,0.4745-1.615,0.9883-2.446,1.437-0.6136,0.1264-0.5266-1.13-0.0392-1.298,0.9093-0.5743,1.804-1.174,2.723-1.732,0.4072-0.0529,1.396-0.2777,1.337,0.384v10.22c0.7375,0.007,1.477-0.0136,2.213,0.0103,0.2472,0.0884,0.2502,0.4149,0.2588,0.6307z"/>
<path fill-rule="nonzero" fill="#000" d="m168.3,290.8c0.1167,0.5315-0.3407,0.7155-0.7634,0.6317h-2.386c-0.0866,1.753-0.2046,3.532,0.0958,5.27,0.0394,0.7627,0.7972,1.179,1.49,0.9309,0.8281-0.5911,0.9211,0.9244,0.3553,1.164-0.811,0.2429-1.783,0.3216-2.531-0.1418-0.8388-0.6641-0.8906-1.84-0.9782-2.825-0.0807-1.466,0.002-2.936,0.1038-4.399-0.746-0.006-1.494,0.0126-2.239-0.009-0.3577-0.2515-0.3878-1.341,0.2227-1.272,2.132,0.006,4.265-0.0122,6.396,0.009,0.2243,0.109,0.226,0.4261,0.235,0.641z"/>
<path fill-rule="nonzero" fill="#000" d="m222.6,298.1c0.1194,0.545-0.3358,0.7708-0.7825,0.6786-2.081-0.005-4.162,0.0107-6.243-0.008-0.6795-0.2428-0.4453-1.353,0.0187-1.737,1.138-1.238,2.354-2.408,3.401-3.725,0.8346-1.089,1.563-2.487,1.196-3.891-0.2406-0.91-1.234-1.407-2.127-1.276-0.8372,0.0559-1.578,0.5003-2.266,0.9416-0.6748,0.0154-0.5113-1.39,0.0982-1.561,1.422-0.8643,3.355-1.121,4.834-0.2536,1.163,0.678,1.497,2.153,1.273,3.401-0.2403,1.741-1.484,3.108-2.617,4.362-0.7674,0.8038-1.537,1.605-2.306,2.408,1.745,0.007,3.491-0.0138,5.235,0.0103,0.2632,0.0873,0.2829,0.4192,0.2854,0.6498z"/>
<path fill-rule="nonzero" fill="#000" d="m230.7,290.7c0.1186,0.5406-0.3505,0.7153-0.7761,0.6327h-2.378c-0.0868,1.756-0.2046,3.538,0.096,5.279,0.0394,0.7639,0.7984,1.181,1.492,0.9325,0.8846-0.6287,0.9507,1.139,0.2138,1.214-0.8423,0.1959-1.894,0.2844-2.58-0.3472-0.7554-0.8528-0.7472-2.078-0.8155-3.155-0.0369-1.309,0.0329-2.618,0.126-3.923-0.7472-0.006-1.496,0.0127-2.242-0.009-0.3798-0.2677-0.3816-1.39,0.2664-1.274,2.121,0.006,4.243-0.0122,6.363,0.009,0.2269,0.1098,0.2241,0.4285,0.2351,0.642z"/>
<path fill-rule="nonzero" fill="#000" d="m286.7,296.4c0.041,1.244-0.6393,2.5-1.774,3.048-1.43,0.6948-3.14,0.6435-4.617,0.1213-0.4525-0.1713-1.068-0.3992-1.026-0.9919-0.1231-0.4362,0.1172-1.166,0.6273-0.6574,1.119,0.6259,2.504,0.9969,3.753,0.5447,0.8854-0.2948,1.392-1.262,1.267-2.164-0.0651-0.9399-0.8887-1.633-1.765-1.824-0.78-0.2089-1.592-0.1075-2.387-0.1448-0.4292-0.1868-0.4513-1.149,0.063-1.237,0.8978-0.0137,1.866,0.1022,2.663-0.4038,1.086-0.6268,1.327-2.377,0.3591-3.21-0.8161-0.6178-1.963-0.478-2.83-0.0446-0.4726,0.0959-0.8537,0.714-1.332,0.5804-0.1718-0.4617-0.1844-1.158,0.3156-1.432,1.26-0.8251,2.912-1.047,4.343-0.58,0.933,0.2983,1.642,1.152,1.751,2.127,0.1721,1.1-0.1633,2.363-1.132,3.002-0.306,0.2342-0.7132,0.3443-1.053,0.4469,1.256,0.1008,2.491,0.9959,2.723,2.279,0.0351,0.1781,0.0514,0.36,0.0516,0.5413z"/>
<path fill-rule="nonzero" fill="#000" d="m294.9,291.7c0.0382,0.2945-0.0965,0.7134-0.4607,0.6317h-2.689c-0.0911,1.617-0.1651,3.246,0.0222,4.859,0.0842,0.4776,0.1527,1.09,0.6429,1.328,0.4484,0.1559,0.9286,0.0164,1.366-0.1112,0.394,0.0917,0.2228,0.7211,0.1819,1.034-0.1696,0.363-0.6534,0.3435-0.9951,0.4159-0.7315,0.0711-1.611,0.0412-2.108-0.5846-0.555-0.7352-0.6097-1.704-0.6816-2.589-0.0757-1.451,0.006-2.905,0.1065-4.352-0.746-0.006-1.494,0.0124-2.239-0.009-0.3433-0.2325-0.2508-0.7684-0.1508-1.117,0.1151-0.2434,0.4142-0.1289,0.6274-0.1556h6.074c0.2931,0.03,0.2899,0.4321,0.3024,0.65z"/>
<path fill-rule="nonzero" fill="#000" d="m348.3,296.9c0.1063,0.5354-0.3589,0.7369-0.7904,0.65h-0.8942c-0.006,0.8524,0.0121,1.706-0.009,2.558-0.3408,0.2974-1.343,0.3943-1.52-0.1077v-2.45c-1.663-0.005-3.327,0.009-4.99-0.007-0.569-0.3182-0.3242-1.283-0.0508-1.765,1.408-2.376,2.817-4.751,4.225-7.127,0.5554-0.454,1.394-0.2755,2.06-0.2014,0.4291,0.0687,0.2444,0.5443,0.2838,0.8415v6.959c0.47,0.007,0.9419-0.0134,1.411,0.01,0.2522,0.0894,0.2692,0.4168,0.2739,0.6399zm-3.214-7.15c-0.5165,0.799-0.9941,1.666-1.496,2.492-0.7923,1.336-1.585,2.672-2.377,4.009h3.873v-6.5z"/>
<path fill-rule="nonzero" fill="#000" d="m355.9,292.2c0.1238,0.5679-0.3942,0.7024-0.8251,0.6317h-2.324c-0.0872,1.753-0.2044,3.532,0.0958,5.271,0.039,0.8414,0.923,1.193,1.634,0.8909,0.8183-0.4443,0.7235,1.336-0.0127,1.274-0.8874,0.1896-2.057,0.254-2.661-0.5642-0.6742-1.059-0.6153-2.383-0.6586-3.591,0.002-1.095,0.0557-2.189,0.137-3.28-0.746-0.006-1.494,0.0125-2.239-0.009-0.3806-0.2687-0.38-1.392,0.2701-1.272,2.116,0.006,4.233-0.0122,6.348,0.009,0.2267,0.1094,0.2234,0.4282,0.235,0.6409z"/>
<path fill-rule="nonzero" fill="#000" d="m409.6,296c0.0549,1.428-0.7212,2.885-2.047,3.484-1.575,0.7286-3.467,0.6311-5.042-0.0477-0.714-0.2551-0.4748-2.061,0.3838-1.253,1.217,0.5634,2.726,0.7375,3.949,0.105,1.133-0.6481,1.362-2.252,0.8102-3.353-0.6101-1.021-1.941-1.106-3.011-1.084-0.6004-0.0731-1.364,0.3534-1.857-0.0859-0.1212-0.6549-0.0365-1.335-0.0618-2.002,0.006-1.116-0.0116-2.233,0.009-3.349,0.048-0.547,0.6616-0.4493,1.053-0.4538,1.601,0.007,3.205-0.0137,4.805,0.0103,0.4249,0.2469,0.4317,1.385-0.1903,1.363h-4.304v3.323c1.465-0.1322,3.107-0.1712,4.341,0.7575,0.7964,0.5988,1.175,1.609,1.161,2.584z"/>
<path fill-rule="nonzero" fill="#000" d="m417.7,291.7c0.1185,0.5403-0.3506,0.7141-0.7756,0.6317h-2.374c-0.0867,1.753-0.2044,3.532,0.0958,5.271,0.0393,0.7627,0.7971,1.179,1.49,0.931,0.883-0.6277,0.9491,1.138,0.2133,1.212-0.8409,0.1955-1.89,0.284-2.576-0.3466-0.7542-0.8514-0.746-2.075-0.8142-3.15-0.0368-1.307,0.0329-2.614,0.1258-3.917-0.746-0.006-1.494,0.0124-2.239-0.009-0.3792-0.2674-0.3809-1.389,0.2662-1.272,2.117,0.006,4.236-0.0122,6.352,0.009,0.2267,0.1094,0.2237,0.428,0.235,0.6409z"/>
<path stroke-linejoin="round" d="m423.6,276.5c-10.76,0.7375-37.64-1.825-70.76-5.512-66.88-11.19-89.31-20.8-121-35.44-31.71-14.64-52.66-35.74-69.28-52.38-15.2-16.18-36.79-63.45-47.25-91.21-10.48-27.76-16.56-53.79-15.56-75.35" stroke="#376092" stroke-linecap="butt" stroke-miterlimit="10" stroke-dasharray="none" stroke-width="3.75" fill="none"/>
<path d="m458.7,278.1-359.6-0.5,0-2.812,359.6,0.5,0,2.812zm-1.4-5.625,8.438,4.238-8.45,4.2,0.0125-8.438z" fill-rule="nonzero" fill="#000"/>
<path d="m97.66,16.03-0.225,260.2,2.812,0.0125,0.225-260.2-2.812-0.0125zm5.625,1.412-4.212-8.438-4.225,8.438,8.437,0z" fill-rule="nonzero" fill="#000"/>
<path stroke-linejoin="round" d="m98.41,264.5,0,13.02" stroke="#000" stroke-linecap="butt" stroke-miterlimit="10" stroke-dasharray="none" stroke-width="1.875" fill="none"/>
<path fill-rule="nonzero" fill="#000" d="m59.39,185.2c0.07408,1.324-0.9558,2.521-2.248,2.736-1.175,0.2376-2.484,0.1166-3.513-0.5312-0.4655-0.5593-0.07899-1.594,0.6312-0.832,1.053,0.5219,2.621,0.7523,3.443-0.2877,0.6823-0.956,0.07746-2.414-1.086-2.608-0.6571-0.2057-1.353-0.072-2.022-0.1501-0.5149-0.516,0.01342-1.177,0.6402-0.9704,0.9636,0.0873,2.151-0.3115,2.331-1.389,0.3053-1.042-0.6751-2.045-1.725-1.826-0.7732-0.0835-1.435,0.8099-2.081,0.7062-0.4037-1.186,1.111-1.585,1.976-1.72,1.175-0.1796,2.698,0.1818,3.087,1.455,0.4427,1.265-0.2167,2.947-1.654,3.147,1.137,0.1183,2.259,1.027,2.219,2.27z"/>
<path fill-rule="nonzero" fill="#000" d="m67.24,179c-0.05668,0.8946-0.584,1.666-0.8911,2.493-0.8968,2.067-1.794,4.134-2.69,6.201-0.2988,0.5229-1.877,0.4067-1.232-0.3805,1.153-2.583,2.306-5.166,3.458-7.749h-4.548c-0.5945-0.3282-0.2308-1.371,0.4806-1.106,1.74,0.0144,3.484-0.029,5.221,0.022,0.2039,0.0671,0.192,0.3475,0.2014,0.5201z"/>
<path fill-rule="nonzero" fill="#000" d="m72.59,180.8c0.05451,1.034-0.4402,2.274-1.579,2.459-0.9615,0.2273-2.135-0.2287-2.356-1.274-0.2921-1.184-0.2427-2.812,0.9877-3.448,1.054-0.503,2.591-0.0483,2.827,1.208,0.08591,0.3444,0.1207,0.7004,0.1212,1.055zm-1.025,0.0366c0.125-0.8082-0.3722-2.009-1.373-1.627-0.8366,0.4468-0.6651,1.612-0.5791,2.407-0.0033,0.8941,1.345,1.223,1.743,0.4394,0.1906-0.3746,0.2016-0.8083,0.2087-1.219zm6.621,4.71c0.05452,1.034-0.4402,2.274-1.579,2.459-0.9615,0.2273-2.135-0.2287-2.356-1.274-0.2921-1.184-0.2427-2.812,0.9877-3.448,1.054-0.503,2.591-0.0483,2.827,1.208,0.08591,0.3443,0.1207,0.7004,0.1212,1.055zm-1.025,0.0366c0.1249-0.8082-0.3722-2.009-1.373-1.627-0.8366,0.4468-0.665,1.612-0.579,2.407-0.0033,0.8941,1.345,1.223,1.743,0.4394,0.1905-0.3746,0.2016-0.8083,0.2087-1.219zm-6.643,2.417c-0.5095,0.5331-1.477,0.0481-0.7515-0.526,2.116-3.03,4.232-6.06,6.347-9.091,0.5078-0.5337,1.486-0.0511,0.7587,0.5257-2.118,3.03-4.236,6.061-6.354,9.091z"/>
<path fill-rule="nonzero" fill="#000" d="m46.02,235.4c0.04186,0.7928-0.8905,0.4082-1.373,0.498-1.311-0.017-2.631,0.034-3.937-0.0256-0.6204-0.8299,0.3173-1.145,0.9828-0.9851,0.3517-0.1102,1.194,0.2702,1.09-0.2958v-6.911c-0.6886,0.3853-1.338,0.8508-2.054,1.179-0.6991-0.5653,0.1757-1.236,0.7363-1.497,0.7437-0.3739,1.367-1.187,2.285-0.9935,0.5592,0.138,0.1838,0.933,0.293,1.374v7.144c0.6062,0.0228,1.226-0.0451,1.824,0.033,0.1494,0.1077,0.1442,0.3196,0.1539,0.48z"/>
<path fill-rule="nonzero" fill="#000" d="m53.53,233.2c0.1058,1.621-1.418,2.842-2.951,2.836-0.9892-0.0371-2.922,0.0374-2.989-1.298,0.1527-1.103,1.564,0.5817,2.327,0.2637,1.199,0.2386,2.524-0.7886,2.167-2.067-0.3195-1.321-1.869-1.441-2.999-1.382-0.9034,0.1012-0.5517-1.378,0.2752-0.996,1.03,0.1208,2.312-0.3991,2.374-1.576,0.2499-1.586-1.743-2.045-2.813-1.316-0.7031,0.8491-1.493,0.2411-0.8801-0.6054,1.278-0.941,3.355-1.146,4.543,0.0405,1.06,1.253,0.423,3.588-1.273,3.845,1.159,0.082,2.257,1.041,2.219,2.256z"/>
<path fill-rule="nonzero" fill="#000" d="m57.2,235.1c0.0806,1.665-2.496,0.6138-1.403-0.6702,0.5477-0.3773,1.578-0.1819,1.403,0.6702z"/>
<path fill-rule="nonzero" fill="#000" d="m65.01,232.8c0.1106,1.598-1.214,3.003-2.782,3.133-1.016,0.0317-3.024,0.2408-3.202-1.068,0.1234-1.163,1.623,0.5012,2.41,0.0806,1.451,0.1945,2.653-1.265,2.161-2.65-0.4219-1.344-2.122-1.291-3.264-1.154-1.028,0.3525-0.8095-0.7895-0.8231-1.398,0.01814-1.036-0.03682-2.076,0.02838-3.109,0.3504-0.4786,1.069-0.1831,1.594-0.2655,1.041,0.0218,2.094-0.0438,3.127,0.033,0.6149,0.8474-0.2853,1.249-1.001,1.066h-2.65v2.659c1.502-0.1762,3.511-0.0687,4.193,1.553,0.1469,0.3535,0.2093,0.7402,0.2087,1.12z"/>
<path fill-rule="nonzero" fill="#000" d="m70.5,228.8c0.2259,1.546-1.251,2.989-2.788,2.41-1.496-0.5172-1.503-2.553-1.018-3.793,0.6675-1.616,3.487-1.359,3.711,0.4376,0.06619,0.3102,0.09522,0.6278,0.09522,0.9448zm-1.025,0.0366c0.453-1.379-1.681-2.506-1.963-0.7654-0.4906,1.131,0.4942,3.39,1.754,1.985,0.1896-0.3756,0.2022-0.8081,0.2087-1.219zm6.621,4.71c0.2259,1.546-1.251,2.989-2.788,2.41-1.496-0.5172-1.503-2.553-1.018-3.793,0.6675-1.616,3.487-1.359,3.711,0.4376,0.06619,0.3102,0.09522,0.6279,0.09522,0.9448zm-1.025,0.0366c0.4531-1.379-1.681-2.506-1.963-0.7654-0.4906,1.131,0.4942,3.39,1.754,1.985,0.1896-0.3756,0.2022-0.8081,0.2087-1.219zm-6.643,2.417c-0.784,0.6389-1.361-0.1543-0.615-0.7216,2.104-2.995,4.175-6.015,6.299-8.994,0.9904-0.4848,1.115,0.3577,0.4918,0.8808-2.058,2.945-4.117,5.89-6.175,8.835z"/>
<path fill-rule="nonzero" fill="#000" d="m66.22,258c0.05662,1.259-0.7241,2.515-1.939,2.918-1.226,0.4338-2.629,0.3379-3.804-0.2057-0.5273-0.3681-0.2161-1.636,0.4892-0.9147,1.002,0.4231,2.268,0.5534,3.211-0.0744,0.8285-0.6306,0.9504-1.987,0.328-2.797-0.7154-0.7397-1.857-0.6823-2.805-0.6034-0.6022,0.2409-1.132-0.0999-0.9814-0.735,0.0047-1.218-0.0094-2.437,0.0071-3.656,0.06411-0.494,0.6392-0.3375,0.9879-0.363h3.641c0.4993,0.184,0.3514,1.286-0.2778,1.099h-3.26v2.659c1.288-0.117,2.808-0.1391,3.769,0.8795,0.4438,0.4818,0.6374,1.149,0.6331,1.794z"/>
<path fill-rule="nonzero" fill="#000" d="m71.76,253.9c0.036,0.9577-0.3462,2.103-1.358,2.402-0.9245,0.2991-2.167,0.003-2.505-1.005-0.3268-1.01-0.3461-2.235,0.274-3.14,0.8178-1.082,2.857-0.9397,3.364,0.38,0.1759,0.43,0.22,0.9027,0.2252,1.363zm-1.025,0.0366c0.0049-0.6413-0.09122-1.599-0.8945-1.678-0.8171-0.1444-1.153,0.7665-1.123,1.428,0.01059,0.6232-0.05154,1.483,0.586,1.828,0.7641,0.3635,1.481-0.351,1.413-1.12,0.01337-0.1525,0.01857-0.3056,0.01861-0.4586zm6.621,4.71c0.036,0.9577-0.3462,2.103-1.358,2.402-0.9245,0.2991-2.167,0.003-2.505-1.005-0.3268-1.01-0.3461-2.235,0.274-3.14,0.8178-1.082,2.857-0.9397,3.364,0.38,0.1759,0.43,0.2199,0.9027,0.2252,1.363zm-1.025,0.0366c0.0049-0.6413-0.09121-1.599-0.8945-1.678-0.8171-0.1444-1.153,0.7665-1.123,1.428,0.01058,0.6232-0.05154,1.483,0.586,1.828,0.7641,0.3635,1.481-0.351,1.413-1.12,0.01337-0.1525,0.01858-0.3056,0.0186-0.4586zm-6.643,2.417c-0.279,0.407-1.478,0.2354-0.8825-0.3384,2.159-3.093,4.319-6.185,6.478-9.278,0.2792-0.4075,1.486-0.2376,0.8898,0.3383-2.162,3.093-4.324,6.186-6.485,9.278z"/>
<path fill-rule="nonzero" fill="#000" d="m66.96,277.4c0.1124,0.5197-0.3753,0.5944-0.7522,0.542-1.62-0.004-3.24,0.009-4.859-0.007-0.5832-0.2163-0.3327-1.148,0.08003-1.456,0.9884-1.091,2.091-2.089,2.933-3.303,0.5923-0.8597,1.045-2.049,0.5246-3.046-0.5474-0.9034-1.8-0.8079-2.617-0.3676-0.4795,0.4404-1.289,0.6698-1.058-0.287,0.1888-0.6834,1.059-0.8414,1.657-1.039,1.215-0.3023,2.786-0.0358,3.397,1.182,0.5714,1.256,0.1684,2.754-0.6243,3.823-0.8938,1.26-2.043,2.304-3.089,3.432h4.124c0.2591,0.019,0.2859,0.3322,0.2858,0.5272z"/>
<path fill-rule="nonzero" fill="#000" d="m72.44,270.8c0.036,0.9577-0.3462,2.103-1.358,2.402-0.9245,0.2991-2.167,0.003-2.505-1.005-0.3268-1.01-0.3461-2.235,0.274-3.14,0.8178-1.082,2.857-0.9397,3.364,0.38,0.1759,0.43,0.22,0.9027,0.2252,1.363zm-1.025,0.0366c0.0049-0.6413-0.09122-1.599-0.8945-1.678-0.8171-0.1444-1.153,0.7665-1.123,1.428,0.01059,0.6232-0.05155,1.483,0.586,1.828,0.7641,0.3635,1.481-0.351,1.413-1.12,0.01337-0.1525,0.01857-0.3056,0.01861-0.4586zm6.621,4.71c0.036,0.9577-0.3462,2.103-1.358,2.402-0.9245,0.2991-2.167,0.003-2.505-1.005-0.3268-1.01-0.3461-2.235,0.274-3.14,0.8178-1.082,2.857-0.9397,3.364,0.38,0.1759,0.43,0.2199,0.9027,0.2252,1.363zm-1.025,0.0366c0.0049-0.6413-0.09121-1.599-0.8945-1.678-0.8171-0.1444-1.153,0.7665-1.123,1.428,0.01058,0.6232-0.05154,1.483,0.586,1.828,0.7641,0.3635,1.481-0.351,1.413-1.12,0.01337-0.1525,0.01858-0.3056,0.0186-0.4586zm-6.643,2.417c-0.2783,0.4065-1.478,0.236-0.8831-0.3376,2.16-3.093,4.319-6.186,6.479-9.279,0.2786-0.407,1.485-0.2383,0.8903,0.3375-2.162,3.093-4.324,6.186-6.486,9.279z"/>
<path d="m80.16,181.2,15.84,0,0,1.25-15.84,0,0-1.25zm8.65-4.288,8.425,4.912-8.425,4.912c-0.3,0.175-0.675,0.075-0.85-0.225s-0.075-0.675,0.225-0.85l7.5-4.375v1.075l-7.5-4.375c-0.3-0.175-0.4-0.55-0.225-0.85s0.55-0.4,0.85-0.225z" fill-rule="nonzero" fill="#000"/>
<path d="m78.7,229.9,15.85,0,0,1.25-15.85,0,0-1.25zm8.662-4.288,8.425,4.912-8.425,4.925c-0.3,0.175-0.6875,0.075-0.8625-0.225-0.1625-0.3-0.0625-0.6875,0.225-0.8625l7.5-4.375v1.088l-7.5-4.375c-0.2875-0.175-0.3875-0.5625-0.225-0.8625,0.175-0.3,0.5625-0.4,0.8625-0.225z" fill-rule="nonzero" fill="#000"/>
<path d="m79.54,255.5,15.84,0,0,1.25-15.84,0,0-1.25zm8.65-4.288,8.425,4.912-8.425,4.912c-0.3,0.175-0.675,0.075-0.85-0.225-0.175-0.2875-0.075-0.675,0.225-0.85l7.5-4.375v1.075l-7.5-4.375c-0.3-0.1625-0.4-0.55-0.225-0.85s0.55-0.4,0.85-0.225z" fill-rule="nonzero" fill="#000"/>
<path d="m79.33,271.1,15.85,0,0,1.25-15.85,0,0-1.25zm8.662-4.288,8.425,4.912-8.425,4.912c-0.3,0.175-0.6875,0.075-0.8625-0.225-0.1625-0.2875-0.0625-0.675,0.225-0.85l7.5-4.375v1.075l-7.5-4.375c-0.2875-0.1625-0.3875-0.55-0.225-0.85,0.175-0.3,0.5625-0.4,0.8625-0.225z" fill-rule="nonzero" fill="#000"/>
<path fill-rule="nonzero" fill="#000" d="m180.5,315.4c0.1131,0.7652-0.7311,0.4717-1.18,0.5273h-1.735v8.218c-0.4151,0.5122-1.56,0.2549-1.26-0.5583v-7.659c-0.9228-0.019-1.856,0.0383-2.772-0.0293-0.5211-0.7488,0.1596-1.23,0.8506-1.04h5.847c0.2615,0.0109,0.2377,0.3685,0.249,0.542z"/>
<path fill-rule="nonzero" fill="#000" d="m183,324.2c-0.415,0.5129-1.504,0.2312-1.208-0.5583v-6.033c0.4093-0.5134,1.504-0.2296,1.208,0.5583v6.033zm0.1392-8.818c0.1014,1.31-2.207,0.7139-1.404-0.4701,0.3808-0.4578,1.572-0.3386,1.404,0.4701z"/>
<path fill-rule="nonzero" fill="#000" d="m195,324.2c-0.4124,0.5117-1.512,0.2325-1.216-0.5583-0.0319-1.403,0.0735-2.815-0.0732-4.21-0.0924-1.147-1.611-1.459-2.285-0.6038-0.5481,0.3829-0.8307,0.9146-0.7107,1.571-0.0197,1.298,0.0393,2.608-0.0293,3.899-0.6221,0.3752-1.429,0.0595-1.179-0.7193-0.0348-1.382,0.0804-2.775-0.0806-4.148-0.1049-1.145-1.609-1.46-2.29-0.6038-0.5478,0.3822-0.824,0.9169-0.7059,1.571-0.0197,1.298,0.0393,2.608-0.0293,3.899-0.6214,0.3776-1.429,0.059-1.179-0.7193,0.0147-2.023-0.0294-4.052,0.022-6.07,0.6082-0.4058,1.299,0.003,1.069,0.7193,0.0981,0.4959,1.069-1.066,1.739-0.9093,0.9741-0.2088,2.102,0.2784,2.428,1.263,0.7304-0.8922,1.92-1.627,3.096-1.178,1.293,0.4407,1.484,1.947,1.423,3.125-0.00001,1.224-0.00003,2.448-0.00004,3.671z"/>
<path fill-rule="nonzero" fill="#000" d="m202.8,320.6c-0.0257,0.7582-0.9016,0.4715-1.399,0.5274h-3.391c-0.1345,1.196,0.6931,2.487,2.001,2.392,0.8212,0.3352,1.975-0.8087,2.5-0.2501,0.1451,1.316-1.815,1.127-2.679,1.231-1.333,0.0381-2.667-0.8402-2.933-2.19-0.4072-1.661-0.1481-3.883,1.547-4.731,1.412-0.7011,3.515-0.2913,4.096,1.314,0.2136,0.5413,0.2715,1.129,0.2585,1.707zm-1.216-0.3589c0.2185-1.304-1.091-2.451-2.344-1.941-0.7029,0.0826-1.786,1.889-0.8578,1.941,1.067-0.00002,2.135-0.00003,3.202-0.00004z"/>
<path fill-rule="nonzero" fill="#000" d="m209.4,324.2c-0.1837,0.3402-1.027,0.3366-1.208,0v-6.592c0.1852-0.337,1.021-0.3396,1.208,0v6.592zm0.1392-8.818c0.1235,0.6846-0.6754,0.8692-1.181,0.6738-0.4635-0.2355-0.4528-1.196,0.0768-1.353,0.5173-0.1326,1.205-0.0112,1.104,0.6793z"/>
<path fill-rule="nonzero" fill="#000" d="m217.3,324.2c-0.1092,0.3236-0.5654,0.2045-0.8382,0.2187-0.2515,0.0292-0.4244-0.164-0.3703-0.4013-0.003-1.315,0.007-2.631-0.005-3.946-0.0189-0.5928-0.1781-1.289-0.7415-1.597-0.5421-0.2873-1.225-0.1343-1.674,0.2588-0.3131,0.2547-0.61,0.5513-0.8379,0.8778v4.589c-0.1095,0.3235-0.5653,0.2048-0.8386,0.2187-0.2546,0.0301-0.4238-0.1624-0.3698-0.4013v-6.409c0.0973-0.3477,0.5916-0.2003,0.8668-0.2093,0.2355,0.01,0.2371,0.2531,0.2245,0.4283v0.6525c0.58-0.665,1.386-1.239,2.308-1.2,0.7466-0.01,1.514,0.3484,1.886,1.014,0.4706,0.8169,0.3804,1.782,0.3907,2.689,0.00001,1.073,0.00002,2.145,0.00003,3.218z"/>
<path fill-rule="nonzero" fill="#000" d="m224,324.2c-0.1234,0.3384-0.6143,0.2004-0.9009,0.2124-0.2647,0.0219-0.3438-0.2156-0.3076-0.4297v-6.375c0.1229-0.3378,0.6103-0.2037,0.9008-0.2124,0.2591-0.0193,0.345,0.2176,0.3076,0.4297v6.375zm0.1392-8.818c0.0411,0.3503-0.1586,0.742-0.5553,0.7228-0.3208,0.0236-0.8066,0.0375-0.8995-0.3575-0.0572-0.3174-0.0966-0.7288,0.1663-0.9653,0.313-0.163,0.7094-0.1519,1.036-0.0333,0.2322,0.1123,0.2487,0.4079,0.2529,0.6333z"/>
<path fill-rule="nonzero" fill="#000" d="m232,324.2c-0.1092,0.3236-0.5654,0.2045-0.8382,0.2187-0.2516,0.0292-0.4244-0.164-0.3703-0.4013-0.003-1.315,0.007-2.631-0.005-3.946-0.0189-0.5928-0.1781-1.289-0.7415-1.597-0.5421-0.2873-1.225-0.1343-1.674,0.2588-0.3131,0.2547-0.61,0.5513-0.8379,0.8778v4.589c-0.1095,0.3235-0.5653,0.2048-0.8386,0.2187-0.2546,0.0301-0.4238-0.1624-0.3698-0.4013v-6.409c0.0973-0.3477,0.5916-0.2003,0.8668-0.2093,0.2356,0.01,0.2371,0.2531,0.2245,0.4283v0.6525c0.58-0.665,1.386-1.239,2.308-1.2,0.7466-0.01,1.514,0.3483,1.886,1.014,0.4706,0.8169,0.3804,1.782,0.3907,2.689,0,1.073,0.00001,2.145,0.00001,3.218z"/>
<path fill-rule="nonzero" fill="#000" d="m239,323.2c0.0356,0.2993-0.0844,0.6042-0.3582,0.7505-0.9331,0.6289-2.198,0.762-3.232,0.3107-0.7945-0.3471-1.288-1.149-1.471-1.97-0.1958-0.9019-0.1908-1.854,0.0313-2.751,0.2122-0.8225,0.7313-1.603,1.523-1.961,0.9858-0.4434,2.216-0.3901,3.115,0.2311,0.2987,0.1651,0.4039,0.508,0.3624,0.8301,0.0817,0.3771-0.3275,0.5917-0.5549,0.2611-0.5019-0.4151-1.158-0.675-1.816-0.5771-0.626,0.057-1.127,0.553-1.32,1.132-0.2617,0.7668-0.2691,1.605-0.14,2.398,0.1093,0.6332,0.4558,1.305,1.102,1.521,0.5988,0.2072,1.278,0.1023,1.806-0.2401,0.296-0.1103,0.5111-0.5281,0.8421-0.4616,0.124,0.1411,0.0998,0.3533,0.1098,0.5274z"/>
<path fill-rule="nonzero" fill="#000" d="m244.4,318c0.0327,0.241-0.0193,0.7274-0.3691,0.5218-0.3828-0.1486-0.8529-0.23-1.21,0.0293-0.464,0.318-0.7589,0.8136-1.065,1.273v4.336c-0.0791,0.3009-0.4916,0.2055-0.7315,0.2249-0.2087,0.009-0.5363-0.044-0.4769-0.3224v-6.494c0.055-0.3074,0.4661-0.2079,0.6968-0.2241,0.2372-0.0408,0.4506,0.1297,0.3945,0.3703v0.8133c0.3564-0.5021,0.7672-1.044,1.381-1.234,0.4214-0.1027,0.8912-0.062,1.278,0.1355,0.1476,0.1405,0.086,0.3888,0.1022,0.5713z"/>
<path fill-rule="nonzero" fill="#000" d="m251.3,320.6c0.0422,0.3012-0.2269,0.5679-0.5254,0.5274h-4.265c-0.003,0.7284,0.1365,1.568,0.7709,2.021,0.6375,0.4484,1.474,0.4228,2.21,0.2966,0.4467-0.0768,0.8601-0.2681,1.284-0.4163,0.3646,0.0194,0.2408,0.555,0.2073,0.8054-0.1649,0.2899-0.5492,0.3348-0.8387,0.4422-1.034,0.2769-2.178,0.3557-3.186-0.0602-0.7698-0.3139-1.325-1.025-1.535-1.819-0.2449-0.9218-0.255-1.913-0.0185-2.837,0.2284-0.8973,0.8454-1.718,1.722-2.063,0.7639-0.3036,1.641-0.3155,2.42-0.0599,0.8525,0.2906,1.476,1.071,1.646,1.946,0.0949,0.3983,0.1154,0.8084,0.1084,1.216zm-1.216-0.3589c0.029-0.6814-0.1779-1.47-0.8137-1.824-0.6771-0.3492-1.599-0.2861-2.149,0.2712-0.4073,0.4058-0.5889,0.9892-0.6111,1.553,1.191-0.00001,2.383-0.00003,3.574-0.00004z"/>
<path fill-rule="nonzero" fill="#000" d="m262.9,324.2c-0.192,0.3614-0.8082,0.2427-1.147,0.1365-0.1287-0.1542-0.0443-0.3835-0.0687-0.5725-0.006-1.291,0.0129-2.583-0.0103-3.873-0.0255-0.6017-0.2604-1.332-0.9066-1.513-0.5822-0.1932-1.161,0.1437-1.553,0.5547-0.1961,0.2739-0.6385,0.4781-0.5988,0.8547v4.413c-0.1933,0.3586-0.8076,0.2431-1.146,0.1365-0.1189-0.167-0.0387-0.3997-0.0622-0.5967-0.005-1.267,0.01-2.534-0.008-3.8-0.0264-0.6358-0.2863-1.429-0.9892-1.581-0.6579-0.1738-1.243,0.2929-1.657,0.7469-0.1867,0.2278-0.4971,0.4235-0.4218,0.7537v4.34c-0.1915,0.3612-0.8078,0.2431-1.146,0.1365-0.1189-0.167-0.0387-0.3997-0.0622-0.5967,0.004-2.062-0.007-4.124,0.005-6.186,0.2189-0.2488,0.9421-0.2938,1.086,0.054v0.8716c0.584-0.6714,1.4-1.288,2.339-1.195,0.7738,0.0159,1.519,0.4939,1.799,1.225,0.2037,0.015,0.5169-0.5039,0.8034-0.6541,0.5662-0.4793,1.341-0.6962,2.069-0.5214,0.8287,0.1511,1.442,0.8924,1.577,1.703,0.1618,0.8145,0.0794,1.649,0.0997,2.473-0.00001,0.8966-0.00002,1.793-0.00003,2.69z"/>
<path fill-rule="nonzero" fill="#000" d="m270.7,320.6c0.0422,0.3012-0.2269,0.5679-0.5254,0.5274h-4.265c-0.003,0.7284,0.1365,1.568,0.7709,2.021,0.6375,0.4484,1.474,0.4228,2.21,0.2966,0.4467-0.0768,0.8601-0.2681,1.284-0.4163,0.3646,0.0194,0.2408,0.555,0.2073,0.8054-0.1649,0.2899-0.5492,0.3348-0.8387,0.4422-1.034,0.2769-2.178,0.3557-3.186-0.0602-0.7698-0.3139-1.325-1.025-1.535-1.819-0.245-0.9218-0.255-1.913-0.0185-2.837,0.2284-0.8973,0.8454-1.718,1.722-2.063,0.7639-0.3036,1.641-0.3155,2.42-0.0599,0.8525,0.2906,1.476,1.071,1.646,1.946,0.0949,0.3983,0.1155,0.8084,0.1084,1.216zm-1.216-0.3589c0.029-0.6814-0.1779-1.47-0.8137-1.824-0.6771-0.3492-1.599-0.2861-2.149,0.2712-0.4073,0.4058-0.5889,0.9892-0.6111,1.553,1.191-0.00001,2.383-0.00003,3.574-0.00004z"/>
<path fill-rule="nonzero" fill="#000" d="m278.3,324.2c-0.1092,0.3236-0.5654,0.2045-0.8382,0.2187-0.2515,0.0292-0.4244-0.164-0.3703-0.4013-0.003-1.315,0.007-2.631-0.005-3.946-0.019-0.5928-0.1781-1.289-0.7415-1.597-0.5421-0.2873-1.225-0.1343-1.674,0.2588-0.3131,0.2547-0.61,0.5513-0.8379,0.8778v4.589c-0.1095,0.3235-0.5653,0.2048-0.8386,0.2187-0.2546,0.0301-0.4238-0.1624-0.3698-0.4013v-6.409c0.0973-0.3477,0.5916-0.2003,0.8668-0.2093,0.2355,0.01,0.2371,0.2531,0.2245,0.4283v0.6525c0.58-0.665,1.386-1.239,2.308-1.2,0.7466-0.01,1.514,0.3483,1.886,1.014,0.4706,0.8169,0.3804,1.782,0.3907,2.689,0.00001,1.073,0.00002,2.145,0.00003,3.218z"/>
<path fill-rule="nonzero" fill="#000" d="m283.8,323.7c0.0605,0.3663-0.176,0.698-0.5603,0.7141-0.6723,0.14-1.462,0.1267-2.01-0.3401-0.5444-0.5019-0.5749-1.304-0.5722-1.995v-3.675c-0.3248-0.005-0.651,0.009-0.975-0.007-0.2769-0.2035-0.247-0.7209-0.0467-0.9705,0.2655-0.0538,0.5457-0.0128,0.8175-0.0256,0.138,0.0172,0.2546,0.013,0.2042-0.1581,0.004-0.4861-0.009-0.9734,0.007-1.459,0.2032-0.285,0.6429-0.1678,0.9496-0.1617,0.2526,0.005,0.2716,0.2574,0.2522,0.4482v1.33c0.5822,0.004,1.165-0.009,1.747,0.007,0.2741,0.1974,0.2471,0.7202,0.044,0.9675-0.221,0.0607-0.462,0.0152-0.6917,0.0293h-1.099c0.004,1.307-0.009,2.614,0.007,3.921,0.0257,0.4076,0.118,0.9463,0.5706,1.084,0.3781,0.1217,0.7744,0.002,1.125-0.148,0.252-0.0684,0.2153,0.2938,0.2307,0.4386z"/>
<path fill-rule="nonzero" fill="#000" d="m289.6,322.4c0.0247,0.7104-0.3598,1.42-0.9945,1.752-0.8218,0.4372-1.818,0.4516-2.702,0.2108-0.3116-0.1076-0.6721-0.1998-0.8849-0.4688-0.116-0.2832-0.1221-0.631-0.006-0.9146,0.3019-0.1664,0.5775,0.2519,0.8742,0.313,0.6158,0.2845,1.362,0.3696,1.992,0.0849,0.5574-0.2351,0.7238-1.081,0.2647-1.487-0.4973-0.4536-1.188-0.5657-1.772-0.8668-0.6002-0.2571-1.152-0.7596-1.248-1.434-0.1303-0.7081,0.1576-1.491,0.7756-1.883,0.8209-0.5342,1.901-0.5412,2.8-0.2105,0.2595,0.1037,0.5862,0.2562,0.5586,0.5892,0.0532,0.2403-0.0108,0.8316-0.3746,0.5506-0.6161-0.3806-1.411-0.5742-2.105-0.2948-0.5583,0.2151-0.7152,1.049-0.2558,1.441,0.4916,0.4479,1.171,0.5682,1.753,0.8564,0.5543,0.2283,1.091,0.6309,1.258,1.234,0.0489,0.1716,0.0674,0.3508,0.0675,0.5287z"/>
<path d="m300.6,320.8c-0.00001,0.5371-0.0708,1.032-0.2124,1.483-0.1416,0.4517-0.3528,0.8411-0.6336,1.168-0.2808,0.3272-0.6323,0.5823-1.055,0.7654-0.4224,0.1831-0.9119,0.2747-1.468,0.2747-0.542,0-1.014-0.0806-1.417-0.2417-0.4028-0.1611-0.7385-0.3955-1.007-0.7031-0.2686-0.3076-0.4688-0.6812-0.6006-1.121-0.1318-0.4394-0.1978-0.9375-0.1978-1.494,0-0.5371,0.0696-1.032,0.2087-1.483,0.1392-0.4517,0.3491-0.8411,0.6299-1.168,0.2808-0.3272,0.6311-0.581,1.051-0.7617s0.9106-0.271,1.472-0.271c0.542,0.00001,1.014,0.0806,1.417,0.2417,0.4028,0.1611,0.7385,0.3955,1.007,0.7031,0.2686,0.3076,0.47,0.6812,0.6042,1.121,0.1343,0.4395,0.2014,0.9351,0.2014,1.487zm-1.274,0.0806c0-0.3564-0.033-0.6934-0.0989-1.011-0.0659-0.3174-0.1746-0.5957-0.3259-0.835-0.1514-0.2392-0.3564-0.4285-0.6152-0.5676-0.2588-0.1392-0.581-0.2087-0.9668-0.2087-0.3564,0.00001-0.6628,0.0635-0.9192,0.1904-0.2564,0.127-0.4675,0.3064-0.6336,0.5383-0.166,0.2319-0.2893,0.5066-0.3699,0.824s-0.1208,0.6641-0.1208,1.04c0,0.3613,0.033,0.7007,0.0989,1.018,0.0659,0.3174,0.1758,0.5945,0.3296,0.8313s0.3601,0.4248,0.6189,0.564,0.5811,0.2087,0.9668,0.2087c0.3516,0,0.6567-0.0635,0.9155-0.1904,0.2588-0.127,0.4712-0.3052,0.6372-0.5347s0.2881-0.5029,0.3662-0.8203,0.1172-0.6665,0.1172-1.047z" fill-rule="nonzero" fill="#000"/>
<path d="m306,314.9c0,0.0928-0.005,0.1672-0.0146,0.2234-0.01,0.0562-0.0208,0.1013-0.033,0.1355s-0.0281,0.0574-0.0476,0.0696-0.0439,0.0183-0.0732,0.0183c-0.0342,0.00001-0.0769-0.011-0.1282-0.033s-0.1135-0.0464-0.1868-0.0732-0.1599-0.0513-0.26-0.0733-0.2161-0.033-0.3479-0.033c-0.1807,0.00001-0.3345,0.0293-0.4614,0.0879-0.127,0.0586-0.2295,0.1502-0.3076,0.2747s-0.1343,0.2857-0.1684,0.4834c-0.0342,0.1978-0.0513,0.4382-0.0513,0.7214v0.7178h1.472c0.0391,0.00001,0.072,0.009,0.0989,0.0256,0.0269,0.0171,0.0513,0.0464,0.0732,0.0879,0.022,0.0415,0.0391,0.094,0.0513,0.1575s0.0183,0.1416,0.0183,0.2344c0,0.1758-0.022,0.3027-0.0659,0.3809-0.0439,0.0781-0.1026,0.1172-0.1758,0.1172h-1.472v5.779c-0.00001,0.0391-0.01,0.072-0.0293,0.0989-0.0195,0.0269-0.0525,0.05-0.0989,0.0696-0.0464,0.0195-0.1086,0.0342-0.1868,0.0439-0.0781,0.01-0.1758,0.0146-0.293,0.0146s-0.2148-0.005-0.293-0.0146c-0.0781-0.01-0.1404-0.0244-0.1868-0.0439s-0.0794-0.0427-0.0989-0.0696-0.0293-0.0598-0.0293-0.0989v-5.779h-0.9302c-0.0781,0-0.1367-0.0391-0.1758-0.1172s-0.0586-0.2051-0.0586-0.3809c0-0.0928,0.005-0.1709,0.0146-0.2344,0.01-0.0635,0.0244-0.116,0.044-0.1575,0.0195-0.0415,0.0439-0.0708,0.0732-0.0879s0.0635-0.0256,0.1025-0.0256h0.9302v-0.677c-0.00001-0.459,0.0427-0.8533,0.1282-1.183,0.0854-0.3296,0.2161-0.5994,0.3918-0.8093,0.1758-0.21,0.3967-0.365,0.6628-0.4651s0.5798-0.1501,0.9412-0.1501c0.1709,0.00001,0.3369,0.0159,0.498,0.0476s0.2856,0.0659,0.3735,0.1025,0.1465,0.0696,0.1758,0.0989,0.0537,0.0671,0.0732,0.1135,0.033,0.1025,0.0403,0.1684c0.007,0.0659,0.011,0.1453,0.011,0.238z" fill-rule="nonzero" fill="#000"/>
<path fill-rule="nonzero" fill="#000" d="m316.4,315.4c0.1248,0.6083-0.4778,0.5438-0.8701,0.5273h-2.045v8.218c-0.2501,0.406-1.454,0.3838-1.26-0.3106v-7.907h-2.666c-0.48-0.2432-0.2978-1.295,0.3549-1.069h6.237c0.2623,0.0188,0.2383,0.3588,0.249,0.542z"/>
<path fill-rule="nonzero" fill="#000" d="m321.5,324.2c-0.2485,0.4344-1.275,0.2919-1.04-0.3549,0.0902-0.7039-0.5961,0.4414-0.9631,0.4135-1.105,0.5333-2.811,0.2702-3.283-0.9959-0.3588-0.9349,0.0211-2.124,0.977-2.53,0.9658-0.475,2.062-0.4125,3.108-0.415,0.006-0.6844,0.0609-1.571-0.6695-1.911-0.9645-0.389-2.024-0.003-2.867,0.5003-0.8102-0.1571-0.1341-1.349,0.542-1.336,1.125-0.3966,2.536-0.506,3.53,0.2582,0.8536,0.7896,0.6334,2.031,0.6658,3.078,0.00003,1.097,0.00005,2.195,0.00007,3.292zm-1.201-3.01c-0.918,0.0376-1.983-0.1753-2.715,0.5145-0.5642,0.6222-0.1807,1.803,0.702,1.847,0.8043,0.1453,1.581-0.3895,2.013-1.007,0-0.4515-0.00001-0.903-0.00001-1.355z"/>
<path fill-rule="nonzero" fill="#000" d="m329.3,324.2c-0.252,0.4394-1.326,0.3054-1.099-0.3549,0.0441-0.46-0.0104-0.6259-0.351-0.1605-0.8974,0.9618-2.605,1.184-3.564,0.1998-0.8761-0.9748-0.6306-2.357-0.6699-3.564v-2.712c0.238-0.407,1.414-0.371,1.216,0.3106,0.0159,1.387-0.0353,2.776,0.0329,4.16-0.001,0.9097,0.9272,1.69,1.812,1.322,0.5603-0.2817,1.252-0.7489,1.407-1.364v-4.429c0.2369-0.4087,1.412-0.3696,1.216,0.3106-0.00003,2.094-0.00007,4.187-0.0001,6.281z"/>
<path fill-rule="nonzero" fill="#000" d="m180.5,7.085c0.0118,1.803-0.4105,3.771-1.795,5.032-1.308,1.208-3.174,1.492-4.891,1.455-0.831-0.006-1.663,0.01217-2.493-0.0094-0.4931-0.05308-0.544-0.5693-0.5129-0.9587,0.002-3.682-0.004-7.364,0.003-11.05-0.0139-0.4825,0.5088-0.6416,0.9065-0.5905,1.271,0.01918,2.547-0.05201,3.814,0.06994,1.632,0.1585,3.249,1.003,4.087,2.449,0.649,1.077,0.8835,2.355,0.8815,3.598zm-1.763,0.0682c0.0124-1.504-0.4328-3.179-1.746-4.063-1.034-0.7505-2.346-0.7458-3.566-0.7299h-0.9415v9.809c1.36-0.0349,2.784,0.1576,4.061-0.4265,1.275-0.5591,1.945-1.93,2.105-3.253,0.0632-0.4426,0.0877-0.8906,0.0878-1.337z"/>
<path fill-rule="nonzero" fill="#000" d="m184.5,13.32c-0.1641,0.4497-0.8171,0.2668-1.198,0.2824-0.352,0.02923-0.4573-0.2866-0.4091-0.5714v-8.478c0.1634-0.4488,0.8118-0.2713,1.198-0.2824,0.3446-0.02576,0.459,0.2894,0.4092,0.5714v8.478zm0.1851-11.73c0.0547,0.4659-0.211,0.9868-0.7385,0.9613-0.4267,0.03139-1.073,0.04988-1.196-0.4755-0.076-0.4221-0.1285-0.9693,0.2212-1.284,0.4163-0.2168,0.9435-0.202,1.377-0.04428,0.3089,0.1494,0.3308,0.5425,0.3364,0.8423z"/>
<path fill-rule="nonzero" fill="#000" d="m193.1,10.93c0.0329,0.9449-0.4786,1.888-1.323,2.33-1.107,0.5879-2.45,0.6024-3.638,0.2674-0.3989-0.1422-0.8612-0.2631-1.132-0.6105-0.1543-0.3766-0.1627-0.8393-0.008-1.216,0.4014-0.2215,0.768,0.335,1.163,0.4161,0.8191,0.3784,1.811,0.4916,2.65,0.1128,0.7414-0.3127,0.9626-1.438,0.352-1.978-0.6614-0.6033-1.58-0.7523-2.357-1.153-0.7983-0.342-1.532-1.01-1.66-1.907-0.1733-0.9418,0.2096-1.983,1.032-2.505,1.092-0.7106,2.529-0.7198,3.724-0.2799,0.3452,0.1379,0.7794,0.3407,0.7432,0.7835,0.0701,0.3196-0.0145,1.106-0.4984,0.7324-0.8194-0.5062-1.877-0.7637-2.799-0.392-0.7426,0.286-0.9513,1.396-0.3403,1.916,0.6539,0.5957,1.557,0.7557,2.331,1.139,0.7372,0.3036,1.451,0.8391,1.673,1.641,0.065,0.2283,0.0898,0.4665,0.0897,0.7033z"/>
<path fill-rule="nonzero" fill="#000" d="m201.7,11.99c0.0562,0.4283-0.1487,0.8425-0.5369,1.039-1.249,0.8081-2.922,0.9692-4.284,0.3518-1.052-0.4796-1.692-1.56-1.925-2.657-0.2476-1.203-0.239-2.472,0.072-3.663,0.2926-1.087,0.9983-2.109,2.054-2.568,1.303-0.5659,2.916-0.4897,4.098,0.3281,0.3973,0.2196,0.5369,0.6756,0.4828,1.104,0.1086,0.5016-0.4356,0.7869-0.7381,0.3473-0.6675-0.5522-1.54-0.8977-2.415-0.7676-0.8326,0.07578-1.499,0.7354-1.755,1.505-0.3481,1.02-0.3579,2.134-0.1862,3.19,0.1453,0.8421,0.6063,1.736,1.466,2.023,0.7964,0.2755,1.7,0.136,2.402-0.3193,0.3936-0.1466,0.6799-0.7025,1.12-0.614,0.1646,0.1876,0.1331,0.4699,0.146,0.7014z"/>
<path fill-rule="nonzero" fill="#000" d="m211.3,13.32c-0.2526,0.4775-1.071,0.3262-1.517,0.1814-0.1677-0.2005-0.0591-0.4969-0.0902-0.7422-0.009-1.698,0.0194-3.397-0.0165-5.094-0.0351-0.847-0.3923-1.858-1.303-2.089-0.895-0.2754-1.772,0.2584-2.367,0.8886-0.217,0.3126-0.7086,0.5473-0.6478,0.9774v5.878c-0.2547,0.48-1.074,0.3237-1.525,0.1814-0.1569-0.2157-0.0524-0.5179-0.0828-0.7734v-12.42c0.2332-0.4919,1.073-0.3361,1.517-0.1899,0.1678,0.2161,0.059,0.5232,0.0902,0.7819v4.658c0.8095-0.8922,1.98-1.594,3.226-1.423,1.146,0.05466,2.184,0.8865,2.487,1.992,0.3409,1.181,0.1969,2.421,0.2284,3.632,0.00001,1.187,0.00003,2.375,0.00004,3.562z"/>
<path fill-rule="nonzero" fill="#000" d="m220.9,13.33c-0.1031,0.4128-0.6902,0.2703-1.014,0.2757-0.3326,0.02957-0.4072-0.2827-0.3693-0.5403v-0.6121c-0.7634,0.8356-1.883,1.384-3.031,1.289-0.9909-0.02999-2.058-0.4754-2.508-1.411-0.4999-1.035-0.3486-2.439,0.5648-3.2,0.9502-0.7842,2.235-0.9373,3.425-0.9635,0.445-0.00155,0.89-0.0003075,1.335-0.0007057-0.01-0.7583,0.0868-1.613-0.453-2.226-0.5794-0.5905-1.489-0.5685-2.249-0.466-0.7183,0.1251-1.37,0.4701-2.002,0.8155-0.5149,0.1599-0.5018-0.5665-0.4496-0.8959,0.0901-0.4619,0.6101-0.6177,0.9793-0.8052,1.281-0.5252,2.761-0.6539,4.082-0.2038,0.81,0.2715,1.41,1.004,1.567,1.837,0.1912,0.883,0.101,1.79,0.1222,2.686,0.00003,1.474,0.00007,2.948,0.0001,4.422zm-1.598-4.004c-0.9006,0.02352-1.82-0.08124-2.7,0.1578-0.6226,0.1541-1.214,0.6437-1.246,1.324-0.0999,0.6649,0.2753,1.393,0.944,1.583,0.8155,0.2659,1.728,0.0051,2.35-0.5669,0.2171-0.2237,0.5484-0.4203,0.6515-0.7095,0.00003-0.5961,0.00005-1.192,0.00007-1.788z"/>
<path fill-rule="nonzero" fill="#000" d="m229,5.135c0.1598,1.613-2.094-0.3394-2.617,1.186-0.6604,0.6348-1.053,1.414-0.8998,2.329-0.0258,1.601,0.0517,3.218-0.039,4.809-0.8364,0.5079-1.902,0.0694-1.568-0.9692,0.0195-2.686-0.0389-5.38,0.0292-8.061,0.8186-0.5455,1.728,0.01352,1.422,0.9692-0.0677,1.088,0.8995-1.157,1.557-1.101,0.6816-0.2664,2.421-0.3793,2.115,0.8378z"/>
<path fill-rule="nonzero" fill="#000" d="m237.8,4.955c0.0917,0.9698-1.008,0.5561-1.588,0.6429,1.378,1.548,0.3391,4.382-1.723,4.701-1.043,0.6037-2.497-0.6572-3.114,0.02313-0.5518,1.192,0.9578,1.415,1.8,1.357,1.516,0.08984,3.447-0.1078,4.303,1.434,0.7829,1.598-0.5015,3.443-2.133,3.77-1.692,0.3797-3.68,0.4311-5.161-0.597-1.612-1.093,0.0653-3.189,0.3595-3.863-1.424-0.8052-0.2655-2.553-0.008-3.368-1.235-1.732-0.1762-4.56,2.008-4.833,1.209-0.2598,2.399,0.1987,3.615,0.07994,0.5312,0.1132,1.413-0.2951,1.62,0.3641l0.0207,0.2886v0.00001zm-2.513,2.309c0.1574-1.353-1.322-2.254-2.523-1.812-1.697,0.496-1.609,3.514,0.2435,3.7,1.216,0.2801,2.357-0.6275,2.279-1.888zm0.8085,6.946c-0.0694-1.24-1.533-1.211-2.468-1.224-0.5054-0.01735-1.011-0.03469-1.516-0.05204-1.544,0.7185-1.181,3.044,0.6119,2.915,1.248,0.1423,3.33,0.05195,3.372-1.639z"/>
<path fill-rule="nonzero" fill="#000" d="m241.5,13.32c-0.5603,0.6876-2.004,0.3-1.607-0.7539,0.0227-2.712-0.0455-5.436,0.0341-8.14,0.8258-0.517,1.909-0.07384,1.573,0.9643v7.929zm0.1851-11.73c0.1349,1.742-2.935,0.9494-1.867-0.6253,0.5064-0.6089,2.091-0.4503,1.867,0.6253z"/>
<path fill-rule="nonzero" fill="#000" d="m252.1,13.32c-0.5573,0.6883-2.003,0.2981-1.607-0.7539-0.0476-1.862,0.1122-3.739-0.1169-5.588-0.2012-1.579-2.293-1.914-3.257-0.803-0.7541,0.4989-1.119,1.226-0.9608,2.106-0.0263,1.721,0.0525,3.458-0.039,5.17-0.8364,0.5079-1.902,0.0694-1.568-0.9692,0.0195-2.686-0.0389-5.38,0.0292-8.061,0.8186-0.5455,1.728,0.01352,1.422,0.9692,0.1078,0.6128,1.256-1.205,2.029-1.126,1.661-0.5949,3.733,0.4422,3.945,2.276,0.2379,2.084,0.075,4.194,0.1232,6.29,0.00001,0.1632,0.00001,0.3264,0.00002,0.4896z"/>
<path fill-rule="nonzero" fill="#000" d="m262.3,4.955c0.0917,0.9698-1.008,0.5561-1.588,0.6429,1.378,1.548,0.3391,4.382-1.723,4.701-1.043,0.6037-2.497-0.6572-3.114,0.02313-0.5518,1.192,0.9578,1.415,1.8,1.357,1.516,0.08984,3.447-0.1078,4.303,1.434,0.7829,1.598-0.5015,3.443-2.133,3.77-1.692,0.3797-3.68,0.4311-5.161-0.597-1.612-1.093,0.0653-3.189,0.3595-3.863-1.424-0.8052-0.2655-2.553-0.008-3.368-1.235-1.732-0.1761-4.56,2.008-4.833,1.209-0.2598,2.399,0.1987,3.615,0.07994,0.5312,0.1132,1.413-0.2951,1.62,0.3641l0.0207,0.2886,0.00001,0.00001zm-2.513,2.309c0.1574-1.353-1.322-2.254-2.523-1.812-1.697,0.496-1.609,3.514,0.2435,3.7,1.216,0.2801,2.357-0.6275,2.279-1.888zm0.8085,6.946c-0.0694-1.24-1.533-1.211-2.468-1.224-0.5054-0.01735-1.011-0.03469-1.516-0.05204-1.544,0.7185-1.181,3.044,0.6119,2.915,1.248,0.1423,3.33,0.05189,3.372-1.639z"/>
<path fill-rule="nonzero" fill="#000" d="m275,11.99c0.0465,0.3981-0.113,0.8036-0.4772,0.9982-1.241,0.8364-2.923,1.013-4.299,0.4132-1.057-0.4616-1.714-1.528-1.957-2.621-0.2604-1.2-0.2537-2.466,0.0416-3.659,0.2822-1.094,0.9726-2.132,2.026-2.608,1.311-0.5897,2.947-0.5189,4.143,0.3074,0.3973,0.2196,0.5369,0.6756,0.4828,1.104,0.1086,0.5016-0.4356,0.7869-0.7381,0.3473-0.6675-0.5522-1.54-0.8977-2.415-0.7676-0.8326,0.07578-1.499,0.7354-1.755,1.505-0.3481,1.02-0.3579,2.134-0.1862,3.19,0.1453,0.8422,0.6063,1.736,1.466,2.023,0.7964,0.2755,1.7,0.136,2.402-0.3193,0.3936-0.1466,0.6799-0.7025,1.12-0.614,0.1646,0.1876,0.1331,0.4699,0.146,0.7014z"/>
<path fill-rule="nonzero" fill="#000" d="m283.5,13.33c-0.1031,0.4128-0.6902,0.2703-1.014,0.2757-0.3326,0.02957-0.4072-0.2827-0.3693-0.5403v-0.6121c-0.7634,0.8356-1.883,1.384-3.031,1.289-0.9909-0.02999-2.058-0.4754-2.508-1.411-0.4999-1.035-0.3486-2.439,0.5648-3.2,0.9502-0.7842,2.235-0.9373,3.425-0.9635,0.445-0.00155,0.89-0.0003075,1.335-0.0007057-0.01-0.7583,0.0868-1.613-0.453-2.226-0.5794-0.5905-1.489-0.5685-2.249-0.466-0.7183,0.1251-1.37,0.4701-2.002,0.8155-0.5149,0.1599-0.5018-0.5665-0.4496-0.8959,0.0901-0.4619,0.6101-0.6177,0.9793-0.8052,1.281-0.5252,2.761-0.6539,4.082-0.2038,0.81,0.2715,1.41,1.004,1.567,1.837,0.1912,0.883,0.101,1.79,0.1222,2.686,0.00003,1.474,0.00007,2.948,0.0001,4.422zm-1.598-4.004c-0.9006,0.02352-1.82-0.08124-2.7,0.1578-0.6226,0.1541-1.214,0.6437-1.246,1.324-0.0999,0.6649,0.2753,1.393,0.944,1.583,0.8155,0.2659,1.728,0.0051,2.35-0.5669,0.2171-0.2237,0.5484-0.4203,0.6515-0.7095,0.00003-0.5961,0.00005-1.192,0.00008-1.788z"/>
<path fill-rule="nonzero" fill="#000" d="m294.6,8.805c0.0103,1.64-0.4054,3.554-1.914,4.463-1.246,0.7422-2.984,0.6563-4.041-0.3866-0.355-0.3821-0.601-0.5855-0.5041,0.04262v3.879c-0.2269,0.4509-1.672,0.5488-1.607-0.1835v-12.06c0.1664-0.5044,1.565-0.4733,1.412,0.2294v0.9493c0.8787-0.9594,2.106-1.772,3.465-1.604,1.351,0.03999,2.479,1.093,2.849,2.353,0.2457,0.7457,0.3363,1.537,0.339,2.319zm-1.695,0.1851c-0.0163-1.191-0.1593-2.703-1.342-3.323-1.089-0.4993-2.255,0.1841-2.961,1.012-0.4052,0.2951-0.5252,0.7082-0.4597,1.18v2.845c0.7164,0.8663,1.686,1.9,2.932,1.625,1.447-0.3265,1.82-2.075,1.831-3.339z"/>
<path fill-rule="nonzero" fill="#000" d="m303.6,13.33c-0.1031,0.4128-0.6902,0.2703-1.014,0.2757-0.3326,0.02957-0.4072-0.2827-0.3693-0.5403v-0.6121c-0.7634,0.8356-1.883,1.384-3.031,1.289-0.9909-0.02999-2.058-0.4754-2.508-1.411-0.4999-1.035-0.3486-2.439,0.5648-3.2,0.9502-0.7842,2.235-0.9373,3.425-0.9635,0.445-0.00155,0.89-0.0003075,1.335-0.0007057-0.01-0.7583,0.0868-1.613-0.453-2.226-0.5794-0.5905-1.489-0.5685-2.249-0.466-0.7183,0.1251-1.37,0.4701-2.002,0.8155-0.5149,0.1599-0.5018-0.5665-0.4496-0.8959,0.0901-0.4619,0.6101-0.6177,0.9793-0.8052,1.281-0.5252,2.761-0.6539,4.082-0.2038,0.81,0.2715,1.41,1.004,1.567,1.837,0.1912,0.883,0.101,1.79,0.1222,2.686,0.00003,1.474,0.00007,2.948,0.0001,4.422zm-1.598-4.004c-0.9006,0.02352-1.82-0.08124-2.7,0.1578-0.6226,0.1541-1.214,0.6437-1.246,1.324-0.0999,0.6649,0.2753,1.393,0.944,1.583,0.8155,0.2659,1.728,0.0051,2.35-0.5669,0.2171-0.2237,0.5484-0.4203,0.6515-0.7095,0.00003-0.5961,0.00005-1.192,0.00008-1.788z"/>
<path fill-rule="nonzero" fill="#000" d="m312.9,11.99c0.107,0.5962-0.3962,1.047-0.8987,1.249-1.461,0.7524-3.447,0.7428-4.712-0.3924-1.206-1.155-1.389-2.956-1.279-4.536,0.0943-1.456,0.7195-3.019,2.075-3.725,1.425-0.7115,3.313-0.6205,4.542,0.4405,0.2732,0.383,0.4173,1.096,0.0172,1.426-0.5581,0.08369-0.8693-0.6281-1.425-0.732-0.9421-0.424-2.218-0.3271-2.869,0.5547-0.6557,0.8853-0.7239,2.062-0.6782,3.125,0.0426,1.047,0.367,2.283,1.402,2.762,1.075,0.4682,2.35,0.07712,3.168-0.707,0.5379-0.4458,0.696,0.02062,0.6572,0.5358z"/>
<path fill-rule="nonzero" fill="#000" d="m316.6,13.32c-0.1641,0.4497-0.8171,0.2667-1.198,0.2824-0.352,0.02923-0.4573-0.2866-0.4091-0.5714v-8.478c0.1634-0.4488,0.8118-0.2713,1.198-0.2824,0.3446-0.02576,0.459,0.2894,0.4092,0.5714v8.478zm0.1851-11.73c0.0547,0.4659-0.211,0.9868-0.7385,0.9613-0.4267,0.03139-1.073,0.04987-1.196-0.4755-0.076-0.4221-0.1285-0.9693,0.2212-1.284,0.4163-0.2168,0.9435-0.202,1.377-0.04428,0.3089,0.1494,0.3308,0.5425,0.3364,0.8423z"/>
<path fill-rule="nonzero" fill="#000" d="m324.2,12.68c0.0807,0.4872-0.2342,0.9283-0.7452,0.9498-0.8941,0.1863-1.945,0.1684-2.673-0.4523-0.724-0.6675-0.7647-1.734-0.761-2.653v-4.887c-0.4321-0.00618-0.8659,0.01257-1.297-0.00973-0.3683-0.2706-0.3286-0.9588-0.0622-1.291,0.3532-0.07165,0.7258-0.01701,1.087-0.0341,0.1835,0.0229,0.3385,0.01732,0.2715-0.2102,0.006-0.6465-0.0113-1.295,0.009-1.94,0.2707-0.3791,0.8552-0.2232,1.263-0.2152,0.3359,0.00732,0.3613,0.3424,0.3355,0.5963v1.769c0.7742,0.0056,1.55-0.01127,2.323,0.00854,0.3644,0.2629,0.3287,0.9581,0.0584,1.287-0.2939,0.08069-0.6144,0.02023-0.9199,0.03896h-1.462c0.006,1.738-0.012,3.477,0.009,5.214,0.0342,0.5421,0.1568,1.259,0.7588,1.442,0.5029,0.1618,1.03,0.0029,1.497-0.1966,0.3357-0.09106,0.2854,0.391,0.3071,0.5831z"/>
<path fill-rule="nonzero" fill="#000" d="m334.4,8.845c0.0277,1.66-0.59,3.506-2.124,4.344-1.312,0.7157-2.962,0.7395-4.341,0.2032-1.383-0.55-2.132-2.024-2.251-3.445-0.1904-1.729,0.1064-3.734,1.524-4.902,1.294-1.042,3.146-1.14,4.68-0.6426,1.398,0.4627,2.256,1.864,2.428,3.274,0.0596,0.386,0.0848,0.7774,0.0847,1.167zm-1.695,0.1072c-0.004-1.18-0.236-2.602-1.383-3.21-1.176-0.5692-2.862-0.3008-3.506,0.9336-0.622,1.188-0.6036,2.622-0.2895,3.898,0.2422,1.039,1.211,1.833,2.282,1.822,1.046,0.09853,2.151-0.4527,2.541-1.462,0.2719-0.6212,0.3521-1.31,0.3556-1.982z"/>
<path fill-rule="nonzero" fill="#000" d="m341.9,5.135c0.0427,0.3205-0.0264,0.9673-0.4917,0.6941-0.5091-0.1978-1.134-0.3061-1.609,0.03886-0.6171,0.423-1.009,1.082-1.416,1.693v5.767c-0.1052,0.4002-0.6539,0.273-0.9729,0.2993-0.2775,0.01248-0.7132-0.05884-0.6344-0.4289v-8.637c0.0732-0.4089,0.6198-0.2766,0.9266-0.2982,0.3154-0.0538,0.5994,0.1725,0.5248,0.4926v1.082c0.474-0.6678,1.02-1.389,1.836-1.641,0.5605-0.1367,1.185-0.08255,1.7,0.1802,0.1972,0.1873,0.1132,0.5157,0.1368,0.7599z"/>
<path fill-rule="nonzero" fill="#000" d="m355.3,4.535c-0.0602,0.5138-0.3053,0.9822-0.4598,1.472-0.8774,2.439-1.749,4.88-2.63,7.317-0.2481,0.4087-0.816,0.2622-1.22,0.2984-0.3545-0.01581-0.8767,0.01239-0.9861-0.4204-0.9958-2.79-2.001-5.576-2.991-8.367-0.3016-0.592,0.4681-0.6308,0.8612-0.5813,0.3466-0.02576,0.7942,0.03766,0.8497,0.4533,0.8212,2.401,1.645,4.801,2.465,7.202,0.3476-1.099,0.7357-2.185,1.099-3.279,0.4672-1.382,0.9354-2.764,1.402-4.146,0.3058-0.3679,0.8767-0.1944,1.299-0.2145,0.1446,0.01344,0.3227,0.09319,0.3111,0.2658z"/>
<path fill-rule="nonzero" fill="#000" d="m365.1,8.845c0.009,1.452-0.4188,3.025-1.585,3.975-1.156,0.9506-2.776,1.099-4.196,0.7958-1.154-0.2434-2.155-1.081-2.575-2.187-0.471-1.221-0.5106-2.585-0.2682-3.861,0.2358-1.248,0.9909-2.441,2.165-2.992,1.102-0.5317,2.398-0.5632,3.574-0.289,1.13,0.2696,2.083,1.122,2.487,2.21,0.2945,0.7442,0.3973,1.553,0.3978,2.348zm-1.695,0.1072c-0.0135-1.031-0.1598-2.201-0.9725-2.929-0.7363-0.6342-1.83-0.6846-2.72-0.3916-0.991,0.3528-1.509,1.402-1.631,2.389-0.123,1.037-0.0926,2.147,0.3646,3.105,0.381,0.8131,1.272,1.294,2.156,1.273,0.915,0.05898,1.876-0.3738,2.315-1.203,0.3833-0.6779,0.4824-1.477,0.4883-2.244z"/>
<path fill-rule="nonzero" fill="#000" d="m369.1,13.32c-0.1833,0.4635-0.8704,0.2687-1.272,0.2714-0.3532,0.0065-0.3556-0.3441-0.3352-0.6008v-12.68c0.1645-0.4785,0.8718-0.2762,1.272-0.2812,0.3501-0.0004339,0.3566,0.3534,0.3355,0.6105v12.68z"/>
<path fill-rule="nonzero" fill="#000" d="m376.7,12.68c0.0806,0.4871-0.2342,0.9283-0.7452,0.9498-0.8941,0.1863-1.945,0.1684-2.673-0.4523-0.724-0.6675-0.7647-1.734-0.761-2.653v-4.887c-0.4321-0.00618-0.8659,0.01257-1.297-0.00973-0.3683-0.2706-0.3286-0.9588-0.0621-1.291,0.3532-0.07165,0.7258-0.01701,1.087-0.0341,0.1835,0.02287,0.3386,0.01736,0.2716-0.2102,0.006-0.6465-0.0113-1.295,0.009-1.94,0.2707-0.3791,0.8552-0.2232,1.263-0.2152,0.3359,0.00732,0.3613,0.3424,0.3355,0.5963v1.769c0.7743,0.0056,1.55-0.01127,2.323,0.00854,0.3644,0.263,0.3286,0.958,0.0584,1.287-0.2939,0.08069-0.6145,0.02023-0.9199,0.03896h-1.462c0.006,1.738-0.012,3.477,0.009,5.214,0.0342,0.5421,0.1568,1.259,0.7588,1.442,0.5029,0.1618,1.03,0.0029,1.497-0.1966,0.3354-0.09098,0.2857,0.3905,0.3068,0.5831z"/>
<path fill-rule="nonzero" fill="#000" d="m385.2,13.33c-0.1031,0.4128-0.6902,0.2703-1.014,0.2757-0.3326,0.02957-0.4072-0.2827-0.3693-0.5403v-0.6121c-0.7634,0.8356-1.883,1.384-3.031,1.289-0.9909-0.02999-2.058-0.4754-2.508-1.411-0.4999-1.035-0.3486-2.439,0.5648-3.2,0.9502-0.7842,2.235-0.9373,3.425-0.9635,0.445-0.00155,0.89-0.0003075,1.335-0.0007057-0.01-0.7583,0.0868-1.613-0.453-2.226-0.5794-0.5905-1.489-0.5685-2.249-0.466-0.7183,0.1251-1.37,0.4701-2.002,0.8155-0.5149,0.1599-0.5018-0.5665-0.4496-0.8959,0.0901-0.4619,0.6101-0.6177,0.9793-0.8052,1.281-0.5252,2.761-0.6539,4.082-0.2038,0.81,0.2714,1.41,1.004,1.567,1.837,0.1912,0.883,0.101,1.79,0.1222,2.686,0.00004,1.474,0.00007,2.948,0.00011,4.422zm-1.598-4.004c-0.9006,0.02352-1.82-0.08124-2.7,0.1578-0.6226,0.1541-1.214,0.6437-1.246,1.324-0.0999,0.6649,0.2753,1.393,0.944,1.583,0.8155,0.2659,1.728,0.0051,2.35-0.5669,0.2171-0.2237,0.5484-0.4203,0.6515-0.7095,0.00003-0.5961,0.00005-1.192,0.00007-1.788z"/>
<path fill-rule="nonzero" fill="#000" d="m395.5,4.955c0.071,0.3945-0.2082,0.7441-0.6086,0.6429h-0.9792c0.7638,0.7847,0.7364,2.035,0.3702,3-0.4729,1.213-1.819,1.833-3.062,1.821-0.6446,0.0068-1.327-0.1089-1.858-0.496-0.3997,0.3582-0.6134,1.136-0.0828,1.481,0.5456,0.3443,1.215,0.2253,1.828,0.2855,1.111,0.07249,2.311-0.04103,3.292,0.5869,0.8093,0.4672,1.152,1.475,0.9539,2.363-0.186,1.115-1.161,1.922-2.209,2.214-1.234,0.3572-2.564,0.3412-3.816,0.08896-0.8932-0.1969-1.886-0.703-2.075-1.689-0.2178-0.9143,0.2003-1.879,0.9193-2.455,0.6687-0.3289-0.4053-0.4888-0.4664-0.9519-0.4354-0.8744-0.008-1.904,0.6276-2.558-0.1865-0.4313-0.5948-0.9926-0.5909-1.573-0.1422-1.187,0.3526-2.495,1.431-3.093,1.026-0.5992,2.283-0.5647,3.406-0.3203,0.8883,0.00657,1.778-0.01322,2.666,0.01005,0.2514,0.09033,0.2444,0.4211,0.2536,0.6426zm-2.513,2.309c0.0496-0.804-0.4391-1.665-1.269-1.829-0.8043-0.2142-1.812,0.01039-2.209,0.8074-0.449,0.8735-0.3469,2.188,0.5846,2.706,0.8619,0.4414,2.152,0.3021,2.64-0.6236,0.1761-0.323,0.2521-0.6947,0.2533-1.061zm0.8085,6.946c0.0376-0.6467-0.5931-1.064-1.169-1.143-0.9162-0.1031-1.843-0.08439-2.764-0.1311-0.4146,0.2226-0.7716,0.6419-0.9785,1.078-0.2326,0.531-0.1022,1.249,0.4592,1.513,0.8676,0.4347,1.892,0.4224,2.832,0.2889,0.7205-0.1199,1.51-0.5675,1.601-1.361,0.0124-0.0808,0.0186-0.1627,0.0184-0.2443z"/>
<path fill-rule="nonzero" fill="#000" d="m405,8.565c0.0718,0.5567-0.5053,0.7742-0.9627,0.7014h-5.408c-0.0122,1.057,0.2398,2.3,1.26,2.837,1.128,0.5627,2.483,0.383,3.635-0.01423,0.5152-0.353,1.327-0.4246,1.104,0.4416,0.0125,0.7663-0.949,0.8226-1.499,1.008-1.585,0.3582-3.458,0.3805-4.78-0.7016-1.292-1.097-1.501-2.947-1.385-4.538,0.0967-1.572,0.9114-3.223,2.436-3.841,1.411-0.5609,3.201-0.4775,4.378,0.5587,0.9968,0.8772,1.259,2.279,1.224,3.547zm-1.617-0.4773c0.0606-1.017-0.3456-2.23-1.403-2.57-1.042-0.3685-2.351-0.03069-2.905,0.975-0.2007,0.4142-0.6664,1.355-0.2946,1.595h4.603z"/>
<path fill-rule="nonzero" fill="#000" d="m3.559,255.6c1.12-0.0414,2.278,0.5734,2.741,1.619,0.4374,0.8996,0.3621,1.929,0.362,2.898,0.092,0.114,0.2897,0.0293,0.4275,0.0554h2.994c0.363,0.2584,0.3597,1.106-0.04683,1.265-2.948-0.008-5.899,0.005-8.848-0.006-0.4555-0.0605-0.4394-0.604-0.4092-0.9494,0.01886-0.9423-0.07631-1.902,0.1295-2.829,0.2077-0.9068,0.8918-1.717,1.811-1.944,0.2725-0.0754,0.5569-0.1082,0.8386-0.1079zm0.1027,1.328c-0.7751-0.0493-1.605,0.4531-1.751,1.25-0.1569,0.6418-0.06359,1.312-0.09443,1.96,0.1673,0.076,0.3773,0.0142,0.5629,0.0333h3.249c-0.03624-0.7909,0.1307-1.653-0.2811-2.374-0.3428-0.5867-1.021-0.8898-1.686-0.8701z"/>
<path fill-rule="nonzero" fill="#000" d="m6.502,248.5c0.3019-0.0423,0.569,0.2274,0.5284,0.5265v4.273c0.7299,0.003,1.571-0.1368,2.026-0.7724,0.4493-0.6388,0.4236-1.477,0.2972-2.214-0.07694-0.4476-0.2687-0.8618-0.4172-1.286,0.01942-0.3652,0.5562-0.2411,0.8071-0.2074,0.2904,0.1653,0.3355,0.5504,0.4431,0.8405,0.2774,1.036,0.3564,2.182-0.06032,3.192-0.3146,0.7713-1.027,1.328-1.823,1.538-0.9236,0.2455-1.917,0.2555-2.843,0.0185-0.8992-0.2289-1.721-0.8471-2.067-1.725-0.3042-0.7654-0.3162-1.645-0.05997-2.425,0.2912-0.8542,1.074-1.479,1.95-1.649,0.3991-0.0952,0.81-0.1155,1.219-0.1088zm-0.3596,1.218c-0.6828-0.0291-1.473,0.1782-1.828,0.8154-0.3499,0.6785-0.2867,1.602,0.2718,2.154,0.4066,0.408,0.9912,0.5901,1.556,0.6123-0.0000067-1.194-0.0000133-2.388-0.00002-3.581z"/>
<path fill-rule="nonzero" fill="#000" d="m3.919,242.8c0.2414-0.0327,0.7288,0.0191,0.5229,0.3697-0.149,0.3836-0.2305,0.8546,0.02935,1.212,0.3187,0.4649,0.8152,0.7604,1.275,1.067h4.345c0.3014,0.0793,0.2059,0.4926,0.2254,0.733,0.0095,0.2091-0.04424,0.5373-0.3231,0.478h-6.507c-0.308-0.0551-0.2083-0.467-0.2247-0.6981-0.04055-0.2376,0.13-0.4516,0.3712-0.3954h0.8149c-0.5031-0.3571-1.046-0.7687-1.237-1.383-0.103-0.4223-0.0622-0.893,0.1358-1.281,0.1407-0.1478,0.39-0.0866,0.5725-0.1023z"/>
<path fill-rule="nonzero" fill="#000" d="m9.085,236.8c0.2999-0.0357,0.6055,0.0847,0.752,0.359,0.6301,0.935,0.7635,2.202,0.3113,3.239-0.3478,0.796-1.151,1.291-1.974,1.474-0.9037,0.1962-1.858,0.1911-2.756-0.0313-0.8241-0.2126-1.606-0.7327-1.965-1.526-0.4443-0.9877-0.3909-2.22,0.2316-3.121,0.1654-0.2992,0.5089-0.4048,0.8318-0.3631,0.3779-0.0818,0.5928,0.3282,0.2616,0.5561-0.416,0.5029-0.6763,1.161-0.5783,1.819,0.05709,0.6273,0.5541,1.129,1.134,1.322,0.7683,0.2622,1.608,0.2696,2.403,0.1403,0.6345-0.1094,1.308-0.4568,1.524-1.105,0.2076-0.6,0.1025-1.28-0.2405-1.81-0.1105-0.2966-0.5293-0.5122-0.4626-0.8438,0.1413-0.1243,0.3541-0.0998,0.5283-0.1101z"/>
<path fill-rule="nonzero" fill="#000" d="m6.502,229.6c0.3019-0.0423,0.569,0.2274,0.5284,0.5265v4.273c0.7299,0.003,1.571-0.1368,2.026-0.7724,0.4493-0.6388,0.4236-1.477,0.2972-2.214-0.07694-0.4476-0.2687-0.8618-0.4172-1.286,0.01942-0.3652,0.5562-0.2411,0.8071-0.2074,0.2904,0.1653,0.3355,0.5504,0.4431,0.8405,0.2774,1.036,0.3564,2.182-0.06032,3.192-0.3146,0.7713-1.027,1.328-1.823,1.538-0.9236,0.2455-1.917,0.2555-2.843,0.0185-0.8992-0.2289-1.721-0.8471-2.067-1.725-0.3042-0.7654-0.3162-1.645-0.05997-2.425,0.2912-0.8542,1.074-1.479,1.95-1.649,0.3991-0.0952,0.81-0.1155,1.219-0.1088zm-0.3596,1.218c-0.6828-0.0291-1.473,0.1782-1.828,0.8154-0.3499,0.6785-0.2867,1.602,0.2718,2.154,0.4066,0.408,0.9912,0.5901,1.556,0.6123-0.0000067-1.194-0.0000133-2.388-0.00002-3.581z"/>
<path fill-rule="nonzero" fill="#000" d="m10.09,222.1c0.3241,0.1096,0.205,0.5665,0.2192,0.8399,0.02916,0.252-0.1644,0.4253-0.4022,0.3711-1.318,0.003-2.636-0.007-3.953,0.006-0.594,0.019-1.292,0.1784-1.6,0.743-0.2878,0.5432-0.1345,1.228,0.2593,1.678,0.2552,0.3137,0.5524,0.6112,0.8796,0.8396h4.598c0.324,0.1097,0.2053,0.5664,0.2192,0.8402,0.03002,0.2551-0.1628,0.4247-0.4022,0.3706h-6.422c-0.3483-0.0974-0.201-0.5928-0.2096-0.8685,0.00978-0.236,0.2535-0.2377,0.4291-0.225h0.6538c-0.6664-0.5812-1.242-1.389-1.203-2.313-0.01003-0.7481,0.3491-1.517,1.016-1.89,0.8186-0.4715,1.786-0.3811,2.694-0.3915,1.075-0.00002,2.15-0.00004,3.224-0.00006z"/>
<path fill-rule="nonzero" fill="#000" d="m9.606,216.5c0.367-0.0607,0.6993,0.1763,0.7155,0.5614,0.1403,0.6736,0.1269,1.465-0.3408,2.014-0.5029,0.5454-1.307,0.576-1.999,0.5734h-3.682c-0.00466,0.3255,0.00947,0.6523-0.00734,0.977-0.2039,0.2774-0.7224,0.2477-0.9724,0.0468-0.05398-0.2661-0.01281-0.5468-0.02569-0.8192,0.01724-0.1382,0.01306-0.2551-0.1584-0.2046-0.4871-0.004-0.9753,0.009-1.462-0.007-0.2855-0.2037-0.1683-0.6442-0.1621-0.9516,0.00553-0.2531,0.258-0.272,0.4493-0.2527h1.333c0.00422-0.5833-0.00849-1.168,0.00644-1.75,0.1981-0.2747,0.7217-0.2476,0.9696-0.0442,0.06078,0.2214,0.01524,0.4629,0.02935,0.693v1.101c1.309-0.004,2.619,0.009,3.928-0.007,0.4084-0.0258,0.9482-0.1181,1.086-0.5717,0.1219-0.3789,0.00221-0.776-0.1482-1.128-0.0685-0.2526,0.2943-0.2155,0.4394-0.2311z"/>
<path fill-rule="nonzero" fill="#000" d="m6.715,202.1c1.25-0.0209,2.641,0.4446,3.272,1.6,0.5391,0.9887,0.5571,2.231,0.153,3.27-0.4143,1.042-1.525,1.607-2.595,1.696-1.303,0.1435-2.813-0.0801-3.693-1.148-0.7848-0.9745-0.8587-2.37-0.4841-3.526,0.3486-1.054,1.405-1.7,2.467-1.829,0.2908-0.0449,0.5855-0.0638,0.8795-0.0639zm0.08073,1.277c-0.889,0.003-1.96,0.1779-2.418,1.042-0.4288,0.8859-0.2266,2.156,0.7034,2.641,0.8951,0.4686,1.975,0.4547,2.936,0.2181,0.7831-0.1825,1.381-0.9121,1.373-1.719,0.07422-0.7877-0.341-1.62-1.101-1.914-0.4679-0.2049-0.9872-0.2653-1.493-0.2679z"/>
<path fill-rule="nonzero" fill="#000" d="m0.7704,196.7c0.3477-0.0759,0.573,0.1854,0.3413,0.4844-0.1565,0.447-0.2008,1.091,0.2569,1.38,0.5778,0.3045,1.252,0.1997,1.882,0.2202,0.09898-0.0433,0.0184-0.2662,0.04452-0.3823,0.00418-0.3822-0.00843-0.7654,0.00644-1.147,0.2003-0.2652,0.8721-0.2957,0.999,0.0542v1.475h5.79c0.3588,0.1943,0.2448,0.8096,0.1367,1.15-0.1444,0.1266-0.3624,0.046-0.5415,0.0689h-5.386c-0.00474,0.3289,0.00959,0.659-0.00734,0.9871-0.1976,0.2574-0.8805,0.2874-0.9981-0.0551v-0.932c-0.8798-0.006-1.839,0.0681-2.597-0.4571-0.6699-0.4835-0.7815-1.411-0.6505-2.17,0.01932-0.3938,0.29-0.7656,0.7229-0.6752l-0.00001-0.00016z"/>
<path fill-rule="nonzero" fill="#000" d="m0.7704,188.7c0.3477-0.0759,0.573,0.1854,0.3413,0.4844-0.1565,0.447-0.2008,1.091,0.2569,1.38,0.5778,0.3045,1.252,0.1997,1.882,0.2202,0.09899-0.0433,0.0184-0.2662,0.04452-0.3823,0.00418-0.3822-0.00843-0.7654,0.00644-1.147,0.2003-0.2652,0.8721-0.2957,0.999,0.0542v1.475h5.79c0.3588,0.1942,0.2448,0.8096,0.1367,1.15-0.1444,0.1266-0.3624,0.046-0.5415,0.0689h-5.386c-0.00474,0.3289,0.00959,0.659-0.00734,0.9871-0.1976,0.2574-0.8805,0.2874-0.9981-0.0551v-0.932c-0.8798-0.006-1.839,0.0681-2.597-0.4571-0.6699-0.4835-0.7815-1.411-0.6505-2.17,0.01933-0.3938,0.29-0.7656,0.7229-0.6752l-0.00001-0.00015z"/>
<path fill-rule="nonzero" fill="#000" d="m10.09,182.1c0.3357,0.1097,0.2092,0.5987,0.2046,0.876-0.0033,0.2409-0.2485,0.2359-0.424,0.2248h-0.6538c0.6617,0.5843,1.236,1.39,1.195,2.313,0.01048,0.7476-0.3422,1.521-1.014,1.89-0.8243,0.4726-1.797,0.3807-2.711,0.3915h-3.202c-0.3318-0.1034-0.2008-0.5665-0.2213-0.8403-0.03434-0.254,0.1645-0.433,0.4042-0.378,1.313-0.003,2.626,0.007,3.938-0.005,0.6108-0.0112,1.329-0.1784,1.629-0.7726,0.2788-0.5472,0.1025-1.224-0.2954-1.665-0.2522-0.3016-0.5398-0.592-0.8567-0.8153h-4.598c-0.3321-0.1035-0.2009-0.5665-0.2213-0.8403-0.03317-0.251,0.1661-0.4329,0.4042-0.3779,2.141,0.00007,4.281,0.00015,6.422,0.00023z"/>
<path fill-rule="nonzero" fill="#000" d="m10.09,178.6c0.3493,0.1382,0.2024,0.6557,0.2046,0.9585,0.0048,0.2661-0.2593,0.2679-0.4527,0.2525h-9.557c-0.3606-0.1241-0.2079-0.6568-0.2119-0.9582-0.0002776-0.2638,0.2663-0.2686,0.46-0.2528h9.557z"/>
<path fill-rule="nonzero" fill="#000" d="m10.09,175.1c0.3763,0.2191,0.2151,0.7643,0.163,1.112-0.1943,0.1789-0.4811,0.0725-0.7217,0.0986h-9.246c-0.3872-0.2064-0.2241-0.7659-0.1674-1.111,0.2031-0.1807,0.4979-0.073,0.7467-0.0998h9.225z"/>
<path fill-rule="nonzero" fill="#000" d="m9.085,165c0.2999-0.0357,0.6055,0.0847,0.752,0.359,0.6301,0.935,0.7635,2.202,0.3113,3.239-0.3478,0.796-1.151,1.291-1.974,1.474-0.9037,0.1962-1.858,0.1911-2.756-0.0313-0.8241-0.2126-1.606-0.7327-1.965-1.526-0.4443-0.9877-0.3909-2.22,0.2316-3.121,0.1654-0.2992,0.509-0.4048,0.8318-0.3631,0.3779-0.0818,0.5928,0.3282,0.2616,0.5561-0.416,0.5029-0.6763,1.161-0.5783,1.82,0.05707,0.6273,0.5541,1.129,1.134,1.322,0.7683,0.2622,1.608,0.2696,2.403,0.1403,0.6345-0.1094,1.308-0.4568,1.524-1.105,0.2076-0.6,0.1025-1.28-0.2405-1.81-0.1105-0.2966-0.5293-0.5122-0.4626-0.8438,0.1413-0.1242,0.3541-0.1,0.5283-0.11z"/>
<path fill-rule="nonzero" fill="#000" d="m10.09,157.8c0.3599,0.1902,0.2457,0.8065,0.1367,1.143-0.1511,0.1262-0.3744,0.0444-0.5592,0.0679-1.279,0.007-2.559-0.0146-3.838,0.0124-0.6381,0.0265-1.4,0.2955-1.574,0.982-0.2075,0.6743,0.1947,1.335,0.6694,1.783,0.2355,0.1635,0.4124,0.5338,0.7364,0.488h4.428c0.3618,0.192,0.2438,0.8095,0.1367,1.149-0.1625,0.1182-0.3902,0.0394-0.5827,0.0624h-9.359c-0.3707-0.1758-0.2531-0.8085-0.1431-1.143,0.1628-0.1264,0.3942-0.0445,0.5891-0.0679h3.51c-0.6722-0.6099-1.201-1.492-1.072-2.431,0.0412-0.8632,0.6679-1.645,1.501-1.874,0.8895-0.2568,1.824-0.1483,2.737-0.172,0.8946,0.00001,1.789,0.00003,2.684,0.00004z"/>
<path fill-rule="nonzero" fill="#000" d="m10.1,150.5c0.311,0.0777,0.2036,0.52,0.2078,0.7639,0.02205,0.2506-0.213,0.3068-0.4071,0.2782h-0.4612c0.6295,0.5751,1.043,1.419,0.9713,2.283-0.02257,0.7465-0.3581,1.551-1.063,1.889-0.7794,0.3766-1.838,0.2626-2.411-0.4255-0.5907-0.7159-0.7061-1.684-0.7259-2.58-0.00117-0.3352-0.0002318-0.6705-0.000532-1.006-0.5713,0.007-1.215-0.0654-1.677,0.3412-0.4449,0.4365-0.4283,1.122-0.3511,1.694,0.09423,0.5411,0.3542,1.032,0.6143,1.508,0.1205,0.3879-0.4268,0.3784-0.675,0.3386-0.348-0.0676-0.4653-0.4596-0.6066-0.7376-0.3956-0.9652-0.4927-2.08-0.1536-3.076,0.2045-0.6102,0.756-1.062,1.384-1.181,0.6652-0.1441,1.349-0.0761,2.024-0.0921,1.11-0.00003,2.221-0.00005,3.331-0.00008zm-3.016,1.204c0.01771,0.6785-0.06119,1.371,0.1189,2.034,0.1161,0.4691,0.4849,0.9144,0.9973,0.9385,0.5009,0.0753,1.049-0.2074,1.193-0.7112,0.2003-0.6144,0.00382-1.302-0.4271-1.77-0.1686-0.1636-0.3166-0.4132-0.5345-0.4909-0.4491-0.00001-0.8982-0.00001-1.347-0.00002z"/>
<path fill-rule="nonzero" fill="#000" d="m3.919,144.5c0.2414-0.0328,0.7288,0.0192,0.5229,0.3698-0.149,0.3836-0.2305,0.8546,0.02935,1.212,0.3187,0.4649,0.8152,0.7604,1.275,1.067h4.345c0.3014,0.0793,0.2059,0.4926,0.2254,0.733,0.0095,0.2091-0.04423,0.5373-0.3231,0.478h-6.507c-0.308-0.0551-0.2083-0.467-0.2247-0.6981-0.04056-0.2377,0.13-0.4516,0.3712-0.3954h0.8149c-0.5031-0.3571-1.046-0.7687-1.237-1.383-0.103-0.4223-0.0622-0.893,0.1358-1.281,0.1408-0.1478,0.3898-0.0865,0.5725-0.1024z"/>
<path fill-rule="nonzero" fill="#000" d="m3.786,137.7c0.2972-0.0535,0.5606,0.1569,0.4844,0.4585v0.7377c0.5912-0.5754,1.533-0.5548,2.26-0.2789,0.9137,0.3563,1.381,1.37,1.372,2.307,0.00516,0.4856-0.08207,0.9997-0.3736,1.399,0.2699,0.3012,0.8562,0.4621,1.116,0.0624,0.2594-0.4111,0.1697-0.9156,0.2151-1.377,0.05462-0.8373-0.03091-1.741,0.4422-2.48,0.352-0.6097,1.112-0.8679,1.78-0.7187,0.8402,0.1402,1.448,0.8748,1.668,1.664,0.2691,0.9299,0.2571,1.932,0.06702,2.875-0.1483,0.6729-0.5296,1.421-1.272,1.563-0.6888,0.1641-1.415-0.1509-1.849-0.6926-0.2478-0.5038-0.3683,0.3053-0.7171,0.3514-0.6587,0.328-1.434,0.006-1.927-0.4728-0.3249,0.1405-0.7478,0.4481-1.185,0.4452-0.8943,0.1071-1.88-0.2656-2.33-1.078-0.4515-0.7729-0.4254-1.72-0.2413-2.566,0.00495-0.6693-0.00996-1.34,0.00757-2.008,0.06804-0.1894,0.3173-0.1841,0.4841-0.1911zm1.739,1.893c-0.6057-0.0374-1.254,0.3309-1.378,0.9557-0.1614,0.6059,0.00784,1.365,0.6083,1.664,0.6581,0.3382,1.648,0.2613,2.038-0.4405,0.3326-0.6493,0.2276-1.622-0.4698-1.989-0.2433-0.1327-0.5235-0.19-0.799-0.1908zm5.233-0.6091c-0.4872-0.0283-0.8019,0.4468-0.8612,0.8804-0.07765,0.6903-0.06359,1.388-0.09882,2.082,0.1677,0.3124,0.4836,0.5813,0.8124,0.7372,0.4,0.1752,0.9407,0.077,1.14-0.3459,0.3275-0.6536,0.3182-1.425,0.2176-2.134-0.09032-0.5428-0.4276-1.137-1.026-1.206-0.06086-0.009-0.1225-0.014-0.184-0.0139z"/>
<path fill-rule="nonzero" fill="#000" d="m6.502,130.7c0.3019-0.0423,0.569,0.2274,0.5284,0.5265v4.273c0.7299,0.003,1.571-0.1368,2.026-0.7724,0.4493-0.6388,0.4236-1.477,0.2972-2.214-0.07694-0.4476-0.2687-0.8618-0.4172-1.286,0.01944-0.3652,0.5561-0.241,0.8071-0.2076,0.2904,0.1653,0.3355,0.5504,0.4431,0.8405,0.2774,1.036,0.3564,2.182-0.06032,3.192-0.3146,0.7713-1.027,1.328-1.823,1.538-0.9237,0.2454-1.917,0.2555-2.843,0.0185-0.8992-0.2289-1.721-0.8471-2.067-1.725-0.3042-0.7654-0.3162-1.645-0.05997-2.425,0.2912-0.8542,1.074-1.479,1.95-1.649,0.3991-0.0951,0.81-0.1157,1.219-0.1086zm-0.3596,1.218c-0.6828-0.0291-1.473,0.1782-1.828,0.8154-0.3499,0.6785-0.2867,1.602,0.2718,2.154,0.4066,0.4081,0.9912,0.5901,1.556,0.6123-0.0000067-1.194-0.0000133-2.388-0.00002-3.581z"/>
<path fill-rule="nonzero" fill="#000" d="m3.471,120.1c0.3871,0.0456,0.74,0.2301,1.109,0.3466,1.837,0.661,3.676,1.317,5.512,1.981,0.3079,0.187,0.1975,0.6148,0.2248,0.919-0.01203,0.2671,0.0095,0.6605-0.3167,0.7429-2.102,0.7502-4.201,1.507-6.304,2.253-0.446,0.2274-0.4753-0.3525-0.4378-0.6486-0.01947-0.2612,0.02839-0.5983,0.3415-0.6402,1.809-0.6186,3.617-1.239,5.426-1.857-0.8336-0.2639-1.658-0.5583-2.489-0.834-1.035-0.35-2.07-0.7006-3.105-1.05-0.2773-0.2304-0.1459-0.6604-0.1619-0.9785,0.01014-0.1092,0.07096-0.2429,0.2004-0.2347z"/>
<path fill-rule="nonzero" fill="#000" d="m6.715,112.8c1.094-0.007,2.279,0.3155,2.995,1.194,0.7161,0.8707,0.8279,2.091,0.5995,3.161-0.1834,0.8694-0.8142,1.624-1.647,1.94-0.9202,0.3548-1.947,0.3846-2.909,0.202-0.9404-0.1777-1.839-0.7466-2.254-1.631-0.4006-0.8301-0.4243-1.806-0.2178-2.693,0.2031-0.8512,0.845-1.57,1.665-1.874,0.5607-0.2219,1.169-0.2993,1.769-0.2998zm0.08073,1.277c-0.7767,0.0102-1.658,0.1205-2.206,0.7327-0.4778,0.5547-0.5158,1.378-0.295,2.049,0.2658,0.7466,1.056,1.137,1.8,1.229,0.7815,0.0927,1.618,0.0698,2.339-0.2747,0.6126-0.287,0.9752-0.9585,0.959-1.624,0.04442-0.6893-0.2816-1.414-0.9065-1.744-0.5107-0.2888-1.113-0.3635-1.691-0.3679z"/>
<path fill-rule="nonzero" fill="#000" d="m10.09,109.8c0.3493,0.1382,0.2024,0.6557,0.2046,0.9585,0.0048,0.2661-0.2593,0.2679-0.4527,0.2525h-9.557c-0.3606-0.1241-0.2079-0.6568-0.2119-0.9582-0.0002776-0.2638,0.2663-0.2686,0.46-0.2528h9.557z"/>
<path fill-rule="nonzero" fill="#000" d="m9.606,104.1c0.367-0.0606,0.6993,0.1764,0.7155,0.5615,0.1403,0.6736,0.1269,1.465-0.3408,2.014-0.5029,0.5454-1.307,0.576-1.999,0.5734h-3.682c-0.00466,0.3255,0.00947,0.6523-0.00734,0.977-0.2039,0.2774-0.7224,0.2475-0.9724,0.0467-0.05398-0.2661-0.01281-0.5468-0.02569-0.8192,0.01724-0.1382,0.01306-0.2551-0.1584-0.2046-0.4871-0.004-0.9753,0.009-1.462-0.007-0.2855-0.2037-0.1683-0.6442-0.1621-0.9516,0.00554-0.253,0.258-0.2722,0.4493-0.2528h1.333c0.00422-0.5833-0.00849-1.168,0.00644-1.75,0.1981-0.2747,0.7218-0.2477,0.9696-0.0441,0.06078,0.2214,0.01524,0.4629,0.02935,0.693v1.101c1.309-0.004,2.619,0.009,3.928-0.007,0.4084-0.0258,0.9482-0.1181,1.086-0.5717,0.1219-0.3788,0.00223-0.7759-0.1482-1.127-0.06853-0.2526,0.2943-0.2155,0.4394-0.2312z"/>
<path fill-rule="nonzero" fill="#000" d="m10.1,97.58c0.311,0.07767,0.2036,0.52,0.2078,0.7639,0.02205,0.2505-0.213,0.3068-0.4071,0.2782h-0.4612c0.6295,0.5751,1.043,1.419,0.9713,2.283-0.02258,0.7465-0.3581,1.551-1.063,1.889-0.7794,0.3766-1.838,0.2626-2.411-0.4255-0.5907-0.7159-0.7061-1.684-0.7259-2.58-0.00117-0.3352-0.0002318-0.6705-0.000532-1.006-0.5713,0.0075-1.215-0.06544-1.677,0.3412-0.4449,0.4365-0.4283,1.122-0.3511,1.694,0.09423,0.5411,0.3542,1.032,0.6143,1.508,0.1205,0.3879-0.4268,0.3784-0.675,0.3386-0.348-0.0676-0.4653-0.4596-0.6066-0.7376-0.3956-0.9652-0.4927-2.08-0.1536-3.076,0.2045-0.6102,0.756-1.062,1.384-1.181,0.6652-0.1441,1.349-0.07613,2.024-0.0921,1.11-0.000022,2.221-0.000045,3.331-0.000067zm-3.016,1.204c0.01771,0.6785-0.06119,1.371,0.1189,2.034,0.1161,0.4691,0.485,0.9144,0.9973,0.9385,0.5009,0.0753,1.049-0.2074,1.193-0.7112,0.2003-0.6144,0.00382-1.302-0.4271-1.77-0.1686-0.1636-0.3166-0.4132-0.5345-0.4909-0.4491-0.000006-0.8982-0.000013-1.347-0.000019z"/>
<path fill-rule="nonzero" fill="#000" d="m3.786,89.84c0.2972-0.05348,0.5606,0.1569,0.4844,0.4585v0.7377c0.5912-0.5754,1.533-0.5548,2.26-0.2789,0.9137,0.3563,1.381,1.37,1.372,2.307,0.00516,0.4856-0.08207,0.9997-0.3736,1.399,0.2699,0.3012,0.8562,0.4621,1.116,0.06238,0.2594-0.4111,0.1697-0.9156,0.2151-1.377,0.05462-0.8373-0.03091-1.741,0.4422-2.48,0.352-0.6097,1.112-0.8679,1.78-0.7187,0.8402,0.1402,1.448,0.8748,1.668,1.664,0.2691,0.9299,0.2571,1.932,0.06702,2.875-0.1483,0.6729-0.5296,1.421-1.272,1.563-0.69,0.18-1.42-0.13-1.855-0.68-0.248-0.5-0.368,0.31-0.717,0.36-0.659,0.32-1.434,0-1.927-0.48-0.325,0.14-0.748,0.45-1.185,0.45-0.894,0.11-1.88-0.27-2.33-1.08-0.451-0.77-0.425-1.72-0.241-2.57,0.00495-0.6693-0.00996-1.34,0.00757-2.008,0.06804-0.1894,0.3173-0.1841,0.4841-0.1911zm1.739,1.893c-0.6057-0.03736-1.254,0.3309-1.378,0.9557-0.1614,0.6059,0.00784,1.365,0.6083,1.664,0.6581,0.3382,1.648,0.2613,2.038-0.4405,0.334-0.64,0.229-1.61-0.468-1.98-0.244-0.13-0.524-0.19-0.799-0.19zm5.233-0.6091c-0.4872-0.0283-0.8019,0.4468-0.8612,0.8804-0.07765,0.6903-0.06359,1.388-0.09882,2.082,0.1677,0.3124,0.4836,0.5813,0.8124,0.7372,0.4,0.1752,0.9407,0.07698,1.14-0.3459,0.3275-0.6537,0.3182-1.425,0.2176-2.134-0.09032-0.5428-0.4276-1.137-1.026-1.206-0.06086-0.0094-0.1225-0.01401-0.184-0.0139z"/>
<path fill-rule="nonzero" fill="#000" d="m6.502,82.82c0.3019-0.04233,0.569,0.2274,0.5284,0.5265v4.273c0.7299,0.0026,1.571-0.1368,2.026-0.7724,0.4493-0.6387,0.4236-1.477,0.2972-2.214-0.07694-0.4476-0.2687-0.8618-0.4172-1.286,0.01944-0.3652,0.5561-0.241,0.8071-0.2075,0.2905,0.1652,0.3355,0.5503,0.4431,0.8404,0.2774,1.036,0.3564,2.182-0.06032,3.192-0.3146,0.7713-1.027,1.328-1.823,1.538-0.9237,0.2454-1.917,0.2555-2.843,0.01848-0.903-0.23-1.725-0.84-2.07-1.72-0.305-0.77-0.317-1.65-0.06-2.43,0.291-0.85,1.073-1.48,1.95-1.65,0.399-0.09,0.81-0.11,1.218-0.11zm-0.3596,1.218c-0.6828-0.02909-1.473,0.1783-1.828,0.8154-0.3499,0.6785-0.2867,1.602,0.2718,2.154,0.4066,0.4081,0.9912,0.5901,1.556,0.6123-0.0000067-1.194-0.0000133-2.388-0.00002-3.581z"/>
</svg>
