<!-- Created with Inkscape (http://www.inkscape.org/) -->
<svg xmlns:rdf="http://www.w3.org/1999/02/22-rdf-syntax-ns#" xmlns="http://www.w3.org/2000/svg" height="100%" width="100%" version="1.1" xmlns:cc="http://creativecommons.org/ns#" xmlns:dc="http://purl.org/dc/elements/1.1/" viewBox="0 0 259.59613 201.01789">
<metadata>
<rdf:RDF>
<cc:Work rdf:about="">
<dc:format>image/svg+xml</dc:format>
<dc:type rdf:resource="http://purl.org/dc/dcmitype/StillImage"/>
<dc:title/>
</cc:Work>
</rdf:RDF>
</metadata>
<text style="letter-spacing:0px;word-spacing:0px;" font-family="Sans" font-size="12px" line-height="125%" xml:space="preserve" font-style="normal" y="162.69984" x="231.34648" font-weight="normal" fill="#000000"><tspan font-family="Arial" font-style="normal" font-stretch="normal" font-variant="normal" y="162.69984" x="231.34648" font-weight="normal">Red</tspan></text>
<g stroke-linejoin="round" transform="matrix(0.60343357,0,0,0.44958855,404.34068,32.110371)" stroke="#5e5e5e" stroke-linecap="butt" stroke-width="1px" fill="#5e5e5e">
<path d="m-335.1,16.62-6.558,0.03944-0.1904,9.08,11.57,17.6,0,54.29,5.202,9.753,0,165.31981,6.502,0,0-167.21981,0.3251-6.502-2.276-2.926,0.3251-39.66,3.251-3.251-1.419-8.762-17.19-18.63z" transform="translate(-1.340074e-6,0)"/>
<path d="m-331,16.35,51.03-0.1904-0.2299,7.317-8.966,12.18-1.379,61.61-9.823,11.09,0,202.2-6.729,0,0-203.7,6.897-8.276,0-33.1-5.058-5.058-0.4598-17.93-10.34-2.069-14.48-15.17z" transform="translate(-1.340074e-6,0)"/>
<path d="m-346,16.79-3.678,0.2299,0.9195,71.72s-0.9195,11.49-0.9195,13.33c0,1.839,5.058,8.276,5.058,8.276v139.3h7.356v-141.2l0.9195-6.437-5.747-3.448c-1.381-3.871-0.5332-7.368-0.7094-11.06-0.2228-4.664-0.44-10.12-0.44-14l5.517-2.299-0.9195-3.678-5.977-3.218-0.9196-4.138,0.9196-5.977,3.218-3.218v-6.437l-1.839-4.598-2.759-4.598z"/>
<path d="m-275.6,15.78,3.678,0.2299-0.9195,71.72s0.9195,11.49,0.9195,13.33c0,1.839-5.058,8.276-5.058,8.276v140.6h-7.356v-142.4l-0.9195-6.437,5.747-3.448c1.381-3.871,0.5332-7.368,0.7094-11.06,0.2228-4.664,0.44-10.12,0.44-14l-5.517-2.299,0.9195-3.678,5.977-3.218,0.9196-4.138-0.9196-5.977-3.218-3.218v-6.437l1.839-4.598,2.759-4.598z"/>
</g>
<path d="m216.91198,1.5698983c-14.3,0-26.02,9.1019997-26.81,20.5599997-0.002,0.0091,0.002,0.02209,0,0.03125-0.002,0.03072,0.002,0.063,0,0.09375-0.009,0.06285-0.0311,0.1223-0.0312,0.1875v0.9375l-0.125,45.31c-1.808,0.0625-5.899,0.1875-9.375,0.1875-0.7781,0-1.406,0.6281-1.406,1.406v12.69c0,0.7781,0.6281,1.406,1.406,1.406h71.19c0.7781,0,1.406-0.6281,1.406-1.406v-12.69c0-0.7781-0.6906-1.688-1.469-1.688-0.4922-0.1793-4.636-0.199-8.25-0.1562l0.2812-44.81v-1.188c0.00042-0.06524-0.023-0.1246-0.0312-0.1875-0.003-0.05125,0.004-0.1051,0-0.1562-0.9-11.44-12.5-20.5199997-26.8-20.5199997z" fill-opacity="0.66666667" fill="#c5dfdf"/>
<path stroke-linejoin="miter" d="m49.291979,55.469498,3.121,0" stroke="#5e5e5e" stroke-linecap="butt" stroke-miterlimit="4" stroke-dasharray="none" stroke-width="2.03648877" fill="none"/>
<path stroke-linejoin="miter" d="m54.171979,55.469498,4.616,0" stroke="#5e5e5e" stroke-linecap="butt" stroke-miterlimit="4" stroke-dasharray="none" stroke-width="2.03648877" fill="none"/>
<path stroke-linejoin="miter" d="m60.731979,55.339498,31.28,0" stroke="#5e5e5e" stroke-linecap="butt" stroke-miterlimit="4" stroke-dasharray="none" stroke-width="2.03648877" fill="none"/>
<path stroke-linejoin="miter" d="m93.831979,55.219498,3.121,0" stroke="#5e5e5e" stroke-linecap="butt" stroke-miterlimit="4" stroke-dasharray="none" stroke-width="2.03648877" fill="none"/>
<path d="m108.01198,34.059498c-22.300001-24.03-42.770001-14.31-47.360001-12.89-4.585,1.423-11.54,6.957-11.54,6.957-6.733,5.692-9.613,12.52-10.83,22.21-0.9044,9.79-0.1202,13.51,4.032,22.21,1.782,3.676,11.92,15.31,19.68,17.47,4.26,1.436,7.531,2.775,15.18,2.53,10.34-0.9239,17.04-3.777,19.29-5.771,8.138001-6.239,11.210001-9.854,11.230001-9.882z" fill-opacity="0.66666667" fill="#c5dedf"/>
<path d="m99.511979,54.619498a26.04,26.04,0,1,1,-0.00001,-0.014" fill-opacity="0.66666667" fill-rule="evenodd" fill="#c5dedf"/>
<text style="letter-spacing:0px;word-spacing:0px;" font-family="Sans" font-size="12px" line-height="125%" xml:space="preserve" font-style="normal" y="96.072296" x="138.56462" font-weight="normal" fill="#000000"><tspan font-family="Arial" font-style="normal" font-stretch="normal" font-variant="normal" y="96.072296" x="138.56462" font-weight="normal">Anode (+)</tspan></text>
<path d="m198.11198,147.3695,0,6.094,1,0,0-6.094-1,0z" style="direction:ltr;enable-background:accumulate;baseline-shift:baseline;block-progression:tb;text-indent:0;color:#000000;text-transform:none;text-align:start;" fill="#000"/>
<path d="m198.61198,145.0695,2,3.46-4,0,2-3.46z" fill-rule="evenodd" stroke="#000" stroke-width="0.4pt"/>
<path style="direction:ltr;enable-background:accumulate;baseline-shift:baseline;block-progression:tb;text-indent:0;color:#000000;text-transform:none;text-align:start;" d="m209.51198,157.6695,0,9.16473,1,0,0-9.16473z" fill="#000"/>
<path d="m210.01198,155.3695,2,3.46-4,0,2-3.46z" fill-rule="evenodd" stroke="#000" stroke-width="0.4pt"/>
<path d="m234.31198,147.4695,0,6.094,1,0,0-6.094-1,0z" style="direction:ltr;enable-background:accumulate;baseline-shift:baseline;block-progression:tb;text-indent:0;color:#000000;text-transform:none;text-align:start;" fill="#000"/>
<path d="m234.81198,145.1695,2,3.46-4,0,2-3.46z" fill-rule="evenodd" stroke="#000" stroke-width="0.4pt"/>
<path stroke-linejoin="miter" style="marker-end:none;marker-start:none;" d="m161.71198,117.0695,0-20.170002" stroke-dashoffset="0" stroke="#000" stroke-linecap="butt" stroke-miterlimit="4" stroke-dasharray="none" stroke-width="1" fill="none"/>
<path d="m161.71198,103.5695,0,1,30.67353,0.0625,0-1z" style="direction:ltr;enable-background:accumulate;baseline-shift:baseline;block-progression:tb;text-indent:0;color:#000000;text-transform:none;text-align:start;" fill="#000"/>
<path d="m195.21198,104.0695-3.463,1.995,0.005-4,3.457,2.005z" fill-rule="evenodd" stroke="#000" stroke-width="0.4pt"/>
<path d="m203.94692,110.2695-42.29494,0.0937,0,1,42.29494-0.0937z" style="direction:ltr;enable-background:accumulate;baseline-shift:baseline;block-progression:tb;text-indent:0;color:#000000;text-transform:none;text-align:start;" fill="#000"/>
<path d="m207.01198,110.7695-3.454,2.01-0.0112-4,3.466,1.99z" fill-rule="evenodd" stroke="#000" stroke-width="0.4pt"/>
<path d="m161.61198,116.0695,0,1c20.37,0.1224,46.40847,0.2526,66.77847,0.375v-1c-20.37-0.1224-46.40847-0.2526-66.77847-0.375z" style="direction:ltr;enable-background:accumulate;baseline-shift:baseline;block-progression:tb;text-indent:0;color:#000000;text-transform:none;text-align:start;" fill="#000"/>
<path d="m232.01198,116.9695-3.472,1.979,0.024-4,3.448,2.021z" fill-rule="evenodd" stroke="#000" stroke-width="0.4pt"/>
<path d="m29.181979,18.819498-0.85,0.53,19.72,32.47,0.85-0.53-19.72-32.47z" style="direction:ltr;enable-background:accumulate;baseline-shift:baseline;block-progression:tb;text-indent:0;color:#000000;text-transform:none;text-align:start;" fill="#000"/>
<path d="m49.671979,53.519498-3.506-1.919,3.419-2.077,0.08704,3.996z" fill-rule="evenodd" stroke="#000" stroke-width="0.4pt"/>
<path d="m63.521979,18.949498-6.719,32,1,0.2188,6.719-32-1-0.2188z" style="direction:ltr;enable-background:accumulate;baseline-shift:baseline;block-progression:tb;text-indent:0;color:#000000;text-transform:none;text-align:start;" fill="#000"/>
<path d="m56.831979,53.309498-1.246-3.797,3.915,0.8223-2.669,2.975z" fill-rule="evenodd" stroke="#000" stroke-width="0.4pt"/>
<path d="m118.41198,17.849498-23.360001,32.22,0.82,0.59,23.440001-32.21-0.9-0.6z" style="direction:ltr;enable-background:accumulate;baseline-shift:baseline;block-progression:tb;text-indent:0;color:#000000;text-transform:none;text-align:start;" fill="#000"/>
<path d="m94.111979,52.229498,0.4147-3.975,3.237,2.35-3.651,1.625z" fill-rule="evenodd" stroke="#000" stroke-width="0.4pt"/>
<flowRoot style="letter-spacing:0px;word-spacing:0px;" line-height="125%" font-family="Sans" xml:space="preserve" transform="translate(5.8520234,2.5448288)" font-style="normal" font-size="12px" font-weight="normal" fill="#000000"><flowRegion><rect y="110" width="26.01" x="-2.276" height="15.28"/></flowRegion><flowPara/></flowRoot>
<text font-size="12px" font-family="Sans" style="letter-spacing:0px;word-spacing:0px;" line-height="125%" xml:space="preserve" font-style="normal" y="106.97536" x="4.6143212" font-weight="normal" fill="#000000"><tspan font-family="Arial" font-style="normal" font-stretch="normal" font-variant="normal" y="106.97536" x="4.6143212" font-weight="normal">Common Cathode (-)</tspan></text>
<text style="letter-spacing:0px;word-spacing:0px;" font-family="Sans" font-size="12px" line-height="125%" xml:space="preserve" font-style="normal" y="195.43274" x="137.94939" font-weight="normal" fill="#000000"><tspan font-family="Arial" font-style="normal" font-stretch="normal" font-variant="normal" y="195.43274" x="137.94939" font-weight="normal">Common Cathode</tspan></text>
<path d="m220.49323,175.132,0,11.46875,1,0,0-11.46875-1,0z" style="direction:ltr;enable-background:accumulate;baseline-shift:baseline;block-progression:tb;text-indent:0;color:#000000;text-transform:none;text-align:start;" fill="#000"/>
<path d="m220.99869,172.82337,2,3.46-4,0,2-3.46z" fill-rule="evenodd" stroke="#000" stroke-width="0.4pt"/>
<path d="m73.305729,60.475748,0,36.59375,1,0,0-36.59375-1,0z" style="direction:ltr;enable-background:accumulate;baseline-shift:baseline;block-progression:tb;text-indent:0;color:#000000;text-transform:none;text-align:start;" fill="#000"/>
<path d="m73.817201,58.158265,2,3.46-4,0,2-3.46z" fill-rule="evenodd" stroke="#000" stroke-width="0.4pt"/>
<g transform="translate(44.7696,45.407971)">
<text font-size="12px" font-family="Sans" style="letter-spacing:0px;word-spacing:0px;" line-height="125%" xml:space="preserve" font-style="normal" y="137.75694" x="179.73776" font-weight="normal" fill="#000000"><tspan font-family="Arial" font-style="normal" font-stretch="normal" font-variant="normal" y="137.75694" x="179.73776" font-weight="normal">(-)</tspan></text>
</g>
<text style="letter-spacing:0px;word-spacing:0px;" font-family="Sans" font-size="12px" line-height="125%" xml:space="preserve" font-style="normal" y="16.793112" x="4.3330712" font-weight="normal" fill="#000000"><tspan font-family="Arial" font-style="normal" font-stretch="normal" font-variant="normal" y="16.793112" x="4.3330712" font-weight="normal">Blue (+)</tspan></text>
<text style="letter-spacing:0px;word-spacing:0px;" font-family="Sans" font-size="12px" line-height="125%" xml:space="preserve" font-style="normal" y="16.793112" x="54.430981" font-weight="normal" fill="#000000"><tspan font-family="Arial" font-style="normal" font-stretch="normal" font-variant="normal" y="16.793112" x="54.430981" font-weight="normal">Green (+)</tspan></text>
<text style="letter-spacing:0px;word-spacing:0px;" font-family="Sans" font-size="12px" line-height="125%" xml:space="preserve" font-style="normal" y="16.793112" x="114.59237" font-weight="normal" fill="#000000"><tspan font-family="Arial" font-style="normal" font-stretch="normal" font-variant="normal" y="16.793112" x="114.59237" font-weight="normal">Red (+)</tspan></text>
<text style="letter-spacing:0px;word-spacing:0px;" font-family="Sans" font-size="12px" line-height="125%" xml:space="preserve" font-style="normal" y="160.93562" x="178.44429" font-weight="normal" fill="#000000"><tspan font-family="Arial" font-style="normal" font-stretch="normal" font-variant="normal" y="160.93562" x="178.44429" font-weight="normal">Blue</tspan></text>
<text style="letter-spacing:0px;word-spacing:0px;" font-family="Sans" font-size="12px" line-height="125%" xml:space="preserve" font-style="normal" y="173.98314" x="178.68452" font-weight="normal" fill="#000000"><tspan font-family="Arial" font-style="normal" font-stretch="normal" font-variant="normal" y="173.98314" x="178.68452" font-weight="normal">Green</tspan></text>
</svg>
