<?xml version='1.0' encoding='UTF-8' standalone='no'?>
<!-- Created with Fritzing (http://www.fritzing.org/) -->
<svg xmlns="http://www.w3.org/2000/svg" width="7.80817in" x="0in" version="1.2" y="0in"  height="4.20784in" viewBox="0 0 562.188 302.964" baseProfile="tiny" xmlns:svg="http://www.w3.org/2000/svg">
 <g  id="watermark">
  <g >
   <path fill="#8C8C8C"  d="M454.371,300.636L452.446,295.072L452.411,295.072c0.017,0.214,0.032,0.427,0.044,0.64c0.012,0.183,0.021,0.375,0.028,0.574c0.007,0.203,0.011,0.385,0.011,0.551l0,3.8L451.746,300.637L451.746,294.281l1.199,0l1.791,5.181l0.025,0l1.8,-5.181L457.761,294.281l0,6.354L456.952,300.635l0,-3.854c0,-0.15,0.003,-0.324,0.009,-0.518s0.013,-0.38,0.021,-0.557c0.012,-0.207,0.021,-0.416,0.029,-0.625L456.979,295.081L455.035,300.636L454.371,300.636z"/>
   <path fill="#8C8C8C"  d="M462.071,300.636l-0.16,-0.661l-0.035,0c-0.095,0.131,-0.19,0.243,-0.286,0.338c-0.095,0.095,-0.2,0.172,-0.313,0.231c-0.113,0.062,-0.239,0.106,-0.378,0.136c-0.141,0.028,-0.3,0.042,-0.482,0.042c-0.2,0,-0.384,-0.026,-0.552,-0.084c-0.168,-0.057,-0.314,-0.144,-0.438,-0.261c-0.122,-0.116,-0.219,-0.265,-0.288,-0.443S459.035,299.546,459.035,299.301c0,-0.475,0.167,-0.841,0.501,-1.095c0.335,-0.256,0.845,-0.394,1.528,-0.418l0.799,-0.029l0,-0.301c0,-0.193,-0.021,-0.356,-0.063,-0.486s-0.103,-0.234,-0.183,-0.314s-0.178,-0.138,-0.295,-0.172c-0.117,-0.035,-0.251,-0.052,-0.402,-0.052c-0.241,0,-0.464,0.034,-0.671,0.104c-0.207,0.068,-0.407,0.152,-0.597,0.25L459.373,296.195c0.214,-0.117,0.453,-0.217,0.717,-0.298c0.264,-0.079,0.54,-0.12,0.83,-0.12c0.296,0,0.551,0.029,0.768,0.09c0.216,0.059,0.395,0.151,0.534,0.28c0.141,0.13,0.247,0.294,0.316,0.494c0.07,0.199,0.104,0.44,0.104,0.726l0,3.269L462.071,300.636L462.071,300.636zM460.62,300.085c0.178,0,0.341,-0.028,0.491,-0.084c0.149,-0.055,0.282,-0.138,0.391,-0.249c0.11,-0.111,0.196,-0.252,0.258,-0.422c0.063,-0.17,0.094,-0.369,0.094,-0.599l0,-0.43l-0.621,0.03c-0.262,0.012,-0.48,0.041,-0.656,0.086c-0.175,0.047,-0.317,0.113,-0.423,0.193c-0.105,0.084,-0.183,0.185,-0.229,0.301c-0.046,0.117,-0.068,0.25,-0.068,0.398c0,0.268,0.069,0.462,0.211,0.586C460.207,300.022,460.391,300.085,460.62,300.085z"/>
   <path fill="#8C8C8C"  d="M467.053,299.997l-0.034,0c-0.063,0.099,-0.139,0.191,-0.224,0.281c-0.085,0.088,-0.184,0.165,-0.296,0.231c-0.111,0.066,-0.237,0.118,-0.376,0.156c-0.139,0.037,-0.295,0.056,-0.47,0.056c-0.271,0,-0.517,-0.051,-0.738,-0.154c-0.223,-0.105,-0.416,-0.262,-0.575,-0.469s-0.282,-0.464,-0.369,-0.771c-0.087,-0.309,-0.13,-0.664,-0.13,-1.069c0,-0.408,0.043,-0.767,0.13,-1.076c0.086,-0.31,0.209,-0.567,0.369,-0.774c0.159,-0.209,0.352,-0.367,0.575,-0.473c0.222,-0.105,0.469,-0.158,0.738,-0.158c0.171,0,0.327,0.02,0.466,0.057s0.264,0.088,0.376,0.152c0.112,0.063,0.211,0.137,0.297,0.221s0.163,0.172,0.227,0.266l0.052,0c-0.009,-0.1,-0.018,-0.191,-0.026,-0.283c-0.006,-0.074,-0.012,-0.152,-0.018,-0.232c-0.005,-0.078,-0.009,-0.143,-0.009,-0.188L467.018,293.873l0.792,0l0,6.763l-0.641,0L467.053,299.997zM465.805,300.068c0.221,0,0.407,-0.033,0.56,-0.102c0.151,-0.065,0.274,-0.168,0.37,-0.304c0.094,-0.136,0.163,-0.308,0.209,-0.512c0.044,-0.204,0.069,-0.442,0.076,-0.716l0,-0.177c0,-0.292,-0.02,-0.552,-0.059,-0.78c-0.04,-0.229,-0.105,-0.418,-0.2,-0.574c-0.094,-0.154,-0.219,-0.271,-0.376,-0.351c-0.156,-0.08,-0.352,-0.119,-0.586,-0.119c-0.391,0,-0.679,0.157,-0.861,0.474c-0.185,0.315,-0.277,0.771,-0.277,1.359c0,0.605,0.092,1.058,0.277,1.354C465.118,299.918,465.408,300.068,465.805,300.068z"/>
   <path fill="#8C8C8C"  d="M471.207,300.722c-0.318,0,-0.609,-0.053,-0.874,-0.16c-0.263,-0.106,-0.49,-0.264,-0.68,-0.469c-0.19,-0.207,-0.338,-0.461,-0.442,-0.766c-0.104,-0.306,-0.156,-0.651,-0.156,-1.045s0.049,-0.744,0.144,-1.055c0.096,-0.311,0.229,-0.574,0.405,-0.789c0.174,-0.216,0.382,-0.381,0.623,-0.492c0.241,-0.113,0.51,-0.17,0.802,-0.17c0.287,0,0.545,0.051,0.772,0.153c0.229,0.104,0.423,0.248,0.583,0.435c0.159,0.188,0.282,0.412,0.367,0.674c0.087,0.263,0.13,0.554,0.13,0.873l0,0.49l-3.008,0c0.015,0.559,0.133,0.971,0.354,1.234c0.222,0.263,0.551,0.396,0.987,0.396c0.149,0,0.285,-0.008,0.411,-0.021s0.248,-0.035,0.365,-0.063c0.118,-0.026,0.23,-0.063,0.342,-0.104s0.222,-0.089,0.334,-0.142l0,0.704c-0.116,0.055,-0.229,0.104,-0.341,0.144c-0.112,0.041,-0.226,0.074,-0.343,0.102c-0.117,0.024,-0.239,0.045,-0.365,0.056S471.356,300.722,471.207,300.722zM471.012,296.434c-0.331,0,-0.592,0.112,-0.783,0.339c-0.193,0.227,-0.307,0.555,-0.338,0.985l2.14,0c0,-0.196,-0.021,-0.378,-0.06,-0.541c-0.039,-0.164,-0.1,-0.304,-0.183,-0.419s-0.187,-0.205,-0.315,-0.27C471.345,296.464,471.192,296.434,471.012,296.434z"/>
   <path fill="#8C8C8C"  d="M480.021,300.636l-0.729,-2.678c-0.012,-0.053,-0.026,-0.111,-0.044,-0.176c-0.017,-0.065,-0.034,-0.136,-0.051,-0.207c-0.019,-0.072,-0.036,-0.146,-0.055,-0.223c-0.02,-0.074,-0.037,-0.148,-0.055,-0.222c-0.041,-0.169,-0.083,-0.341,-0.126,-0.521l-0.024,0c-0.041,0.182,-0.08,0.356,-0.117,0.524c-0.032,0.146,-0.066,0.294,-0.104,0.448c-0.037,0.152,-0.069,0.283,-0.103,0.391l-0.75,2.66l-0.917,0l-1.221,-4.771l0.83,0l0.57,2.539c0.029,0.129,0.059,0.27,0.086,0.423c0.028,0.151,0.057,0.303,0.082,0.452c0.026,0.148,0.05,0.288,0.07,0.421c0.02,0.132,0.037,0.238,0.049,0.322l0.025,0c0.015,-0.074,0.034,-0.177,0.059,-0.302c0.025,-0.126,0.052,-0.26,0.083,-0.399c0.031,-0.141,0.063,-0.28,0.093,-0.417c0.032,-0.139,0.063,-0.254,0.091,-0.351l0.778,-2.69l0.853,0l0.748,2.69c0.025,0.098,0.056,0.215,0.089,0.348c0.033,0.135,0.065,0.27,0.098,0.407c0.032,0.139,0.061,0.271,0.087,0.397c0.025,0.127,0.045,0.231,0.056,0.315l0.026,0c0.01,-0.074,0.022,-0.177,0.042,-0.302c0.02,-0.126,0.042,-0.265,0.067,-0.415c0.025,-0.149,0.054,-0.306,0.084,-0.464c0.03,-0.157,0.062,-0.306,0.094,-0.44L481.381,295.863l0.809,0l-1.234,4.771L480.021,300.634L480.021,300.636z"/>
   <path fill="#8C8C8C"  d="M482.976,294.573c0,-0.175,0.045,-0.3,0.133,-0.379c0.088,-0.078,0.197,-0.117,0.328,-0.117c0.063,0,0.123,0.011,0.181,0.028c0.056,0.019,0.104,0.049,0.147,0.089c0.042,0.041,0.075,0.092,0.101,0.154c0.023,0.063,0.037,0.137,0.037,0.224c0,0.168,-0.045,0.293,-0.138,0.376c-0.092,0.083,-0.2,0.123,-0.327,0.123c-0.131,0,-0.24,-0.04,-0.328,-0.12C483.022,294.87,482.976,294.743,482.976,294.573zM483.828,300.636l-0.791,0L483.037,295.863l0.791,0L483.828,300.636z"/>
   <path fill="#8C8C8C"  d="M486.784,300.075c0.052,0,0.111,-0.003,0.176,-0.01c0.066,-0.006,0.128,-0.013,0.189,-0.021c0.061,-0.009,0.116,-0.019,0.167,-0.031c0.051,-0.011,0.089,-0.021,0.115,-0.028l0,0.6c-0.037,0.017,-0.085,0.035,-0.144,0.052c-0.059,0.018,-0.122,0.033,-0.191,0.046c-0.068,0.015,-0.142,0.022,-0.217,0.03s-0.148,0.011,-0.221,0.011c-0.18,0,-0.347,-0.021,-0.5,-0.068c-0.153,-0.048,-0.286,-0.126,-0.397,-0.239c-0.111,-0.112,-0.198,-0.267,-0.263,-0.458c-0.063,-0.192,-0.095,-0.437,-0.095,-0.729L485.403,296.459l-0.674,0L484.729,296.107l0.673,-0.339l0.339,-0.999l0.456,0l0,1.096l1.199,0l0,0.596l-1.199,0l0,2.769c0,0.281,0.045,0.492,0.137,0.636C486.426,300.004,486.575,300.075,486.784,300.075z"/>
   <path fill="#8C8C8C"  d="M491.339,300.636l0,-3.073c0,-0.377,-0.076,-0.659,-0.228,-0.848c-0.152,-0.188,-0.391,-0.282,-0.715,-0.282c-0.234,0,-0.433,0.037,-0.592,0.111c-0.158,0.076,-0.286,0.188,-0.384,0.336c-0.097,0.148,-0.166,0.328,-0.208,0.544c-0.042,0.214,-0.063,0.461,-0.063,0.739l0,2.473l-0.791,0L488.358,293.873l0.791,0l0,2.008l-0.034,0.626l0.044,0c0.072,-0.124,0.158,-0.232,0.258,-0.323s0.209,-0.167,0.328,-0.229c0.118,-0.061,0.245,-0.104,0.378,-0.135c0.133,-0.027,0.27,-0.043,0.408,-0.043c0.531,0,0.93,0.139,1.198,0.416c0.268,0.275,0.401,0.719,0.401,1.326l0,3.117L491.339,300.636L491.339,300.636z"/>
  </g>
  <g >
   <path fill="#8C8C8C"  d="M513.099,300.62l-1.324,0L511.775,294.266l3.642,0l0,1.104l-2.316,0l0,1.639l2.156,0l0,1.1l-2.156,0L513.099,300.62L513.099,300.62z"/>
   <path fill="#8C8C8C"  d="M519.132,295.67c0.035,0,0.074,0.002,0.116,0.002c0.042,0.002,0.083,0.006,0.12,0.01c0.041,0.005,0.076,0.009,0.11,0.014c0.031,0.004,0.059,0.01,0.075,0.016l0,1.244c-0.022,-0.008,-0.056,-0.012,-0.095,-0.018c-0.04,-0.007,-0.083,-0.012,-0.128,-0.018c-0.045,-0.004,-0.09,-0.006,-0.133,-0.008c-0.044,-0.002,-0.08,-0.002,-0.108,-0.002c-0.171,0,-0.328,0.021,-0.472,0.064c-0.146,0.043,-0.269,0.113,-0.37,0.211s-0.183,0.225,-0.239,0.383c-0.057,0.157,-0.084,0.352,-0.084,0.581l0,2.474l-1.326,0L516.598,295.761l1.005,0l0.194,0.73l0.066,0c0.068,-0.125,0.145,-0.238,0.226,-0.34c0.081,-0.103,0.172,-0.189,0.272,-0.259c0.1,-0.071,0.212,-0.126,0.338,-0.165C518.825,295.69,518.971,295.67,519.132,295.67z"/>
   <path fill="#8C8C8C"  d="M520.45,294.505c0,-0.125,0.018,-0.228,0.056,-0.311c0.038,-0.084,0.089,-0.15,0.154,-0.2c0.065,-0.051,0.142,-0.086,0.229,-0.106c0.088,-0.02,0.184,-0.03,0.281,-0.03c0.099,0,0.191,0.01,0.277,0.03c0.088,0.02,0.164,0.055,0.229,0.106c0.066,0.05,0.117,0.116,0.156,0.2c0.04,0.083,0.059,0.186,0.059,0.311c0,0.122,-0.019,0.225,-0.059,0.309c-0.039,0.084,-0.09,0.151,-0.156,0.203c-0.063,0.05,-0.142,0.086,-0.229,0.108c-0.086,0.021,-0.18,0.032,-0.277,0.032c-0.099,0,-0.191,-0.012,-0.281,-0.032c-0.088,-0.021,-0.164,-0.059,-0.229,-0.108c-0.065,-0.051,-0.116,-0.119,-0.154,-0.203C520.469,294.73,520.45,294.627,520.45,294.505zM521.832,300.62l-1.325,0L520.507,295.761l1.325,0L521.832,300.62z"/>
   <path fill="#8C8C8C"  d="M525.241,299.651c0.13,0,0.254,-0.016,0.371,-0.045c0.117,-0.027,0.235,-0.064,0.357,-0.107l0,0.986c-0.124,0.063,-0.278,0.116,-0.463,0.157c-0.184,0.042,-0.385,0.063,-0.603,0.063c-0.211,0,-0.408,-0.024,-0.59,-0.073c-0.185,-0.05,-0.342,-0.137,-0.476,-0.259c-0.133,-0.123,-0.237,-0.288,-0.313,-0.495c-0.077,-0.208,-0.114,-0.468,-0.114,-0.781L523.41,296.756l-0.636,0L522.774,296.195l0.729,-0.443l0.383,-1.024l0.848,0l0,1.034l1.184,0l0,0.995l-1.184,0l0,2.343c0,0.188,0.048,0.327,0.141,0.417C524.968,299.606,525.09,299.651,525.241,299.651z"/>
   <path fill="#8C8C8C"  d="M530.114,300.62L526.541,300.62l0,-0.781l1.985,-3.064l-1.853,0L526.673,295.761l3.355,0l0,0.859l-1.92,2.985l2.004,0L530.114,300.62L530.114,300.62z"/>
   <path fill="#8C8C8C"  d="M531.053,294.505c0,-0.125,0.02,-0.228,0.057,-0.311c0.038,-0.084,0.09,-0.15,0.153,-0.2c0.065,-0.051,0.144,-0.086,0.23,-0.106s0.182,-0.03,0.28,-0.03c0.098,0,0.19,0.01,0.277,0.03c0.088,0.02,0.164,0.055,0.229,0.106c0.064,0.05,0.117,0.116,0.156,0.2c0.038,0.083,0.059,0.186,0.059,0.311c0,0.122,-0.021,0.225,-0.059,0.309c-0.039,0.084,-0.092,0.151,-0.156,0.203c-0.064,0.05,-0.143,0.086,-0.229,0.108c-0.086,0.021,-0.18,0.032,-0.277,0.032c-0.099,0,-0.192,-0.012,-0.28,-0.032c-0.088,-0.021,-0.165,-0.059,-0.23,-0.108c-0.063,-0.051,-0.115,-0.119,-0.153,-0.203C531.072,294.73,531.053,294.627,531.053,294.505zM532.435,300.62L531.111,300.62L531.111,295.761l1.324,0L532.435,300.62z"/>
   <path fill="#8C8C8C"  d="M538.085,300.62L536.761,300.62l0,-2.839c0,-0.351,-0.053,-0.613,-0.158,-0.787c-0.105,-0.176,-0.274,-0.265,-0.508,-0.265c-0.173,0,-0.317,0.035,-0.434,0.104c-0.116,0.07,-0.209,0.173,-0.276,0.31c-0.066,0.136,-0.115,0.304,-0.146,0.504c-0.029,0.2,-0.043,0.429,-0.043,0.687l0,2.286L533.871,300.62L533.871,295.761l1.012,0l0.181,0.621l0.073,0c0.069,-0.124,0.153,-0.23,0.253,-0.321c0.102,-0.089,0.21,-0.163,0.328,-0.221s0.245,-0.103,0.378,-0.128c0.136,-0.028,0.271,-0.043,0.409,-0.043c0.237,0,0.454,0.033,0.647,0.104c0.194,0.067,0.36,0.174,0.5,0.318c0.141,0.146,0.247,0.328,0.321,0.555c0.075,0.225,0.113,0.492,0.113,0.807l0,3.168L538.085,300.62L538.085,300.62z"/>
   <path fill="#8C8C8C"  d="M543.515,295.77l0,0.722l-0.708,0.221c0.059,0.1,0.1,0.201,0.122,0.308c0.021,0.106,0.033,0.22,0.033,0.343c0,0.246,-0.039,0.471,-0.116,0.676c-0.078,0.203,-0.193,0.379,-0.349,0.522c-0.152,0.146,-0.346,0.258,-0.578,0.337c-0.23,0.08,-0.5,0.119,-0.808,0.119c-0.067,0,-0.141,-0.003,-0.218,-0.012c-0.078,-0.007,-0.137,-0.015,-0.175,-0.021c-0.057,0.049,-0.104,0.101,-0.137,0.152c-0.033,0.054,-0.049,0.117,-0.049,0.193c0,0.061,0.018,0.108,0.056,0.146s0.087,0.065,0.147,0.087c0.06,0.022,0.133,0.036,0.214,0.044s0.165,0.012,0.251,0.012l0.756,0c0.236,0,0.446,0.025,0.631,0.081c0.186,0.055,0.342,0.135,0.472,0.246c0.129,0.109,0.229,0.249,0.299,0.419c0.069,0.169,0.104,0.372,0.104,0.605c0,0.275,-0.054,0.523,-0.164,0.745c-0.109,0.224,-0.274,0.41,-0.494,0.565c-0.219,0.154,-0.488,0.273,-0.813,0.355c-0.324,0.082,-0.699,0.123,-1.126,0.123c-0.329,0,-0.618,-0.031,-0.864,-0.094c-0.247,-0.063,-0.451,-0.15,-0.617,-0.27c-0.165,-0.116,-0.288,-0.258,-0.371,-0.424c-0.084,-0.164,-0.125,-0.353,-0.125,-0.561c0,-0.177,0.031,-0.33,0.093,-0.46c0.061,-0.131,0.143,-0.243,0.243,-0.336c0.102,-0.093,0.218,-0.168,0.347,-0.227c0.129,-0.058,0.262,-0.103,0.396,-0.134c-0.061,-0.026,-0.12,-0.063,-0.181,-0.109c-0.059,-0.047,-0.113,-0.1,-0.161,-0.159c-0.047,-0.063,-0.086,-0.129,-0.116,-0.203c-0.031,-0.072,-0.047,-0.15,-0.047,-0.23c0,-0.093,0.015,-0.178,0.04,-0.252c0.029,-0.076,0.068,-0.146,0.12,-0.212c0.052,-0.064,0.117,-0.126,0.196,-0.184c0.078,-0.06,0.166,-0.117,0.264,-0.18c-0.254,-0.11,-0.456,-0.287,-0.604,-0.53c-0.15,-0.244,-0.225,-0.529,-0.225,-0.859c0,-0.26,0.04,-0.494,0.121,-0.699c0.081,-0.207,0.2,-0.381,0.356,-0.523c0.155,-0.144,0.35,-0.252,0.582,-0.328c0.231,-0.076,0.499,-0.113,0.801,-0.113c0.057,0,0.122,0.004,0.194,0.012s0.145,0.018,0.216,0.025c0.07,0.01,0.137,0.021,0.196,0.033c0.061,0.01,0.109,0.021,0.146,0.029L543.515,295.77L543.515,295.77zM540.038,301.307c0,0.073,0.017,0.145,0.047,0.211c0.03,0.068,0.08,0.129,0.15,0.182c0.068,0.052,0.16,0.094,0.272,0.124c0.113,0.03,0.252,0.046,0.417,0.046c0.452,0,0.792,-0.063,1.021,-0.191c0.229,-0.127,0.343,-0.298,0.343,-0.514c0,-0.183,-0.07,-0.304,-0.213,-0.364c-0.143,-0.06,-0.361,-0.091,-0.66,-0.091l-0.613,0c-0.077,0,-0.162,0.009,-0.252,0.027c-0.09,0.018,-0.172,0.052,-0.248,0.099c-0.075,0.046,-0.139,0.108,-0.188,0.184S540.038,301.192,540.038,301.307zM540.517,297.352c0,0.263,0.049,0.468,0.147,0.612c0.098,0.146,0.248,0.217,0.447,0.217c0.209,0,0.358,-0.07,0.451,-0.217c0.094,-0.145,0.14,-0.35,0.14,-0.612c0,-0.261,-0.046,-0.468,-0.137,-0.622c-0.092,-0.152,-0.243,-0.229,-0.454,-0.229C540.714,296.5,540.517,296.783,540.517,297.352z"/>
   <path fill="#8C8C8C"  d="M544.265,299.999c0,-0.136,0.02,-0.251,0.059,-0.346c0.04,-0.095,0.094,-0.172,0.163,-0.229c0.069,-0.058,0.149,-0.101,0.244,-0.126c0.092,-0.026,0.191,-0.039,0.299,-0.039c0.102,0,0.198,0.013,0.289,0.039c0.092,0.025,0.172,0.068,0.242,0.126c0.068,0.057,0.123,0.134,0.163,0.229c0.041,0.095,0.062,0.21,0.062,0.346c0,0.13,-0.021,0.242,-0.062,0.335c-0.04,0.093,-0.095,0.17,-0.163,0.229c-0.07,0.062,-0.15,0.104,-0.242,0.133c-0.091,0.027,-0.188,0.042,-0.289,0.042c-0.106,0,-0.207,-0.015,-0.299,-0.042c-0.095,-0.027,-0.175,-0.071,-0.244,-0.133c-0.069,-0.061,-0.123,-0.138,-0.163,-0.229C544.283,300.241,544.265,300.129,544.265,299.999z"/>
   <path fill="#8C8C8C"  d="M551.224,298.181c0,0.406,-0.052,0.767,-0.153,1.079c-0.104,0.313,-0.251,0.576,-0.443,0.79c-0.192,0.215,-0.428,0.378,-0.704,0.489c-0.277,0.111,-0.587,0.167,-0.933,0.167c-0.321,0,-0.617,-0.056,-0.886,-0.167c-0.271,-0.112,-0.503,-0.274,-0.698,-0.489c-0.195,-0.214,-0.35,-0.479,-0.458,-0.79c-0.11,-0.313,-0.165,-0.673,-0.165,-1.079c0,-0.402,0.051,-0.76,0.154,-1.072c0.103,-0.314,0.25,-0.576,0.442,-0.789C547.572,296.106,547.806,295.945,548.081,295.836s0.587,-0.164,0.937,-0.164c0.319,0,0.615,0.055,0.886,0.164c0.27,0.111,0.502,0.271,0.695,0.484c0.197,0.213,0.351,0.477,0.459,0.789C551.168,297.421,551.224,297.779,551.224,298.181zM548.138,298.181c0,0.484,0.068,0.851,0.205,1.093c0.137,0.246,0.357,0.368,0.664,0.368c0.306,0,0.524,-0.123,0.66,-0.37c0.137,-0.245,0.205,-0.608,0.205,-1.091s-0.068,-0.846,-0.205,-1.084c-0.136,-0.238,-0.358,-0.357,-0.668,-0.357c-0.305,0,-0.523,0.119,-0.659,0.357C548.205,297.336,548.138,297.699,548.138,298.181z"/>
   <path fill="#8C8C8C"  d="M554.944,295.67c0.035,0,0.073,0.002,0.115,0.002c0.042,0.002,0.083,0.006,0.12,0.01c0.04,0.005,0.076,0.009,0.109,0.014c0.033,0.004,0.059,0.01,0.076,0.016l0,1.244c-0.023,-0.008,-0.055,-0.012,-0.095,-0.018c-0.041,-0.007,-0.083,-0.012,-0.13,-0.018c-0.045,-0.004,-0.089,-0.006,-0.132,-0.008c-0.045,-0.002,-0.08,-0.002,-0.108,-0.002c-0.171,0,-0.328,0.021,-0.473,0.064c-0.144,0.043,-0.267,0.113,-0.37,0.211c-0.102,0.098,-0.182,0.225,-0.237,0.383c-0.058,0.157,-0.084,0.352,-0.084,0.581l0,2.474l-1.326,0L552.409,295.761l1.004,0l0.195,0.73l0.065,0c0.068,-0.125,0.146,-0.238,0.226,-0.34c0.081,-0.103,0.172,-0.189,0.271,-0.259c0.101,-0.071,0.213,-0.126,0.339,-0.165C554.638,295.69,554.782,295.67,554.944,295.67z"/>
   <path fill="#8C8C8C"  d="M560.252,295.77l0,0.722l-0.708,0.221c0.058,0.1,0.099,0.201,0.121,0.308s0.034,0.22,0.034,0.343c0,0.246,-0.039,0.471,-0.116,0.676c-0.079,0.203,-0.194,0.379,-0.349,0.522c-0.153,0.146,-0.348,0.258,-0.578,0.337c-0.232,0.08,-0.501,0.119,-0.809,0.119c-0.067,0,-0.141,-0.003,-0.219,-0.012c-0.078,-0.007,-0.135,-0.015,-0.173,-0.021c-0.058,0.049,-0.104,0.101,-0.137,0.152c-0.034,0.054,-0.05,0.117,-0.05,0.193c0,0.061,0.019,0.108,0.057,0.146c0.037,0.037,0.086,0.065,0.146,0.087c0.062,0.021,0.133,0.036,0.215,0.044c0.08,0.008,0.164,0.012,0.251,0.012l0.756,0c0.234,0,0.445,0.025,0.63,0.081c0.186,0.055,0.343,0.135,0.472,0.246c0.129,0.109,0.229,0.249,0.298,0.419c0.07,0.169,0.104,0.372,0.104,0.605c0,0.275,-0.054,0.523,-0.165,0.745c-0.109,0.224,-0.275,0.41,-0.493,0.565c-0.219,0.154,-0.489,0.273,-0.815,0.355c-0.323,0.082,-0.698,0.123,-1.125,0.123c-0.329,0,-0.617,-0.031,-0.864,-0.094c-0.246,-0.063,-0.451,-0.15,-0.617,-0.27c-0.164,-0.116,-0.287,-0.258,-0.371,-0.424c-0.083,-0.164,-0.124,-0.353,-0.124,-0.561c0,-0.177,0.03,-0.33,0.091,-0.46c0.063,-0.131,0.144,-0.243,0.244,-0.336c0.103,-0.093,0.217,-0.168,0.346,-0.227c0.129,-0.058,0.263,-0.103,0.398,-0.134c-0.062,-0.026,-0.121,-0.063,-0.182,-0.109c-0.06,-0.047,-0.113,-0.1,-0.16,-0.159c-0.047,-0.063,-0.087,-0.129,-0.117,-0.203c-0.03,-0.073,-0.045,-0.151,-0.045,-0.231c0,-0.093,0.014,-0.178,0.04,-0.252c0.027,-0.076,0.067,-0.146,0.12,-0.212c0.051,-0.064,0.117,-0.126,0.194,-0.184c0.078,-0.06,0.166,-0.117,0.266,-0.18c-0.255,-0.109,-0.456,-0.287,-0.606,-0.529c-0.148,-0.244,-0.223,-0.531,-0.223,-0.861c0,-0.26,0.039,-0.493,0.121,-0.698c0.081,-0.207,0.199,-0.382,0.354,-0.524c0.156,-0.143,0.351,-0.252,0.583,-0.328c0.231,-0.074,0.499,-0.111,0.8,-0.111c0.059,0,0.123,0.003,0.195,0.011s0.146,0.017,0.215,0.026c0.072,0.009,0.138,0.021,0.198,0.031c0.062,0.012,0.108,0.021,0.145,0.03L560.252,295.769L560.252,295.77zM556.776,301.307c0,0.073,0.017,0.145,0.046,0.211c0.031,0.068,0.081,0.129,0.149,0.182c0.07,0.052,0.161,0.094,0.273,0.124c0.114,0.03,0.252,0.046,0.418,0.046c0.451,0,0.792,-0.063,1.021,-0.191c0.229,-0.127,0.343,-0.298,0.343,-0.514c0,-0.183,-0.071,-0.304,-0.214,-0.364s-0.361,-0.091,-0.66,-0.091l-0.612,0c-0.079,0,-0.163,0.009,-0.252,0.027c-0.09,0.019,-0.173,0.052,-0.248,0.099c-0.076,0.046,-0.139,0.108,-0.188,0.184C556.802,301.094,556.776,301.192,556.776,301.307zM557.253,297.352c0,0.263,0.049,0.468,0.148,0.612c0.099,0.146,0.248,0.217,0.447,0.217c0.209,0,0.358,-0.07,0.451,-0.217c0.094,-0.145,0.141,-0.35,0.141,-0.612c0,-0.261,-0.046,-0.468,-0.138,-0.622c-0.092,-0.152,-0.243,-0.229,-0.454,-0.229C557.451,296.5,557.253,296.783,557.253,297.352z"/>
  </g>
  <g >
   <path fill="#8C8C8C"  d="M505.846,292.89l-8.146,0c-0.532,0,-0.965,0.432,-0.965,0.964l0,8.146c0,0.531,0.433,0.964,0.965,0.964l5.55,0l3.557,-3.558L506.807,293.854C506.81,293.321,506.378,292.89,505.846,292.89zM504.169,296.619l-1.075,0l0,0.401l1.075,0l0,1.601l-2.196,0l0,2.058l-2.572,0l0,-4.67l0.988,-0.99l3.779,0l0,1.603l0.001,0L504.169,296.619z"/>
  </g>
 </g>
 <g partID="102790">
  <g transform="translate(338.228,110.198)">
   <g transform="matrix(0,1,-1,0,0,0)">
    <g  id="breadboardbreadboard">
     <g  id="background">
      <rect width="129.839" x="0" fill="#D9D9D9"  height="100.914"/>
     </g>
     <rect width="90.5" x="19.67" y="46.83" fill="#CCC9C9"  height="7.252"/>
     <g  id="sockets" transform="matrix(1, 0, 0, 1, -4.5, -9)">
      <g  id="A1pin">
       <path fill="#BFBFBF"  d="M9.427,19.858c0,-1.322,1.071,-2.396,2.395,-2.396s2.394,1.072,2.394,2.396"/>
       <path fill="#E6E6E6"  d="M14.214,19.858c0,1.319,-1.07,2.393,-2.394,2.393s-2.395,-1.072,-2.395,-2.393"/>
       <circle fill="#383838" cx="11.822"  cy="19.857" r="1.196"/>
      </g>
      <g  id="B1pin">
       <path fill="#BFBFBF"  d="M9.427,27.058c0,-1.322,1.071,-2.396,2.395,-2.396s2.394,1.071,2.394,2.396"/>
       <path fill="#E6E6E6"  d="M14.214,27.058c0,1.321,-1.07,2.393,-2.394,2.393s-2.395,-1.07,-2.395,-2.393l0,0"/>
       <circle fill="#383838" cx="11.822"  cy="27.057" r="1.197"/>
      </g>
      <g  id="C1pin">
       <path fill="#BFBFBF"  d="M9.427,34.256c0,-1.319,1.071,-2.394,2.395,-2.394s2.394,1.072,2.394,2.394"/>
       <path fill="#E6E6E6"  d="M14.214,34.256c0,1.322,-1.07,2.396,-2.394,2.396s-2.395,-1.072,-2.395,-2.396"/>
       <circle fill="#383838" cx="11.822"  cy="34.257" r="1.196"/>
      </g>
      <g  id="D1pin">
       <path fill="#BFBFBF"  d="M9.427,41.457c0,-1.322,1.071,-2.396,2.395,-2.396s2.394,1.072,2.394,2.396"/>
       <path fill="#E6E6E6"  d="M14.214,41.457c0,1.321,-1.07,2.394,-2.394,2.394s-2.395,-1.07,-2.395,-2.394l0,0"/>
       <circle fill="#383838" cx="11.822"  cy="41.457" r="1.197"/>
      </g>
      <g  id="E1pin">
       <path fill="#BFBFBF"  d="M9.427,48.657c0,-1.322,1.071,-2.394,2.395,-2.394s2.394,1.07,2.394,2.394"/>
       <path fill="#E6E6E6"  d="M14.214,48.657c0,1.322,-1.07,2.395,-2.394,2.395s-2.395,-1.072,-2.395,-2.395l0,0"/>
       <circle fill="#383838" cx="11.822"  cy="48.657" r="1.197"/>
      </g>
      <g  id="A2pin">
       <path fill="#BFBFBF"  d="M16.627,19.858c0,-1.322,1.071,-2.396,2.395,-2.396c1.32,0,2.394,1.072,2.394,2.396"/>
       <path fill="#E6E6E6"  d="M21.414,19.858c0,1.319,-1.07,2.393,-2.393,2.395c-1.322,0,-2.396,-1.07,-2.396,-2.393c0,-0.002,0,-0.002,0,-0.002"/>
       <circle fill="#383838" cx="19.022"  cy="19.857" r="1.196"/>
      </g>
      <g  id="B2pin">
       <path fill="#BFBFBF"  d="M16.627,27.058c0,-1.322,1.071,-2.396,2.395,-2.396c1.32,0,2.394,1.071,2.394,2.396"/>
       <path fill="#E6E6E6"  d="M21.414,27.058c0,1.321,-1.07,2.395,-2.393,2.395c-1.322,0.002,-2.396,-1.07,-2.396,-2.393l0,-0.002"/>
       <circle fill="#383838" cx="19.022"  cy="27.057" r="1.197"/>
      </g>
      <g  id="C2pin">
       <path fill="#BFBFBF"  d="M16.627,34.256c0,-1.319,1.071,-2.394,2.395,-2.394c1.32,0,2.394,1.072,2.394,2.394"/>
       <path fill="#E6E6E6"  d="M21.414,34.256c0,1.322,-1.07,2.396,-2.393,2.396s-2.396,-1.069,-2.396,-2.393c0,-0.002,0,-0.002,0,-0.004"/>
       <circle fill="#383838" cx="19.022"  cy="34.257" r="1.196"/>
      </g>
      <g  id="D2pin">
       <path fill="#BFBFBF"  d="M16.627,41.457c0,-1.322,1.071,-2.396,2.395,-2.396c1.32,0,2.394,1.072,2.394,2.396"/>
       <path fill="#E6E6E6"  d="M21.414,41.457c0,1.321,-1.07,2.396,-2.393,2.396c-1.323,0,-2.396,-1.07,-2.396,-2.394l0,-0.002"/>
       <circle fill="#383838" cx="19.022"  cy="41.457" r="1.197"/>
      </g>
      <g  id="E2pin">
       <path fill="#BFBFBF"  d="M16.627,48.657c0,-1.322,1.071,-2.394,2.395,-2.394c1.32,0,2.394,1.07,2.394,2.394"/>
       <path fill="#E6E6E6"  d="M21.414,48.657c0,1.322,-1.07,2.395,-2.393,2.395c-1.322,0.002,-2.396,-1.07,-2.396,-2.391c0,-0.002,0,-0.002,0,-0.004"/>
       <circle fill="#383838" cx="19.022"  cy="48.657" r="1.197"/>
      </g>
      <g  id="A3pin">
       <path fill="#BFBFBF"  d="M23.826,19.858c0,-1.322,1.072,-2.396,2.395,-2.396c1.321,0,2.395,1.072,2.395,2.396"/>
       <path fill="#E6E6E6"  d="M28.615,19.858c0,1.319,-1.072,2.393,-2.395,2.393c-1.321,0,-2.395,-1.072,-2.395,-2.393l0,0"/>
       <circle fill="#383838" cx="26.221"  cy="19.857" r="1.196"/>
      </g>
      <g  id="B3pin">
       <path fill="#BFBFBF"  d="M23.826,27.058c0,-1.322,1.072,-2.396,2.395,-2.396c1.321,0,2.395,1.071,2.395,2.396"/>
       <path fill="#E6E6E6"  d="M28.615,27.058c0,1.321,-1.072,2.393,-2.395,2.393c-1.321,0,-2.395,-1.07,-2.395,-2.393"/>
       <circle fill="#383838" cx="26.221"  cy="27.057" r="1.197"/>
      </g>
      <g  id="C3pin">
       <path fill="#BFBFBF"  d="M23.826,34.256c0,-1.319,1.072,-2.394,2.395,-2.394c1.321,0,2.395,1.072,2.395,2.394"/>
       <path fill="#E6E6E6"  d="M28.615,34.256c0,1.322,-1.072,2.396,-2.395,2.396c-1.321,0,-2.395,-1.072,-2.395,-2.396l0,0"/>
       <circle fill="#383838" cx="26.221"  cy="34.257" r="1.196"/>
      </g>
      <g  id="D3pin">
       <path fill="#BFBFBF"  d="M23.826,41.457c0,-1.322,1.072,-2.396,2.395,-2.396c1.321,0,2.395,1.072,2.395,2.396"/>
       <path fill="#E6E6E6"  d="M28.615,41.457c0,1.321,-1.072,2.394,-2.395,2.394c-1.321,0,-2.395,-1.07,-2.395,-2.394"/>
       <circle fill="#383838" cx="26.221"  cy="41.457" r="1.197"/>
      </g>
      <g  id="E3pin">
       <path fill="#BFBFBF"  d="M23.826,48.657c0,-1.322,1.072,-2.394,2.395,-2.394c1.321,0,2.395,1.07,2.395,2.394"/>
       <path fill="#E6E6E6"  d="M28.615,48.657c0,1.322,-1.072,2.395,-2.395,2.395c-1.321,0,-2.395,-1.072,-2.395,-2.395"/>
       <circle fill="#383838" cx="26.221"  cy="48.657" r="1.197"/>
      </g>
      <g  id="A4pin">
       <path fill="#BFBFBF"  d="M31.028,19.858c0,-1.322,1.072,-2.396,2.394,-2.396c1.322,0,2.395,1.072,2.395,2.396"/>
       <path fill="#E6E6E6"  d="M35.815,19.858c0,1.319,-1.071,2.393,-2.395,2.393c-1.32,0,-2.394,-1.072,-2.394,-2.393l0,0"/>
       <circle fill="#383838" cx="33.42"  cy="19.857" r="1.196"/>
      </g>
      <g  id="B4pin">
       <path fill="#BFBFBF"  d="M31.028,27.058c0,-1.322,1.072,-2.396,2.394,-2.396c1.322,0,2.395,1.071,2.395,2.396"/>
       <path fill="#E6E6E6"  d="M35.815,27.058c0,1.321,-1.071,2.393,-2.395,2.393c-1.32,0,-2.394,-1.07,-2.394,-2.393"/>
       <circle fill="#383838" cx="33.42"  cy="27.057" r="1.197"/>
      </g>
      <g  id="C4pin">
       <path fill="#BFBFBF"  d="M31.028,34.256c0,-1.319,1.072,-2.394,2.394,-2.394c1.322,0,2.395,1.072,2.395,2.394"/>
       <path fill="#E6E6E6"  d="M35.815,34.256c0,1.322,-1.071,2.396,-2.395,2.396c-1.32,0,-2.394,-1.072,-2.394,-2.396l0,0"/>
       <circle fill="#383838" cx="33.42"  cy="34.257" r="1.196"/>
      </g>
      <g  id="D4pin">
       <path fill="#BFBFBF"  d="M31.028,41.457c0,-1.322,1.072,-2.396,2.394,-2.396c1.322,0,2.395,1.072,2.395,2.396"/>
       <path fill="#E6E6E6"  d="M35.815,41.457c0,1.321,-1.071,2.394,-2.395,2.394c-1.32,0,-2.394,-1.07,-2.394,-2.394"/>
       <circle fill="#383838" cx="33.42"  cy="41.457" r="1.197"/>
      </g>
      <g  id="E4pin">
       <path fill="#BFBFBF"  d="M31.028,48.657c0,-1.322,1.072,-2.394,2.394,-2.394c1.322,0,2.395,1.07,2.395,2.394"/>
       <path fill="#E6E6E6"  d="M35.815,48.657c0,1.322,-1.071,2.395,-2.395,2.395c-1.32,0,-2.394,-1.072,-2.394,-2.395"/>
       <circle fill="#383838" cx="33.42"  cy="48.657" r="1.197"/>
      </g>
      <g  id="A5pin">
       <path fill="#BFBFBF"  d="M38.228,19.858c0,-1.322,1.07,-2.396,2.394,-2.396s2.395,1.072,2.395,2.396"/>
       <path fill="#E6E6E6"  d="M43.015,19.858c0,1.319,-1.071,2.393,-2.395,2.393s-2.394,-1.072,-2.394,-2.393l0,0"/>
       <circle fill="#383838" cx="40.62"  cy="19.857" r="1.196"/>
      </g>
      <g  id="B5pin">
       <path fill="#BFBFBF"  d="M38.228,27.058c0,-1.322,1.07,-2.396,2.394,-2.396s2.395,1.071,2.395,2.396"/>
       <path fill="#E6E6E6"  d="M43.015,27.058c0,1.321,-1.071,2.393,-2.395,2.393s-2.394,-1.07,-2.394,-2.393"/>
       <circle fill="#383838" cx="40.62"  cy="27.057" r="1.197"/>
      </g>
      <g  id="C5pin">
       <path fill="#BFBFBF"  d="M38.228,34.256c0,-1.319,1.07,-2.394,2.394,-2.394s2.395,1.072,2.395,2.394"/>
       <path fill="#E6E6E6"  d="M43.015,34.256c0,1.322,-1.071,2.396,-2.395,2.396s-2.394,-1.072,-2.394,-2.396l0,0"/>
       <circle fill="#383838" cx="40.62"  cy="34.257" r="1.196"/>
      </g>
      <g  id="D5pin">
       <path fill="#BFBFBF"  d="M38.228,41.457c0,-1.322,1.07,-2.396,2.394,-2.396s2.395,1.072,2.395,2.396"/>
       <path fill="#E6E6E6"  d="M43.015,41.457c0,1.321,-1.071,2.394,-2.395,2.394s-2.394,-1.07,-2.394,-2.394"/>
       <circle fill="#383838" cx="40.62"  cy="41.457" r="1.197"/>
      </g>
      <g  id="E5pin">
       <path fill="#BFBFBF"  d="M38.228,48.657c0,-1.322,1.07,-2.394,2.394,-2.394s2.395,1.07,2.395,2.394"/>
       <path fill="#E6E6E6"  d="M43.015,48.657c0,1.322,-1.071,2.395,-2.395,2.395s-2.394,-1.072,-2.394,-2.395"/>
       <circle fill="#383838" cx="40.62"  cy="48.657" r="1.197"/>
      </g>
      <g  id="A6pin">
       <path fill="#BFBFBF"  d="M45.427,19.858c0,-1.322,1.071,-2.396,2.395,-2.396s2.394,1.072,2.394,2.396"/>
       <path fill="#E6E6E6"  d="M50.214,19.858c0,1.319,-1.07,2.393,-2.394,2.393s-2.395,-1.072,-2.395,-2.393l0,0"/>
       <circle fill="#383838" cx="47.822"  cy="19.857" r="1.196"/>
      </g>
      <g  id="B6pin">
       <path fill="#BFBFBF"  d="M45.427,27.058c0,-1.322,1.071,-2.396,2.395,-2.396s2.394,1.071,2.394,2.396"/>
       <path fill="#E6E6E6"  d="M50.214,27.058c0,1.321,-1.07,2.393,-2.394,2.393s-2.395,-1.07,-2.395,-2.393"/>
       <circle fill="#383838" cx="47.822"  cy="27.057" r="1.197"/>
      </g>
      <g  id="C6pin">
       <path fill="#BFBFBF"  d="M45.427,34.256c0,-1.319,1.071,-2.394,2.395,-2.394s2.394,1.072,2.394,2.394"/>
       <path fill="#E6E6E6"  d="M50.214,34.256c0,1.322,-1.07,2.396,-2.394,2.396s-2.395,-1.072,-2.395,-2.396l0,0"/>
       <circle fill="#383838" cx="47.822"  cy="34.257" r="1.196"/>
      </g>
      <g  id="D6pin">
       <path fill="#BFBFBF"  d="M45.427,41.457c0,-1.322,1.071,-2.396,2.395,-2.396s2.394,1.072,2.394,2.396"/>
       <path fill="#E6E6E6"  d="M50.214,41.457c0,1.321,-1.07,2.394,-2.394,2.394s-2.395,-1.07,-2.395,-2.394"/>
       <circle fill="#383838" cx="47.822"  cy="41.457" r="1.197"/>
      </g>
      <g  id="E6pin">
       <path fill="#BFBFBF"  d="M45.427,48.657c0,-1.322,1.071,-2.394,2.395,-2.394s2.394,1.07,2.394,2.394"/>
       <path fill="#E6E6E6"  d="M50.214,48.657c0,1.322,-1.07,2.395,-2.394,2.395s-2.395,-1.072,-2.395,-2.395"/>
       <circle fill="#383838" cx="47.822"  cy="48.657" r="1.197"/>
      </g>
      <g  id="A7pin">
       <path fill="#BFBFBF"  d="M52.627,19.858c0,-1.322,1.071,-2.396,2.395,-2.396c1.32,0,2.394,1.072,2.394,2.396"/>
       <path fill="#E6E6E6"  d="M57.414,19.858c0,1.319,-1.072,2.393,-2.394,2.393c-1.322,0,-2.395,-1.072,-2.395,-2.393l0,0"/>
       <circle fill="#383838" cx="55.022"  cy="19.857" r="1.196"/>
      </g>
      <g  id="B7pin">
       <path fill="#BFBFBF"  d="M52.627,27.058c0,-1.322,1.071,-2.396,2.395,-2.396c1.32,0,2.394,1.071,2.394,2.396"/>
       <path fill="#E6E6E6"  d="M57.414,27.058c0,1.321,-1.072,2.393,-2.394,2.393c-1.322,0,-2.395,-1.07,-2.395,-2.393"/>
       <circle fill="#383838" cx="55.022"  cy="27.057" r="1.197"/>
      </g>
      <g  id="C7pin">
       <path fill="#BFBFBF"  d="M52.627,34.256c0,-1.319,1.071,-2.394,2.395,-2.394c1.32,0,2.394,1.072,2.394,2.394"/>
       <path fill="#E6E6E6"  d="M57.414,34.256c0,1.322,-1.072,2.396,-2.394,2.396c-1.322,0,-2.395,-1.072,-2.395,-2.396l0,0"/>
       <circle fill="#383838" cx="55.022"  cy="34.257" r="1.196"/>
      </g>
      <g  id="D7pin">
       <path fill="#BFBFBF"  d="M52.627,41.457c0,-1.322,1.071,-2.396,2.395,-2.396c1.32,0,2.394,1.072,2.394,2.396"/>
       <path fill="#E6E6E6"  d="M57.414,41.457c0,1.321,-1.072,2.394,-2.394,2.394c-1.322,0,-2.395,-1.07,-2.395,-2.394"/>
       <circle fill="#383838" cx="55.022"  cy="41.457" r="1.197"/>
      </g>
      <g  id="E7pin">
       <path fill="#BFBFBF"  d="M52.627,48.657c0,-1.322,1.071,-2.394,2.395,-2.394c1.32,0,2.394,1.07,2.394,2.394"/>
       <path fill="#E6E6E6"  d="M57.414,48.657c0,1.322,-1.072,2.395,-2.394,2.395c-1.322,0,-2.395,-1.072,-2.395,-2.395"/>
       <circle fill="#383838" cx="55.022"  cy="48.657" r="1.197"/>
      </g>
      <g  id="A8pin">
       <path fill="#BFBFBF"  d="M59.826,19.858c0,-1.322,1.072,-2.396,2.395,-2.396c1.321,0,2.393,1.072,2.393,2.396"/>
       <path fill="#E6E6E6"  d="M64.614,19.858c0,1.319,-1.07,2.393,-2.393,2.393s-2.395,-1.072,-2.395,-2.393l0,0"/>
       <circle fill="#383838" cx="62.221"  cy="19.857" r="1.196"/>
      </g>
      <g  id="B8pin">
       <path fill="#BFBFBF"  d="M59.826,27.058c0,-1.322,1.072,-2.396,2.395,-2.396c1.321,0,2.393,1.071,2.393,2.396"/>
       <path fill="#E6E6E6"  d="M64.614,27.058c0,1.321,-1.07,2.393,-2.393,2.393s-2.395,-1.07,-2.395,-2.393"/>
       <circle fill="#383838" cx="62.221"  cy="27.057" r="1.197"/>
      </g>
      <g  id="C8pin">
       <path fill="#BFBFBF"  d="M59.826,34.256c0,-1.319,1.072,-2.394,2.395,-2.394c1.321,0,2.393,1.072,2.393,2.394"/>
       <path fill="#E6E6E6"  d="M64.614,34.256c0,1.322,-1.07,2.396,-2.393,2.396s-2.395,-1.072,-2.395,-2.396l0,0"/>
       <circle fill="#383838" cx="62.221"  cy="34.257" r="1.196"/>
      </g>
      <g  id="D8pin">
       <path fill="#BFBFBF"  d="M59.826,41.457c0,-1.322,1.072,-2.396,2.395,-2.396c1.321,0,2.393,1.072,2.393,2.396"/>
       <path fill="#E6E6E6"  d="M64.614,41.457c0,1.321,-1.07,2.394,-2.393,2.394s-2.395,-1.07,-2.395,-2.394"/>
       <circle fill="#383838" cx="62.221"  cy="41.457" r="1.197"/>
      </g>
      <g  id="E8pin">
       <path fill="#BFBFBF"  d="M59.826,48.657c0,-1.322,1.072,-2.394,2.395,-2.394c1.321,0,2.393,1.07,2.393,2.394"/>
       <path fill="#E6E6E6"  d="M64.614,48.657c0,1.322,-1.07,2.395,-2.393,2.395s-2.395,-1.072,-2.395,-2.395"/>
       <circle fill="#383838" cx="62.221"  cy="48.657" r="1.197"/>
      </g>
      <g  id="A9pin">
       <path fill="#BFBFBF"  d="M67.028,19.858c0,-1.322,1.072,-2.396,2.393,-2.396c1.322,0,2.396,1.072,2.396,2.396"/>
       <path fill="#E6E6E6"  d="M71.815,19.858c0,1.319,-1.072,2.393,-2.396,2.393c-1.319,0,-2.393,-1.072,-2.393,-2.393l0,0"/>
       <circle fill="#383838" cx="69.42"  cy="19.857" r="1.196"/>
      </g>
      <g  id="B9pin">
       <path fill="#BFBFBF"  d="M67.028,27.058c0,-1.322,1.072,-2.396,2.393,-2.396c1.322,0,2.396,1.071,2.396,2.396"/>
       <path fill="#E6E6E6"  d="M71.815,27.058c0,1.321,-1.072,2.393,-2.396,2.393c-1.319,0,-2.393,-1.07,-2.393,-2.393"/>
       <circle fill="#383838" cx="69.42"  cy="27.057" r="1.197"/>
      </g>
      <g  id="C9pin">
       <path fill="#BFBFBF"  d="M67.028,34.256c0,-1.319,1.072,-2.394,2.393,-2.394c1.322,0,2.396,1.072,2.396,2.394"/>
       <path fill="#E6E6E6"  d="M71.815,34.256c0,1.322,-1.072,2.396,-2.396,2.396c-1.319,0,-2.393,-1.072,-2.393,-2.396l0,0"/>
       <circle fill="#383838" cx="69.42"  cy="34.257" r="1.196"/>
      </g>
      <g  id="D9pin">
       <path fill="#BFBFBF"  d="M67.028,41.457c0,-1.322,1.072,-2.396,2.393,-2.396c1.322,0,2.396,1.072,2.396,2.396"/>
       <path fill="#E6E6E6"  d="M71.815,41.457c0,1.321,-1.072,2.394,-2.396,2.394c-1.319,0,-2.393,-1.07,-2.393,-2.394"/>
       <circle fill="#383838" cx="69.42"  cy="41.457" r="1.197"/>
      </g>
      <g  id="E9pin">
       <path fill="#BFBFBF"  d="M67.028,48.657c0,-1.322,1.072,-2.394,2.393,-2.394c1.322,0,2.396,1.07,2.396,2.394"/>
       <path fill="#E6E6E6"  d="M71.815,48.657c0,1.322,-1.072,2.395,-2.396,2.395c-1.319,0,-2.393,-1.072,-2.393,-2.395"/>
       <circle fill="#383838" cx="69.42"  cy="48.657" r="1.197"/>
      </g>
      <g  id="A10pin">
       <path fill="#BFBFBF"  d="M74.227,19.858c0,-1.322,1.071,-2.396,2.395,-2.396s2.394,1.072,2.394,2.396"/>
       <path fill="#E6E6E6"  d="M79.014,19.858c0,1.319,-1.07,2.393,-2.394,2.393s-2.395,-1.072,-2.395,-2.393l0,0"/>
       <circle fill="#383838" cx="76.621"  cy="19.857" r="1.196"/>
      </g>
      <g  id="B10pin">
       <path fill="#BFBFBF"  d="M74.227,27.058c0,-1.322,1.071,-2.396,2.395,-2.396s2.394,1.071,2.394,2.396"/>
       <path fill="#E6E6E6"  d="M79.014,27.058c0,1.321,-1.07,2.393,-2.394,2.393s-2.395,-1.07,-2.395,-2.393"/>
       <circle fill="#383838" cx="76.621"  cy="27.057" r="1.197"/>
      </g>
      <g  id="C10pin">
       <path fill="#BFBFBF"  d="M74.227,34.256c0,-1.319,1.071,-2.394,2.395,-2.394s2.394,1.072,2.394,2.394"/>
       <path fill="#E6E6E6"  d="M79.014,34.256c0,1.322,-1.07,2.396,-2.394,2.396s-2.395,-1.072,-2.395,-2.396l0,0"/>
       <circle fill="#383838" cx="76.621"  cy="34.257" r="1.196"/>
      </g>
      <g  id="D10pin">
       <path fill="#BFBFBF"  d="M74.227,41.457c0,-1.322,1.071,-2.396,2.395,-2.396s2.394,1.072,2.394,2.396"/>
       <path fill="#E6E6E6"  d="M79.014,41.457c0,1.321,-1.07,2.394,-2.394,2.394s-2.395,-1.07,-2.395,-2.394"/>
       <circle fill="#383838" cx="76.621"  cy="41.457" r="1.197"/>
      </g>
      <g  id="E10pin">
       <path fill="#BFBFBF"  d="M74.227,48.657c0,-1.322,1.071,-2.394,2.395,-2.394s2.394,1.07,2.394,2.394"/>
       <path fill="#E6E6E6"  d="M79.014,48.657c0,1.322,-1.07,2.395,-2.394,2.395s-2.395,-1.072,-2.395,-2.395"/>
       <circle fill="#383838" cx="76.621"  cy="48.657" r="1.197"/>
      </g>
      <g  id="A11pin">
       <path fill="#BFBFBF"  d="M81.428,19.858c0,-1.322,1.07,-2.396,2.394,-2.396s2.395,1.072,2.395,2.396"/>
       <path fill="#E6E6E6"  d="M86.215,19.858c0,1.319,-1.071,2.393,-2.395,2.393s-2.394,-1.072,-2.394,-2.393l0,0"/>
       <circle fill="#383838" cx="83.821"  cy="19.857" r="1.196"/>
      </g>
      <g  id="B11pin">
       <path fill="#BFBFBF"  d="M81.428,27.058c0,-1.322,1.07,-2.396,2.394,-2.396s2.395,1.071,2.395,2.396"/>
       <path fill="#E6E6E6"  d="M86.215,27.058c0,1.321,-1.071,2.393,-2.395,2.393s-2.394,-1.07,-2.394,-2.393"/>
       <circle fill="#383838" cx="83.821"  cy="27.057" r="1.197"/>
      </g>
      <g  id="C11pin">
       <path fill="#BFBFBF"  d="M81.428,34.256c0,-1.319,1.07,-2.394,2.394,-2.394s2.395,1.072,2.395,2.394"/>
       <path fill="#E6E6E6"  d="M86.215,34.256c0,1.322,-1.071,2.396,-2.395,2.396s-2.394,-1.072,-2.394,-2.396l0,0"/>
       <circle fill="#383838" cx="83.821"  cy="34.257" r="1.196"/>
      </g>
      <g  id="D11pin">
       <path fill="#BFBFBF"  d="M81.428,41.457c0,-1.322,1.07,-2.396,2.394,-2.396s2.395,1.072,2.395,2.396"/>
       <path fill="#E6E6E6"  d="M86.215,41.457c0,1.321,-1.071,2.394,-2.395,2.394s-2.394,-1.07,-2.394,-2.394"/>
       <circle fill="#383838" cx="83.821"  cy="41.457" r="1.197"/>
      </g>
      <g  id="E11pin">
       <path fill="#BFBFBF"  d="M81.428,48.657c0,-1.322,1.07,-2.394,2.394,-2.394s2.395,1.07,2.395,2.394"/>
       <path fill="#E6E6E6"  d="M86.215,48.657c0,1.322,-1.071,2.395,-2.395,2.395s-2.394,-1.072,-2.394,-2.395"/>
       <circle fill="#383838" cx="83.821"  cy="48.657" r="1.197"/>
      </g>
      <g  id="A12pin">
       <path fill="#BFBFBF"  d="M88.627,19.858c0,-1.322,1.072,-2.396,2.396,-2.396c1.319,0,2.393,1.072,2.393,2.396"/>
       <path fill="#E6E6E6"  d="M93.414,19.858c0,1.319,-1.072,2.393,-2.393,2.393c-1.322,0,-2.396,-1.072,-2.396,-2.393l0,0"/>
       <circle fill="#383838" cx="91.022"  cy="19.857" r="1.196"/>
      </g>
      <g  id="B12pin">
       <path fill="#BFBFBF"  d="M88.627,27.058c0,-1.322,1.072,-2.396,2.396,-2.396c1.319,0,2.393,1.071,2.393,2.396"/>
       <path fill="#E6E6E6"  d="M93.414,27.058c0,1.321,-1.072,2.393,-2.393,2.393c-1.322,0,-2.396,-1.07,-2.396,-2.393"/>
       <circle fill="#383838" cx="91.022"  cy="27.057" r="1.197"/>
      </g>
      <g  id="C12pin">
       <path fill="#BFBFBF"  d="M88.627,34.256c0,-1.319,1.072,-2.394,2.396,-2.394c1.319,0,2.393,1.072,2.393,2.394"/>
       <path fill="#E6E6E6"  d="M93.414,34.256c0,1.322,-1.072,2.396,-2.393,2.396c-1.322,0,-2.396,-1.072,-2.396,-2.396l0,0"/>
       <circle fill="#383838" cx="91.022"  cy="34.257" r="1.196"/>
      </g>
      <g  id="D12pin">
       <path fill="#BFBFBF"  d="M88.627,41.457c0,-1.322,1.072,-2.396,2.396,-2.396c1.319,0,2.393,1.072,2.393,2.396"/>
       <path fill="#E6E6E6"  d="M93.414,41.457c0,1.321,-1.072,2.394,-2.393,2.394c-1.322,0,-2.396,-1.07,-2.396,-2.394"/>
       <circle fill="#383838" cx="91.022"  cy="41.457" r="1.197"/>
      </g>
      <g  id="E12pin">
       <path fill="#BFBFBF"  d="M88.627,48.657c0,-1.322,1.072,-2.394,2.396,-2.394c1.319,0,2.393,1.07,2.393,2.394"/>
       <path fill="#E6E6E6"  d="M93.414,48.657c0,1.322,-1.072,2.395,-2.393,2.395c-1.322,0,-2.396,-1.072,-2.396,-2.395"/>
       <circle fill="#383838" cx="91.022"  cy="48.657" r="1.197"/>
      </g>
      <g  id="A13pin">
       <path fill="#BFBFBF"  d="M95.826,19.858c0,-1.322,1.072,-2.396,2.396,-2.396c1.322,0,2.393,1.072,2.393,2.396"/>
       <path fill="#E6E6E6"  d="M100.614,19.858c0,1.319,-1.07,2.393,-2.393,2.393c-1.323,0,-2.396,-1.072,-2.396,-2.393l0,0"/>
       <circle fill="#383838" cx="98.221"  cy="19.857" r="1.196"/>
      </g>
      <g  id="B13pin">
       <path fill="#BFBFBF"  d="M95.826,27.058c0,-1.322,1.072,-2.396,2.396,-2.396c1.322,0,2.393,1.071,2.393,2.396"/>
       <path fill="#E6E6E6"  d="M100.614,27.058c0,1.321,-1.07,2.393,-2.393,2.393c-1.323,0,-2.396,-1.07,-2.396,-2.393"/>
       <circle fill="#383838" cx="98.221"  cy="27.057" r="1.197"/>
      </g>
      <g  id="C13pin">
       <path fill="#BFBFBF"  d="M95.826,34.256c0,-1.319,1.072,-2.394,2.396,-2.394c1.322,0,2.393,1.072,2.393,2.394"/>
       <path fill="#E6E6E6"  d="M100.614,34.256c0,1.322,-1.07,2.396,-2.393,2.396c-1.323,0,-2.396,-1.072,-2.396,-2.396l0,0"/>
       <circle fill="#383838" cx="98.221"  cy="34.257" r="1.196"/>
      </g>
      <g  id="D13pin">
       <path fill="#BFBFBF"  d="M95.826,41.457c0,-1.322,1.072,-2.396,2.396,-2.396c1.322,0,2.393,1.072,2.393,2.396"/>
       <path fill="#E6E6E6"  d="M100.614,41.457c0,1.321,-1.07,2.394,-2.393,2.394c-1.323,0,-2.396,-1.07,-2.396,-2.394"/>
       <circle fill="#383838" cx="98.221"  cy="41.457" r="1.197"/>
      </g>
      <g  id="E13pin">
       <path fill="#BFBFBF"  d="M95.826,48.657c0,-1.322,1.072,-2.394,2.396,-2.394c1.322,0,2.393,1.07,2.393,2.394"/>
       <path fill="#E6E6E6"  d="M100.614,48.657c0,1.322,-1.07,2.395,-2.393,2.395c-1.323,0,-2.396,-1.072,-2.396,-2.395"/>
       <circle fill="#383838" cx="98.221"  cy="48.657" r="1.197"/>
      </g>
      <g  id="A14pin">
       <path fill="#BFBFBF"  d="M103.028,19.858c0,-1.322,1.07,-2.396,2.393,-2.396c1.323,0,2.396,1.072,2.396,2.396"/>
       <path fill="#E6E6E6"  d="M107.815,19.858c0,1.319,-1.072,2.393,-2.396,2.393c-1.322,0,-2.393,-1.072,-2.393,-2.393l0,0"/>
       <circle fill="#383838" cx="105.42"  cy="19.857" r="1.196"/>
      </g>
      <g  id="B14pin">
       <path fill="#BFBFBF"  d="M103.028,27.058c0,-1.322,1.07,-2.396,2.393,-2.396c1.323,0,2.396,1.071,2.396,2.396"/>
       <path fill="#E6E6E6"  d="M107.815,27.058c0,1.321,-1.072,2.393,-2.396,2.393c-1.322,0,-2.393,-1.07,-2.393,-2.393"/>
       <circle fill="#383838" cx="105.42"  cy="27.057" r="1.197"/>
      </g>
      <g  id="C14pin">
       <path fill="#BFBFBF"  d="M103.028,34.256c0,-1.319,1.07,-2.394,2.393,-2.394c1.323,0,2.396,1.072,2.396,2.394"/>
       <path fill="#E6E6E6"  d="M107.815,34.256c0,1.322,-1.072,2.396,-2.396,2.396c-1.322,0,-2.393,-1.072,-2.393,-2.396l0,0"/>
       <circle fill="#383838" cx="105.42"  cy="34.257" r="1.196"/>
      </g>
      <g  id="D14pin">
       <path fill="#BFBFBF"  d="M103.028,41.457c0,-1.322,1.07,-2.396,2.393,-2.396c1.323,0,2.396,1.072,2.396,2.396"/>
       <path fill="#E6E6E6"  d="M107.815,41.457c0,1.321,-1.072,2.394,-2.396,2.394c-1.322,0,-2.393,-1.07,-2.393,-2.394"/>
       <circle fill="#383838" cx="105.42"  cy="41.457" r="1.197"/>
      </g>
      <g  id="E14pin">
       <path fill="#BFBFBF"  d="M103.028,48.657c0,-1.322,1.07,-2.394,2.393,-2.394c1.323,0,2.396,1.07,2.396,2.394"/>
       <path fill="#E6E6E6"  d="M107.815,48.657c0,1.322,-1.072,2.395,-2.396,2.395c-1.322,0,-2.393,-1.072,-2.393,-2.395"/>
       <circle fill="#383838" cx="105.42"  cy="48.657" r="1.197"/>
      </g>
      <g  id="A15pin">
       <path fill="#BFBFBF"  d="M110.227,19.858c0.002,-1.322,1.075,-2.394,2.397,-2.392c1.318,0.002,2.387,1.07,2.39,2.392"/>
       <path fill="#E6E6E6"  d="M115.014,19.858c0.002,1.319,-1.068,2.395,-2.39,2.396c-1.322,0.002,-2.396,-1.067,-2.397,-2.392c0,-0.002,0,-0.004,0,-0.006"/>
       <circle fill="#383838" cx="112.621"  cy="19.857" r="1.196"/>
      </g>
      <g  id="B15pin">
       <path fill="#BFBFBF"  d="M110.227,27.058c0.002,-1.322,1.075,-2.394,2.397,-2.392c1.318,0.002,2.387,1.071,2.39,2.392"/>
       <path fill="#E6E6E6"  d="M115.014,27.058c0.002,1.321,-1.068,2.395,-2.39,2.396c-1.322,0.002,-2.396,-1.068,-2.397,-2.39c0,-0.004,0,-0.006,0,-0.008"/>
       <circle fill="#383838" cx="112.621"  cy="27.057" r="1.197"/>
      </g>
      <g  id="C15pin">
       <path fill="#BFBFBF"  d="M110.227,34.256c0.002,-1.319,1.075,-2.392,2.397,-2.39c1.318,0.003,2.387,1.07,2.39,2.39"/>
       <path fill="#E6E6E6"  d="M115.014,34.256c0.002,1.322,-1.068,2.396,-2.39,2.397c-1.322,0.002,-2.396,-1.067,-2.397,-2.391c0,-0.002,0,-0.004,0,-0.008"/>
       <circle fill="#383838" cx="112.621"  cy="34.257" r="1.196"/>
      </g>
      <g  id="D15pin">
       <path fill="#BFBFBF"  d="M110.227,41.457c0.002,-1.322,1.075,-2.394,2.397,-2.392c1.318,0.002,2.387,1.07,2.39,2.392"/>
       <path fill="#E6E6E6"  d="M115.014,41.457c0.002,1.321,-1.068,2.396,-2.39,2.396c-1.322,0.002,-2.396,-1.067,-2.397,-2.391c0,-0.002,0,-0.004,0,-0.006"/>
       <circle fill="#383838" cx="112.621"  cy="41.457" r="1.197"/>
      </g>
      <g  id="E15pin">
       <path fill="#BFBFBF"  d="M110.227,48.657c0.002,-1.322,1.075,-2.394,2.397,-2.391c1.318,0.002,2.387,1.071,2.39,2.391"/>
       <path fill="#E6E6E6"  d="M115.014,48.657c0.002,1.322,-1.068,2.395,-2.39,2.396c-1.322,0.005,-2.396,-1.065,-2.397,-2.389c0,-0.002,0,-0.007,0,-0.009"/>
       <circle fill="#383838" cx="112.621"  cy="48.657" r="1.197"/>
      </g>
      <g  id="A16pin">
       <path fill="#BFBFBF"  d="M117.428,19.858c0.003,-1.322,1.074,-2.394,2.396,-2.392c1.318,0.002,2.389,1.07,2.391,2.392"/>
       <path fill="#E6E6E6"  d="M122.215,19.858c0.002,1.319,-1.067,2.395,-2.391,2.396s-2.395,-1.067,-2.396,-2.392c0,-0.002,0,-0.004,0,-0.006"/>
       <circle fill="#383838" cx="119.821"  cy="19.857" r="1.196"/>
      </g>
      <g  id="B16pin">
       <path fill="#BFBFBF"  d="M117.428,27.058c0.003,-1.322,1.074,-2.394,2.396,-2.392c1.318,0.002,2.389,1.071,2.391,2.392"/>
       <path fill="#E6E6E6"  d="M122.215,27.058c0.002,1.321,-1.067,2.395,-2.391,2.396s-2.395,-1.068,-2.396,-2.39c0,-0.004,0,-0.006,0,-0.008"/>
       <circle fill="#383838" cx="119.821"  cy="27.057" r="1.197"/>
      </g>
      <g  id="C16pin">
       <path fill="#BFBFBF"  d="M117.428,34.256c0.003,-1.319,1.074,-2.392,2.396,-2.39c1.318,0.003,2.389,1.07,2.391,2.39"/>
       <path fill="#E6E6E6"  d="M122.215,34.256c0.002,1.322,-1.067,2.396,-2.391,2.397s-2.395,-1.067,-2.396,-2.391c0,-0.002,0,-0.004,0,-0.008"/>
       <circle fill="#383838" cx="119.821"  cy="34.257" r="1.196"/>
      </g>
      <g  id="D16pin">
       <path fill="#BFBFBF"  d="M117.428,41.457c0.003,-1.322,1.074,-2.394,2.396,-2.392c1.318,0.002,2.389,1.07,2.391,2.392"/>
       <path fill="#E6E6E6"  d="M122.215,41.457c0.002,1.321,-1.067,2.396,-2.391,2.396c-1.323,0.002,-2.395,-1.067,-2.396,-2.391c0,-0.002,0,-0.004,0,-0.006"/>
       <circle fill="#383838" cx="119.821"  cy="41.457" r="1.197"/>
      </g>
      <g  id="E16pin">
       <path fill="#BFBFBF"  d="M117.428,48.657c0.003,-1.322,1.074,-2.394,2.396,-2.391c1.318,0.002,2.389,1.071,2.391,2.391"/>
       <path fill="#E6E6E6"  d="M122.215,48.657c0.002,1.322,-1.067,2.395,-2.391,2.396c-1.322,0.005,-2.395,-1.065,-2.396,-2.389c0,-0.002,0,-0.007,0,-0.009"/>
       <circle fill="#383838" cx="119.821"  cy="48.657" r="1.197"/>
      </g>
      <g  id="A17pin">
       <path fill="#BFBFBF"  d="M124.627,19.858c0.002,-1.322,1.074,-2.394,2.396,-2.392c1.319,0.002,2.389,1.07,2.391,2.392"/>
       <path fill="#E6E6E6"  d="M129.413,19.858c0.002,1.319,-1.067,2.395,-2.391,2.396c-1.322,0.002,-2.395,-1.067,-2.396,-2.392c0,-0.002,0,-0.004,0,-0.006"/>
       <circle fill="#383838" cx="127.02"  cy="19.857" r="1.196"/>
      </g>
      <g  id="B17pin">
       <path fill="#BFBFBF"  d="M124.627,27.058c0.002,-1.322,1.074,-2.394,2.396,-2.392c1.319,0.002,2.389,1.071,2.391,2.392"/>
       <path fill="#E6E6E6"  d="M129.413,27.058c0.002,1.321,-1.067,2.395,-2.391,2.396c-1.322,0.002,-2.395,-1.068,-2.396,-2.39c0,-0.004,0,-0.006,0,-0.008"/>
       <circle fill="#383838" cx="127.02"  cy="27.057" r="1.197"/>
      </g>
      <g  id="C17pin">
       <path fill="#BFBFBF"  d="M124.627,34.256c0.002,-1.319,1.074,-2.392,2.396,-2.39c1.319,0.003,2.389,1.07,2.391,2.39"/>
       <path fill="#E6E6E6"  d="M129.413,34.256c0.002,1.322,-1.067,2.396,-2.391,2.397c-1.322,0.002,-2.395,-1.067,-2.396,-2.391c0,-0.002,0,-0.004,0,-0.008"/>
       <circle fill="#383838" cx="127.02"  cy="34.257" r="1.196"/>
      </g>
      <g  id="D17pin">
       <path fill="#BFBFBF"  d="M124.627,41.457c0.002,-1.322,1.074,-2.394,2.396,-2.392c1.319,0.002,2.389,1.07,2.391,2.392"/>
       <path fill="#E6E6E6"  d="M129.413,41.457c0.002,1.321,-1.067,2.396,-2.391,2.396c-1.322,0.002,-2.395,-1.067,-2.396,-2.391c0,-0.002,0,-0.004,0,-0.006"/>
       <circle fill="#383838" cx="127.02"  cy="41.457" r="1.197"/>
      </g>
      <g  id="E17pin">
       <path fill="#BFBFBF"  d="M124.627,48.657c0.002,-1.322,1.074,-2.394,2.396,-2.391c1.319,0.002,2.389,1.071,2.391,2.391"/>
       <path fill="#E6E6E6"  d="M129.413,48.657c0.002,1.322,-1.067,2.395,-2.391,2.396c-1.322,0.005,-2.395,-1.065,-2.396,-2.389c0,-0.002,0,-0.007,0,-0.009"/>
       <circle fill="#383838" cx="127.02"  cy="48.657" r="1.197"/>
      </g>
      <g  id="F1pin">
       <path fill="#BFBFBF"  d="M9.427,70.256c0,-1.321,1.071,-2.394,2.395,-2.394s2.394,1.07,2.394,2.394"/>
       <path fill="#E6E6E6"  d="M14.214,70.256c0,1.322,-1.07,2.396,-2.394,2.396s-2.395,-1.072,-2.395,-2.396l0,0"/>
       <circle fill="#383838" cx="11.822"  cy="70.257" r="1.196"/>
      </g>
      <g  id="G1pin">
       <path fill="#BFBFBF"  d="M9.427,77.457c0,-1.322,1.071,-2.396,2.395,-2.396s2.394,1.072,2.394,2.396"/>
       <path fill="#E6E6E6"  d="M14.214,77.457c0,1.321,-1.07,2.394,-2.394,2.394s-2.395,-1.07,-2.395,-2.394l0,0"/>
       <circle fill="#383838" cx="11.822"  cy="77.456" r="1.196"/>
      </g>
      <g  id="H1pin">
       <path fill="#BFBFBF"  d="M9.427,84.657c0,-1.322,1.071,-2.394,2.395,-2.394s2.394,1.07,2.394,2.394"/>
       <path fill="#E6E6E6"  d="M14.214,84.657c0,1.322,-1.07,2.395,-2.394,2.395s-2.395,-1.072,-2.395,-2.395"/>
       <circle fill="#383838" cx="11.822"  cy="84.657" r="1.197"/>
      </g>
      <g  id="I1pin">
       <path fill="#BFBFBF"  d="M9.427,91.858c0,-1.322,1.071,-2.396,2.395,-2.396s2.394,1.072,2.394,2.396"/>
       <path fill="#E6E6E6"  d="M14.214,91.858c0,1.319,-1.07,2.393,-2.394,2.393s-2.395,-1.072,-2.395,-2.393l0,0"/>
       <circle fill="#383838" cx="11.822"  cy="91.857" r="1.196"/>
      </g>
      <g  id="J1pin">
       <path fill="#BFBFBF"  d="M9.427,99.058c0,-1.322,1.071,-2.396,2.395,-2.396s2.394,1.071,2.394,2.396"/>
       <path fill="#E6E6E6"  d="M14.214,99.058c0,1.321,-1.07,2.393,-2.394,2.393s-2.395,-1.07,-2.395,-2.393l0,0"/>
       <circle fill="#383838" cx="11.822"  cy="99.057" r="1.197"/>
      </g>
      <g  id="F2pin">
       <path fill="#BFBFBF"  d="M16.627,70.256c0,-1.321,1.071,-2.394,2.395,-2.394c1.32,0,2.394,1.07,2.394,2.394"/>
       <path fill="#E6E6E6"  d="M21.414,70.256c0,1.322,-1.07,2.396,-2.393,2.396s-2.396,-1.069,-2.396,-2.393c0,-0.002,0,-0.002,0,-0.004"/>
       <circle fill="#383838" cx="19.022"  cy="70.257" r="1.196"/>
      </g>
      <g  id="G2pin">
       <path fill="#BFBFBF"  d="M16.627,77.457c0,-1.322,1.071,-2.396,2.395,-2.396c1.32,0,2.394,1.072,2.394,2.396"/>
       <path fill="#E6E6E6"  d="M21.414,77.457c0,1.321,-1.07,2.396,-2.393,2.396c-1.323,0,-2.396,-1.07,-2.396,-2.394l0,-0.002"/>
       <circle fill="#383838" cx="19.022"  cy="77.456" r="1.196"/>
      </g>
      <g  id="H2pin">
       <path fill="#BFBFBF"  d="M16.627,84.657c0,-1.322,1.071,-2.394,2.395,-2.394c1.32,0,2.394,1.07,2.394,2.394"/>
       <path fill="#E6E6E6"  d="M21.414,84.657c0,1.322,-1.07,2.395,-2.393,2.395c-1.322,0.002,-2.396,-1.07,-2.396,-2.393c0,0,0,0,0,-0.002"/>
       <circle fill="#383838" cx="19.022"  cy="84.657" r="1.197"/>
      </g>
      <g  id="I2pin">
       <path fill="#BFBFBF"  d="M16.627,91.858c0,-1.322,1.071,-2.396,2.395,-2.396c1.32,0,2.394,1.072,2.394,2.396"/>
       <path fill="#E6E6E6"  d="M21.414,91.858c0,1.319,-1.07,2.393,-2.393,2.395c-1.322,0,-2.396,-1.07,-2.396,-2.393c0,-0.002,0,-0.002,0,-0.002"/>
       <circle fill="#383838" cx="19.022"  cy="91.857" r="1.196"/>
      </g>
      <g  id="J2pin">
       <path fill="#BFBFBF"  d="M16.627,99.058c0,-1.322,1.071,-2.396,2.395,-2.396c1.32,0,2.394,1.071,2.394,2.396"/>
       <path fill="#E6E6E6"  d="M21.414,99.058c0,1.321,-1.07,2.395,-2.393,2.395c-1.323,0,-2.396,-1.07,-2.396,-2.393l0,-0.002"/>
       <circle fill="#383838" cx="19.022"  cy="99.057" r="1.197"/>
      </g>
      <g  id="F3pin">
       <path fill="#BFBFBF"  d="M23.826,70.256c0,-1.321,1.072,-2.394,2.395,-2.394c1.321,0,2.395,1.07,2.395,2.394"/>
       <path fill="#E6E6E6"  d="M28.615,70.256c0,1.322,-1.072,2.396,-2.395,2.396c-1.321,0,-2.395,-1.072,-2.395,-2.396"/>
       <circle fill="#383838" cx="26.221"  cy="70.257" r="1.196"/>
      </g>
      <g  id="G3pin">
       <path fill="#BFBFBF"  d="M23.826,77.457c0,-1.322,1.072,-2.396,2.395,-2.396c1.321,0,2.395,1.072,2.395,2.396"/>
       <path fill="#E6E6E6"  d="M28.615,77.457c0,1.321,-1.072,2.394,-2.395,2.394c-1.321,0,-2.395,-1.07,-2.395,-2.394"/>
       <circle fill="#383838" cx="26.221"  cy="77.456" r="1.196"/>
      </g>
      <g  id="H3pin">
       <path fill="#BFBFBF"  d="M23.826,84.657c0,-1.322,1.072,-2.394,2.395,-2.394c1.321,0,2.395,1.07,2.395,2.394"/>
       <path fill="#E6E6E6"  d="M28.615,84.657c0,1.322,-1.072,2.395,-2.395,2.395c-1.321,0,-2.395,-1.072,-2.395,-2.395l0,0"/>
       <circle fill="#383838" cx="26.221"  cy="84.657" r="1.197"/>
      </g>
      <g  id="I3pin">
       <path fill="#BFBFBF"  d="M23.826,91.858c0,-1.322,1.072,-2.396,2.395,-2.396c1.321,0,2.395,1.072,2.395,2.396"/>
       <path fill="#E6E6E6"  d="M28.615,91.858c0,1.319,-1.072,2.393,-2.395,2.393c-1.321,0,-2.395,-1.072,-2.395,-2.393"/>
       <circle fill="#383838" cx="26.221"  cy="91.857" r="1.196"/>
      </g>
      <g  id="J3pin">
       <path fill="#BFBFBF"  d="M23.826,99.058c0,-1.322,1.072,-2.396,2.395,-2.396c1.321,0,2.395,1.071,2.395,2.396"/>
       <path fill="#E6E6E6"  d="M28.615,99.058c0,1.321,-1.072,2.393,-2.395,2.393c-1.321,0,-2.395,-1.07,-2.395,-2.393l0,0"/>
       <circle fill="#383838" cx="26.221"  cy="99.057" r="1.197"/>
      </g>
      <g  id="F4pin">
       <path fill="#BFBFBF"  d="M31.028,70.256c0,-1.321,1.072,-2.394,2.394,-2.394c1.322,0,2.395,1.07,2.395,2.394"/>
       <path fill="#E6E6E6"  d="M35.815,70.256c0,1.322,-1.071,2.396,-2.395,2.396c-1.32,0,-2.394,-1.072,-2.394,-2.396"/>
       <circle fill="#383838" cx="33.42"  cy="70.257" r="1.196"/>
      </g>
      <g  id="G4pin">
       <path fill="#BFBFBF"  d="M31.028,77.457c0,-1.322,1.072,-2.396,2.394,-2.396c1.322,0,2.395,1.072,2.395,2.396"/>
       <path fill="#E6E6E6"  d="M35.815,77.457c0,1.321,-1.071,2.394,-2.395,2.394c-1.32,0,-2.394,-1.07,-2.394,-2.394"/>
       <circle fill="#383838" cx="33.42"  cy="77.456" r="1.196"/>
      </g>
      <g  id="H4pin">
       <path fill="#BFBFBF"  d="M31.028,84.657c0,-1.322,1.072,-2.394,2.394,-2.394c1.322,0,2.395,1.07,2.395,2.394"/>
       <path fill="#E6E6E6"  d="M35.815,84.657c0,1.322,-1.071,2.395,-2.395,2.395c-1.32,0,-2.394,-1.072,-2.394,-2.395l0,0"/>
       <circle fill="#383838" cx="33.42"  cy="84.657" r="1.197"/>
      </g>
      <g  id="I4pin">
       <path fill="#BFBFBF"  d="M31.028,91.858c0,-1.322,1.072,-2.396,2.394,-2.396c1.322,0,2.395,1.072,2.395,2.396"/>
       <path fill="#E6E6E6"  d="M35.815,91.858c0,1.319,-1.071,2.393,-2.395,2.393c-1.32,0,-2.394,-1.072,-2.394,-2.393"/>
       <circle fill="#383838" cx="33.42"  cy="91.857" r="1.196"/>
      </g>
      <g  id="J4pin">
       <path fill="#BFBFBF"  d="M31.028,99.058c0,-1.322,1.072,-2.396,2.394,-2.396c1.322,0,2.395,1.071,2.395,2.396"/>
       <path fill="#E6E6E6"  d="M35.815,99.058c0,1.321,-1.071,2.393,-2.395,2.393c-1.32,0,-2.394,-1.07,-2.394,-2.393l0,0"/>
       <circle fill="#383838" cx="33.42"  cy="99.057" r="1.197"/>
      </g>
      <g  id="F5pin">
       <path fill="#BFBFBF"  d="M38.228,70.256c0,-1.321,1.07,-2.394,2.394,-2.394s2.395,1.07,2.395,2.394"/>
       <path fill="#E6E6E6"  d="M43.015,70.256c0,1.322,-1.071,2.396,-2.395,2.396s-2.394,-1.072,-2.394,-2.396"/>
       <circle fill="#383838" cx="40.62"  cy="70.257" r="1.196"/>
      </g>
      <g  id="G5pin">
       <path fill="#BFBFBF"  d="M38.228,77.457c0,-1.322,1.07,-2.396,2.394,-2.396s2.395,1.072,2.395,2.396"/>
       <path fill="#E6E6E6"  d="M43.015,77.457c0,1.321,-1.071,2.394,-2.395,2.394s-2.394,-1.07,-2.394,-2.394"/>
       <circle fill="#383838" cx="40.62"  cy="77.456" r="1.196"/>
      </g>
      <g  id="H5pin">
       <path fill="#BFBFBF"  d="M38.228,84.657c0,-1.322,1.07,-2.394,2.394,-2.394s2.395,1.07,2.395,2.394"/>
       <path fill="#E6E6E6"  d="M43.015,84.657c0,1.322,-1.071,2.395,-2.395,2.395s-2.394,-1.072,-2.394,-2.395l0,0"/>
       <circle fill="#383838" cx="40.62"  cy="84.657" r="1.197"/>
      </g>
      <g  id="I5pin">
       <path fill="#BFBFBF"  d="M38.228,91.858c0,-1.322,1.07,-2.396,2.394,-2.396s2.395,1.072,2.395,2.396"/>
       <path fill="#E6E6E6"  d="M43.015,91.858c0,1.319,-1.071,2.393,-2.395,2.393s-2.394,-1.072,-2.394,-2.393"/>
       <circle fill="#383838" cx="40.62"  cy="91.857" r="1.196"/>
      </g>
      <g  id="J5pin">
       <path fill="#BFBFBF"  d="M38.228,99.058c0,-1.322,1.07,-2.396,2.394,-2.396s2.395,1.071,2.395,2.396"/>
       <path fill="#E6E6E6"  d="M43.015,99.058c0,1.321,-1.071,2.393,-2.395,2.393s-2.394,-1.07,-2.394,-2.393l0,0"/>
       <circle fill="#383838" cx="40.62"  cy="99.057" r="1.197"/>
      </g>
      <g  id="F6pin">
       <path fill="#BFBFBF"  d="M45.427,70.256c0,-1.321,1.071,-2.394,2.395,-2.394s2.394,1.07,2.394,2.394"/>
       <path fill="#E6E6E6"  d="M50.214,70.256c0,1.322,-1.07,2.396,-2.394,2.396s-2.395,-1.072,-2.395,-2.396"/>
       <circle fill="#383838" cx="47.822"  cy="70.257" r="1.196"/>
      </g>
      <g  id="G6pin">
       <path fill="#BFBFBF"  d="M45.427,77.457c0,-1.322,1.071,-2.396,2.395,-2.396s2.394,1.072,2.394,2.396"/>
       <path fill="#E6E6E6"  d="M50.214,77.457c0,1.321,-1.07,2.394,-2.394,2.394s-2.395,-1.07,-2.395,-2.394"/>
       <circle fill="#383838" cx="47.822"  cy="77.456" r="1.196"/>
      </g>
      <g  id="H6pin">
       <path fill="#BFBFBF"  d="M45.427,84.657c0,-1.322,1.071,-2.394,2.395,-2.394s2.394,1.07,2.394,2.394"/>
       <path fill="#E6E6E6"  d="M50.214,84.657c0,1.322,-1.07,2.395,-2.394,2.395s-2.395,-1.072,-2.395,-2.395l0,0"/>
       <circle fill="#383838" cx="47.822"  cy="84.657" r="1.197"/>
      </g>
      <g  id="I6pin">
       <path fill="#BFBFBF"  d="M45.427,91.858c0,-1.322,1.071,-2.396,2.395,-2.396s2.394,1.072,2.394,2.396"/>
       <path fill="#E6E6E6"  d="M50.214,91.858c0,1.319,-1.07,2.393,-2.394,2.393s-2.395,-1.072,-2.395,-2.393"/>
       <circle fill="#383838" cx="47.822"  cy="91.857" r="1.196"/>
      </g>
      <g  id="J6pin">
       <path fill="#BFBFBF"  d="M45.427,99.058c0,-1.322,1.071,-2.396,2.395,-2.396s2.394,1.071,2.394,2.396"/>
       <path fill="#E6E6E6"  d="M50.214,99.058c0,1.321,-1.07,2.393,-2.394,2.393s-2.395,-1.07,-2.395,-2.393l0,0"/>
       <circle fill="#383838" cx="47.822"  cy="99.057" r="1.197"/>
      </g>
      <g  id="F7pin">
       <path fill="#BFBFBF"  d="M52.627,70.256c0,-1.321,1.071,-2.394,2.395,-2.394c1.32,0,2.394,1.07,2.394,2.394"/>
       <path fill="#E6E6E6"  d="M57.414,70.256c0,1.322,-1.072,2.396,-2.394,2.396c-1.322,0,-2.395,-1.072,-2.395,-2.396"/>
       <circle fill="#383838" cx="55.022"  cy="70.257" r="1.196"/>
      </g>
      <g  id="G7pin">
       <path fill="#BFBFBF"  d="M52.627,77.457c0,-1.322,1.071,-2.396,2.395,-2.396c1.32,0,2.394,1.072,2.394,2.396"/>
       <path fill="#E6E6E6"  d="M57.414,77.457c0,1.321,-1.072,2.394,-2.394,2.394c-1.322,0,-2.395,-1.07,-2.395,-2.394"/>
       <circle fill="#383838" cx="55.022"  cy="77.456" r="1.196"/>
      </g>
      <g  id="H7pin">
       <path fill="#BFBFBF"  d="M52.627,84.657c0,-1.322,1.071,-2.394,2.395,-2.394c1.32,0,2.394,1.07,2.394,2.394"/>
       <path fill="#E6E6E6"  d="M57.414,84.657c0,1.322,-1.072,2.395,-2.394,2.395c-1.322,0,-2.395,-1.072,-2.395,-2.395l0,0"/>
       <circle fill="#383838" cx="55.022"  cy="84.657" r="1.197"/>
      </g>
      <g  id="I7pin">
       <path fill="#BFBFBF"  d="M52.627,91.858c0,-1.322,1.071,-2.396,2.395,-2.396c1.32,0,2.394,1.072,2.394,2.396"/>
       <path fill="#E6E6E6"  d="M57.414,91.858c0,1.319,-1.072,2.393,-2.394,2.393c-1.322,0,-2.395,-1.072,-2.395,-2.393"/>
       <circle fill="#383838" cx="55.022"  cy="91.857" r="1.196"/>
      </g>
      <g  id="J7pin">
       <path fill="#BFBFBF"  d="M52.627,99.058c0,-1.322,1.071,-2.396,2.395,-2.396c1.32,0,2.394,1.071,2.394,2.396"/>
       <path fill="#E6E6E6"  d="M57.414,99.058c0,1.321,-1.072,2.393,-2.394,2.393c-1.322,0,-2.395,-1.07,-2.395,-2.393l0,0"/>
       <circle fill="#383838" cx="55.022"  cy="99.057" r="1.197"/>
      </g>
      <g  id="F8pin">
       <path fill="#BFBFBF"  d="M59.826,70.256c0,-1.321,1.072,-2.394,2.395,-2.394c1.321,0,2.393,1.07,2.393,2.394"/>
       <path fill="#E6E6E6"  d="M64.614,70.256c0,1.322,-1.07,2.396,-2.393,2.396s-2.395,-1.072,-2.395,-2.396"/>
       <circle fill="#383838" cx="62.221"  cy="70.257" r="1.196"/>
      </g>
      <g  id="G8pin">
       <path fill="#BFBFBF"  d="M59.826,77.457c0,-1.322,1.072,-2.396,2.395,-2.396c1.321,0,2.393,1.072,2.393,2.396"/>
       <path fill="#E6E6E6"  d="M64.614,77.457c0,1.321,-1.07,2.394,-2.393,2.394s-2.395,-1.07,-2.395,-2.394"/>
       <circle fill="#383838" cx="62.221"  cy="77.456" r="1.196"/>
      </g>
      <g  id="H8pin">
       <path fill="#BFBFBF"  d="M59.826,84.657c0,-1.322,1.072,-2.394,2.395,-2.394c1.321,0,2.393,1.07,2.393,2.394"/>
       <path fill="#E6E6E6"  d="M64.614,84.657c0,1.322,-1.07,2.395,-2.393,2.395s-2.395,-1.072,-2.395,-2.395l0,0"/>
       <circle fill="#383838" cx="62.221"  cy="84.657" r="1.197"/>
      </g>
      <g  id="I8pin">
       <path fill="#BFBFBF"  d="M59.826,91.858c0,-1.322,1.072,-2.396,2.395,-2.396c1.321,0,2.393,1.072,2.393,2.396"/>
       <path fill="#E6E6E6"  d="M64.614,91.858c0,1.319,-1.07,2.393,-2.393,2.393s-2.395,-1.072,-2.395,-2.393"/>
       <circle fill="#383838" cx="62.221"  cy="91.857" r="1.196"/>
      </g>
      <g  id="J8pin">
       <path fill="#BFBFBF"  d="M59.826,99.058c0,-1.322,1.072,-2.396,2.395,-2.396c1.321,0,2.393,1.071,2.393,2.396"/>
       <path fill="#E6E6E6"  d="M64.614,99.058c0,1.321,-1.07,2.393,-2.393,2.393s-2.395,-1.07,-2.395,-2.393l0,0"/>
       <circle fill="#383838" cx="62.221"  cy="99.057" r="1.197"/>
      </g>
      <g  id="F9pin">
       <path fill="#BFBFBF"  d="M67.028,70.256c0,-1.321,1.072,-2.394,2.393,-2.394c1.322,0,2.396,1.07,2.396,2.394"/>
       <path fill="#E6E6E6"  d="M71.815,70.256c0,1.322,-1.072,2.396,-2.396,2.396c-1.319,0,-2.393,-1.072,-2.393,-2.396"/>
       <circle fill="#383838" cx="69.42"  cy="70.257" r="1.196"/>
      </g>
      <g  id="G9pin">
       <path fill="#BFBFBF"  d="M67.028,77.457c0,-1.322,1.072,-2.396,2.393,-2.396c1.322,0,2.396,1.072,2.396,2.396"/>
       <path fill="#E6E6E6"  d="M71.815,77.457c0,1.321,-1.072,2.394,-2.396,2.394c-1.319,0,-2.393,-1.07,-2.393,-2.394"/>
       <circle fill="#383838" cx="69.42"  cy="77.456" r="1.196"/>
      </g>
      <g  id="H9pin">
       <path fill="#BFBFBF"  d="M67.028,84.657c0,-1.322,1.072,-2.394,2.393,-2.394c1.322,0,2.396,1.07,2.396,2.394"/>
       <path fill="#E6E6E6"  d="M71.815,84.657c0,1.322,-1.072,2.395,-2.396,2.395c-1.319,0,-2.393,-1.072,-2.393,-2.395l0,0"/>
       <circle fill="#383838" cx="69.42"  cy="84.657" r="1.197"/>
      </g>
      <g  id="I9pin">
       <path fill="#BFBFBF"  d="M67.028,91.858c0,-1.322,1.072,-2.396,2.393,-2.396c1.322,0,2.396,1.072,2.396,2.396"/>
       <path fill="#E6E6E6"  d="M71.815,91.858c0,1.319,-1.072,2.393,-2.396,2.393c-1.319,0,-2.393,-1.072,-2.393,-2.393"/>
       <circle fill="#383838" cx="69.42"  cy="91.857" r="1.196"/>
      </g>
      <g  id="J9pin">
       <path fill="#BFBFBF"  d="M67.028,99.058c0,-1.322,1.072,-2.396,2.393,-2.396c1.322,0,2.396,1.071,2.396,2.396"/>
       <path fill="#E6E6E6"  d="M71.815,99.058c0,1.321,-1.072,2.393,-2.396,2.393c-1.319,0,-2.393,-1.07,-2.393,-2.393l0,0"/>
       <circle fill="#383838" cx="69.42"  cy="99.057" r="1.197"/>
      </g>
      <g  id="F10pin">
       <path fill="#BFBFBF"  d="M74.227,70.256c0,-1.321,1.071,-2.394,2.395,-2.394s2.394,1.07,2.394,2.394"/>
       <path fill="#E6E6E6"  d="M79.014,70.256c0,1.322,-1.07,2.396,-2.394,2.396s-2.395,-1.072,-2.395,-2.396"/>
       <circle fill="#383838" cx="76.621"  cy="70.257" r="1.196"/>
      </g>
      <g  id="G10pin">
       <path fill="#BFBFBF"  d="M74.227,77.457c0,-1.322,1.071,-2.396,2.395,-2.396s2.394,1.072,2.394,2.396"/>
       <path fill="#E6E6E6"  d="M79.014,77.457c0,1.321,-1.07,2.394,-2.394,2.394s-2.395,-1.07,-2.395,-2.394"/>
       <circle fill="#383838" cx="76.621"  cy="77.456" r="1.196"/>
      </g>
      <g  id="H10pin">
       <path fill="#BFBFBF"  d="M74.227,84.657c0,-1.322,1.071,-2.394,2.395,-2.394s2.394,1.07,2.394,2.394"/>
       <path fill="#E6E6E6"  d="M79.014,84.657c0,1.322,-1.07,2.395,-2.394,2.395s-2.395,-1.072,-2.395,-2.395l0,0"/>
       <circle fill="#383838" cx="76.621"  cy="84.657" r="1.197"/>
      </g>
      <g  id="I10pin">
       <path fill="#BFBFBF"  d="M74.227,91.858c0,-1.322,1.071,-2.396,2.395,-2.396s2.394,1.072,2.394,2.396"/>
       <path fill="#E6E6E6"  d="M79.014,91.858c0,1.319,-1.07,2.393,-2.394,2.393s-2.395,-1.072,-2.395,-2.393"/>
       <circle fill="#383838" cx="76.621"  cy="91.857" r="1.196"/>
      </g>
      <g  id="J10pin">
       <path fill="#BFBFBF"  d="M74.227,99.058c0,-1.322,1.071,-2.396,2.395,-2.396s2.394,1.071,2.394,2.396"/>
       <path fill="#E6E6E6"  d="M79.014,99.058c0,1.321,-1.07,2.393,-2.394,2.393s-2.395,-1.07,-2.395,-2.393l0,0"/>
       <circle fill="#383838" cx="76.621"  cy="99.057" r="1.197"/>
      </g>
      <g  id="F11pin">
       <path fill="#BFBFBF"  d="M81.428,70.256c0,-1.321,1.07,-2.394,2.394,-2.394s2.395,1.07,2.395,2.394"/>
       <path fill="#E6E6E6"  d="M86.215,70.256c0,1.322,-1.071,2.396,-2.395,2.396s-2.394,-1.072,-2.394,-2.396"/>
       <circle fill="#383838" cx="83.821"  cy="70.257" r="1.196"/>
      </g>
      <g  id="G11pin">
       <path fill="#BFBFBF"  d="M81.428,77.457c0,-1.322,1.07,-2.396,2.394,-2.396s2.395,1.072,2.395,2.396"/>
       <path fill="#E6E6E6"  d="M86.215,77.457c0,1.321,-1.071,2.394,-2.395,2.394s-2.394,-1.07,-2.394,-2.394"/>
       <circle fill="#383838" cx="83.821"  cy="77.456" r="1.196"/>
      </g>
      <g  id="H11pin">
       <path fill="#BFBFBF"  d="M81.428,84.657c0,-1.322,1.07,-2.394,2.394,-2.394s2.395,1.07,2.395,2.394"/>
       <path fill="#E6E6E6"  d="M86.215,84.657c0,1.322,-1.071,2.395,-2.395,2.395s-2.394,-1.072,-2.394,-2.395l0,0"/>
       <circle fill="#383838" cx="83.821"  cy="84.657" r="1.197"/>
      </g>
      <g  id="I11pin">
       <path fill="#BFBFBF"  d="M81.428,91.858c0,-1.322,1.07,-2.396,2.394,-2.396s2.395,1.072,2.395,2.396"/>
       <path fill="#E6E6E6"  d="M86.215,91.858c0,1.319,-1.071,2.393,-2.395,2.393s-2.394,-1.072,-2.394,-2.393"/>
       <circle fill="#383838" cx="83.821"  cy="91.857" r="1.196"/>
      </g>
      <g  id="J11pin">
       <path fill="#BFBFBF"  d="M81.428,99.058c0,-1.322,1.07,-2.396,2.394,-2.396s2.395,1.071,2.395,2.396"/>
       <path fill="#E6E6E6"  d="M86.215,99.058c0,1.321,-1.071,2.393,-2.395,2.393s-2.394,-1.07,-2.394,-2.393l0,0"/>
       <circle fill="#383838" cx="83.821"  cy="99.057" r="1.197"/>
      </g>
      <g  id="F12pin">
       <path fill="#BFBFBF"  d="M88.627,70.256c0,-1.321,1.072,-2.394,2.396,-2.394c1.319,0,2.393,1.07,2.393,2.394"/>
       <path fill="#E6E6E6"  d="M93.414,70.256c0,1.322,-1.072,2.396,-2.393,2.396c-1.322,0,-2.396,-1.072,-2.396,-2.396"/>
       <circle fill="#383838" cx="91.022"  cy="70.257" r="1.196"/>
      </g>
      <g  id="G12pin">
       <path fill="#BFBFBF"  d="M88.627,77.457c0,-1.322,1.072,-2.396,2.396,-2.396c1.319,0,2.393,1.072,2.393,2.396"/>
       <path fill="#E6E6E6"  d="M93.414,77.457c0,1.321,-1.072,2.394,-2.393,2.394c-1.322,0,-2.396,-1.07,-2.396,-2.394"/>
       <circle fill="#383838" cx="91.022"  cy="77.456" r="1.196"/>
      </g>
      <g  id="H12pin">
       <path fill="#BFBFBF"  d="M88.627,84.657c0,-1.322,1.072,-2.394,2.396,-2.394c1.319,0,2.393,1.07,2.393,2.394"/>
       <path fill="#E6E6E6"  d="M93.414,84.657c0,1.322,-1.072,2.395,-2.393,2.395c-1.322,0,-2.396,-1.072,-2.396,-2.395l0,0"/>
       <circle fill="#383838" cx="91.022"  cy="84.657" r="1.197"/>
      </g>
      <g  id="I12pin">
       <path fill="#BFBFBF"  d="M88.627,91.858c0,-1.322,1.072,-2.396,2.396,-2.396c1.319,0,2.393,1.072,2.393,2.396"/>
       <path fill="#E6E6E6"  d="M93.414,91.858c0,1.319,-1.072,2.393,-2.393,2.393c-1.322,0,-2.396,-1.072,-2.396,-2.393"/>
       <circle fill="#383838" cx="91.022"  cy="91.857" r="1.196"/>
      </g>
      <g  id="J12pin">
       <path fill="#BFBFBF"  d="M88.627,99.058c0,-1.322,1.072,-2.396,2.396,-2.396c1.319,0,2.393,1.071,2.393,2.396"/>
       <path fill="#E6E6E6"  d="M93.414,99.058c0,1.321,-1.072,2.393,-2.393,2.393c-1.322,0,-2.396,-1.07,-2.396,-2.393l0,0"/>
       <circle fill="#383838" cx="91.022"  cy="99.057" r="1.197"/>
      </g>
      <g  id="F13pin">
       <path fill="#BFBFBF"  d="M95.826,70.256c0,-1.321,1.072,-2.394,2.396,-2.394c1.322,0,2.393,1.07,2.393,2.394"/>
       <path fill="#E6E6E6"  d="M100.614,70.256c0,1.322,-1.07,2.396,-2.393,2.396c-1.323,0,-2.396,-1.072,-2.396,-2.396"/>
       <circle fill="#383838" cx="98.221"  cy="70.257" r="1.196"/>
      </g>
      <g  id="G13pin">
       <path fill="#BFBFBF"  d="M95.826,77.457c0,-1.322,1.072,-2.396,2.396,-2.396c1.322,0,2.393,1.072,2.393,2.396"/>
       <path fill="#E6E6E6"  d="M100.614,77.457c0,1.321,-1.07,2.394,-2.393,2.394c-1.323,0,-2.396,-1.07,-2.396,-2.394"/>
       <circle fill="#383838" cx="98.221"  cy="77.456" r="1.196"/>
      </g>
      <g  id="H13pin">
       <path fill="#BFBFBF"  d="M95.826,84.657c0,-1.322,1.072,-2.394,2.396,-2.394c1.322,0,2.393,1.07,2.393,2.394"/>
       <path fill="#E6E6E6"  d="M100.614,84.657c0,1.322,-1.07,2.395,-2.393,2.395c-1.323,0,-2.396,-1.072,-2.396,-2.395l0,0"/>
       <circle fill="#383838" cx="98.221"  cy="84.657" r="1.197"/>
      </g>
      <g  id="I13pin">
       <path fill="#BFBFBF"  d="M95.826,91.858c0,-1.322,1.072,-2.396,2.396,-2.396c1.322,0,2.393,1.072,2.393,2.396"/>
       <path fill="#E6E6E6"  d="M100.614,91.858c0,1.319,-1.07,2.393,-2.393,2.393c-1.323,0,-2.396,-1.072,-2.396,-2.393"/>
       <circle fill="#383838" cx="98.221"  cy="91.857" r="1.196"/>
      </g>
      <g  id="J13pin">
       <path fill="#BFBFBF"  d="M95.826,99.058c0,-1.322,1.072,-2.396,2.396,-2.396c1.322,0,2.393,1.071,2.393,2.396"/>
       <path fill="#E6E6E6"  d="M100.614,99.058c0,1.321,-1.07,2.393,-2.393,2.393c-1.323,0,-2.396,-1.07,-2.396,-2.393l0,0"/>
       <circle fill="#383838" cx="98.221"  cy="99.057" r="1.197"/>
      </g>
      <g  id="F14pin">
       <path fill="#BFBFBF"  d="M103.028,70.256c0,-1.321,1.07,-2.394,2.393,-2.394c1.323,0,2.396,1.07,2.396,2.394"/>
       <path fill="#E6E6E6"  d="M107.815,70.256c0,1.322,-1.072,2.396,-2.396,2.396c-1.322,0,-2.393,-1.072,-2.393,-2.396"/>
       <circle fill="#383838" cx="105.42"  cy="70.257" r="1.196"/>
      </g>
      <g  id="G14pin">
       <path fill="#BFBFBF"  d="M103.028,77.457c0,-1.322,1.07,-2.396,2.393,-2.396c1.323,0,2.396,1.072,2.396,2.396"/>
       <path fill="#E6E6E6"  d="M107.815,77.457c0,1.321,-1.072,2.394,-2.396,2.394c-1.322,0,-2.393,-1.07,-2.393,-2.394"/>
       <circle fill="#383838" cx="105.42"  cy="77.456" r="1.196"/>
      </g>
      <g  id="H14pin">
       <path fill="#BFBFBF"  d="M103.028,84.657c0,-1.322,1.07,-2.394,2.393,-2.394c1.323,0,2.396,1.07,2.396,2.394"/>
       <path fill="#E6E6E6"  d="M107.815,84.657c0,1.322,-1.072,2.395,-2.396,2.395c-1.322,0,-2.393,-1.072,-2.393,-2.395l0,0"/>
       <circle fill="#383838" cx="105.42"  cy="84.657" r="1.197"/>
      </g>
      <g  id="I14pin">
       <path fill="#BFBFBF"  d="M103.028,91.858c0,-1.322,1.07,-2.396,2.393,-2.396c1.323,0,2.396,1.072,2.396,2.396"/>
       <path fill="#E6E6E6"  d="M107.815,91.858c0,1.319,-1.072,2.393,-2.396,2.393c-1.322,0,-2.393,-1.072,-2.393,-2.393"/>
       <circle fill="#383838" cx="105.42"  cy="91.857" r="1.196"/>
      </g>
      <g  id="J14pin">
       <path fill="#BFBFBF"  d="M103.028,99.058c0,-1.322,1.07,-2.396,2.393,-2.396c1.323,0,2.396,1.071,2.396,2.396"/>
       <path fill="#E6E6E6"  d="M107.815,99.058c0,1.321,-1.072,2.393,-2.396,2.393c-1.322,0,-2.393,-1.07,-2.393,-2.393l0,0"/>
       <circle fill="#383838" cx="105.42"  cy="99.057" r="1.197"/>
      </g>
      <g  id="F15pin">
       <path fill="#BFBFBF"  d="M110.227,70.256c0.002,-1.321,1.075,-2.392,2.397,-2.39c1.318,0.003,2.387,1.07,2.39,2.39"/>
       <path fill="#E6E6E6"  d="M115.014,70.256c0.002,1.322,-1.068,2.396,-2.39,2.397c-1.322,0.002,-2.396,-1.067,-2.397,-2.391c0,-0.002,0,-0.004,0,-0.008"/>
       <circle fill="#383838" cx="112.621"  cy="70.257" r="1.196"/>
      </g>
      <g  id="G15pin">
       <path fill="#BFBFBF"  d="M110.227,77.457c0.002,-1.322,1.075,-2.394,2.397,-2.392c1.318,0.002,2.387,1.07,2.39,2.392"/>
       <path fill="#E6E6E6"  d="M115.014,77.457c0.002,1.321,-1.068,2.396,-2.39,2.396c-1.322,0.002,-2.396,-1.067,-2.397,-2.391c0,-0.002,0,-0.004,0,-0.006"/>
       <circle fill="#383838" cx="112.621"  cy="77.456" r="1.196"/>
      </g>
      <g  id="H15pin">
       <path fill="#BFBFBF"  d="M110.227,84.657c0.002,-1.322,1.075,-2.394,2.397,-2.391c1.318,0.002,2.387,1.071,2.39,2.391"/>
       <path fill="#E6E6E6"  d="M115.014,84.657c0.002,1.322,-1.068,2.395,-2.39,2.396c-1.322,0.002,-2.396,-1.065,-2.397,-2.389c0,-0.002,0,-0.007,0,-0.009"/>
       <circle fill="#383838" cx="112.621"  cy="84.657" r="1.197"/>
      </g>
      <g  id="I15pin">
       <path fill="#BFBFBF"  d="M110.227,91.858c0.002,-1.322,1.075,-2.394,2.397,-2.392c1.318,0.002,2.387,1.07,2.39,2.392"/>
       <path fill="#E6E6E6"  d="M115.014,91.858c0.002,1.319,-1.068,2.395,-2.39,2.396c-1.322,0.002,-2.396,-1.067,-2.397,-2.392c0,-0.002,0,-0.004,0,-0.006"/>
       <circle fill="#383838" cx="112.621"  cy="91.857" r="1.196"/>
      </g>
      <g  id="J15pin">
       <path fill="#BFBFBF"  d="M110.227,99.058c0.002,-1.322,1.075,-2.394,2.397,-2.392c1.318,0.002,2.387,1.069,2.39,2.392"/>
       <path fill="#E6E6E6"  d="M115.014,99.058c0.002,1.321,-1.068,2.395,-2.39,2.396c-1.322,0.002,-2.396,-1.068,-2.397,-2.39c0,-0.004,0,-0.006,0,-0.008"/>
       <circle fill="#383838" cx="112.621"  cy="99.057" r="1.197"/>
      </g>
      <g  id="F16pin">
       <path fill="#BFBFBF"  d="M117.428,70.256c0.003,-1.321,1.074,-2.392,2.396,-2.39c1.318,0.003,2.389,1.07,2.391,2.39"/>
       <path fill="#E6E6E6"  d="M122.215,70.256c0.002,1.322,-1.067,2.396,-2.391,2.397s-2.395,-1.067,-2.396,-2.391c0,-0.002,0,-0.004,0,-0.008"/>
       <circle fill="#383838" cx="119.821"  cy="70.257" r="1.196"/>
      </g>
      <g  id="G16pin">
       <path fill="#BFBFBF"  d="M117.428,77.457c0.003,-1.322,1.074,-2.394,2.396,-2.392c1.318,0.002,2.389,1.07,2.391,2.392"/>
       <path fill="#E6E6E6"  d="M122.215,77.457c0.002,1.321,-1.067,2.396,-2.391,2.396c-1.323,0.002,-2.395,-1.067,-2.396,-2.391c0,-0.002,0,-0.004,0,-0.006"/>
       <circle fill="#383838" cx="119.821"  cy="77.456" r="1.196"/>
      </g>
      <g  id="H16pin">
       <path fill="#BFBFBF"  d="M117.428,84.657c0.003,-1.322,1.074,-2.394,2.396,-2.391c1.318,0.002,2.389,1.071,2.391,2.391"/>
       <path fill="#E6E6E6"  d="M122.215,84.657c0.002,1.322,-1.067,2.395,-2.391,2.396s-2.395,-1.065,-2.396,-2.389c0,-0.002,0,-0.007,0,-0.009"/>
       <circle fill="#383838" cx="119.821"  cy="84.657" r="1.197"/>
      </g>
      <g  id="I16pin">
       <path fill="#BFBFBF"  d="M117.428,91.858c0.003,-1.322,1.074,-2.394,2.396,-2.392c1.318,0.002,2.389,1.07,2.391,2.392"/>
       <path fill="#E6E6E6"  d="M122.215,91.858c0.002,1.319,-1.067,2.395,-2.391,2.396s-2.395,-1.067,-2.396,-2.392c0,-0.002,0,-0.004,0,-0.006"/>
       <circle fill="#383838" cx="119.821"  cy="91.857" r="1.196"/>
      </g>
      <g  id="J16pin">
       <path fill="#BFBFBF"  d="M117.428,99.058c0.003,-1.322,1.074,-2.394,2.396,-2.392c1.318,0.002,2.389,1.069,2.391,2.392"/>
       <path fill="#E6E6E6"  d="M122.215,99.058c0.002,1.321,-1.067,2.395,-2.391,2.396s-2.395,-1.068,-2.396,-2.39c0,-0.004,0,-0.006,0,-0.008"/>
       <circle fill="#383838" cx="119.821"  cy="99.057" r="1.197"/>
      </g>
      <g  id="F17pin">
       <path fill="#BFBFBF"  d="M124.627,70.256c0.002,-1.321,1.074,-2.392,2.396,-2.39c1.319,0.003,2.389,1.07,2.391,2.39"/>
       <path fill="#E6E6E6"  d="M129.413,70.256c0.002,1.322,-1.067,2.396,-2.391,2.397c-1.322,0.002,-2.395,-1.067,-2.396,-2.391c0,-0.002,0,-0.004,0,-0.008"/>
       <circle fill="#383838" cx="127.02"  cy="70.257" r="1.196"/>
      </g>
      <g  id="G17pin">
       <path fill="#BFBFBF"  d="M124.627,77.457c0.002,-1.322,1.074,-2.394,2.396,-2.392c1.319,0.002,2.389,1.07,2.391,2.392"/>
       <path fill="#E6E6E6"  d="M129.413,77.457c0.002,1.321,-1.067,2.396,-2.391,2.396c-1.322,0.002,-2.395,-1.067,-2.396,-2.391c0,-0.002,0,-0.004,0,-0.006"/>
       <circle fill="#383838" cx="127.02"  cy="77.456" r="1.196"/>
      </g>
      <g  id="H17pin">
       <path fill="#BFBFBF"  d="M124.627,84.657c0.002,-1.322,1.074,-2.394,2.396,-2.391c1.319,0.002,2.389,1.071,2.391,2.391"/>
       <path fill="#E6E6E6"  d="M129.413,84.657c0.002,1.322,-1.067,2.395,-2.391,2.396c-1.322,0.002,-2.395,-1.065,-2.396,-2.389c0,-0.002,0,-0.007,0,-0.009"/>
       <circle fill="#383838" cx="127.02"  cy="84.657" r="1.197"/>
      </g>
      <g  id="I17pin">
       <path fill="#BFBFBF"  d="M124.627,91.858c0.002,-1.322,1.074,-2.394,2.396,-2.392c1.319,0.002,2.389,1.07,2.391,2.392"/>
       <path fill="#E6E6E6"  d="M129.413,91.858c0.002,1.319,-1.067,2.395,-2.391,2.396c-1.322,0.002,-2.395,-1.067,-2.396,-2.392c0,-0.002,0,-0.004,0,-0.006"/>
       <circle fill="#383838" cx="127.02"  cy="91.857" r="1.196"/>
      </g>
      <g  id="J17pin">
       <path fill="#BFBFBF"  d="M124.627,99.058c0.002,-1.322,1.074,-2.394,2.396,-2.392c1.319,0.002,2.389,1.069,2.391,2.392"/>
       <path fill="#E6E6E6"  d="M129.413,99.058c0.002,1.321,-1.067,2.395,-2.391,2.396c-1.322,0.002,-2.395,-1.068,-2.396,-2.39c0,-0.004,0,-0.006,0,-0.008"/>
       <circle fill="#383838" cx="127.02"  cy="99.057" r="1.197"/>
      </g>
     </g>
    </g>
   </g>
  </g>
 </g>
 <path fill="none" stroke="#000000" stroke-linejoin="round" stroke-linecap="round" stroke-width="2.16" d="M80.4939,182.451L204.969,182.318"/>
 <path fill="none" stroke="#ff0000" stroke-linejoin="round" stroke-linecap="round" stroke-width="2.16" d="M80.7199,175.724L203.689,176.398"/>
 <path fill="none" stroke="#ffff00" stroke-linejoin="round" stroke-linecap="round" stroke-width="2.16" d="M80.604,168.969L204.542,168.771"/>
 <g partID="102810">
  <g transform="translate(0,122.375)">
   <g  id="breadboard" transform="matrix(1, 0, 0, 1, -0.400297, 32.424)">
    <rect width="0.72" x="73.0462" y="20.1499" fill="none"  height="0.72" id="connector0pin"/>
    <rect width="0.72" x="73.1246" y="18.1174" fill="none"  height="0.72" id="connector1pin"/>
    <rect width="0.72" x="73.0462" y="16.1136" fill="none"  height="0.72" id="connector2pin"/>
    <g fill="none"  stroke="#000000" id="connector0leg" stroke-linecap="round" y1="38.406" x1="112.353" y2="39.406" stroke-width="2.16" x2="113.976032"/>
    <g fill="none"  stroke="#FF0000" id="connector1leg" stroke-linecap="round" y1="29.063" x1="112.667" y2="29.406" stroke-width="2.16" x2="113.976032"/>
    <g fill="none"  stroke="#FFFF00" id="connector2leg" stroke-linecap="round" y1="19.68" x1="112.506" y2="19.406" stroke-width="2.16" x2="113.976032"/>
    <path fill="none"  stroke="#000000" id="path7" stroke-width="2.16" d="M73.0462,20.1499c0,0,-5.09688,-1.34568,7.848,7.5024"/>
    <path fill="none"  stroke="#FF0000" id="path9" stroke-width="2.16" d="M73.1246,18.1174c4.03488,0,4.1076,1.17288,7.9956,2.808"/>
    <path fill="none"  stroke="#FFFF00" id="path11" stroke-width="2.16" d="M73.0462,16.1136c5.382,0,7.59816,-3.17664,7.95816,-0.936"/>
    <polygon fill="#333333" points="0.40032,6.69744,12.5078,6.69744,12.5078,-6.75648,70.3562,-6.75648,70.3562,6.69744,82.463,6.69744,82.463,8.04168,70.3562,8.04168,70.3562,33.6017,12.5078,33.6017,12.5078,8.04168,0.40032,8.04168"  id="polygon13"/>
    <polygon points="8.47152,8.04168,12.5078,8.04168,12.5078,33.6017,8.47152,29.5668"  id="polygon15"/>
    <polygon fill="#999999" points="12.5078,6.69744,0.40032,6.69744,0.40032,-0.03024,8.47152,-0.03024,8.47152,2.6604"  id="polygon17"/>
    <polygon fill="#999999" points="12.5078,-6.75648,8.47152,-10.7921,8.47152,-18.864,12.5078,-22.8996,70.3562,-22.8996,74.3911,-18.864,74.3911,-10.7921,70.3562,-6.75648"  id="polygon19"/>
    <polygon fill="#666666" points="74.3911,8.04168,70.3562,8.04168,70.3562,33.6017,74.3911,29.5668"  id="polygon21"/>
    <polygon fill="#999999" points="70.3562,6.69744,82.4638,6.69744,82.4638,-0.03024,74.3911,-0.03024,74.3911,2.6604"  id="polygon23"/>
    <polygon points="8.47152,-10.7921,12.5078,-6.75648,12.5078,6.69744,8.47152,2.6604"  id="polygon25"/>
    <polygon fill="#666666" points="74.3911,-10.7921,70.3562,-6.75648,70.3562,6.69744,74.3911,2.6604"  id="polygon27"/>
    <path fill="#CCCCCC"  id="path29" d="M32.0191,-12.6763c-4.72464,2.5992,-9.92592,1.10952,-11.911,-0.11664C18.1224,-14.0191,6.38568,-24.0034,4.81032,-24.9962c-1.5768,-0.99288,-1.40184,-2.3904,-1.40184,-4.41432c0,-2.57544,1.28448,1.92672,3.97152,3.15288c2.68488,1.22616,27.1318,4.24296,27.1318,8.7192C34.5103,-16.1762,35.0554,-14.3467,32.0191,-12.6763z"/>
    <path fill="#FFFFFF"  id="path31" d="M32.0191,-14.0544c-4.49568,2.97792,-9.92592,1.10952,-11.911,-0.11736C18.1224,-15.3979,6.38568,-25.3822,4.81032,-26.375c-1.5768,-0.99216,-2.21904,-3.91176,-0.05832,-5.31288c2.16,-1.40112,5.13792,-0.58464,7.82352,0.64224c2.6856,1.22616,13.9558,5.95512,17.8085,8.2332C34.2382,-20.5358,36.5162,-17.0323,32.0191,-14.0544zM8.39088,-27.6206c1.89216,0,3.42648,-0.7668,3.42648,-1.71288s-1.53432,-1.71216,-3.42648,-1.71216c-1.89216,0,-3.42576,0.76608,-3.42576,1.71216S6.49872,-27.6206,8.39088,-27.6206z"/>
    <g  id="g33">
     <path fill="#CCCCCC"  id="path35" d="M11.772,-28.9649c-0.33984,-0.7668,-1.70568,-1.34064,-3.34296,-1.34064c-1.63584,0,-3.04632,0.57312,-3.38616,1.33992l0.00288,0.00072c-0.05184,-0.1188,-0.08064,-0.2412,-0.08064,-0.36792c0,-0.94608,1.5336,-1.71216,3.42576,-1.71216c1.89216,0,3.42648,0.76608,3.42648,1.71216c0,0.12672,0,0.25632,-0.05184,0.37512L11.772,-28.9649z"/>
    </g>
    <g  id="g37">
     <ellipse fill="#999999" cx="25.9862"  cy="-18.2779" rx="5.76144" ry="3.2148" id="ellipse39"/>
     <g  id="g41">
      <path fill="#666666"  id="path43" d="M20.3285,-18.3089c0.57168,1.38168,2.8692,2.41632,5.62104,2.41632c2.75184,0,5.12352,-1.03392,5.69664,-2.41632l-0.00576,0c0.08712,0.21312,0.13536,0.43488,0.13536,0.6624c0,1.70496,-2.57904,3.08736,-5.76144,3.08736c-3.1824,0,-5.76144,-1.3824,-5.76144,-3.08736c0,-0.22752,-0.00072,-0.46224,0.0864,-0.67536L20.3285,-18.3089z"/>
     </g>
    </g>
    <g  id="g45">
     <path fill="#FFCC33"  id="path47" d="M40.7052,-16.7213l0,0.81792l2.45232,0l0,0.8172l0.8172,0l0,0.8172l-0.8172,0l0,0.81792l-4.08816,0l0,-0.81792l3.26952,0l0,-0.8172l-2.45232,0l0,-0.8172l-0.8172,0l0,-0.81792l0.8172,0l0,-0.8172l4.08816,0l0,0.8172L40.7052,-16.7213z"/>
     <path fill="#FFCC33"  id="path49" d="M49.6966,-17.5385l0,0.8172l-3.26952,0l0,0.81792l2.45232,0l0,0.8172l-2.45232,0l0,0.8172l3.26952,0l0,0.81792l-4.90464,0l0,-4.08744L49.6966,-17.5385L49.6966,-17.5385z"/>
     <path fill="#FFCC33"  id="path51" d="M54.6019,-16.7213l0.81864,0l0,1.63512l-0.81864,0l0,0.8172l0.81864,0l0,0.81792l-2.45232,0l0,-0.81792L52.1496,-14.269l0,0.81792l-1.63512,0l0,-4.08744l4.08744,0L54.6019,-16.7213L54.6019,-16.7213zM53.784,-16.7213L52.1496,-16.7213l0,1.63512L53.784,-15.0862L53.784,-16.7213z"/>
     <path fill="#FFCC33"  id="path53" d="M61.1417,-17.5385l0,1.63512l-0.8172,0l0,1.6344l-0.81936,0l0,0.81792l-1.63512,0l0,-0.81792l-0.8172,0l0,-1.6344l-0.81792,0l0,-1.63512l1.63512,0l0,1.63512l1.63512,0l0,-1.63512L61.1417,-17.5385z"/>
     <path fill="#FFCC33"  id="path55" d="M62.7761,-13.451l0,-0.81792l-0.8172,0l0,-2.45232l0.8172,0l0,-0.8172l3.26952,0l0,0.8172l0.81792,0l0,2.45232L66.0456,-14.269l0,0.81792L62.7761,-13.451L62.7761,-13.451zM65.2291,-14.269l0,-2.45232l-1.63512,0l0,2.45232L65.2291,-14.269z"/>
    </g>
   </g>
  </g>
 </g>
 <g partID="102970">
  <g transform="translate(208.568,164.321)">
   <g transform="matrix(0,1,-1,0,0,0)">
    <g  id="breadboard">
     <rect width="21.6" fill="#404040"  height="7.2"/>
     <rect width="2.78312" x="2.20843" y="2.20843" fill="none"  height="2.78312" id="connector0pin"/>
     <g width="2.15829" x="2.51834" y="2.47054" fill="none"  height="2.25658" id="connector0terminal"/>
     <rect width="2.78312" x="2.20843" y="2.20843"  height="2.78312"/>
     <polygon fill="#2A2A29" points="1.18445,1.18445,2.20843,2.20843,4.99156,2.20843,6.01654,1.18445" />
     <polygon fill="#474747" points="6.01654,1.18445,4.99156,2.20843,4.99156,4.99156,6.01654,6.01654" />
     <polygon fill="#595959" points="6.01654,6.01654,4.99156,4.99156,2.20843,4.99156,1.18445,6.01654" />
     <polygon fill="#373737" points="1.18445,6.01654,2.20843,4.99156,2.20843,2.20843,1.18445,1.18445" />
     <rect width="2.78312" x="9.40846" y="2.20843" fill="none"  height="2.78312" id="connector1pin"/>
     <g width="2.15829" x="9.71834" y="2.47054" fill="none"  height="2.25658" id="connector1terminal"/>
     <rect width="2.78312" x="9.40846" y="2.20843"  height="2.78312"/>
     <polygon fill="#2A2A29" points="8.38447,1.18445,9.40846,2.20843,12.1915,2.20843,13.2165,1.18445" />
     <polygon fill="#474747" points="13.2165,1.18445,12.1915,2.20843,12.1915,4.99156,13.2165,6.01654" />
     <polygon fill="#595959" points="13.2165,6.01654,12.1915,4.99156,9.40846,4.99156,8.38447,6.01654" />
     <polygon fill="#373737" points="8.38447,6.01654,9.40846,4.99156,9.40846,2.20843,8.38447,1.18445" />
     <rect width="2.78312" x="16.6085" y="2.20843" fill="none"  height="2.78312" id="connector2pin"/>
     <g width="2.15829" x="16.9183" y="2.47054" fill="none"  height="2.25658" id="connector2terminal"/>
     <rect width="2.78312" x="16.6085" y="2.20843"  height="2.78312"/>
     <polygon fill="#2A2A29" points="15.5845,1.18445,16.6085,2.20843,19.3915,2.20843,20.4165,1.18445" />
     <polygon fill="#474747" points="20.4165,1.18445,19.3915,2.20843,19.3915,4.99156,20.4165,6.01654" />
     <polygon fill="#595959" points="20.4165,6.01654,19.3915,4.99156,16.6085,4.99156,15.5845,6.01654" />
     <polygon fill="#373737" points="15.5845,6.01654,16.6085,4.99156,16.6085,2.20843,15.5845,1.18445" />
    </g>
   </g>
  </g>
 </g>
 <g partID="103020">
  <g transform="translate(299.651,166.219)">
   <g transform="matrix(0,1,-1,0,0,0)">
    <g  id="breadboard">
     <rect width="2.16" x="0.6192" y="20.88" fill="none"  height="2.88" id="connector0pin"/>
     <rect width="2.16" x="7.8192" y="0" fill="none"  height="2.88" id="connector1pin"/>
     <rect width="2.16" x="15.0192" y="20.88" fill="none"  height="2.88" id="connector2pin"/>
     <g width="2.16" x="0.6192" y="21.6" fill="none"  height="2.16" id="connector0terminal"/>
     <g width="2.16" x="7.8192" y="0" fill="none"  height="2.16" id="connector1terminal"/>
     <g width="2.16" x="15.0192" y="21.6" fill="none"  height="2.16" id="connector2terminal"/>
     <g  id="legs">
      <g  id="pin0">
       <rect width="4.89096" x="0.6192" y="19.8878" fill="#8C8C8C"  height="1.44" id="rect10"/>
       <rect width="2.16" x="0.6192" y="20.0815" fill="#8C8C8C"  height="3.67848" id="rect14"/>
      </g>
      <g  id="pin2">
       <rect width="4.91832" x="12.2609" y="19.867" fill="#8C8C8C"  height="1.44" id="rect8"/>
       <rect width="2.16" x="15.0192" y="20.0599" fill="#8C8C8C"  height="3.70008" id="rect16"/>
      </g>
      <g  id="pin1">
       <rect width="4.464" x="6.6672" y="2.50488" fill="#8C8C8C"  height="1.44" id="rect12"/>
       <rect width="2.16" x="7.8192" fill="#8C8C8C"  height="4.32" id="rect18"/>
      </g>
     </g>
     <path fill="#6B6B6B"  id="path20" d="M8.89704,2.8656C3.98376,2.8656,0,6.85008,0,11.7662l0,8.89848l8.89704,0L17.7984,20.6647L17.7984,11.7648C17.7991,6.85008,13.8139,2.8656,8.89704,2.8656zM3.91104,15.1502l0,-6.768l9.9756,0l0,6.768L3.91104,15.1502z"/>
     <path fill="#CECECE"  id="path27" d="M7.36272,6.07392c-3.13848,0.84744,-4.99536,4.08096,-4.14936,7.21872c0.8496,3.1392,4.07952,4.9968,7.22088,4.1508c3.14136,-0.8496,4.9968,-4.08024,4.15008,-7.2216C13.7347,7.08264,10.5048,5.22432,7.36272,6.07392zM6.83496,13.3222l0.2556,-2.08152l3.11112,-0.84024l1.26936,1.66968L6.83496,13.3222z"/>
     <g >
      <polygon points="8.21376,12.9506,10.0908,12.443,10.9051,15.4548,9.02808,15.9624"  id="rect31"/>
      <polygon points="10.2017,10.3997,11.471,12.0701,9.17352,9.04392,8.77032,7.55352,6.89544,8.06112,7.29576,9.55152,6.83496,13.3222,7.09056,11.2406"  id="polygon33"/>
     </g>
     <g  id="g35">
      <polygon fill="#4D4D4D" points="4.69512,11.8872,5.20128,13.7628,6.83496,13.3222,7.09056,11.2406"  id="polygon37"/>
      <polygon fill="#4D4D4D" points="10.2017,10.3997,11.471,12.0701,13.1054,11.6294,12.5971,9.75312"  id="polygon39"/>
     </g>
     <path opacity="0.3"  id="path41" d="M17.0971,11.9959c-0.03168,-0.54648,-0.11664,-1.10016,-0.26352,-1.64952c-0.13392,-0.49392,-0.31536,-0.9576,-0.53064,-1.39968l-0.3852,0.13104l-0.576,-0.76536c-0.16416,-0.24984,-0.34704,-0.48744,-0.53928,-0.71208l-0.60552,-0.80064l0.32904,-0.24696c-1.9584,-1.80216,-4.76352,-2.59776,-7.52328,-1.85328c-2.75544,0.7452,-4.78008,2.84472,-5.56488,5.38776l0.40752,0.04752l-0.12024,0.99792c-0.05112,0.29088,-0.08856,0.58608,-0.10656,0.88632L1.5048,12.9715l-0.3996,0.07848c0.03888,0.49176,0.11664,0.98496,0.24984,1.47816c0.14976,0.54936,0.35496,1.0692,0.60264,1.55808l0.41976,-0.3384c0.4896,0.99504,1.1844,1.8396,2.01384,2.50992l-0.42192,0.33552c1.93752,1.61064,4.59792,2.2896,7.21656,1.584c2.61504,-0.70776,4.57344,-2.63304,5.43456,-4.99896l-0.53208,-0.08064c0.3816,-0.99576,0.55584,-2.07576,0.47664,-3.1824L17.0971,11.9959zM10.4537,17.4694c-2.77992,0.7524,-5.64408,-0.89424,-6.39504,-3.67344c-0.74952,-2.78064,0.89424,-5.64408,3.67416,-6.39288c2.7828,-0.75168,5.64408,0.89352,6.39504,3.672C14.881,13.8578,13.2336,16.7191,10.4537,17.4694z"/>
     <path  id="path43" d="M6.94656,4.52808c-3.996,1.07712,-6.35904,5.18904,-5.27904,9.18216c1.07784,3.99384,5.18976,6.36048,9.18504,5.27904c3.99312,-1.07856,6.3576,-5.18976,5.27688,-9.18432C15.0516,5.81256,10.9411,3.44808,6.94656,4.52808zM10.4357,17.4434c-3.14064,0.846,-6.37344,-1.00872,-7.2216,-4.15008c-0.84888,-3.14208,1.00944,-6.37488,4.14936,-7.22232c3.14136,-0.84744,6.37416,1.01088,7.22304,4.15152C15.4325,13.3632,13.5749,16.5967,10.4357,17.4434z"/>
     <path fill="#1A1A1A"  id="path45" d="M16.9027,11.3177c-0.03168,-0.5472,-0.1152,-1.1016,-0.26496,-1.65096c-0.13176,-0.49032,-0.31176,-0.95616,-0.5292,-1.39968l-0.38448,0.12888L14.0018,6.12l0.32832,-0.24696C12.3732,4.07088,9.56952,3.276,6.80976,4.02048c-2.75976,0.7452,-4.78152,2.844,-5.56632,5.38704l0.40608,0.04824L1.3104,12.2918l-0.3996,0.08136c0.03744,0.49176,0.11664,0.98496,0.2484,1.47456c0.14976,0.5508,0.3528,1.06992,0.60336,1.5588l1.13544,-0.91368l2.016,2.50488l-1.13976,0.91944c1.93464,1.60776,4.59576,2.286,7.21368,1.5804c2.6172,-0.70488,4.5756,-2.6316,5.43744,-4.9968l-1.4436,-0.21816l0.47592,-3.18024L16.9027,11.3177zM10.2586,16.7926c-2.77992,0.75024,-5.64408,-0.89496,-6.3936,-3.67488c-0.74952,-2.78064,0.89352,-5.64336,3.67488,-6.39216c2.78136,-0.75096,5.64192,0.8928,6.39288,3.67488C14.6844,13.1803,13.0385,16.0409,10.2586,16.7926z"/>
     <circle opacity="0.4" fill="#FFFFFF" cx="2.89224"  cy="8.37432" id="circle47" r="0.59976"/>
     <circle opacity="0.4" fill="#FFFFFF" cx="12.3862"  cy="5.81112" id="circle49" r="0.60048"/>
     <g opacity="0.4"  id="g51">
      <path fill="#FFFFFF"  id="path53" d="M7.22448,17.689l-0.252,-0.0612l0.05976,-0.25488l0.25056,0.05904l0.06048,-0.24984l0.50616,0.12024l-0.4824,2.0268l-0.5076,-0.12024L7.22448,17.689z"/>
      <path fill="#FFFFFF"  id="path55" d="M11.3702,19.0958l-1.0116,0.2556l-0.06408,-0.25488l-0.24984,0.06336l-0.38448,-1.51848l0.25128,-0.06336l-0.06408,-0.24984l1.01376,-0.2556l0.0612,0.252l0.25632,-0.06336l0.38232,1.51632l-0.25632,0.06336L11.3702,19.0958zM11.0542,18.9029l-0.3852,-1.51488l-0.50328,0.12816l0.38232,1.51632L11.0542,18.9029z"/>
      <path fill="#FFFFFF"  id="path57" d="M14.1566,16.3123l0.18288,-0.18144l0.18504,0.18504l-0.18216,0.18288l0.36792,0.37008l-0.37368,0.3708l-0.3672,-0.36792l-0.55512,0.54936l-0.36792,-0.3708l0.18216,-0.18l-0.36504,-0.37368l0.18432,-0.18432l0.37008,0.37008l-0.18792,0.1872l0.18288,0.18432l0.37152,-0.36792l-0.91944,-0.92304l0.37296,-0.3708L14.1566,16.3123z"/>
     </g>
    </g>
   </g>
  </g>
 </g>
 <g partID="102990">
  <line stroke="#000000" stroke-linecap="round" y1="182.319" x1="248.172" y2="182.318" stroke-width="3.2" x2="204.969"/>
  <line stroke="#404040" stroke-linecap="round" y1="182.319" x1="248.172" y2="182.318" stroke-width="1.6" x2="204.969"/>
 </g>
 <g partID="103370">
  <line stroke="#000000" stroke-linecap="round" y1="283.347" x1="255.369" y2="182.319" stroke-width="3.2" x2="255.372"/>
  <line stroke="#404040" stroke-linecap="round" y1="283.347" x1="255.369" y2="182.319" stroke-width="1.6" x2="255.372"/>
 </g>
 <g partID="103520">
  <line stroke="#000000" stroke-linecap="round" y1="283.347" x1="481.337" y2="283.347" stroke-width="3.2" x2="255.369"/>
  <line stroke="#404040" stroke-linecap="round" y1="283.347" x1="481.337" y2="283.347" stroke-width="1.6" x2="255.369"/>
 </g>
 <g partID="103220">
  <line stroke="#000000" stroke-linecap="round" y1="232.519" x1="481.337" y2="283.347" stroke-width="3.2" x2="481.337"/>
  <line stroke="#404040" stroke-linecap="round" y1="232.519" x1="481.337" y2="283.347" stroke-width="1.6" x2="481.337"/>
 </g>
 <g partID="103670">
  <line stroke="#8c0000" stroke-linecap="round" y1="232.519" x1="466.937" y2="268.718" stroke-width="3.2" x2="466.937"/>
  <line stroke="#cc1414" stroke-linecap="round" y1="232.519" x1="466.937" y2="268.718" stroke-width="1.6" x2="466.937"/>
 </g>
 <g partID="103740">
  <line stroke="#8c0000" stroke-linecap="round" y1="88.6037" x1="255.369" y2="167.918" stroke-width="3.2" x2="255.372"/>
  <line stroke="#cc1414" stroke-linecap="round" y1="88.6037" x1="255.369" y2="167.918" stroke-width="1.6" x2="255.372"/>
 </g>
 <g partID="103880">
  <line stroke="#8c0000" stroke-linecap="round" y1="268.718" x1="356.398" y2="88.6037" stroke-width="3.2" x2="356.398"/>
  <line stroke="#cc1414" stroke-linecap="round" y1="268.718" x1="356.398" y2="88.6037" stroke-width="1.6" x2="356.398"/>
 </g>
 <g partID="103950">
  <line stroke="#8c0000" stroke-linecap="round" y1="268.718" x1="466.937" y2="268.718" stroke-width="3.2" x2="356.398"/>
  <line stroke="#cc1414" stroke-linecap="round" y1="268.718" x1="466.937" y2="268.718" stroke-width="1.6" x2="356.398"/>
 </g>
 <g partID="103810">
  <line stroke="#8c0000" stroke-linecap="round" y1="88.6037" x1="356.398" y2="88.6037" stroke-width="3.2" x2="255.369"/>
  <line stroke="#cc1414" stroke-linecap="round" y1="88.6037" x1="356.398" y2="88.6037" stroke-width="1.6" x2="255.369"/>
 </g>
 <g partID="104230">
  <line stroke="#8c0000" stroke-linecap="round" y1="276.032" x1="474.137" y2="276.032" stroke-width="3.2" x2="226.569"/>
  <line stroke="#cc1414" stroke-linecap="round" y1="276.032" x1="474.137" y2="276.032" stroke-width="1.6" x2="226.569"/>
 </g>
 <g partID="104160">
  <line stroke="#8c0000" stroke-linecap="round" y1="276.032" x1="226.569" y2="175.004" stroke-width="3.2" x2="226.569"/>
  <line stroke="#cc1414" stroke-linecap="round" y1="276.032" x1="226.569" y2="175.004" stroke-width="1.6" x2="226.569"/>
 </g>
 <g partID="104090">
  <line stroke="#8c0000" stroke-linecap="round" y1="175.004" x1="226.569" y2="175.118" stroke-width="3.2" x2="204.969"/>
  <line stroke="#cc1414" stroke-linecap="round" y1="175.004" x1="226.569" y2="175.118" stroke-width="1.6" x2="204.969"/>
 </g>
 <g partID="104020">
  <line stroke="#8c0000" stroke-linecap="round" y1="232.519" x1="474.137" y2="276.032" stroke-width="3.2" x2="474.137"/>
  <line stroke="#cc1414" stroke-linecap="round" y1="232.519" x1="474.137" y2="276.032" stroke-width="1.6" x2="474.137"/>
 </g>
 <g partID="104300">
  <path fill="none" stroke="#d95821" stroke-linecap="round" stroke-width="3.2" d="M204.542,168.771C250.563,-110.224, 479.647,64.9571 476.268,95.918"/>
  <path fill="none" stroke="#ff7033" stroke-linecap="round" stroke-width="1.6" d="M204.542,168.771C250.563,-110.224, 479.647,64.9571 476.268,95.918"/>
 </g>
 <g partID="104370">
  <line stroke="#d95821" stroke-linecap="round" y1="175.12" x1="327.372" y2="175.12" stroke-width="3.2" x2="327.372"/>
  <line stroke="#ff7033" stroke-linecap="round" y1="175.12" x1="327.372" y2="175.12" stroke-width="1.6" x2="327.372"/>
 </g>
 <g partID="104400">
  <path fill="none" stroke="#1b5bb3" stroke-linecap="round" stroke-width="3.2" d="M327.372,175.12C467.938,114.608, 437.847,336.516 507.036,232.519"/>
  <path fill="none" stroke="#418dd9" stroke-linecap="round" stroke-width="1.6" d="M327.372,175.12C467.938,114.608, 437.847,336.516 507.036,232.519"/>
 </g>
</svg>
