<?xml version="1.0" encoding="UTF-8" standalone="no"?>
<svg
   xmlns:dc="http://purl.org/dc/elements/1.1/"
   xmlns:cc="http://creativecommons.org/ns#"
   xmlns:rdf="http://www.w3.org/1999/02/22-rdf-syntax-ns#"
   xmlns:svg="http://www.w3.org/2000/svg"
   xmlns="http://www.w3.org/2000/svg"
   xmlns:sodipodi="http://sodipodi.sourceforge.net/DTD/sodipodi-0.dtd"
   xmlns:inkscape="http://www.inkscape.org/namespaces/inkscape"
   version="1.1"
   x="0"
   y="0"
   width="220"
   height="120"
   viewBox="0 0 244.44445 133.33334"
   id="svg8974"
   inkscape:version="0.48.4 r9939"
   sodipodi:docname="servo_exp.svg">
  <metadata
     id="metadata9012">
    <rdf:RDF>
      <cc:Work
         rdf:about="">
        <dc:format>image/svg+xml</dc:format>
        <dc:type
           rdf:resource="http://purl.org/dc/dcmitype/StillImage" />
        <dc:title></dc:title>
      </cc:Work>
    </rdf:RDF>
  </metadata>
  <defs
     id="defs9010">
    <inkscape:path-effect
       effect="spiro"
       id="path-effect9032"
       is_visible="true" />
    <inkscape:path-effect
       effect="spiro"
       id="path-effect9028"
       is_visible="true" />
    <inkscape:path-effect
       effect="spiro"
       id="path-effect9024"
       is_visible="true" />
    <inkscape:path-effect
       effect="spiro"
       id="path-effect9020"
       is_visible="true" />
    <inkscape:path-effect
       effect="spiro"
       id="path-effect9016"
       is_visible="true" />
  </defs>
  <sodipodi:namedview
     pagecolor="#ffffff"
     bordercolor="#666666"
     borderopacity="1"
     objecttolerance="10"
     gridtolerance="10"
     guidetolerance="10"
     inkscape:pageopacity="0"
     inkscape:pageshadow="2"
     inkscape:window-width="1360"
     inkscape:window-height="734"
     id="namedview9008"
     showgrid="false"
     inkscape:zoom="1.9714919"
     inkscape:cx="9.2760137"
     inkscape:cy="41.540803"
     inkscape:window-x="34"
     inkscape:window-y="2"
     inkscape:window-maximized="0"
     inkscape:current-layer="svg8974"
     showguides="true"
     inkscape:guide-bbox="true">
    <sodipodi:guide
       orientation="1,0"
       position="113.36593,-2.5361505"
       id="guide9844" />
  </sodipodi:namedview>
  <g
     id="g9846"
     transform="matrix(1.43,0,0,1.43,7.8953667,0.49851217)">
    <g
       transform="translate(-0.555968,45.0334)"
       id="breadboard">
      <rect
         style="fill:none"
         height="1"
         width="1"
         y="27.986"
         x="101.453"
         id="connector0pin" />
      <rect
         style="fill:none"
         height="1"
         width="1"
         y="25.163"
         x="101.562"
         id="connector1pin" />
      <rect
         style="fill:none"
         height="1"
         width="1"
         y="22.379999"
         x="101.453"
         id="connector2pin" />
      <line
         style="fill:none;stroke:#000000;stroke-width:3;stroke-linecap:round"
         y2="39.405998"
         x2="113.97603"
         y1="38.405998"
         x1="112.353"
         id="connector0leg" />
      <line
         style="fill:none;stroke:#ff0000;stroke-width:3;stroke-linecap:round"
         y2="29.406"
         x2="113.97603"
         y1="29.063"
         x1="112.667"
         id="connector1leg" />
      <line
         style="fill:none;stroke:#ffff00;stroke-width:3;stroke-linecap:round"
         y2="19.406"
         x2="113.97603"
         y1="19.68"
         x1="112.506"
         id="connector2leg" />
      <path
         style="fill:none;stroke:#000000;stroke-width:3"
         inkscape:connector-curvature="0"
         d="m 101.453,27.986 c 0,0 -7.079,-1.869 10.9,10.42"
         id="path7" />
      <path
         style="fill:none;stroke:#ff0000;stroke-width:3"
         inkscape:connector-curvature="0"
         d="m 101.562,25.163 c 5.604,0 5.705,1.629 11.105,3.9"
         id="path9" />
      <path
         style="fill:none;stroke:#ffff00;stroke-width:3"
         inkscape:connector-curvature="0"
         d="m 101.453,22.38 c 7.475,0 10.553,-4.412 11.053,-1.3"
         id="path11" />
      <polygon
         style="fill:#333333"
         points="97.717,11.169 97.717,46.669 17.372,46.669 17.372,11.169 0.556,11.169 0.556,9.302 17.372,9.302 17.372,-9.384 97.717,-9.384 97.717,9.302 114.532,9.302 114.532,11.169 "
         id="polygon13" />
      <polygon
         points="11.766,41.065 11.766,11.169 17.372,11.169 17.372,46.669 "
         id="polygon15" />
      <polygon
         style="fill:#999999"
         points="11.766,3.695 17.372,9.302 0.556,9.302 0.556,-0.042 11.766,-0.042 "
         id="polygon17" />
      <polygon
         style="fill:#999999"
         points="17.372,-31.805 97.717,-31.805 103.321,-26.2 103.321,-14.989 97.717,-9.384 17.372,-9.384 11.766,-14.989 11.766,-26.2 "
         id="polygon19" />
      <polygon
         style="fill:#666666"
         points="103.321,41.065 103.321,11.169 97.717,11.169 97.717,46.669 "
         id="polygon21" />
      <polygon
         style="fill:#999999"
         points="103.321,3.695 97.717,9.302 114.533,9.302 114.533,-0.042 103.321,-0.042 "
         id="polygon23" />
      <polygon
         points="11.766,3.695 11.766,-14.989 17.372,-9.384 17.372,9.302 "
         id="polygon25" />
      <polygon
         style="fill:#666666"
         points="103.321,3.695 103.321,-14.989 97.717,-9.384 97.717,9.302 "
         id="polygon27" />
      <path
         style="fill:#cccccc"
         inkscape:connector-curvature="0"
         d="m 44.471,-17.606 c -6.562,3.61 -13.786,1.541 -16.543,-0.162 -2.758,-1.703 -19.059,-15.57 -21.247,-16.949 -2.19,-1.379 -1.947,-3.32 -1.947,-6.131 0,-3.577 1.784,2.676 5.516,4.379 3.729,1.703 37.683,5.893 37.683,12.11 -0.002,1.892 0.755,4.433 -3.462,6.753 z"
         id="path29" />
      <path
         style="fill:#ffffff"
         inkscape:connector-curvature="0"
         d="m 44.471,-19.52 c -6.244,4.136 -13.786,1.541 -16.543,-0.163 C 25.17,-21.386 8.869,-35.253 6.681,-36.632 4.491,-38.01 3.599,-42.065 6.6,-44.011 c 3,-1.946 7.136,-0.812 10.866,0.892 3.73,1.703 19.383,8.271 24.734,11.435 5.353,3.162 8.517,8.028 2.271,12.164 z M 11.654,-38.362 c 2.628,0 4.759,-1.065 4.759,-2.379 0,-1.314 -2.131,-2.378 -4.759,-2.378 -2.628,0 -4.758,1.064 -4.758,2.378 0,1.314 2.13,2.379 4.758,2.379 z"
         id="path31" />
      <g
         id="g33">
        <path
           style="fill:#cccccc"
           inkscape:connector-curvature="0"
           d="m 16.35,-40.229 c -0.472,-1.065 -2.369,-1.862 -4.643,-1.862 -2.272,0 -4.231,0.796 -4.703,1.861 l 0.004,10e-4 c -0.072,-0.165 -0.112,-0.335 -0.112,-0.511 0,-1.314 2.13,-2.378 4.758,-2.378 2.628,0 4.759,1.064 4.759,2.378 0,0.176 0,0.356 -0.072,0.521 l 0.009,-0.01 z"
           id="path35" />
      </g>
      <g
         id="g37">
        <ellipse
           style="fill:#999999"
           sodipodi:ry="4.4650002"
           sodipodi:rx="8.0019999"
           sodipodi:cy="-25.386"
           sodipodi:cx="36.091999"
           d="m 44.093999,-25.386 c 0,2.465952 -3.582617,4.465 -8.002,4.465 -4.419382,0 -8.002,-1.999048 -8.002,-4.465 0,-2.465951 3.582618,-4.465 8.002,-4.465 4.419383,0 8.002,1.999049 8.002,4.465 z"
           ry="4.4650002"
           rx="8.0019999"
           cy="-25.386"
           cx="36.091999"
           id="ellipse39" />
        <g
           id="g41">
          <path
             style="fill:#666666"
             inkscape:connector-curvature="0"
             d="m 28.234,-25.429 c 0.794,1.919 3.985,3.356 7.807,3.356 3.822,0 7.116,-1.436 7.912,-3.356 h -0.008 c 0.121,0.296 0.188,0.604 0.188,0.92 0,2.368 -3.582,4.288 -8.002,4.288 -4.42,0 -8.002,-1.92 -8.002,-4.288 0,-0.316 -0.001,-0.642 0.12,-0.938 l -0.015,0.018 z"
             id="path43" />
        </g>
      </g>
      <g
         id="g45">
        <path
           style="fill:#ffcc33"
           inkscape:connector-curvature="0"
           d="m 56.535,-23.224 v 1.136 h 3.406 v 1.135 h 1.135 v 1.135 h -1.135 v 1.136 h -5.678 v -1.136 h 4.541 v -1.135 h -3.406 v -1.135 h -1.135 v -1.136 h 1.135 v -1.135 h 5.678 v 1.135 h -4.541 z"
           id="path47" />
        <path
           style="fill:#ffcc33"
           inkscape:connector-curvature="0"
           d="m 69.023,-24.359 v 1.135 h -4.541 v 1.136 h 3.406 v 1.135 h -3.406 v 1.135 h 4.541 v 1.136 h -6.812 v -5.677 h 6.812 l 0,0 z"
           id="path49" />
        <path
           style="fill:#ffcc33"
           inkscape:connector-curvature="0"
           d="m 75.836,-23.224 h 1.137 v 2.271 h -1.137 v 1.135 h 1.137 v 1.136 h -3.406 v -1.136 H 72.43 v 1.136 h -2.271 v -5.677 h 5.677 l 0,1.135 0,0 z m -1.136,0 h -2.27 v 2.271 h 2.27 v -2.271 z"
           id="path51" />
        <path
           style="fill:#ffcc33"
           inkscape:connector-curvature="0"
           d="m 84.919,-24.359 v 2.271 h -1.135 v 2.27 h -1.138 v 1.136 h -2.271 v -1.136 H 79.24 v -2.27 h -1.136 v -2.271 h 2.271 v 2.271 h 2.271 v -2.271 h 2.273 z"
           id="path53" />
        <path
           style="fill:#ffcc33"
           inkscape:connector-curvature="0"
           d="m 87.189,-18.682 v -1.136 h -1.135 v -3.406 h 1.135 v -1.135 h 4.541 v 1.135 h 1.136 v 3.406 H 91.73 v 1.136 h -4.541 l 0,0 z m 3.407,-1.136 v -3.406 h -2.271 v 3.406 h 2.271 z"
           id="path55" />
      </g>
    </g>
    <path
       sodipodi:nodetypes="ccc"
       inkscape:connector-curvature="0"
       inkscape:original-d="m 112.56706,74.614488 8.36886,-4.782211 35.86659,0"
       inkscape:path-effect="#path-effect9024"
       id="path9022"
       d="m 112.56706,74.614488 8.36886,-4.782211 35.86659,0"
       style="fill:none;stroke:#ff0000;stroke-width:3.33333325;stroke-linecap:butt;stroke-linejoin:miter;stroke-opacity:1" />
    <path
       transform="matrix(1.1111111,0,0,1.1111111,-2.6072633e-6,0)"
       inkscape:connector-curvature="0"
       inkscape:original-d="m 101.14377,75.358841 8.24931,3.586659 32.99726,-0.358666"
       inkscape:path-effect="#path-effect9028"
       id="path9026"
       d="m 101.14377,75.358841 8.24931,3.586659 32.99726,-0.358666"
       style="fill:none;stroke:#000000;stroke-width:3;stroke-linecap:butt;stroke-linejoin:miter;stroke-opacity:1" />
    <path
       inkscape:connector-curvature="0"
       inkscape:original-d="m 113.01392,64.675723 9.56442,-12.752563 34.67104,0.398517"
       inkscape:path-effect="#path-effect9032"
       id="path9030"
       d="m 113.01392,64.675723 9.56442,-12.752563 34.67104,0.398517"
       style="fill:none;stroke:#ffff00;stroke-width:3.33333349;stroke-linecap:butt;stroke-linejoin:miter;stroke-opacity:1" />
    <text
       sodipodi:linespacing="125%"
       id="text9810"
       y="49.292324"
       x="125.96213"
       style="font-size:17.77777672px;font-style:normal;font-weight:normal;line-height:125%;letter-spacing:0px;word-spacing:0px;fill:#000000;fill-opacity:1;stroke:none;font-family:Sans"
       xml:space="preserve"><tspan
         style="font-size:8.88888931px"
         y="49.292324"
         x="125.96213"
         id="tspan9812"
         sodipodi:role="line">control</tspan></text>
    <text
       sodipodi:linespacing="125%"
       id="text9810-5"
       y="66.511391"
       x="125.96214"
       style="font-size:17.77777672px;font-style:normal;font-weight:normal;line-height:125%;letter-spacing:0px;word-spacing:0px;fill:#000000;fill-opacity:1;stroke:none;font-family:Sans"
       xml:space="preserve"><tspan
         style="font-size:8.88888931px"
         y="66.511391"
         x="125.96214"
         id="tspan9812-7"
         sodipodi:role="line">power</tspan></text>
    <text
       sodipodi:linespacing="125%"
       id="text9810-8"
       y="84.628777"
       x="125.96214"
       style="font-size:17.77777672px;font-style:normal;font-weight:normal;line-height:125%;letter-spacing:0px;word-spacing:0px;fill:#000000;fill-opacity:1;stroke:none;font-family:Sans"
       xml:space="preserve"><tspan
         style="font-size:8.88888931px"
         y="84.628777"
         x="125.96214"
         id="tspan9812-2"
         sodipodi:role="line">ground</tspan></text>
  </g>
</svg>
