<?xml version="1.0" encoding="UTF-8" standalone="no"?>
<svg
   xmlns:dc="http://purl.org/dc/elements/1.1/"
   xmlns:cc="http://creativecommons.org/ns#"
   xmlns:rdf="http://www.w3.org/1999/02/22-rdf-syntax-ns#"
   xmlns:svg="http://www.w3.org/2000/svg"
   xmlns="http://www.w3.org/2000/svg"
   xmlns:sodipodi="http://sodipodi.sourceforge.net/DTD/sodipodi-0.dtd"
   xmlns:inkscape="http://www.inkscape.org/namespaces/inkscape"
   version="1.1"
   x="0"
   y="0"
   width="220"
   height="120"
   viewBox="0 0 244.44445 133.33334"
   id="svg8974"
   inkscape:version="0.48.4 r9939"
   sodipodi:docname="servo_exp.svg">
  <metadata
     id="metadata9012">
    <rdf:RDF>
      <cc:Work
         rdf:about="">
        <dc:format>image/svg+xml</dc:format>
        <dc:type
           rdf:resource="http://purl.org/dc/dcmitype/StillImage" />
        <dc:title></dc:title>
      </cc:Work>
    </rdf:RDF>
  </metadata>
  <defs
     id="defs9010">
    <inkscape:path-effect
       effect="spiro"
       id="path-effect9032"
       is_visible="true" />
    <inkscape:path-effect
       effect="spiro"
       id="path-effect9028"
       is_visible="true" />
    <inkscape:path-effect
       effect="spiro"
       id="path-effect9024"
       is_visible="true" />
    <inkscape:path-effect
       effect="spiro"
       id="path-effect9020"
       is_visible="true" />
    <inkscape:path-effect
       effect="spiro"
       id="path-effect9016"
       is_visible="true" />
  </defs>
  <sodipodi:namedview
     pagecolor="#ffffff"
     bordercolor="#666666"
     borderopacity="1"
     objecttolerance="10"
     gridtolerance="10"
     guidetolerance="10"
     inkscape:pageopacity="0"
     inkscape:pageshadow="2"
     inkscape:window-width="1360"
     inkscape:window-height="734"
     id="namedview9008"
     showgrid="false"
     inkscape:zoom="2.7881106"
     inkscape:cx="142.96996"
     inkscape:cy="94.679895"
     inkscape:window-x="34"
     inkscape:window-y="2"
     inkscape:window-maximized="0"
     inkscape:current-layer="breadboard"
     showguides="true"
     inkscape:guide-bbox="true">
    <sodipodi:guide
       orientation="1,0"
       position="113.36593,-2.5361505"
       id="guide9844" />
  </sodipodi:namedview>
  <g
     id="g9846"
     transform="matrix(1.43,0,0,1.43,7.8953667,0.49851217)">
    <g
       transform="translate(-0.555968,45.0334)"
       id="breadboard">
      <rect
         style="fill:none"
         height="1"
         width="1"
         y="27.986"
         x="101.453"
         id="connector0pin" />
      <rect
         style="fill:none"
         height="1"
         width="1"
         y="25.163"
         x="101.562"
         id="connector1pin" />
      <rect
         style="fill:none"
         height="1"
         width="1"
         y="22.379999"
         x="101.453"
         id="connector2pin" />
      <line
         style="fill:none;stroke:#ff0000;stroke-width:3;stroke-linecap:round"
         y2="29.406"
         x2="113.97603"
         y1="29.063"
         x1="112.667"
         id="connector1leg" />
      <path
         style="fill:none;stroke:#784421;stroke-width:3"
         inkscape:connector-curvature="0"
         d="m 102.84642,28.82205 c 0,0 -7.079002,-1.869 10.9,10.42"
         id="path7" />
      <path
         style="fill:none;stroke:#ff0000;stroke-width:3"
         inkscape:connector-curvature="0"
         d="m 101.562,25.163 c 5.604,0 5.705,1.629 11.105,3.9"
         id="path9" />
      <path
         style="fill:none;stroke:#ff6600;stroke-width:3"
         inkscape:connector-curvature="0"
         d="m 102.28905,22.205823 c 7.475,0 10.553,-4.412 11.053,-1.3"
         id="path11" />
      <polygon
         style="fill:#333333"
         points="97.717,11.169 97.717,46.669 17.372,46.669 17.372,11.169 0.556,11.169 0.556,9.302 17.372,9.302 17.372,-9.384 97.717,-9.384 97.717,9.302 114.532,9.302 114.532,11.169 "
         id="polygon13" />
      <polygon
         points="11.766,41.065 11.766,11.169 17.372,11.169 17.372,46.669 "
         id="polygon15" />
      <polygon
         style="fill:#999999"
         points="11.766,3.695 17.372,9.302 0.556,9.302 0.556,-0.042 11.766,-0.042 "
         id="polygon17" />
      <polygon
         style="fill:#999999"
         points="17.372,-31.805 97.717,-31.805 103.321,-26.2 103.321,-14.989 97.717,-9.384 17.372,-9.384 11.766,-14.989 11.766,-26.2 "
         id="polygon19" />
      <polygon
         style="fill:#666666"
         points="103.321,41.065 103.321,11.169 97.717,11.169 97.717,46.669 "
         id="polygon21" />
      <polygon
         style="fill:#999999"
         points="103.321,3.695 97.717,9.302 114.533,9.302 114.533,-0.042 103.321,-0.042 "
         id="polygon23" />
      <polygon
         points="11.766,3.695 11.766,-14.989 17.372,-9.384 17.372,9.302 "
         id="polygon25" />
      <polygon
         style="fill:#666666"
         points="103.321,3.695 103.321,-14.989 97.717,-9.384 97.717,9.302 "
         id="polygon27" />
      <path
         style="fill:#cccccc"
         inkscape:connector-curvature="0"
         d="m 44.471,-17.606 c -6.562,3.61 -13.786,1.541 -16.543,-0.162 -2.758,-1.703 -19.059,-15.57 -21.247,-16.949 -2.19,-1.379 -1.947,-3.32 -1.947,-6.131 0,-3.577 1.784,2.676 5.516,4.379 3.729,1.703 37.683,5.893 37.683,12.11 -0.002,1.892 0.755,4.433 -3.462,6.753 z"
         id="path29" />
      <path
         style="fill:#ffffff"
         inkscape:connector-curvature="0"
         d="m 44.471,-19.52 c -6.244,4.136 -13.786,1.541 -16.543,-0.163 C 25.17,-21.386 8.869,-35.253 6.681,-36.632 4.491,-38.01 3.599,-42.065 6.6,-44.011 c 3,-1.946 7.136,-0.812 10.866,0.892 3.73,1.703 19.383,8.271 24.734,11.435 5.353,3.162 8.517,8.028 2.271,12.164 z M 11.654,-38.362 c 2.628,0 4.759,-1.065 4.759,-2.379 0,-1.314 -2.131,-2.378 -4.759,-2.378 -2.628,0 -4.758,1.064 -4.758,2.378 0,1.314 2.13,2.379 4.758,2.379 z"
         id="path31" />
      <g
         id="g33">
        <path
           style="fill:#cccccc"
           inkscape:connector-curvature="0"
           d="m 16.35,-40.229 c -0.472,-1.065 -2.369,-1.862 -4.643,-1.862 -2.272,0 -4.231,0.796 -4.703,1.861 l 0.004,10e-4 c -0.072,-0.165 -0.112,-0.335 -0.112,-0.511 0,-1.314 2.13,-2.378 4.758,-2.378 2.628,0 4.759,1.064 4.759,2.378 0,0.176 0,0.356 -0.072,0.521 l 0.009,-0.01 z"
           id="path35" />
      </g>
      <g
         id="g37">
        <ellipse
           style="fill:#999999"
           sodipodi:ry="4.4650002"
           sodipodi:rx="8.0019999"
           sodipodi:cy="-25.386"
           sodipodi:cx="36.091999"
           d="m 44.093999,-25.386 c 0,2.465952 -3.582617,4.465 -8.002,4.465 -4.419382,0 -8.002,-1.999048 -8.002,-4.465 0,-2.465951 3.582618,-4.465 8.002,-4.465 4.419383,0 8.002,1.999049 8.002,4.465 z"
           ry="4.4650002"
           rx="8.0019999"
           cy="-25.386"
           cx="36.091999"
           id="ellipse39" />
        <g
           id="g41">
          <path
             style="fill:#666666"
             inkscape:connector-curvature="0"
             d="m 28.234,-25.429 c 0.794,1.919 3.985,3.356 7.807,3.356 3.822,0 7.116,-1.436 7.912,-3.356 h -0.008 c 0.121,0.296 0.188,0.604 0.188,0.92 0,2.368 -3.582,4.288 -8.002,4.288 -4.42,0 -8.002,-1.92 -8.002,-4.288 0,-0.316 -0.001,-0.642 0.12,-0.938 l -0.015,0.018 z"
             id="path43" />
        </g>
      </g>
      <g
         id="g45">
        <path
           style="fill:#ffcc33"
           inkscape:connector-curvature="0"
           d="m 56.535,-23.224 v 1.136 h 3.406 v 1.135 h 1.135 v 1.135 h -1.135 v 1.136 h -5.678 v -1.136 h 4.541 v -1.135 h -3.406 v -1.135 h -1.135 v -1.136 h 1.135 v -1.135 h 5.678 v 1.135 h -4.541 z"
           id="path47" />
        <path
           style="fill:#ffcc33"
           inkscape:connector-curvature="0"
           d="m 69.023,-24.359 v 1.135 h -4.541 v 1.136 h 3.406 v 1.135 h -3.406 v 1.135 h 4.541 v 1.136 h -6.812 v -5.677 h 6.812 l 0,0 z"
           id="path49" />
        <path
           style="fill:#ffcc33"
           inkscape:connector-curvature="0"
           d="m 75.836,-23.224 h 1.137 v 2.271 h -1.137 v 1.135 h 1.137 v 1.136 h -3.406 v -1.136 H 72.43 v 1.136 h -2.271 v -5.677 h 5.677 l 0,1.135 0,0 z m -1.136,0 h -2.27 v 2.271 h 2.27 v -2.271 z"
           id="path51" />
        <path
           style="fill:#ffcc33"
           inkscape:connector-curvature="0"
           d="m 84.919,-24.359 v 2.271 h -1.135 v 2.27 h -1.138 v 1.136 h -2.271 v -1.136 H 79.24 v -2.27 h -1.136 v -2.271 h 2.271 v 2.271 h 2.271 v -2.271 h 2.273 z"
           id="path53" />
        <path
           style="fill:#ffcc33"
           inkscape:connector-curvature="0"
           d="m 87.189,-18.682 v -1.136 h -1.135 v -3.406 h 1.135 v -1.135 h 4.541 v 1.135 h 1.136 v 3.406 H 91.73 v 1.136 h -4.541 l 0,0 z m 3.407,-1.136 v -3.406 h -2.271 v 3.406 h 2.271 z"
           id="path55" />
      </g>
    </g>
    <path
       sodipodi:nodetypes="ccc"
       inkscape:connector-curvature="0"
       inkscape:original-d="m 112.56706,74.614488 8.36886,-4.782211 35.86659,0"
       inkscape:path-effect="#path-effect9024"
       id="path9022"
       d="m 112.56706,74.614488 8.36886,-4.782211 35.86659,0"
       style="fill:none;stroke:#ff0000;stroke-width:3.33333325;stroke-linecap:butt;stroke-linejoin:miter;stroke-opacity:1" />
    <path
       transform="matrix(1.1111111,0,0,1.1111111,-2.6072633e-6,0)"
       inkscape:connector-curvature="0"
       inkscape:original-d="m 101.14377,75.358841 8.24931,3.586659 32.99726,-0.358666"
       inkscape:path-effect="#path-effect9028"
       id="path9026"
       d="m 101.14377,75.358841 8.24931,3.586659 32.99726,-0.358666"
       style="fill:none;stroke:#784421;stroke-width:3;stroke-linecap:butt;stroke-linejoin:miter;stroke-opacity:1" />
    <path
       inkscape:connector-curvature="0"
       inkscape:original-d="m 113.01392,64.675723 9.56442,-12.752563 34.67104,0.398517"
       inkscape:path-effect="#path-effect9032"
       id="path9030"
       d="m 113.01392,64.675723 9.56442,-12.752563 34.67104,0.398517"
       style="fill:none;stroke:#ff6600;stroke-width:3.33333348999999980;stroke-linecap:butt;stroke-linejoin:miter;stroke-opacity:1" />
    <g
       style="font-size:17.77777672px;font-style:normal;font-weight:normal;line-height:125%;letter-spacing:0px;word-spacing:0px;fill:#000000;fill-opacity:1;stroke:none;font-family:Sans"
       id="text9810">
      <path
         d="m 129.55588,47.603956 0.76823,0.09983 c -0.0839,0.529515 -0.29876,0.944011 -0.64453,1.24349 -0.34578,0.299479 -0.77041,0.449219 -1.27388,0.449219 -0.63078,0 -1.13787,-0.206163 -1.52126,-0.61849 -0.3834,-0.412325 -0.57509,-1.003326 -0.57509,-1.773003 0,-0.497683 0.0825,-0.933157 0.2474,-1.306424 0.16493,-0.37326 0.41594,-0.653208 0.75303,-0.839844 0.3371,-0.186627 0.70385,-0.279943 1.10026,-0.279948 0.50058,5e-6 0.91001,0.126596 1.2283,0.379774 0.31829,0.253187 0.52228,0.612707 0.61198,1.07856 l -0.75955,0.117187 c -0.0723,-0.309603 -0.20038,-0.542531 -0.38411,-0.698785 -0.18374,-0.156246 -0.40582,-0.234371 -0.66623,-0.234375 -0.39352,4e-6 -0.71326,0.141063 -0.95921,0.423177 -0.24595,0.282122 -0.36892,0.728447 -0.36892,1.338976 0,0.619215 0.11863,1.069157 0.3559,1.349827 0.23727,0.280672 0.54688,0.421007 0.92882,0.421007 0.30671,0 0.56279,-0.09404 0.76823,-0.282118 0.20544,-0.188078 0.33565,-0.47743 0.39063,-0.868056 z"
         style="font-size:8.88888931px"
         id="path13864" />
      <path
         d="m 130.70171,46.987636 c 0,-0.853584 0.23727,-1.485818 0.71181,-1.896701 0.39641,-0.341431 0.87962,-0.512148 1.44965,-0.512153 0.63368,5e-6 1.15162,0.207615 1.55382,0.62283 0.40219,0.415224 0.60329,0.988863 0.6033,1.72092 -10e-6,0.593173 -0.089,1.059753 -0.26693,1.39974 -0.17795,0.339989 -0.43692,0.604022 -0.77691,0.792101 -0.33999,0.188078 -0.71108,0.282118 -1.11328,0.282118 -0.64526,0 -1.16681,-0.206887 -1.56467,-0.62066 -0.39786,-0.413772 -0.59679,-1.009836 -0.59679,-1.788195 z m 0.80295,0 c 0,0.59028 0.12876,1.032265 0.38629,1.325955 0.25752,0.293693 0.58159,0.440539 0.97222,0.440539 0.38773,0 0.71036,-0.147569 0.96788,-0.442709 0.25752,-0.295137 0.38628,-0.745079 0.38629,-1.349826 -1e-5,-0.57002 -0.12949,-1.001878 -0.38846,-1.295573 -0.25897,-0.293688 -0.58088,-0.440534 -0.96571,-0.440538 -0.39063,4e-6 -0.7147,0.146126 -0.97222,0.438368 -0.25753,0.292248 -0.38629,0.73351 -0.38629,1.323784 z"
         style="font-size:8.88888931px"
         id="path13866" />
      <path
         d="m 135.94043,49.292324 0,-4.609375 0.70312,0 0,0.655382 c 0.33854,-0.506361 0.82755,-0.759544 1.46702,-0.759549 0.27777,5e-6 0.53312,0.04992 0.76605,0.14974 0.23293,0.09983 0.40726,0.230762 0.52301,0.392795 0.11573,0.162041 0.19675,0.35446 0.24305,0.577257 0.0289,0.144679 0.0434,0.397862 0.0434,0.759549 l 0,2.834201 -0.78125,0 0,-2.80382 c -1e-5,-0.318283 -0.0304,-0.556275 -0.0911,-0.713975 -0.0608,-0.157693 -0.16855,-0.283561 -0.32335,-0.377604 -0.15481,-0.09404 -0.33637,-0.141055 -0.5447,-0.141059 -0.33276,4e-6 -0.61994,0.105617 -0.86155,0.31684 -0.24161,0.21123 -0.36241,0.611982 -0.36241,1.202257 l 0,2.517361 z"
         style="font-size:8.88888931px"
         id="path13868" />
      <path
         d="m 142.59407,48.593539 0.11285,0.690105 c -0.21991,0.0463 -0.41667,0.06944 -0.59028,0.06944 -0.28356,0 -0.50347,-0.04485 -0.65972,-0.134549 -0.15625,-0.0897 -0.2662,-0.207609 -0.32986,-0.353732 -0.0637,-0.146122 -0.0955,-0.453558 -0.0955,-0.922309 l 0,-2.65191 -0.57291,0 0,-0.607639 0.57291,0 0,-1.141493 0.77691,-0.46875 0,1.610243 0.78559,0 0,0.607639 -0.78559,0 0,2.695312 c 0,0.222802 0.0137,0.366031 0.0412,0.429688 0.0275,0.06366 0.0723,0.114295 0.13454,0.15191 0.0622,0.03762 0.15119,0.05642 0.26693,0.05642 0.0868,10e-7 0.2011,-0.01013 0.34288,-0.03038 z"
         style="font-size:8.88888931px"
         id="path13870" />
      <path
         d="m 143.34494,49.292324 0,-4.609375 0.70313,0 0,0.698785 c 0.17939,-0.326964 0.34505,-0.542531 0.49696,-0.646702 0.15191,-0.104162 0.31901,-0.156245 0.5013,-0.15625 0.26331,5e-6 0.53096,0.08392 0.80295,0.251736 l -0.26909,0.724827 c -0.19098,-0.112844 -0.38195,-0.169267 -0.57292,-0.169271 -0.17072,4e-6 -0.32408,0.05136 -0.46007,0.15408 -0.136,0.102723 -0.23293,0.245229 -0.2908,0.427517 -0.0868,0.277781 -0.13021,0.5816 -0.13021,0.911459 l 0,2.413194 z"
         style="font-size:8.88888931px"
         id="path13872" />
      <path
         d="m 146.03157,46.987636 c 0,-0.853584 0.23727,-1.485818 0.71181,-1.896701 0.39641,-0.341431 0.87963,-0.512148 1.44965,-0.512153 0.63368,5e-6 1.15162,0.207615 1.55382,0.62283 0.4022,0.415224 0.6033,0.988863 0.6033,1.72092 0,0.593173 -0.089,1.059753 -0.26693,1.39974 -0.17795,0.339989 -0.43692,0.604022 -0.77691,0.792101 -0.33999,0.188078 -0.71108,0.282118 -1.11328,0.282118 -0.64525,0 -1.16681,-0.206887 -1.56467,-0.62066 -0.39786,-0.413772 -0.59679,-1.009836 -0.59679,-1.788195 z m 0.80296,0 c -1e-5,0.59028 0.12876,1.032265 0.38628,1.325955 0.25752,0.293693 0.5816,0.440539 0.97222,0.440539 0.38773,0 0.71036,-0.147569 0.96788,-0.442709 0.25752,-0.295137 0.38629,-0.745079 0.38629,-1.349826 0,-0.57002 -0.12949,-1.001878 -0.38846,-1.295573 -0.25897,-0.293688 -0.58087,-0.440534 -0.96571,-0.440538 -0.39062,4e-6 -0.7147,0.146126 -0.97222,0.438368 -0.25752,0.292248 -0.38629,0.73351 -0.38628,1.323784 z"
         style="font-size:8.88888931px"
         id="path13874" />
      <path
         d="m 151.25293,49.292324 0,-6.362847 0.78125,0 0,6.362847 z"
         style="font-size:8.88888931px"
         id="path13876" />
    </g>
    <g
       style="font-size:17.77777672px;font-style:normal;font-weight:normal;line-height:125%;letter-spacing:0px;word-spacing:0px;fill:#000000;fill-opacity:1;stroke:none;font-family:Sans"
       id="text9810-5">
      <path
         d="m 126.54808,68.277884 0,-6.375869 0.71181,0 0,0.598959 c 0.16782,-0.234371 0.35734,-0.410152 0.56857,-0.527344 0.21123,-0.117183 0.4673,-0.175776 0.76823,-0.175781 0.39352,5e-6 0.74074,0.101278 1.04167,0.303819 0.30092,0.202551 0.52806,0.488285 0.68142,0.857205 0.15335,0.368927 0.23003,0.773296 0.23004,1.213108 -1e-5,0.471645 -0.0846,0.896269 -0.25391,1.273871 -0.16927,0.377605 -0.41522,0.666957 -0.73785,0.868056 -0.32263,0.2011 -0.66189,0.301649 -1.01779,0.301649 -0.26042,0 -0.49407,-0.05498 -0.70096,-0.16493 -0.20689,-0.109954 -0.37688,-0.248843 -0.50998,-0.416667 l 0,2.243924 z m 0.70747,-4.045139 c -1e-5,0.593173 0.12008,1.03154 0.36024,1.315104 0.24016,0.283565 0.53096,0.425348 0.87239,0.425347 0.34722,10e-7 0.64453,-0.146845 0.89193,-0.440538 0.24739,-0.293691 0.37109,-0.748696 0.3711,-1.365017 -10e-6,-0.587382 -0.12081,-1.027196 -0.36242,-1.319445 -0.24161,-0.292241 -0.53024,-0.438364 -0.86588,-0.438368 -0.33276,4e-6 -0.62718,0.155531 -0.88325,0.46658 -0.25608,0.311056 -0.38412,0.763168 -0.38411,1.356337 z"
         style="font-size:8.88888931px"
         id="path13853" />
      <path
         d="m 131.2052,64.206703 c 0,-0.853585 0.23727,-1.485818 0.7118,-1.896701 0.39642,-0.341431 0.87963,-0.512148 1.44966,-0.512153 0.63367,5e-6 1.15161,0.207614 1.55382,0.62283 0.40219,0.415223 0.60329,0.988863 0.6033,1.72092 -10e-6,0.593173 -0.089,1.059752 -0.26693,1.39974 -0.17796,0.339989 -0.43693,0.604022 -0.77691,0.7921 -0.33999,0.188079 -0.71109,0.282118 -1.11328,0.282118 -0.64526,0 -1.16682,-0.206886 -1.56467,-0.620659 -0.39786,-0.413773 -0.59679,-1.009837 -0.59679,-1.788195 z m 0.80295,0 c 0,0.59028 0.12876,1.032264 0.38628,1.325955 0.25753,0.293693 0.5816,0.440539 0.97223,0.440538 0.38773,10e-7 0.71035,-0.147569 0.96788,-0.442708 0.25752,-0.295138 0.38628,-0.745079 0.38628,-1.349827 0,-0.57002 -0.12948,-1.001877 -0.38845,-1.295573 -0.25897,-0.293688 -0.58088,-0.440534 -0.96571,-0.440538 -0.39063,4e-6 -0.7147,0.146127 -0.97223,0.438368 -0.25752,0.292249 -0.38628,0.73351 -0.38628,1.323785 z"
         style="font-size:8.88888931px"
         id="path13855" />
      <path
         d="m 137.29461,66.511391 -1.41059,-4.609376 0.80729,0 0.73351,2.660591 0.27343,0.989583 c 0.0116,-0.04919 0.0911,-0.366029 0.23872,-0.950521 l 0.73351,-2.699653 0.80295,0 0.6901,2.673612 0.23004,0.881076 0.26475,-0.889757 0.78993,-2.664931 0.75955,0 -1.44097,4.609376 -0.81163,0 -0.73351,-2.760417 -0.17795,-0.78559 -0.93316,3.546007 z"
         style="font-size:8.88888931px"
         id="path13857" />
      <path
         d="m 146.02291,65.027016 0.80729,0.09983 c -0.12732,0.471644 -0.36314,0.837674 -0.70746,1.09809 -0.34434,0.260417 -0.78415,0.390625 -1.31945,0.390625 -0.67419,0 -1.20877,-0.20761 -1.60373,-0.62283 -0.39497,-0.415219 -0.59245,-0.997539 -0.59245,-1.746961 0,-0.77546 0.19965,-1.377312 0.59896,-1.805556 0.3993,-0.428236 0.91724,-0.642356 1.55382,-0.642361 0.61631,5e-6 1.11979,0.209784 1.51041,0.62934 0.39063,0.419564 0.58594,1.009841 0.58594,1.770834 0,0.0463 -0.001,0.115742 -0.004,0.208333 l -3.4375,0 c 0.0289,0.506367 0.17217,0.894098 0.42969,1.163194 0.25752,0.269098 0.5787,0.403647 0.96354,0.403646 0.28646,10e-7 0.53096,-0.07523 0.73351,-0.225694 0.20254,-0.150462 0.36313,-0.390624 0.48177,-0.720486 z m -2.56511,-1.263021 2.57379,0 c -0.0347,-0.387729 -0.13311,-0.678527 -0.29514,-0.872396 -0.24885,-0.300922 -0.57147,-0.451385 -0.96788,-0.451389 -0.3588,4e-6 -0.66045,0.120085 -0.90495,0.360243 -0.2445,0.240166 -0.37977,0.561346 -0.40582,0.963542 z"
         style="font-size:8.88888931px"
         id="path13859" />
      <path
         d="m 147.80676,66.511391 0,-4.609376 0.70313,0 0,0.698785 c 0.17939,-0.326963 0.34505,-0.54253 0.49696,-0.646701 0.15191,-0.104162 0.31901,-0.156245 0.5013,-0.15625 0.26331,5e-6 0.53096,0.08392 0.80295,0.251736 l -0.26909,0.724826 c -0.19098,-0.112843 -0.38195,-0.169267 -0.57292,-0.169271 -0.17072,4e-6 -0.32408,0.05136 -0.46007,0.15408 -0.136,0.102724 -0.23293,0.24523 -0.2908,0.427518 -0.0868,0.277781 -0.13021,0.5816 -0.13021,0.911458 l 0,2.413195 z"
         style="font-size:8.88888931px"
         id="path13861" />
    </g>
    <g
       style="font-size:17.77777672px;font-style:normal;font-weight:normal;line-height:125%;letter-spacing:0px;word-spacing:0px;fill:#000000;fill-opacity:1;stroke:none;font-family:Sans"
       id="text9810-8">
      <path
         d="m 126.40485,85.010721 0.75955,0.112847 c 0.0318,0.234375 0.12008,0.405092 0.26476,0.512153 0.19386,0.144675 0.45862,0.217013 0.79427,0.217014 0.36168,-10e-7 0.64091,-0.07234 0.83767,-0.217014 0.19676,-0.144677 0.32986,-0.347223 0.39931,-0.607639 0.0405,-0.159144 0.0593,-0.493345 0.0564,-1.002604 -0.34144,0.402199 -0.76678,0.603299 -1.27604,0.603299 -0.63368,0 -1.12413,-0.228588 -1.47136,-0.685764 -0.34722,-0.457175 -0.52083,-1.005496 -0.52083,-1.644966 0,-0.439812 0.0796,-0.845627 0.23872,-1.217448 0.15914,-0.371813 0.3899,-0.658994 0.69227,-0.861545 0.30237,-0.202542 0.65755,-0.303815 1.06554,-0.303819 0.54398,4e-6 0.99247,0.219912 1.34549,0.659722 l 0,-0.555556 0.72048,0 0,3.984376 c 0,0.717592 -0.0731,1.226127 -0.21918,1.525607 -0.14613,0.299478 -0.37761,0.536023 -0.69445,0.709636 -0.31684,0.173609 -0.70674,0.260414 -1.1697,0.260416 -0.54977,-2e-6 -0.99393,-0.123699 -1.33247,-0.371093 -0.33854,-0.247398 -0.50202,-0.619938 -0.49045,-1.117622 z m 0.6467,-2.769097 c 0,0.604747 0.12008,1.046008 0.36025,1.323784 0.24016,0.277779 0.54108,0.416668 0.90277,0.416667 0.3588,1e-6 0.65972,-0.138165 0.90278,-0.414496 0.24305,-0.27633 0.36458,-0.709634 0.36458,-1.299914 0,-0.564233 -0.12514,-0.98958 -0.37543,-1.276041 -0.25029,-0.286455 -0.55194,-0.429684 -0.90495,-0.429688 -0.34722,4e-6 -0.64236,0.141063 -0.88541,0.423177 -0.24306,0.282122 -0.36459,0.700958 -0.36459,1.256511 z"
         style="font-size:8.88888931px"
         id="path13840" />
      <path
         d="m 131.48732,84.628777 0,-4.609376 0.70312,0 0,0.698785 c 0.1794,-0.326963 0.34505,-0.54253 0.49696,-0.646701 0.15191,-0.104162 0.31901,-0.156246 0.50131,-0.15625 0.2633,4e-6 0.53095,0.08392 0.80295,0.251736 l -0.2691,0.724826 c -0.19097,-0.112843 -0.38195,-0.169267 -0.57292,-0.169271 -0.17072,4e-6 -0.32407,0.05136 -0.46007,0.15408 -0.13599,0.102724 -0.23293,0.245229 -0.29079,0.427518 -0.0868,0.27778 -0.13021,0.5816 -0.13021,0.911458 l 0,2.413195 z"
         style="font-size:8.88888931px"
         id="path13842" />
      <path
         d="m 134.17395,82.324089 c 0,-0.853585 0.23727,-1.485818 0.7118,-1.896702 0.39642,-0.34143 0.87963,-0.512148 1.44966,-0.512152 0.63367,4e-6 1.15161,0.207614 1.55382,0.62283 0.40219,0.415223 0.60329,0.988863 0.6033,1.72092 -10e-6,0.593173 -0.089,1.059752 -0.26693,1.399739 -0.17796,0.339989 -0.43693,0.604023 -0.77691,0.792101 -0.33999,0.188079 -0.71109,0.282118 -1.11328,0.282118 -0.64526,0 -1.16682,-0.206886 -1.56467,-0.62066 -0.39786,-0.413772 -0.59679,-1.009836 -0.59679,-1.788194 z m 0.80295,0 c 0,0.590279 0.12876,1.032264 0.38628,1.325955 0.25753,0.293693 0.5816,0.440539 0.97223,0.440538 0.38773,10e-7 0.71035,-0.147569 0.96788,-0.442708 0.25752,-0.295138 0.38628,-0.74508 0.38628,-1.349827 0,-0.57002 -0.12948,-1.001877 -0.38845,-1.295573 -0.25897,-0.293688 -0.58088,-0.440534 -0.96571,-0.440538 -0.39063,4e-6 -0.7147,0.146127 -0.97223,0.438368 -0.25752,0.292249 -0.38628,0.73351 -0.38628,1.323785 z"
         style="font-size:8.88888931px"
         id="path13844" />
      <path
         d="m 142.4335,84.628777 0,-0.677084 c -0.3588,0.520834 -0.84636,0.78125 -1.46268,0.78125 -0.27199,0 -0.52589,-0.05208 -0.76171,-0.15625 -0.23583,-0.104166 -0.41089,-0.235098 -0.52518,-0.392795 -0.11429,-0.157696 -0.19459,-0.350838 -0.24088,-0.579427 -0.0318,-0.153355 -0.0478,-0.396411 -0.0478,-0.729167 l 0,-2.855903 0.78125,0 0,2.556424 c 0,0.407988 0.0159,0.682872 0.0478,0.824653 0.0492,0.205441 0.15335,0.366754 0.3125,0.483941 0.15914,0.117188 0.3559,0.175782 0.59027,0.175781 0.23438,1e-6 0.45428,-0.06004 0.65973,-0.180121 0.20543,-0.120081 0.35083,-0.283564 0.43619,-0.490452 0.0854,-0.206885 0.12804,-0.507087 0.12804,-0.900607 l 0,-2.469619 0.78125,0 0,4.609376 z"
         style="font-size:8.88888931px"
         id="path13846" />
      <path
         d="m 144.36058,84.628777 0,-4.609376 0.70313,0 0,0.655382 c 0.33854,-0.506361 0.82754,-0.759544 1.46701,-0.759548 0.27778,4e-6 0.53313,0.04992 0.76606,0.149739 0.23292,0.09983 0.40726,0.230763 0.523,0.392795 0.11574,0.162041 0.19676,0.35446 0.24306,0.577257 0.0289,0.14468 0.0434,0.397862 0.0434,0.759549 l 0,2.834202 -0.78125,0 0,-2.80382 c 0,-0.318284 -0.0304,-0.556276 -0.0911,-0.713976 -0.0608,-0.157693 -0.16855,-0.283561 -0.32335,-0.377604 -0.15481,-0.09404 -0.33638,-0.141055 -0.54471,-0.141059 -0.33276,4e-6 -0.61994,0.105617 -0.86154,0.31684 -0.24161,0.211231 -0.36242,0.611983 -0.36242,1.202257 l 0,2.517362 z"
         style="font-size:8.88888931px"
         id="path13848" />
      <path
         d="m 152.29895,84.628777 0,-0.581598 c -0.29225,0.457176 -0.72194,0.685764 -1.28906,0.685764 -0.36748,0 -0.7053,-0.101273 -1.01346,-0.303819 -0.30816,-0.202546 -0.54687,-0.485387 -0.71614,-0.848525 -0.16927,-0.363135 -0.25391,-0.780524 -0.25391,-1.25217 0,-0.460066 0.0767,-0.877456 0.23004,-1.25217 0.15335,-0.374707 0.38339,-0.661888 0.6901,-0.861545 0.30671,-0.199648 0.64959,-0.299475 1.02865,-0.299479 0.27777,4e-6 0.52517,0.0586 0.74218,0.175781 0.21701,0.117192 0.39352,0.269825 0.52952,0.457899 l 0,-2.282986 0.77691,0 0,6.362848 z m -2.46962,-2.300348 c 0,0.59028 0.12442,1.031541 0.37327,1.323785 0.24884,0.292246 0.54253,0.438369 0.88107,0.438368 0.34143,10e-7 0.63151,-0.139612 0.87023,-0.418837 0.23871,-0.279223 0.35807,-0.705293 0.35807,-1.278212 0,-0.630784 -0.12153,-1.093746 -0.36458,-1.388889 -0.24306,-0.295135 -0.54254,-0.442704 -0.89844,-0.442708 -0.34722,4e-6 -0.6373,0.141786 -0.87023,0.425347 -0.23293,0.283569 -0.34939,0.730617 -0.34939,1.341146 z"
         style="font-size:8.88888931px"
         id="path13850" />
    </g>
  </g>
</svg>
