<?xml version="1.0" encoding="UTF-8" standalone="no"?>
<!-- Created with Inkscape (http://www.inkscape.org/) -->

<svg
   xmlns:dc="http://purl.org/dc/elements/1.1/"
   xmlns:cc="http://creativecommons.org/ns#"
   xmlns:rdf="http://www.w3.org/1999/02/22-rdf-syntax-ns#"
   xmlns:svg="http://www.w3.org/2000/svg"
   xmlns="http://www.w3.org/2000/svg"
   xmlns:sodipodi="http://sodipodi.sourceforge.net/DTD/sodipodi-0.dtd"
   xmlns:inkscape="http://www.inkscape.org/namespaces/inkscape"
   id="svg2985"
   version="1.1"
   inkscape:version="0.48.4 r9939"
   width="200"
   height="40"
   xml:space="preserve"
   sodipodi:docname="goveq.svg"><metadata
     id="metadata2991"><rdf:RDF><cc:Work
         rdf:about=""><dc:format>image/svg+xml</dc:format><dc:type
           rdf:resource="http://purl.org/dc/dcmitype/StillImage" /><dc:title></dc:title></cc:Work></rdf:RDF></metadata><defs
     id="defs2989" /><sodipodi:namedview
     pagecolor="#ffffff"
     bordercolor="#666666"
     borderopacity="1"
     objecttolerance="10"
     gridtolerance="10"
     guidetolerance="10"
     inkscape:pageopacity="0"
     inkscape:pageshadow="2"
     inkscape:window-width="1024"
     inkscape:window-height="622"
     id="namedview2987"
     showgrid="false"
     inkscape:zoom="3.3648601"
     inkscape:cx="68.605739"
     inkscape:cy="35.25743"
     inkscape:window-x="0"
     inkscape:window-y="0"
     inkscape:window-maximized="0"
     inkscape:current-layer="g2993" /><g
     id="g2993"
     inkscape:groupmode="layer"
     inkscape:label="P04_2"
     transform="matrix(1.25,0,0,-1.25,0,39.999951)"><g
       id="g3055"
       transform="matrix(1.728,0,0,1.728,-206.99352,-1201.8267)"><g
         transform="matrix(1,0,0,-1,120.443,701.148)"
         id="text2995"><path
           d="m 3.8527501,0.11675 -0.5895875,0 -3.1872751,-8.6686876 1.295925,0 2.2007376,6.2986626 2.1190125,-6.2986626 1.2550625,0 z"
           style="font-size:11.9552002px;font-style:normal;font-variant:normal;font-weight:normal;font-stretch:normal;writing-mode:lr-tb;fill:#000000;fill-opacity:1;fill-rule:nonzero;stroke:none;font-family:Trebuchet MS;-inkscape-font-specification:Trebuchet MS"
           id="path3086"
           inkscape:connector-curvature="0" /></g><g
         transform="matrix(1,0,0,-1,127.267,699.354)"
         id="text2999"><path
           d="m 0.25295727,-2.0937079 c -2.5e-7,-0.6434168 0.17317802,-1.1629516 0.51953533,-1.558606 0.3463558,-0.395647 0.802327,-0.5934724 1.3679151,-0.5934766 0.596717,4.2e-6 1.0598229,0.1900463 1.3893192,0.5701267 0.3294892,0.3800879 0.4942355,0.9074059 0.4942396,1.5819559 -4.1e-6,0.6719597 -0.1686421,1.20187225 -0.5059146,1.58973918 C 3.1807724,-0.11610079 2.7215581,0.07783293 2.1404077,0.07783301 1.5462809,0.07783293 1.0831749,-0.11804661 0.75108852,-0.5098062 0.4190006,-0.90156476 0.25295702,-1.4295315 0.25295727,-2.0937079 z m 0.77833003,0 c -10e-7,1.0455578 0.3697054,1.56833563 1.1091204,1.5683351 0.3450572,5.3e-7 0.6155266,-0.14009875 0.8114091,-0.42029824 C 3.1476934,-1.2258686 3.2456332,-1.6085472 3.2456364,-2.0937079 3.2456332,-3.1262893 2.877224,-3.6425811 2.1404077,-3.6425847 1.8031295,-3.6425811 1.5339573,-3.5050762 1.3328902,-3.2300698 1.1318205,-2.9550569 1.0312863,-2.57627 1.0312873,-2.0937079 z"
           style="font-size:7.97009993px;font-variant:normal;font-weight:normal;writing-mode:lr-tb;fill:#000000;fill-opacity:1;fill-rule:nonzero;stroke:none;font-family:Trebuchet MS;-inkscape-font-specification:Trebuchet MS"
           id="path3089"
           inkscape:connector-curvature="0" /><path
           d="m 5.318516,-4.1679575 0,2.6579972 c -1.2e-6,0.64342035 0.2789001,0.9651298 0.8367048,0.96512925 0.2438745,5.5e-7 0.4669955,-0.0700491 0.6693639,-0.21014912 0.2023629,-0.14009852 0.3359761,-0.30225043 0.40084,-0.48645633 l 0,-2.926521 0.7394135,0 0,4.1679575 -0.7394135,0 0,-0.57596425 C 7.1423997,-0.41251453 6.9757075,-0.26268614 6.7253476,-0.12647864 6.4749824,0.00972912 6.2304572,0.07783293 5.9917715,0.07783301 5.5351497,0.07783293 5.1855502,-0.05318583 4.9429717,-0.31522368 4.7003916,-0.57726089 4.5791019,-0.94956174 4.5791024,-1.4321273 l 0,-2.7358302 z"
           style="font-size:7.97009993px;font-variant:normal;font-weight:normal;writing-mode:lr-tb;fill:#000000;fill-opacity:1;fill-rule:nonzero;stroke:none;font-family:Trebuchet MS;-inkscape-font-specification:Trebuchet MS"
           id="path3091"
           inkscape:connector-curvature="0" /><path
           d="m 9.7858565,-3.58421 -0.4825646,0 0,-0.5837475 0.4825646,0 0,-0.8717297 0.7394135,-0.2840905 0,1.1558202 1.144145,0 0,0.5837475 -1.144145,0 0,2.070358 c -1e-6,0.3502497 0.05902,0.59931508 0.17707,0.74719688 0.118045,0.14788333 0.308087,0.22182462 0.570127,0.22182407 0.189391,5.5e-7 0.385271,-0.0479964 0.587639,-0.14399106 l 0.108966,0.64990561 c -0.306145,0.07783296 -0.642124,0.11674943 -1.007937,0.11674951 -0.329495,-8e-8 -0.607747,-0.12258694 -0.834759,-0.36776096 C 9.8993621,-0.53510139 9.7858557,-0.84448728 9.7858565,-1.2180866 z"
           style="font-size:7.97009993px;font-variant:normal;font-weight:normal;writing-mode:lr-tb;fill:#000000;fill-opacity:1;fill-rule:nonzero;stroke:none;font-family:Trebuchet MS;-inkscape-font-specification:Trebuchet MS"
           id="path3093"
           inkscape:connector-curvature="0" /></g><g
         transform="matrix(1,0,0,-1,143.14,701.148)"
         id="text3003"><path
           d="m 6.3161751,-5.0319251 -5.65070009,0 0,-0.9807 5.65070009,0 z m 0,2.5976876 -5.65070009,0 0,-0.9807001 5.65070009,0 z"
           style="font-size:11.9552002px;font-variant:normal;font-weight:normal;writing-mode:lr-tb;fill:#000000;fill-opacity:1;fill-rule:nonzero;stroke:none;font-family:CMR12;-inkscape-font-specification:CMR12"
           id="path3096"
           inkscape:connector-curvature="0" /></g><g
         transform="matrix(1,0,0,-1,165.631,706.893)"
         id="text3007"><path
           d="M 3.7476593,0 2.226024,-2.4478481 c -0.1738291,2.5e-6 -0.4488388,-0.01297 -0.8250299,-0.038917 l 0,2.4867646 -0.77833004,0 0,-5.7012678 c 0.0285381,5.7e-6 0.23025512,-0.00972 0.60515164,-0.029187 0.374894,-0.019452 0.6479579,-0.029182 0.8191924,-0.029187 1.3698575,5.7e-6 2.0547873,0.5448362 2.0547914,1.6344931 -4.1e-6,0.3580356 -0.1102674,0.6803937 -0.3307903,0.9670751 -0.2205304,0.2866878 -0.4825679,0.4650549 -0.7861134,0.535102 L 4.6388472,0 z m -2.3466652,-5.0007707 0,1.8524256 c 0.1867977,0.025947 0.3684078,0.03892 0.5448311,0.038916 0.4669956,3.1e-6 0.8068661,-0.075235 1.0196124,-0.2257158 0.2127403,-0.1504736 0.319112,-0.4189972 0.3191153,-0.8055716 -3.3e-6,-0.3191108 -0.1141582,-0.548718 -0.3424652,-0.6888221 -0.2283129,-0.1400944 -0.5889388,-0.2101441 -1.0818788,-0.2101491 -0.077835,5e-6 -0.2309062,0.012977 -0.4592148,0.038917 z"
           style="font-size:7.97009993px;font-variant:normal;font-weight:normal;writing-mode:lr-tb;fill:#000000;fill-opacity:1;fill-rule:nonzero;stroke:none;font-family:Trebuchet MS;-inkscape-font-specification:Trebuchet MS"
           id="path3099"
           inkscape:connector-curvature="0" /></g><g
         transform="matrix(1,0,0,-1,172.008,705.896)"
         id="text3011"><path
           d="m 0.94859377,-0.17220625 0,1.39808125 -0.55456251,0 0,-4.3518563 0.55456251,0 0,0.25685 c 0.21014883,-0.2101469 0.46407983,-0.3152218 0.76179373,-0.315225 0.4436479,3.2e-6 0.789033,0.1381572 1.0361563,0.4144625 0.2471178,0.2763108 0.3706781,0.6810438 0.3706813,1.2142 -3.2e-6,0.4747844 -0.1245364,0.86249136 -0.3736001,1.16312192 C 2.4945559,-0.09194053 2.1345771,0.05837494 1.6636875,0.058375 1.5313693,0.05837494 1.3898101,0.03502497 1.2390094,-0.011675 1.0882062,-0.05837494 0.99140111,-0.11188531 0.94859377,-0.17220625 z m 0,-2.27954375 0,1.82129999 c 0.035024,0.0525381 0.10896563,0.10264324 0.22182503,0.15031563 0.112857,0.0476734 0.2227965,0.0715098 0.3298187,0.0715094 0.6888228,4.1e-7 1.033235,-0.38916587 1.0332375,-1.16750002 C 2.5334725,-1.9711272 2.451748,-2.2600832 2.2883,-2.4429938 2.1248479,-2.6258995 1.8631336,-2.7173536 1.5031563,-2.7173563 c -0.077835,2.7e-6 -0.1731805,0.027244 -0.2860375,0.081725 -0.1128595,0.054486 -0.2023677,0.1157796 -0.26852503,0.1838813 z"
           style="font-size:5.9776001px;font-variant:normal;font-weight:normal;writing-mode:lr-tb;fill:#000000;fill-opacity:1;fill-rule:nonzero;stroke:none;font-family:Trebuchet MS;-inkscape-font-specification:Trebuchet MS"
           id="path3102"
           inkscape:connector-curvature="0" /></g><g
         transform="translate(156.761,704.136)"
         id="g3015"><path
           inkscape:connector-curvature="0"
           id="path3017"
           style="fill:none;stroke:#000000;stroke-width:0.398;stroke-linecap:butt;stroke-linejoin:miter;stroke-miterlimit:10;stroke-opacity:1;stroke-dasharray:none"
           d="M 0,0 28.455,0" /></g><g
         transform="matrix(1,0,0,-1,156.761,697.025)"
         id="text3019"><path
           d="M 3.7476593,0 2.226024,-2.4478481 c -0.1738291,2.5e-6 -0.4488388,-0.01297 -0.8250299,-0.038917 l 0,2.4867646 -0.77833004,0 0,-5.7012678 c 0.0285381,5.7e-6 0.23025512,-0.00972 0.60515164,-0.029187 0.374894,-0.019452 0.6479579,-0.029182 0.8191924,-0.029187 1.3698575,5.7e-6 2.0547873,0.5448362 2.0547914,1.6344931 -4.1e-6,0.3580356 -0.1102674,0.6803937 -0.3307903,0.9670751 -0.2205304,0.2866878 -0.4825679,0.4650549 -0.7861134,0.535102 L 4.6388472,0 z m -2.3466652,-5.0007707 0,1.8524256 c 0.1867977,0.025947 0.3684078,0.03892 0.5448311,0.038916 0.4669956,3.1e-6 0.8068661,-0.075235 1.0196124,-0.2257158 0.2127403,-0.1504736 0.319112,-0.4189972 0.3191153,-0.8055716 -3.3e-6,-0.3191108 -0.1141582,-0.548718 -0.3424652,-0.6888221 -0.2283129,-0.1400944 -0.5889388,-0.2101441 -1.0818788,-0.2101491 -0.077835,5e-6 -0.2309062,0.012977 -0.4592148,0.038917 z"
           style="font-size:7.97009993px;font-variant:normal;font-weight:normal;writing-mode:lr-tb;fill:#000000;fill-opacity:1;fill-rule:nonzero;stroke:none;font-family:Trebuchet MS;-inkscape-font-specification:Trebuchet MS"
           id="path3105"
           inkscape:connector-curvature="0" /></g><g
         transform="matrix(1,0,0,-1,163.139,695.619)"
         id="text3023"><path
           d="m 2.0839875,-3.9111251 c -0.1128603,-0.038913 -0.2179352,-0.058371 -0.315225,-0.058375 -0.1692891,4e-6 -0.3089025,0.064216 -0.4188406,0.1926375 -0.1099408,0.1284287 -0.1649106,0.2909056 -0.1649094,0.4874313 -1.2e-6,0.052541 0.00486,0.107024 0.014594,0.16345 l 0.6362875,0 0,0.467 -0.6362875,0 0,2.6589813 -0.55456254,0 0,-2.6589813 -0.45532501,0 0,-0.467 0.45532501,0 c -6.4e-7,-0.3988923 0.0982638,-0.7121712 0.29479376,-0.9398375 C 1.1363655,-4.293477 1.396134,-4.4073082 1.7191438,-4.4073126 c 0.1615023,4.4e-6 0.3346813,0.029192 0.5195375,0.087562 z"
           style="font-size:5.9776001px;font-variant:normal;font-weight:normal;writing-mode:lr-tb;fill:#000000;fill-opacity:1;fill-rule:nonzero;stroke:none;font-family:Trebuchet MS;-inkscape-font-specification:Trebuchet MS"
           id="path3108"
           inkscape:connector-curvature="0" /></g><g
         transform="matrix(1,0,0,-1,167.913,697.025)"
         id="text3027"><path
           d="m 1.9964166,-0.92232113 0,-1.56444347 -1.55276846,0 0,-0.6537972 1.55276846,0 0,-1.5527685 0.6615806,0 0,1.5527685 1.5527685,0 0,0.6537972 -1.5527685,0 0,1.56444347 z"
           style="font-size:7.97009993px;font-variant:normal;font-weight:normal;writing-mode:lr-tb;fill:#000000;fill-opacity:1;fill-rule:nonzero;stroke:none;font-family:CMR8;-inkscape-font-specification:CMR8"
           id="path3111"
           inkscape:connector-curvature="0" /></g><g
         transform="matrix(1,0,0,-1,174.5,697.025)"
         id="text3031"><path
           d="M 3.7476593,0 2.226024,-2.4478481 c -0.1738291,2.5e-6 -0.4488388,-0.01297 -0.8250299,-0.038917 l 0,2.4867646 -0.77833004,0 0,-5.7012678 c 0.0285381,5.7e-6 0.23025512,-0.00972 0.60515164,-0.029187 0.374894,-0.019452 0.6479579,-0.029182 0.8191924,-0.029187 1.3698575,5.7e-6 2.0547873,0.5448362 2.0547914,1.6344931 -4.1e-6,0.3580356 -0.1102674,0.6803937 -0.3307903,0.9670751 -0.2205304,0.2866878 -0.4825679,0.4650549 -0.7861134,0.535102 L 4.6388472,0 z m -2.3466652,-5.0007707 0,1.8524256 c 0.1867977,0.025947 0.3684078,0.03892 0.5448311,0.038916 0.4669956,3.1e-6 0.8068661,-0.075235 1.0196124,-0.2257158 0.2127403,-0.1504736 0.319112,-0.4189972 0.3191153,-0.8055716 -3.3e-6,-0.3191108 -0.1141582,-0.548718 -0.3424652,-0.6888221 -0.2283129,-0.1400944 -0.5889388,-0.2101441 -1.0818788,-0.2101491 -0.077835,5e-6 -0.2309062,0.012977 -0.4592148,0.038917 z"
           style="font-size:7.97009993px;font-variant:normal;font-weight:normal;writing-mode:lr-tb;fill:#000000;fill-opacity:1;fill-rule:nonzero;stroke:none;font-family:Trebuchet MS;-inkscape-font-specification:Trebuchet MS"
           id="path3114"
           inkscape:connector-curvature="0" /></g><g
         transform="matrix(1,0,0,-1,180.878,696.029)"
         id="text3035"><path
           d="m 0.94859377,-0.17220625 0,1.39808125 -0.55456251,0 0,-4.3518563 0.55456251,0 0,0.25685 c 0.21014883,-0.2101469 0.46407983,-0.3152218 0.76179373,-0.315225 0.4436479,3.2e-6 0.789033,0.1381572 1.0361563,0.4144625 0.2471178,0.2763108 0.3706781,0.6810438 0.3706813,1.2142 -3.2e-6,0.4747844 -0.1245364,0.86249136 -0.3736001,1.16312192 C 2.4945559,-0.09194053 2.1345771,0.05837494 1.6636875,0.058375 1.5313693,0.05837494 1.3898101,0.03502497 1.2390094,-0.011675 1.0882062,-0.05837494 0.99140111,-0.11188531 0.94859377,-0.17220625 z m 0,-2.27954375 0,1.82129999 c 0.035024,0.0525381 0.10896563,0.10264324 0.22182503,0.15031563 0.112857,0.0476734 0.2227965,0.0715098 0.3298187,0.0715094 0.6888228,4.1e-7 1.033235,-0.38916587 1.0332375,-1.16750002 C 2.5334725,-1.9711272 2.451748,-2.2600832 2.2883,-2.4429938 2.1248479,-2.6258995 1.8631336,-2.7173536 1.5031563,-2.7173563 c -0.077835,2.7e-6 -0.1731805,0.027244 -0.2860375,0.081725 -0.1128595,0.054486 -0.2023677,0.1157796 -0.26852503,0.1838813 z"
           style="font-size:5.9776001px;font-variant:normal;font-weight:normal;writing-mode:lr-tb;fill:#000000;fill-opacity:1;fill-rule:nonzero;stroke:none;font-family:Trebuchet MS;-inkscape-font-specification:Trebuchet MS"
           id="path3117"
           inkscape:connector-curvature="0" /></g><g
         transform="scale(1,-1)"
         id="text3039"><path
           d="m 193.02849,-704.87385 -1.00989,0.0175 0.92233,0.61293 0.27436,0.36193 -0.71217,0.6071 -0.31523,-0.40863 -0.47867,-0.92816 -0.53122,0.94568 -0.25101,0.3736 -0.76471,-0.58959 0.29187,-0.40279 0.92233,-0.48451 -1.0274,-0.15761 -0.52538,-0.1868 0.4203,-0.87563 0.5604,0.21599 0.72969,0.55456 -0.36776,-1.19669 0,-0.46116 1.0274,0 0,0.44365 -0.35025,1.23171 0.92232,-0.62461 0.43198,-0.15761 0.33274,0.93984 z"
           style="font-size:11.9552002px;font-style:normal;font-variant:normal;font-weight:normal;font-stretch:normal;writing-mode:lr-tb;fill:#000000;fill-opacity:1;fill-rule:nonzero;stroke:none;font-family:Trebuchet MS;-inkscape-font-specification:Trebuchet MS"
           id="path3120"
           inkscape:connector-curvature="0" /></g><g
         transform="matrix(1,0,0,-1,197.703,701.148)"
         id="text3043"><path
           d="m 1.3543,-4.1738126 -0.39694998,-0.2743625 0,-4.1387875 4.25553758,0 0,0.992375 -3.1464126,0 0,2.07815 c 0.287981,-0.2140359 0.6537973,-0.3210567 1.0974501,-0.3210625 0.793896,5.8e-6 1.4000225,0.2373973 1.8183812,0.712175 0.4183488,0.474788 0.6275257,1.1499915 0.6275313,2.0256125 C 5.609832,-0.95540323 4.6544288,0.11674989 2.743625,0.11675 1.9458314,0.11674989 1.2842487,-0.1050749 0.75887501,-0.54872501 L 1.2083625,-1.5235875 c 0.529265,0.4319761 1.0390728,0.64796336 1.529425,0.64796249 1.0974462,8.7e-7 1.6461707,-0.68493179 1.6461751,-2.05479999 -4.4e-6,-1.2764625 -0.5409455,-1.9146952 -1.6228251,-1.9147001 -0.5214855,4.9e-6 -0.9904309,0.2237755 -1.4068375,0.6713125 z"
           style="font-size:11.9552002px;font-variant:normal;font-weight:normal;writing-mode:lr-tb;fill:#000000;fill-opacity:1;fill-rule:nonzero;stroke:none;font-family:Trebuchet MS;-inkscape-font-specification:Trebuchet MS"
           id="path3123"
           inkscape:connector-curvature="0" /></g><g
         transform="matrix(1,0,0,-1,203.556,701.148)"
         id="text3047"><path
           d="m 3.8527501,0.11675 -0.5895875,0 -3.1872751,-8.6686876 1.295925,0 2.2007376,6.2986626 2.1190125,-6.2986626 1.2550625,0 z"
           style="font-size:11.9552002px;font-variant:normal;font-weight:normal;writing-mode:lr-tb;fill:#000000;fill-opacity:1;fill-rule:nonzero;stroke:none;font-family:Trebuchet MS;-inkscape-font-specification:Trebuchet MS"
           id="path3126"
           inkscape:connector-curvature="0" /></g></g><text
       transform="matrix(1,0,0,-1,294.229,93.427)"
       id="text3051"><tspan
         style="font-size:11.9552002px;font-variant:normal;font-weight:normal;writing-mode:lr-tb;fill:#000000;fill-opacity:1;fill-rule:nonzero;stroke:none;font-family:CMR12;-inkscape-font-specification:CMR12"
         x="0"
         y="0"
         id="tspan3053">1</tspan></text>
</g></svg>