<?xml version="1.0" encoding="UTF-8" standalone="no"?>
<svg
   xmlns:dc="http://purl.org/dc/elements/1.1/"
   xmlns:cc="http://creativecommons.org/ns#"
   xmlns:rdf="http://www.w3.org/1999/02/22-rdf-syntax-ns#"
   xmlns:svg="http://www.w3.org/2000/svg"
   xmlns="http://www.w3.org/2000/svg"
   xmlns:sodipodi="http://sodipodi.sourceforge.net/DTD/sodipodi-0.dtd"
   xmlns:inkscape="http://www.inkscape.org/namespaces/inkscape"
   version="1.1"
   id="svg2"
   x="0px"
   y="0px"
   width="55"
   height="70"
   viewBox="0 0 61.111113 77.777776"
   xml:space="preserve"
   inkscape:version="0.48.4 r9939"
   sodipodi:docname="potentiometer_trimmerbig.svg"><metadata
   id="metadata3540"><rdf:RDF><cc:Work
       rdf:about=""><dc:format>image/svg+xml</dc:format><dc:type
         rdf:resource="http://purl.org/dc/dcmitype/StillImage" /><dc:title></dc:title></cc:Work></rdf:RDF></metadata><defs
   id="defs3538" /><sodipodi:namedview
   pagecolor="#ffffff"
   bordercolor="#666666"
   borderopacity="1"
   objecttolerance="10"
   gridtolerance="10"
   guidetolerance="10"
   inkscape:pageopacity="0"
   inkscape:pageshadow="2"
   inkscape:window-width="1683"
   inkscape:window-height="790"
   id="namedview3536"
   showgrid="false"
   inkscape:zoom="5.6187608"
   inkscape:cx="-37.530285"
   inkscape:cy="17.121129"
   inkscape:window-x="0"
   inkscape:window-y="0"
   inkscape:window-maximized="0"
   inkscape:current-layer="svg2" />
	
<g
   id="breadboard"
   transform="matrix(2.25,0,0,2.25,2.4996981,1.8964406)">
<rect
   id="connector0pin"
   x="0.86000001"
   y="29"
   width="3"
   height="4"
   style="fill:none" />
<rect
   id="connector1pin"
   x="10.86"
   y="0"
   width="3"
   height="4"
   style="fill:none" />
<rect
   id="connector2pin"
   x="20.860001"
   y="29"
   width="3"
   height="4"
   style="fill:none" />
<rect
   id="connector0terminal"
   x="0.86000001"
   y="30"
   width="3"
   height="3"
   style="fill:none" />
<rect
   id="connector1terminal"
   x="10.86"
   y="0"
   width="3"
   height="3"
   style="fill:none" />
<rect
   id="connector2terminal"
   x="20.860001"
   y="30"
   width="3"
   height="3"
   style="fill:none" />
	<g
   id="legs">
		<g
   id="pin0">
			<rect
   id="rect10"
   x="0.86000001"
   y="27.622"
   width="6.7930002"
   height="2"
   style="fill:#8c8c8c" />
			<rect
   id="rect14"
   x="0.86000001"
   y="27.891001"
   width="3"
   height="5.1090002"
   style="fill:#8c8c8c" />
		</g>
		<g
   id="pin2">
			<rect
   id="rect8"
   x="17.028999"
   y="27.593"
   width="6.8309999"
   height="2"
   style="fill:#8c8c8c" />
			<rect
   id="rect16"
   x="20.860001"
   y="27.861"
   width="3"
   height="5.1389999"
   style="fill:#8c8c8c" />
		</g>
		<g
   id="pin1">
			<rect
   id="rect12"
   x="9.2600002"
   y="3.4790001"
   width="6.1999998"
   height="2"
   style="fill:#8c8c8c" />
			<rect
   id="rect18"
   x="10.86"
   width="3"
   height="6"
   y="0"
   style="fill:#8c8c8c" />
		</g>
	</g>
	<path
   id="path20"
   d="M 12.357,3.98 C 5.533,3.98 0,9.514 0,16.342 V 28.701 H 12.357 24.72 V 16.34 C 24.721,9.514 19.186,3.98 12.357,3.98 z M 5.432,21.042 v -9.4 h 13.855 v 9.4 H 5.432 z"
   inkscape:connector-curvature="0"
   style="fill:#6b6b6b" />
	<path
   id="path27"
   d="m 10.226,8.436 c -4.359,1.177 -6.938,5.668 -5.763,10.026 1.18,4.36 5.666,6.94 10.029,5.765 4.363,-1.18 6.94,-5.667 5.764,-10.03 -1.18,-4.36 -5.666,-6.941 -10.03,-5.761 z m -0.733,10.067 0.355,-2.891 4.321,-1.167 1.763,2.319 -6.439,1.739 z"
   inkscape:connector-curvature="0"
   style="fill:#cecece" />
	<g
   id="g3520">
		<polygon
   id="rect31"
   points="12.539,22.17 11.408,17.987 14.015,17.282 15.146,21.465 " />
		<polygon
   id="polygon33"
   points="9.848,15.612 14.169,14.444 15.932,16.764 12.741,12.561 12.181,10.491 9.577,11.196 10.133,13.266 9.493,18.503 " />
	</g>
	<g
   id="g35">
		<polygon
   id="polygon37"
   points="9.848,15.612 6.521,16.51 7.224,19.115 9.493,18.503 "
   style="fill:#4d4d4d" />
		<polygon
   id="polygon39"
   points="17.496,13.546 14.169,14.444 15.932,16.764 18.202,16.152 "
   style="fill:#4d4d4d" />
	</g>
	<path
   id="path41"
   d="M 23.746,16.661 C 23.702,15.902 23.584,15.133 23.38,14.37 23.194,13.684 22.942,13.04 22.643,12.426 l -0.535,0.182 -0.8,-1.063 C 21.08,11.198 20.826,10.868 20.559,10.556 L 19.718,9.444 20.175,9.101 C 17.455,6.598 13.559,5.493 9.726,6.527 5.899,7.562 3.087,10.478 1.997,14.01 l 0.566,0.066 -0.167,1.386 C 2.325,15.866 2.273,16.276 2.248,16.693 L 2.09,18.016 1.535,18.125 c 0.054,0.683 0.162,1.368 0.347,2.053 0.208,0.763 0.493,1.485 0.837,2.164 l 0.583,-0.47 c 0.68,1.382 1.645,2.555 2.797,3.486 l -0.586,0.466 c 2.691,2.237 6.386,3.18 10.023,2.2 3.632,-0.983 6.352,-3.657 7.548,-6.943 l -0.739,-0.112 c 0.53,-1.383 0.772,-2.883 0.662,-4.42 l 0.739,0.112 z m -9.227,7.602 C 10.658,25.308 6.68,23.021 5.637,19.161 4.596,15.299 6.879,11.322 10.74,10.282 c 3.865,-1.044 7.839,1.241 8.882,5.1 1.046,3.865 -1.242,7.839 -5.103,8.881 z"
   inkscape:connector-curvature="0"
   style="opacity:0.3" />
	<path
   id="path43"
   d="m 9.648,6.289 c -5.55,1.496 -8.832,7.207 -7.332,12.753 1.497,5.547 7.208,8.834 12.757,7.332 5.546,-1.498 8.83,-7.208 7.329,-12.756 C 20.905,8.073 15.196,4.789 9.648,6.289 z m 4.846,17.938 C 10.132,25.402 5.642,22.826 4.464,18.463 3.285,14.099 5.866,9.609 10.227,8.432 c 4.363,-1.177 8.853,1.404 10.032,5.766 1.175,4.362 -1.405,8.853 -5.765,10.029 z"
   inkscape:connector-curvature="0" />
	<path
   id="path45"
   d="m 23.476,15.719 c -0.044,-0.76 -0.16,-1.53 -0.368,-2.293 -0.183,-0.681 -0.433,-1.328 -0.735,-1.944 L 21.839,11.661 19.447,8.5 19.903,8.157 C 17.185,5.654 13.291,4.55 9.458,5.584 5.625,6.619 2.817,9.534 1.727,13.066 l 0.564,0.067 -0.471,3.939 -0.555,0.113 c 0.052,0.683 0.162,1.368 0.345,2.048 0.208,0.765 0.49,1.486 0.838,2.165 l 1.577,-1.269 2.8,3.479 -1.583,1.277 c 2.687,2.233 6.383,3.175 10.019,2.195 3.635,-0.979 6.355,-3.655 7.552,-6.94 l -2.005,-0.303 0.661,-4.417 2.007,0.299 z m -9.228,7.604 c -3.861,1.042 -7.839,-1.243 -8.88,-5.104 -1.041,-3.862 1.241,-7.838 5.104,-8.878 3.863,-1.043 7.836,1.24 8.879,5.104 1.044,3.861 -1.242,7.834 -5.103,8.878 z"
   inkscape:connector-curvature="0"
   style="fill:#1a1a1a" />
	<circle
   id="circle47"
   cx="4.0170002"
   cy="11.631"
   r="0.833"
   sodipodi:cx="4.0170002"
   sodipodi:cy="11.631"
   sodipodi:rx="0.833"
   sodipodi:ry="0.833"
   style="opacity:0.4;fill:#ffffff"
   d="m 4.8500002,11.631 c 0,0.460053 -0.3729468,0.833 -0.833,0.833 -0.4600532,0 -0.833,-0.372947 -0.833,-0.833 0,-0.460054 0.3729468,-0.833 0.833,-0.833 0.4600532,0 0.833,0.372946 0.833,0.833 z" />
	<circle
   id="circle49"
   cx="17.202999"
   cy="8.0710001"
   r="0.83399999"
   sodipodi:cx="17.202999"
   sodipodi:cy="8.0710001"
   sodipodi:rx="0.83399999"
   sodipodi:ry="0.83399999"
   style="opacity:0.4;fill:#ffffff"
   d="m 18.036999,8.0710001 c 0,0.4606055 -0.373394,0.834 -0.834,0.834 -0.460605,0 -0.834,-0.3733945 -0.834,-0.834 0,-0.4606055 0.373395,-0.834 0.834,-0.834 0.460606,0 0.834,0.3733945 0.834,0.834 z" />
	<g
   id="g51"
   style="opacity:0.4">
		<path
   id="path53"
   d="m 10.034,24.568 -0.35,-0.085 0.083,-0.354 0.348,0.082 0.084,-0.347 0.703,0.167 -0.67,2.815 -0.705,-0.167 0.507,-2.111 z"
   inkscape:connector-curvature="0"
   style="fill:#ffffff" />
		<path
   id="path55"
   d="m 15.792,26.522 -1.405,0.355 -0.089,-0.354 -0.347,0.088 -0.534,-2.109 0.349,-0.088 -0.089,-0.347 1.408,-0.355 0.085,0.35 0.356,-0.088 0.531,2.106 -0.356,0.088 0.091,0.354 z m -0.439,-0.268 -0.535,-2.104 -0.699,0.178 0.531,2.106 0.703,-0.18 z"
   inkscape:connector-curvature="0"
   style="fill:#ffffff" />
		<path
   id="path57"
   d="m 19.662,22.656 0.254,-0.252 0.257,0.257 -0.253,0.254 0.511,0.514 -0.519,0.515 -0.51,-0.511 -0.771,0.763 -0.511,-0.515 0.253,-0.25 -0.507,-0.519 0.256,-0.256 0.514,0.514 -0.261,0.26 0.254,0.256 0.516,-0.511 -1.277,-1.282 0.518,-0.515 1.276,1.278 z"
   inkscape:connector-curvature="0"
   style="fill:#ffffff" />
	</g>
</g>
</svg>