<?xml version="1.0" encoding="UTF-8" standalone="no"?>
<!-- Created with Inkscape (http://www.inkscape.org/) -->

<svg
   xmlns:dc="http://purl.org/dc/elements/1.1/"
   xmlns:cc="http://creativecommons.org/ns#"
   xmlns:rdf="http://www.w3.org/1999/02/22-rdf-syntax-ns#"
   xmlns:svg="http://www.w3.org/2000/svg"
   xmlns="http://www.w3.org/2000/svg"
   xmlns:sodipodi="http://sodipodi.sourceforge.net/DTD/sodipodi-0.dtd"
   xmlns:inkscape="http://www.inkscape.org/namespaces/inkscape"
   width="500"
   height="300"
   id="svg6604"
   version="1.1"
   inkscape:version="0.48.4 r9939"
   sodipodi:docname="New document 3">
  <defs
     id="defs6606">
    <inkscape:path-effect
       effect="spiro"
       id="path-effect7697"
       is_visible="true" />
    <inkscape:path-effect
       effect="spiro"
       id="path-effect6639"
       is_visible="true" />
    <inkscape:path-effect
       effect="spiro"
       id="path-effect6639-0"
       is_visible="true" />
    <inkscape:path-effect
       effect="spiro"
       id="path-effect6639-4"
       is_visible="true" />
    <inkscape:path-effect
       effect="spiro"
       id="path-effect6639-0-8"
       is_visible="true" />
    <inkscape:path-effect
       effect="spiro"
       id="path-effect6639-0-8-4"
       is_visible="true" />
    <inkscape:path-effect
       effect="spiro"
       id="path-effect6639-4-5"
       is_visible="true" />
    <inkscape:path-effect
       effect="spiro"
       id="path-effect6639-0-5"
       is_visible="true" />
    <inkscape:path-effect
       effect="spiro"
       id="path-effect6639-1"
       is_visible="true" />
    <inkscape:path-effect
       effect="spiro"
       id="path-effect6639-4-5-2"
       is_visible="true" />
    <inkscape:path-effect
       effect="spiro"
       id="path-effect6639-0-8-4-7"
       is_visible="true" />
    <inkscape:path-effect
       effect="spiro"
       id="path-effect6639-0-8-4-7-4"
       is_visible="true" />
    <inkscape:path-effect
       effect="spiro"
       id="path-effect6639-4-5-2-2"
       is_visible="true" />
    <inkscape:path-effect
       effect="spiro"
       id="path-effect6639-0-8-4-3"
       is_visible="true" />
    <inkscape:path-effect
       effect="spiro"
       id="path-effect6639-4-5-22"
       is_visible="true" />
    <inkscape:path-effect
       effect="spiro"
       id="path-effect6639-0-5-1"
       is_visible="true" />
    <inkscape:path-effect
       effect="spiro"
       id="path-effect6639-1-6"
       is_visible="true" />
    <inkscape:path-effect
       effect="spiro"
       id="path-effect6639-0-8-8"
       is_visible="true" />
    <inkscape:path-effect
       effect="spiro"
       id="path-effect6639-4-57"
       is_visible="true" />
    <inkscape:path-effect
       effect="spiro"
       id="path-effect6639-0-6"
       is_visible="true" />
    <inkscape:path-effect
       effect="spiro"
       id="path-effect6639-18"
       is_visible="true" />
    <inkscape:path-effect
       effect="spiro"
       id="path-effect6639-0-6-1"
       is_visible="true" />
    <inkscape:path-effect
       effect="spiro"
       id="path-effect6639-4-57-1"
       is_visible="true" />
    <inkscape:path-effect
       effect="spiro"
       id="path-effect6639-0-8-8-3"
       is_visible="true" />
    <inkscape:path-effect
       effect="spiro"
       id="path-effect6639-1-6-8"
       is_visible="true" />
    <inkscape:path-effect
       effect="spiro"
       id="path-effect6639-0-5-1-7"
       is_visible="true" />
    <inkscape:path-effect
       effect="spiro"
       id="path-effect6639-4-5-22-4"
       is_visible="true" />
    <inkscape:path-effect
       effect="spiro"
       id="path-effect6639-0-8-4-3-2"
       is_visible="true" />
    <inkscape:path-effect
       effect="spiro"
       id="path-effect6639-4-5-2-2-7"
       is_visible="true" />
    <inkscape:path-effect
       effect="spiro"
       id="path-effect6639-0-8-4-7-4-7"
       is_visible="true" />
  </defs>
  <sodipodi:namedview
     id="base"
     pagecolor="#ffffff"
     bordercolor="#666666"
     borderopacity="1.0"
     inkscape:pageopacity="0.0"
     inkscape:pageshadow="2"
     inkscape:zoom="0.49497475"
     inkscape:cx="-199.14751"
     inkscape:cy="163.14143"
     inkscape:document-units="px"
     inkscape:current-layer="layer2"
     showgrid="false"
     showguides="true"
     inkscape:guide-bbox="true"
     inkscape:snap-grids="true"
     inkscape:window-width="1419"
     inkscape:window-height="774"
     inkscape:window-x="125"
     inkscape:window-y="125"
     inkscape:window-maximized="0">
    <sodipodi:guide
       orientation="0,1"
       position="-160,590"
       id="guide6633" />
    <inkscape:grid
       type="xygrid"
       id="grid6635"
       empspacing="5"
       visible="true"
       enabled="true"
       snapvisiblegridlinesonly="true" />
    <sodipodi:guide
       orientation="0,1"
       position="363.65492,574.27172"
       id="guide7733" />
  </sodipodi:namedview>
  <metadata
     id="metadata6609">
    <rdf:RDF>
      <cc:Work
         rdf:about="">
        <dc:format>image/svg+xml</dc:format>
        <dc:type
           rdf:resource="http://purl.org/dc/dcmitype/StillImage" />
        <dc:title></dc:title>
      </cc:Work>
    </rdf:RDF>
  </metadata>
  <g
     inkscape:label="Layer 1"
     inkscape:groupmode="layer"
     id="layer1"
     transform="translate(0,-752.36218)" />
  <g
     inkscape:groupmode="layer"
     id="layer2"
     inkscape:label="data"
     transform="translate(0,-752.36218)">
    <g
       id="g7765"
       transform="translate(-64.649763,547.50268)">
      <rect
         y="242.82172"
         x="110.7195"
         height="220.24953"
         width="201.41814"
         id="rect6612"
         style="opacity:0.9;fill:#e6e6e6;fill-opacity:1;fill-rule:nonzero;stroke:#000000;stroke-width:2" />
      <rect
         y="243.07397"
         x="311.43353"
         height="219.28326"
         width="203.18645"
         id="rect6612-4"
         style="opacity:0.9;fill:#e6e6e6;fill-opacity:1;fill-rule:nonzero;stroke:#000000;stroke-width:2" />
      <path
         sodipodi:nodetypes="ccc"
         inkscape:connector-curvature="0"
         inkscape:original-d="m 110.75761,442.36218 280,0 125,0"
         inkscape:path-effect="#path-effect6639"
         id="path6637"
         d="m 110.75761,442.36218 280,0 125,0"
         style="fill:none;stroke:#000000;stroke-width:0.5;stroke-linecap:butt;stroke-linejoin:miter;stroke-opacity:1" />
      <path
         sodipodi:nodetypes="ccc"
         inkscape:connector-curvature="0"
         inkscape:original-d="m 111.12443,422.4155 280,0 125,0"
         inkscape:path-effect="#path-effect6639-0"
         id="path6637-9"
         d="m 111.12443,422.4155 280,0 125,0"
         style="fill:none;stroke:#000000;stroke-width:0.5;stroke-linecap:butt;stroke-linejoin:miter;stroke-opacity:1" />
      <path
         sodipodi:nodetypes="ccc"
         inkscape:connector-curvature="0"
         inkscape:original-d="m 110.24055,401.90915 280,0 125,0"
         inkscape:path-effect="#path-effect6639-4"
         id="path6637-8"
         d="m 110.24055,401.90915 280,0 125,0"
         style="fill:none;stroke:#000000;stroke-width:0.5;stroke-linecap:butt;stroke-linejoin:miter;stroke-opacity:1" />
      <path
         sodipodi:nodetypes="ccc"
         inkscape:connector-curvature="0"
         inkscape:original-d="m 110.8599,381.96247 280,0 125,0"
         inkscape:path-effect="#path-effect6639-0-8"
         id="path6637-9-2"
         d="m 110.8599,381.96247 280,0 125,0"
         style="fill:none;stroke:#000000;stroke-width:0.5;stroke-linecap:butt;stroke-linejoin:miter;stroke-opacity:1" />
      <path
         sodipodi:nodetypes="ccc"
         inkscape:connector-curvature="0"
         inkscape:original-d="m 110.75761,362.36218 280,0 125,0"
         inkscape:path-effect="#path-effect6639-1"
         id="path6637-7"
         d="m 110.75761,362.36218 280,0 125,0"
         style="fill:none;stroke:#000000;stroke-width:0.5;stroke-linecap:butt;stroke-linejoin:miter;stroke-opacity:1" />
      <path
         sodipodi:nodetypes="ccc"
         inkscape:connector-curvature="0"
         inkscape:original-d="m 111.12443,342.4155 280,0 125,0"
         inkscape:path-effect="#path-effect6639-0-5"
         id="path6637-9-1"
         d="m 111.12443,342.4155 280,0 125,0"
         style="fill:none;stroke:#000000;stroke-width:0.5;stroke-linecap:butt;stroke-linejoin:miter;stroke-opacity:1" />
      <path
         sodipodi:nodetypes="ccc"
         inkscape:connector-curvature="0"
         inkscape:original-d="m 110.24055,321.90915 280,0 125,0"
         inkscape:path-effect="#path-effect6639-4-5"
         id="path6637-8-1"
         d="m 110.24055,321.90915 280,0 125,0"
         style="fill:none;stroke:#000000;stroke-width:0.5;stroke-linecap:butt;stroke-linejoin:miter;stroke-opacity:1" />
      <path
         sodipodi:nodetypes="ccc"
         inkscape:connector-curvature="0"
         inkscape:original-d="m 110.8599,301.96247 280,0 125,0"
         inkscape:path-effect="#path-effect6639-0-8-4"
         id="path6637-9-2-5"
         d="m 110.8599,301.96247 280,0 125,0"
         style="fill:none;stroke:#000000;stroke-width:0.5;stroke-linecap:butt;stroke-linejoin:miter;stroke-opacity:1" />
      <path
         sodipodi:nodetypes="ccc"
         inkscape:connector-curvature="0"
         inkscape:original-d="m 110.59769,282.2663 280,0 125,0"
         inkscape:path-effect="#path-effect6639-4-5-2"
         id="path6637-8-1-6"
         d="m 110.59769,282.2663 280,0 125,0"
         style="fill:none;stroke:#000000;stroke-width:0.5;stroke-linecap:butt;stroke-linejoin:miter;stroke-opacity:1" />
      <path
         sodipodi:nodetypes="ccc"
         inkscape:connector-curvature="0"
         inkscape:original-d="m 111.21704,262.31962 280,0 125,0"
         inkscape:path-effect="#path-effect6639-0-8-4-7"
         id="path6637-9-2-5-1"
         d="m 111.21704,262.31962 280,0 125,0"
         style="fill:none;stroke:#000000;stroke-width:0.5;stroke-linecap:butt;stroke-linejoin:miter;stroke-opacity:1" />
      <path
         sodipodi:nodetypes="ccc"
         inkscape:connector-curvature="0"
         inkscape:original-d="m 290.77665,463.00011 0,-151.67178 0,-67.71062"
         inkscape:path-effect="#path-effect6639-0-6"
         id="path6637-9-7"
         d="m 290.77665,463.00011 0,-151.67178 0,-67.71062"
         style="fill:none;stroke:#000000;stroke-width:0.36806315;stroke-linecap:butt;stroke-linejoin:miter;stroke-opacity:1" />
      <path
         sodipodi:nodetypes="ccc"
         inkscape:connector-curvature="0"
         inkscape:original-d="m 270.26284,463.4789 0,-151.67178 0,-67.71063"
         inkscape:path-effect="#path-effect6639-4-57"
         id="path6637-8-9"
         d="m 270.26284,463.4789 0,-151.67178 0,-67.71063"
         style="fill:none;stroke:#000000;stroke-width:0.36806315;stroke-linecap:butt;stroke-linejoin:miter;stroke-opacity:1" />
      <path
         sodipodi:nodetypes="ccc"
         inkscape:connector-curvature="0"
         inkscape:original-d="m 250.3089,463.14341 0,-151.67178 0,-67.71063"
         inkscape:path-effect="#path-effect6639-0-8-8"
         id="path6637-9-2-54"
         d="m 250.3089,463.14341 0,-151.67178 0,-67.71063"
         style="fill:none;stroke:#000000;stroke-width:0.36806315;stroke-linecap:butt;stroke-linejoin:miter;stroke-opacity:1" />
      <path
         sodipodi:nodetypes="ccc"
         inkscape:connector-curvature="0"
         inkscape:original-d="m 230.70149,463.19881 0,-151.67178 0,-67.71062"
         inkscape:path-effect="#path-effect6639-1-6"
         id="path6637-7-3"
         d="m 230.70149,463.19881 0,-151.67178 0,-67.71062"
         style="fill:none;stroke:#000000;stroke-width:0.36806315;stroke-linecap:butt;stroke-linejoin:miter;stroke-opacity:1" />
      <path
         sodipodi:nodetypes="ccc"
         inkscape:connector-curvature="0"
         inkscape:original-d="m 210.74756,463.00011 0,-151.67178 0,-67.71062"
         inkscape:path-effect="#path-effect6639-0-5-1"
         id="path6637-9-1-1"
         d="m 210.74756,463.00011 0,-151.67178 0,-67.71062"
         style="fill:none;stroke:#000000;stroke-width:0.36806315;stroke-linecap:butt;stroke-linejoin:miter;stroke-opacity:1" />
      <path
         sodipodi:nodetypes="ccc"
         inkscape:connector-curvature="0"
         inkscape:original-d="m 190.23375,463.4789 0,-151.67178 0,-67.71063"
         inkscape:path-effect="#path-effect6639-4-5-22"
         id="path6637-8-1-2"
         d="m 190.23375,463.4789 0,-151.67178 0,-67.71063"
         style="fill:none;stroke:#000000;stroke-width:0.36806315;stroke-linecap:butt;stroke-linejoin:miter;stroke-opacity:1" />
      <path
         sodipodi:nodetypes="ccc"
         inkscape:connector-curvature="0"
         inkscape:original-d="m 170.27982,463.14341 0,-151.67178 0,-67.71063"
         inkscape:path-effect="#path-effect6639-0-8-4-3"
         id="path6637-9-2-5-3"
         d="m 170.27982,463.14341 0,-151.67178 0,-67.71063"
         style="fill:none;stroke:#000000;stroke-width:0.36806315;stroke-linecap:butt;stroke-linejoin:miter;stroke-opacity:1" />
      <path
         sodipodi:nodetypes="ccc"
         inkscape:connector-curvature="0"
         inkscape:original-d="m 150.57649,463.28544 0,-151.67178 0,-67.71062"
         inkscape:path-effect="#path-effect6639-4-5-2-2"
         id="path6637-8-1-6-3"
         d="m 150.57649,463.28544 0,-151.67178 0,-67.71062"
         style="fill:none;stroke:#000000;stroke-width:0.36806315;stroke-linecap:butt;stroke-linejoin:miter;stroke-opacity:1" />
      <path
         sodipodi:nodetypes="ccc"
         inkscape:connector-curvature="0"
         inkscape:original-d="m 130.62255,462.94995 0,-151.67178 0,-67.71063"
         inkscape:path-effect="#path-effect6639-0-8-4-7-4"
         id="path6637-9-2-5-1-4"
         d="m 130.62255,462.94995 0,-151.67178 0,-67.71063"
         style="fill:none;stroke:#000000;stroke-width:0.36806315;stroke-linecap:butt;stroke-linejoin:miter;stroke-opacity:1" />
      <path
         sodipodi:nodetypes="ccc"
         inkscape:connector-curvature="0"
         inkscape:original-d="m 493.52368,462.72651 0,-151.67178 0,-67.71061"
         inkscape:path-effect="#path-effect6639-0-6-1"
         id="path6637-9-7-9"
         d="m 493.52368,462.72651 0,-151.67178 0,-67.71061"
         style="fill:none;stroke:#000000;stroke-width:0.36806315;stroke-linecap:butt;stroke-linejoin:miter;stroke-opacity:1" />
      <path
         sodipodi:nodetypes="ccc"
         inkscape:connector-curvature="0"
         inkscape:original-d="m 473.00987,463.2053 0,-151.67178 0,-67.71062"
         inkscape:path-effect="#path-effect6639-4-57-1"
         id="path6637-8-9-3"
         d="m 473.00987,463.2053 0,-151.67178 0,-67.71062"
         style="fill:none;stroke:#000000;stroke-width:0.36806315;stroke-linecap:butt;stroke-linejoin:miter;stroke-opacity:1" />
      <path
         sodipodi:nodetypes="ccc"
         inkscape:connector-curvature="0"
         inkscape:original-d="m 453.05594,462.86981 0,-151.67178 0,-67.71062"
         inkscape:path-effect="#path-effect6639-0-8-8-3"
         id="path6637-9-2-54-1"
         d="m 453.05594,462.86981 0,-151.67178 0,-67.71062"
         style="fill:none;stroke:#000000;stroke-width:0.36806315;stroke-linecap:butt;stroke-linejoin:miter;stroke-opacity:1" />
      <path
         sodipodi:nodetypes="ccc"
         inkscape:connector-curvature="0"
         inkscape:original-d="m 433.44852,462.92522 0,-151.67179 0,-67.71061"
         inkscape:path-effect="#path-effect6639-1-6-8"
         id="path6637-7-3-9"
         d="m 433.44852,462.92522 0,-151.67179 0,-67.71061"
         style="fill:none;stroke:#000000;stroke-width:0.36806315;stroke-linecap:butt;stroke-linejoin:miter;stroke-opacity:1" />
      <path
         sodipodi:nodetypes="ccc"
         inkscape:connector-curvature="0"
         inkscape:original-d="m 413.49459,462.72651 0,-151.67178 0,-67.71061"
         inkscape:path-effect="#path-effect6639-0-5-1-7"
         id="path6637-9-1-1-8"
         d="m 413.49459,462.72651 0,-151.67178 0,-67.71061"
         style="fill:none;stroke:#000000;stroke-width:0.36806315;stroke-linecap:butt;stroke-linejoin:miter;stroke-opacity:1" />
      <path
         sodipodi:nodetypes="ccc"
         inkscape:connector-curvature="0"
         inkscape:original-d="m 392.98078,463.2053 0,-151.67178 0,-67.71062"
         inkscape:path-effect="#path-effect6639-4-5-22-4"
         id="path6637-8-1-2-6"
         d="m 392.98078,463.2053 0,-151.67178 0,-67.71062"
         style="fill:none;stroke:#000000;stroke-width:0.36806315;stroke-linecap:butt;stroke-linejoin:miter;stroke-opacity:1" />
      <path
         sodipodi:nodetypes="ccc"
         inkscape:connector-curvature="0"
         inkscape:original-d="m 373.02685,462.86981 0,-151.67178 0,-67.71062"
         inkscape:path-effect="#path-effect6639-0-8-4-3-2"
         id="path6637-9-2-5-3-5"
         d="m 373.02685,462.86981 0,-151.67178 0,-67.71062"
         style="fill:none;stroke:#000000;stroke-width:0.36806315;stroke-linecap:butt;stroke-linejoin:miter;stroke-opacity:1" />
      <path
         sodipodi:nodetypes="ccc"
         inkscape:connector-curvature="0"
         inkscape:original-d="m 353.32352,463.01184 0,-151.67178 0,-67.71062"
         inkscape:path-effect="#path-effect6639-4-5-2-2-7"
         id="path6637-8-1-6-3-0"
         d="m 353.32352,463.01184 0,-151.67178 0,-67.71062"
         style="fill:none;stroke:#000000;stroke-width:0.36806315;stroke-linecap:butt;stroke-linejoin:miter;stroke-opacity:1" />
      <path
         sodipodi:nodetypes="ccc"
         inkscape:connector-curvature="0"
         inkscape:original-d="m 333.36958,462.67635 0,-151.67178 0,-67.71062"
         inkscape:path-effect="#path-effect6639-0-8-4-7-4-7"
         id="path6637-9-2-5-1-4-2"
         d="m 333.36958,462.67635 0,-151.67178 0,-67.71062"
         style="fill:none;stroke:#000000;stroke-width:0.36806315;stroke-linecap:butt;stroke-linejoin:miter;stroke-opacity:1" />
      <path
         inkscape:connector-curvature="0"
         id="path7689"
         d="m 110.6117,462.36218 c 2.85099,0.53475 1.3363,-2.67189 2.52539,-3.46462 0.28016,-0.18678 0.70898,0.15059 1.01015,0 0.15058,-0.0753 -0.0753,-0.35449 0,-0.50507 0.10648,-0.21296 0.30697,-0.37301 0.50507,-0.50508 0.31324,-0.20882 0.69692,-0.29625 1.01016,-0.50508 0.43583,-0.29055 1.12072,-1.12072 1.51523,-1.51523 0.50507,-0.50507 1.11901,-0.9209 1.51522,-1.51522 0.0934,-0.14009 -0.11904,-0.38603 0,-0.50508 0.11905,-0.11905 0.38603,0.11905 0.50508,0 0.2381,-0.2381 -0.23809,-0.77206 0,-1.01015 0.11905,-0.11905 0.38603,0.11904 0.50508,0 0.11904,-0.11905 -0.0753,-0.35449 0,-0.50508 0.21296,-0.42592 0.79719,-0.58423 1.01015,-1.01015 0.0753,-0.15059 -0.11905,-0.38603 0,-0.50508 0.11905,-0.11905 0.38603,0.11905 0.50508,0 0.11904,-0.11905 -0.11905,-0.38603 0,-0.50507 0.26619,-0.2662 0.74395,-0.23888 1.01015,-0.50508 0.11905,-0.11905 -0.0753,-0.35449 0,-0.50508 0.55837,-1.11675 0.31347,-0.15673 1.01015,-0.50507 2.10201,-1.05101 -0.53994,0.0349 0.50508,-1.01016 0.18009,-1.24072 1.07224,-0.20975 1.51523,-0.50507 0.39621,-0.26415 0.67343,-0.67344 1.01015,-1.01015 0.16836,-0.16836 0.29212,-0.3986 0.50507,-0.50508 0.15059,-0.0753 0.3545,0.0753 0.50508,0 1.67513,-1.67513 -0.47619,0.23809 1.01015,-0.50508 2.10201,-1.051 -0.53994,0.0349 0.50508,-1.01015 0.23809,-0.2381 0.77206,0.2381 1.01015,0 0.11905,-0.11905 -0.0753,-0.35449 0,-0.50508 0.10648,-0.21296 0.33672,-0.33671 0.50508,-0.50507 0.16836,-0.16836 0.29212,-0.3986 0.50507,-0.50508 0.15059,-0.0753 0.3545,0.0753 0.50508,0 0.46419,-0.2321 1.63706,-1.89255 2.02031,-2.0203 0.002,-7.7e-4 1.51474,4.8e-4 1.51522,0 0.2662,-0.2662 0.19185,-0.80133 0.50508,-1.01016 0.28017,-0.18677 0.70898,0.15059 1.01015,0 0.42592,-0.21296 0.6292,-0.72443 1.01016,-1.01015 0.60233,-0.45175 1.39383,-0.5925 2.0203,-1.01015 1.44528,-0.96352 -0.77358,-0.0946 1.51523,-1.01015 0.50508,-0.16836 1.01015,-0.33672 1.51523,-0.50508 0.16836,-0.16836 0.29212,-0.3986 0.50508,-0.50508 0.15058,-0.0753 0.35449,0.0753 0.50507,0 0.21296,-0.10648 0.29212,-0.39859 0.50508,-0.50507 1.24398,-0.62199 -0.45595,1.4661 1.51523,-0.50508 0.11904,-0.11905 -0.11905,-0.38603 0,-0.50508 0.11904,-0.11904 0.34535,0.0532 0.50507,0 0.35715,-0.11904 0.65301,-0.38602 1.01016,-0.50507 0.15971,-0.0532 0.35449,0.0753 0.50507,0 0.50508,-0.33672 1.01015,-0.67344 1.51523,-1.01015 0,-0.16836 -0.11905,-0.38603 0,-0.50508 0.11905,-0.11905 0.36071,0.0866 0.50508,0 0.72183,-0.4331 1.31989,-1.04829 2.0203,-1.51523 0.74317,-0.49545 1.70401,-0.73636 2.52538,-1.01015 0.50508,-0.16836 0.99873,-0.37595 1.51523,-0.50508 0.16333,-0.0408 0.34536,0.0532 0.50508,0 0.35714,-0.11905 0.64493,-0.41377 1.01015,-0.50507 0.35388,-0.0885 2.84758,0 3.03046,0 0.16836,0 0.34536,0.0532 0.50507,0 0.35715,-0.11905 0.65301,-0.38603 1.01016,-0.50508 0.15972,-0.0532 0.33671,0 0.50507,0 0.50508,0 1.01016,0 1.51523,0 1.34687,0 2.69374,0 4.04061,0 0.46137,0 3.85019,0.0544 4.04061,0 0.58367,-0.16676 1.02961,-0.64594 1.51523,-1.01015 0.19048,-0.14286 0.27409,-0.44733 0.50508,-0.50508 0.97999,-0.245 2.03992,0.19811 3.03046,0 0.36915,-0.0738 0.64493,-0.41377 1.01015,-0.50508 0.32666,-0.0817 0.69752,0.12506 1.01015,0 0.56361,-0.22544 0.97229,-0.73868 1.51523,-1.01015 0.15058,-0.0753 0.35449,0.0753 0.50508,0 0.42591,-0.21296 0.6292,-0.72444 1.01015,-1.01015 0.48562,-0.36422 1.08599,-0.58092 1.51523,-1.01015 0.11904,-0.11905 -0.11905,-0.38603 0,-0.50508 0.2662,-0.2662 0.74395,-0.23888 1.01015,-0.50508 0.11905,-0.11904 -0.0753,-0.35449 0,-0.50507 0.27147,-0.54294 0.73868,-0.97229 1.01015,-1.51523 0.0753,-0.15059 -0.0408,-0.34175 0,-0.50508 0.12913,-0.5165 0.30735,-1.02091 0.50508,-1.51523 1.38499,-3.46247 -0.63629,2.73208 1.01015,-3.03045 0.29252,-1.02383 0.67344,-2.02031 1.01015,-3.03046 0.16836,-0.50508 0.37595,-0.99873 0.50508,-1.51523 0.0408,-0.16333 -0.0753,-0.35449 0,-0.50508 0.10648,-0.21296 0.44733,-0.27409 0.50508,-0.50507 0.0989,-0.39545 0,-3.44349 0,-4.04061 0,-0.33672 -0.12506,-0.69752 0,-1.01016 0.22544,-0.56361 0.7847,-0.95161 1.01015,-1.51522 0.12505,-0.31264 0,-0.67344 0,-1.01016 0,-0.50507 -0.083,-1.01702 0,-1.51523 0.0875,-0.52515 0.30735,-1.02091 0.50507,-1.51522 0.41294,-1.03233 1.0178,-2.0356 1.51523,-3.03046 0.16836,-0.33672 0.38603,-0.65301 0.50508,-1.01015 0.0532,-0.15972 0,-0.33672 0,-0.50508 0,-0.91518 -0.0759,-1.65392 0.50508,-2.52538 0.0934,-0.14009 0.42978,0.15058 0.50507,0 0.30117,-0.60234 -0.16333,-1.36698 0,-2.02031 0.0913,-0.36522 0.38603,-0.65301 0.50508,-1.01015 0.0532,-0.15972 -0.0532,-0.34536 0,-0.50508 0.11905,-0.35714 0.43124,-0.641 0.50508,-1.01015 0.099,-0.49527 -0.1225,-1.02523 0,-1.51523 0.0577,-0.23098 0.373,-0.30697 0.50507,-0.50507 0.20882,-0.31324 0.41377,-0.64494 0.50508,-1.01016 0.0817,-0.32666 -0.10648,-0.69071 0,-1.01015 0.0753,-0.22588 0.33672,-0.33672 0.50507,-0.50508 0,-0.33671 -0.0817,-0.68348 0,-1.01015 -0.91462,-2.11312 0.7972,-0.58423 1.01016,-1.01015 0.15058,-0.30117 -0.15059,-0.70898 0,-1.01015 0.0753,-0.15059 0.42978,0.15058 0.50507,0 0.30117,-0.60234 -0.2501,-1.39504 0,-2.02031 -0.28001,-1.25089 1.13877,-1.26738 1.51523,-2.0203 0.0753,-0.15059 -0.0408,-0.34175 0,-0.50508 0.12913,-0.5165 0.37595,-0.99873 0.50508,-1.51523 0.0408,-0.16333 -0.11905,-0.38603 0,-0.50507 0.2662,-0.2662 0.74395,-0.23888 1.01015,-0.50508 0.11905,-0.11905 -0.0753,-0.35449 0,-0.50508 0.10648,-0.21296 0.37301,-0.30697 0.50508,-0.50507 0.20882,-0.31324 0.33671,-0.67344 0.50507,-1.01016 0.16836,-0.33671 0.38603,-0.65301 0.50508,-1.01015 0.0532,-0.15972 0,-0.33672 0,-0.50507 0,-0.62199 -0.0753,-0.93486 0.50508,-1.51523 0.11904,-0.11905 0.38602,0.11904 0.50507,0 0.11905,-0.11905 0,-0.33672 0,-0.50508 0,-0.33672 -0.15058,-0.70898 0,-1.01015 0.52251,0 0.69809,0.11905 1.01015,-0.50508 0.0753,-0.15058 -0.0753,-0.35449 0,-0.50507 0.13488,-0.26976 1.24933,-1.24933 1.51523,-1.51523 0.56319,-0.56319 2.02635,-2.1927 2.52538,-2.52539 0.14009,-0.0934 0.34536,0.0532 0.50508,0 0.35714,-0.11904 0.68734,-0.31138 1.01015,-0.50507 0.52052,-0.31231 0.97229,-0.73868 1.51523,-1.01015 0.30117,-0.15059 0.69072,0.10648 1.01015,0 0.71429,-0.2381 1.28987,-0.82755 2.02031,-1.01016 2.31154,-0.57788 -0.52516,1.0202 2.52538,-0.50507 0.21296,-0.10648 0.29212,-0.3986 0.50508,-0.50508 0.15058,-0.0753 0.33671,0 0.50507,0 0.33672,-0.16836 0.69692,-0.29625 1.01016,-0.50508 0.1981,-0.13207 0.29211,-0.39859 0.50507,-0.50507 0.15059,-0.0753 0.35449,0.0753 0.50508,0 0.54294,-0.27147 0.97229,-0.73868 1.51523,-1.01015 0.15058,-0.0753 0.36499,0.0934 0.50507,0 0.39622,-0.26415 0.6292,-0.72444 1.01016,-1.01016 0.30117,-0.22587 0.70898,-0.2792 1.01015,-0.50507 0.38095,-0.28572 0.6292,-0.72444 1.01015,-1.01016 0.30117,-0.22587 0.70898,-0.27919 1.01015,-0.50507 0.38096,-0.28572 0.61394,-0.74601 1.01016,-1.01015 0.28016,-0.18678 0.72998,0.18677 1.01015,0 0.39621,-0.26415 0.67343,-0.67344 1.01015,-1.01016 0.16836,-0.16836 0.29212,-0.39859 0.50508,-0.50507 0.15058,-0.0753 0.33672,0 0.50507,0 0.33672,-0.33672 0.61394,-0.74601 1.01016,-1.01016 0.14008,-0.0934 0.36499,0.0934 0.50507,0 0.56473,-0.37648 1.47057,-1.47056 2.02031,-2.0203 0.16836,-0.16836 0.30697,-0.37301 0.50507,-0.50508 0.31324,-0.20882 0.69692,-0.29625 1.01016,-0.50507 0.36689,-0.2446 2.34077,-2.29463 2.52538,-2.52538 0.3792,-0.47401 0.73868,-0.97229 1.01015,-1.51523 0.0753,-0.15059 -0.11905,-0.38603 0,-0.50508 0.67344,-0.67343 0.48465,1.07143 1.01015,-0.50508 0.10648,-0.31943 -0.15058,-0.70898 0,-1.01015 0.0753,-0.15058 0.38603,0.11905 0.50508,0 0.2662,-0.2662 0.29625,-0.69692 0.50508,-1.01015 0.30651,-0.45978 1.29139,-1.06756 1.51522,-1.51523 0.0753,-0.15058 -0.0934,-0.36499 0,-0.50508 0.26415,-0.39621 0.71268,-0.63831 1.01016,-1.01015 0.3792,-0.47401 0.64593,-1.02961 1.01015,-1.51523 0.14286,-0.19047 0.36222,-0.3146 0.50508,-0.50507 0.36421,-0.48562 0.58092,-1.086 1.01015,-1.51523 2.58113,-2.58113 -0.70445,2.11777 2.0203,-1.51523 0.22588,-0.30117 0.2792,-0.70898 0.50508,-1.01015 0.42857,-0.57143 1.11901,-0.92091 1.51523,-1.51523 0.20882,-0.31324 0.23888,-0.74396 0.50508,-1.01016 0.26619,-0.26619 0.74395,-0.23887 1.01015,-0.50507 0.11905,-0.11905 0,-0.33672 0,-0.50508 0.16836,-0.16836 0.30697,-0.373 0.50507,-0.50507 0.31324,-0.20883 0.80133,-0.19185 1.01016,-0.50508 0.18677,-0.28017 -0.15059,-0.70898 0,-1.01015 0.0753,-0.15059 0.35449,0.0753 0.50507,0 2.10201,-1.05101 -0.53994,0.0349 0.50508,-1.01016 0.5324,-0.53239 1.41797,-0.55839 2.0203,-1.01015 0.33672,-0.33672 0.67344,-0.67343 1.01016,-1.01015 0.16836,0 0.36499,0.0934 0.50507,0 0.39622,-0.26414 0.61394,-0.74601 1.01016,-1.01015 0.14008,-0.0934 0.38602,0.11904 0.50507,0 0.11905,-0.11905 -0.11905,-0.38603 0,-0.50508 0.2662,-0.2662 0.68734,-0.31139 1.01015,-0.50508 0.0701,-0.0421 1.79387,-1.06234 2.02031,-1.51522 0.63614,-1.27229 -1.91833,0.43709 1.01015,-1.51523 0.14008,-0.0934 0.35449,0.0753 0.50508,0 0.1341,-0.067 1.44818,-1.38113 1.51523,-1.51523 0.16638,-0.33276 -0.15569,-2.56338 0,-3.03046 0.0753,-0.22588 0.39859,-0.29212 0.50507,-0.50508 0.15873,-0.31745 -0.15872,-1.70285 0,-2.0203 0.10648,-0.21296 0.42979,-0.2792 0.50508,-0.50508 0.0965,-0.2894 0,-2.0512 0,-2.52538 0,-0.16836 -0.0532,-0.34536 0,-0.50508 0.11905,-0.35714 0.41377,-0.64493 0.50508,-1.01015 0.0615,-0.24607 -0.13354,-1.75323 0,-2.0203 0.10648,-0.21296 0.39859,-0.29212 0.50507,-0.50508 0.0753,-0.15058 -0.0753,-0.35449 0,-0.50508 0.10648,-0.21295 0.3986,-0.29211 0.50508,-0.50507 0.0753,-0.15059 -0.0753,-0.35449 0,-0.50508 0.0483,-0.0967 1.92362,-1.97196 2.0203,-2.0203 0.15059,-0.0753 0.38603,0.11904 0.50508,0 0.11905,-0.11905 -0.0934,-0.365 0,-0.50508 0.005,-0.008 2.34466,-2.43502 2.52538,-2.52538 0.15059,-0.0753 0.38603,0.11905 0.50508,0 0.2662,-0.2662 0.23888,-0.74395 0.50507,-1.01015 0.11905,-0.11905 0.3545,0.0753 0.50508,0 0.60609,-0.30305 0.90914,-1.21219 1.51523,-1.51523 0.15058,-0.0753 0.38603,0.11905 0.50508,0 0.11904,-0.11905 -0.0753,-0.35449 0,-0.50508 0.10647,-0.21296 0.373,-0.30697 0.50507,-0.50507 0.20882,-0.31324 0.2792,-0.70899 0.50508,-1.01016 0.57143,-0.7619 1.44887,-1.2584 2.0203,-2.0203 0.22588,-0.30117 0.29626,-0.69692 0.50508,-1.01015 0.13207,-0.19811 0.3986,-0.29212 0.50508,-0.50508 0.0753,-0.15059 -0.11905,-0.38603 0,-0.50508 0.26619,-0.2662 0.74395,-0.23887 1.01015,-0.50507 0.11905,-0.11905 -0.0753,-0.3545 0,-0.50508 0.38678,-0.77356 0.90005,-0.39498 1.51523,-1.01015 0.11904,-0.11905 -0.0753,-0.35449 0,-0.50508 0.10648,-0.21296 0.33671,-0.33672 0.50507,-0.50507 0.33672,-0.33672 0.67344,-0.67344 1.01016,-1.01016 1.34687,-1.34687 2.69374,-2.69374 4.04061,-4.04061 0.33671,-0.33672 0.6292,-0.72444 1.01015,-1.01015 0.10134,-0.076 1.7906,-1.05582 2.0203,-1.51523 0.0753,-0.15058 -0.11904,-0.38603 0,-0.50508 0.11905,-0.11904 0.35449,0.0753 0.50508,0 0.21296,-0.10647 0.33672,-0.33671 0.50508,-0.50507 0.33671,0 0.69071,0.10648 1.01015,0 0.27337,-0.0911 1.18341,-1.29402 1.51523,-1.51523 0.31323,-0.20882 0.70898,-0.2792 1.01015,-0.50508 0.38095,-0.28571 0.61394,-0.74601 1.01015,-1.01015 0.14009,-0.0934 0.35449,0.0753 0.50508,0 0.49701,-0.2485 1.52329,-1.7718 2.0203,-2.0203 0.15059,-0.0753 0.38603,0.11904 0.50508,0 0.11905,-0.11905 -0.0753,-0.3545 0,-0.50508 0.30305,-0.60609 1.21218,-0.90914 1.51523,-1.51523 0.0753,-0.15058 -0.0753,-0.35449 0,-0.50508 0.21296,-0.42591 0.79719,-0.58423 1.01015,-1.01015 0.0753,-0.15058 -0.0532,-0.34536 0,-0.50507 1.21949,-3.65848 -0.14561,0.7963 1.01015,-1.51523 0.0753,-0.15059 -0.0753,-0.35449 0,-0.50508 0.10648,-0.21296 0.3986,-0.29212 0.50508,-0.50508 0.15932,-0.31863 -0.15932,-2.20674 0,-2.52538 0.10648,-0.21296 0.3986,-0.29211 0.50508,-0.50507 0.0753,-0.15059 -0.0753,-0.35449 0,-0.50508 0.10648,-0.21296 0.39859,-0.29212 0.50507,-0.50508 0.0753,-0.15058 -0.0753,-0.35449 0,-0.50507 0.10648,-0.21296 0.3986,-0.29212 0.50508,-0.50508 0.0753,-0.15058 -0.0753,-0.35449 0,-0.50507 0.10648,-0.21296 0.3986,-0.29212 0.50508,-0.50508 0.15058,-0.30117 -0.2381,-0.77206 0,-1.01015 0.11904,-0.11905 0.38602,0.11904 0.50507,0 0.2381,-0.2381 -0.15058,-0.70899 0,-1.01016 0.10648,-0.21295 0.3986,-0.29211 0.50508,-0.50507 0.0753,-0.15059 -0.0753,-0.35449 0,-0.50508 0.10648,-0.21296 0.373,-0.30697 0.50507,-0.50507 0.20883,-0.31324 0.23888,-0.74396 0.50508,-1.01016 1.04502,-1.04502 -0.0409,1.59693 1.01015,-0.50507 0.13331,-0.26661 -0.14663,-1.29529 0,-1.51523 0.26415,-0.39622 0.7972,-0.58424 1.01016,-1.01016 0.0395,-0.079 0,-2.38417 0,-2.52538 0,-0.16836 -0.11905,-0.38603 0,-0.50507 0.11904,-0.11905 0.38602,0.11904 0.50507,0 0.2381,-0.2381 -0.15058,-0.70899 0,-1.01016 0.74317,-1.48634 0.50508,0.78403 0.50508,-1.51522"
         style="fill:none;stroke:#000080;stroke-width:1px;stroke-linecap:butt;stroke-linejoin:miter;stroke-opacity:1" />
      <path
         sodipodi:nodetypes="ccccccccccccccccccccc"
         inkscape:connector-curvature="0"
         inkscape:original-d="m 313.14729,462.36218 20.70813,0 -0.75762,-19.62706 20.45559,0 -0.25254,-20.96066 20.45559,0.25253 18.68782,0.50508 0.50508,-21.71828 19.95051,0.50508 0.50507,-38.63834 19.44545,-0.25254 -0.50508,-20.20305 20.20305,0 0.50508,-21.2132 20.20305,0 0,-18.94036 20.70812,-0.25254 -0.75761,-19.69797 18.18275,0.50508 -0.25254,-39.39596 0.50507,-0.50507"
         inkscape:path-effect="#path-effect7697"
         id="path7695"
         d="m 313.14729,462.36218 20.70813,0 -0.75762,-19.62706 20.45559,0 -0.25254,-20.96066 c 6.81904,0.0319 13.63784,0.11607 20.45559,0.25253 6.23035,0.1247 12.45983,0.29307 18.68782,0.50508 l 0.50508,-21.71828 19.95051,0.50508 0.50507,-38.63834 19.44545,-0.25254 -0.50508,-20.20305 20.20305,0 0.50508,-21.2132 20.20305,0 0,-18.94036 20.70812,-0.25254 -0.75761,-19.69797 18.18275,0.50508 -0.25254,-39.39596 0.50507,-0.50507"
         style="fill:none;stroke:#000080;stroke-width:1px;stroke-linecap:butt;stroke-linejoin:miter;stroke-opacity:1" />
      <text
         sodipodi:linespacing="125%"
         id="text7699"
         y="477.58536"
         x="161.6244"
         style="font-size:16px;font-style:normal;font-weight:normal;line-height:125%;letter-spacing:0px;word-spacing:0px;fill:#000000;fill-opacity:1;stroke:none;font-family:Sans"
         xml:space="preserve"><tspan
           style="font-style:normal;font-variant:normal;font-weight:normal;font-stretch:normal;font-family:Trebuchet MS;-inkscape-font-specification:Trebuchet MS"
           y="477.58536"
           x="161.6244"
           id="tspan7701"
           sodipodi:role="line">Analog signal</tspan></text>
      <text
         sodipodi:linespacing="125%"
         id="text7729"
         y="478.09045"
         x="330.82495"
         style="font-size:16px;font-style:normal;font-weight:normal;line-height:125%;letter-spacing:0px;word-spacing:0px;fill:#000000;fill-opacity:1;stroke:none;font-family:Sans"
         xml:space="preserve"><tspan
           y="478.09045"
           x="330.82495"
           id="tspan7731"
           sodipodi:role="line">Digital quantized signal</tspan></text>
    </g>
  </g>
</svg>
