<?xml version="1.0" encoding="utf-8"?>
<!-- Generator: Adobe Illustrator 14.0.0, SVG Export Plug-In . SVG Version: 6.00 Build 43363)  -->
<!DOCTYPE svg PUBLIC "-//W3C//DTD SVG 1.1//EN" "http://www.w3.org/Graphics/SVG/1.1/DTD/svg11.dtd">
<svg version="1.1" id="Layer_1" xmlns="http://www.w3.org/2000/svg" xmlns:xlink="http://www.w3.org/1999/xlink" x="0px" y="0px"
	 width="367.064px" height="276.066px" viewBox="0 0 367.064 276.066" enable-background="new 0 0 367.064 276.066"
	 xml:space="preserve">
<g>
	<defs>
		<rect id="SVGID_1_" y="0" width="367.064" height="276.066"/>
	</defs>
	<clipPath id="SVGID_2_">
		<use xlink:href="#SVGID_1_"  overflow="visible"/>
	</clipPath>
	<path clip-path="url(#SVGID_2_)" fill="none" stroke="#000000" stroke-width="3" d="M83.309,113.566
		c59.5,0,68.083-40.56,114.5-61.5c66.5-30,58.5,60.5,101.5,62.5"/>
	<polyline clip-path="url(#SVGID_2_)" fill="none" stroke="#000000" stroke-width="3" points="82.809,258.066 154.809,258.066 
		154.809,186.066 262.809,186.066 262.809,258.066 298.809,258.066 	"/>
	<line clip-path="url(#SVGID_2_)" fill="none" stroke="#000000" x1="64.809" y1="96.066" x2="313.309" y2="96.066"/>
	<path clip-path="url(#SVGID_2_)" d="M312.289,96.066l-2.191-3.603l0.123-0.082l5.875,2.334c2.048,0.45,4.094,0.9,6.141,1.351
		c-2.047,0.45-4.093,0.9-6.141,1.351l-5.875,2.334l-0.123-0.062L312.289,96.066z"/>
	<line clip-path="url(#SVGID_2_)" fill="none" stroke="#000000" x1="64.809" y1="258.066" x2="313.309" y2="258.066"/>
	<path clip-path="url(#SVGID_2_)" d="M312.289,258.066l-2.191-3.604l0.123-0.081l5.875,2.333c2.048,0.451,4.094,0.9,6.141,1.352
		c-2.047,0.45-4.093,0.9-6.141,1.352l-5.875,2.333l-0.123-0.062L312.289,258.066z"/>
</g>
<g>
	<path d="M327.566,74.155v1.538h-4.351v11.373h-1.767V75.693h-4.351v-1.538H327.566z"/>
	<path d="M328.748,74.155h1.608v1.793h-1.608V74.155z M328.748,77.697h1.608v9.369h-1.608V77.697z"/>
	<path d="M332.747,77.653h1.564v1.336c0.375-0.463,0.715-0.8,1.02-1.011c0.521-0.357,1.113-0.536,1.775-0.536
		c0.75,0,1.354,0.185,1.811,0.554c0.258,0.211,0.492,0.521,0.703,0.932c0.352-0.504,0.765-0.877,1.239-1.121s1.008-0.365,1.6-0.365
		c1.266,0,2.127,0.457,2.584,1.371c0.246,0.492,0.369,1.154,0.369,1.986v6.267h-1.644v-6.539c0-0.627-0.157-1.058-0.471-1.292
		s-0.695-0.352-1.146-0.352c-0.621,0-1.156,0.208-1.604,0.624c-0.449,0.416-0.673,1.11-0.673,2.083v5.476h-1.608v-6.144
		c0-0.639-0.076-1.104-0.229-1.397c-0.24-0.439-0.688-0.659-1.345-0.659c-0.598,0-1.142,0.231-1.63,0.694
		c-0.49,0.463-0.734,1.301-0.734,2.514v4.992h-1.582V77.653z"/>
	<path d="M353.556,77.913c0.623,0.313,1.098,0.719,1.424,1.217c0.314,0.475,0.523,1.028,0.629,1.661
		c0.093,0.434,0.14,1.125,0.14,2.074h-6.847c0.029,0.958,0.253,1.726,0.672,2.305c0.418,0.579,1.066,0.868,1.944,0.868
		c0.819,0,1.474-0.274,1.962-0.821c0.273-0.317,0.467-0.686,0.581-1.104h1.556c-0.041,0.346-0.178,0.731-0.408,1.156
		c-0.232,0.425-0.49,0.772-0.775,1.042c-0.477,0.469-1.066,0.785-1.771,0.949c-0.378,0.094-0.806,0.141-1.282,0.141
		c-1.164,0-2.151-0.426-2.961-1.279s-1.214-2.046-1.214-3.582c0-1.512,0.407-2.739,1.223-3.683s1.881-1.415,3.197-1.415
		C352.289,77.442,352.933,77.599,353.556,77.913z M354.122,81.608c-0.064-0.686-0.212-1.233-0.444-1.644
		c-0.431-0.762-1.147-1.143-2.153-1.143c-0.72,0-1.324,0.262-1.812,0.787s-0.746,1.191-0.775,2H354.122z"/>
	<path d="M357.888,88.912c0.404-0.071,0.688-0.356,0.853-0.856c0.088-0.265,0.132-0.521,0.132-0.769c0-0.041-0.002-0.078-0.004-0.11
		c-0.004-0.032-0.011-0.069-0.022-0.11h-0.958V85.15h1.881v1.775c0,0.697-0.141,1.31-0.422,1.837s-0.768,0.853-1.459,0.976V88.912z"
		/>
</g>
<g>
	<defs>
		<rect id="SVGID_3_" y="0" width="367.064" height="276.066"/>
	</defs>
	<clipPath id="SVGID_4_">
		<use xlink:href="#SVGID_3_"  overflow="visible"/>
	</clipPath>
	<g clip-path="url(#SVGID_4_)">
		<path d="M361.786,86.324c0.006-0.062,0.018-0.125,0.035-0.189l1.699-6.134h-1.336c0-0.158,0.012-0.258,0.035-0.299
			s0.082-0.082,0.177-0.124c0.595-0.253,1.057-0.497,1.384-0.732s0.773-0.688,1.34-1.359l0.141-0.167
			c0.018-0.024,0.039-0.043,0.065-0.058s0.055-0.022,0.084-0.022c0.059,0.012,0.1,0.023,0.123,0.035
			c0.018,0.041,0.027,0.078,0.03,0.11s0.002,0.066-0.004,0.101l-0.518,1.916h1.449l-0.105,0.599h-1.517l-1.619,5.905
			c-0.03,0.105-0.021,0.207,0.026,0.303c0.047,0.096,0.126,0.145,0.237,0.145c0.152,0,0.366-0.152,0.642-0.457
			c0.158-0.164,0.426-0.489,0.801-0.976l0.229,0.132l-0.123,0.185c-0.505,0.756-0.949,1.282-1.334,1.578s-0.75,0.444-1.096,0.444
			c-0.3,0-0.517-0.079-0.652-0.237c-0.135-0.158-0.202-0.337-0.202-0.536C361.777,86.44,361.78,86.386,361.786,86.324z"/>
	</g>
</g>
<g>
	<path d="M327.566,236.155v1.538h-4.351v11.373h-1.767v-11.373h-4.351v-1.538H327.566z"/>
	<path d="M328.748,236.155h1.608v1.793h-1.608V236.155z M328.748,239.697h1.608v9.369h-1.608V239.697z"/>
	<path d="M332.747,239.653h1.564v1.336c0.375-0.463,0.715-0.8,1.02-1.011c0.521-0.357,1.113-0.536,1.775-0.536
		c0.75,0,1.354,0.185,1.811,0.554c0.258,0.211,0.492,0.521,0.703,0.932c0.352-0.504,0.765-0.877,1.239-1.121
		c0.475-0.242,1.008-0.364,1.6-0.364c1.266,0,2.127,0.457,2.584,1.371c0.246,0.492,0.369,1.154,0.369,1.986v6.267h-1.644v-6.539
		c0-0.627-0.157-1.058-0.471-1.292s-0.695-0.352-1.146-0.352c-0.621,0-1.156,0.208-1.604,0.624c-0.449,0.416-0.673,1.11-0.673,2.083
		v5.476h-1.608v-6.144c0-0.639-0.076-1.104-0.229-1.397c-0.24-0.439-0.688-0.659-1.345-0.659c-0.598,0-1.142,0.231-1.63,0.694
		c-0.49,0.463-0.734,1.301-0.734,2.514v4.992h-1.582V239.653z"/>
	<path d="M353.556,239.912c0.623,0.314,1.098,0.72,1.424,1.218c0.314,0.475,0.523,1.028,0.629,1.661
		c0.093,0.434,0.14,1.125,0.14,2.074h-6.847c0.029,0.958,0.253,1.727,0.672,2.305c0.418,0.579,1.066,0.868,1.944,0.868
		c0.819,0,1.474-0.273,1.962-0.821c0.273-0.317,0.467-0.686,0.581-1.104h1.556c-0.041,0.346-0.178,0.731-0.408,1.156
		c-0.232,0.425-0.49,0.771-0.775,1.041c-0.477,0.469-1.066,0.785-1.771,0.949c-0.378,0.094-0.806,0.141-1.282,0.141
		c-1.164,0-2.151-0.426-2.961-1.279c-0.81-0.852-1.214-2.046-1.214-3.581c0-1.512,0.407-2.739,1.223-3.683s1.881-1.415,3.197-1.415
		C352.289,239.442,352.933,239.6,353.556,239.912z M354.122,243.608c-0.064-0.686-0.212-1.233-0.444-1.644
		c-0.431-0.762-1.147-1.143-2.153-1.143c-0.72,0-1.324,0.263-1.812,0.787s-0.746,1.19-0.775,1.999H354.122z"/>
	<path d="M357.888,250.912c0.404-0.07,0.688-0.356,0.853-0.856c0.088-0.265,0.132-0.521,0.132-0.769c0-0.041-0.002-0.078-0.004-0.11
		c-0.004-0.032-0.011-0.069-0.022-0.11h-0.958v-1.916h1.881v1.775c0,0.697-0.141,1.31-0.422,1.837s-0.768,0.853-1.459,0.976V250.912
		z"/>
</g>
<g>
	<defs>
		<rect id="SVGID_5_" y="0" width="367.064" height="276.066"/>
	</defs>
	<clipPath id="SVGID_6_">
		<use xlink:href="#SVGID_5_"  overflow="visible"/>
	</clipPath>
	<g clip-path="url(#SVGID_6_)">
		<path d="M361.786,248.324c0.006-0.062,0.018-0.124,0.035-0.189l1.699-6.134h-1.336c0-0.158,0.012-0.258,0.035-0.299
			s0.082-0.082,0.177-0.123c0.595-0.253,1.057-0.497,1.384-0.732s0.773-0.688,1.34-1.359l0.141-0.168
			c0.018-0.023,0.039-0.042,0.065-0.057s0.055-0.022,0.084-0.022c0.059,0.012,0.1,0.023,0.123,0.035
			c0.018,0.041,0.027,0.078,0.03,0.109c0.003,0.033,0.002,0.066-0.004,0.102l-0.518,1.916h1.449l-0.105,0.599h-1.517l-1.619,5.906
			c-0.03,0.105-0.021,0.206,0.026,0.303s0.126,0.145,0.237,0.145c0.152,0,0.366-0.152,0.642-0.457
			c0.158-0.164,0.426-0.489,0.801-0.976l0.229,0.132l-0.123,0.185c-0.505,0.756-0.949,1.282-1.334,1.578
			c-0.385,0.295-0.75,0.443-1.096,0.443c-0.3,0-0.517-0.079-0.652-0.237c-0.135-0.158-0.202-0.337-0.202-0.536
			C361.777,248.439,361.78,248.386,361.786,248.324z"/>
	</g>
	<line clip-path="url(#SVGID_6_)" fill="none" stroke="#000000" x1="118.809" y1="123.066" x2="118.809" y2="14.566"/>
	<path clip-path="url(#SVGID_6_)" d="M118.809,15.586l-3.604,2.19l-0.081-0.122l2.333-5.875c0.452-2.047,0.901-4.094,1.352-6.141
		c0.45,2.047,0.9,4.094,1.352,6.141l2.333,5.875l-0.062,0.122L118.809,15.586z"/>
	<line clip-path="url(#SVGID_6_)" fill="none" stroke="#000000" x1="118.809" y1="276.066" x2="118.809" y2="167.566"/>
	<path clip-path="url(#SVGID_6_)" d="M118.809,168.586l-3.604,2.191l-0.081-0.123l2.333-5.875c0.452-2.048,0.901-4.094,1.352-6.142
		c0.45,2.048,0.9,4.094,1.352,6.142l2.333,5.875l-0.062,0.123L118.809,168.586z"/>
	<g clip-path="url(#SVGID_6_)">
		<path d="M135.235,4.511c-0.129,0.164-0.308,0.246-0.536,0.246c-0.199,0-0.363-0.063-0.492-0.19
			c-0.129-0.127-0.193-0.275-0.193-0.447c0-0.118,0.056-0.321,0.167-0.61c0-0.077-0.038-0.144-0.114-0.203
			c-0.066-0.053-0.147-0.08-0.241-0.08c-0.44,0-0.808,0.473-1.104,1.418c-0.166,0.546-0.352,1.465-0.559,2.757h1.96L134,7.991h-2
			l-1.681,5.742c-0.355,1.518-0.832,2.746-1.431,3.682c-0.599,0.937-1.365,1.405-2.297,1.405c-0.427,0-0.778-0.114-1.052-0.343
			s-0.411-0.483-0.411-0.765c0-0.176,0.057-0.34,0.171-0.492s0.286-0.229,0.514-0.229c0.199,0,0.368,0.066,0.505,0.198
			s0.207,0.294,0.207,0.488c0,0.105-0.031,0.212-0.092,0.321s-0.092,0.183-0.092,0.224c0,0.053,0.034,0.097,0.101,0.132
			s0.154,0.053,0.26,0.053c0.499,0,0.921-0.393,1.267-1.178c0.182-0.41,0.349-0.976,0.502-1.696l2.088-7.541h-1.626l0.123-0.589
			h1.703c0.32-1.365,0.68-2.376,1.079-3.032c0.593-1.008,1.326-1.512,2.197-1.512c0.399,0,0.731,0.114,0.997,0.343
			c0.265,0.229,0.397,0.489,0.397,0.782C135.429,4.171,135.364,4.347,135.235,4.511z"/>
	</g>
	<g clip-path="url(#SVGID_6_)">
		<path d="M135.719,5.179c0.75-0.943,1.635-1.702,2.654-2.276l0.167,0.29c-0.943,0.75-1.617,1.479-2.021,2.188
			c-0.709,1.236-1.063,2.883-1.063,4.939c0,1.523,0.135,2.78,0.404,3.771c0.475,1.734,1.368,3.032,2.681,3.894l-0.229,0.29
			c-0.721-0.346-1.5-1.022-2.338-2.03c-1.389-1.67-2.083-3.568-2.083-5.695C133.891,8.51,134.5,6.72,135.719,5.179z"/>
	</g>
	<g clip-path="url(#SVGID_6_)">
		<path d="M138.856,14.324c0.006-0.062,0.018-0.125,0.035-0.189l1.699-6.134h-1.336c0-0.158,0.012-0.258,0.036-0.299
			c0.023-0.041,0.083-0.082,0.177-0.124c0.595-0.253,1.057-0.497,1.384-0.732s0.773-0.688,1.339-1.359l0.141-0.167
			c0.018-0.024,0.04-0.043,0.066-0.058s0.054-0.022,0.083-0.022c0.059,0.012,0.1,0.023,0.123,0.035
			c0.018,0.041,0.028,0.078,0.031,0.11s0.001,0.066-0.004,0.101l-0.517,1.916h1.449l-0.105,0.599h-1.516l-1.62,5.905
			c-0.029,0.105-0.021,0.207,0.026,0.303c0.047,0.096,0.126,0.145,0.238,0.145c0.152,0,0.366-0.152,0.642-0.457
			c0.158-0.164,0.425-0.489,0.8-0.976l0.229,0.132l-0.124,0.185c-0.504,0.756-0.949,1.282-1.333,1.578
			c-0.385,0.296-0.75,0.444-1.096,0.444c-0.299,0-0.517-0.079-0.651-0.237c-0.135-0.158-0.203-0.337-0.203-0.536
			C138.848,14.44,138.851,14.386,138.856,14.324z"/>
	</g>
	<g clip-path="url(#SVGID_6_)">
		<path d="M148.916,13.115c-0.229,0.779-0.562,1.515-1.002,2.206c-0.463,0.738-1.081,1.427-1.854,2.065
			c-0.51,0.422-0.938,0.718-1.283,0.888l-0.167-0.29c0.902-0.686,1.562-1.386,1.978-2.101c0.738-1.266,1.107-2.938,1.107-5.019
			c0-1.682-0.17-3.056-0.51-4.122c-0.475-1.506-1.333-2.689-2.575-3.551l0.229-0.29c0.926,0.516,1.787,1.295,2.584,2.338
			c1.225,1.605,1.837,3.404,1.837,5.396C149.259,11.51,149.145,12.336,148.916,13.115z"/>
	</g>
</g>
<g>
	<path d="M135.235,157.511c-0.129,0.164-0.308,0.246-0.536,0.246c-0.199,0-0.363-0.063-0.492-0.19
		c-0.129-0.126-0.193-0.275-0.193-0.446c0-0.117,0.056-0.321,0.167-0.609c0-0.077-0.038-0.145-0.114-0.204
		c-0.066-0.053-0.147-0.079-0.241-0.079c-0.44,0-0.808,0.473-1.104,1.418c-0.166,0.546-0.352,1.465-0.559,2.757h1.96L134,160.991h-2
		l-1.681,5.742c-0.355,1.518-0.832,2.745-1.431,3.682c-0.599,0.936-1.365,1.404-2.297,1.404c-0.427,0-0.778-0.114-1.052-0.343
		s-0.411-0.483-0.411-0.765c0-0.176,0.057-0.34,0.171-0.492s0.286-0.229,0.514-0.229c0.199,0,0.368,0.065,0.505,0.198
		c0.138,0.131,0.207,0.294,0.207,0.487c0,0.105-0.031,0.212-0.092,0.321c-0.062,0.107-0.092,0.183-0.092,0.224
		c0,0.053,0.034,0.097,0.101,0.132s0.154,0.053,0.26,0.053c0.499,0,0.921-0.393,1.267-1.178c0.182-0.41,0.349-0.976,0.502-1.696
		l2.088-7.541h-1.626l0.123-0.589h1.703c0.32-1.365,0.68-2.376,1.079-3.032c0.593-1.008,1.326-1.512,2.197-1.512
		c0.399,0,0.731,0.114,0.997,0.343c0.265,0.229,0.397,0.489,0.397,0.782C135.429,157.171,135.364,157.347,135.235,157.511z"/>
</g>
<g>
	<path d="M135.719,158.179c0.75-0.943,1.635-1.702,2.654-2.276l0.167,0.29c-0.943,0.75-1.617,1.479-2.021,2.188
		c-0.709,1.236-1.063,2.883-1.063,4.939c0,1.523,0.135,2.78,0.404,3.771c0.475,1.734,1.368,3.032,2.681,3.894l-0.229,0.29
		c-0.721-0.346-1.5-1.022-2.338-2.03c-1.389-1.67-2.083-3.568-2.083-5.695C133.891,161.51,134.5,159.72,135.719,158.179z"/>
</g>
<g>
	<path d="M138.856,167.324c0.006-0.062,0.018-0.124,0.035-0.189l1.699-6.134h-1.336c0-0.158,0.012-0.258,0.036-0.299
		c0.023-0.041,0.083-0.082,0.177-0.123c0.595-0.253,1.057-0.497,1.384-0.732s0.773-0.688,1.339-1.359l0.141-0.168
		c0.018-0.023,0.04-0.042,0.066-0.057s0.054-0.022,0.083-0.022c0.059,0.012,0.1,0.023,0.123,0.035
		c0.018,0.041,0.028,0.078,0.031,0.109c0.003,0.033,0.001,0.066-0.004,0.102l-0.517,1.916h1.449l-0.105,0.599h-1.516l-1.62,5.906
		c-0.029,0.105-0.021,0.206,0.026,0.303s0.126,0.145,0.238,0.145c0.152,0,0.366-0.152,0.642-0.457
		c0.158-0.164,0.425-0.489,0.8-0.976l0.229,0.132l-0.124,0.185c-0.504,0.756-0.949,1.282-1.333,1.578
		c-0.385,0.295-0.75,0.443-1.096,0.443c-0.299,0-0.517-0.079-0.651-0.237c-0.135-0.158-0.203-0.337-0.203-0.536
		C138.848,167.439,138.851,167.386,138.856,167.324z"/>
</g>
<g>
	<path d="M148.916,166.115c-0.229,0.779-0.562,1.515-1.002,2.206c-0.463,0.738-1.081,1.427-1.854,2.065
		c-0.51,0.422-0.938,0.718-1.283,0.888l-0.167-0.29c0.902-0.686,1.562-1.386,1.978-2.101c0.738-1.266,1.107-2.938,1.107-5.019
		c0-1.682-0.17-3.056-0.51-4.122c-0.475-1.506-1.333-2.689-2.575-3.551l0.229-0.29c0.926,0.516,1.787,1.295,2.584,2.338
		c1.225,1.605,1.837,3.404,1.837,5.396C149.259,164.51,149.145,165.336,148.916,166.115z"/>
</g>
<g>
	<path d="M21.023,30.096c0.892,0.861,1.387,1.84,1.485,2.936h-1.705c-0.19-0.832-0.568-1.491-1.135-1.978s-1.362-0.729-2.386-0.729
		c-1.249,0-2.257,0.447-3.025,1.341c-0.769,0.895-1.152,2.265-1.152,4.112c0,1.513,0.347,2.74,1.041,3.682
		c0.693,0.941,1.728,1.412,3.104,1.412c1.267,0,2.23-0.495,2.893-1.485c0.351-0.521,0.613-1.207,0.786-2.057h1.705
		c-0.151,1.359-0.649,2.499-1.494,3.419c-1.014,1.107-2.381,1.661-4.101,1.661c-1.482,0-2.728-0.454-3.736-1.363
		c-1.326-1.202-1.989-3.058-1.989-5.567c0-1.906,0.498-3.468,1.494-4.688c1.077-1.325,2.562-1.988,4.457-1.988
		C18.877,28.804,20.131,29.234,21.023,30.096z"/>
	<path d="M31.32,33.593c0.832,0.808,1.248,1.996,1.248,3.565c0,1.517-0.367,2.77-1.1,3.759c-0.733,0.989-1.871,1.484-3.413,1.484
		c-1.286,0-2.307-0.438-3.063-1.312c-0.756-0.875-1.134-2.051-1.134-3.526c0-1.581,0.398-2.839,1.196-3.776
		c0.797-0.937,1.868-1.405,3.211-1.405C29.47,32.381,30.488,32.785,31.32,33.593z M30.337,39.849
		c0.385-0.793,0.578-1.675,0.578-2.646c0-0.878-0.139-1.592-0.417-2.142c-0.44-0.866-1.2-1.299-2.277-1.299
		c-0.956,0-1.651,0.369-2.085,1.106c-0.435,0.738-0.652,1.627-0.652,2.669c0,1,0.217,1.834,0.652,2.502c0.435,0.667,1.124,1,2.068,1
		C29.241,41.038,29.952,40.642,30.337,39.849z"/>
	<path d="M34.51,32.653h1.503v1.336c0.445-0.551,0.917-0.946,1.415-1.187s1.052-0.36,1.661-0.36c1.336,0,2.238,0.466,2.707,1.397
		c0.258,0.51,0.387,1.239,0.387,2.188v6.038h-1.608v-5.933c0-0.574-0.085-1.037-0.255-1.389c-0.281-0.586-0.791-0.879-1.529-0.879
		c-0.375,0-0.683,0.038-0.923,0.114c-0.434,0.129-0.814,0.387-1.143,0.773c-0.264,0.311-0.435,0.631-0.514,0.962
		s-0.119,0.804-0.119,1.419v4.931H34.51V32.653z"/>
	<path d="M44.784,30.025h1.6v2.628h1.503v1.292h-1.503v6.144c0,0.328,0.111,0.548,0.334,0.659c0.123,0.064,0.328,0.097,0.615,0.097
		c0.076,0,0.158-0.002,0.246-0.006s0.19-0.014,0.308-0.029v1.257c-0.182,0.053-0.371,0.091-0.567,0.114s-0.409,0.035-0.637,0.035
		c-0.738,0-1.239-0.189-1.503-0.567s-0.396-0.869-0.396-1.472v-6.231h-1.274v-1.292h1.274V30.025z"/>
	<path d="M49.468,29.155h1.608v1.793h-1.608V29.155z M49.468,32.697h1.608v9.369h-1.608V32.697z"/>
	<path d="M53.467,32.653h1.503v1.336c0.445-0.551,0.917-0.946,1.415-1.187s1.052-0.36,1.661-0.36c1.336,0,2.238,0.466,2.707,1.397
		c0.258,0.51,0.387,1.239,0.387,2.188v6.038h-1.608v-5.933c0-0.574-0.085-1.037-0.255-1.389c-0.281-0.586-0.791-0.879-1.529-0.879
		c-0.375,0-0.683,0.038-0.923,0.114c-0.434,0.129-0.814,0.387-1.143,0.773c-0.264,0.311-0.435,0.631-0.514,0.962
		s-0.119,0.804-0.119,1.419v4.931h-1.582V32.653z"/>
	<path d="M65.06,32.653v6.249c0,0.48,0.074,0.873,0.223,1.178c0.274,0.562,0.785,0.844,1.532,0.844c1.073,0,1.803-0.492,2.191-1.477
		c0.211-0.527,0.317-1.251,0.317-2.171v-4.623h1.582v9.413h-1.494l0.018-1.389c-0.202,0.357-0.452,0.659-0.75,0.905
		c-0.592,0.492-1.311,0.738-2.156,0.738c-1.316,0-2.213-0.448-2.69-1.345c-0.259-0.48-0.388-1.122-0.388-1.925v-6.398H65.06z"/>
	<path d="M80.309,33.593c0.832,0.808,1.248,1.996,1.248,3.565c0,1.517-0.367,2.77-1.1,3.759c-0.733,0.989-1.871,1.484-3.413,1.484
		c-1.286,0-2.307-0.438-3.063-1.312c-0.756-0.875-1.134-2.051-1.134-3.526c0-1.581,0.398-2.839,1.196-3.776
		c0.797-0.937,1.868-1.405,3.211-1.405C78.459,32.381,79.477,32.785,80.309,33.593z M79.327,39.849
		c0.385-0.793,0.578-1.675,0.578-2.646c0-0.878-0.139-1.592-0.417-2.142c-0.44-0.866-1.2-1.299-2.277-1.299
		c-0.956,0-1.651,0.369-2.085,1.106c-0.435,0.738-0.652,1.627-0.652,2.669c0,1,0.217,1.834,0.652,2.502c0.435,0.667,1.124,1,2.068,1
		C78.23,41.038,78.941,40.642,79.327,39.849z"/>
	<path d="M85.082,32.653v6.249c0,0.48,0.074,0.873,0.223,1.178c0.274,0.562,0.785,0.844,1.532,0.844
		c1.073,0,1.803-0.492,2.191-1.477c0.211-0.527,0.317-1.251,0.317-2.171v-4.623h1.582v9.413h-1.494l0.018-1.389
		c-0.202,0.357-0.452,0.659-0.75,0.905c-0.592,0.492-1.311,0.738-2.156,0.738c-1.316,0-2.213-0.448-2.69-1.345
		c-0.259-0.48-0.388-1.122-0.388-1.925v-6.398H85.082z"/>
	<path d="M94.451,39.113c0.048,0.527,0.182,0.932,0.404,1.213c0.406,0.51,1.112,0.765,2.117,0.765c0.598,0,1.125-0.127,1.579-0.382
		s0.682-0.649,0.682-1.182c0-0.404-0.182-0.712-0.545-0.923c-0.232-0.129-0.691-0.278-1.375-0.448l-1.277-0.316
		c-0.816-0.199-1.417-0.422-1.804-0.668c-0.691-0.428-1.036-1.02-1.036-1.775c0-0.891,0.325-1.611,0.975-2.162
		c0.65-0.551,1.525-0.826,2.624-0.826c1.437,0,2.473,0.416,3.108,1.248c0.397,0.527,0.591,1.096,0.579,1.705h-1.494
		c-0.03-0.355-0.159-0.679-0.387-0.97c-0.372-0.414-1.017-0.621-1.935-0.621c-0.612,0-1.075,0.114-1.39,0.341
		c-0.315,0.228-0.472,0.529-0.472,0.902c0,0.409,0.207,0.735,0.621,0.981c0.239,0.146,0.591,0.274,1.057,0.386l1.066,0.255
		c1.158,0.275,1.934,0.542,2.328,0.8c0.615,0.404,0.923,1.04,0.923,1.907c0,0.838-0.322,1.562-0.965,2.171
		c-0.644,0.609-1.624,0.914-2.941,0.914c-1.418,0-2.422-0.318-3.012-0.954s-0.906-1.422-0.948-2.36H94.451z"/>
	<path d="M102.664,43.912c0.404-0.071,0.688-0.356,0.853-0.856c0.088-0.265,0.132-0.521,0.132-0.769c0-0.041-0.001-0.078-0.004-0.11
		s-0.01-0.069-0.022-0.11h-0.958V40.15h1.881v1.775c0,0.697-0.141,1.31-0.422,1.837s-0.768,0.853-1.459,0.976V43.912z"/>
</g>
<g>
	<path d="M34.037,50.755h1.975l4.686,12.911h-1.916l-1.348-3.867h-5.065l-1.4,3.867h-1.793L34.037,50.755z M36.938,58.375
		l-1.988-5.704l-2.065,5.704H36.938z"/>
	<path d="M42.01,54.253h1.503v1.336c0.445-0.551,0.917-0.946,1.415-1.187s1.052-0.36,1.661-0.36c1.336,0,2.238,0.466,2.707,1.397
		c0.258,0.51,0.387,1.239,0.387,2.188v6.038h-1.608v-5.933c0-0.574-0.085-1.037-0.255-1.389c-0.281-0.586-0.791-0.879-1.529-0.879
		c-0.375,0-0.683,0.038-0.923,0.114c-0.434,0.129-0.814,0.387-1.143,0.773c-0.264,0.311-0.435,0.631-0.514,0.962
		s-0.119,0.804-0.119,1.419v4.931H42.01V54.253z"/>
	<path d="M57.066,57.97c0.363-0.046,0.606-0.199,0.729-0.456c0.07-0.141,0.105-0.344,0.105-0.609c0-0.541-0.191-0.934-0.575-1.178
		c-0.383-0.244-0.931-0.366-1.645-0.366c-0.824,0-1.409,0.224-1.754,0.671c-0.193,0.248-0.318,0.615-0.377,1.104h-1.477
		c0.029-1.164,0.405-1.973,1.128-2.428s1.561-0.683,2.515-0.683c1.106,0,2.004,0.211,2.695,0.633
		c0.685,0.422,1.027,1.078,1.027,1.969v5.423c0,0.164,0.034,0.296,0.101,0.396c0.067,0.099,0.209,0.149,0.426,0.149
		c0.07,0,0.149-0.004,0.237-0.013s0.182-0.022,0.281-0.04v1.169c-0.246,0.07-0.434,0.114-0.562,0.132s-0.305,0.026-0.527,0.026
		c-0.545,0-0.94-0.193-1.187-0.58c-0.129-0.205-0.22-0.495-0.272-0.87c-0.322,0.422-0.785,0.788-1.389,1.098
		s-1.269,0.466-1.995,0.466c-0.873,0-1.586-0.265-2.14-0.794c-0.554-0.53-0.831-1.192-0.831-1.988c0-0.872,0.272-1.548,0.817-2.028
		c0.545-0.479,1.26-0.775,2.145-0.887L57.066,57.97z M53.735,62.244c0.334,0.263,0.729,0.395,1.187,0.395
		c0.557,0,1.096-0.129,1.617-0.386c0.879-0.427,1.318-1.126,1.318-2.097v-1.272c-0.193,0.124-0.441,0.227-0.746,0.309
		c-0.304,0.083-0.602,0.141-0.895,0.176l-0.956,0.123c-0.573,0.076-1.004,0.196-1.293,0.359c-0.489,0.275-0.734,0.713-0.734,1.315
		C53.234,61.621,53.401,61.98,53.735,62.244z"/>
	<path d="M62.076,50.755h1.582v12.911h-1.582V50.755z"/>
	<path d="M72.851,55.193c0.832,0.808,1.248,1.996,1.248,3.565c0,1.517-0.367,2.77-1.1,3.759C72.266,63.506,71.129,64,69.587,64
		c-1.286,0-2.307-0.438-3.063-1.312c-0.756-0.875-1.134-2.051-1.134-3.526c0-1.581,0.398-2.839,1.196-3.776
		c0.797-0.937,1.868-1.405,3.211-1.405C71.001,53.981,72.019,54.385,72.851,55.193z M71.869,61.449
		c0.385-0.793,0.578-1.675,0.578-2.646c0-0.878-0.139-1.592-0.417-2.142c-0.44-0.866-1.2-1.299-2.277-1.299
		c-0.956,0-1.651,0.369-2.085,1.106c-0.435,0.738-0.652,1.627-0.652,2.669c0,1,0.217,1.834,0.652,2.502c0.435,0.667,1.124,1,2.068,1
		C70.772,62.638,71.483,62.242,71.869,61.449z"/>
	<path d="M81.274,54.631c0.298,0.205,0.601,0.504,0.911,0.896v-1.187h1.459v8.561c0,1.195-0.175,2.139-0.525,2.83
		c-0.654,1.277-1.89,1.916-3.706,1.916c-1.01,0-1.86-0.227-2.549-0.681c-0.689-0.454-1.075-1.165-1.157-2.131h1.608
		c0.076,0.422,0.227,0.747,0.455,0.976c0.355,0.352,0.915,0.527,1.678,0.527c1.207,0,1.996-0.428,2.369-1.283
		c0.222-0.504,0.324-1.403,0.306-2.698c-0.315,0.48-0.694,0.838-1.138,1.072c-0.443,0.234-1.03,0.352-1.76,0.352
		c-1.015,0-1.904-0.362-2.666-1.085s-1.143-1.92-1.143-3.59c0-1.576,0.384-2.807,1.151-3.691s1.694-1.327,2.779-1.327
		C80.084,54.086,80.726,54.268,81.274,54.631z M81.468,56.328c-0.478-0.562-1.087-0.844-1.828-0.844
		c-1.108,0-1.866,0.521-2.273,1.564c-0.216,0.557-0.324,1.286-0.324,2.188c0,1.061,0.214,1.868,0.643,2.421
		c0.429,0.554,1.004,0.831,1.727,0.831c1.131,0,1.927-0.513,2.387-1.538c0.256-0.58,0.385-1.257,0.385-2.03
		C82.185,57.754,81.946,56.89,81.468,56.328z"/>
</g>
<g>
	<defs>
		<rect id="SVGID_7_" y="0" width="367.064" height="276.066"/>
	</defs>
	<clipPath id="SVGID_8_">
		<use xlink:href="#SVGID_7_"  overflow="visible"/>
	</clipPath>
	<g clip-path="url(#SVGID_8_)">
		<path d="M1.45,200.155h5.161c1.752,0,3.111,0.63,4.076,1.89c0.862,1.137,1.292,2.593,1.292,4.368c0,1.371-0.254,2.61-0.763,3.718
			c-0.896,1.957-2.438,2.936-4.623,2.936H1.45V200.155z M6.268,211.572c0.579,0,1.054-0.062,1.427-0.185
			c0.665-0.229,1.208-0.668,1.633-1.318c0.338-0.521,0.582-1.189,0.73-2.004c0.086-0.486,0.129-0.938,0.129-1.354
			c0-1.6-0.311-2.842-0.933-3.727s-1.623-1.327-3.003-1.327H3.217v9.914H6.268z"/>
		<path d="M14.159,200.155h1.608v1.793h-1.608V200.155z M14.159,203.697h1.608v9.369h-1.608V203.697z"/>
		<path d="M19.099,210.113c0.048,0.527,0.182,0.932,0.404,1.213c0.406,0.51,1.112,0.765,2.117,0.765
			c0.598,0,1.125-0.128,1.579-0.382c0.455-0.256,0.682-0.649,0.682-1.183c0-0.404-0.182-0.712-0.545-0.923
			c-0.232-0.129-0.691-0.278-1.375-0.448l-1.277-0.316c-0.816-0.199-1.417-0.422-1.804-0.668c-0.691-0.428-1.036-1.02-1.036-1.775
			c0-0.891,0.325-1.611,0.975-2.162c0.65-0.551,1.525-0.826,2.624-0.826c1.437,0,2.473,0.416,3.108,1.248
			c0.397,0.527,0.591,1.096,0.579,1.705h-1.494c-0.03-0.355-0.159-0.679-0.387-0.971c-0.372-0.413-1.017-0.62-1.935-0.62
			c-0.612,0-1.075,0.114-1.39,0.342s-0.472,0.528-0.472,0.901c0,0.409,0.207,0.736,0.621,0.981c0.239,0.146,0.591,0.274,1.057,0.386
			l1.066,0.255c1.158,0.275,1.934,0.542,2.328,0.8c0.615,0.404,0.923,1.04,0.923,1.907c0,0.838-0.322,1.562-0.965,2.171
			c-0.644,0.609-1.624,0.914-2.941,0.914c-1.418,0-2.422-0.318-3.012-0.954c-0.59-0.635-0.906-1.422-0.948-2.359H19.099z"/>
		<path d="M33.376,204.154c0.665,0.516,1.065,1.403,1.2,2.663h-1.538c-0.094-0.58-0.308-1.062-0.642-1.446
			c-0.334-0.383-0.87-0.575-1.608-0.575c-1.008,0-1.729,0.491-2.162,1.475c-0.281,0.638-0.422,1.425-0.422,2.361
			c0,0.942,0.199,1.735,0.598,2.379c0.398,0.645,1.025,0.966,1.881,0.966c0.656,0,1.176-0.2,1.56-0.6s0.649-0.947,0.795-1.642h1.538
			c-0.176,1.248-0.615,2.161-1.318,2.737c-0.703,0.578-1.603,0.866-2.698,0.866c-1.23,0-2.212-0.449-2.944-1.349
			s-1.099-2.023-1.099-3.371c0-1.652,0.401-2.938,1.204-3.858s1.825-1.38,3.067-1.38C31.849,203.381,32.711,203.639,33.376,204.154z
			"/>
		<path d="M42.871,204.593c0.832,0.808,1.248,1.996,1.248,3.565c0,1.516-0.367,2.769-1.1,3.758
			c-0.733,0.989-1.871,1.484-3.413,1.484c-1.286,0-2.307-0.438-3.063-1.312c-0.756-0.875-1.134-2.051-1.134-3.526
			c0-1.58,0.398-2.839,1.196-3.775c0.797-0.937,1.868-1.405,3.211-1.405C41.021,203.381,42.039,203.785,42.871,204.593z
			 M41.888,210.849c0.385-0.793,0.578-1.675,0.578-2.646c0-0.878-0.139-1.592-0.417-2.143c-0.44-0.865-1.2-1.299-2.277-1.299
			c-0.956,0-1.651,0.369-2.085,1.106s-0.652,1.627-0.652,2.668c0,1.001,0.217,1.835,0.652,2.502s1.124,1.001,2.068,1.001
			C40.792,212.038,41.503,211.642,41.888,210.849z"/>
		<path d="M46.061,203.653h1.503v1.336c0.445-0.551,0.917-0.946,1.415-1.187s1.052-0.36,1.661-0.36c1.336,0,2.238,0.466,2.707,1.397
			c0.258,0.51,0.387,1.239,0.387,2.188v6.038h-1.608v-5.933c0-0.574-0.085-1.037-0.255-1.389c-0.281-0.586-0.791-0.879-1.529-0.879
			c-0.375,0-0.683,0.038-0.923,0.114c-0.434,0.129-0.814,0.387-1.143,0.773c-0.264,0.311-0.435,0.632-0.514,0.963
			s-0.119,0.804-0.119,1.419v4.931h-1.582V203.653z"/>
		<path d="M56.316,201.025h1.6v2.628h1.503v1.292h-1.503v6.144c0,0.328,0.111,0.548,0.334,0.659
			c0.123,0.064,0.328,0.097,0.615,0.097c0.076,0,0.158-0.002,0.246-0.006s0.19-0.014,0.308-0.029v1.257
			c-0.182,0.053-0.371,0.091-0.567,0.114s-0.409,0.035-0.637,0.035c-0.738,0-1.239-0.188-1.503-0.567
			c-0.264-0.377-0.396-0.868-0.396-1.472v-6.231h-1.274v-1.292h1.274V201.025z"/>
		<path d="M61,200.155h1.608v1.793H61V200.155z M61,203.697h1.608v9.369H61V203.697z"/>
		<path d="M65,203.653h1.503v1.336c0.445-0.551,0.917-0.946,1.415-1.187s1.052-0.36,1.661-0.36c1.336,0,2.238,0.466,2.707,1.397
			c0.258,0.51,0.387,1.239,0.387,2.188v6.038h-1.608v-5.933c0-0.574-0.085-1.037-0.255-1.389c-0.281-0.586-0.791-0.879-1.529-0.879
			c-0.375,0-0.683,0.038-0.923,0.114c-0.434,0.129-0.814,0.387-1.143,0.773c-0.264,0.311-0.435,0.632-0.514,0.963
			s-0.119,0.804-0.119,1.419v4.931H65V203.653z"/>
		<path d="M76.592,203.653v6.249c0,0.48,0.074,0.873,0.223,1.178c0.274,0.562,0.785,0.844,1.532,0.844
			c1.073,0,1.803-0.492,2.191-1.477c0.211-0.527,0.317-1.251,0.317-2.171v-4.623h1.582v9.413h-1.494l0.018-1.389
			c-0.202,0.357-0.452,0.659-0.75,0.905c-0.592,0.492-1.311,0.738-2.156,0.738c-1.316,0-2.213-0.448-2.69-1.345
			c-0.259-0.48-0.388-1.122-0.388-1.925v-6.398H76.592z"/>
		<path d="M91.841,204.593c0.832,0.808,1.248,1.996,1.248,3.565c0,1.516-0.367,2.769-1.1,3.758
			c-0.733,0.989-1.871,1.484-3.413,1.484c-1.286,0-2.307-0.438-3.063-1.312c-0.756-0.875-1.134-2.051-1.134-3.526
			c0-1.58,0.398-2.839,1.196-3.775c0.797-0.937,1.868-1.405,3.211-1.405C89.991,203.381,91.009,203.785,91.841,204.593z
			 M90.859,210.849c0.385-0.793,0.578-1.675,0.578-2.646c0-0.878-0.139-1.592-0.417-2.143c-0.44-0.865-1.2-1.299-2.277-1.299
			c-0.956,0-1.651,0.369-2.085,1.106s-0.652,1.627-0.652,2.668c0,1.001,0.217,1.835,0.652,2.502s1.124,1.001,2.068,1.001
			C89.763,212.038,90.474,211.642,90.859,210.849z"/>
		<path d="M96.614,203.653v6.249c0,0.48,0.074,0.873,0.223,1.178c0.274,0.562,0.785,0.844,1.532,0.844
			c1.073,0,1.803-0.492,2.191-1.477c0.211-0.527,0.317-1.251,0.317-2.171v-4.623h1.582v9.413h-1.494l0.018-1.389
			c-0.202,0.357-0.452,0.659-0.75,0.905c-0.592,0.492-1.311,0.738-2.156,0.738c-1.316,0-2.213-0.448-2.69-1.345
			c-0.259-0.48-0.388-1.122-0.388-1.925v-6.398H96.614z"/>
		<path d="M105.983,210.113c0.048,0.527,0.182,0.932,0.404,1.213c0.406,0.51,1.112,0.765,2.117,0.765
			c0.598,0,1.125-0.128,1.579-0.382c0.455-0.256,0.682-0.649,0.682-1.183c0-0.404-0.182-0.712-0.545-0.923
			c-0.232-0.129-0.691-0.278-1.375-0.448l-1.277-0.316c-0.816-0.199-1.417-0.422-1.804-0.668c-0.691-0.428-1.036-1.02-1.036-1.775
			c0-0.891,0.325-1.611,0.975-2.162c0.65-0.551,1.525-0.826,2.624-0.826c1.437,0,2.473,0.416,3.108,1.248
			c0.397,0.527,0.591,1.096,0.579,1.705h-1.494c-0.03-0.355-0.159-0.679-0.387-0.971c-0.372-0.413-1.017-0.62-1.935-0.62
			c-0.612,0-1.075,0.114-1.39,0.342s-0.472,0.528-0.472,0.901c0,0.409,0.207,0.736,0.621,0.981c0.239,0.146,0.591,0.274,1.057,0.386
			l1.066,0.255c1.158,0.275,1.934,0.542,2.328,0.8c0.615,0.404,0.923,1.04,0.923,1.907c0,0.838-0.322,1.562-0.965,2.171
			c-0.644,0.609-1.624,0.914-2.941,0.914c-1.418,0-2.422-0.318-3.012-0.954c-0.59-0.635-0.906-1.422-0.948-2.359H105.983z"/>
		<path d="M114.197,214.912c0.404-0.07,0.688-0.356,0.853-0.856c0.088-0.265,0.132-0.521,0.132-0.769
			c0-0.041-0.001-0.078-0.004-0.11s-0.01-0.069-0.022-0.11h-0.958v-1.916h1.881v1.775c0,0.697-0.141,1.31-0.422,1.837
			s-0.768,0.853-1.459,0.976V214.912z"/>
	</g>
</g>
<g>
	<path d="M26.768,221.756h5.161c1.752,0,3.111,0.63,4.076,1.89c0.862,1.137,1.292,2.593,1.292,4.368c0,1.371-0.254,2.61-0.763,3.718
		c-0.896,1.957-2.438,2.936-4.623,2.936h-5.143V221.756z M31.585,233.173c0.579,0,1.054-0.062,1.427-0.185
		c0.665-0.229,1.208-0.668,1.633-1.318c0.338-0.521,0.582-1.189,0.73-2.004c0.086-0.486,0.129-0.938,0.129-1.354
		c0-1.6-0.311-2.842-0.933-3.727s-1.623-1.327-3.003-1.327h-3.034v9.914H31.585z"/>
	<path d="M39.477,221.756h1.608v1.793h-1.608V221.756z M39.477,225.298h1.608v9.369h-1.608V225.298z"/>
	<path d="M44.416,231.714c0.048,0.527,0.182,0.932,0.404,1.213c0.406,0.51,1.112,0.765,2.117,0.765c0.598,0,1.125-0.128,1.579-0.382
		c0.455-0.256,0.682-0.649,0.682-1.183c0-0.404-0.182-0.712-0.545-0.923c-0.232-0.129-0.691-0.278-1.375-0.448L46,230.439
		c-0.816-0.199-1.417-0.422-1.804-0.668c-0.691-0.428-1.036-1.02-1.036-1.775c0-0.891,0.325-1.611,0.975-2.162
		c0.65-0.551,1.525-0.826,2.624-0.826c1.437,0,2.473,0.416,3.108,1.248c0.397,0.527,0.591,1.096,0.579,1.705h-1.494
		c-0.03-0.355-0.159-0.679-0.387-0.971c-0.372-0.413-1.017-0.62-1.935-0.62c-0.612,0-1.075,0.114-1.39,0.342
		s-0.472,0.528-0.472,0.901c0,0.409,0.207,0.736,0.621,0.981c0.239,0.146,0.591,0.274,1.057,0.386l1.066,0.255
		c1.158,0.275,1.934,0.542,2.328,0.8c0.615,0.404,0.923,1.04,0.923,1.907c0,0.838-0.322,1.562-0.965,2.171
		c-0.644,0.609-1.624,0.914-2.941,0.914c-1.418,0-2.422-0.318-3.012-0.954c-0.59-0.635-0.906-1.422-0.948-2.359H44.416z"/>
	<path d="M58.694,225.755c0.665,0.516,1.065,1.403,1.2,2.663h-1.538c-0.094-0.58-0.308-1.062-0.642-1.446
		c-0.334-0.383-0.87-0.575-1.608-0.575c-1.008,0-1.729,0.491-2.162,1.475c-0.281,0.638-0.422,1.425-0.422,2.361
		c0,0.942,0.199,1.735,0.598,2.379c0.398,0.645,1.025,0.966,1.881,0.966c0.656,0,1.176-0.2,1.56-0.6s0.649-0.947,0.795-1.642h1.538
		c-0.176,1.248-0.615,2.161-1.318,2.737c-0.703,0.578-1.603,0.866-2.698,0.866c-1.23,0-2.212-0.449-2.944-1.349
		s-1.099-2.023-1.099-3.371c0-1.652,0.401-2.938,1.204-3.858s1.825-1.38,3.067-1.38C57.166,224.981,58.029,225.239,58.694,225.755z"
		/>
	<path d="M61.52,225.254h1.503v1.626c0.123-0.316,0.425-0.701,0.905-1.156c0.48-0.453,1.034-0.681,1.661-0.681
		c0.029,0,0.079,0.003,0.149,0.009s0.19,0.018,0.36,0.035v1.67c-0.094-0.018-0.18-0.029-0.259-0.035s-0.166-0.009-0.259-0.009
		c-0.797,0-1.409,0.257-1.837,0.769c-0.428,0.514-0.642,1.104-0.642,1.771v5.414H61.52V225.254z"/>
	<path d="M73.104,225.513c0.623,0.314,1.098,0.72,1.424,1.218c0.314,0.475,0.524,1.028,0.629,1.661
		c0.093,0.434,0.14,1.125,0.14,2.074H68.45c0.029,0.958,0.253,1.727,0.671,2.305c0.419,0.579,1.067,0.868,1.945,0.868
		c0.82,0,1.474-0.273,1.962-0.821c0.273-0.317,0.467-0.686,0.581-1.104h1.556c-0.041,0.346-0.177,0.731-0.409,1.156
		s-0.49,0.771-0.774,1.041c-0.477,0.469-1.067,0.785-1.771,0.949c-0.378,0.094-0.805,0.141-1.282,0.141
		c-1.165,0-2.151-0.426-2.961-1.279c-0.809-0.852-1.214-2.046-1.214-3.581c0-1.512,0.408-2.739,1.223-3.683
		c0.815-0.943,1.881-1.415,3.197-1.415C71.837,225.043,72.48,225.2,73.104,225.513z M73.67,229.209
		c-0.064-0.686-0.212-1.233-0.444-1.644c-0.43-0.762-1.148-1.143-2.153-1.143c-0.72,0-1.325,0.263-1.813,0.787
		c-0.488,0.524-0.747,1.19-0.775,1.999H73.67z"/>
	<path d="M77.617,222.626h1.6v2.628h1.503v1.292h-1.503v6.144c0,0.328,0.111,0.548,0.334,0.659c0.123,0.064,0.328,0.097,0.615,0.097
		c0.076,0,0.158-0.002,0.246-0.006s0.19-0.014,0.308-0.029v1.257c-0.182,0.053-0.371,0.091-0.567,0.114s-0.409,0.035-0.637,0.035
		c-0.738,0-1.239-0.188-1.503-0.567c-0.264-0.377-0.396-0.868-0.396-1.472v-6.231h-1.274v-1.292h1.274V222.626z"/>
	<path d="M88.008,225.513c0.623,0.314,1.098,0.72,1.424,1.218c0.314,0.475,0.524,1.028,0.629,1.661
		c0.093,0.434,0.14,1.125,0.14,2.074h-6.847c0.029,0.958,0.253,1.727,0.671,2.305c0.419,0.579,1.067,0.868,1.945,0.868
		c0.82,0,1.474-0.273,1.962-0.821c0.273-0.317,0.467-0.686,0.581-1.104h1.556c-0.041,0.346-0.177,0.731-0.409,1.156
		s-0.49,0.771-0.774,1.041c-0.477,0.469-1.067,0.785-1.771,0.949c-0.378,0.094-0.805,0.141-1.282,0.141
		c-1.165,0-2.151-0.426-2.961-1.279c-0.809-0.852-1.214-2.046-1.214-3.581c0-1.512,0.408-2.739,1.223-3.683
		c0.815-0.943,1.881-1.415,3.197-1.415C86.741,225.043,87.384,225.2,88.008,225.513z M88.574,229.209
		c-0.064-0.686-0.212-1.233-0.444-1.644c-0.43-0.762-1.148-1.143-2.153-1.143c-0.72,0-1.325,0.263-1.813,0.787
		c-0.488,0.524-0.747,1.19-0.775,1.999H88.574z"/>
</g>
</svg>
