<?xml version="1.0" encoding="UTF-8" standalone="no"?>
<!-- Created with Inkscape (http://www.inkscape.org/) -->

<svg
   xmlns:dc="http://purl.org/dc/elements/1.1/"
   xmlns:cc="http://creativecommons.org/ns#"
   xmlns:rdf="http://www.w3.org/1999/02/22-rdf-syntax-ns#"
   xmlns:svg="http://www.w3.org/2000/svg"
   xmlns="http://www.w3.org/2000/svg"
   xmlns:sodipodi="http://sodipodi.sourceforge.net/DTD/sodipodi-0.dtd"
   xmlns:inkscape="http://www.inkscape.org/namespaces/inkscape"
   width="430"
   height="30"
   id="svg5814"
   version="1.1"
   inkscape:version="0.48.4 r9939"
   sodipodi:docname="eq1.svg">
  <defs
     id="defs5816" />
  <sodipodi:namedview
     id="base"
     pagecolor="#ffffff"
     bordercolor="#666666"
     borderopacity="1.0"
     inkscape:pageopacity="0.0"
     inkscape:pageshadow="2"
     inkscape:zoom="0.98994949"
     inkscape:cx="133.26125"
     inkscape:cy="65.883887"
     inkscape:document-units="px"
     inkscape:current-layer="layer1"
     showgrid="false"
     inkscape:window-width="1125"
     inkscape:window-height="740"
     inkscape:window-x="75"
     inkscape:window-y="75"
     inkscape:window-maximized="0"
     showguides="true"
     inkscape:guide-bbox="true">
    <sodipodi:guide
       orientation="0,1"
       position="50.12882,4.5456865"
       id="guide6211" />
    <sodipodi:guide
       orientation="0,1"
       position="-17.551401,8.9651039"
       id="guide6213" />
  </sodipodi:namedview>
  <metadata
     id="metadata5819">
    <rdf:RDF>
      <cc:Work
         rdf:about="">
        <dc:format>image/svg+xml</dc:format>
        <dc:type
           rdf:resource="http://purl.org/dc/dcmitype/StillImage" />
      </cc:Work>
    </rdf:RDF>
  </metadata>
  <g
     inkscape:label="Layer 1"
     inkscape:groupmode="layer"
     id="layer1"
     transform="translate(0,-1022.3622)">
    <g
       id="g5826"
       transform="translate(-51.439194,1025.6544)">
      <g
         style="font-size:17.54999924px;font-style:normal;font-weight:normal;text-align:start;text-anchor:start;fill:#000000;font-family:Cambria Math"
         id="text5828">
        <path
           d="m 77.638417,17.658169 0.09426,-0.419898 c 0.337054,-0.02856 0.588421,-0.15996 0.754102,-0.394189 0.165666,-0.234228 0.248503,-0.645555 0.248511,-1.233984 -8e-6,-0.222801 -0.0086,-0.465598 -0.02571,-0.728394 l -0.05999,-1.105444 -3.770507,0 -0.471314,0.839795 c -0.222806,0.394192 -0.385623,0.73268 -0.488452,1.015466 -0.102835,0.28279 -0.154251,0.532728 -0.154248,0.749817 -3e-6,0.479883 0.288498,0.765528 0.865503,0.856933 l -0.09426,0.419898 -3.504858,0 0.09426,-0.419898 c 0.177099,-0.02285 0.344201,-0.09283 0.501306,-0.209948 0.157104,-0.117114 0.324206,-0.294213 0.501306,-0.531299 0.177098,-0.237084 0.425609,-0.629845 0.745532,-1.178284 l 5.492944,-9.4948236 1.29397,0 0.616992,9.5548096 c 0.02855,0.45132 0.07997,0.80409 0.154248,1.058312 0.07426,0.254225 0.175662,0.44275 0.304212,0.565577 0.12853,0.122827 0.315627,0.201379 0.561291,0.235656 l -0.09426,0.419898 z m -2.373706,-4.627441 3.35061,0 -0.145679,-2.759326 c -0.01715,-0.3770435 -0.03143,-0.8483565 -0.04285,-1.4139408 -0.01143,-0.5655668 -0.01715,-0.9740381 -0.01714,-1.225415 l -0.09426,0 z"
           style="font-size:17.54999924px;font-style:normal;font-weight:normal;text-align:start;text-anchor:start;fill:#000000;font-family:Cambria Math"
           id="path6070"
           inkscape:connector-curvature="0" />
      </g>
      <g
         style="font-size:12.44999981px;font-style:normal;font-weight:normal;text-align:start;text-anchor:start;fill:#000000;font-family:Cambria Math"
         id="text5830">
        <path
           d="m 86.740623,15.40519 c 0.628251,6e-6 1.112463,0.182298 1.452637,0.546875 0.340164,0.364589 0.510248,0.891932 0.510254,1.582031 -6e-6,0.504561 -0.08627,1.071781 -0.258789,1.70166 -0.172532,0.629885 -0.422369,1.175132 -0.749512,1.635742 -0.327153,0.460613 -0.700688,0.802409 -1.120605,1.025391 -0.419926,0.222982 -0.859378,0.334472 -1.31836,0.334472 -0.654298,0 -1.150717,-0.182291 -1.489257,-0.546875 -0.338543,-0.364582 -0.507813,-0.885415 -0.507813,-1.5625 0,-0.488278 0.08219,-1.040036 0.246582,-1.655273 0.164387,-0.61523 0.402017,-1.158036 0.712891,-1.628418 0.31087,-0.470372 0.681964,-0.826817 1.113281,-1.069336 0.431312,-0.242506 0.900875,-0.363763 1.408691,-0.363769 z m 1.035157,1.923828 c -5e-6,-0.996088 -0.362961,-1.494135 -1.088867,-1.494141 -0.351567,6e-6 -0.679529,0.125332 -0.983887,0.375977 -0.304365,0.250656 -0.571292,0.608729 -0.800781,1.074218 -0.229495,0.4655 -0.407717,0.976567 -0.534668,1.533203 -0.126955,0.556644 -0.190432,1.04818 -0.19043,1.47461 -2e-6,1.00586 0.366209,1.508789 1.098633,1.508789 0.44596,0 0.855302,-0.205078 1.228027,-0.615234 0.372717,-0.410155 0.677893,-0.985513 0.915527,-1.726075 0.237626,-0.740556 0.356441,-1.451005 0.356446,-2.131347 z"
           style="font-size:10px"
           id="path6073"
           inkscape:connector-curvature="0" />
        <path
           d="m 90.695702,19.067299 c 0.06836,-0.299476 0.102537,-0.545244 0.102539,-0.737305 -2e-6,-0.130204 -0.02116,-0.224605 -0.06348,-0.283203 -0.04232,-0.05859 -0.109051,-0.08789 -0.200195,-0.08789 -0.100913,5e-6 -0.207521,0.04151 -0.319824,0.124512 -0.112306,0.08301 -0.266114,0.233565 -0.461426,0.45166 l -0.278321,-0.273437 c 0.292969,-0.305986 0.541178,-0.526526 0.744629,-0.661621 0.20345,-0.135087 0.428873,-0.202632 0.67627,-0.202637 0.201821,5e-6 0.36214,0.06674 0.480957,0.200195 0.118813,0.133468 0.17822,0.310877 0.178223,0.532227 -3e-6,0.182295 -0.03744,0.374352 -0.112305,0.576172 l 0.05859,0.01953 c 0.60221,-0.882157 1.201168,-1.323237 1.796875,-1.323242 0.354813,5e-6 0.630692,0.135096 0.827636,0.405273 0.196936,0.270187 0.295405,0.651046 0.295411,1.142578 -6e-6,0.537112 -0.108241,1.065269 -0.324707,1.584473 -0.216476,0.519207 -0.516769,0.93099 -0.900879,1.235352 -0.384118,0.304362 -0.813806,0.456542 -1.289063,0.456543 -0.432945,-1e-6 -0.792645,-0.0944 -1.079101,-0.283204 l -0.22461,1.069336 c -0.04883,0.231119 -0.07324,0.421549 -0.07324,0.571289 -10e-7,0.143228 0.03662,0.244953 0.109863,0.305176 0.07324,0.06022 0.215656,0.100096 0.427246,0.119629 l -0.03906,0.239258 -1.508789,0 z m 0.493164,1.381836 c -0.03255,0.172527 -0.0529,0.304363 -0.06104,0.395508 -0.0081,0.09115 -0.01221,0.180665 -0.01221,0.268554 -10e-7,0.253907 0.05452,0.43864 0.163575,0.5542 0.109047,0.11556 0.297035,0.17334 0.563965,0.173339 0.166013,1e-6 0.319007,-0.03255 0.458984,-0.09766 0.139971,-0.0651 0.27262,-0.159505 0.397949,-0.283203 0.125322,-0.123697 0.238441,-0.273437 0.339356,-0.449219 0.100907,-0.17578 0.191239,-0.380044 0.270996,-0.612793 0.07975,-0.232745 0.13997,-0.472003 0.180664,-0.717773 0.04069,-0.245766 0.06103,-0.476071 0.06104,-0.690918 -4e-6,-0.341793 -0.04802,-0.596513 -0.144043,-0.76416 -0.09603,-0.167639 -0.248213,-0.251461 -0.456543,-0.251465 -0.166019,4e-6 -0.329593,0.05616 -0.490723,0.168457 -0.161135,0.112309 -0.33773,0.292159 -0.529785,0.539551 -0.19206,0.247399 -0.341799,0.491539 -0.449219,0.732422 -0.107423,0.240887 -0.192059,0.51758 -0.253906,0.830078 z"
           style="font-size:10px"
           id="path6075"
           inkscape:connector-curvature="0" />
        <path
           d="m 99.030663,21.176674 c -0.315759,0.348308 -0.635583,0.610352 -0.959473,0.786133 -0.323896,0.175781 -0.700686,0.263671 -1.130371,0.263672 -0.472007,-1e-6 -0.837404,-0.144043 -1.096192,-0.432129 -0.258789,-0.288086 -0.388184,-0.68929 -0.388183,-1.203614 -1e-6,-0.348305 0.06266,-0.72184 0.187988,-1.120605 0.125325,-0.39876 0.31494,-0.756833 0.568848,-1.074219 0.253904,-0.317379 0.558266,-0.563147 0.913086,-0.737305 0.354815,-0.174148 0.732419,-0.261225 1.132812,-0.26123 0.393877,5e-6 0.689287,0.07976 0.886231,0.239258 0.196935,0.159509 0.295405,0.408533 0.29541,0.74707 -5e-6,0.553389 -0.259607,0.968427 -0.778809,1.245117 -0.519209,0.276695 -1.289879,0.415041 -2.312012,0.415039 -0.03906,0.195315 -0.05859,0.406903 -0.05859,0.634766 -2e-6,0.341798 0.06673,0.590007 0.200195,0.744629 0.133462,0.154623 0.351561,0.231934 0.654297,0.231934 0.299477,0 0.570472,-0.0651 0.812988,-0.195313 0.24251,-0.130208 0.498857,-0.330403 0.769043,-0.600586 z m -2.597657,-1.547852 c 0.458983,-0.0033 0.852863,-0.04476 1.181641,-0.124511 0.328773,-0.07975 0.581051,-0.206703 0.756836,-0.38086 0.175777,-0.17415 0.263668,-0.409339 0.263672,-0.705566 -4e-6,-0.198564 -0.04639,-0.354 -0.13916,-0.466309 -0.09278,-0.1123 -0.23031,-0.168452 -0.412598,-0.168457 -0.328779,5e-6 -0.645348,0.16602 -0.949707,0.498047 -0.304364,0.332035 -0.537925,0.781253 -0.700684,1.347656 z"
           style="font-size:10px"
           id="path6077"
           inkscape:connector-curvature="0" />
        <path
           d="m 101.23769,19.05265 c 0.0716,-0.312496 0.10742,-0.553381 0.10743,-0.722656 -10e-6,-0.130204 -0.0212,-0.224605 -0.0635,-0.283203 -0.0423,-0.05859 -0.10905,-0.08789 -0.2002,-0.08789 -0.10091,5e-6 -0.20752,0.04151 -0.31982,0.124512 -0.11231,0.08301 -0.26611,0.233565 -0.46143,0.45166 l -0.27832,-0.273437 c 0.29948,-0.312496 0.54851,-0.534664 0.74707,-0.666504 0.19857,-0.131831 0.42318,-0.197749 0.67383,-0.197754 0.20508,5e-6 0.36702,0.06755 0.48584,0.202637 0.11881,0.135095 0.17822,0.31169 0.17822,0.529785 0,0.17253 -0.0391,0.364587 -0.11718,0.576172 l 0.0586,0.01953 c 0.31901,-0.449215 0.62256,-0.78206 0.91065,-0.998535 0.28808,-0.216467 0.58512,-0.324702 0.89111,-0.324707 0.30273,5e-6 0.53548,0.08708 0.69824,0.26123 0.16276,0.174158 0.24414,0.415857 0.24414,0.725098 0,0.205082 -0.0472,0.496422 -0.1416,0.874023 l -0.31738,1.279297 c -0.0879,0.354819 -0.13184,0.60547 -0.13184,0.751953 0,0.130209 0.0212,0.22461 0.0635,0.283204 0.0423,0.05859 0.10904,0.08789 0.20019,0.08789 0.0977,1e-6 0.20182,-0.03988 0.3125,-0.119629 0.11067,-0.07975 0.26692,-0.231933 0.46875,-0.456543 l 0.27832,0.273438 c -0.27995,0.299479 -0.52409,0.518392 -0.73242,0.656738 -0.20834,0.138346 -0.44597,0.207519 -0.71289,0.20752 -0.21159,-1e-6 -0.38086,-0.07568 -0.50781,-0.227051 -0.12696,-0.151367 -0.19044,-0.344238 -0.19043,-0.578613 -1e-5,-0.211588 0.0537,-0.52246 0.16113,-0.932618 l 0.21485,-0.844726 c 0.0781,-0.305987 0.12939,-0.532224 0.1538,-0.678711 0.0244,-0.146481 0.0366,-0.265296 0.0366,-0.356445 0,-0.224606 -0.0374,-0.386553 -0.1123,-0.48584 -0.0749,-0.09928 -0.19694,-0.148922 -0.36621,-0.148926 -0.13672,4e-6 -0.28402,0.05453 -0.4419,0.163574 -0.15788,0.109053 -0.32552,0.273441 -0.50293,0.493164 -0.17741,0.21973 -0.31982,0.432946 -0.42724,0.639649 -0.10743,0.206708 -0.19532,0.461428 -0.26367,0.76416 l -0.46387,2.114258 -0.84473,0 z"
           style="font-size:10px"
           id="path6079"
           inkscape:connector-curvature="0" />
      </g>
      <g
         style="font-size:12.44999981px;font-style:normal;font-weight:normal;text-align:start;text-anchor:start;fill:#000000;font-family:Cambria Math"
         id="text5832" />
      <g
         style="font-size:12.44999981px;font-style:normal;font-weight:normal;text-align:start;text-anchor:start;fill:#000000;font-family:Cambria Math"
         id="text5834">
        <path
           d="m 109.26987,21.870033 c 0.1237,-0.01953 0.21648,-0.05127 0.27832,-0.09521 0.0618,-0.04395 0.11394,-0.10498 0.15625,-0.183105 0.0423,-0.07812 0.0814,-0.173339 0.11719,-0.285645 0.0358,-0.112303 0.0895,-0.329588 0.16114,-0.651855 l 0.83007,-3.759766 c 0.0716,-0.325515 0.10742,-0.587559 0.10743,-0.786132 -1e-5,-0.152989 -0.0383,-0.259597 -0.11475,-0.319825 -0.0765,-0.06021 -0.19776,-0.09521 -0.36377,-0.10498 l 0.0537,-0.239258 1.95313,0 -0.0537,0.239258 c -0.1237,0.02605 -0.2124,0.05534 -0.26611,0.08789 -0.0537,0.03256 -0.10173,0.08139 -0.14404,0.146485 -0.0423,0.06511 -0.0863,0.166835 -0.13184,0.305176 -0.0456,0.138352 -0.10254,0.363775 -0.1709,0.676269 l -1.04492,4.760742 1.20117,0 c 0.2181,10e-7 0.38981,-0.02116 0.51514,-0.06348 0.12532,-0.04232 0.24414,-0.119629 0.35645,-0.231934 0.1123,-0.112304 0.22216,-0.264484 0.32959,-0.456543 0.10741,-0.192056 0.21646,-0.431313 0.32714,-0.717773 l 0.47364,0 -0.49317,1.918945 -4.13086,0 z"
           style="font-size:10px"
           id="path6083"
           inkscape:connector-curvature="0" />
        <path
           d="m 116.37925,22.192299 c -0.50456,0 -0.896,-0.141602 -1.17432,-0.424805 -0.27832,-0.283202 -0.41748,-0.690103 -0.41748,-1.220703 0,-0.260415 0.0391,-0.561521 0.11719,-0.90332 0.10091,-0.462237 0.27018,-0.865882 0.50781,-1.210938 0.23763,-0.345048 0.5306,-0.609533 0.87891,-0.793457 0.3483,-0.183914 0.73079,-0.275874 1.14746,-0.275879 0.52083,5e-6 0.91796,0.14242 1.19141,0.427246 0.27343,0.284835 0.41015,0.69255 0.41015,1.223145 0,0.377607 -0.0659,0.781252 -0.19775,1.210937 -0.13184,0.429689 -0.31251,0.791017 -0.54199,1.083985 -0.2295,0.292969 -0.50375,0.513509 -0.82276,0.661621 -0.31901,0.148112 -0.68522,0.222168 -1.09863,0.222168 z m -0.73731,-1.435547 c 0,0.358074 0.0741,0.622559 0.22217,0.793457 0.14811,0.170899 0.37191,0.256348 0.67139,0.256348 0.31901,0 0.60221,-0.143229 0.84961,-0.429688 0.24739,-0.286457 0.4427,-0.687661 0.58594,-1.203613 0.14322,-0.515948 0.21484,-0.969235 0.21484,-1.359863 0,-0.351559 -0.0684,-0.616045 -0.20508,-0.793457 -0.13672,-0.177405 -0.34994,-0.266109 -0.63965,-0.266114 -0.33854,5e-6 -0.63395,0.141606 -0.88623,0.424805 -0.25228,0.283207 -0.45084,0.68848 -0.5957,1.21582 -0.14486,0.527346 -0.21729,0.981447 -0.21729,1.362305 z"
           style="font-size:10px"
           id="path6085"
           inkscape:connector-curvature="0" />
        <path
           d="m 121.71128,22.192299 c -0.50456,0 -0.896,-0.141602 -1.17432,-0.424805 -0.27832,-0.283202 -0.41748,-0.690103 -0.41748,-1.220703 0,-0.260415 0.0391,-0.561521 0.11719,-0.90332 0.10091,-0.462237 0.27018,-0.865882 0.50781,-1.210938 0.23763,-0.345048 0.5306,-0.609533 0.87891,-0.793457 0.34831,-0.183914 0.73079,-0.275874 1.14746,-0.275879 0.52083,5e-6 0.91797,0.14242 1.19141,0.427246 0.27343,0.284835 0.41015,0.69255 0.41015,1.223145 0,0.377607 -0.0659,0.781252 -0.19775,1.210937 -0.13184,0.429689 -0.3125,0.791017 -0.54199,1.083985 -0.2295,0.292969 -0.50375,0.513509 -0.82276,0.661621 -0.31901,0.148112 -0.68522,0.222168 -1.09863,0.222168 z m -0.7373,-1.435547 c -1e-5,0.358074 0.074,0.622559 0.22216,0.793457 0.14811,0.170899 0.37191,0.256348 0.67139,0.256348 0.31901,0 0.60221,-0.143229 0.84961,-0.429688 0.24739,-0.286457 0.4427,-0.687661 0.58594,-1.203613 0.14322,-0.515948 0.21484,-0.969235 0.21484,-1.359863 0,-0.351559 -0.0684,-0.616045 -0.20508,-0.793457 -0.13672,-0.177405 -0.34993,-0.266109 -0.63965,-0.266114 -0.33854,5e-6 -0.63395,0.141606 -0.88623,0.424805 -0.25228,0.283207 -0.45084,0.68848 -0.5957,1.21582 -0.14486,0.527346 -0.21729,0.981447 -0.21728,1.362305 z"
           style="font-size:10px"
           id="path6087"
           inkscape:connector-curvature="0" />
        <path
           d="m 126.2523,19.028236 c 0.0683,-0.299475 0.10253,-0.545243 0.10254,-0.737304 -10e-6,-0.130205 -0.0212,-0.224606 -0.0635,-0.283203 -0.0423,-0.05859 -0.10905,-0.08789 -0.2002,-0.08789 -0.10091,4e-6 -0.20752,0.04151 -0.31982,0.124512 -0.11231,0.08301 -0.26611,0.233565 -0.46143,0.45166 l -0.27832,-0.273438 c 0.29297,-0.305985 0.54118,-0.526525 0.74463,-0.661621 0.20345,-0.135086 0.42887,-0.202632 0.67627,-0.202636 0.20182,4e-6 0.36214,0.06674 0.48096,0.200195 0.11881,0.133468 0.17822,0.310876 0.17822,0.532226 0,0.182296 -0.0374,0.374353 -0.1123,0.576172 l 0.0586,0.01953 c 0.60221,-0.882158 1.20117,-1.323238 1.79688,-1.323243 0.35481,5e-6 0.63069,0.135096 0.82763,0.405274 0.19694,0.270186 0.29541,0.651045 0.29541,1.142578 0,0.537112 -0.10824,1.065269 -0.3247,1.584473 -0.21648,0.519206 -0.51677,0.93099 -0.90088,1.235351 -0.38412,0.304362 -0.81381,0.456543 -1.28907,0.456543 -0.43294,0 -0.79264,-0.0944 -1.0791,-0.283203 l -0.22461,1.069336 c -0.0488,0.231119 -0.0732,0.421548 -0.0732,0.571289 0,0.143228 0.0366,0.244953 0.10986,0.305176 0.0732,0.06022 0.21566,0.100096 0.42725,0.119629 l -0.0391,0.239257 -1.50879,0 z m 0.49316,1.381836 c -0.0326,0.172528 -0.0529,0.304364 -0.061,0.395508 -0.008,0.09115 -0.0122,0.180665 -0.0122,0.268555 0,0.253907 0.0545,0.43864 0.16357,0.554199 0.10905,0.11556 0.29704,0.17334 0.56397,0.17334 0.16601,0 0.319,-0.03255 0.45898,-0.09766 0.13997,-0.0651 0.27262,-0.159505 0.39795,-0.283203 0.12532,-0.123698 0.23844,-0.273437 0.33936,-0.449219 0.1009,-0.17578 0.19124,-0.380044 0.27099,-0.612793 0.0797,-0.232746 0.13997,-0.472003 0.18067,-0.717774 0.0407,-0.245765 0.061,-0.476071 0.061,-0.690918 0,-0.341793 -0.048,-0.596513 -0.14404,-0.76416 -0.096,-0.167639 -0.24821,-0.25146 -0.45654,-0.251465 -0.16602,5e-6 -0.3296,0.05616 -0.49073,0.168457 -0.16113,0.112309 -0.33773,0.292159 -0.52978,0.539551 -0.19206,0.247399 -0.3418,0.49154 -0.44922,0.732422 -0.10742,0.240888 -0.19206,0.51758 -0.25391,0.830078 z"
           style="font-size:10px"
           id="path6089"
           inkscape:connector-curvature="0" />
      </g>
      <g
         style="font-size:12.44999981px;font-style:normal;font-weight:normal;text-align:start;text-anchor:start;fill:#000000;font-family:Cambria Math"
         id="text5836" />
      <g
         style="font-size:12.44999981px;font-style:normal;font-weight:normal;text-align:start;text-anchor:start;fill:#000000;font-family:Cambria Math"
         id="text5838"
         transform="translate(-0.12626907,-1.0101525)">
        <path
           d="m 138.18094,21.594154 c 0.0716,-0.305987 0.10742,-0.568031 0.10742,-0.786132 0,-0.152993 -0.0383,-0.259601 -0.11475,-0.319825 -0.0765,-0.06022 -0.19775,-0.09521 -0.36377,-0.10498 l 0.0537,-0.239258 1.95312,0 -0.0537,0.239258 c -0.1237,0.02604 -0.21322,0.05534 -0.26855,0.08789 -0.0554,0.03255 -0.10499,0.0822 -0.14893,0.148926 -0.044,0.06674 -0.0871,0.16846 -0.1294,0.305176 -0.0423,0.136721 -0.0977,0.36133 -0.16601,0.673828 l -0.33691,1.533203 -0.38575,0.107422 -0.2539,-0.385742 c -0.33855,0.159505 -0.60548,0.262858 -0.80078,0.310059 -0.19532,0.0472 -0.39389,0.0708 -0.59571,0.0708 -0.61198,0 -1.07747,-0.175781 -1.39648,-0.527343 -0.31901,-0.351562 -0.47852,-0.865884 -0.47852,-1.542969 0,-0.485024 0.0814,-1.029457 0.24414,-1.633301 0.16276,-0.603837 0.39958,-1.143387 0.71045,-1.618652 0.31087,-0.475255 0.68685,-0.843907 1.12793,-1.105957 0.44108,-0.262038 0.92855,-0.39306 1.4624,-0.393067 0.30924,7e-6 0.59245,0.01872 0.84961,0.05615 0.25716,0.03744 0.53874,0.104987 0.84473,0.202636 l -0.29785,1.313477 -0.46875,0 c -0.0293,-0.406896 -0.11882,-0.69905 -0.26856,-0.876465 -0.14974,-0.177403 -0.39388,-0.266107 -0.73242,-0.266113 -0.27344,6e-6 -0.52897,0.06999 -0.7666,0.209961 -0.23763,0.13998 -0.46306,0.349127 -0.67627,0.627441 -0.21322,0.278326 -0.40527,0.629074 -0.57617,1.052246 -0.1709,0.423181 -0.30355,0.864262 -0.39795,1.323242 -0.0944,0.458987 -0.1416,0.890302 -0.1416,1.293946 0,0.507814 0.0871,0.878093 0.26123,1.11084 0.17415,0.232747 0.44677,0.349121 0.81787,0.349121 0.13346,0 0.27018,-0.01546 0.41016,-0.04639 0.13997,-0.03092 0.27099,-0.08382 0.39306,-0.158691 0.12207,-0.07487 0.2303,-0.175781 0.32471,-0.302735 0.0944,-0.126952 0.16276,-0.286457 0.20508,-0.478515 z"
           style="font-size:10px"
           id="path6093"
           inkscape:connector-curvature="0" />
        <path
           d="m 144.64578,18.727943 0.44922,-0.322265 0.3125,0.07813 -0.71777,3.095703 c -0.0716,0.309246 -0.10743,0.550131 -0.10742,0.722656 -1e-5,0.130209 0.0212,0.22461 0.0635,0.283203 0.0423,0.0586 0.10905,0.08789 0.2002,0.08789 0.0977,0 0.20182,-0.03988 0.3125,-0.119629 0.11067,-0.07975 0.26692,-0.231933 0.46875,-0.456543 l 0.27832,0.273438 c -0.29298,0.3125 -0.54281,0.534668 -0.74951,0.666503 -0.20671,0.131836 -0.43051,0.197754 -0.67139,0.197754 -0.20183,0 -0.36296,-0.06673 -0.4834,-0.200195 -0.12044,-0.133463 -0.18067,-0.310872 -0.18066,-0.532227 -1e-5,-0.179035 0.0374,-0.369465 0.1123,-0.571289 l -0.0635,-0.01953 c -0.31251,0.45573 -0.60873,0.789389 -0.88868,1.000977 -0.27995,0.211588 -0.57617,0.317382 -0.88867,0.317383 -0.35807,-10e-7 -0.63558,-0.135092 -0.83252,-0.405274 -0.19694,-0.270182 -0.29541,-0.649413 -0.29541,-1.137695 0,-0.559894 0.10986,-1.097817 0.32959,-1.61377 0.21973,-0.515947 0.52165,-0.922847 0.90576,-1.220703 0.38412,-0.297847 0.81218,-0.446772 1.28418,-0.446777 0.21159,5e-6 0.40934,0.0236 0.59326,0.0708 0.18392,0.0472 0.37354,0.131026 0.56885,0.251464 z m -0.42969,1.455079 c 0.0293,-0.133461 0.0488,-0.249021 0.0586,-0.34668 0.01,-0.09765 0.0146,-0.203447 0.0147,-0.317383 -1e-5,-0.250647 -0.0537,-0.434566 -0.16114,-0.551758 -0.10742,-0.117183 -0.28971,-0.175777 -0.54687,-0.175781 -0.33529,4e-6 -0.6364,0.135095 -0.90332,0.405273 -0.26693,0.270186 -0.47526,0.632328 -0.625,1.086426 -0.14974,0.454104 -0.22461,0.907391 -0.22461,1.359863 0,0.338543 0.0464,0.591636 0.13916,0.759278 0.0928,0.167644 0.24821,0.251465 0.46631,0.251465 0.21484,0 0.42561,-0.09277 0.63232,-0.278321 0.20671,-0.185546 0.41992,-0.450031 0.63965,-0.793457 0.21972,-0.343422 0.37516,-0.739743 0.46631,-1.188965 z"
           style="font-size:10px"
           id="path6095"
           inkscape:connector-curvature="0" />
        <path
           d="m 148.77664,16.574623 -0.22461,0.947266 -0.86426,0 0.22461,-0.947266 z m -1.57226,3.291016 c 0.0749,-0.325517 0.1123,-0.569658 0.1123,-0.732422 0,-0.14648 -0.035,-0.245764 -0.10498,-0.297852 -0.07,-0.05208 -0.20752,-0.08138 -0.4126,-0.08789 l 0.0537,-0.258789 1.19141,-0.04395 0.28809,0 -0.70313,3.134766 c -0.0716,0.319012 -0.10742,0.559897 -0.10742,0.722656 0,0.130209 0.0212,0.22461 0.0635,0.283203 0.0423,0.0586 0.10904,0.08789 0.20019,0.08789 0.0977,0 0.20182,-0.03988 0.3125,-0.119629 0.11068,-0.07975 0.26693,-0.231933 0.46875,-0.456543 l 0.27832,0.273438 c -0.31901,0.335286 -0.5778,0.563151 -0.77637,0.683593 -0.19857,0.120443 -0.42155,0.180664 -0.66894,0.180664 -0.21159,0 -0.38086,-0.07731 -0.50781,-0.231933 -0.12696,-0.154622 -0.19043,-0.352376 -0.19043,-0.593262 0,-0.247395 0.0456,-0.56315 0.13672,-0.947266 z"
           style="font-size:10px"
           id="path6097"
           inkscape:connector-curvature="0" />
        <path
           d="m 150.51492,20.060951 c 0.0716,-0.312496 0.10742,-0.553382 0.10742,-0.722656 0,-0.130204 -0.0212,-0.224605 -0.0635,-0.283203 -0.0423,-0.05859 -0.10905,-0.08789 -0.2002,-0.08789 -0.10091,4e-6 -0.20752,0.04151 -0.31982,0.124512 -0.11231,0.08301 -0.26611,0.233565 -0.46143,0.45166 l -0.27832,-0.273437 c 0.29948,-0.312496 0.5485,-0.534664 0.74707,-0.666504 0.19857,-0.131832 0.42318,-0.197749 0.67383,-0.197754 0.20508,5e-6 0.36702,0.06755 0.48584,0.202637 0.11881,0.135095 0.17822,0.31169 0.17822,0.529785 0,0.17253 -0.0391,0.364587 -0.11718,0.576172 l 0.0586,0.01953 c 0.31901,-0.449215 0.62256,-0.78206 0.91064,-0.998535 0.28809,-0.216467 0.58512,-0.324703 0.89112,-0.324707 0.30273,4e-6 0.53548,0.08708 0.69824,0.26123 0.16276,0.174158 0.24414,0.415857 0.24414,0.725098 0,0.205081 -0.0472,0.496422 -0.1416,0.874023 l -0.31738,1.279297 c -0.0879,0.354819 -0.13184,0.60547 -0.13184,0.751953 0,0.130209 0.0212,0.22461 0.0635,0.283203 0.0423,0.0586 0.10904,0.08789 0.20019,0.08789 0.0977,0 0.20182,-0.03988 0.3125,-0.119629 0.11067,-0.07975 0.26692,-0.231933 0.46875,-0.456543 l 0.27832,0.273438 c -0.27995,0.299479 -0.52409,0.518392 -0.73242,0.656738 -0.20834,0.138346 -0.44597,0.207519 -0.71289,0.207519 -0.21159,0 -0.38086,-0.07568 -0.50781,-0.22705 -0.12696,-0.151367 -0.19044,-0.344238 -0.19043,-0.578614 -1e-5,-0.211587 0.0537,-0.522459 0.16113,-0.932617 l 0.21484,-0.844726 c 0.0781,-0.305987 0.12939,-0.532224 0.15381,-0.678711 0.0244,-0.146481 0.0366,-0.265296 0.0366,-0.356446 0,-0.224605 -0.0374,-0.386552 -0.1123,-0.48584 -0.0749,-0.09928 -0.19694,-0.148921 -0.36621,-0.148925 -0.13672,4e-6 -0.28402,0.05453 -0.4419,0.163574 -0.15788,0.109053 -0.32552,0.273441 -0.50293,0.493164 -0.17741,0.21973 -0.31982,0.432946 -0.42724,0.639648 -0.10743,0.206709 -0.19532,0.461429 -0.26367,0.764161 l -0.46387,2.114257 -0.84473,0 z"
           style="font-size:10px"
           id="path6099"
           inkscape:connector-curvature="0" />
      </g>
      <g
         style="font-size:17.54999924px;font-style:normal;font-weight:normal;text-align:start;text-anchor:start;fill:#000000;font-family:Cambria Math"
         id="text5840">
        <path
           d="m 168.86822,13.963401 -0.55701,0.951196 -2.20232,-1.55105 0.24851,2.682202 -1.13115,0 0.25708,-2.682202 -2.21089,1.55105 -0.56558,-0.951196 2.45083,-1.148291 -2.45083,-1.139722 0.56558,-0.959765 2.21089,1.551049 -0.25708,-2.6822017 1.13115,0 -0.24851,2.6822017 2.20232,-1.551049 0.55701,0.959765 -2.44227,1.139722 z"
           style="font-size:17.54999924px;font-style:normal;font-weight:normal;text-align:start;text-anchor:start;fill:#000000;font-family:Cambria Math"
           id="path6102"
           inkscape:connector-curvature="0" />
      </g>
      <g
         style="font-size:17.54999924px;font-style:normal;font-weight:normal;text-align:start;text-anchor:start;fill:#000000;font-family:Cambria Math"
         id="text5842">
        <path
           d="m 181.17679,3.0759856 c -1.38253,0.5198874 -2.42941,1.653895 -3.14066,3.4020262 -0.71126,1.7481542 -1.06689,3.9161942 -1.06689,6.5041262 0,2.582228 0.35563,4.745983 1.06689,6.491271 0.71125,1.745285 1.75813,2.877864 3.14066,3.397742 l -0.21424,0.702685 c -1.78242,-0.468462 -3.15637,-1.68245 -4.12185,-3.641967 -0.96548,-1.959522 -1.44822,-4.278953 -1.44821,-6.958301 -1e-5,-2.679338 0.48273,-4.9987689 1.44821,-6.9583003 0.96548,-1.9595075 2.33943,-3.1734955 4.12185,-3.6419676 z"
           style="font-size:17.54999924px;font-style:normal;font-weight:normal;text-align:start;text-anchor:start;fill:#000000;font-family:Cambria Math"
           id="path6105"
           inkscape:connector-curvature="0" />
      </g>
      <g
         style="font-size:17.54999924px;font-style:normal;font-weight:normal;text-align:start;text-anchor:start;fill:#000000;font-family:Cambria Math"
         id="text5844">
        <path
           d="m 186.25606,6.1395974 -0.0943,0.4198975 c -0.25137,0.028576 -0.44703,0.1028432 -0.58699,0.2228027 -0.13997,0.1199816 -0.23852,0.2870835 -0.29565,0.5013061 -0.0571,0.2142438 -0.0857,0.5013162 -0.0857,0.8612183 0,0.085703 0.009,0.3427827 0.0257,0.7712402 l 0.23994,6.2727538 0,0.685547 0.0857,0 3.71052,-6.6926514 c 0.21709,-0.3941804 0.3799,-0.7326688 0.48846,-1.0154663 0.10853,-0.2827781 0.16281,-0.5327168 0.16281,-0.7498169 0,-0.4798718 -0.28565,-0.7655161 -0.85693,-0.8569335 l 0.0943,-0.4198975 3.50486,0 -0.0943,0.4198975 c -0.15426,0.022863 -0.30137,0.08142 -0.44132,0.1756714 -0.13998,0.094274 -0.29708,0.251378 -0.47132,0.4713134 -0.17425,0.2199567 -0.44418,0.6441384 -0.8098,1.2725464 l -5.48437,9.4948239 -1.13972,0 -0.57415,-9.5548093 C 183.6109,8.0477126 183.5695,7.7292193 183.50955,7.4635598 183.44955,7.197921 183.3553,6.990829 183.22676,6.842283 183.09822,6.693759 182.89398,6.5994964 182.61405,6.5594949 l 0.0943,-0.4198975 z"
           style="font-size:17.54999924px;font-style:normal;font-weight:normal;text-align:start;text-anchor:start;fill:#000000;font-family:Cambria Math"
           id="path6108"
           inkscape:connector-curvature="0" />
      </g>
      <g
         style="font-size:12.44999981px;font-style:normal;font-weight:normal;text-align:start;text-anchor:start;fill:#000000;font-family:Cambria Math"
         id="text5846">
        <path
           d="m 197.3959,14.937325 -0.0537,0.239257 c -0.1237,0.02605 -0.21241,0.05535 -0.26611,0.08789 -0.0537,0.03256 -0.10173,0.08139 -0.14404,0.146484 -0.0423,0.06511 -0.0863,0.166836 -0.13184,0.305176 -0.0456,0.138352 -0.10254,0.363775 -0.1709,0.67627 l -1.14746,5.209961 -0.66406,0 -1.42578,-4.189454 c -0.17253,-0.501297 -0.3239,-1.000971 -0.4541,-1.499023 l -0.0635,0 c -0.0195,0.166021 -0.0732,0.48259 -0.16113,0.949707 -0.0879,0.467127 -0.18067,0.923669 -0.27832,1.369629 l -0.42969,1.948242 c -0.0684,0.309246 -0.10254,0.563152 -0.10254,0.761719 0,0.146485 0.0366,0.249838 0.10986,0.310058 0.0732,0.06022 0.19613,0.09684 0.36866,0.109864 l -0.0537,0.239258 -1.70899,0 0.0537,-0.239258 c 0.1237,-0.01953 0.21647,-0.05127 0.27832,-0.09521 0.0618,-0.04394 0.11393,-0.10498 0.15625,-0.183106 0.0423,-0.07812 0.0814,-0.173339 0.11719,-0.285644 0.0358,-0.112304 0.0895,-0.329589 0.16113,-0.651856 l 0.83008,-3.759765 c 0.0326,-0.139969 0.0586,-0.273432 0.0781,-0.400391 0.0195,-0.126947 0.0293,-0.255528 0.0293,-0.385742 0,-0.152989 -0.0383,-0.259597 -0.11474,-0.319824 -0.0765,-0.06021 -0.19776,-0.09521 -0.36377,-0.104981 l 0.0537,-0.239257 1.55761,0 1.28907,3.80371 c 0.18554,0.546878 0.32877,1.009117 0.42968,1.386719 l 0.0537,0 c 0.026,-0.198566 0.0854,-0.528969 0.17822,-0.991211 0.0928,-0.462236 0.17822,-0.865882 0.25635,-1.210937 l 0.34179,-1.538086 c 0.0716,-0.32226 0.10742,-0.584304 0.10742,-0.786133 0,-0.152989 -0.0383,-0.259597 -0.11474,-0.319824 -0.0765,-0.06021 -0.19776,-0.09521 -0.36377,-0.104981 l 0.0537,-0.239257 z"
           style="font-size:10px"
           id="path6111"
           inkscape:connector-curvature="0" />
        <path
           d="m 199.80313,21.685371 c -0.50456,0 -0.896,-0.141601 -1.17432,-0.424804 -0.27832,-0.283203 -0.41748,-0.690103 -0.41748,-1.220703 0,-0.260415 0.0391,-0.561522 0.11719,-0.903321 0.10091,-0.462236 0.27018,-0.865882 0.50781,-1.210937 0.23763,-0.345048 0.5306,-0.609534 0.87891,-0.793457 0.34831,-0.183915 0.73079,-0.275874 1.14746,-0.275879 0.52083,5e-6 0.91797,0.14242 1.19141,0.427246 0.27343,0.284835 0.41015,0.692549 0.41015,1.223144 0,0.377607 -0.0659,0.781253 -0.19775,1.210938 -0.13184,0.429689 -0.3125,0.791017 -0.54199,1.083984 -0.2295,0.29297 -0.50375,0.51351 -0.82276,0.661621 -0.31901,0.148112 -0.68522,0.222168 -1.09863,0.222168 z m -0.7373,-1.435546 c 0,0.358073 0.074,0.622559 0.22216,0.793457 0.14811,0.170898 0.37191,0.256348 0.67139,0.256347 0.31901,1e-6 0.60221,-0.143229 0.84961,-0.429687 0.24739,-0.286458 0.44271,-0.687662 0.58594,-1.203614 0.14322,-0.515948 0.21484,-0.969235 0.21484,-1.359863 0,-0.351559 -0.0684,-0.616044 -0.20508,-0.793457 -0.13672,-0.177404 -0.34993,-0.266109 -0.63964,-0.266113 -0.33855,4e-6 -0.63396,0.141606 -0.88624,0.424805 -0.25228,0.283206 -0.45084,0.688479 -0.5957,1.21582 -0.14486,0.527346 -0.21728,0.981447 -0.21728,1.362305 z"
           style="font-size:10px"
           id="path6113"
           inkscape:connector-curvature="0" />
        <path
           d="m 204.33926,18.50666 c 0.0716,-0.312496 0.10742,-0.553381 0.10743,-0.722656 -1e-5,-0.130204 -0.0212,-0.224605 -0.0635,-0.283203 -0.0423,-0.05859 -0.10905,-0.08789 -0.2002,-0.08789 -0.10091,5e-6 -0.20752,0.04151 -0.31982,0.124512 -0.11231,0.08301 -0.26611,0.233565 -0.46143,0.45166 l -0.27832,-0.273437 c 0.29948,-0.312496 0.54851,-0.534664 0.74707,-0.666504 0.19857,-0.131831 0.42318,-0.197749 0.67383,-0.197754 0.20508,5e-6 0.36702,0.06755 0.48584,0.202637 0.11881,0.135095 0.17822,0.31169 0.17822,0.529785 0,0.17253 -0.0391,0.364587 -0.11718,0.576172 l 0.0586,0.01953 c 0.31901,-0.449215 0.62256,-0.78206 0.91065,-0.998535 0.28808,-0.216467 0.58512,-0.324702 0.89111,-0.324707 0.30273,5e-6 0.53548,0.08708 0.69824,0.26123 0.16276,0.174158 0.24414,0.415857 0.24414,0.725098 0,0.205082 -0.0472,0.496422 -0.1416,0.874023 l -0.31738,1.279297 c -0.0879,0.354819 -0.13184,0.60547 -0.13184,0.751953 0,0.130209 0.0212,0.22461 0.0635,0.283204 0.0423,0.05859 0.10904,0.08789 0.20019,0.08789 0.0976,1e-6 0.20182,-0.03988 0.3125,-0.119629 0.11068,-0.07975 0.26692,-0.231933 0.46875,-0.456543 l 0.27832,0.273438 c -0.27995,0.299479 -0.52409,0.518392 -0.73242,0.656738 -0.20834,0.138346 -0.44597,0.20752 -0.71289,0.20752 -0.21159,0 -0.38086,-0.07568 -0.50781,-0.227051 -0.12696,-0.151367 -0.19043,-0.344238 -0.19043,-0.578613 0,-0.211588 0.0537,-0.52246 0.16113,-0.932618 l 0.21485,-0.844726 c 0.0781,-0.305987 0.12939,-0.532224 0.1538,-0.678711 0.0244,-0.146481 0.0366,-0.265296 0.0366,-0.356445 0,-0.224606 -0.0374,-0.386553 -0.1123,-0.48584 -0.0749,-0.09928 -0.19694,-0.148922 -0.36621,-0.148926 -0.13672,4e-6 -0.28402,0.05453 -0.4419,0.163574 -0.15788,0.109053 -0.32552,0.273441 -0.50292,0.493164 -0.17742,0.21973 -0.31983,0.432946 -0.42725,0.639649 -0.10743,0.206708 -0.19532,0.461428 -0.26367,0.76416 l -0.46387,2.114258 -0.84473,0 z"
           style="font-size:10px"
           id="path6115"
           inkscape:connector-curvature="0" />
      </g>
      <g
         style="font-size:12.44999981px;font-style:normal;font-weight:normal;text-align:start;text-anchor:start;fill:#000000;font-family:Cambria Math"
         id="text5848">
        <path
           d="m 210.94962,20.151283 0,-0.649414 6.01562,0 0,0.649414 z"
           style="font-size:10px"
           id="path6118"
           inkscape:connector-curvature="0" />
      </g>
      <g
         style="font-size:12.44999981px;font-style:normal;font-weight:normal;text-align:start;text-anchor:start;fill:#000000;font-family:Cambria Math"
         id="text5850">
        <path
           d="m 220.12398,20.646889 c -0.0423,0.192058 -0.07,0.344239 -0.083,0.456543 -0.013,0.112305 -0.0195,0.21403 -0.0195,0.305175 0,0.146485 0.0366,0.249838 0.10986,0.310059 0.0732,0.06022 0.19613,0.09684 0.36865,0.109863 l -0.0537,0.239258 -1.95312,0 0.0537,-0.239258 c 0.1237,-0.01953 0.21647,-0.05127 0.27832,-0.09521 0.0618,-0.04395 0.11393,-0.104981 0.15625,-0.183106 0.0423,-0.07812 0.0814,-0.173339 0.11719,-0.285644 0.0358,-0.112304 0.0895,-0.329589 0.16113,-0.651856 l 0.83008,-3.759766 c 0.0716,-0.325515 0.10742,-0.587559 0.10742,-0.786132 0,-0.152989 -0.0382,-0.259597 -0.11475,-0.319825 -0.0765,-0.06021 -0.19775,-0.09521 -0.36377,-0.10498 l 0.0537,-0.239258 1.95312,0 -0.0537,0.239258 c -0.1237,0.02605 -0.21241,0.05534 -0.26611,0.08789 -0.0537,0.03256 -0.10173,0.08139 -0.14405,0.146484 -0.0423,0.06511 -0.0863,0.166835 -0.13183,0.305176 -0.0456,0.138352 -0.10254,0.363775 -0.1709,0.676269 z"
           style="font-size:10px"
           id="path6121"
           inkscape:connector-curvature="0" />
        <path
           d="m 223.33687,18.972084 c 0.0716,-0.312497 0.10742,-0.553382 0.10742,-0.722656 0,-0.130205 -0.0212,-0.224606 -0.0635,-0.283203 -0.0423,-0.05859 -0.10905,-0.08789 -0.20019,-0.08789 -0.10091,4e-6 -0.20752,0.04151 -0.31983,0.124512 -0.1123,0.08301 -0.26611,0.233565 -0.46142,0.45166 l -0.27832,-0.273438 c 0.29948,-0.312495 0.5485,-0.534663 0.74707,-0.666503 0.19856,-0.131832 0.42317,-0.19775 0.67383,-0.197754 0.20507,4e-6 0.36702,0.06755 0.48584,0.202636 0.11881,0.135096 0.17822,0.311691 0.17822,0.529785 0,0.17253 -0.0391,0.364587 -0.11719,0.576172 l 0.0586,0.01953 c 0.319,-0.449215 0.62255,-0.78206 0.91064,-0.998536 0.28808,-0.216466 0.58512,-0.324702 0.89111,-0.324707 0.30273,5e-6 0.53548,0.08708 0.69825,0.261231 0.16275,0.174158 0.24413,0.415857 0.24414,0.725098 -1e-5,0.205081 -0.0472,0.496422 -0.14161,0.874023 l -0.31738,1.279297 c -0.0879,0.354819 -0.13184,0.60547 -0.13183,0.751953 -1e-5,0.130209 0.0212,0.22461 0.0635,0.283203 0.0423,0.05859 0.10905,0.08789 0.2002,0.08789 0.0976,0 0.20182,-0.03988 0.3125,-0.119629 0.11067,-0.07975 0.26692,-0.231933 0.46875,-0.456543 l 0.27832,0.273437 c -0.27996,0.29948 -0.5241,0.518393 -0.73242,0.656739 -0.20834,0.138346 -0.44597,0.207519 -0.71289,0.207519 -0.2116,0 -0.38087,-0.07568 -0.50782,-0.227051 -0.12695,-0.151366 -0.19043,-0.344237 -0.19043,-0.578613 0,-0.211587 0.0537,-0.52246 0.16114,-0.932617 l 0.21484,-0.844727 c 0.0781,-0.305986 0.12939,-0.532223 0.15381,-0.678711 0.0244,-0.146481 0.0366,-0.265296 0.0366,-0.356445 0,-0.224606 -0.0374,-0.386552 -0.11231,-0.48584 -0.0749,-0.09928 -0.19694,-0.148921 -0.36621,-0.148926 -0.13672,5e-6 -0.28402,0.05453 -0.44189,0.163575 -0.15788,0.109053 -0.32552,0.273441 -0.50293,0.493164 -0.17741,0.21973 -0.31983,0.432946 -0.42725,0.639648 -0.10742,0.206709 -0.19531,0.461428 -0.26367,0.76416 l -0.46387,2.114258 -0.84472,0 z"
           style="font-size:10px"
           id="path6123"
           inkscape:connector-curvature="0" />
        <path
           d="m 229.48433,22.150795 c -0.0944,0 -0.17334,-0.0236 -0.23682,-0.0708 -0.0635,-0.0472 -0.11474,-0.113932 -0.15381,-0.200195 -0.0391,-0.08626 -0.0667,-0.187988 -0.083,-0.305176 -0.0163,-0.117187 -0.0244,-0.245767 -0.0244,-0.385742 0,-0.185546 0.0114,-0.384113 0.0342,-0.595703 0.0228,-0.211587 0.0521,-0.424803 0.0879,-0.639649 l 0.20508,-1.352539 c 0.013,-0.07812 0.0236,-0.152177 0.0317,-0.222168 0.008,-0.06998 0.0122,-0.121252 0.0122,-0.153808 -1e-5,-0.100908 -0.0163,-0.183916 -0.0488,-0.249024 -0.0326,-0.0651 -0.0879,-0.09765 -0.16602,-0.09766 -0.0618,4e-6 -0.12858,0.01872 -0.20019,0.05615 -0.0716,0.03744 -0.14405,0.08545 -0.21729,0.144043 -0.0732,0.0586 -0.14404,0.121261 -0.2124,0.187989 -0.0684,0.06673 -0.13184,0.129398 -0.19043,0.187988 l -0.23438,-0.273438 c 0.10092,-0.104162 0.20834,-0.207515 0.32227,-0.310058 0.11393,-0.102535 0.23437,-0.195308 0.36133,-0.27832 0.12695,-0.083 0.26041,-0.149735 0.40039,-0.200196 0.13997,-0.05045 0.2832,-0.07568 0.42969,-0.07568 0.12369,4e-6 0.2246,0.02035 0.30273,0.06104 0.0781,0.04069 0.13916,0.0944 0.18311,0.161133 0.0439,0.06674 0.074,0.139978 0.0903,0.219726 0.0163,0.07976 0.0244,0.158696 0.0244,0.236817 0,0.04558 -0.002,0.08952 -0.005,0.131835 -0.003,0.04232 -0.008,0.08139 -0.0146,0.117188 l -0.27344,1.767578 c -0.0293,0.185549 -0.0537,0.367027 -0.0732,0.544434 -0.0195,0.17741 -0.0293,0.334474 -0.0293,0.471191 0,0.13672 0.008,0.247397 0.0244,0.332031 0.0163,0.08464 0.0472,0.126954 0.0928,0.126953 0.10742,1e-6 0.24251,-0.04313 0.40528,-0.129394 0.16275,-0.08626 0.33365,-0.205077 0.51269,-0.356445 0.17903,-0.151366 0.35807,-0.330403 0.53711,-0.53711 0.17903,-0.206704 0.34017,-0.430499 0.4834,-0.671386 0.14322,-0.240883 0.2596,-0.494789 0.34912,-0.761719 0.0895,-0.266924 0.13427,-0.535478 0.13428,-0.805664 -1e-5,-0.117184 -0.0252,-0.207516 -0.0757,-0.270996 -0.0505,-0.06347 -0.1294,-0.09521 -0.23681,-0.09521 -0.13673,4e-6 -0.26286,0.0529 -0.37842,0.158691 -0.11556,0.105798 -0.23519,0.244958 -0.35889,0.417481 l -0.27832,-0.249024 c 0.0781,-0.117183 0.17008,-0.229488 0.27588,-0.336914 0.10579,-0.107417 0.2181,-0.201818 0.33692,-0.283203 0.11881,-0.08138 0.24169,-0.14648 0.36865,-0.195312 0.12695,-0.04882 0.25064,-0.07324 0.37109,-0.07324 0.23437,5e-6 0.40364,0.06104 0.50781,0.183106 0.10417,0.122075 0.15625,0.285649 0.15625,0.490722 0,0.156254 -0.0277,0.335291 -0.083,0.53711 -0.0554,0.201826 -0.13347,0.415042 -0.23438,0.639648 -0.10092,0.224612 -0.22136,0.454918 -0.36133,0.690918 -0.13998,0.236005 -0.2946,0.465497 -0.46386,0.688477 -0.16928,0.222983 -0.34994,0.432944 -0.542,0.629883 -0.19206,0.19694 -0.39144,0.368653 -0.59814,0.515136 -0.20671,0.146485 -0.41667,0.262859 -0.62988,0.349121 -0.21322,0.08626 -0.42562,0.129395 -0.63721,0.129395 z"
           style="font-size:10px"
           id="path6125"
           inkscape:connector-curvature="0" />
        <path
           d="m 237.28218,21.096107 c -0.31576,0.348308 -0.63558,0.610352 -0.95947,0.786133 -0.3239,0.175782 -0.70069,0.263672 -1.13037,0.263672 -0.47201,0 -0.83741,-0.144043 -1.09619,-0.432129 -0.25879,-0.288085 -0.38819,-0.689289 -0.38819,-1.203613 0,-0.348305 0.0627,-0.72184 0.18799,-1.120605 0.12533,-0.39876 0.31494,-0.756833 0.56885,-1.074219 0.2539,-0.317379 0.55826,-0.563147 0.91308,-0.737305 0.35482,-0.174149 0.73242,-0.261226 1.13282,-0.26123 0.39387,4e-6 0.68928,0.07976 0.88623,0.239257 0.19693,0.15951 0.2954,0.408533 0.29541,0.747071 -1e-5,0.553388 -0.25961,0.968427 -0.77881,1.245117 -0.51921,0.276695 -1.28988,0.415041 -2.31201,0.415039 -0.0391,0.195314 -0.0586,0.406903 -0.0586,0.634766 0,0.341798 0.0667,0.590007 0.2002,0.744629 0.13346,0.154622 0.35156,0.231934 0.6543,0.231933 0.29947,1e-6 0.57047,-0.0651 0.81298,-0.195312 0.24251,-0.130208 0.49886,-0.330403 0.76905,-0.600586 z m -2.59766,-1.547851 c 0.45899,-0.0033 0.85287,-0.04476 1.18165,-0.124512 0.32877,-0.07975 0.58105,-0.206703 0.75683,-0.380859 0.17578,-0.174151 0.26367,-0.409339 0.26367,-0.705567 0,-0.198563 -0.0464,-0.353999 -0.13916,-0.466308 -0.0928,-0.112301 -0.23031,-0.168453 -0.41259,-0.168457 -0.32878,4e-6 -0.64535,0.16602 -0.94971,0.498047 -0.30437,0.332034 -0.53793,0.781253 -0.70069,1.347656 z"
           style="font-size:10px"
           id="path6127"
           inkscape:connector-curvature="0" />
        <path
           d="m 240.32417,18.576576 c 0.31901,-0.432939 0.62581,-0.750321 0.92041,-0.952148 0.2946,-0.201818 0.59326,-0.30273 0.896,-0.302735 0.23763,5e-6 0.43619,0.01791 0.5957,0.05371 l -0.23437,1.09375 -0.50293,0 c -0.0195,-0.136715 -0.0472,-0.242509 -0.083,-0.317382 -0.0358,-0.07487 -0.0781,-0.12695 -0.12695,-0.15625 -0.0488,-0.02929 -0.11068,-0.04394 -0.18555,-0.04395 -0.11719,4e-6 -0.24496,0.05046 -0.3833,0.151367 -0.13835,0.100916 -0.29379,0.258793 -0.46631,0.473633 -0.17253,0.214847 -0.31006,0.421553 -0.4126,0.620117 -0.10254,0.198571 -0.18799,0.450849 -0.25634,0.756836 l -0.46387,2.114258 -0.84473,0 0.70801,-3.095703 c 0.0456,-0.195309 0.0749,-0.346676 0.0879,-0.454102 0.013,-0.107418 0.0195,-0.196936 0.0195,-0.268554 0,-0.130205 -0.0212,-0.224606 -0.0635,-0.283203 -0.0423,-0.05859 -0.10905,-0.08789 -0.20019,-0.08789 -0.10091,4e-6 -0.20752,0.04151 -0.31982,0.124512 -0.11231,0.08301 -0.26612,0.233565 -0.46143,0.45166 l -0.27832,-0.273438 c 0.29948,-0.312495 0.55013,-0.534663 0.75195,-0.666503 0.20182,-0.131832 0.42481,-0.19775 0.66895,-0.197754 0.20507,4e-6 0.36702,0.06755 0.48584,0.202636 0.11881,0.135096 0.17822,0.311691 0.17822,0.529785 0,0.162765 -0.0309,0.330408 -0.0928,0.50293 z"
           style="font-size:10px"
           id="path6129"
           inkscape:connector-curvature="0" />
        <path
           d="m 246.31538,21.144936 c -0.2832,0.341797 -0.55583,0.594075 -0.81787,0.756836 -0.26204,0.16276 -0.53629,0.24414 -0.82275,0.24414 -0.68034,0 -1.02051,-0.343424 -1.02051,-1.030273 0,-0.218098 0.0277,-0.44759 0.083,-0.688477 l 0.57617,-2.53418 -0.82031,0 0.0732,-0.336914 c 0.19206,-0.0033 0.33773,-0.0179 0.43701,-0.04395 0.0993,-0.02604 0.18229,-0.06184 0.24903,-0.107422 0.0667,-0.04557 0.12776,-0.110672 0.1831,-0.195312 0.0553,-0.08463 0.10905,-0.192866 0.16113,-0.324707 0.0521,-0.131831 0.13021,-0.362137 0.23438,-0.690918 l 0.67383,0 -0.26856,1.206054 1.48438,0 -0.10742,0.493164 -1.48438,0 -0.43457,1.894532 c -0.0846,0.36784 -0.13835,0.632326 -0.16113,0.793457 -0.0228,0.161134 -0.0342,0.290528 -0.0342,0.388183 0,0.403647 0.16764,0.60547 0.50293,0.605469 0.14322,10e-7 0.29541,-0.05452 0.45654,-0.163574 0.16113,-0.109049 0.35237,-0.295409 0.57373,-0.559082 z"
           style="font-size:10px"
           id="path6131"
           inkscape:connector-curvature="0" />
        <path
           d="m 249.62593,15.485756 -0.22461,0.947266 -0.86426,0 0.22461,-0.947266 z m -1.57226,3.291016 c 0.0749,-0.325518 0.1123,-0.569658 0.1123,-0.732422 0,-0.146481 -0.035,-0.245764 -0.10498,-0.297852 -0.07,-0.05208 -0.20752,-0.08138 -0.4126,-0.08789 l 0.0537,-0.258789 1.19141,-0.04395 0.28808,0 -0.70312,3.134766 c -0.0716,0.319011 -0.10742,0.559897 -0.10742,0.722656 0,0.130209 0.0212,0.22461 0.0635,0.283203 0.0423,0.05859 0.10905,0.08789 0.2002,0.08789 0.0977,0 0.20182,-0.03988 0.3125,-0.119629 0.11067,-0.07975 0.26692,-0.231933 0.46875,-0.456543 l 0.27832,0.273437 c -0.31901,0.335287 -0.5778,0.563152 -0.77637,0.683594 -0.19857,0.120443 -0.42155,0.180664 -0.66894,0.180664 -0.21159,0 -0.38086,-0.07731 -0.50781,-0.231933 -0.12696,-0.154623 -0.19044,-0.352376 -0.19043,-0.593262 -1e-5,-0.247395 0.0456,-0.56315 0.13671,-0.947266 z"
           style="font-size:10px"
           id="path6133"
           inkscape:connector-curvature="0" />
        <path
           d="m 251.36421,18.972084 c 0.0716,-0.312497 0.10742,-0.553382 0.10742,-0.722656 0,-0.130205 -0.0212,-0.224606 -0.0635,-0.283203 -0.0423,-0.05859 -0.10905,-0.08789 -0.2002,-0.08789 -0.10091,4e-6 -0.20752,0.04151 -0.31982,0.124512 -0.11231,0.08301 -0.26612,0.233565 -0.46143,0.45166 l -0.27832,-0.273438 c 0.29948,-0.312495 0.5485,-0.534663 0.74707,-0.666503 0.19857,-0.131832 0.42318,-0.19775 0.67383,-0.197754 0.20508,4e-6 0.36702,0.06755 0.48584,0.202636 0.11881,0.135096 0.17822,0.311691 0.17822,0.529785 0,0.17253 -0.0391,0.364587 -0.11718,0.576172 l 0.0586,0.01953 c 0.31901,-0.449215 0.62255,-0.78206 0.91064,-0.998536 0.28809,-0.216466 0.58512,-0.324702 0.89112,-0.324707 0.30273,5e-6 0.53547,0.08708 0.69824,0.261231 0.16275,0.174158 0.24413,0.415857 0.24414,0.725098 -1e-5,0.205081 -0.0472,0.496422 -0.1416,0.874023 l -0.31738,1.279297 c -0.0879,0.354819 -0.13185,0.60547 -0.13184,0.751953 -1e-5,0.130209 0.0212,0.22461 0.0635,0.283203 0.0423,0.05859 0.10904,0.08789 0.20019,0.08789 0.0977,0 0.20182,-0.03988 0.3125,-0.119629 0.11067,-0.07975 0.26692,-0.231933 0.46875,-0.456543 l 0.27832,0.273437 c -0.27995,0.29948 -0.52409,0.518393 -0.73242,0.656739 -0.20834,0.138346 -0.44597,0.207519 -0.71289,0.207519 -0.21159,0 -0.38086,-0.07568 -0.50781,-0.227051 -0.12696,-0.151366 -0.19044,-0.344237 -0.19043,-0.578613 -1e-5,-0.211587 0.0537,-0.52246 0.16113,-0.932617 l 0.21484,-0.844727 c 0.0781,-0.305986 0.12939,-0.532223 0.15381,-0.678711 0.0244,-0.146481 0.0366,-0.265296 0.0366,-0.356445 0,-0.224606 -0.0374,-0.386552 -0.1123,-0.48584 -0.0749,-0.09928 -0.19695,-0.148921 -0.36621,-0.148926 -0.13672,5e-6 -0.28402,0.05453 -0.4419,0.163575 -0.15788,0.109053 -0.32552,0.273441 -0.50293,0.493164 -0.17741,0.21973 -0.31982,0.432946 -0.42724,0.639648 -0.10743,0.206709 -0.19532,0.461428 -0.26367,0.76416 l -0.46387,2.114258 -0.84473,0 z"
           style="font-size:10px"
           id="path6135"
           inkscape:connector-curvature="0" />
        <path
           d="m 256.96968,22.487709 c -0.0618,0.07487 -0.11393,0.148925 -0.15625,0.222168 -0.0423,0.07324 -0.0724,0.144042 -0.0903,0.212402 -0.0179,0.06836 -0.0269,0.149739 -0.0269,0.244141 0,0.244139 0.0879,0.422362 0.26368,0.534668 0.17578,0.112303 0.44107,0.168455 0.79589,0.168457 0.40039,-2e-6 0.72184,-0.09033 0.96436,-0.270996 0.24251,-0.180666 0.45003,-0.471193 0.62256,-0.871582 0.17252,-0.400391 0.34016,-1.005859 0.50293,-1.816406 l -0.0684,-0.01465 c -0.31576,0.432944 -0.60873,0.748699 -0.87891,0.947266 -0.27018,0.198568 -0.56152,0.297851 -0.87402,0.297851 -0.35482,0 -0.6307,-0.133463 -0.82764,-0.40039 -0.19694,-0.266927 -0.29541,-0.647786 -0.29541,-1.142578 0,-0.556639 0.10905,-1.091306 0.32715,-1.604004 0.2181,-0.512692 0.52083,-0.920406 0.9082,-1.223145 0.38737,-0.30273 0.81868,-0.454097 1.29395,-0.454101 0.20507,4e-6 0.39876,0.02442 0.58105,0.07324 0.18229,0.04883 0.36621,0.13184 0.55176,0.249023 l 0.44922,-0.322265 0.3125,0.07813 -0.50293,2.27539 c -0.0358,0.159508 -0.11719,0.561526 -0.24414,1.206055 -0.13347,0.683594 -0.2417,1.166992 -0.32471,1.450195 -0.083,0.283203 -0.18636,0.541178 -0.31006,0.773926 -0.1237,0.232746 -0.2832,0.435383 -0.47851,0.60791 -0.19532,0.172524 -0.43213,0.305988 -0.71045,0.400391 -0.27832,0.0944 -0.60791,0.141599 -0.98877,0.141601 -1.23047,-2e-6 -1.8457,-0.358074 -1.8457,-1.074218 0,-0.182293 0.0553,-0.348308 0.16601,-0.498047 0.11068,-0.14974 0.28809,-0.307618 0.53223,-0.473633 z m 1.40137,-0.922852 c 0.16601,1e-6 0.33121,-0.05697 0.4956,-0.170898 0.16439,-0.113931 0.34017,-0.294595 0.52735,-0.541992 0.18717,-0.247395 0.33284,-0.483397 0.43701,-0.708008 0.10416,-0.224607 0.19287,-0.504555 0.26611,-0.839844 0.0732,-0.335283 0.10986,-0.626624 0.10987,-0.874023 -1e-5,-0.253903 -0.0537,-0.438635 -0.16114,-0.554199 -0.10742,-0.115556 -0.28646,-0.173336 -0.53711,-0.17334 -0.33203,4e-6 -0.62988,0.134281 -0.89355,0.402832 -0.26368,0.268558 -0.4712,0.6307 -0.62256,1.086426 -0.15137,0.455731 -0.22705,0.909832 -0.22705,1.362304 0,0.338543 0.0488,0.591635 0.14648,0.759278 0.0977,0.167643 0.25065,0.251465 0.45899,0.251464 z"
           style="font-size:10px"
           id="path6137"
           inkscape:connector-curvature="0" />
      </g>
      <g
         style="font-size:12.44999981px;font-style:normal;font-weight:normal;text-align:start;text-anchor:start;fill:#000000;font-family:Cambria Math"
         id="text5852" />
      <g
         style="font-size:12.44999981px;font-style:normal;font-weight:normal;text-align:start;text-anchor:start;fill:#000000;font-family:Cambria Math"
         id="text5854">
        <path
           d="m 267.92868,20.688393 c -0.0423,0.192058 -0.07,0.344239 -0.083,0.456543 -0.013,0.112305 -0.0195,0.21403 -0.0195,0.305175 0,0.146485 0.0366,0.249838 0.10986,0.310059 0.0732,0.06022 0.19613,0.09684 0.36866,0.109863 l -0.0537,0.239258 -1.95313,0 0.0537,-0.239258 c 0.1237,-0.01953 0.21647,-0.05127 0.27832,-0.09521 0.0619,-0.04395 0.11393,-0.10498 0.15625,-0.183105 0.0423,-0.07812 0.0814,-0.173339 0.11719,-0.285645 0.0358,-0.112303 0.0895,-0.329588 0.16113,-0.651855 l 0.83008,-3.759766 c 0.0716,-0.325515 0.10742,-0.587559 0.10742,-0.786132 0,-0.152989 -0.0383,-0.259597 -0.11474,-0.319825 -0.0765,-0.06021 -0.19776,-0.09521 -0.36377,-0.10498 l 0.0537,-0.239258 1.95312,0 -0.0537,0.239258 c -0.1237,0.02605 -0.2124,0.05534 -0.26611,0.08789 -0.0537,0.03256 -0.10173,0.08139 -0.14404,0.146485 -0.0423,0.06511 -0.0863,0.166835 -0.13184,0.305176 -0.0456,0.138352 -0.10254,0.363775 -0.1709,0.676269 z"
           style="font-size:10px"
           id="path6141"
           inkscape:connector-curvature="0" />
        <path
           d="m 271.14157,19.013588 c 0.0716,-0.312497 0.10742,-0.553382 0.10742,-0.722656 0,-0.130205 -0.0212,-0.224606 -0.0635,-0.283203 -0.0423,-0.05859 -0.10905,-0.08789 -0.2002,-0.08789 -0.10091,4e-6 -0.20752,0.04151 -0.31982,0.124512 -0.11231,0.08301 -0.26612,0.233565 -0.46143,0.45166 l -0.27832,-0.273438 c 0.29948,-0.312495 0.5485,-0.534663 0.74707,-0.666504 0.19857,-0.131831 0.42318,-0.197749 0.67383,-0.197753 0.20508,4e-6 0.36702,0.06755 0.48584,0.202636 0.11881,0.135096 0.17822,0.311691 0.17822,0.529785 0,0.17253 -0.0391,0.364587 -0.11719,0.576172 l 0.0586,0.01953 c 0.31901,-0.449215 0.62255,-0.78206 0.91064,-0.998536 0.28809,-0.216466 0.58512,-0.324702 0.89112,-0.324707 0.30273,5e-6 0.53547,0.08708 0.69824,0.261231 0.16275,0.174158 0.24413,0.415857 0.24414,0.725097 -1e-5,0.205082 -0.0472,0.496423 -0.1416,0.874024 l -0.31739,1.279297 c -0.0879,0.354819 -0.13184,0.60547 -0.13183,0.751953 -1e-5,0.130209 0.0212,0.22461 0.0635,0.283203 0.0423,0.05859 0.10905,0.08789 0.2002,0.08789 0.0977,0 0.20182,-0.03988 0.3125,-0.119629 0.11067,-0.07975 0.26692,-0.231933 0.46875,-0.456543 l 0.27832,0.273437 c -0.27995,0.29948 -0.52409,0.518392 -0.73242,0.656739 -0.20834,0.138346 -0.44597,0.207519 -0.71289,0.207519 -0.21159,0 -0.38087,-0.07568 -0.50781,-0.227051 -0.12696,-0.151367 -0.19044,-0.344237 -0.19043,-0.578613 -10e-6,-0.211588 0.0537,-0.52246 0.16113,-0.932617 l 0.21484,-0.844727 c 0.0781,-0.305987 0.12939,-0.532223 0.15381,-0.678711 0.0244,-0.146481 0.0366,-0.265296 0.0366,-0.356445 0,-0.224606 -0.0374,-0.386552 -0.1123,-0.48584 -0.0749,-0.09928 -0.19695,-0.148921 -0.36621,-0.148926 -0.13673,5e-6 -0.28402,0.05453 -0.4419,0.163575 -0.15788,0.109053 -0.32552,0.273441 -0.50293,0.493164 -0.17741,0.21973 -0.31982,0.432945 -0.42724,0.639648 -0.10743,0.206709 -0.19532,0.461428 -0.26368,0.76416 l -0.46386,2.114258 -0.84473,0 z"
           style="font-size:10px"
           id="path6143"
           inkscape:connector-curvature="0" />
        <path
           d="m 276.88864,19.028236 c 0.0684,-0.299475 0.10254,-0.545243 0.10254,-0.737304 0,-0.130205 -0.0212,-0.224606 -0.0635,-0.283203 -0.0423,-0.05859 -0.10905,-0.08789 -0.20019,-0.08789 -0.10091,4e-6 -0.20752,0.04151 -0.31983,0.124512 -0.1123,0.08301 -0.26611,0.233565 -0.46142,0.45166 l -0.27832,-0.273438 c 0.29297,-0.305985 0.54118,-0.526525 0.74463,-0.661621 0.20345,-0.135086 0.42887,-0.202632 0.67627,-0.202636 0.20182,4e-6 0.36214,0.06674 0.48095,0.200195 0.11882,0.133468 0.17822,0.310876 0.17823,0.532226 -10e-6,0.182296 -0.0374,0.374353 -0.11231,0.576172 l 0.0586,0.01953 c 0.60221,-0.882158 1.20116,-1.323238 1.79687,-1.323243 0.35481,5e-6 0.63069,0.135096 0.82764,0.405274 0.19693,0.270186 0.2954,0.651045 0.29541,1.142578 -1e-5,0.537112 -0.10824,1.065269 -0.32471,1.584473 -0.21648,0.519206 -0.51677,0.93099 -0.90088,1.235351 -0.38412,0.304362 -0.8138,0.456543 -1.28906,0.456543 -0.43295,0 -0.79265,-0.0944 -1.0791,-0.283203 l -0.22461,1.069336 c -0.0488,0.231119 -0.0732,0.421548 -0.0732,0.571289 -10e-6,0.143228 0.0366,0.244953 0.10986,0.305176 0.0732,0.06022 0.21566,0.100096 0.42725,0.119629 l -0.0391,0.239257 -1.50879,0 z m 0.49317,1.381836 c -0.0326,0.172528 -0.0529,0.304364 -0.061,0.395508 -0.008,0.09115 -0.0122,0.180665 -0.0122,0.268555 0,0.253907 0.0545,0.43864 0.16358,0.554199 0.10904,0.11556 0.29703,0.17334 0.56396,0.17334 0.16602,0 0.31901,-0.03255 0.45899,-0.09766 0.13997,-0.0651 0.27262,-0.159505 0.39795,-0.283203 0.12532,-0.123698 0.23844,-0.273437 0.33935,-0.449219 0.10091,-0.17578 0.19124,-0.380044 0.271,-0.612793 0.0797,-0.232746 0.13997,-0.472003 0.18066,-0.717774 0.0407,-0.245765 0.061,-0.476071 0.061,-0.690918 -10e-6,-0.341793 -0.048,-0.596513 -0.14405,-0.76416 -0.096,-0.167639 -0.24821,-0.25146 -0.45654,-0.251465 -0.16602,5e-6 -0.32959,0.05616 -0.49072,0.168457 -0.16114,0.112309 -0.33773,0.292159 -0.52979,0.539551 -0.19206,0.247399 -0.3418,0.49154 -0.44922,0.732422 -0.10742,0.240888 -0.19206,0.51758 -0.2539,0.830078 z"
           style="font-size:10px"
           id="path6145"
           inkscape:connector-curvature="0" />
        <path
           d="m 285.54099,20.532143 c -0.0716,0.312501 -0.10743,0.553386 -0.10743,0.722656 0,0.130209 0.0212,0.22461 0.0635,0.283203 0.0423,0.05859 0.10904,0.08789 0.2002,0.08789 0.0976,0 0.20181,-0.03988 0.3125,-0.119629 0.11067,-0.07975 0.26692,-0.231933 0.46875,-0.456543 l 0.27832,0.273437 c -0.29623,0.315756 -0.54851,0.538737 -0.75684,0.668946 -0.20834,0.130208 -0.42969,0.195312 -0.66406,0.195312 -0.20183,0 -0.36296,-0.06673 -0.4834,-0.200195 -0.12045,-0.133464 -0.18067,-0.310872 -0.18067,-0.532227 0,-0.17578 0.0391,-0.367837 0.11719,-0.576172 l -0.0586,-0.01953 c -0.32227,0.452475 -0.62745,0.786133 -0.91553,1.000977 -0.28809,0.214843 -0.5835,0.322265 -0.88623,0.322265 -0.30274,0 -0.53548,-0.08708 -0.69824,-0.26123 -0.16276,-0.174153 -0.24414,-0.415852 -0.24414,-0.725098 0,-0.205077 0.0472,-0.496418 0.1416,-0.874023 l 0.31738,-1.279297 c 0.0879,-0.354814 0.13184,-0.605465 0.13184,-0.751953 0,-0.130205 -0.0212,-0.224606 -0.0635,-0.283203 -0.0423,-0.05859 -0.10905,-0.08789 -0.20019,-0.08789 -0.10092,4e-6 -0.20752,0.04151 -0.31983,0.124512 -0.1123,0.08301 -0.26611,0.233565 -0.46142,0.45166 l -0.27832,-0.273438 c 0.27669,-0.279943 0.48502,-0.472001 0.625,-0.576172 0.13997,-0.104162 0.27425,-0.178218 0.40283,-0.222168 0.12858,-0.04394 0.27262,-0.06591 0.43213,-0.06592 0.20833,4e-6 0.37272,0.06999 0.49316,0.20996 0.12044,0.139979 0.18066,0.328781 0.18066,0.566407 0,0.257165 -0.0504,0.577803 -0.15136,0.961914 l -0.21485,0.844726 c -0.0553,0.214846 -0.0952,0.382489 -0.11963,0.50293 -0.0244,0.120444 -0.0423,0.224611 -0.0537,0.3125 -0.0114,0.08789 -0.0171,0.161134 -0.0171,0.219727 0,0.22461 0.0374,0.386556 0.11231,0.485839 0.0749,0.09929 0.19694,0.148927 0.36621,0.148926 0.13672,1e-6 0.28401,-0.05452 0.44189,-0.163574 0.15788,-0.109049 0.32552,-0.273437 0.50293,-0.493164 0.17741,-0.219725 0.31982,-0.432941 0.42725,-0.639649 0.10742,-0.206703 0.19531,-0.461423 0.26367,-0.76416 l 0.46387,-2.114257 0.84473,0 z"
           style="font-size:10px"
           id="path6147"
           inkscape:connector-curvature="0" />
        <path
           d="m 290.27243,21.18644 c -0.28321,0.341797 -0.55583,0.594075 -0.81787,0.756835 -0.26205,0.162761 -0.5363,0.244141 -0.82275,0.244141 -0.68034,0 -1.02051,-0.343424 -1.02051,-1.030273 0,-0.218098 0.0277,-0.44759 0.083,-0.688477 l 0.57617,-2.53418 -0.82032,0 0.0733,-0.336914 c 0.19205,-0.0033 0.33772,-0.0179 0.43701,-0.04395 0.0993,-0.02604 0.18229,-0.06184 0.24902,-0.107422 0.0667,-0.04557 0.12777,-0.110672 0.18311,-0.195312 0.0553,-0.08463 0.10905,-0.192866 0.16113,-0.324707 0.0521,-0.131831 0.13021,-0.362137 0.23438,-0.690918 l 0.67382,0 -0.26855,1.206054 1.48437,0 -0.10742,0.493164 -1.48437,0 -0.43457,1.894532 c -0.0846,0.36784 -0.13835,0.632326 -0.16114,0.793457 -0.0228,0.161134 -0.0342,0.290528 -0.0342,0.388183 0,0.403647 0.16765,0.60547 0.50293,0.605469 0.14323,1e-6 0.29541,-0.05452 0.45655,-0.163574 0.16113,-0.109049 0.35237,-0.295409 0.57373,-0.559082 z"
           style="font-size:10px"
           id="path6149"
           inkscape:connector-curvature="0" />
      </g>
      <g
         style="font-size:17.54999924px;font-style:normal;font-weight:normal;text-align:start;text-anchor:start;fill:#000000;font-family:Cambria Math"
         id="text5856">
        <path
           d="m 296.28831,12.626585 0,-1.139722 10.55742,0 0,1.139722 z"
           style="font-size:17.54999924px;font-style:normal;font-weight:normal;text-align:start;text-anchor:start;fill:#000000;font-family:Cambria Math"
           id="path6152"
           inkscape:connector-curvature="0" />
      </g>
      <g
         style="font-size:17.54999924px;font-style:normal;font-weight:normal;text-align:start;text-anchor:start;fill:#000000;font-family:Cambria Math"
         id="text5858">
        <path
           d="m 325.42221,6.6446729 -0.0943,0.4198974 c -0.25137,0.028576 -0.44704,0.1028432 -0.587,0.2228028 -0.13997,0.1199816 -0.23852,0.2870835 -0.29564,0.5013061 -0.0571,0.2142437 -0.0857,0.5013162 -0.0857,0.8612182 0,0.085703 0.009,0.3427828 0.0257,0.7712402 l 0.23994,6.2727534 0,0.685547 0.0857,0 3.71052,-6.692651 c 0.21708,-0.3941804 0.3799,-0.7326688 0.48845,-1.0154662 0.10854,-0.2827782 0.16281,-0.5327169 0.16282,-0.7498169 -10e-6,-0.4798719 -0.28565,-0.7655161 -0.85694,-0.8569336 l 0.0943,-0.4198974 3.50485,0 -0.0943,0.4198974 c -0.15426,0.022863 -0.30136,0.08142 -0.44132,0.1756714 -0.13997,0.094274 -0.29708,0.2513781 -0.47131,0.4713135 -0.17425,0.2199567 -0.44419,0.6441384 -0.8098,1.2725463 l -5.48438,9.4948235 -1.13972,0 -0.57415,-9.5548088 c -0.0229,-0.3713281 -0.0643,-0.6898214 -0.12425,-0.955481 -0.06,-0.2656387 -0.15425,-0.4727308 -0.28279,-0.6212768 -0.12854,-0.148524 -0.33278,-0.2427866 -0.61271,-0.2827881 l 0.0943,-0.4198974 z"
           style="font-size:17.54999924px;font-style:normal;font-weight:normal;text-align:start;text-anchor:start;fill:#000000;font-family:Cambria Math"
           id="path6155"
           inkscape:connector-curvature="0" />
      </g>
      <g
         style="font-size:12.44999981px;font-style:normal;font-weight:normal;text-align:start;text-anchor:start;fill:#000000;font-family:Cambria Math"
         id="text5860">
        <path
           d="m 330.53778,20.646889 c -0.0423,0.192058 -0.07,0.344239 -0.083,0.456543 -0.013,0.112305 -0.0195,0.21403 -0.0195,0.305175 0,0.146485 0.0366,0.249838 0.10986,0.310059 0.0733,0.06022 0.19613,0.09684 0.36866,0.109863 l -0.0537,0.239258 -1.95313,0 0.0537,-0.239258 c 0.1237,-0.01953 0.21647,-0.05127 0.27832,-0.09521 0.0618,-0.04395 0.11393,-0.104981 0.15625,-0.183106 0.0423,-0.07812 0.0814,-0.173339 0.11719,-0.285644 0.0358,-0.112304 0.0895,-0.329589 0.16113,-0.651856 l 0.83008,-3.759766 c 0.0716,-0.325515 0.10742,-0.587559 0.10742,-0.786132 0,-0.152989 -0.0383,-0.259597 -0.11474,-0.319825 -0.0765,-0.06021 -0.19776,-0.09521 -0.36377,-0.10498 l 0.0537,-0.239258 1.95312,0 -0.0537,0.239258 c -0.1237,0.02605 -0.2124,0.05534 -0.26611,0.08789 -0.0537,0.03256 -0.10173,0.08139 -0.14404,0.146484 -0.0423,0.06511 -0.0863,0.166835 -0.13184,0.305176 -0.0456,0.138352 -0.10254,0.363775 -0.1709,0.676269 z"
           style="font-size:10px"
           id="path6158"
           inkscape:connector-curvature="0" />
        <path
           d="m 333.75067,18.972084 c 0.0716,-0.312497 0.10742,-0.553382 0.10742,-0.722656 0,-0.130205 -0.0212,-0.224606 -0.0635,-0.283203 -0.0423,-0.05859 -0.10905,-0.08789 -0.2002,-0.08789 -0.10091,4e-6 -0.20752,0.04151 -0.31982,0.124512 -0.11231,0.08301 -0.26612,0.233565 -0.46143,0.45166 l -0.27832,-0.273438 c 0.29948,-0.312495 0.5485,-0.534663 0.74707,-0.666503 0.19857,-0.131832 0.42318,-0.19775 0.67383,-0.197754 0.20508,4e-6 0.36702,0.06755 0.48584,0.202636 0.11881,0.135096 0.17822,0.311691 0.17822,0.529785 0,0.17253 -0.0391,0.364587 -0.11719,0.576172 l 0.0586,0.01953 c 0.31901,-0.449215 0.62255,-0.78206 0.91064,-0.998536 0.28809,-0.216466 0.58512,-0.324702 0.89112,-0.324707 0.30273,5e-6 0.53547,0.08708 0.69824,0.261231 0.16275,0.174158 0.24413,0.415857 0.24414,0.725098 -1e-5,0.205081 -0.0472,0.496422 -0.1416,0.874023 l -0.31739,1.279297 c -0.0879,0.354819 -0.13184,0.60547 -0.13183,0.751953 -1e-5,0.130209 0.0211,0.22461 0.0635,0.283203 0.0423,0.05859 0.10904,0.08789 0.20019,0.08789 0.0976,0 0.20182,-0.03988 0.3125,-0.119629 0.11067,-0.07975 0.26692,-0.231933 0.46875,-0.456543 l 0.27832,0.273437 c -0.27995,0.29948 -0.52409,0.518393 -0.73242,0.656739 -0.20834,0.138346 -0.44597,0.207519 -0.71289,0.207519 -0.21159,0 -0.38086,-0.07568 -0.50781,-0.227051 -0.12696,-0.151366 -0.19044,-0.344237 -0.19043,-0.578613 -1e-5,-0.211587 0.0537,-0.52246 0.16113,-0.932617 l 0.21484,-0.844727 c 0.0781,-0.305986 0.12939,-0.532223 0.15381,-0.678711 0.0244,-0.146481 0.0366,-0.265296 0.0366,-0.356445 0,-0.224606 -0.0374,-0.386552 -0.1123,-0.48584 -0.0749,-0.09928 -0.19695,-0.148921 -0.36621,-0.148926 -0.13673,5e-6 -0.28402,0.05453 -0.4419,0.163575 -0.15788,0.109053 -0.32552,0.273441 -0.50293,0.493164 -0.17741,0.21973 -0.31982,0.432946 -0.42724,0.639648 -0.10743,0.206709 -0.19532,0.461428 -0.26368,0.76416 l -0.46386,2.114258 -0.84473,0 z"
           style="font-size:10px"
           id="path6160"
           inkscape:connector-curvature="0" />
        <path
           d="m 339.89813,22.150795 c -0.0944,0 -0.17334,-0.0236 -0.23681,-0.0708 -0.0635,-0.0472 -0.11475,-0.113932 -0.15381,-0.200195 -0.0391,-0.08626 -0.0667,-0.187988 -0.083,-0.305176 -0.0163,-0.117187 -0.0244,-0.245767 -0.0244,-0.385742 -10e-6,-0.185546 0.0114,-0.384113 0.0342,-0.595703 0.0228,-0.211587 0.0521,-0.424803 0.0879,-0.639649 l 0.20507,-1.352539 c 0.013,-0.07812 0.0236,-0.152177 0.0317,-0.222168 0.008,-0.06998 0.0122,-0.121252 0.0122,-0.153808 0,-0.100908 -0.0163,-0.183916 -0.0488,-0.249024 -0.0326,-0.0651 -0.0879,-0.09765 -0.16601,-0.09766 -0.0618,4e-6 -0.12859,0.01872 -0.2002,0.05615 -0.0716,0.03744 -0.14404,0.08545 -0.21729,0.144043 -0.0732,0.0586 -0.14404,0.121261 -0.2124,0.187989 -0.0684,0.06673 -0.13183,0.129398 -0.19043,0.187988 l -0.23437,-0.273438 c 0.10091,-0.104162 0.20833,-0.207515 0.32226,-0.310058 0.11394,-0.102535 0.23438,-0.195308 0.36133,-0.27832 0.12695,-0.083 0.26042,-0.149735 0.40039,-0.200196 0.13997,-0.05045 0.2832,-0.07568 0.42969,-0.07568 0.1237,4e-6 0.22461,0.02035 0.30273,0.06104 0.0781,0.04069 0.13916,0.0944 0.18311,0.161133 0.0439,0.06674 0.074,0.139978 0.0903,0.219726 0.0163,0.07976 0.0244,0.158696 0.0244,0.236817 -10e-6,0.04558 -0.002,0.08952 -0.005,0.131835 -0.003,0.04232 -0.008,0.08139 -0.0147,0.117188 l -0.27343,1.767578 c -0.0293,0.185549 -0.0537,0.367027 -0.0733,0.544434 -0.0195,0.17741 -0.0293,0.334474 -0.0293,0.471191 0,0.13672 0.008,0.247397 0.0244,0.332031 0.0163,0.08464 0.0472,0.126954 0.0928,0.126953 0.10742,1e-6 0.24251,-0.04313 0.40527,-0.129394 0.16276,-0.08626 0.33365,-0.205077 0.51269,-0.356445 0.17904,-0.151366 0.35807,-0.330403 0.53711,-0.53711 0.17904,-0.206704 0.34017,-0.430499 0.4834,-0.671386 0.14323,-0.240883 0.2596,-0.494789 0.34912,-0.761719 0.0895,-0.266924 0.13428,-0.535478 0.13428,-0.805664 0,-0.117184 -0.0252,-0.207516 -0.0757,-0.270996 -0.0505,-0.06347 -0.1294,-0.09521 -0.23682,-0.09521 -0.13672,4e-6 -0.26286,0.0529 -0.37842,0.158691 -0.11556,0.105798 -0.23519,0.244958 -0.35888,0.417481 l -0.27832,-0.249024 c 0.0781,-0.117183 0.17008,-0.229488 0.27587,-0.336914 0.10579,-0.107417 0.2181,-0.201818 0.33692,-0.283203 0.11881,-0.08138 0.24169,-0.14648 0.36865,-0.195312 0.12695,-0.04882 0.25065,-0.07324 0.37109,-0.07324 0.23437,5e-6 0.40365,0.06104 0.50782,0.183106 0.10416,0.122075 0.15624,0.285649 0.15625,0.490722 -1e-5,0.156254 -0.0277,0.335291 -0.083,0.53711 -0.0553,0.201826 -0.13347,0.415042 -0.23438,0.639648 -0.10091,0.224612 -0.22135,0.454918 -0.36132,0.690918 -0.13998,0.236005 -0.2946,0.465497 -0.46387,0.688477 -0.16928,0.222983 -0.34994,0.432944 -0.54199,0.629883 -0.19206,0.19694 -0.39145,0.368653 -0.59815,0.515136 -0.20671,0.146485 -0.41667,0.262859 -0.62988,0.349121 -0.21322,0.08626 -0.42562,0.129395 -0.63721,0.129395 z"
           style="font-size:10px"
           id="path6162"
           inkscape:connector-curvature="0" />
        <path
           d="m 347.69598,21.096107 c -0.31576,0.348308 -0.63558,0.610352 -0.95947,0.786133 -0.32389,0.175782 -0.70068,0.263672 -1.13037,0.263672 -0.47201,0 -0.8374,-0.144043 -1.09619,-0.432129 -0.25879,-0.288085 -0.38819,-0.689289 -0.38818,-1.203613 -1e-5,-0.348305 0.0627,-0.72184 0.18798,-1.120605 0.12533,-0.39876 0.31494,-0.756833 0.56885,-1.074219 0.25391,-0.317379 0.55827,-0.563147 0.91309,-0.737305 0.35481,-0.174149 0.73242,-0.261226 1.13281,-0.26123 0.39388,4e-6 0.68929,0.07976 0.88623,0.239257 0.19694,0.15951 0.29541,0.408533 0.29541,0.747071 0,0.553388 -0.25961,0.968427 -0.77881,1.245117 -0.51921,0.276695 -1.28988,0.415041 -2.31201,0.415039 -0.0391,0.195314 -0.0586,0.406903 -0.0586,0.634766 -1e-5,0.341798 0.0667,0.590007 0.20019,0.744629 0.13346,0.154622 0.35156,0.231934 0.6543,0.231933 0.29947,1e-6 0.57047,-0.0651 0.81299,-0.195312 0.24251,-0.130208 0.49885,-0.330403 0.76904,-0.600586 z m -2.59765,-1.547851 c 0.45898,-0.0033 0.85286,-0.04476 1.18164,-0.124512 0.32877,-0.07975 0.58105,-0.206703 0.75683,-0.380859 0.17578,-0.174151 0.26367,-0.409339 0.26368,-0.705567 -10e-6,-0.198563 -0.0464,-0.353999 -0.13916,-0.466308 -0.0928,-0.112301 -0.23031,-0.168453 -0.4126,-0.168457 -0.32878,4e-6 -0.64535,0.16602 -0.94971,0.498047 -0.30436,0.332034 -0.53792,0.781253 -0.70068,1.347656 z"
           style="font-size:10px"
           id="path6164"
           inkscape:connector-curvature="0" />
        <path
           d="m 350.73798,18.576576 c 0.319,-0.432939 0.62581,-0.750321 0.92041,-0.952148 0.29459,-0.201818 0.59325,-0.30273 0.89599,-0.302735 0.23763,5e-6 0.4362,0.01791 0.59571,0.05371 l -0.23438,1.09375 -0.50293,0 c -0.0195,-0.136715 -0.0472,-0.242509 -0.083,-0.317382 -0.0358,-0.07487 -0.0781,-0.12695 -0.12695,-0.15625 -0.0488,-0.02929 -0.11068,-0.04394 -0.18555,-0.04395 -0.11719,4e-6 -0.24495,0.05046 -0.3833,0.151367 -0.13835,0.100916 -0.29378,0.258793 -0.46631,0.473633 -0.17252,0.214847 -0.31006,0.421553 -0.41259,0.620117 -0.10255,0.198571 -0.18799,0.450849 -0.25635,0.756836 l -0.46387,2.114258 -0.84473,0 0.70801,-3.095703 c 0.0456,-0.195309 0.0749,-0.346676 0.0879,-0.454102 0.013,-0.107418 0.0195,-0.196936 0.0195,-0.268554 0,-0.130205 -0.0212,-0.224606 -0.0635,-0.283203 -0.0423,-0.05859 -0.10905,-0.08789 -0.2002,-0.08789 -0.10091,4e-6 -0.20752,0.04151 -0.31982,0.124512 -0.11231,0.08301 -0.26612,0.233565 -0.46143,0.45166 l -0.27832,-0.273438 c 0.29948,-0.312495 0.55013,-0.534663 0.75196,-0.666503 0.20182,-0.131832 0.4248,-0.19775 0.66894,-0.197754 0.20508,4e-6 0.36702,0.06755 0.48584,0.202636 0.11881,0.135096 0.17822,0.311691 0.17822,0.529785 0,0.162765 -0.0309,0.330408 -0.0928,0.50293 z"
           style="font-size:10px"
           id="path6166"
           inkscape:connector-curvature="0" />
        <path
           d="m 356.72919,21.144936 c -0.28321,0.341797 -0.55583,0.594075 -0.81787,0.756836 -0.26205,0.16276 -0.5363,0.24414 -0.82276,0.24414 -0.68034,0 -1.02051,-0.343424 -1.02051,-1.030273 0,-0.218098 0.0277,-0.44759 0.083,-0.688477 l 0.57617,-2.53418 -0.82031,0 0.0732,-0.336914 c 0.19206,-0.0033 0.33773,-0.0179 0.43702,-0.04395 0.0993,-0.02604 0.18229,-0.06184 0.24902,-0.107422 0.0667,-0.04557 0.12776,-0.110672 0.1831,-0.195312 0.0553,-0.08463 0.10905,-0.192866 0.16114,-0.324707 0.0521,-0.131831 0.1302,-0.362137 0.23437,-0.690918 l 0.67383,0 -0.26855,1.206054 1.48437,0 -0.10742,0.493164 -1.48438,0 -0.43457,1.894532 c -0.0846,0.36784 -0.13834,0.632326 -0.16113,0.793457 -0.0228,0.161134 -0.0342,0.290528 -0.0342,0.388183 0,0.403647 0.16764,0.60547 0.50293,0.605469 0.14323,10e-7 0.29541,-0.05452 0.45654,-0.163574 0.16113,-0.109049 0.35238,-0.295409 0.57373,-0.559082 z"
           style="font-size:10px"
           id="path6168"
           inkscape:connector-curvature="0" />
        <path
           d="m 360.03973,15.485756 -0.22461,0.947266 -0.86425,0 0.22461,-0.947266 z m -1.57226,3.291016 c 0.0749,-0.325518 0.1123,-0.569658 0.1123,-0.732422 0,-0.146481 -0.035,-0.245764 -0.10498,-0.297852 -0.07,-0.05208 -0.20752,-0.08138 -0.4126,-0.08789 l 0.0537,-0.258789 1.1914,-0.04395 0.28809,0 -0.70313,3.134766 c -0.0716,0.319011 -0.10742,0.559897 -0.10742,0.722656 0,0.130209 0.0212,0.22461 0.0635,0.283203 0.0423,0.05859 0.10905,0.08789 0.20019,0.08789 0.0977,0 0.20182,-0.03988 0.3125,-0.119629 0.11068,-0.07975 0.26693,-0.231933 0.46875,-0.456543 l 0.27832,0.273437 c -0.31901,0.335287 -0.5778,0.563152 -0.77636,0.683594 -0.19857,0.120443 -0.42156,0.180664 -0.66895,0.180664 -0.21159,0 -0.38086,-0.07731 -0.50781,-0.231933 -0.12696,-0.154623 -0.19043,-0.352376 -0.19043,-0.593262 0,-0.247395 0.0456,-0.56315 0.13672,-0.947266 z"
           style="font-size:10px"
           id="path6170"
           inkscape:connector-curvature="0" />
        <path
           d="m 361.77802,18.972084 c 0.0716,-0.312497 0.10742,-0.553382 0.10742,-0.722656 0,-0.130205 -0.0212,-0.224606 -0.0635,-0.283203 -0.0423,-0.05859 -0.10905,-0.08789 -0.20019,-0.08789 -0.10092,4e-6 -0.20753,0.04151 -0.31983,0.124512 -0.1123,0.08301 -0.26611,0.233565 -0.46142,0.45166 l -0.27833,-0.273438 c 0.29948,-0.312495 0.54851,-0.534663 0.74708,-0.666503 0.19856,-0.131832 0.42317,-0.19775 0.67382,-0.197754 0.20508,4e-6 0.36703,0.06755 0.48584,0.202636 0.11882,0.135096 0.17822,0.311691 0.17823,0.529785 -10e-6,0.17253 -0.0391,0.364587 -0.11719,0.576172 l 0.0586,0.01953 c 0.31901,-0.449215 0.62256,-0.78206 0.91065,-0.998536 0.28808,-0.216466 0.58512,-0.324702 0.89111,-0.324707 0.30273,5e-6 0.53548,0.08708 0.69824,0.261231 0.16276,0.174158 0.24414,0.415857 0.24414,0.725098 0,0.205081 -0.0472,0.496422 -0.1416,0.874023 l -0.31738,1.279297 c -0.0879,0.354819 -0.13184,0.60547 -0.13184,0.751953 0,0.130209 0.0212,0.22461 0.0635,0.283203 0.0423,0.05859 0.10904,0.08789 0.20019,0.08789 0.0977,0 0.20182,-0.03988 0.3125,-0.119629 0.11068,-0.07975 0.26693,-0.231933 0.46875,-0.456543 l 0.27832,0.273437 c -0.27995,0.29948 -0.52409,0.518393 -0.73242,0.656739 -0.20834,0.138346 -0.44597,0.207519 -0.71289,0.207519 -0.21159,0 -0.38086,-0.07568 -0.50781,-0.227051 -0.12696,-0.151366 -0.19043,-0.344237 -0.19043,-0.578613 0,-0.211587 0.0537,-0.52246 0.16113,-0.932617 l 0.21485,-0.844727 c 0.0781,-0.305986 0.12939,-0.532223 0.1538,-0.678711 0.0244,-0.146481 0.0366,-0.265296 0.0366,-0.356445 -10e-6,-0.224606 -0.0374,-0.386552 -0.11231,-0.48584 -0.0749,-0.09928 -0.19694,-0.148921 -0.36621,-0.148926 -0.13672,5e-6 -0.28402,0.05453 -0.44189,0.163575 -0.15788,0.109053 -0.32553,0.273441 -0.50293,0.493164 -0.17742,0.21973 -0.31983,0.432946 -0.42725,0.639648 -0.10742,0.206709 -0.19531,0.461428 -0.26367,0.76416 l -0.46387,2.114258 -0.84473,0 z"
           style="font-size:10px"
           id="path6172"
           inkscape:connector-curvature="0" />
        <path
           d="m 367.38348,22.487709 c -0.0618,0.07487 -0.11393,0.148925 -0.15625,0.222168 -0.0423,0.07324 -0.0724,0.144042 -0.0903,0.212402 -0.0179,0.06836 -0.0269,0.149739 -0.0269,0.244141 0,0.244139 0.0879,0.422362 0.26367,0.534668 0.17578,0.112303 0.44108,0.168455 0.7959,0.168457 0.40038,-2e-6 0.72184,-0.09033 0.96435,-0.270996 0.24251,-0.180666 0.45003,-0.471193 0.62256,-0.871582 0.17252,-0.400391 0.34017,-1.005859 0.50293,-1.816406 l -0.0684,-0.01465 c -0.31576,0.432944 -0.60873,0.748699 -0.87891,0.947266 -0.27018,0.198568 -0.56152,0.297851 -0.87402,0.297851 -0.35482,0 -0.6307,-0.133463 -0.82764,-0.40039 -0.19694,-0.266927 -0.29541,-0.647786 -0.29541,-1.142578 0,-0.556639 0.10905,-1.091306 0.32715,-1.604004 0.2181,-0.512692 0.52083,-0.920406 0.90821,-1.223145 0.38736,-0.30273 0.81868,-0.454097 1.29394,-0.454101 0.20508,4e-6 0.39876,0.02442 0.58106,0.07324 0.18228,0.04883 0.3662,0.13184 0.55175,0.249023 l 0.44922,-0.322265 0.3125,0.07813 -0.50293,2.27539 c -0.0358,0.159508 -0.11719,0.561526 -0.24414,1.206055 -0.13347,0.683594 -0.2417,1.166992 -0.3247,1.450195 -0.083,0.283203 -0.18637,0.541178 -0.31006,0.773926 -0.12371,0.232746 -0.28321,0.435383 -0.47852,0.60791 -0.19531,0.172524 -0.43213,0.305988 -0.71045,0.400391 -0.27832,0.0944 -0.60791,0.141599 -0.98877,0.141601 -1.23047,-2e-6 -1.8457,-0.358074 -1.8457,-1.074218 0,-0.182293 0.0553,-0.348308 0.16601,-0.498047 0.11068,-0.14974 0.28809,-0.307618 0.53223,-0.473633 z m 1.40137,-0.922852 c 0.16601,1e-6 0.33122,-0.05697 0.49561,-0.170898 0.16438,-0.113931 0.34016,-0.294595 0.52734,-0.541992 0.18717,-0.247395 0.33284,-0.483397 0.43701,-0.708008 0.10416,-0.224607 0.19287,-0.504555 0.26612,-0.839844 0.0732,-0.335283 0.10985,-0.626624 0.10986,-0.874023 -10e-6,-0.253903 -0.0537,-0.438635 -0.16113,-0.554199 -0.10743,-0.115556 -0.28647,-0.173336 -0.53711,-0.17334 -0.33204,4e-6 -0.62989,0.134281 -0.89356,0.402832 -0.26367,0.268558 -0.47119,0.6307 -0.62256,1.086426 -0.15137,0.455731 -0.22705,0.909832 -0.22705,1.362304 0,0.338543 0.0488,0.591635 0.14649,0.759278 0.0976,0.167643 0.25065,0.251465 0.45898,0.251464 z"
           style="font-size:10px"
           id="path6174"
           inkscape:connector-curvature="0" />
      </g>
      <g
         style="font-size:12.44999981px;font-style:normal;font-weight:normal;text-align:start;text-anchor:start;fill:#000000;font-family:Cambria Math"
         id="text5862" />
      <g
         style="font-size:12.44999981px;font-style:normal;font-weight:normal;text-align:start;text-anchor:start;fill:#000000;font-family:Cambria Math"
         id="text5864">
        <path
           d="m 380.73773,20.688393 c -0.0423,0.192058 -0.07,0.344239 -0.083,0.456543 -0.013,0.112305 -0.0195,0.21403 -0.0195,0.305175 0,0.146485 0.0366,0.249838 0.10987,0.310059 0.0732,0.06022 0.19612,0.09684 0.36865,0.109863 l -0.0537,0.239258 -1.95313,0 0.0537,-0.239258 c 0.1237,-0.01953 0.21647,-0.05127 0.27832,-0.09521 0.0618,-0.04395 0.11394,-0.10498 0.15625,-0.183105 0.0423,-0.07812 0.0814,-0.173339 0.11719,-0.285645 0.0358,-0.112303 0.0895,-0.329588 0.16113,-0.651855 l 0.83008,-3.759766 c 0.0716,-0.325515 0.10742,-0.587559 0.10742,-0.786132 0,-0.152989 -0.0383,-0.259597 -0.11474,-0.319825 -0.0765,-0.06021 -0.19776,-0.09521 -0.36377,-0.10498 l 0.0537,-0.239258 1.95312,0 -0.0537,0.239258 c -0.1237,0.02605 -0.2124,0.05534 -0.26611,0.08789 -0.0537,0.03256 -0.10173,0.08139 -0.14404,0.146485 -0.0423,0.06511 -0.0863,0.166835 -0.13184,0.305176 -0.0456,0.138352 -0.10254,0.363775 -0.1709,0.676269 z"
           style="font-size:10px"
           id="path6178"
           inkscape:connector-curvature="0" />
        <path
           d="m 383.95062,19.013588 c 0.0716,-0.312497 0.10742,-0.553382 0.10742,-0.722656 0,-0.130205 -0.0212,-0.224606 -0.0635,-0.283203 -0.0423,-0.05859 -0.10905,-0.08789 -0.2002,-0.08789 -0.10091,4e-6 -0.20752,0.04151 -0.31982,0.124512 -0.11231,0.08301 -0.26612,0.233565 -0.46143,0.45166 l -0.27832,-0.273438 c 0.29948,-0.312495 0.5485,-0.534663 0.74707,-0.666504 0.19857,-0.131831 0.42318,-0.197749 0.67383,-0.197753 0.20508,4e-6 0.36702,0.06755 0.48584,0.202636 0.11881,0.135096 0.17822,0.311691 0.17822,0.529785 0,0.17253 -0.0391,0.364587 -0.11718,0.576172 l 0.0586,0.01953 c 0.31901,-0.449215 0.62256,-0.78206 0.91064,-0.998536 0.28809,-0.216466 0.58512,-0.324702 0.89112,-0.324707 0.30273,5e-6 0.53547,0.08708 0.69824,0.261231 0.16276,0.174158 0.24414,0.415857 0.24414,0.725097 0,0.205082 -0.0472,0.496423 -0.1416,0.874024 l -0.31738,1.279297 c -0.0879,0.354819 -0.13184,0.60547 -0.13184,0.751953 0,0.130209 0.0211,0.22461 0.0635,0.283203 0.0423,0.05859 0.10904,0.08789 0.20019,0.08789 0.0976,0 0.20182,-0.03988 0.3125,-0.119629 0.11067,-0.07975 0.26692,-0.231933 0.46875,-0.456543 l 0.27832,0.273437 c -0.27995,0.29948 -0.52409,0.518392 -0.73242,0.656739 -0.20834,0.138346 -0.44597,0.207519 -0.71289,0.207519 -0.21159,0 -0.38086,-0.07568 -0.50781,-0.227051 -0.12696,-0.151367 -0.19044,-0.344237 -0.19043,-0.578613 -10e-6,-0.211588 0.0537,-0.52246 0.16113,-0.932617 l 0.21484,-0.844727 c 0.0781,-0.305987 0.12939,-0.532223 0.15381,-0.678711 0.0244,-0.146481 0.0366,-0.265296 0.0366,-0.356445 0,-0.224606 -0.0374,-0.386552 -0.1123,-0.48584 -0.0749,-0.09928 -0.19695,-0.148921 -0.36621,-0.148926 -0.13672,5e-6 -0.28402,0.05453 -0.4419,0.163575 -0.15788,0.109053 -0.32552,0.273441 -0.50293,0.493164 -0.17741,0.21973 -0.31982,0.432945 -0.42724,0.639648 -0.10743,0.206709 -0.19532,0.461428 -0.26367,0.76416 l -0.46387,2.114258 -0.84473,0 z"
           style="font-size:10px"
           id="path6180"
           inkscape:connector-curvature="0" />
        <path
           d="m 389.69769,19.028236 c 0.0684,-0.299475 0.10254,-0.545243 0.10254,-0.737304 0,-0.130205 -0.0212,-0.224606 -0.0635,-0.283203 -0.0423,-0.05859 -0.10906,-0.08789 -0.2002,-0.08789 -0.10091,4e-6 -0.20752,0.04151 -0.31982,0.124512 -0.11231,0.08301 -0.26612,0.233565 -0.46143,0.45166 l -0.27832,-0.273438 c 0.29297,-0.305985 0.54118,-0.526525 0.74463,-0.661621 0.20345,-0.135086 0.42887,-0.202632 0.67627,-0.202636 0.20182,4e-6 0.36214,0.06674 0.48096,0.200195 0.11881,0.133468 0.17822,0.310876 0.17822,0.532226 0,0.182296 -0.0374,0.374353 -0.11231,0.576172 l 0.0586,0.01953 c 0.60221,-0.882158 1.20117,-1.323238 1.79687,-1.323243 0.35482,5e-6 0.63069,0.135096 0.82764,0.405274 0.19693,0.270186 0.2954,0.651045 0.29541,1.142578 -10e-6,0.537112 -0.10824,1.065269 -0.32471,1.584473 -0.21647,0.519206 -0.51677,0.93099 -0.90088,1.235351 -0.38412,0.304362 -0.8138,0.456543 -1.28906,0.456543 -0.43294,0 -0.79264,-0.0944 -1.0791,-0.283203 l -0.22461,1.069336 c -0.0488,0.231119 -0.0732,0.421548 -0.0732,0.571289 0,0.143228 0.0366,0.244953 0.10986,0.305176 0.0732,0.06022 0.21566,0.100096 0.42725,0.119629 l -0.0391,0.239257 -1.50878,0 z m 0.49317,1.381836 c -0.0326,0.172528 -0.0529,0.304364 -0.061,0.395508 -0.008,0.09115 -0.0122,0.180665 -0.0122,0.268555 0,0.253907 0.0545,0.43864 0.16358,0.554199 0.10905,0.11556 0.29703,0.17334 0.56396,0.17334 0.16602,0 0.31901,-0.03255 0.45899,-0.09766 0.13997,-0.0651 0.27262,-0.159505 0.39795,-0.283203 0.12532,-0.123698 0.23844,-0.273437 0.33935,-0.449219 0.10091,-0.17578 0.19124,-0.380044 0.271,-0.612793 0.0798,-0.232746 0.13997,-0.472003 0.18066,-0.717774 0.0407,-0.245765 0.061,-0.476071 0.061,-0.690918 -10e-6,-0.341793 -0.048,-0.596513 -0.14404,-0.76416 -0.096,-0.167639 -0.24822,-0.25146 -0.45655,-0.251465 -0.16602,5e-6 -0.32959,0.05616 -0.49072,0.168457 -0.16114,0.112309 -0.33773,0.292159 -0.52979,0.539551 -0.19206,0.247399 -0.34179,0.49154 -0.44921,0.732422 -0.10743,0.240888 -0.19206,0.51758 -0.25391,0.830078 z"
           style="font-size:10px"
           id="path6182"
           inkscape:connector-curvature="0" />
        <path
           d="m 398.35004,20.532143 c -0.0716,0.312501 -0.10743,0.553386 -0.10743,0.722656 0,0.130209 0.0212,0.22461 0.0635,0.283203 0.0423,0.05859 0.10905,0.08789 0.2002,0.08789 0.0977,0 0.20181,-0.03988 0.3125,-0.119629 0.11067,-0.07975 0.26692,-0.231933 0.46875,-0.456543 l 0.27832,0.273437 c -0.29623,0.315756 -0.54851,0.538737 -0.75684,0.668946 -0.20834,0.130208 -0.42969,0.195312 -0.66406,0.195312 -0.20183,0 -0.36296,-0.06673 -0.4834,-0.200195 -0.12045,-0.133464 -0.18067,-0.310872 -0.18066,-0.532227 -1e-5,-0.17578 0.039,-0.367837 0.11718,-0.576172 l -0.0586,-0.01953 c -0.32227,0.452475 -0.62744,0.786133 -0.91553,1.000977 -0.28809,0.214843 -0.5835,0.322265 -0.88623,0.322265 -0.30273,0 -0.53548,-0.08708 -0.69824,-0.26123 -0.16276,-0.174153 -0.24414,-0.415852 -0.24414,-0.725098 0,-0.205077 0.0472,-0.496418 0.1416,-0.874023 l 0.31738,-1.279297 c 0.0879,-0.354814 0.13184,-0.605465 0.13184,-0.751953 0,-0.130205 -0.0212,-0.224606 -0.0635,-0.283203 -0.0423,-0.05859 -0.10905,-0.08789 -0.20019,-0.08789 -0.10091,4e-6 -0.20752,0.04151 -0.31983,0.124512 -0.1123,0.08301 -0.26611,0.233565 -0.46142,0.45166 l -0.27832,-0.273438 c 0.27669,-0.279943 0.48502,-0.472001 0.625,-0.576172 0.13997,-0.104162 0.27425,-0.178218 0.40283,-0.222168 0.12858,-0.04394 0.27262,-0.06591 0.43213,-0.06592 0.20833,4e-6 0.37272,0.06999 0.49316,0.20996 0.12044,0.139979 0.18066,0.328781 0.18067,0.566407 -10e-6,0.257165 -0.0505,0.577803 -0.15137,0.961914 l -0.21484,0.844726 c -0.0553,0.214846 -0.0952,0.382489 -0.11963,0.50293 -0.0244,0.120444 -0.0423,0.224611 -0.0537,0.3125 -0.0114,0.08789 -0.0171,0.161134 -0.0171,0.219727 -10e-6,0.22461 0.0374,0.386556 0.1123,0.485839 0.0749,0.09929 0.19694,0.148927 0.36621,0.148926 0.13672,1e-6 0.28402,-0.05452 0.4419,-0.163574 0.15787,-0.109049 0.32551,-0.273437 0.50293,-0.493164 0.1774,-0.219725 0.31982,-0.432941 0.42724,-0.639649 0.10742,-0.206703 0.19531,-0.461423 0.26367,-0.76416 l 0.46387,-2.114257 0.84473,0 z"
           style="font-size:10px"
           id="path6184"
           inkscape:connector-curvature="0" />
        <path
           d="m 403.08148,21.18644 c -0.2832,0.341797 -0.55583,0.594075 -0.81787,0.756835 -0.26205,0.162761 -0.5363,0.244141 -0.82275,0.244141 -0.68034,0 -1.02051,-0.343424 -1.02051,-1.030273 0,-0.218098 0.0277,-0.44759 0.083,-0.688477 l 0.57617,-2.53418 -0.82031,0 0.0732,-0.336914 c 0.19205,-0.0033 0.33773,-0.0179 0.43701,-0.04395 0.0993,-0.02604 0.18229,-0.06184 0.24902,-0.107422 0.0667,-0.04557 0.12777,-0.110672 0.18311,-0.195312 0.0553,-0.08463 0.10905,-0.192866 0.16113,-0.324707 0.0521,-0.131831 0.13021,-0.362137 0.23438,-0.690918 l 0.67383,0 -0.26856,1.206054 1.48438,0 -0.10743,0.493164 -1.48437,0 -0.43457,1.894532 c -0.0846,0.36784 -0.13835,0.632326 -0.16113,0.793457 -0.0228,0.161134 -0.0342,0.290528 -0.0342,0.388183 -1e-5,0.403647 0.16764,0.60547 0.50293,0.605469 0.14322,1e-6 0.2954,-0.05452 0.45654,-0.163574 0.16113,-0.109049 0.35237,-0.295409 0.57373,-0.559082 z"
           style="font-size:10px"
           id="path6186"
           inkscape:connector-curvature="0" />
      </g>
      <g
         style="font-size:17.54999924px;font-style:normal;font-weight:normal;text-align:start;text-anchor:start;fill:#000000;font-family:Cambria Math"
         id="text5866"
         transform="translate(-7.6785714,0.35714286)">
        <path
           d="m 413.72125,2.3733001 c 1.78242,0.4684721 3.15637,1.6824601 4.12185,3.6419676 0.96548,1.9595314 1.44821,4.2789623 1.44822,6.9583003 -10e-6,2.679348 -0.48274,4.998779 -1.44822,6.958301 -0.96548,1.959517 -2.33943,3.173505 -4.12185,3.641967 l -0.21423,-0.702685 c 1.38252,-0.519878 2.4294,-1.652457 3.14066,-3.397742 0.71125,-1.745288 1.06688,-3.909043 1.06688,-6.491271 0,-2.587932 -0.35563,-4.755972 -1.06688,-6.5041262 -0.71126,-1.7481312 -1.75814,-2.8821388 -3.14066,-3.4020262 z"
           style="font-size:17.54999924px;font-style:normal;font-weight:normal;text-align:start;text-anchor:start;fill:#000000;font-family:Cambria Math"
           id="path6189"
           inkscape:connector-curvature="0" />
      </g>
      <g
         style="font-size:17.54999924px;font-style:normal;font-weight:normal;text-align:start;text-anchor:start;fill:#000000;font-family:Cambria Math"
         id="text5868"
         transform="translate(-12.321428,0.17857143)">
        <path
           d="m 428.04828,11.258259 0,-1.139721 10.55743,0 0,1.139721 z m 0,3.556275 0,-1.139722 10.55743,0 0,1.139722 z"
           style="font-size:17.54999924px;font-style:normal;font-weight:normal;text-align:start;text-anchor:start;fill:#000000;font-family:Cambria Math"
           id="path6192"
           inkscape:connector-curvature="0" />
      </g>
      <g
         style="font-size:17.54999924px;font-style:normal;font-weight:normal;text-align:start;text-anchor:start;fill:#000000;font-family:Cambria Math"
         id="text5870"
         transform="translate(-12.321428,0.17857143)">
        <path
           d="m 447.44177,6.4967408 -0.0943,0.4198975 c -0.25137,0.028576 -0.44704,0.1028432 -0.587,0.2228027 -0.13997,0.1199816 -0.23852,0.2870835 -0.29564,0.5013061 -0.0571,0.2142438 -0.0857,0.5013162 -0.0857,0.8612183 0,0.085703 0.009,0.3427827 0.0257,0.7712402 l 0.23994,6.2727534 0,0.685547 0.0857,0 3.71052,-6.692651 c 0.21708,-0.3941804 0.3799,-0.7326688 0.48845,-1.0154663 0.10854,-0.2827781 0.16281,-0.5327168 0.16282,-0.7498169 -1e-5,-0.4798718 -0.28565,-0.7655161 -0.85693,-0.8569335 l 0.0943,-0.4198975 3.50486,0 -0.0943,0.4198975 c -0.15425,0.022863 -0.30136,0.08142 -0.44132,0.1756714 -0.13997,0.094274 -0.29708,0.251378 -0.47131,0.4713134 -0.17425,0.2199567 -0.44419,0.6441384 -0.8098,1.2725464 l -5.48438,9.4948235 -1.13972,0 -0.57414,-9.5548089 c -0.0229,-0.3713281 -0.0643,-0.6898214 -0.12426,-0.9554809 -0.06,-0.2656388 -0.15425,-0.4727308 -0.28279,-0.6212768 -0.12854,-0.148524 -0.33277,-0.2427866 -0.61271,-0.2827881 l 0.0943,-0.4198975 z"
           style="font-size:17.54999924px;font-style:normal;font-weight:normal;text-align:start;text-anchor:start;fill:#000000;font-family:Cambria Math"
           id="path6195"
           inkscape:connector-curvature="0" />
      </g>
      <g
         style="font-size:12.44999981px;font-style:normal;font-weight:normal;text-align:start;text-anchor:start;fill:#000000;font-family:Cambria Math"
         id="text5872"
         transform="translate(-12.321428,0.17857143)">
        <path
           d="m 455.31918,15.40519 c 0.62825,6e-6 1.11247,0.182298 1.45264,0.546875 0.34016,0.364589 0.51025,0.891932 0.51025,1.582031 0,0.504561 -0.0863,1.071781 -0.25879,1.70166 -0.17253,0.629885 -0.42236,1.175132 -0.74951,1.635742 -0.32715,0.460613 -0.70068,0.802409 -1.1206,1.025391 -0.41993,0.222982 -0.85938,0.334472 -1.31836,0.334472 -0.6543,0 -1.15072,-0.182291 -1.48926,-0.546875 -0.33854,-0.364582 -0.50781,-0.885415 -0.50781,-1.5625 0,-0.488278 0.0822,-1.040036 0.24658,-1.655273 0.16439,-0.61523 0.40202,-1.158036 0.71289,-1.628418 0.31087,-0.470372 0.68196,-0.826817 1.11328,-1.069336 0.43131,-0.242506 0.90088,-0.363763 1.40869,-0.363769 z m 1.03516,1.923828 c -10e-6,-0.996088 -0.36296,-1.494135 -1.08887,-1.494141 -0.35156,6e-6 -0.67953,0.125332 -0.98388,0.375977 -0.30437,0.250656 -0.5713,0.608729 -0.80079,1.074218 -0.22949,0.4655 -0.40771,0.976567 -0.53466,1.533203 -0.12696,0.556644 -0.19043,1.04818 -0.19043,1.47461 0,1.00586 0.36621,1.508789 1.09863,1.508789 0.44596,0 0.8553,-0.205078 1.22803,-0.615234 0.37271,-0.410155 0.67789,-0.985513 0.91552,-1.726075 0.23763,-0.740556 0.35644,-1.451005 0.35645,-2.131347 z"
           style="font-size:10px"
           id="path6198"
           inkscape:connector-curvature="0" />
        <path
           d="m 462.34067,20.571205 c -0.0716,0.312501 -0.10743,0.553387 -0.10742,0.722656 -10e-6,0.130209 0.0211,0.22461 0.0635,0.283204 0.0423,0.05859 0.10905,0.08789 0.2002,0.08789 0.0976,1e-6 0.20182,-0.03988 0.3125,-0.119629 0.11067,-0.07975 0.26692,-0.231933 0.46875,-0.456543 l 0.27832,0.273438 c -0.29623,0.315755 -0.54851,0.538737 -0.75684,0.668945 -0.20834,0.130208 -0.42969,0.195312 -0.66406,0.195313 -0.20183,-1e-6 -0.36296,-0.06673 -0.4834,-0.200196 -0.12045,-0.133463 -0.18067,-0.310872 -0.18066,-0.532226 -1e-5,-0.175781 0.0391,-0.367838 0.11718,-0.576172 l -0.0586,-0.01953 c -0.32227,0.452474 -0.62744,0.786133 -0.91553,1.000976 -0.28808,0.214844 -0.58349,0.322266 -0.88623,0.322266 -0.30273,0 -0.53548,-0.08708 -0.69824,-0.261231 -0.16276,-0.174153 -0.24414,-0.415852 -0.24414,-0.725097 0,-0.205077 0.0472,-0.496418 0.1416,-0.874024 l 0.31738,-1.279297 c 0.0879,-0.354814 0.13184,-0.605465 0.13184,-0.751953 0,-0.130204 -0.0212,-0.224605 -0.0635,-0.283203 -0.0423,-0.05859 -0.10905,-0.08789 -0.20019,-0.08789 -0.10091,5e-6 -0.20752,0.04151 -0.31983,0.124512 -0.1123,0.08301 -0.26611,0.233565 -0.46142,0.45166 l -0.27832,-0.273437 c 0.27669,-0.279944 0.48502,-0.472001 0.625,-0.576172 0.13997,-0.104162 0.27425,-0.178218 0.40283,-0.222168 0.12858,-0.04394 0.27262,-0.06591 0.43213,-0.06592 0.20833,5e-6 0.37272,0.06999 0.49316,0.209961 0.12044,0.139978 0.18067,0.32878 0.18067,0.566406 0,0.257165 -0.0505,0.577803 -0.15137,0.961914 l -0.21484,0.844727 c -0.0553,0.214846 -0.0952,0.382489 -0.11963,0.50293 -0.0244,0.120444 -0.0423,0.22461 -0.0537,0.3125 -0.0114,0.08789 -0.0171,0.161134 -0.0171,0.219726 0,0.22461 0.0374,0.386557 0.1123,0.48584 0.0749,0.09928 0.19694,0.148926 0.36621,0.148926 0.13672,0 0.28402,-0.05452 0.4419,-0.163575 0.15787,-0.109048 0.32551,-0.273436 0.50293,-0.493164 0.1774,-0.219725 0.31982,-0.432941 0.42724,-0.639648 0.10742,-0.206704 0.19531,-0.461424 0.26367,-0.76416 l 0.46387,-2.114258 0.84473,0 z"
           style="font-size:10px"
           id="path6200"
           inkscape:connector-curvature="0" />
        <path
           d="m 467.07211,21.225502 c -0.2832,0.341797 -0.55583,0.594076 -0.81787,0.756836 -0.26204,0.16276 -0.5363,0.24414 -0.82275,0.244141 -0.68034,-1e-6 -1.02051,-0.343425 -1.02051,-1.030274 0,-0.218098 0.0277,-0.44759 0.083,-0.688476 l 0.57617,-2.53418 -0.82031,0 0.0732,-0.336914 c 0.19206,-0.0033 0.33773,-0.0179 0.43701,-0.04394 0.0993,-0.02604 0.18229,-0.06185 0.24902,-0.107422 0.0667,-0.04557 0.12777,-0.110673 0.18311,-0.195313 0.0553,-0.08463 0.10905,-0.192866 0.16113,-0.324707 0.0521,-0.131831 0.13021,-0.362136 0.23438,-0.690918 l 0.67383,0 -0.26856,1.206055 1.48438,0 -0.10743,0.493164 -1.48437,0 -0.43457,1.894531 c -0.0846,0.367841 -0.13835,0.632326 -0.16113,0.793457 -0.0228,0.161134 -0.0342,0.290529 -0.0342,0.388184 0,0.403646 0.16764,0.605469 0.50293,0.605469 0.14322,0 0.2954,-0.05453 0.45654,-0.163575 0.16113,-0.109048 0.35237,-0.295409 0.57373,-0.559082 z"
           style="font-size:10px"
           id="path6202"
           inkscape:connector-curvature="0" />
        <path
           d="m 468.96176,19.067299 c 0.0684,-0.299476 0.10254,-0.545244 0.10254,-0.737305 0,-0.130204 -0.0212,-0.224605 -0.0635,-0.283203 -0.0423,-0.05859 -0.10905,-0.08789 -0.20019,-0.08789 -0.10091,5e-6 -0.20752,0.04151 -0.31983,0.124512 -0.1123,0.08301 -0.26611,0.233565 -0.46142,0.45166 l -0.27832,-0.273437 c 0.29297,-0.305986 0.54118,-0.526526 0.74463,-0.661621 0.20345,-0.135087 0.42887,-0.202632 0.67627,-0.202637 0.20182,5e-6 0.36214,0.06674 0.48095,0.200195 0.11882,0.133468 0.17822,0.310877 0.17823,0.532227 -1e-5,0.182295 -0.0374,0.374352 -0.11231,0.576172 l 0.0586,0.01953 c 0.60221,-0.882157 1.20116,-1.323237 1.79687,-1.323242 0.35481,5e-6 0.63069,0.135096 0.82764,0.405273 0.19693,0.270187 0.2954,0.651046 0.29541,1.142578 -10e-6,0.537112 -0.10824,1.065269 -0.32471,1.584473 -0.21648,0.519207 -0.51677,0.93099 -0.90088,1.235352 -0.38412,0.304362 -0.8138,0.456542 -1.28906,0.456543 -0.43295,-1e-6 -0.79265,-0.0944 -1.0791,-0.283204 l -0.22461,1.069336 c -0.0488,0.231119 -0.0732,0.421549 -0.0732,0.571289 -1e-5,0.143228 0.0366,0.244953 0.10986,0.305176 0.0732,0.06022 0.21566,0.100096 0.42725,0.119629 l -0.0391,0.239258 -1.50879,0 z m 0.49317,1.381836 c -0.0326,0.172527 -0.0529,0.304363 -0.061,0.395508 -0.008,0.09115 -0.0122,0.180665 -0.0122,0.268554 0,0.253907 0.0545,0.43864 0.16358,0.5542 0.10905,0.11556 0.29703,0.17334 0.56396,0.173339 0.16602,1e-6 0.31901,-0.03255 0.45899,-0.09766 0.13997,-0.0651 0.27262,-0.159505 0.39795,-0.283203 0.12532,-0.123697 0.23844,-0.273437 0.33935,-0.449219 0.10091,-0.17578 0.19124,-0.380044 0.271,-0.612793 0.0797,-0.232745 0.13997,-0.472003 0.18066,-0.717773 0.0407,-0.245766 0.061,-0.476071 0.061,-0.690918 -10e-6,-0.341793 -0.048,-0.596513 -0.14405,-0.76416 -0.096,-0.167639 -0.24821,-0.251461 -0.45654,-0.251465 -0.16602,4e-6 -0.32959,0.05616 -0.49072,0.168457 -0.16114,0.112309 -0.33773,0.292159 -0.52979,0.539551 -0.19206,0.247399 -0.3418,0.491539 -0.44922,0.732422 -0.10742,0.240887 -0.19205,0.51758 -0.2539,0.830078 z"
           style="font-size:10px"
           id="path6204"
           inkscape:connector-curvature="0" />
        <path
           d="m 477.61411,20.571205 c -0.0716,0.312501 -0.10743,0.553387 -0.10743,0.722656 0,0.130209 0.0212,0.22461 0.0635,0.283204 0.0423,0.05859 0.10904,0.08789 0.2002,0.08789 0.0977,1e-6 0.20181,-0.03988 0.3125,-0.119629 0.11067,-0.07975 0.26692,-0.231933 0.46875,-0.456543 l 0.27832,0.273438 c -0.29623,0.315755 -0.54851,0.538737 -0.75684,0.668945 -0.20834,0.130208 -0.42969,0.195312 -0.66406,0.195313 -0.20183,-1e-6 -0.36296,-0.06673 -0.4834,-0.200196 -0.12045,-0.133463 -0.18067,-0.310872 -0.18067,-0.532226 0,-0.175781 0.0391,-0.367838 0.11719,-0.576172 l -0.0586,-0.01953 c -0.32227,0.452474 -0.62745,0.786133 -0.91553,1.000976 -0.28809,0.214844 -0.5835,0.322266 -0.88623,0.322266 -0.30274,0 -0.53548,-0.08708 -0.69824,-0.261231 -0.16276,-0.174153 -0.24414,-0.415852 -0.24414,-0.725097 0,-0.205077 0.0472,-0.496418 0.1416,-0.874024 l 0.31738,-1.279297 c 0.0879,-0.354814 0.13184,-0.605465 0.13184,-0.751953 0,-0.130204 -0.0212,-0.224605 -0.0635,-0.283203 -0.0423,-0.05859 -0.10905,-0.08789 -0.20019,-0.08789 -0.10092,5e-6 -0.20752,0.04151 -0.31983,0.124512 -0.1123,0.08301 -0.26611,0.233565 -0.46142,0.45166 L 473.327,18.261635 c 0.27669,-0.279944 0.48502,-0.472001 0.625,-0.576172 0.13997,-0.104162 0.27425,-0.178218 0.40283,-0.222168 0.12858,-0.04394 0.27262,-0.06591 0.43213,-0.06592 0.20833,5e-6 0.37272,0.06999 0.49316,0.209961 0.12044,0.139978 0.18066,0.32878 0.18066,0.566406 0,0.257165 -0.0505,0.577803 -0.15136,0.961914 l -0.21485,0.844727 c -0.0553,0.214846 -0.0952,0.382489 -0.11962,0.50293 -0.0244,0.120444 -0.0423,0.22461 -0.0537,0.3125 -0.0114,0.08789 -0.0171,0.161134 -0.0171,0.219726 0,0.22461 0.0374,0.386557 0.11231,0.48584 0.0749,0.09928 0.19694,0.148926 0.36621,0.148926 0.13672,0 0.28401,-0.05452 0.44189,-0.163575 0.15788,-0.109048 0.32552,-0.273436 0.50293,-0.493164 0.17741,-0.219725 0.31982,-0.432941 0.42725,-0.639648 0.10742,-0.206704 0.19531,-0.461424 0.26367,-0.76416 l 0.46387,-2.114258 0.84473,0 z"
           style="font-size:10px"
           id="path6206"
           inkscape:connector-curvature="0" />
        <path
           d="m 482.34555,21.225502 c -0.28321,0.341797 -0.55583,0.594076 -0.81787,0.756836 -0.26205,0.16276 -0.5363,0.24414 -0.82275,0.244141 -0.68034,-1e-6 -1.02051,-0.343425 -1.02051,-1.030274 0,-0.218098 0.0277,-0.44759 0.083,-0.688476 l 0.57617,-2.53418 -0.82032,0 0.0732,-0.336914 c 0.19205,-0.0033 0.33772,-0.0179 0.43701,-0.04394 0.0993,-0.02604 0.18229,-0.06185 0.24902,-0.107422 0.0667,-0.04557 0.12777,-0.110673 0.18311,-0.195313 0.0553,-0.08463 0.10905,-0.192866 0.16113,-0.324707 0.0521,-0.131831 0.13021,-0.362136 0.23438,-0.690918 l 0.67382,0 -0.26855,1.206055 1.48437,0 -0.10742,0.493164 -1.48437,0 -0.43457,1.894531 c -0.0846,0.367841 -0.13835,0.632326 -0.16114,0.793457 -0.0228,0.161134 -0.0342,0.290529 -0.0342,0.388184 0,0.403646 0.16765,0.605469 0.50293,0.605469 0.14323,0 0.29541,-0.05453 0.45655,-0.163575 0.16113,-0.109048 0.35237,-0.295409 0.57373,-0.559082 z"
           style="font-size:10px"
           id="path6208"
           inkscape:connector-curvature="0" />
      </g>
      <g
         style="font-size:13.80000019px;font-style:normal;font-weight:normal;text-align:start;text-anchor:start;fill:#000000;font-family:Calibri"
         id="text5874" />
      <g
         transform="translate(-237.41426,-1.0632093)"
         style="font-size:17.54999924px;font-style:normal;font-weight:normal;text-align:start;text-anchor:start;fill:#000000;font-family:Cambria Math"
         id="text5856-1">
        <path
           inkscape:connector-curvature="0"
           d="m 296.28831,12.626585 0,-1.139722 10.55742,0 0,1.139722 z"
           style="font-size:17.54999924px;font-style:normal;font-weight:normal;text-align:start;text-anchor:start;fill:#000000;font-family:Cambria Math"
           id="path6152-6" />
      </g>
    </g>
  </g>
</svg>
