<!-- Created with Inkscape (http://www.inkscape.org/) -->
<svg xmlns:rdf="http://www.w3.org/1999/02/22-rdf-syntax-ns#" xmlns="http://www.w3.org/2000/svg" height="100%" width="100%" version="1.1" xmlns:cc="http://creativecommons.org/ns#" xmlns:dc="http://purl.org/dc/elements/1.1/" viewBox="0 0 292.41 189">
<defs>7</defs>
<metadata>
<rdf:RDF>
<cc:Work rdf:about="">
<dc:format>image/svg+xml</dc:format>
<dc:type rdf:resource="http://purl.org/dc/dcmitype/StillImage"/>
<dc:title/>
</cc:Work>
</rdf:RDF>
</metadata>
<g transform="translate(-228.79652,-427.60153)">
<rect height="189" width="292" y="428" x="229" fill="#d9d9d9"/>
<rect height="0.5" width="286" y="454" x="229" fill="#b3b0b0"/>
<rect height="0.5" width="288" y="589" x="229" fill="#b3b0b0"/>
<rect height="0.5" width="281" y="452" x="229" fill="#F00"/>
<rect height="0.5" width="282" y="614" x="229" fill="#F00"/>
<rect height="0.5" width="281" y="431" x="229" fill="#00F"/>
<rect height="0.5" width="283" y="593" x="229" fill="#00F"/>
<rect height="9" width="279" y="517" x="229" fill="#ccc9c9"/>
<text font-size="5.75446463px" transform="matrix(0,-1,1,0,0,0)" y="244.79648" x="-465.60129" font-family="DroidSans" fill="#b3b0b0">1</text>
<text font-size="5.75446463px" transform="matrix(0,-1,1,0,0,0)" y="244.79648" x="-585.60046" font-family="DroidSans" fill="#b3b0b0">1</text>
<text font-size="5.75446463px" transform="matrix(0,-1,1,0,0,0)" y="280.79642" x="-465.60129" font-family="DroidSans" fill="#b3b0b0">5</text>
<text font-size="5.75446463px" transform="matrix(0,-1,1,0,0,0)" y="280.79642" x="-585.60046" font-family="DroidSans" fill="#b3b0b0">5</text>
<g stroke-linejoin="round" stroke="#393939" stroke-miterlimit="4" stroke-dasharray="none" stroke-width="1" fill="#808080">
<rect y="597" x="243" height="3.45" width="262"/>
<rect y="606" x="243" height="3.45" width="262"/>
<rect transform="matrix(0,1,-1,0,0,0)" height="4.01" width="42.1" y="-244" x="532"/>
<rect transform="matrix(0,1,-1,0,0,0)" height="4.01" width="42.1" y="-253" x="532"/>
<rect transform="matrix(0,1,-1,0,0,0)" height="4.01" width="42.1" y="-262" x="532"/>
<rect transform="matrix(0,1,-1,0,0,0)" height="4.01" width="42.1" y="-271" x="532"/>
<rect transform="matrix(0,1,-1,0,0,0)" height="4.01" width="42.1" y="-280" x="532"/>
<rect transform="matrix(0,1,-1,0,0,0)" height="4.01" width="42.1" y="-289" x="532"/>
<rect transform="matrix(0,1,-1,0,0,0)" height="4.01" width="42.1" y="-298" x="532"/>
<rect transform="matrix(0,1,-1,0,0,0)" height="4.01" width="42.1" y="-307" x="532"/>
<rect transform="matrix(0,1,-1,0,0,0)" height="4.01" width="42.1" y="-317" x="532"/>
<rect transform="matrix(0,1,-1,0,0,0)" height="4.01" width="42.1" y="-325" x="532"/>
<rect transform="matrix(0,1,-1,0,0,0)" height="4.01" width="42.1" y="-334" x="532"/>
<rect transform="matrix(0,1,-1,0,0,0)" height="4.01" width="42.1" y="-343" x="532"/>
<rect transform="matrix(0,1,-1,0,0,0)" height="4.01" width="42.1" y="-352" x="532"/>
<rect transform="matrix(0,1,-1,0,0,0)" height="4.01" width="42.1" y="-361" x="532"/>
<rect transform="matrix(0,1,-1,0,0,0)" height="4.01" width="42.1" y="-370" x="532"/>
<rect transform="matrix(0,1,-1,0,0,0)" height="4.01" width="42.1" y="-379" x="532"/>
<rect transform="matrix(0,1,-1,0,0,0)" height="4.01" width="42.1" y="-389" x="532"/>
<rect transform="matrix(0,1,-1,0,0,0)" height="4.01" width="42.1" y="-398" x="532"/>
<rect transform="matrix(0,1,-1,0,0,0)" height="4.01" width="42.1" y="-407" x="532"/>
<rect transform="matrix(0,1,-1,0,0,0)" height="4.01" width="42.1" y="-416" x="532"/>
<rect transform="matrix(0,1,-1,0,0,0)" height="4.01" width="42.1" y="-425" x="532"/>
<rect transform="matrix(0,1,-1,0,0,0)" height="4.01" width="42.1" y="-433" x="532"/>
<rect transform="matrix(0,1,-1,0,0,0)" height="4.01" width="42.1" y="-443" x="532"/>
<rect transform="matrix(0,1,-1,0,0,0)" height="4.01" width="42.1" y="-451" x="532"/>
<rect transform="matrix(0,1,-1,0,0,0)" height="4.01" width="42.1" y="-461" x="532"/>
<rect transform="matrix(0,1,-1,0,0,0)" height="4.01" width="42.1" y="-470" x="532"/>
<rect transform="matrix(0,1,-1,0,0,0)" height="4.01" width="42.1" y="-479" x="532"/>
<rect transform="matrix(0,1,-1,0,0,0)" height="4.01" width="42.1" y="-488" x="532"/>
<rect transform="matrix(0,1,-1,0,0,0)" height="4.01" width="42.1" y="-497" x="532"/>
<rect transform="matrix(0,1,-1,0,0,0)" height="4.01" width="42.1" y="-506" x="532"/>
<rect y="435" x="243" height="3.45" width="262"/>
<rect y="444" x="243" height="3.45" width="262"/>
<rect transform="matrix(0,1,-1,0,0,0)" height="4.01" width="42.1" y="-244" x="468"/>
<rect transform="matrix(0,1,-1,0,0,0)" height="4.01" width="42.1" y="-253" x="468"/>
<rect transform="matrix(0,1,-1,0,0,0)" height="4.01" width="42.1" y="-262" x="468"/>
<rect transform="matrix(0,1,-1,0,0,0)" height="4.01" width="42.1" y="-271" x="468"/>
<rect transform="matrix(0,1,-1,0,0,0)" height="4.01" width="42.1" y="-280" x="468"/>
<rect transform="matrix(0,1,-1,0,0,0)" height="4.01" width="42.1" y="-289" x="468"/>
<rect transform="matrix(0,1,-1,0,0,0)" height="4.01" width="42.1" y="-298" x="468"/>
<rect transform="matrix(0,1,-1,0,0,0)" height="4.01" width="42.1" y="-307" x="468"/>
<rect transform="matrix(0,1,-1,0,0,0)" height="4.01" width="42.1" y="-317" x="468"/>
<rect transform="matrix(0,1,-1,0,0,0)" height="4.01" width="42.1" y="-325" x="468"/>
<rect transform="matrix(0,1,-1,0,0,0)" height="4.01" width="42.1" y="-334" x="468"/>
<rect transform="matrix(0,1,-1,0,0,0)" height="4.01" width="42.1" y="-343" x="468"/>
<rect transform="matrix(0,1,-1,0,0,0)" height="4.01" width="42.1" y="-352" x="468"/>
<rect transform="matrix(0,1,-1,0,0,0)" height="4.01" width="42.1" y="-361" x="468"/>
<rect transform="matrix(0,1,-1,0,0,0)" height="4.01" width="42.1" y="-370" x="468"/>
<rect transform="matrix(0,1,-1,0,0,0)" height="4.01" width="42.1" y="-379" x="468"/>
<rect transform="matrix(0,1,-1,0,0,0)" height="4.01" width="42.1" y="-389" x="468"/>
<rect transform="matrix(0,1,-1,0,0,0)" height="4.01" width="42.1" y="-398" x="468"/>
<rect transform="matrix(0,1,-1,0,0,0)" height="4.01" width="42.1" y="-407" x="468"/>
<rect transform="matrix(0,1,-1,0,0,0)" height="4.01" width="42.1" y="-416" x="468"/>
<rect transform="matrix(0,1,-1,0,0,0)" height="4.01" width="42.1" y="-425" x="468"/>
<rect transform="matrix(0,1,-1,0,0,0)" height="4.01" width="42.1" y="-433" x="468"/>
<rect transform="matrix(0,1,-1,0,0,0)" height="4.01" width="42.1" y="-443" x="468"/>
<rect transform="matrix(0,1,-1,0,0,0)" height="4.01" width="42.1" y="-451" x="468"/>
<rect transform="matrix(0,1,-1,0,0,0)" height="4.01" width="42.1" y="-461" x="468"/>
<rect transform="matrix(0,1,-1,0,0,0)" height="4.01" width="42.1" y="-470" x="468"/>
<rect transform="matrix(0,1,-1,0,0,0)" height="4.01" width="42.1" y="-479" x="468"/>
<rect transform="matrix(0,1,-1,0,0,0)" height="4.01" width="42.1" y="-488" x="468"/>
<rect transform="matrix(0,1,-1,0,0,0)" height="4.01" width="42.1" y="-497" x="468"/>
<rect transform="matrix(0,1,-1,0,0,0)" height="4.01" width="42.1" y="-506" x="468"/>
</g>
<text font-size="5.75446463px" transform="matrix(0,-1,1,0,0,0)" y="325.79633" x="-465.60129" font-family="DroidSans" fill="#b3b0b0">10</text>
<text font-size="5.75446463px" transform="matrix(0,-1,1,0,0,0)" y="325.79633" x="-585.60046" font-family="DroidSans" fill="#b3b0b0">10</text>
<text font-size="5.75446463px" transform="matrix(0,-1,1,0,0,0)" y="370.79626" x="-465.60129" font-family="DroidSans" fill="#b3b0b0">15</text>
<text font-size="5.75446463px" transform="matrix(0,-1,1,0,0,0)" y="370.79626" x="-585.60046" font-family="DroidSans" fill="#b3b0b0">15</text>
<text font-size="5.75446463px" transform="matrix(0,-1,1,0,0,0)" y="415.79617" x="-465.60129" font-family="DroidSans" fill="#b3b0b0">20</text>
<text font-size="5.75446463px" transform="matrix(0,-1,1,0,0,0)" y="415.79617" x="-585.60046" font-family="DroidSans" fill="#b3b0b0">20</text>
<text font-size="5.75446463px" transform="matrix(0,-1,1,0,0,0)" y="460.79608" x="-465.60129" font-family="DroidSans" fill="#b3b0b0">25</text>
<text font-size="5.75446463px" transform="matrix(0,-1,1,0,0,0)" y="460.79608" x="-585.60046" font-family="DroidSans" fill="#b3b0b0">25</text>
<text font-size="5.75446463px" transform="matrix(0,-1,1,0,0,0)" y="505.79599" x="-465.60129" font-family="DroidSans" fill="#b3b0b0">30</text>
<text font-size="5.75446463px" transform="matrix(0,-1,1,0,0,0)" y="505.79599" x="-585.60046" font-family="DroidSans" fill="#b3b0b0">30</text>
<text font-size="5.75446463px" transform="matrix(0,-1,1,0,0,0)" y="235.79649" x="-573.60046" font-family="DroidSans" fill="#b3b0b0">A</text>
<text font-size="5.75446463px" transform="matrix(0,-1,1,0,0,0)" y="514.79602" x="-573.60046" font-family="DroidSans" fill="#b3b0b0">A</text>
<text font-size="5.75446463px" transform="matrix(0,-1,1,0,0,0)" y="235.79649" x="-564.60046" font-family="DroidSans" fill="#b3b0b0">B</text>
<text font-size="5.75446463px" transform="matrix(0,-1,1,0,0,0)" y="514.79602" x="-564.60046" font-family="DroidSans" fill="#b3b0b0">B</text>
<text font-size="5.75446463px" transform="matrix(0,-1,1,0,0,0)" y="235.79649" x="-555.60052" font-family="DroidSans" fill="#b3b0b0">C</text>
<text font-size="5.75446463px" transform="matrix(0,-1,1,0,0,0)" y="514.79602" x="-555.60052" font-family="DroidSans" fill="#b3b0b0">C</text>
<text font-size="5.75446463px" transform="matrix(0,-1,1,0,0,0)" y="235.79649" x="-546.60065" font-family="DroidSans" fill="#b3b0b0">D</text>
<text font-size="5.75446463px" transform="matrix(0,-1,1,0,0,0)" y="514.79602" x="-546.60065" font-family="DroidSans" fill="#b3b0b0">D</text>
<text font-size="5.75446463px" transform="matrix(0,-1,1,0,0,0)" y="235.79649" x="-537.60077" font-family="DroidSans" fill="#b3b0b0">E</text>
<text font-size="5.75446463px" transform="matrix(0,-1,1,0,0,0)" y="514.79602" x="-537.60077" font-family="DroidSans" fill="#b3b0b0">E</text>
<text font-size="5.75446463px" transform="matrix(0,-1,1,0,0,0)" y="235.79649" x="-510.60095" font-family="DroidSans" fill="#b3b0b0">F</text>
<text font-size="5.75446463px" transform="matrix(0,-1,1,0,0,0)" y="514.79602" x="-510.60095" font-family="DroidSans" fill="#b3b0b0">F</text>
<text font-size="5.75446463px" transform="matrix(0,-1,1,0,0,0)" y="235.79649" x="-501.60098" font-family="DroidSans" fill="#b3b0b0">G</text>
<text font-size="5.75446463px" transform="matrix(0,-1,1,0,0,0)" y="514.79602" x="-501.60098" font-family="DroidSans" fill="#b3b0b0">G</text>
<text font-size="5.75446463px" transform="matrix(0,-1,1,0,0,0)" y="235.79649" x="-492.60114" font-family="DroidSans" fill="#b3b0b0">H</text>
<text font-size="5.75446463px" transform="matrix(0,-1,1,0,0,0)" y="514.79602" x="-492.60114" font-family="DroidSans" fill="#b3b0b0">H</text>
<text font-size="5.75446463px" transform="matrix(0,-1,1,0,0,0)" y="235.79649" x="-482.60114" font-family="DroidSans" fill="#b3b0b0">I</text>
<text font-size="5.75446463px" transform="matrix(0,-1,1,0,0,0)" y="514.79602" x="-482.60114" font-family="DroidSans" fill="#b3b0b0">I</text>
<text font-size="5.75446463px" transform="matrix(0,-1,1,0,0,0)" y="235.79649" x="-473.60117" font-family="DroidSans" fill="#b3b0b0">J</text>
<text font-size="5.75446463px" transform="matrix(0,-1,1,0,0,0)" y="514.79602" x="-473.60117" font-family="DroidSans" fill="#b3b0b0">J</text>
</g>
<path style="direction:ltr;baseline-shift:baseline;block-progression:tb;text-indent:0;color:#000000;enable-background:accumulate;text-transform:none;text-align:start;" d="m20.8,21.6-0.531,0.531,7.88,7.88,0.531-0.531-7.88-7.88z" fill="#000"/>
<path stroke="#000" stroke-width="0.30000188pt" d="m19.2,20.6,2.9,0.772-2.12,2.12-0.777-2.89z" fill-rule="evenodd"/>
<path style="direction:ltr;baseline-shift:baseline;block-progression:tb;text-indent:0;color:#000000;enable-background:accumulate;text-transform:none;text-align:start;" d="M23.8,84.5,23.2,85,31.1,92.9,31.7,92.3,23.8,84.5z" fill="#000"/>
<path stroke="#000" stroke-width="0.3pt" d="m22.3,83.5,2.9,0.772-2.12,2.12-0.777-2.89z" fill-rule="evenodd"/>
<path style="direction:ltr;baseline-shift:baseline;block-progression:tb;text-indent:0;color:#000000;enable-background:accumulate;text-transform:none;text-align:start;" d="m207,90.7,0,5.47,0.281,0,0-5.47-0.281,0z" fill="#000"/>
<path stroke="#000" stroke-width="0.12pt" d="m207,90,0.6,1.04-1.2,0,0.6-1.04z" fill-rule="evenodd"/>
<path stroke="#000" stroke-width="0.12pt" d="m207,97-0.6-1.04,1.2,0-0.6,1.04z" fill-rule="evenodd"/>
<path stroke-linejoin="miter" d="m207,93.6,2.43,0" stroke="#000" stroke-linecap="butt" stroke-dasharray="none" stroke-miterlimit="4" stroke-width="0.30000001" fill="none"/>
<text style="letter-spacing:0px;word-spacing:0px;" font-weight="normal" xml:space="preserve" font-size="12px" font-stretch="normal" line-height="125%" font-variant="normal" y="32.315269" x="28.116339" font-family="Arial" font-style="normal" fill="#000000"><tspan font-size="9px" y="32.315269" x="28.116339">Strip of metal called a rail</tspan></text>
<text style="letter-spacing:0px;word-spacing:0px;" font-weight="normal" xml:space="preserve" font-size="12px" font-stretch="normal" line-height="125%" font-variant="normal" y="96.808685" x="32.121586" font-family="Arial" font-style="normal" fill="#000000"><tspan font-size="9px" y="96.808685" x="32.121586">Strip of metal called a node</tspan></text>
<text style="letter-spacing:0px;word-spacing:0px;" font-weight="normal" xml:space="preserve" font-size="12px" font-stretch="normal" line-height="125%" font-variant="normal" y="96.041847" x="209.20676" font-family="Arial" font-style="normal" fill="#000000"><tspan font-size="8px" y="96.041847" x="209.20676">&quot;valley&quot;</tspan></text>
</svg>
