<!-- Created with Inkscape (http://www.inkscape.org/) -->
<svg xmlns:rdf="http://www.w3.org/1999/02/22-rdf-syntax-ns#" xmlns="http://www.w3.org/2000/svg" height="100%" width="100%" version="1.1" xmlns:cc="http://creativecommons.org/ns#" xmlns:dc="http://purl.org/dc/elements/1.1/" viewBox="0 0 1064.2 223.16">
<metadata>
<rdf:RDF>
<cc:Work rdf:about="">
<dc:format>image/svg+xml</dc:format>
<dc:type rdf:resource="http://purl.org/dc/dcmitype/StillImage"/>
<dc:title/>
</cc:Work>
</rdf:RDF>
</metadata>
<path d="m847,215c0.004-54.7,0.008-109,0.0125-164-3.2-0.952-3.02,1.47-2.81,3.92-0.004,53.4-0.008,107-0.0122,160h2.81zm-5.62-1.4c1.41,2.81,2.82,5.62,4.22,8.44,1.4-2.81,2.81-5.62,4.21-8.44h-8.44zm8.45-161c-1.41-2.81-2.82-5.62-4.22-8.44-1.4,2.81-2.81,5.62-4.21,8.44h8.44z" fill-rule="nonzero" fill="#000"/>
<path d="M1000,126h-316c-1.24,5.26,6.19,1.85,9.24,2.81h307v-2.81zm-1.41,5.62c1.82-1.8,11.6-3.59,6.08-5.39-4.12-2.65-7.58-4.22-6.08,2.24v3.16zm-313-8.44c-1.82,1.8-11.6,3.61-6.07,5.4,4.12,2.64,7.58,4.2,6.07-2.25v-3.16z" fill-rule="nonzero" fill="#000"/>
<path d="m166,216,0-164-2.81,0,0,164,2.81,0zm-5.62-1.41,4.22,8.44,4.21-8.44-8.44,0zm8.44-161-4.21-8.44-4.22,8.44,8.44,0z" fill-rule="nonzero" fill="#000"/>
<path d="m323,127-316-0.0125,0,2.81,316,0.0125,0-2.81zm-1.4,5.62,8.44-4.22-8.44-4.21,0,8.44zm-313-8.45-8.44,4.22,8.44,4.21,0-8.44z" fill-rule="nonzero" fill="#000"/>
<path stroke-linejoin="round" d="m12.1,158,291-55.6" stroke="#17375e" stroke-linecap="butt" stroke-miterlimit="10" stroke-dasharray="none" stroke-width="7.5" fill="none"/>
<path d="m504,216,0-164-2.81,0,0,164,2.81,0zm-5.62-1.41,4.22,8.44,4.21-8.44-8.44,0zm8.44-161-4.21-8.44-4.22,8.44,8.44,0z" fill-rule="nonzero" fill="#000"/>
<path d="M661,126h-316c-1.24,5.26,6.19,1.85,9.24,2.81h307v-2.81zm-1.41,5.62c1.82-1.8,11.6-3.59,6.08-5.39-4.12-2.65-7.58-4.22-6.08,2.24v3.16zm-313-8.44c-1.82,1.8-11.6,3.61-6.07,5.4,4.12,2.64,7.58,4.2,6.07-2.25v-3.16z" fill-rule="nonzero" fill="#000"/>
<path stroke-linejoin="round" d="M451,218c31.1-54.2,62.3-108,93.4-162" stroke="#17375e" stroke-linecap="butt" stroke-miterlimit="10" stroke-dasharray="none" stroke-width="7.5" fill="none"/>
<path stroke-linejoin="round" d="m701,134c44.6-1.78,89.3-3.36,134-5.27,6.55-1.1,13.5-0.767,19.5-3.93,7.37-3.18,14.9-7.03,19.7-13.8,3.52-4.52,7.43-8.83,9.17-14.4,7.18-15,10.4-31.4,13.5-47.7" stroke="#385d8a" stroke-linecap="butt" stroke-miterlimit="10" stroke-dasharray="none" stroke-width="7.5" fill="none"/>
<path d="m66.6,23.1c-0.0342,0.565,0.079,1.61-0.716,1.61-2.89-0.003-5.78,0.0059-8.67-0.0045-0.717-0.0014-1.13-0.731-1.02-1.38v-17c0.283-0.788,1.4-0.538,2.07-0.614,0.601,0.0696,1.7-0.112,1.79,0.701v15.2h5.96c0.683,0.122,0.537,1.05,0.586,1.57z" fill-rule="nonzero" fill="#000"/>
<path d="m79.8,24.3c-0.343,0.844-1.44,0.434-2.15,0.538-0.579,0.0648-1.06-0.375-0.898-0.955-0.0425-0.153,0.103-0.786-0.11-0.503-1.28,1.37-3.27,1.97-5.11,1.64-1.57-0.211-3.14-1.26-3.5-2.87-0.463-1.6-0.0453-3.57,1.4-4.53,1.49-1.01,3.36-1.17,5.11-1.22,0.499-0.119,1.45,0.224,1.64-0.186,0.0088-0.916,0.0641-2.05-0.769-2.65-0.984-0.594-2.21-0.43-3.28-0.219-0.976,0.229-1.85,0.747-2.76,1.12-0.902-0.0218-0.805-1.26-0.775-1.91,0.0977-0.864,0.957-1.21,1.66-1.48,2.18-0.85,4.66-0.96,6.89-0.264,1.26,0.448,2.26,1.57,2.47,2.91,0.31,1.57,0.137,3.17,0.18,4.76-0.000007,1.94-0.000013,3.89-0.00002,5.83zm-3.62-5.6c-1.36,0.0358-2.85-0.182-4.06,0.592-1.05,0.769-0.82,2.75,0.51,3.08,1.13,0.365,2.36-0.162,3.14-1,0.398-0.251,0.47-0.697,0.414-1.12v-1.54z" fill-rule="nonzero" fill="#000"/>
<path d="m91.9,12.4c-0.0757,0.556,0.155,1.43-0.443,1.72-0.597-0.0441-1.16-0.427-1.78-0.3-1.08,0.215-1.74,1.2-2.33,2.05-0.256,0.263-0.117,0.643-0.152,0.971-0.0037,2.49,0.0073,4.99-0.0055,7.48-0.21,0.558-0.978,0.448-1.46,0.51-0.692-0.0212-1.46,0.0893-2.09-0.272-0.243-0.263-0.102-0.654-0.14-0.979,0.0031-4.16-0.0061-8.31,0.0046-12.5,0.212-0.614,1.06-0.462,1.58-0.515,0.515,0.0525,1.36-0.108,1.56,0.515,0.0105,0.565,0.0016,1.13,0.0046,1.7,0.693-0.953,1.48-1.99,2.65-2.35,0.771-0.188,1.65-0.152,2.35,0.242,0.349,0.468,0.191,1.15,0.242,1.7z" fill-rule="nonzero" fill="#000"/>
<path d="m106,12.1c0.0471,0.575-0.118,1.54-0.889,1.38h-1.21c0.847,0.963,0.669,2.4,0.309,3.53-0.577,1.73-2.36,2.74-4.1,2.9-1.05,0.123-2.18,0.0976-3.11-0.452-0.605,0.514-0.646,1.68,0.242,1.91,0.899,0.224,1.84,0.138,2.76,0.206,1.64,0.0424,3.45,0.0795,4.73,1.24,1.66,1.52,1.32,4.44-0.414,5.77-1.93,1.52-4.53,1.64-6.88,1.46-1.53-0.168-3.31-0.527-4.24-1.89-0.872-1.39-0.366-3.27,0.829-4.3,0.334-0.32,0.9-0.555,0.191-0.809-1.22-0.968-1.08-2.86-0.161-3.98,0.243-0.441,1.04-0.755,0.34-1.18-0.974-1.32-0.97-3.17-0.369-4.65,0.772-1.84,2.82-2.78,4.73-2.8,0.899-0.0561,1.79,0.116,2.67,0.273,1.37,0.0134,2.75-0.0268,4.12,0.0202,0.47,0.259,0.41,0.932,0.438,1.39zm-4.73,3.09c0.0704-0.994-0.592-2.03-1.62-2.17-1.02-0.251-2.28,0.186-2.62,1.25-0.399,1.05-0.124,2.5,1.02,2.94,1.09,0.448,2.62,0.121,3.05-1.09,0.119-0.299,0.176-0.62,0.176-0.942zm0.864,10.4c0.038-0.978-1.05-1.38-1.86-1.39-0.912-0.0295-1.82-0.0516-2.74-0.0781-0.765,0.522-1.49,1.47-1.1,2.43,0.567,0.954,1.84,0.973,2.83,0.994,1.05-0.0019,2.41-0.284,2.79-1.41,0.0555-0.178,0.0825-0.365,0.0825-0.551z" fill-rule="nonzero" fill="#000"/>
<path d="m120,17.3c0.0904,0.701-0.46,1.42-1.21,1.32h-7.88c-0.0198,1.19,0.337,2.57,1.47,3.18,1.19,0.638,2.61,0.515,3.9,0.311,0.868-0.135,1.68-0.492,2.52-0.728,0.861-0.0032,0.514,1.2,0.572,1.76,0.103,0.854-0.746,1.21-1.43,1.37-2.21,0.623-4.62,0.797-6.84,0.105-1.59-0.489-2.9-1.76-3.42-3.34-0.611-1.82-0.65-3.8-0.302-5.68,0.363-1.9,1.49-3.74,3.28-4.6,1.68-0.812,3.66-0.862,5.44-0.389,1.7,0.469,3.08,1.86,3.54,3.56,0.316,1.01,0.37,2.08,0.351,3.13zm-3.57-1.05c0.0528-1.18-0.284-2.6-1.47-3.1-1.19-0.491-2.78-0.196-3.46,0.986-0.389,0.634-0.542,1.38-0.578,2.12,1.84,0.000003,3.67,0.000007,5.51,0.00001z" fill-rule="nonzero" fill="#000"/>
<path d="m138,12.4c-0.0758,0.556,0.155,1.43-0.443,1.72-0.597-0.0441-1.16-0.427-1.78-0.3-1.08,0.215-1.74,1.2-2.33,2.05-0.256,0.263-0.117,0.643-0.152,0.971-0.004,2.49,0.007,4.99-0.005,7.48-0.21,0.558-0.978,0.448-1.46,0.51-0.692-0.0212-1.46,0.0893-2.09-0.272-0.243-0.263-0.102-0.654-0.14-0.979,0.003-4.16-0.006-8.31,0.005-12.5,0.212-0.614,1.06-0.462,1.58-0.515,0.515,0.0525,1.36-0.108,1.56,0.515,0.0105,0.565,0.002,1.13,0.005,1.7,0.693-0.953,1.48-1.99,2.65-2.35,0.771-0.188,1.65-0.152,2.35,0.242,0.349,0.468,0.191,1.15,0.242,1.7z" fill-rule="nonzero" fill="#000"/>
<path d="m152,17.3c0.133,0.898-0.723,1.47-1.54,1.32h-7.54c-0.0587,1.37,0.518,2.96,1.94,3.4,1.92,0.583,3.98,0.079,5.8-0.61,1.12-0.142,0.66,1.59,0.626,2.27-0.538,0.884-1.8,0.885-2.71,1.15-2.41,0.401-5.17,0.41-7.2-1.13-1.99-1.57-2.32-4.35-2.18-6.72,0.112-2.41,1.25-4.97,3.54-6.02,1.92-0.867,4.25-0.884,6.18-0.038,1.92,0.841,2.93,2.94,3.04,4.95,0.0432,0.474,0.0332,0.951,0.0342,1.43zm-3.57-1.05c0.0965-1.3-0.436-2.95-1.88-3.24-1.27-0.354-2.77,0.235-3.25,1.51-0.109,0.497-0.853,1.91,0.0966,1.73,1.68,0.000003,3.36,0.000006,5.04,0.000009z" fill-rule="nonzero" fill="#000"/>
<path d="m164,20.5c0.0564,1.51-0.758,3.01-2.1,3.71-1.67,0.896-3.68,0.986-5.51,0.596-0.738-0.194-1.54-0.386-2.1-0.933-0.358-0.614-0.257-1.37-0.232-2.05-0.0557-0.946,0.919-0.619,1.38-0.24,1.23,0.634,2.73,1.05,4.08,0.533,0.863-0.276,1.21-1.51,0.548-2.16-0.841-0.784-2.03-0.967-3.04-1.46-1.12-0.473-2.22-1.21-2.66-2.39-0.601-1.58-0.228-3.58,1.15-4.64,1.5-1.17,3.55-1.35,5.37-1.04,0.744,0.154,1.55,0.321,2.14,0.832,0.332,0.538,0.221,1.22,0.228,1.83,0.141,0.818-0.659,0.919-1.15,0.465-1.14-0.539-2.49-0.903-3.72-0.462-0.845,0.29-1.12,1.55-0.385,2.11,0.961,0.769,2.22,0.956,3.3,1.51,1.14,0.487,2.2,1.36,2.54,2.59,0.114,0.39,0.157,0.799,0.156,1.2z" fill-rule="nonzero" fill="#000"/>
<path d="m171,24.2c-0.257,0.766-1.34,0.511-1.98,0.585-0.574-0.0633-1.64,0.119-1.71-0.667v-13c0.256-0.766,1.33-0.55,1.98-0.614,0.579,0.0582,1.63-0.0858,1.71,0.696v13zm0.278-17.5c0.0304,0.72-0.18,1.65-1,1.83-0.854,0.19-1.81,0.233-2.63-0.136-0.723-0.482-0.65-1.49-0.579-2.25,0.037-0.684,0.589-1.24,1.27-1.29,0.824-0.0808,1.79-0.176,2.49,0.357,0.385,0.385,0.432,0.973,0.439,1.49z" fill-rule="nonzero" fill="#000"/>
<path d="m183,20.5c0.0563,1.51-0.758,3.01-2.1,3.71-1.67,0.896-3.68,0.986-5.51,0.596-0.738-0.194-1.54-0.386-2.1-0.933-0.358-0.614-0.257-1.37-0.232-2.05-0.0557-0.946,0.919-0.619,1.38-0.24,1.23,0.634,2.73,1.05,4.08,0.533,0.863-0.276,1.21-1.51,0.548-2.16-0.841-0.784-2.03-0.967-3.04-1.46-1.12-0.473-2.22-1.21-2.66-2.39-0.601-1.58-0.228-3.58,1.15-4.64,1.5-1.17,3.55-1.35,5.37-1.04,0.744,0.154,1.55,0.321,2.14,0.832,0.332,0.538,0.221,1.22,0.228,1.83,0.141,0.818-0.659,0.919-1.15,0.465-1.14-0.539-2.49-0.903-3.72-0.462-0.845,0.29-1.12,1.55-0.385,2.11,0.961,0.769,2.22,0.956,3.3,1.51,1.14,0.487,2.2,1.36,2.54,2.59,0.114,0.39,0.156,0.799,0.156,1.2z" fill-rule="nonzero" fill="#000"/>
<path d="m194,22.9c0.248,1.19-0.678,2.05-1.83,2.01-1.69,0.231-3.84-0.023-4.71-1.72-0.827-1.69-0.499-3.61-0.568-5.42v-4.16c-0.601-0.0433-1.24,0.095-1.81-0.086-0.451-0.803-0.57-2.21,0.123-2.88,0.561-0.0407,1.13-0.0075,1.69-0.0183,0.0133-1.02-0.0267-2.04,0.0202-3.05,0.726-0.781,2.06-0.414,3.03-0.392,0.743,0.0344,0.631,0.798,0.624,1.32v2.13c0.993,0.0122,1.99-0.0245,2.98,0.0183,0.693,0.67,0.574,2.08,0.123,2.88-0.592,0.182-1.25,0.0423-1.88,0.086h-1.23c0.0128,2.21-0.0264,4.43,0.0211,6.64-0.115,1.25,1.18,1.98,2.27,1.53,1.13-0.643,1.13,0.225,1.14,1.12z" fill-rule="nonzero" fill="#000"/>
<path d="m207,24.3c-0.459,0.787-2.85,0.919-3.05-0.152-0.023-0.445,0.153-1.33-0.417-0.48-1.98,1.84-5.46,1.97-7.44,0.0628-1.75-1.88-1.3-5.51,1.21-6.52,1.9-0.873,4.03-0.823,6.07-0.82,0.0289-1.15,0.0634-2.72-1.3-3.09-1.86-0.488-3.75,0.256-5.38,1.12-1.35,0.095-1.23-2.59-0.0961-2.97,2.44-1.23,5.44-1.48,8.01-0.529,1.89,0.726,2.46,2.9,2.38,4.74,0.00002,2.88,0.00005,5.76,0.00007,8.64zm-3.62-5.6c-1.45,0.0506-3.13-0.248-4.3,0.818-0.905,0.986-0.308,2.87,1.11,2.93,1.27,0.227,2.52-0.61,3.19-1.6-0.00004-0.717-0.00007-1.43-0.00011-2.15z" fill-rule="nonzero" fill="#000"/>
<path d="m223,24.2c-0.68,0.836-3.45,1.03-3.68-0.287-0.0396-2.79,0.0866-5.58-0.0783-8.37-0.0429-1.76-2.24-2.69-3.54-1.53-0.836,0.63-1.76,1.4-1.49,2.55v7.63c-0.677,0.864-3.17,0.947-3.69-0.0956v-13c0.47-0.895,3.26-1,3.15,0.382-0.0845,0.989,0.004,1.43,0.818,0.33,2-2.01,5.9-2.22,7.59,0.279,1.34,2.18,0.816,4.83,0.926,7.25,0,1.61,0.00001,3.21,0.00002,4.82z" fill-rule="nonzero" fill="#000"/>
<path d="m237,22.1c-0.0214,0.617,0.0498,1.4-0.562,1.77-1.8,1.19-4.15,1.42-6.19,0.797-1.6-0.477-2.85-1.79-3.39-3.35-0.649-1.84-0.66-3.86-0.327-5.77,0.354-1.89,1.44-3.73,3.22-4.58,2.03-0.952,4.56-0.938,6.49,0.257,0.594,0.294,0.716,0.977,0.697,1.58-0.0325,0.59,0.113,1.37-0.413,1.78-0.68,0.046-1.11-0.663-1.72-0.876-1.1-0.578-2.63-0.642-3.58,0.254-1.05,1.05-1.15,2.66-1.12,4.06,0.0529,1.25,0.301,2.72,1.42,3.48,1.1,0.677,2.58,0.507,3.64-0.173,0.539-0.176,1.2-1.3,1.7-0.615,0.134,0.448,0.132,0.924,0.138,1.39z" fill-rule="nonzero" fill="#000"/>
<path d="m252,17.3c0.133,0.898-0.723,1.47-1.54,1.32h-7.54c-0.0587,1.37,0.518,2.96,1.94,3.4,1.92,0.583,3.98,0.079,5.8-0.61,1.12-0.142,0.66,1.59,0.626,2.27-0.538,0.884-1.8,0.885-2.71,1.15-2.41,0.401-5.17,0.41-7.2-1.13-1.99-1.57-2.32-4.35-2.18-6.72,0.112-2.41,1.25-4.97,3.54-6.02,1.92-0.867,4.25-0.884,6.18-0.038,1.92,0.841,2.93,2.94,3.04,4.95,0.0432,0.474,0.0332,0.951,0.0342,1.43zm-3.57-1.05c0.0965-1.3-0.436-2.95-1.88-3.24-1.27-0.354-2.77,0.235-3.25,1.51-0.109,0.497-0.853,1.91,0.0966,1.73,1.68,0.000003,3.36,0.000006,5.04,0.000009z" fill-rule="nonzero" fill="#000"/>
<path d="m177,69.8c0.0586,0.31-0.134,0.612-0.463,0.527h-2.45v8.22c-0.202,0.369-0.835,0.246-1.19,0.142-0.129-0.154-0.046-0.381-0.0696-0.569v-7.79c-0.907-0.0049-1.82,0.0099-2.72-0.0074-0.278-0.218-0.277-0.834,0-1.05,1.44-0.0171,2.89-0.0025,4.33-0.0073,0.791,0.0049,1.58-0.0098,2.37,0.0074,0.206,0.0765,0.182,0.357,0.193,0.535z" fill-rule="nonzero" fill="#000"/>
<path d="m184,78.5c-0.19,0.359-0.805,0.245-1.14,0.136-0.126-0.151-0.0444-0.374-0.0677-0.558-0.007-1.28,0.0145-2.55-0.0124-3.83-0.0264-0.637-0.295-1.4-0.98-1.57-0.673-0.207-1.33,0.194-1.78,0.668-0.163,0.235-0.533,0.412-0.487,0.735v4.42c-0.191,0.361-0.808,0.243-1.15,0.136-0.118-0.162-0.0393-0.389-0.0622-0.582v-9.34c0.175-0.37,0.807-0.252,1.14-0.143,0.126,0.163,0.0444,0.393,0.0678,0.588v3.5c0.609-0.671,1.49-1.2,2.43-1.07,0.862,0.0411,1.64,0.667,1.87,1.5,0.256,0.888,0.148,1.82,0.172,2.73,0,0.893-0.00001,1.79-0.00001,2.68z" fill-rule="nonzero" fill="#000"/>
<path d="m187,78.5c-0.123,0.338-0.614,0.201-0.901,0.212-0.265,0.0219-0.344-0.216-0.308-0.43v-6.37c0.123-0.338,0.61-0.204,0.901-0.212,0.259-0.0193,0.345,0.218,0.308,0.43v6.37zm0.139-8.82c0.0411,0.35-0.159,0.742-0.555,0.723-0.321,0.0236-0.807,0.0375-0.9-0.358-0.0572-0.317-0.0966-0.729,0.166-0.965,0.313-0.163,0.709-0.152,1.04-0.0333,0.232,0.112,0.249,0.408,0.253,0.633z" fill-rule="nonzero" fill="#000"/>
<path d="m193,76.7c0.0344,0.793-0.461,1.56-1.2,1.85-0.997,0.406-2.18,0.342-3.14-0.152-0.417-0.19-0.374-0.762-0.25-1.12,0.39-0.135,0.741,0.371,1.15,0.421,0.624,0.211,1.41,0.252,1.95-0.179,0.428-0.379,0.392-1.16-0.114-1.46-0.805-0.547-1.91-0.618-2.54-1.42-0.675-0.855-0.363-2.28,0.629-2.75,0.896-0.461,2.03-0.424,2.91,0.0464,0.357,0.184,0.353,0.809,0.119,1.07-0.389-0.103-0.738-0.396-1.16-0.454-0.568-0.104-1.34-0.0758-1.63,0.526-0.204,0.425-0.005,0.937,0.393,1.16,0.825,0.529,1.95,0.61,2.57,1.44,0.217,0.293,0.314,0.656,0.309,1.02z" fill-rule="nonzero" fill="#000"/>
<path d="m200,78.5c-0.138,0.349-0.654,0.202-0.956,0.204-0.266,0.005-0.267-0.259-0.252-0.452v-9.54c0.124-0.36,0.655-0.207,0.956-0.211,0.263-0.00051,0.268,0.266,0.252,0.459v9.54z" fill-rule="nonzero" fill="#000"/>
<path d="m203,78.5c-0.123,0.338-0.614,0.201-0.901,0.212-0.265,0.0219-0.344-0.216-0.308-0.43v-6.37c0.123-0.338,0.61-0.204,0.901-0.212,0.259-0.0193,0.345,0.218,0.308,0.43v6.37zm0.139-8.82c0.0411,0.35-0.159,0.742-0.555,0.723-0.321,0.0236-0.807,0.0375-0.9-0.358-0.0572-0.317-0.0966-0.729,0.166-0.965,0.313-0.163,0.709-0.152,1.04-0.0333,0.232,0.112,0.249,0.408,0.253,0.633z" fill-rule="nonzero" fill="#000"/>
<path d="m211,78.5c-0.193,0.349-0.932,0.3-1.2,0.054-0.0243-1.43,0.0126-2.87-0.0197-4.31-0.0198-0.66-0.328-1.46-1.06-1.59-0.785-0.19-1.47,0.393-1.94,0.942-0.254,0.17-0.269,0.431-0.246,0.703-0.005,1.42,0.01,2.83-0.007,4.25-0.268,0.246-1.01,0.295-1.2-0.054v-6.59c0.135-0.336,0.955-0.342,1.09,0v0.872c0.621-0.732,1.55-1.32,2.54-1.19,0.885,0.0405,1.68,0.7,1.89,1.56,0.239,0.916,0.128,1.87,0.154,2.81v2.54z" fill-rule="nonzero" fill="#000"/>
<path d="m219,75c0.0422,0.301-0.227,0.568-0.525,0.527h-4.26c-0.003,0.728,0.137,1.57,0.771,2.02,0.637,0.448,1.47,0.423,2.21,0.297,0.447-0.0768,0.86-0.268,1.28-0.416,0.364,0.0194,0.241,0.555,0.207,0.805-0.165,0.29-0.549,0.335-0.839,0.442-1.03,0.277-2.18,0.356-3.19-0.0602-0.77-0.314-1.32-1.03-1.53-1.82-0.245-0.922-0.255-1.91-0.0185-2.84,0.228-0.897,0.845-1.72,1.72-2.06,0.764-0.304,1.64-0.316,2.42-0.0599,0.852,0.291,1.48,1.07,1.65,1.95,0.0949,0.398,0.115,0.808,0.108,1.22zm-1.22-0.359c0.029-0.681-0.178-1.47-0.814-1.82-0.677-0.349-1.6-0.286-2.15,0.271-0.407,0.406-0.589,0.989-0.611,1.55,1.19-0.000013,2.38-0.000027,3.57-0.00004z" fill-rule="nonzero" fill="#000"/>
<path d="m230,78.5c-0.19,0.359-0.805,0.245-1.14,0.136-0.126-0.151-0.0444-0.374-0.0678-0.558-0.007-1.28,0.0146-2.55-0.0124-3.83-0.0264-0.637-0.295-1.4-0.98-1.57-0.673-0.207-1.33,0.194-1.78,0.668-0.163,0.235-0.533,0.412-0.487,0.735v4.42c-0.191,0.361-0.808,0.243-1.15,0.136-0.118-0.162-0.0393-0.389-0.0622-0.582v-9.34c0.175-0.37,0.807-0.252,1.14-0.143,0.126,0.163,0.0444,0.393,0.0678,0.588v3.5c0.609-0.671,1.49-1.2,2.43-1.07,0.862,0.0411,1.64,0.667,1.87,1.5,0.256,0.888,0.148,1.82,0.172,2.73-0.00001,0.893-0.00002,1.79-0.00003,2.68z" fill-rule="nonzero" fill="#000"/>
<path d="m237,78.5c-0.132,0.328-1.04,0.355-1.04-0.0814v-0.578c-0.638,0.715-1.63,1.11-2.58,0.94-0.822-0.0873-1.62-0.672-1.75-1.52-0.162-0.764,0.102-1.64,0.785-2.06,1-0.649,2.24-0.573,3.38-0.576-0.004-0.626,0.0718-1.39-0.49-1.81-0.64-0.4-1.48-0.294-2.15-0.0418-0.397,0.0549-0.758,0.571-1.15,0.397-0.24-0.402-0.0803-0.977,0.393-1.12,1.05-0.518,2.34-0.66,3.45-0.229,0.697,0.271,1.08,1.01,1.13,1.72,0.0538,0.973,0.0147,1.95,0.0267,2.92,0.00002,0.677,0.00003,1.35,0.00005,2.03zm-1.2-3.01c-0.818,0.0277-1.69-0.116-2.44,0.293-0.762,0.399-0.697,1.71,0.13,1.99,0.7,0.266,1.48-0.0268,1.98-0.548,0.241-0.172,0.389-0.393,0.329-0.69-0.00001-0.349-0.00001-0.697-0.00001-1.05z" fill-rule="nonzero" fill="#000"/>
<path d="m243,76.7c0.0247,0.71-0.36,1.42-0.994,1.75-0.822,0.437-1.82,0.452-2.7,0.211-0.312-0.108-0.672-0.2-0.885-0.469-0.116-0.283-0.122-0.631-0.006-0.915,0.302-0.166,0.578,0.252,0.874,0.313,0.616,0.284,1.36,0.37,1.99,0.0849,0.557-0.235,0.724-1.08,0.265-1.49-0.497-0.454-1.19-0.566-1.77-0.867-0.6-0.257-1.15-0.76-1.25-1.43-0.13-0.708,0.158-1.49,0.776-1.88,0.821-0.534,1.9-0.541,2.8-0.21,0.259,0.104,0.586,0.256,0.559,0.589,0.0532,0.24-0.0107,0.832-0.374,0.551-0.616-0.381-1.41-0.574-2.1-0.295-0.558,0.215-0.715,1.05-0.256,1.44,0.492,0.448,1.17,0.568,1.75,0.856,0.554,0.228,1.09,0.631,1.26,1.23,0.0489,0.172,0.0675,0.351,0.0675,0.529z" fill-rule="nonzero" fill="#000"/>
<path d="m253,78.5c-0.0775,0.31-0.519,0.203-0.762,0.208-0.25,0.0217-0.306-0.213-0.278-0.406v-0.46c-0.574,0.628-1.42,1.04-2.28,0.969-0.745-0.0225-1.55-0.357-1.89-1.06-0.376-0.778-0.262-1.83,0.425-2.41,0.714-0.59,1.68-0.705,2.57-0.724,0.335-0.0012,0.669-0.000231,1-0.00053-0.007-0.57,0.0652-1.21-0.341-1.67-0.436-0.444-1.12-0.427-1.69-0.35-0.54,0.094-1.03,0.354-1.51,0.613-0.387,0.12-0.378-0.426-0.338-0.674,0.0674-0.347,0.459-0.464,0.736-0.605,0.963-0.395,2.08-0.492,3.07-0.153,0.609,0.204,1.06,0.755,1.18,1.38,0.144,0.664,0.0759,1.35,0.0919,2.02,0.00005,1.11,0.00009,2.22,0.00013,3.32zm-1.2-3.01c-0.677,0.0177-1.37-0.0611-2.03,0.119-0.468,0.116-0.913,0.484-0.937,0.995-0.0751,0.5,0.207,1.05,0.71,1.19,0.613,0.2,1.3,0.0038,1.77-0.426,0.163-0.168,0.412-0.316,0.49-0.533,0-0.448-0.00001-0.896-0.00001-1.34z" fill-rule="nonzero" fill="#000"/>
<path d="m263,76.7c0.0247,0.71-0.36,1.42-0.994,1.75-0.822,0.437-1.82,0.452-2.7,0.211-0.312-0.108-0.672-0.2-0.885-0.469-0.116-0.283-0.122-0.631-0.006-0.915,0.302-0.166,0.577,0.252,0.874,0.313,0.616,0.284,1.36,0.37,1.99,0.0849,0.557-0.235,0.724-1.08,0.265-1.49-0.497-0.454-1.19-0.566-1.77-0.867-0.6-0.257-1.15-0.76-1.25-1.43-0.13-0.708,0.158-1.49,0.776-1.88,0.821-0.534,1.9-0.541,2.8-0.21,0.259,0.104,0.586,0.256,0.559,0.589,0.0532,0.24-0.0108,0.832-0.375,0.551-0.616-0.381-1.41-0.574-2.1-0.295-0.558,0.215-0.715,1.05-0.256,1.44,0.492,0.448,1.17,0.568,1.75,0.856,0.554,0.228,1.09,0.631,1.26,1.23,0.049,0.172,0.0673,0.351,0.0676,0.529z" fill-rule="nonzero" fill="#000"/>
<path d="m271,78.5c-0.19,0.359-0.805,0.245-1.14,0.136-0.126-0.151-0.0444-0.374-0.0677-0.558-0.007-1.28,0.0145-2.55-0.0124-3.83-0.0264-0.637-0.295-1.4-0.98-1.57-0.673-0.207-1.33,0.194-1.78,0.668-0.163,0.235-0.533,0.412-0.487,0.735v4.42c-0.192,0.361-0.808,0.243-1.15,0.136-0.118-0.162-0.0393-0.389-0.0622-0.582v-9.34c0.175-0.37,0.807-0.252,1.14-0.143,0.126,0.163,0.0443,0.393,0.0677,0.588v3.5c0.609-0.671,1.49-1.2,2.43-1.07,0.862,0.0411,1.64,0.667,1.87,1.5,0.256,0.888,0.148,1.82,0.172,2.73-0.00001,0.893-0.00001,1.79-0.00002,2.68z" fill-rule="nonzero" fill="#000"/>
<path d="m278,78.5c-0.0775,0.31-0.519,0.203-0.762,0.208-0.25,0.0217-0.306-0.213-0.278-0.406v-0.46c-0.574,0.628-1.42,1.04-2.28,0.969-0.745-0.0225-1.55-0.357-1.89-1.06-0.376-0.778-0.262-1.83,0.425-2.41,0.714-0.59,1.68-0.705,2.57-0.724,0.335-0.0012,0.669-0.000231,1-0.00053-0.007-0.57,0.0652-1.21-0.341-1.67-0.436-0.444-1.12-0.427-1.69-0.35-0.54,0.094-1.03,0.354-1.51,0.613-0.387,0.12-0.377-0.426-0.338-0.674,0.0673-0.347,0.459-0.464,0.736-0.605,0.963-0.395,2.08-0.492,3.07-0.153,0.609,0.204,1.06,0.755,1.18,1.38,0.144,0.664,0.0759,1.35,0.0919,2.02,0.00002,1.11,0.00005,2.22,0.00007,3.32zm-1.2-3.01c-0.677,0.0177-1.37-0.0611-2.03,0.119-0.468,0.116-0.913,0.484-0.937,0.995-0.0751,0.5,0.207,1.05,0.71,1.19,0.613,0.2,1.3,0.0038,1.77-0.426,0.163-0.168,0.412-0.316,0.49-0.533,0-0.448-0.00001-0.896-0.00001-1.34z" fill-rule="nonzero" fill="#000"/>
<path d="m281,78.5c-0.138,0.349-0.654,0.202-0.956,0.204-0.266,0.005-0.267-0.259-0.252-0.452v-9.54c0.124-0.36,0.655-0.207,0.956-0.211,0.263-0.00051,0.268,0.266,0.252,0.459v9.54z" fill-rule="nonzero" fill="#000"/>
<path d="m285,78.5c-0.138,0.349-0.654,0.202-0.956,0.204-0.266,0.005-0.267-0.259-0.252-0.452v-9.54c0.124-0.36,0.655-0.207,0.956-0.211,0.263-0.00051,0.268,0.266,0.252,0.459v9.54z" fill-rule="nonzero" fill="#000"/>
<path d="m293,75.2c0.0208,1.25-0.444,2.64-1.6,3.27-0.987,0.538-2.23,0.556-3.26,0.153-1.04-0.413-1.6-1.52-1.69-2.59-0.143-1.3,0.08-2.81,1.15-3.69,0.973-0.783,2.37-0.857,3.52-0.483,1.05,0.348,1.7,1.4,1.83,2.46,0.0448,0.29,0.0637,0.584,0.0637,0.878zm-1.27,0.0806c-0.003-0.887-0.177-1.96-1.04-2.41-0.884-0.428-2.15-0.226-2.64,0.702-0.468,0.893-0.454,1.97-0.218,2.93,0.182,0.782,0.91,1.38,1.72,1.37,0.786,0.074,1.62-0.34,1.91-1.1,0.204-0.467,0.265-0.985,0.267-1.49z" fill-rule="nonzero" fill="#000"/>
<path d="m304,71.9c-0.103,0.524-0.302,1.03-0.449,1.54-0.531,1.7-1.05,3.4-1.59,5.1-0.305,0.315-0.826,0.161-1.22,0.167-0.312,0.0201-0.402-0.279-0.455-0.522-0.438-1.52-0.887-3.04-1.32-4.57-0.426,1.62-0.865,3.23-1.3,4.85-0.223,0.407-0.806,0.229-1.2,0.249-0.317,0.0314-0.467-0.238-0.515-0.505-0.631-2.06-1.28-4.12-1.9-6.19-0.0638-0.52,0.71-0.299,1.03-0.311,0.279,0.0535,0.251,0.396,0.343,0.607,0.494,1.7,1,3.4,1.49,5.1,0.492-1.86,0.99-3.71,1.49-5.56,0.273-0.273,0.842-0.222,1.17-0.0558,0.22,0.649,0.387,1.32,0.586,1.98,0.348,1.21,0.707,2.43,1.05,3.64,0.171-0.69,0.391-1.37,0.582-2.06,0.338-1.17,0.672-2.34,1.01-3.5,0.274-0.258,0.912-0.26,1.19-0.0196l0.006,0.0586,0.00025,0.00001z" fill-rule="nonzero" fill="#000"/>
<path d="m313,76.7c0.0247,0.71-0.36,1.42-0.994,1.75-0.822,0.437-1.82,0.452-2.7,0.211-0.312-0.108-0.672-0.2-0.885-0.469-0.116-0.283-0.122-0.631-0.006-0.915,0.302-0.166,0.577,0.252,0.874,0.313,0.616,0.284,1.36,0.37,1.99,0.0849,0.557-0.235,0.724-1.08,0.265-1.49-0.497-0.454-1.19-0.566-1.77-0.867-0.6-0.257-1.15-0.76-1.25-1.43-0.13-0.708,0.158-1.49,0.776-1.88,0.821-0.534,1.9-0.541,2.8-0.21,0.259,0.104,0.586,0.256,0.559,0.589,0.0532,0.24-0.0108,0.832-0.375,0.551-0.616-0.381-1.41-0.574-2.1-0.295-0.558,0.215-0.715,1.05-0.256,1.44,0.492,0.448,1.17,0.568,1.75,0.856,0.554,0.228,1.09,0.631,1.26,1.23,0.0489,0.172,0.0673,0.351,0.0676,0.529z" fill-rule="nonzero" fill="#000"/>
<path d="m316,78.5c-0.138,0.349-0.654,0.202-0.956,0.204-0.266,0.005-0.267-0.259-0.252-0.452v-9.54c0.124-0.36,0.655-0.207,0.956-0.211,0.263-0.00051,0.268,0.266,0.252,0.459v9.54z" fill-rule="nonzero" fill="#000"/>
<path d="m324,75.2c0.006,1.09-0.315,2.27-1.19,2.99-0.869,0.715-2.09,0.826-3.15,0.598-0.868-0.183-1.62-0.813-1.94-1.64-0.354-0.918-0.384-1.94-0.202-2.9,0.177-0.939,0.745-1.84,1.63-2.25,0.828-0.4,1.8-0.423,2.69-0.217,0.85,0.203,1.57,0.843,1.87,1.66,0.221,0.56,0.299,1.17,0.299,1.77zm-1.27,0.0806c-0.0102-0.775-0.12-1.66-0.731-2.2-0.554-0.477-1.38-0.515-2.05-0.294-0.745,0.265-1.13,1.05-1.23,1.8-0.0924,0.78-0.0696,1.61,0.274,2.33,0.286,0.611,0.957,0.973,1.62,0.957,0.688,0.0443,1.41-0.281,1.74-0.905,0.288-0.51,0.363-1.11,0.367-1.69z" fill-rule="nonzero" fill="#000"/>
<path d="m332,75.1c-0.001,1.13-0.236,2.38-1.14,3.15-0.732,0.596-1.82,0.759-2.68,0.363-0.386-0.148-0.783-0.616-1.03-0.746-0.005,1.1,0.01,2.2-0.007,3.3-0.272,0.279-0.854,0.233-1.18,0.0476-0.0553-0.303-0.0117-0.621-0.0256-0.931v-8.38c0.129-0.355,0.768-0.263,1.04-0.106,0.0552,0.311,0.0118,0.639,0.0256,0.957,0.172-0.0915,0.471-0.456,0.718-0.608,0.911-0.734,2.36-0.796,3.26-0.0113,0.825,0.732,1.02,1.91,1.03,2.96zm-1.27,0.139c-0.0166-0.793-0.0835-1.7-0.693-2.28-0.562-0.524-1.48-0.396-2.03,0.0766-0.319,0.258-0.63,0.56-0.854,0.897v2.6c0.478,0.555,1.03,1.21,1.82,1.25,0.65,0.0578,1.23-0.409,1.46-0.993,0.215-0.484,0.293-1.02,0.298-1.55z" fill-rule="nonzero" fill="#000"/>
<path d="m340,75c0.0423,0.301-0.227,0.568-0.525,0.527h-4.26c-0.003,0.728,0.136,1.57,0.771,2.02,0.637,0.448,1.47,0.423,2.21,0.297,0.447-0.0768,0.86-0.268,1.28-0.416,0.365,0.0194,0.241,0.555,0.207,0.805-0.165,0.29-0.549,0.335-0.839,0.442-1.03,0.277-2.18,0.356-3.19-0.0602-0.77-0.314-1.32-1.03-1.53-1.82-0.245-0.922-0.255-1.91-0.0185-2.84,0.228-0.897,0.845-1.72,1.72-2.06,0.764-0.304,1.64-0.316,2.42-0.0599,0.852,0.291,1.48,1.07,1.65,1.95,0.0949,0.398,0.115,0.808,0.108,1.22zm-1.22-0.359c0.029-0.681-0.178-1.47-0.814-1.82-0.677-0.349-1.6-0.286-2.15,0.271-0.407,0.406-0.589,0.989-0.611,1.55,1.19-0.000013,2.38-0.000027,3.57-0.00004z" fill-rule="nonzero" fill="#000"/>
<path d="m241,82.5v18.1h-1.25v-18.1h1.25zm4.29,11c-1.64,2.81-3.28,5.62-4.91,8.42-1.64-2.81-3.27-5.62-4.91-8.42-0.47-0.759,0.868-1.35,1.14-0.512,1.44,2.46,2.87,4.92,4.31,7.39h-1.07c1.49-2.53,2.95-5.08,4.45-7.6,0.484-0.555,1.38,0.0929,1,0.728z" fill-rule="nonzero" fill="#000"/>
<path d="m525,113c0.0588,0.311-0.134,0.611-0.463,0.527h-2.45v8.22c-0.202,0.369-0.835,0.246-1.19,0.142-0.129-0.154-0.046-0.381-0.0696-0.569v-7.79c-0.907-0.005-1.82,0.01-2.72-0.007-0.278-0.218-0.277-0.834,0-1.05,1.44-0.0171,2.89-0.002,4.33-0.007,0.791,0.005,1.58-0.01,2.37,0.007,0.206,0.0765,0.182,0.357,0.193,0.535z" fill-rule="nonzero" fill="#000"/>
<path d="m532,122c-0.19,0.359-0.805,0.245-1.14,0.136-0.126-0.151-0.0444-0.374-0.0678-0.558-0.007-1.28,0.0145-2.55-0.0124-3.83-0.0264-0.637-0.295-1.4-0.98-1.57-0.673-0.207-1.33,0.194-1.78,0.668-0.163,0.235-0.533,0.412-0.487,0.735v4.42c-0.191,0.361-0.808,0.243-1.15,0.136-0.118-0.162-0.0393-0.389-0.0622-0.582v-9.34c0.175-0.37,0.807-0.252,1.14-0.143,0.126,0.163,0.0444,0.393,0.0678,0.588v3.5c0.609-0.671,1.49-1.2,2.43-1.07,0.862,0.0411,1.64,0.667,1.87,1.5,0.256,0.888,0.148,1.82,0.172,2.73-0.00001,0.893-0.00001,1.79-0.00001,2.68z" fill-rule="nonzero" fill="#000"/>
<path d="m535,122c-0.123,0.338-0.614,0.2-0.901,0.212-0.265,0.0219-0.344-0.216-0.308-0.43v-6.37c0.123-0.338,0.61-0.204,0.901-0.212,0.259-0.0193,0.345,0.218,0.308,0.43v6.37zm0.139-8.82c0.0411,0.35-0.159,0.742-0.555,0.723-0.321,0.0236-0.807,0.0375-0.9-0.358-0.0571-0.317-0.0966-0.729,0.166-0.965,0.313-0.163,0.709-0.152,1.04-0.0333,0.232,0.112,0.249,0.408,0.253,0.633z" fill-rule="nonzero" fill="#000"/>
<path d="m542,120c0.0247,0.71-0.36,1.42-0.994,1.75-0.822,0.437-1.82,0.452-2.7,0.211-0.312-0.108-0.672-0.2-0.885-0.469-0.116-0.283-0.122-0.631-0.006-0.915,0.302-0.166,0.578,0.252,0.874,0.313,0.616,0.284,1.36,0.37,1.99,0.0849,0.557-0.235,0.724-1.08,0.265-1.49-0.497-0.454-1.19-0.566-1.77-0.867-0.6-0.257-1.15-0.76-1.25-1.43-0.13-0.708,0.158-1.49,0.776-1.88,0.821-0.534,1.9-0.541,2.8-0.21,0.26,0.104,0.586,0.256,0.559,0.589,0.0532,0.24-0.0108,0.832-0.375,0.551-0.616-0.381-1.41-0.574-2.1-0.295-0.558,0.215-0.715,1.05-0.256,1.44,0.492,0.448,1.17,0.568,1.75,0.856,0.554,0.228,1.09,0.631,1.26,1.23,0.0489,0.172,0.0674,0.351,0.0675,0.529z" fill-rule="nonzero" fill="#000"/>
<path d="m548,122c-0.138,0.349-0.654,0.202-0.956,0.204-0.266,0.005-0.267-0.259-0.252-0.452v-9.54c0.124-0.36,0.655-0.207,0.956-0.211,0.263-0.00051,0.268,0.266,0.252,0.459v9.54z" fill-rule="nonzero" fill="#000"/>
<path d="m551,122c-0.123,0.338-0.614,0.2-0.901,0.212-0.265,0.0219-0.344-0.216-0.308-0.43v-6.37c0.123-0.338,0.61-0.204,0.901-0.212,0.259-0.0193,0.345,0.218,0.308,0.43v6.37zm0.139-8.82c0.0411,0.35-0.159,0.742-0.555,0.723-0.321,0.0236-0.807,0.0375-0.9-0.358-0.0572-0.317-0.0966-0.729,0.166-0.965,0.313-0.163,0.709-0.152,1.04-0.0333,0.232,0.112,0.249,0.408,0.253,0.633z" fill-rule="nonzero" fill="#000"/>
<path d="m559,122c-0.109,0.324-0.565,0.205-0.838,0.219-0.252,0.0292-0.424-0.164-0.37-0.401-0.003-1.32,0.007-2.63-0.005-3.95-0.019-0.593-0.178-1.29-0.742-1.6-0.542-0.287-1.23-0.134-1.67,0.259-0.313,0.255-0.61,0.551-0.838,0.878v4.59c-0.11,0.323-0.565,0.205-0.839,0.219-0.255,0.0301-0.424-0.162-0.37-0.401v-6.41c0.0972-0.348,0.592-0.2,0.867-0.209,0.236,0.01,0.237,0.253,0.224,0.428v0.653c0.58-0.665,1.39-1.24,2.31-1.2,0.747-0.01,1.51,0.348,1.89,1.01,0.471,0.817,0.38,1.78,0.391,2.69-0.00002,1.07-0.00003,2.15-0.00005,3.22z" fill-rule="nonzero" fill="#000"/>
<path d="m567,118c0.0422,0.301-0.227,0.568-0.525,0.527h-4.26c-0.003,0.728,0.137,1.57,0.771,2.02,0.637,0.448,1.47,0.423,2.21,0.297,0.447-0.0768,0.86-0.268,1.28-0.416,0.364,0.0194,0.241,0.555,0.207,0.805-0.165,0.29-0.549,0.335-0.839,0.442-1.03,0.277-2.18,0.356-3.19-0.0602-0.77-0.314-1.33-1.03-1.53-1.82-0.245-0.922-0.255-1.91-0.0185-2.84,0.228-0.897,0.845-1.72,1.72-2.06,0.764-0.304,1.64-0.316,2.42-0.0598,0.852,0.291,1.48,1.07,1.65,1.95,0.095,0.398,0.115,0.808,0.109,1.22zm-1.22-0.359c0.029-0.681-0.178-1.47-0.814-1.82-0.677-0.349-1.6-0.286-2.15,0.271-0.407,0.406-0.589,0.989-0.611,1.55,1.19,0.00002,2.38,0.00003,3.57,0.00005z" fill-rule="nonzero" fill="#000"/>
<path d="m578,122c-0.19,0.359-0.805,0.245-1.14,0.136-0.126-0.151-0.0444-0.374-0.0677-0.558-0.007-1.28,0.0145-2.55-0.0124-3.83-0.0264-0.637-0.295-1.4-0.98-1.57-0.673-0.207-1.33,0.194-1.78,0.668-0.163,0.235-0.533,0.412-0.487,0.735v4.42c-0.191,0.361-0.808,0.243-1.15,0.136-0.118-0.162-0.0393-0.389-0.0622-0.582v-9.34c0.175-0.37,0.807-0.252,1.14-0.143,0.126,0.163,0.0444,0.393,0.0678,0.588v3.5c0.609-0.671,1.49-1.2,2.43-1.07,0.862,0.0411,1.64,0.667,1.87,1.5,0.256,0.888,0.148,1.82,0.172,2.73-0.00001,0.893-0.00001,1.79-0.00002,2.68z" fill-rule="nonzero" fill="#000"/>
<path d="m585,122c-0.0775,0.31-0.519,0.203-0.762,0.208-0.25,0.0218-0.306-0.213-0.278-0.406v-0.46c-0.574,0.628-1.42,1.04-2.28,0.969-0.745-0.0225-1.55-0.357-1.89-1.06-0.376-0.778-0.262-1.83,0.425-2.41,0.714-0.59,1.68-0.705,2.57-0.724,0.335-0.001,0.669-0.00023,1-0.00053-0.007-0.57,0.0652-1.21-0.341-1.67-0.436-0.444-1.12-0.427-1.69-0.35-0.54,0.094-1.03,0.354-1.51,0.613-0.387,0.12-0.377-0.426-0.338-0.674,0.0674-0.347,0.459-0.464,0.736-0.605,0.963-0.395,2.08-0.492,3.07-0.153,0.609,0.204,1.06,0.755,1.18,1.38,0.144,0.664,0.0759,1.35,0.0919,2.02,0.00002,1.11,0.00004,2.22,0.00006,3.32zm-1.2-3.01c-0.677,0.0177-1.37-0.0611-2.03,0.119-0.468,0.116-0.913,0.484-0.937,0.995-0.0751,0.5,0.207,1.05,0.71,1.19,0.613,0.2,1.3,0.004,1.77-0.426,0.163-0.168,0.412-0.316,0.49-0.533-0.00001-0.448-0.00002-0.896-0.00003-1.34z" fill-rule="nonzero" fill="#000"/>
<path d="m592,120c0.0247,0.71-0.36,1.42-0.994,1.75-0.822,0.437-1.82,0.452-2.7,0.211-0.312-0.108-0.672-0.2-0.885-0.469-0.116-0.283-0.122-0.631-0.006-0.915,0.302-0.166,0.577,0.252,0.874,0.313,0.616,0.284,1.36,0.37,1.99,0.0849,0.557-0.235,0.724-1.08,0.265-1.49-0.497-0.454-1.19-0.566-1.77-0.867-0.6-0.257-1.15-0.76-1.25-1.43-0.13-0.708,0.158-1.49,0.776-1.88,0.821-0.534,1.9-0.541,2.8-0.21,0.26,0.104,0.586,0.256,0.559,0.589,0.0532,0.24-0.0108,0.832-0.375,0.551-0.616-0.381-1.41-0.574-2.1-0.295-0.558,0.215-0.715,1.05-0.256,1.44,0.492,0.448,1.17,0.568,1.75,0.856,0.554,0.228,1.09,0.631,1.26,1.23,0.0489,0.172,0.0674,0.351,0.0676,0.529z" fill-rule="nonzero" fill="#000"/>
<path d="m602,122c-0.0775,0.31-0.519,0.203-0.762,0.208-0.25,0.0218-0.306-0.213-0.278-0.406v-0.46c-0.574,0.628-1.42,1.04-2.28,0.969-0.745-0.0225-1.55-0.357-1.89-1.06-0.376-0.778-0.262-1.83,0.425-2.41,0.714-0.59,1.68-0.705,2.57-0.724,0.335-0.001,0.669-0.00023,1-0.00053-0.007-0.57,0.0652-1.21-0.341-1.67-0.436-0.444-1.12-0.427-1.69-0.35-0.54,0.094-1.03,0.354-1.51,0.613-0.387,0.12-0.378-0.426-0.338-0.674,0.0673-0.347,0.459-0.464,0.736-0.605,0.963-0.395,2.08-0.492,3.07-0.153,0.609,0.204,1.06,0.755,1.18,1.38,0.144,0.664,0.0759,1.35,0.0919,2.02,0.00005,1.11,0.0001,2.22,0.00015,3.32zm-1.2-3.01c-0.677,0.0177-1.37-0.0611-2.03,0.119-0.468,0.116-0.913,0.484-0.937,0.995-0.0751,0.5,0.207,1.05,0.71,1.19,0.613,0.2,1.3,0.004,1.77-0.426,0.163-0.168,0.412-0.316,0.49-0.533,0-0.448-0.00001-0.896-0.00001-1.34z" fill-rule="nonzero" fill="#000"/>
<path d="m611,120c0.0247,0.71-0.36,1.42-0.995,1.75-0.822,0.437-1.82,0.452-2.7,0.211-0.312-0.108-0.672-0.2-0.885-0.469-0.116-0.283-0.122-0.631-0.006-0.915,0.302-0.166,0.578,0.252,0.874,0.313,0.616,0.284,1.36,0.37,1.99,0.0849,0.557-0.235,0.724-1.08,0.265-1.49-0.497-0.454-1.19-0.566-1.77-0.867-0.6-0.257-1.15-0.76-1.25-1.43-0.13-0.708,0.158-1.49,0.776-1.88,0.821-0.534,1.9-0.541,2.8-0.21,0.259,0.104,0.586,0.256,0.559,0.589,0.0532,0.24-0.0108,0.832-0.375,0.551-0.616-0.381-1.41-0.574-2.1-0.295-0.558,0.215-0.715,1.05-0.256,1.44,0.492,0.448,1.17,0.568,1.75,0.856,0.554,0.228,1.09,0.631,1.26,1.23,0.0489,0.172,0.0674,0.351,0.0676,0.529z" fill-rule="nonzero" fill="#000"/>
<path d="m616,121c0.0605,0.366-0.176,0.698-0.56,0.714-0.672,0.14-1.46,0.127-2.01-0.34-0.544-0.502-0.575-1.3-0.572-1.99v-3.67c-0.325-0.005-0.651,0.009-0.975-0.007-0.277-0.203-0.247-0.721-0.0467-0.97,0.266-0.0538,0.546-0.0128,0.818-0.0256,0.138,0.0172,0.255,0.013,0.204-0.158,0.004-0.486-0.009-0.973,0.007-1.46,0.203-0.285,0.643-0.168,0.95-0.162,0.253,0.005,0.272,0.257,0.252,0.448v1.33c0.582,0.004,1.17-0.009,1.75,0.007,0.274,0.197,0.247,0.72,0.044,0.968-0.221,0.0607-0.462,0.0152-0.692,0.0293h-1.1c0.004,1.31-0.009,2.61,0.007,3.92,0.0257,0.408,0.118,0.946,0.571,1.08,0.378,0.122,0.774,0.002,1.13-0.148,0.252-0.0685,0.215,0.294,0.231,0.439z" fill-rule="nonzero" fill="#000"/>
<path d="m624,118c0.0422,0.301-0.227,0.568-0.525,0.527h-4.26c-0.003,0.728,0.136,1.57,0.771,2.02,0.637,0.448,1.47,0.423,2.21,0.297,0.447-0.0768,0.86-0.268,1.28-0.416,0.365,0.0193,0.241,0.555,0.207,0.805-0.165,0.29-0.549,0.335-0.839,0.442-1.03,0.277-2.18,0.356-3.19-0.0602-0.77-0.314-1.32-1.03-1.53-1.82-0.245-0.922-0.255-1.91-0.0184-2.84,0.228-0.897,0.845-1.72,1.72-2.06,0.764-0.304,1.64-0.316,2.42-0.0598,0.852,0.291,1.48,1.07,1.65,1.95,0.0949,0.398,0.115,0.808,0.108,1.22zm-1.22-0.359c0.0289-0.681-0.178-1.47-0.814-1.82-0.677-0.349-1.6-0.286-2.15,0.271-0.407,0.406-0.589,0.989-0.611,1.55,1.19,0.00002,2.38,0.00003,3.57,0.00005z" fill-rule="nonzero" fill="#000"/>
<path d="m631,118c0.0422,0.301-0.227,0.568-0.525,0.527h-4.26c-0.003,0.728,0.136,1.57,0.771,2.02,0.637,0.448,1.47,0.423,2.21,0.297,0.447-0.0768,0.86-0.268,1.28-0.416,0.365,0.0193,0.241,0.555,0.207,0.805-0.165,0.29-0.549,0.335-0.839,0.442-1.03,0.277-2.18,0.356-3.19-0.0602-0.77-0.314-1.32-1.03-1.53-1.82-0.245-0.922-0.255-1.91-0.0185-2.84,0.228-0.897,0.845-1.72,1.72-2.06,0.764-0.304,1.64-0.316,2.42-0.0598,0.852,0.291,1.48,1.07,1.65,1.95,0.0949,0.398,0.115,0.808,0.108,1.22zm-1.22-0.359c0.0289-0.681-0.178-1.47-0.814-1.82-0.677-0.349-1.6-0.286-2.15,0.271-0.407,0.406-0.589,0.989-0.611,1.55,1.19,0.00002,2.38,0.00003,3.57,0.00005z" fill-rule="nonzero" fill="#000"/>
<path d="m639,118c-0.001,1.13-0.236,2.38-1.14,3.15-0.732,0.596-1.82,0.759-2.68,0.363-0.386-0.148-0.783-0.616-1.03-0.746-0.005,1.1,0.01,2.2-0.007,3.3-0.272,0.279-0.854,0.233-1.18,0.0476-0.0553-0.303-0.0117-0.621-0.0256-0.93v-8.38c0.129-0.355,0.768-0.263,1.04-0.106,0.0552,0.311,0.0118,0.639,0.0256,0.957,0.172-0.0915,0.471-0.456,0.718-0.608,0.911-0.734,2.36-0.796,3.26-0.0113,0.825,0.732,1.02,1.91,1.03,2.96zm-1.27,0.139c-0.0165-0.793-0.0835-1.7-0.693-2.28-0.562-0.524-1.48-0.396-2.03,0.0766-0.319,0.258-0.63,0.56-0.854,0.897v2.6c0.478,0.555,1.03,1.21,1.82,1.25,0.65,0.0578,1.23-0.409,1.46-0.993,0.215-0.484,0.293-1.02,0.298-1.55z" fill-rule="nonzero" fill="#000"/>
<path d="m648,120c0.0247,0.71-0.36,1.42-0.995,1.75-0.822,0.437-1.82,0.452-2.7,0.211-0.312-0.108-0.672-0.2-0.885-0.469-0.116-0.283-0.122-0.631-0.006-0.915,0.302-0.166,0.577,0.252,0.874,0.313,0.616,0.284,1.36,0.37,1.99,0.0849,0.557-0.235,0.724-1.08,0.265-1.49-0.497-0.454-1.19-0.566-1.77-0.867-0.6-0.257-1.15-0.76-1.25-1.43-0.13-0.708,0.158-1.49,0.776-1.88,0.821-0.534,1.9-0.541,2.8-0.21,0.26,0.104,0.586,0.256,0.559,0.589,0.0532,0.24-0.0108,0.832-0.375,0.551-0.616-0.381-1.41-0.574-2.1-0.295-0.558,0.215-0.715,1.05-0.256,1.44,0.492,0.448,1.17,0.568,1.75,0.856,0.554,0.228,1.09,0.631,1.26,1.23,0.049,0.172,0.0672,0.351,0.0677,0.529z" fill-rule="nonzero" fill="#000"/>
<path d="m651,122c-0.138,0.349-0.654,0.202-0.956,0.204-0.266,0.005-0.267-0.259-0.252-0.452v-9.54c0.124-0.36,0.655-0.207,0.956-0.211,0.263-0.00052,0.268,0.266,0.252,0.459v9.54z" fill-rule="nonzero" fill="#000"/>
<path d="m660,118c0.006,1.09-0.315,2.27-1.19,2.99-0.869,0.715-2.09,0.826-3.15,0.598-0.868-0.183-1.62-0.813-1.94-1.64-0.354-0.918-0.384-1.94-0.202-2.9,0.177-0.939,0.745-1.84,1.63-2.25,0.828-0.4,1.8-0.423,2.69-0.217,0.85,0.203,1.57,0.843,1.87,1.66,0.221,0.56,0.299,1.17,0.299,1.77zm-1.27,0.0806c-0.0102-0.775-0.12-1.66-0.731-2.2-0.554-0.477-1.38-0.515-2.05-0.294-0.745,0.265-1.13,1.05-1.23,1.8-0.0924,0.78-0.0696,1.61,0.274,2.33,0.286,0.611,0.957,0.973,1.62,0.957,0.688,0.0443,1.41-0.281,1.74-0.905,0.288-0.51,0.363-1.11,0.367-1.69z" fill-rule="nonzero" fill="#000"/>
<path d="m667,118c-0.001,1.13-0.236,2.38-1.14,3.15-0.732,0.596-1.82,0.759-2.68,0.363-0.386-0.148-0.783-0.616-1.03-0.746-0.005,1.1,0.01,2.2-0.007,3.3-0.272,0.279-0.854,0.233-1.18,0.0476-0.0553-0.303-0.0117-0.621-0.0256-0.93v-8.38c0.129-0.355,0.768-0.263,1.04-0.106,0.0552,0.311,0.0118,0.639,0.0256,0.957,0.172-0.0915,0.471-0.456,0.718-0.608,0.911-0.734,2.36-0.796,3.26-0.0113,0.826,0.732,1.02,1.91,1.03,2.96zm-1.27,0.139c-0.0166-0.793-0.0835-1.7-0.693-2.28-0.562-0.524-1.48-0.396-2.03,0.0766-0.319,0.258-0.63,0.56-0.854,0.897v2.6c0.478,0.555,1.03,1.21,1.82,1.25,0.65,0.0578,1.23-0.409,1.46-0.993,0.215-0.484,0.293-1.02,0.298-1.55z" fill-rule="nonzero" fill="#000"/>
<path d="m675,118c0.0422,0.301-0.227,0.568-0.525,0.527h-4.26c-0.003,0.728,0.136,1.57,0.771,2.02,0.637,0.448,1.47,0.423,2.21,0.297,0.447-0.0768,0.86-0.268,1.28-0.416,0.364,0.0194,0.241,0.555,0.207,0.805-0.165,0.29-0.549,0.335-0.839,0.442-1.03,0.277-2.18,0.356-3.19-0.0602-0.77-0.314-1.33-1.03-1.53-1.82-0.245-0.922-0.255-1.91-0.0185-2.84,0.228-0.897,0.845-1.72,1.72-2.06,0.764-0.304,1.64-0.316,2.42-0.0598,0.852,0.291,1.48,1.07,1.65,1.95,0.095,0.398,0.115,0.808,0.109,1.22zm-1.22-0.359c0.0289-0.681-0.178-1.47-0.814-1.82-0.677-0.349-1.6-0.286-2.15,0.271-0.407,0.406-0.589,0.989-0.611,1.55,1.19,0.00002,2.38,0.00003,3.57,0.00005z" fill-rule="nonzero" fill="#000"/>
<path d="m564,104c-7.21-7.18-14.4-14.4-21.6-21.6,0.292-0.292,0.583-0.583,0.875-0.875,7.21,7.18,14.4,14.4,21.6,21.5-0.292,0.295-0.584,0.593-0.875,0.887zm-19.6-13.4c-0.833-3.14-1.67-6.28-2.5-9.42,3.15,0.821,6.29,1.64,9.44,2.46,1.17,0.687-0.223,1.58-1.01,1.03-2.57-0.673-5.14-1.35-7.71-2.02,0.249-0.152,0.643-0.842,0.796-0.637,0.731,2.76,1.46,5.52,2.19,8.27,0.221,0.784-1.01,1.11-1.2,0.312z" fill-rule="nonzero" fill="#000"/>
<path d="m415,17.7c0.0853,2.14-1.16,4.24-3.1,5.17-2.51,1.2-5.57,1.11-8.08-0.0472-0.845-0.289-1.31-1.1-1.2-1.98-0.0655-0.677-0.00024-2.27,1.04-1.59,1.66,1.08,3.77,1.74,5.73,1.15,1.18-0.314,1.88-1.65,1.52-2.8-0.501-1.24-1.88-1.72-3.01-2.24-1.7-0.745-3.56-1.6-4.42-3.35-0.741-1.49-0.717-3.34-0.0352-4.84,0.835-1.83,2.81-2.82,4.74-3,1.79-0.19,3.71,0.0559,5.27,1,0.666,0.588,0.394,1.59,0.422,2.38,0.125,1.09-0.932,0.861-1.49,0.374-1.37-0.7-3.09-1.18-4.56-0.476-1.2,0.588-1.3,2.45-0.229,3.23,1.35,1.07,3.09,1.45,4.54,2.36,1.62,0.853,2.84,2.53,2.85,4.4l0.004,0.139,0.001,0.142-0.00002,0.00011z" fill-rule="nonzero" fill="#000"/>
<path d="m439,22.9c-0.356,0.843-1.58,0.504-2.34,0.577-0.646,0.0559-1.54-0.181-1.34-0.982-0.0107-2.61,0.022-5.22-0.0175-7.82-0.0362-1.02-0.535-2.27-1.68-2.44-1.34-0.226-2.3,0.956-3.08,1.86-0.202,0.284-0.0523,0.693-0.0984,1.03v7.77c-0.355,0.835-1.57,0.508-2.33,0.577-0.642,0.0519-1.55-0.18-1.35-0.982-0.0107-2.61,0.022-5.22-0.0175-7.82-0.0391-1.02-0.523-2.28-1.67-2.44-1.34-0.226-2.31,0.945-3.08,1.86-0.199,0.286-0.0512,0.693-0.0967,1.03v7.77c-0.359,0.839-1.58,0.506-2.34,0.577-0.642,0.0519-1.55-0.18-1.35-0.982v-12.7c0.333-0.868,1.6-0.526,2.36-0.549,0.676-0.0588,0.884,0.56,0.791,1.11v0.951c1.21-1.35,2.9-2.52,4.8-2.33,1.55,0.0228,3.09,0.915,3.69,2.38,1.25-1.39,3-2.59,4.96-2.37,1.68,0.0303,3.27,1.16,3.77,2.78,0.608,1.8,0.358,3.72,0.412,5.58,0.00005,1.84,0.00009,3.68,0.00014,5.53z" fill-rule="nonzero" fill="#000"/>
<path d="m454,22.9c-0.471,0.887-1.9,0.497-2.75,0.423-0.482-0.259-0.23-0.886-0.293-1.33-0.323,0.05-1.17,1.05-1.84,1.22-1.82,0.795-4.13,0.645-5.71-0.593-1.51-1.28-1.74-3.69-0.775-5.36,1.11-1.72,3.34-2.09,5.23-2.23,0.84-0.0538,1.68-0.0327,2.52-0.0371-0.006-1.02,0.122-2.28-0.868-2.9-1.34-0.625-2.92-0.309-4.25,0.204-0.779,0.232-2.16,1.5-2.42,0.0504-0.233-0.928-0.0424-2.1,1-2.41,2.32-1.08,5.09-1.31,7.53-0.504,1.42,0.465,2.37,1.83,2.52,3.29,0.188,1.71,0.068,3.44,0.102,5.16,0,1.68-0.00001,3.36-0.00002,5.03zm-3.62-5.6c-1.39,0.0448-2.95-0.214-4.14,0.666-1.03,0.847-0.644,2.84,0.75,3.05,1.33,0.339,2.66-0.51,3.39-1.54-0.00004-0.723-0.00007-1.45-0.00011-2.17z" fill-rule="nonzero" fill="#000"/>
<path d="m461,22.9c-0.512,0.941-1.99,0.494-2.91,0.529-0.789,0.0515-0.852-0.697-0.785-1.28v-18.5c0.49-0.974,1.99-0.557,2.91-0.562,0.788-0.0289,0.85,0.725,0.785,1.31v18.5z" fill-rule="nonzero" fill="#000"/>
<path d="m468,22.9c-0.257,0.766-1.34,0.511-1.98,0.585-0.574-0.0632-1.64,0.119-1.71-0.669v-19.2c0.242-0.784,1.33-0.564,1.98-0.629,0.584,0.0564,1.65-0.0847,1.71,0.712v19.2z" fill-rule="nonzero" fill="#000"/>
<path d="m487,11c-0.0758,0.556,0.155,1.43-0.443,1.72-0.597-0.0442-1.16-0.427-1.78-0.3-1.08,0.215-1.74,1.2-2.33,2.05-0.256,0.263-0.117,0.643-0.152,0.971-0.004,2.49,0.007,4.99-0.005,7.48-0.21,0.558-0.978,0.448-1.46,0.51-0.692-0.0212-1.46,0.0893-2.09-0.272-0.243-0.263-0.102-0.654-0.14-0.979,0.003-4.16-0.006-8.31,0.005-12.5,0.212-0.614,1.06-0.462,1.58-0.515,0.515,0.0525,1.36-0.108,1.56,0.515,0.0105,0.565,0.002,1.13,0.005,1.7,0.693-0.953,1.48-1.99,2.65-2.35,0.771-0.188,1.65-0.152,2.35,0.242,0.349,0.468,0.191,1.15,0.242,1.7z" fill-rule="nonzero" fill="#000"/>
<path d="m501,16c0.0904,0.701-0.46,1.42-1.21,1.32h-7.88c-0.0198,1.19,0.337,2.57,1.47,3.18,1.19,0.638,2.61,0.515,3.9,0.311,0.868-0.135,1.68-0.492,2.52-0.728,0.861-0.0031,0.514,1.2,0.572,1.76,0.103,0.854-0.746,1.21-1.43,1.37-2.21,0.623-4.62,0.797-6.84,0.105-1.59-0.489-2.9-1.76-3.42-3.34-0.611-1.82-0.65-3.8-0.302-5.68,0.363-1.9,1.49-3.74,3.28-4.6,1.68-0.812,3.66-0.862,5.44-0.389,1.7,0.469,3.08,1.86,3.54,3.56,0.316,1.01,0.37,2.08,0.352,3.13zm-3.57-1.05c0.0528-1.18-0.284-2.6-1.47-3.1-1.19-0.491-2.78-0.196-3.46,0.986-0.389,0.634-0.542,1.38-0.578,2.12,1.84,0.000003,3.67,0.000007,5.51,0.00001z" fill-rule="nonzero" fill="#000"/>
<path d="m513,19.2c0.0782,1.68-0.978,3.31-2.54,3.94-2.14,0.872-4.68,0.789-6.75-0.229-0.911-0.457-0.67-1.67-0.64-2.5,0.26-1.23,1.5,0.156,2.2,0.254,1.16,0.439,2.62,0.657,3.69-0.109,0.876-0.743,0.338-2.1-0.658-2.42-1.65-0.772-3.72-1.16-4.71-2.86-0.999-1.76-0.501-4.3,1.28-5.37,1.9-1.16,4.35-1.14,6.4-0.391,1.14,0.237,1.03,1.52,0.969,2.41-0.0634,1.29-1.32,0.116-1.97-0.0091-1.02-0.343-2.28-0.543-3.23,0.0824-0.821,0.617-0.466,1.9,0.431,2.24,1.67,0.856,3.81,1.14,4.93,2.82,0.427,0.633,0.612,1.39,0.6,2.15z" fill-rule="nonzero" fill="#000"/>
<path d="m520,22.9c-0.257,0.766-1.34,0.511-1.98,0.585-0.574-0.0633-1.64,0.119-1.71-0.667v-13c0.256-0.766,1.33-0.55,1.98-0.614,0.579,0.0582,1.63-0.0858,1.71,0.696v13zm0.278-17.5c0.0304,0.72-0.18,1.65-1,1.83-0.854,0.19-1.81,0.233-2.63-0.136-0.723-0.482-0.65-1.49-0.579-2.25,0.037-0.684,0.589-1.24,1.27-1.29,0.824-0.0808,1.79-0.176,2.49,0.357,0.385,0.385,0.432,0.973,0.439,1.49z" fill-rule="nonzero" fill="#000"/>
<path d="m533,19.2c0.0564,1.51-0.758,3.01-2.1,3.71-1.67,0.896-3.68,0.986-5.51,0.596-0.738-0.194-1.54-0.386-2.1-0.933-0.358-0.614-0.257-1.37-0.232-2.05-0.0557-0.946,0.919-0.619,1.38-0.24,1.23,0.634,2.73,1.05,4.08,0.533,0.863-0.276,1.21-1.51,0.548-2.16-0.841-0.784-2.03-0.967-3.04-1.46-1.12-0.473-2.22-1.21-2.66-2.39-0.601-1.58-0.228-3.58,1.15-4.64,1.5-1.17,3.55-1.35,5.37-1.04,0.744,0.154,1.55,0.321,2.14,0.832,0.332,0.538,0.221,1.22,0.228,1.83,0.141,0.818-0.659,0.919-1.15,0.465-1.14-0.539-2.49-0.903-3.72-0.462-0.845,0.29-1.12,1.55-0.385,2.11,0.961,0.769,2.22,0.956,3.3,1.51,1.14,0.487,2.2,1.36,2.54,2.59,0.114,0.39,0.157,0.799,0.156,1.2z" fill-rule="nonzero" fill="#000"/>
<path d="m543,21.6c0.0369,0.719-0.0677,1.7-0.96,1.82-1.36,0.367-2.87,0.389-4.17-0.18-1.25-0.558-1.83-1.95-1.93-3.25-0.0919-1.59-0.0292-3.18-0.0477-4.77v-2.91c-0.566-0.0126-1.14,0.0263-1.7-0.0215-0.581-0.402-0.404-1.25-0.431-1.86-0.0493-0.542,0.206-1.25,0.859-1.1h1.27c0.013-1.02-0.0263-2.04,0.0202-3.05,0.439-0.642,1.39-0.411,2.07-0.474,0.559,0.0418,1.59-0.0603,1.59,0.734v2.79c0.993,0.0117,1.99-0.0238,2.98,0.0183,0.608,0.366,0.404,1.24,0.439,1.85,0.0346,0.523-0.196,1.26-0.844,1.12h-2.57c0.007,2.17-0.0151,4.35,0.0118,6.52,0.0175,0.713,0.298,1.63,1.13,1.72,0.711,0.224,1.38-0.311,2.05-0.252,0.265,0.355,0.218,0.871,0.242,1.3z" fill-rule="nonzero" fill="#000"/>
<path d="m556,22.9c-0.195,0.753-1.26,0.472-1.85,0.539-0.488,0.0182-1.34-0.0377-1.2-0.728v-0.85c-1.16,1.29-2.92,1.98-4.64,1.81-1.55-0.073-3.19-0.814-3.85-2.29-0.583-1.33-0.565-2.99,0.233-4.23,0.978-1.42,2.78-1.88,4.4-2.06,1.09-0.128,2.19-0.0998,3.29-0.103-0.0115-0.957,0.117-2.09-0.689-2.78-0.854-0.6-1.98-0.488-2.96-0.36-1.07,0.193-2.05,0.697-3.02,1.17-0.787,0.285-0.945-0.8-0.928-1.34-0.0895-0.707,0.253-1.43,0.945-1.68,2.19-1.08,4.77-1.31,7.13-0.737,1.33,0.314,2.52,1.3,2.86,2.65,0.422,1.45,0.245,2.96,0.283,4.44,0.00002,2.18,0.00003,4.37,0.00005,6.55zm-3.62-5.6c-1.29,0.0329-2.66-0.155-3.85,0.463-1.19,0.602-1.16,2.63,0.102,3.13,1.05,0.436,2.29,0.0767,3.08-0.699,0.315-0.309,0.788-0.587,0.668-1.09-0.00003-0.603-0.00005-1.21-0.00008-1.81z" fill-rule="nonzero" fill="#000"/>
<path d="m573,22.9c-0.205,0.74-1.24,0.512-1.83,0.586-0.597-0.075-1.64,0.159-1.85-0.586-0.008-2.67,0.0169-5.34-0.0136-8.01-0.0213-1.04-0.424-2.3-1.54-2.6-1.06-0.333-2.09,0.315-2.79,1.06-0.297,0.384-0.874,0.696-0.762,1.25v8.3c-0.21,0.741-1.25,0.512-1.85,0.586-0.597-0.0743-1.64,0.155-1.85-0.586v-13.1c0.183-0.751,1.21-0.529,1.81-0.584,0.512,0.0134,1.43,0.00209,1.34,0.737v1.36c1.2-1.32,2.85-2.43,4.71-2.34,1.55-0.0267,3.15,0.721,3.88,2.13,0.931,1.71,0.709,3.7,0.74,5.57-0.00001,2.07-0.00003,4.13-0.00004,6.2z" fill-rule="nonzero" fill="#000"/>
<path d="m586,20.8c0.158,0.995-0.353,1.92-1.33,2.22-2.24,1.01-5.11,0.988-7.1-0.546-1.96-1.59-2.36-4.33-2.22-6.71,0.0877-2.37,1.11-4.95,3.34-6.06,2.1-1.02,4.81-1,6.76,0.362,0.754,0.719,0.529,1.96,0.358,2.89-0.609,0.925-1.48-0.53-2.22-0.664-1.32-0.634-3.22-0.347-3.89,1.09-0.71,1.48-0.697,3.22-0.393,4.81,0.212,1.21,1.15,2.37,2.45,2.41,1.36,0.2,2.56-0.599,3.58-1.39,0.836-0.334,0.615,1.18,0.681,1.58z" fill-rule="nonzero" fill="#000"/>
<path d="m601,16c0.0904,0.701-0.46,1.42-1.21,1.32h-7.88c-0.0198,1.19,0.337,2.57,1.47,3.18,1.19,0.638,2.61,0.515,3.9,0.311,0.868-0.135,1.68-0.492,2.52-0.728,0.861-0.0031,0.514,1.2,0.572,1.76,0.104,0.854-0.746,1.21-1.43,1.37-2.21,0.623-4.62,0.797-6.84,0.105-1.59-0.489-2.9-1.76-3.42-3.34-0.611-1.82-0.65-3.8-0.302-5.68,0.363-1.9,1.49-3.74,3.28-4.6,1.68-0.812,3.66-0.862,5.44-0.389,1.7,0.469,3.08,1.86,3.54,3.56,0.316,1.01,0.37,2.08,0.351,3.13zm-3.57-1.05c0.0528-1.18-0.284-2.6-1.47-3.1-1.19-0.491-2.78-0.196-3.46,0.986-0.389,0.634-0.542,1.38-0.578,2.12,1.84,0.000003,3.67,0.000007,5.51,0.00001z" fill-rule="nonzero" fill="#000"/>
<path d="m825,10.6c0.0239,2.68-0.59,5.6-2.64,7.49-2.05,1.9-5,2.3-7.69,2.27-1.5-0.0113-3.01,0.023-4.51-0.0178-0.712-0.0644-0.997-0.818-0.91-1.44,0.003-5.48-0.007-11,0.005-16.4-0.0332-0.739,0.724-1.16,1.38-1.06,2.09,0.0234,4.18-0.0592,6.27,0.0701,2.49,0.174,5.06,1.2,6.51,3.32,1.19,1.68,1.59,3.79,1.58,5.81zm-3.98,0.132c0.0187-2.01-0.549-4.28-2.35-5.43-1.65-1.11-3.69-0.852-5.57-0.886v12.9c1.92-0.0316,4,0.223,5.67-0.925,1.82-1.23,2.27-3.6,2.26-5.65z" fill-rule="nonzero" fill="#000"/>
<path d="m832,19.8c-0.257,0.766-1.34,0.511-1.98,0.585-0.574-0.0633-1.64,0.119-1.71-0.667v-13c0.256-0.766,1.33-0.55,1.98-0.614,0.579,0.0582,1.63-0.0858,1.71,0.696v13zm0.278-17.5c0.0304,0.72-0.18,1.65-1,1.83-0.854,0.19-1.81,0.233-2.63-0.136-0.723-0.482-0.65-1.49-0.579-2.25,0.037-0.684,0.589-1.24,1.27-1.29,0.824-0.0808,1.79-0.176,2.49,0.357,0.385,0.385,0.432,0.973,0.439,1.49z" fill-rule="nonzero" fill="#000"/>
<path d="m849,13.2c0.0158,2.16-0.598,4.5-2.31,5.94-1.8,1.53-4.33,1.77-6.58,1.42-1.85-0.275-3.61-1.4-4.37-3.15-0.804-1.82-0.885-3.89-0.587-5.83,0.304-1.93,1.38-3.81,3.14-4.74,1.84-0.995,4.05-1.06,6.06-0.657,1.73,0.354,3.3,1.53,3.97,3.2,0.513,1.2,0.672,2.52,0.675,3.82zm-3.79,0.146c-0.019-1.37-0.155-2.97-1.29-3.89-0.931-0.711-2.28-0.732-3.32-0.273-1.29,0.627-1.7,2.18-1.78,3.5-0.0498,1.42-0.002,3,0.911,4.17,0.87,1.02,2.44,1.12,3.62,0.647,1.26-0.547,1.74-2.01,1.83-3.28,0.0256-0.288,0.0363-0.578,0.0366-0.867z" fill-rule="nonzero" fill="#000"/>
<path d="m864,19.8c-0.289,0.893-1.56,0.511-2.3,0.557-0.673,0.0637-0.921-0.538-0.82-1.1v-0.911c-1.21,1.33-2.89,2.4-4.76,2.28-1.86,0.0442-3.63-1.1-4.4-2.78-0.953-2.06-1.02-4.43-0.689-6.64,0.313-2.06,1.42-4.22,3.49-4.97,1.66-0.622,3.66-0.446,5.04,0.733,0.446,0.362,0.922,0.985,0.772,0.0882v-6.49c0.284-0.852,1.49-0.558,2.21-0.624,0.598-0.0116,1.61,0.095,1.45,0.918-0.00002,6.31-0.00005,12.6-0.00007,18.9zm-3.66-8.73c-0.802-0.975-1.82-2.15-3.21-2.05-1.38,0.0514-2.15,1.44-2.37,2.65-0.272,1.54-0.223,3.22,0.488,4.65,0.549,1.16,2.1,1.52,3.17,0.891,0.778-0.441,1.42-1.14,1.91-1.86-0.00002-1.43-0.00003-2.86-0.00005-4.29z" fill-rule="nonzero" fill="#000"/>
<path d="m880,12.9c0.0904,0.701-0.46,1.42-1.21,1.32h-7.88c-0.0198,1.19,0.337,2.57,1.47,3.18,1.19,0.638,2.61,0.515,3.9,0.311,0.868-0.135,1.68-0.492,2.52-0.728,0.861-0.0032,0.514,1.2,0.572,1.76,0.103,0.854-0.746,1.21-1.43,1.37-2.21,0.623-4.62,0.797-6.84,0.105-1.59-0.489-2.9-1.76-3.42-3.34-0.611-1.82-0.65-3.8-0.302-5.68,0.363-1.9,1.49-3.74,3.28-4.6,1.68-0.812,3.66-0.862,5.44-0.389,1.7,0.469,3.08,1.86,3.54,3.56,0.316,1.01,0.37,2.08,0.352,3.13zm-3.57-1.05c0.0528-1.18-0.284-2.6-1.47-3.1-1.19-0.491-2.78-0.196-3.46,0.986-0.39,0.634-0.542,1.38-0.578,2.12,1.84,0.000003,3.67,0.000007,5.51,0.00001z" fill-rule="nonzero" fill="#000"/>
<path d="m493,53.7c-0.263,0.596-1.08,0.443-1.61,0.502-0.511-0.0725-1.52,0.177-1.62-0.502,1-5,2-9.99,3-15,0.28-0.621,1.15-0.443,1.71-0.502,0.481,0.0672,1.47-0.152,1.5,0.536-0.994,4.99-1.99,9.97-2.98,15z" fill-rule="nonzero" fill="#000"/>
<path d="m648,151c-0.0734,0.139-0.151,0.251-0.232,0.336-0.0815,0.0856-0.2,0.151-0.355,0.196-0.155,0.0448-0.361,0.0734-0.618,0.0856s-0.593,0.0184-1.01,0.0184c-0.481,0-0.864-0.006-1.15-0.0184-0.285-0.0122-0.502-0.0408-0.648-0.0856-0.147-0.0448-0.247-0.112-0.3-0.202-0.053-0.0897-0.0877-0.212-0.104-0.367l-1.93-14.3c-0.0245-0.22-0.0326-0.398-0.0245-0.532,0.008-0.135,0.0652-0.236,0.171-0.306,0.106-0.0693,0.271-0.114,0.495-0.135,0.224-0.0204,0.536-0.0306,0.936-0.0306,0.4,0.00001,0.711,0.008,0.936,0.0245,0.224,0.0163,0.395,0.0469,0.514,0.0917,0.118,0.0449,0.194,0.108,0.226,0.19,0.0326,0.0815,0.0571,0.188,0.0734,0.318l1.35,12.2h0.0245l6.15-12.2c0.0571-0.114,0.122-0.21,0.196-0.287,0.0734-0.0774,0.177-0.137,0.312-0.177,0.135-0.0408,0.314-0.0693,0.538-0.0856s0.52-0.0245,0.887-0.0245c0.391,0.00001,0.697,0.0122,0.917,0.0367s0.367,0.0816,0.44,0.171c0.0734,0.0897,0.0815,0.222,0.0245,0.398-0.0571,0.175-0.163,0.41-0.318,0.703z" fill-rule="nonzero" fill="#000"/>
<path d="m156,57.6c-0.263,0.595-1.08,0.442-1.61,0.501-0.51-0.0724-1.52,0.177-1.62-0.501,0.999-4.99,2-9.98,3-15,0.28-0.62,1.15-0.442,1.71-0.501,0.481,0.0671,1.47-0.151,1.5,0.535-0.993,4.98-1.99,9.96-2.98,14.9z" fill-rule="nonzero" fill="#000"/>
<path d="m310,155c-0.316,0.753-1.26,0.598-1.92,0.635-0.756-0.0406-1.56,0.106-2.28-0.187-0.319-0.339-0.224-0.862-0.328-1.29-0.611-4.55-1.24-9.1-1.84-13.7-0.251-0.972,0.99-0.84,1.59-0.846,0.608,0.0567,1.76-0.205,1.76,0.709,0.445,4.03,0.891,8.07,1.34,12.1,0.304-0.491,0.55-1.08,0.832-1.61,1.8-3.57,3.59-7.14,5.39-10.7,0.468-0.699,1.45-0.42,2.17-0.49,0.761-0.171,1.54,0.344,0.894,1.1-2.53,4.75-5.07,9.49-7.6,14.2z" fill-rule="nonzero" fill="#000"/>
<path d="m835,53.4c-0.382,0.675-1.3,0.441-1.94,0.486-0.47,0.059-1.44,0.0119-1.25-0.688,0.985-4.92,1.97-9.85,2.96-14.8,0.407-0.697,1.36-0.437,2.03-0.486,0.473-0.0696,1.37,0.0481,1.14,0.721-0.979,4.91-1.96,9.82-2.94,14.7z" fill-rule="nonzero" fill="#000"/>
<path d="m989,151c-0.316,0.753-1.26,0.598-1.92,0.635-0.756-0.0406-1.56,0.106-2.28-0.187-0.319-0.339-0.224-0.862-0.328-1.29-0.611-4.55-1.24-9.1-1.84-13.7-0.251-0.972,0.99-0.84,1.59-0.846,0.608,0.0567,1.76-0.205,1.76,0.709,0.445,4.03,0.891,8.07,1.34,12.1,0.304-0.491,0.55-1.08,0.832-1.61,1.8-3.57,3.59-7.14,5.39-10.7,0.468-0.699,1.45-0.42,2.17-0.49,0.761-0.171,1.54,0.344,0.894,1.1-2.53,4.75-5.07,9.49-7.6,14.2z" fill-rule="nonzero" fill="#000"/>
<path d="m903,91.5c0.0588,0.311-0.134,0.613-0.464,0.528h-2.46v8.23c-0.203,0.37-0.836,0.246-1.19,0.142-0.129-0.154-0.046-0.382-0.0697-0.57v-7.81c-0.909-0.0049-1.82,0.0099-2.73-0.0074-0.279-0.218-0.278-0.836-0.00001-1.06,1.46-0.017,2.92-0.0025,4.39-0.0073,0.777,0.0049,1.56-0.0098,2.33,0.0074,0.207,0.0765,0.182,0.358,0.194,0.536z" fill-rule="nonzero" fill="#000"/>
<path d="m910,100c-0.19,0.36-0.807,0.246-1.14,0.137-0.126-0.151-0.0445-0.374-0.0679-0.559-0.007-1.28,0.0146-2.56-0.0124-3.84-0.0265-0.638-0.296-1.4-0.982-1.57-0.674-0.207-1.33,0.195-1.78,0.669-0.164,0.235-0.534,0.412-0.488,0.736v4.43c-0.192,0.362-0.809,0.244-1.15,0.137-0.118-0.163-0.0394-0.39-0.0624-0.583v-9.36c0.176-0.371,0.808-0.253,1.14-0.143,0.126,0.163,0.0445,0.394,0.0679,0.589v3.51c0.61-0.672,1.49-1.2,2.43-1.07,0.863,0.0412,1.65,0.668,1.87,1.5,0.257,0.889,0.148,1.82,0.172,2.74,0.00003,0.895,0.00007,1.79,0.0001,2.68z" fill-rule="nonzero" fill="#000"/>
<path d="m914,100c-0.124,0.339-0.616,0.201-0.903,0.213-0.265,0.0219-0.345-0.216-0.308-0.431v-6.39c0.123-0.338,0.612-0.204,0.903-0.213,0.26-0.0193,0.346,0.218,0.308,0.431v6.39zm0.139-8.84c0.0412,0.351-0.159,0.743-0.556,0.724-0.321,0.0236-0.808,0.0376-0.901-0.358-0.0573-0.318-0.0968-0.73,0.167-0.967,0.314-0.163,0.711-0.152,1.04-0.0334,0.233,0.113,0.249,0.409,0.253,0.635z" fill-rule="nonzero" fill="#000"/>
<path d="m920,98.5c0.0248,0.712-0.361,1.42-0.996,1.76-0.823,0.438-1.82,0.453-2.71,0.211-0.312-0.108-0.673-0.2-0.887-0.47-0.116-0.284-0.122-0.632-0.006-0.916,0.302-0.167,0.579,0.252,0.876,0.314,0.617,0.285,1.36,0.37,2,0.085,0.559-0.236,0.725-1.08,0.265-1.49-0.498-0.454-1.19-0.567-1.78-0.869-0.601-0.258-1.15-0.761-1.25-1.44-0.131-0.71,0.158-1.49,0.777-1.89,0.823-0.535,1.9-0.542,2.81-0.211,0.26,0.104,0.587,0.257,0.56,0.59,0.0533,0.241-0.0107,0.833-0.375,0.552-0.617-0.381-1.41-0.575-2.11-0.295-0.559,0.215-0.717,1.05-0.256,1.44,0.493,0.449,1.17,0.569,1.76,0.858,0.555,0.229,1.09,0.632,1.26,1.24,0.049,0.172,0.0675,0.352,0.0677,0.53z" fill-rule="nonzero" fill="#000"/>
<path d="m926,100c-0.138,0.349-0.656,0.202-0.958,0.204-0.266,0.005-0.268-0.259-0.252-0.453v-9.56c0.124-0.361,0.657-0.208,0.958-0.212,0.264-0.000461,0.268,0.266,0.253,0.46v9.56z" fill-rule="nonzero" fill="#000"/>
<path d="m930,100c-0.124,0.339-0.616,0.201-0.903,0.213-0.265,0.0219-0.345-0.216-0.308-0.431v-6.39c0.123-0.338,0.612-0.204,0.903-0.213,0.26-0.0193,0.346,0.218,0.308,0.431v6.39zm0.139-8.84c0.0412,0.351-0.159,0.743-0.556,0.724-0.321,0.0236-0.808,0.0376-0.901-0.358-0.0573-0.318-0.0968-0.73,0.167-0.967,0.314-0.163,0.711-0.152,1.04-0.0334,0.233,0.113,0.249,0.408,0.253,0.635z" fill-rule="nonzero" fill="#000"/>
<path d="m938,100c-0.109,0.324-0.566,0.205-0.84,0.219-0.252,0.0291-0.425-0.164-0.371-0.402-0.003-1.32,0.007-2.64-0.006-3.95-0.019-0.594-0.178-1.29-0.743-1.6-0.543-0.288-1.23-0.135-1.68,0.259-0.314,0.255-0.611,0.552-0.84,0.88v4.6c-0.11,0.324-0.566,0.205-0.84,0.219-0.255,0.03-0.425-0.163-0.371-0.402v-6.42c0.0974-0.348,0.593-0.201,0.869-0.21,0.236,0.0099,0.238,0.254,0.225,0.429v0.654c0.581-0.666,1.39-1.24,2.31-1.2,0.748-0.01,1.52,0.349,1.89,1.02,0.472,0.819,0.381,1.79,0.392,2.69,0.00002,1.07,0.00005,2.15,0.00007,3.22z" fill-rule="nonzero" fill="#000"/>
<path d="m945,96.7c0.0423,0.302-0.227,0.569-0.526,0.528h-4.27c-0.003,0.73,0.137,1.57,0.772,2.03,0.639,0.449,1.48,0.424,2.21,0.297,0.448-0.077,0.862-0.269,1.29-0.417,0.365,0.0195,0.241,0.556,0.208,0.807-0.165,0.29-0.55,0.336-0.84,0.443-1.04,0.277-2.18,0.356-3.19-0.0603-0.771-0.315-1.33-1.03-1.54-1.82-0.245-0.924-0.255-1.92-0.0185-2.84,0.229-0.899,0.847-1.72,1.73-2.07,0.765-0.304,1.64-0.316,2.43-0.06,0.854,0.291,1.48,1.07,1.65,1.95,0.095,0.399,0.116,0.81,0.108,1.22zm-1.22-0.36c0.0291-0.683-0.178-1.47-0.815-1.83-0.678-0.35-1.6-0.287-2.15,0.272-0.408,0.407-0.59,0.991-0.612,1.56,1.19-0.00001,2.39-0.00002,3.58-0.00003z" fill-rule="nonzero" fill="#000"/>
<path d="m956,100c-0.19,0.36-0.806,0.246-1.14,0.137-0.126-0.151-0.0444-0.374-0.0679-0.559-0.007-1.28,0.0146-2.56-0.0124-3.84-0.0265-0.638-0.296-1.4-0.982-1.57-0.674-0.207-1.33,0.195-1.78,0.669-0.164,0.235-0.534,0.412-0.488,0.736v4.43c-0.192,0.362-0.809,0.244-1.15,0.137-0.118-0.163-0.0394-0.39-0.0624-0.583v-9.36c0.176-0.371,0.808-0.253,1.14-0.143,0.126,0.163,0.0444,0.394,0.0679,0.589v3.51c0.61-0.672,1.49-1.2,2.43-1.07,0.863,0.0412,1.65,0.668,1.87,1.5,0.257,0.889,0.148,1.82,0.172,2.74-0.00001,0.895-0.00003,1.79-0.00004,2.68z" fill-rule="nonzero" fill="#000"/>
<path d="m964,100c-0.0777,0.311-0.52,0.204-0.764,0.208-0.251,0.0218-0.307-0.213-0.278-0.407v-0.461c-0.575,0.63-1.42,1.04-2.28,0.971-0.747-0.0226-1.55-0.358-1.89-1.06-0.377-0.779-0.263-1.84,0.426-2.41,0.716-0.591,1.68-0.706,2.58-0.726,0.335-0.0012,0.67-0.000231,1.01-0.00053-0.007-0.571,0.0654-1.21-0.341-1.68-0.436-0.445-1.12-0.428-1.69-0.351-0.541,0.0942-1.03,0.354-1.51,0.614-0.388,0.12-0.378-0.427-0.339-0.675,0.0676-0.348,0.46-0.465,0.738-0.607,0.965-0.396,2.08-0.493,3.08-0.154,0.61,0.205,1.06,0.756,1.18,1.38,0.144,0.665,0.0761,1.35,0.092,2.02,0.00001,1.11,0.00001,2.22,0.00001,3.33zm-1.2-3.02c-0.678,0.0177-1.37-0.0612-2.03,0.119-0.469,0.116-0.914,0.485-0.938,0.997-0.0753,0.501,0.207,1.05,0.711,1.19,0.614,0.2,1.3,0.0038,1.77-0.427,0.164-0.169,0.413-0.317,0.491-0.535,0.00001-0.449,0.00002-0.898,0.00003-1.35z" fill-rule="nonzero" fill="#000"/>
<path d="m970,98.5c0.0248,0.712-0.361,1.42-0.996,1.76-0.823,0.438-1.82,0.453-2.71,0.211-0.312-0.108-0.673-0.2-0.887-0.47-0.116-0.284-0.122-0.632-0.006-0.916,0.302-0.167,0.579,0.252,0.876,0.314,0.617,0.285,1.36,0.37,2,0.085,0.559-0.236,0.725-1.08,0.265-1.49-0.498-0.454-1.19-0.567-1.78-0.869-0.601-0.258-1.15-0.761-1.25-1.44-0.131-0.709,0.158-1.49,0.777-1.89,0.823-0.535,1.9-0.542,2.81-0.211,0.26,0.104,0.587,0.257,0.56,0.59,0.0533,0.241-0.0107,0.833-0.375,0.552-0.617-0.381-1.41-0.575-2.11-0.295-0.559,0.215-0.717,1.05-0.256,1.44,0.493,0.449,1.17,0.569,1.76,0.858,0.555,0.229,1.09,0.632,1.26,1.24,0.049,0.172,0.0675,0.352,0.0677,0.53z" fill-rule="nonzero" fill="#000"/>
<path d="m980,100c-0.0777,0.311-0.52,0.204-0.764,0.208-0.251,0.0218-0.307-0.213-0.278-0.407v-0.461c-0.575,0.63-1.42,1.04-2.28,0.971-0.747-0.0226-1.55-0.358-1.89-1.06-0.377-0.779-0.263-1.84,0.426-2.41,0.716-0.591,1.68-0.706,2.58-0.726,0.335-0.0012,0.67-0.000231,1.01-0.00053-0.007-0.571,0.0654-1.21-0.341-1.68-0.436-0.445-1.12-0.428-1.69-0.351-0.541,0.0942-1.03,0.354-1.51,0.614-0.388,0.12-0.378-0.427-0.339-0.675,0.0675-0.348,0.46-0.465,0.738-0.607,0.965-0.396,2.08-0.493,3.08-0.154,0.61,0.205,1.06,0.756,1.18,1.38,0.144,0.665,0.0761,1.35,0.0921,2.02,0.00002,1.11,0.00005,2.22,0.00007,3.33zm-1.2-3.02c-0.678,0.0177-1.37-0.0612-2.03,0.119-0.469,0.116-0.914,0.485-0.938,0.997-0.0753,0.501,0.207,1.05,0.711,1.19,0.614,0.2,1.3,0.0038,1.77-0.427,0.164-0.169,0.413-0.317,0.491-0.535,0.00001-0.449,0.00001-0.898,0.00002-1.35z" fill-rule="nonzero" fill="#000"/>
<path d="m988,100c-0.109,0.324-0.566,0.205-0.84,0.219-0.252,0.0291-0.425-0.164-0.371-0.402-0.003-1.32,0.007-2.64-0.006-3.95-0.019-0.594-0.178-1.29-0.743-1.6-0.543-0.288-1.23-0.135-1.68,0.259-0.314,0.255-0.611,0.552-0.84,0.88v4.6c-0.11,0.324-0.566,0.205-0.84,0.219-0.255,0.03-0.425-0.163-0.371-0.402v-6.42c0.0974-0.348,0.593-0.201,0.869-0.21,0.236,0.0099,0.238,0.254,0.225,0.429v0.654c0.581-0.666,1.39-1.24,2.31-1.2,0.748-0.01,1.52,0.349,1.89,1.02,0.472,0.819,0.381,1.79,0.392,2.69,0.00002,1.07,0.00005,2.15,0.00007,3.22z" fill-rule="nonzero" fill="#000"/>
<path d="m995,100c-0.124,0.339-0.616,0.201-0.903,0.213-0.265,0.0219-0.345-0.216-0.308-0.431v-6.39c0.123-0.338,0.612-0.204,0.903-0.213,0.26-0.0193,0.346,0.218,0.308,0.431v6.39zm0.139-8.84c0.0412,0.351-0.159,0.743-0.556,0.724-0.321,0.0236-0.808,0.0376-0.901-0.358-0.0573-0.318-0.0968-0.73,0.167-0.967,0.314-0.163,0.711-0.152,1.04-0.0334,0.233,0.113,0.249,0.409,0.253,0.635z" fill-rule="nonzero" fill="#000"/>
<path fill-rule="nonzero" fill="#000" d="m1002.96,100.01333c-0.226,0.361-0.797,0.251-1.12,0.134-0.191-0.307004-0.035-0.701004-0.087-1.040004-0.01-1.19,0.03-2.38-0.033-3.56-0.059-0.579-0.371-1.22-0.985-1.37-0.632-0.171-1.27998,0.162-1.69998,0.619-0.195,0.227-0.531,0.434-0.55,0.753v4.470004c-0.22,0.365-0.75,0.224-1.09,0.169-0.212-0.18-0.0965-0.478004-0.121-0.718004v-6.06c0.194-0.37,0.68-0.226,1.01-0.163,0.17,0.228,0.0584,0.525,0.0885,0.786,0.001,0.137-0.032,0.359,0.111,0.127,0.579-0.633,1.39-1.14,2.27998-1.08,0.884,0.0016,1.76,0.589,2.01,1.46,0.299,0.913,0.161,1.88,0.194,2.83v2.650004z"/>
<path fill-rule="nonzero" fill="#000" d="m1009.3023,99.367439c0.057,0.36-0.174,0.695001-0.496,0.837001-1.02,0.614-2.39,0.684-3.42,0.0535-0.769-0.508001-1.15-1.430001-1.25-2.310001-0.111-0.918-0.057-1.88,0.29-2.74,0.314-0.763,0.956-1.41,1.77-1.62,0.958-0.284,2.07-0.138,2.86,0.495,0.249,0.271,0.309,0.742,0.137,1.06-0.36,0.289-0.602-0.301-0.934-0.384-0.663-0.37-1.59-0.439-2.19,0.102-0.537,0.479-0.663,1.23-0.713,1.92-0.018,0.718,0.014,1.48,0.392,2.12,0.291,0.525,0.9,0.791,1.48,0.763,0.588-0.0133,1.15-0.29,1.57-0.684,0.198-0.224,0.545-0.135,0.489,0.198,0,0.0685,0,0.138,0.01,0.206z"/>
<path fill-rule="nonzero" fill="#000" d="m1014.7756,94.167439c0.082,0.284-0.107,0.752-0.446,0.496-0.395-0.15-0.889-0.182-1.22,0.118-0.417,0.326-0.711,0.787-0.982,1.23v4.330001c-0.148,0.347-0.601,0.19-0.896,0.222-0.243,0.004-0.369-0.218-0.315-0.433v-6.390001c0.129-0.36,0.595-0.191,0.884-0.216,0.22,0.0498,0.23,0.295,0.21,0.476v0.701c0.379-0.532,0.825-1.12,1.5-1.26,0.391-0.0683,0.806-0.0196,1.16,0.161,0.156,0.151,0.077,0.383,0.105,0.572z"/>
<path fill-rule="nonzero" fill="#000" d="m1021.5185,97.048165c0.053,0.321-0.276,0.594-0.583,0.528h-4.22c0,0.751,0.152,1.63,0.833,2.07,0.727,0.454005,1.64,0.380005,2.44,0.191003,0.34-0.0936,0.664-0.235003,0.997-0.352003,0.393,0.0857,0.293,0.718005,0.09,0.947005-0.31,0.226-0.705,0.289-1.07,0.387-1.07,0.232-2.26,0.237-3.23-0.34-0.712-0.448-1.14-1.250005-1.26-2.060005-0.169-0.977-0.121-2.02,0.265-2.94,0.356-0.823,1.09-1.48,1.98-1.67,0.796-0.185,1.68-0.126,2.4,0.272,0.725,0.416,1.18,1.2,1.28,2.02,0.051,0.316,0.059,0.637,0.059,0.955zm-1.22-0.36c0.034-0.704-0.199-1.53-0.88-1.86-0.783-0.379-1.86-0.175-2.33,0.594-0.245,0.374-0.358,0.822-0.376,1.27,1.19-0.00001,2.39-0.00002,3.58-0.00003z"/>
<path fill-rule="nonzero" fill="#000" d="m1028.1395,100.65116c-0.078,0.311-0.52,0.204-0.764,0.208-0.251,0.022-0.306-0.213-0.278-0.407v-0.461002c-0.575,0.629002-1.42,1.040002-2.28,0.971002-0.746-0.0226-1.55-0.358-1.89-1.060002-0.377-0.779-0.263-1.84,0.426-2.41,0.716-0.591,1.68-0.706,2.58-0.726,0.335-0.0012,0.67-0.000231,1.01-0.00053-0.01-0.571,0.065-1.21-0.342-1.68-0.436-0.445-1.12-0.428-1.69-0.351-0.541,0.0942-1.03,0.354-1.51,0.614-0.387,0.12-0.38-0.427-0.339-0.675,0.067-0.348,0.459-0.465,0.737-0.607,0.965-0.396,2.08-0.493,3.08-0.154,0.61,0.205,1.06,0.756,1.18,1.38,0.144,0.665,0.076,1.35,0.092,2.02,0.0002,1.11,0.0003,2.22,0.0004,3.330002zm-1.2-3.020002c-0.678,0.0177-1.37-0.0612-2.03,0.119-0.469,0.116-0.914,0.485-0.939,0.997-0.075,0.501,0.207,1.05,0.711,1.19,0.614,0.200002,1.3,0.0038,1.77-0.427,0.164-0.169,0.413-0.317,0.491-0.535v-1.35z"/>
<path fill-rule="nonzero" fill="#000" d="m1034.5348,98.8c0.025,0.712-0.361,1.42-0.996,1.76-0.823,0.438-1.82,0.453-2.71,0.211-0.312-0.108-0.673-0.2-0.887-0.47-0.117-0.284-0.121-0.632-0.01-0.916,0.302-0.167,0.579,0.252,0.876,0.314,0.617,0.285,1.36,0.37,2,0.085,0.582-0.245,0.729-1.14,0.22-1.53-0.523-0.434-1.22-0.548-1.81-0.863-0.604-0.269-1.13-0.814-1.19-1.5-0.102-0.719,0.239-1.49,0.88-1.85,0.828-0.484,1.88-0.476,2.76-0.136,0.272,0.0997,0.558,0.29,0.52,0.619,0.065,0.261-0.07,0.801-0.412,0.484-0.612-0.367-1.39-0.551-2.08-0.275-0.559,0.215-0.716,1.05-0.256,1.44,0.493,0.449,1.17,0.569,1.76,0.858,0.555,0.229,1.09,0.632,1.26,1.24,0.049,0.172,0.068,0.352,0.067,0.53z"/>
<path fill-rule="nonzero" fill="#000" d="m1037.2093,100.93036c-0.123,0.339-0.615,0.201-0.902,0.213-0.265,0.022-0.344-0.216-0.308-0.431v-6.39c0.124-0.338,0.611-0.204,0.903-0.213,0.26-0.0194,0.345,0.218,0.307,0.431v6.39zm0.14-8.84c0.041,0.351-0.159,0.743-0.556,0.724-0.322,0.0236-0.808,0.0376-0.901-0.358-0.057-0.318-0.097-0.73,0.167-0.967,0.314-0.163,0.711-0.152,1.04-0.0334,0.233,0.113,0.249,0.408,0.253,0.635z"/>
<path fill-rule="nonzero" fill="#000" d="m1044.9999,101c-0.109,0.324-0.566,0.205-0.839,0.219-0.252,0.0293-0.424-0.164-0.37-0.402,0-1.32,0.01-2.64-0.01-3.95-0.019-0.594-0.178-1.29-0.743-1.6-0.543-0.288-1.23-0.135-1.68,0.259-0.314,0.255-0.611,0.552-0.84,0.88v4.6c-0.109,0.324-0.566,0.205-0.84,0.219-0.255,0.03-0.425-0.163-0.371-0.402v-6.42c0.098-0.349,0.593-0.201,0.868-0.21,0.236,0.01,0.238,0.254,0.225,0.429v0.654c0.581-0.666,1.39-1.24,2.31-1.2,0.748-0.01,1.52,0.349,1.89,1.02,0.472,0.819,0.381,1.79,0.391,2.69-0.0006,1.07,0,2.15,0,3.22z"/>
<path fill-rule="nonzero" fill="#000" d="m1052.5581,93.951158c0.053,0.297-0.157,0.561-0.459,0.484h-0.738c0.575,0.591,0.555,1.53,0.279,2.26-0.356,0.914-1.37,1.38-2.31,1.37-0.486,0.0051-1-0.082-1.4-0.374-0.301,0.27-0.461,0.856-0.062,1.12,0.411,0.259,0.916,0.17,1.38,0.215,0.837,0.0546,1.74-0.0308,2.48,0.442,0.61,0.352,0.868,1.110002,0.718,1.780002-0.14,0.84-0.875,1.45-1.66,1.67-0.93,0.269-1.93,0.257-2.88,0.067-0.673-0.148-1.42-0.53-1.56-1.27-0.164-0.689,0.151-1.42,0.693-1.850002,0.504-0.248-0.305-0.368-0.351-0.717-0.328-0.659-0.01-1.43,0.473-1.93-0.14-0.325-0.448-0.748-0.445-1.18-0.107-0.894,0.266-1.88,1.08-2.33,0.773-0.451,1.72-0.425,2.57-0.241,0.669,0.0049,1.34-0.01,2.01,0.0076,0.19,0.0681,0.184,0.317,0.191,0.484zm-1.89,1.74c0.037-0.606-0.331-1.25-0.956-1.38-0.606-0.161-1.37,0.0078-1.66,0.608-0.338,0.658-0.261,1.65,0.441,2.04,0.649,0.333,1.62,0.228,1.99-0.47,0.133-0.243,0.19-0.523,0.19-0.799zm0.609,5.230002c0.028-0.487-0.447-0.802-0.88-0.861-0.69-0.0777-1.39-0.0636-2.08-0.0988-0.312,0.168-0.581,0.484-0.737,0.812-0.175,0.4-0.077,0.941,0.346,1.14,0.654,0.328,1.43,0.318,2.13,0.218,0.543-0.0904,1.14-0.428,1.21-1.03,0.01-0.0609,0.014-0.123,0.014-0.184z"/>
<path fill-rule="nonzero" fill="#000" d="m1055.1844,101.05487c-0.137,0.35-0.655,0.202-0.958,0.204-0.266,0.005-0.268-0.259-0.252-0.453v-9.560002c0.124-0.361,0.657-0.208,0.958-0.212,0.264-0.000579,0.268,0.266,0.252,0.46v9.560002z"/>
<path fill-rule="nonzero" fill="#000" d="m1059.7674,100.04154c-0.294,0.81-0.587,1.62-0.881,2.43-0.289,0.337-0.869,0.281-1.26,0.162-0.167-0.177,0.038-0.403,0.086-0.594,0.264-0.665,0.527-1.33,0.791-2-0.258-0.160997-0.277-0.497997-0.4-0.754-0.729-1.96-1.46-3.91-2.19-5.86-0.161-0.531,0.603-0.38,0.914-0.386,0.311-0.0299,0.381,0.288,0.46,0.515,0.6,1.69,1.2,3.37,1.8,5.06,0.082-0.0899,0.1-0.269,0.156-0.394,0.57-1.67,1.14-3.33,1.71-5,0.259-0.305,0.814-0.212,1.16-0.105,0.152,0.214-0.045,0.465-0.1,0.686-0.751,2.08-1.5,4.16-2.25,6.24z"/>
<path d="m951,117c0.0247,0.71-0.36,1.42-0.994,1.75-0.822,0.437-1.82,0.452-2.7,0.211-0.312-0.108-0.672-0.2-0.885-0.469-0.116-0.283-0.122-0.631-0.006-0.915,0.302-0.166,0.578,0.252,0.874,0.313,0.616,0.284,1.36,0.37,1.99,0.0849,0.557-0.235,0.724-1.08,0.265-1.49-0.497-0.454-1.19-0.566-1.77-0.867-0.6-0.257-1.15-0.76-1.25-1.43-0.13-0.708,0.158-1.49,0.776-1.88,0.821-0.534,1.9-0.541,2.8-0.21,0.26,0.104,0.586,0.256,0.559,0.589,0.0532,0.24-0.0108,0.832-0.375,0.551-0.616-0.381-1.41-0.574-2.1-0.295-0.558,0.215-0.715,1.05-0.256,1.44,0.492,0.448,1.17,0.568,1.75,0.856,0.554,0.228,1.09,0.631,1.26,1.23,0.0489,0.172,0.0675,0.351,0.0675,0.529z" fill-rule="nonzero" fill="#000"/>
<path d="m956,118c0.0605,0.366-0.176,0.698-0.56,0.714-0.672,0.14-1.46,0.127-2.01-0.34-0.544-0.502-0.575-1.3-0.572-1.99v-3.67c-0.325-0.005-0.651,0.009-0.975-0.007-0.277-0.203-0.247-0.721-0.0467-0.97,0.266-0.0538,0.546-0.0128,0.818-0.0256,0.138,0.0172,0.255,0.013,0.204-0.158,0.004-0.486-0.009-0.973,0.007-1.46,0.203-0.285,0.643-0.168,0.95-0.162,0.253,0.005,0.272,0.257,0.252,0.448v1.33c0.582,0.004,1.17-0.009,1.75,0.007,0.274,0.197,0.247,0.72,0.0439,0.968-0.221,0.0607-0.462,0.0152-0.692,0.0293h-1.1c0.004,1.31-0.009,2.61,0.007,3.92,0.0257,0.408,0.118,0.946,0.571,1.08,0.378,0.122,0.774,0.002,1.13-0.148,0.252-0.0684,0.215,0.294,0.231,0.439z" fill-rule="nonzero" fill="#000"/>
<path d="m963,115c0.0422,0.301-0.227,0.568-0.525,0.527h-4.26c-0.003,0.728,0.136,1.57,0.771,2.02,0.637,0.448,1.47,0.423,2.21,0.297,0.447-0.0768,0.86-0.268,1.28-0.416,0.365,0.0194,0.241,0.555,0.207,0.805-0.165,0.29-0.549,0.335-0.839,0.442-1.03,0.277-2.18,0.356-3.19-0.0602-0.77-0.314-1.33-1.03-1.53-1.82-0.245-0.922-0.255-1.91-0.0185-2.84,0.228-0.897,0.845-1.72,1.72-2.06,0.764-0.304,1.64-0.316,2.42-0.0598,0.852,0.291,1.48,1.07,1.65,1.95,0.0949,0.398,0.115,0.808,0.108,1.22zm-1.22-0.359c0.0289-0.681-0.178-1.47-0.814-1.82-0.677-0.349-1.6-0.286-2.15,0.271-0.407,0.406-0.589,0.989-0.611,1.55,1.19,0.00002,2.38,0.00003,3.57,0.00005z" fill-rule="nonzero" fill="#000"/>
<path d="m970,115c0.0422,0.301-0.227,0.568-0.525,0.527h-4.26c-0.003,0.728,0.136,1.57,0.771,2.02,0.637,0.448,1.47,0.423,2.21,0.297,0.447-0.0768,0.86-0.268,1.28-0.416,0.365,0.0194,0.241,0.555,0.207,0.805-0.165,0.29-0.549,0.335-0.839,0.442-1.03,0.277-2.18,0.356-3.19-0.0602-0.77-0.314-1.32-1.03-1.53-1.82-0.245-0.922-0.255-1.91-0.0185-2.84,0.228-0.897,0.845-1.72,1.72-2.06,0.764-0.304,1.64-0.316,2.42-0.0598,0.852,0.291,1.48,1.07,1.65,1.95,0.0949,0.398,0.115,0.808,0.108,1.22zm-1.22-0.359c0.0289-0.681-0.178-1.47-0.814-1.82-0.677-0.349-1.6-0.286-2.15,0.271-0.407,0.406-0.589,0.989-0.611,1.55,1.19,0.00002,2.38,0.00003,3.57,0.00005z" fill-rule="nonzero" fill="#000"/>
<path d="m978,115c-0.001,1.13-0.236,2.38-1.14,3.15-0.732,0.596-1.82,0.759-2.68,0.363-0.386-0.148-0.783-0.616-1.03-0.746-0.005,1.1,0.01,2.2-0.007,3.3-0.272,0.279-0.854,0.233-1.18,0.0476-0.0553-0.303-0.0117-0.621-0.0256-0.931v-8.38c0.129-0.355,0.768-0.263,1.04-0.106,0.0552,0.311,0.0118,0.639,0.0256,0.957,0.172-0.0915,0.471-0.456,0.718-0.608,0.911-0.734,2.36-0.796,3.26-0.0113,0.825,0.732,1.02,1.91,1.03,2.96zm-1.27,0.139c-0.0165-0.793-0.0835-1.7-0.693-2.28-0.562-0.524-1.48-0.396-2.03,0.0766-0.319,0.258-0.63,0.56-0.854,0.897v2.6c0.478,0.555,1.03,1.21,1.82,1.25,0.65,0.0579,1.23-0.409,1.46-0.993,0.215-0.484,0.293-1.02,0.298-1.55z" fill-rule="nonzero" fill="#000"/>
<path d="m987,117c0.0247,0.71-0.36,1.42-0.995,1.75-0.822,0.437-1.82,0.452-2.7,0.211-0.312-0.108-0.672-0.2-0.885-0.469-0.116-0.283-0.122-0.631-0.006-0.915,0.302-0.166,0.578,0.252,0.874,0.313,0.616,0.284,1.36,0.37,1.99,0.0849,0.557-0.235,0.724-1.08,0.265-1.49-0.497-0.454-1.19-0.566-1.77-0.867-0.6-0.257-1.15-0.76-1.25-1.43-0.13-0.708,0.158-1.49,0.776-1.88,0.821-0.534,1.9-0.541,2.8-0.21,0.26,0.104,0.586,0.256,0.559,0.589,0.0532,0.24-0.0108,0.832-0.375,0.551-0.616-0.381-1.41-0.574-2.1-0.295-0.558,0.215-0.715,1.05-0.256,1.44,0.492,0.448,1.17,0.568,1.75,0.856,0.554,0.228,1.09,0.631,1.26,1.23,0.0489,0.172,0.0674,0.351,0.0676,0.529z" fill-rule="nonzero" fill="#000"/>
<path d="m990,118c-0.138,0.349-0.654,0.202-0.956,0.204-0.266,0.005-0.267-0.259-0.252-0.452v-9.54c0.124-0.36,0.655-0.208,0.956-0.211,0.263-0.00053,0.268,0.266,0.252,0.459v9.54z" fill-rule="nonzero" fill="#000"/>
<path d="m999,115c0.006,1.09-0.315,2.27-1.19,2.99-0.869,0.715-2.09,0.826-3.15,0.598-0.868-0.183-1.62-0.813-1.94-1.64-0.354-0.918-0.384-1.94-0.202-2.9,0.177-0.939,0.745-1.84,1.63-2.25,0.828-0.4,1.8-0.423,2.69-0.217,0.85,0.203,1.57,0.843,1.87,1.66,0.221,0.56,0.299,1.17,0.299,1.77zm-1.27,0.0806c-0.0102-0.775-0.12-1.66-0.731-2.2-0.554-0.477-1.38-0.515-2.05-0.294-0.745,0.265-1.13,1.05-1.23,1.8-0.0925,0.78-0.0696,1.61,0.274,2.33,0.286,0.611,0.957,0.973,1.62,0.957,0.688,0.0443,1.41-0.281,1.74-0.905,0.288-0.51,0.363-1.11,0.367-1.69z" fill-rule="nonzero" fill="#000"/>
<path fill-rule="nonzero" fill="#000" d="m1006.0465,115c-0.0009,1.13-0.236,2.38-1.14,3.15-0.732,0.596-1.82,0.759-2.68,0.363-0.386-0.148-0.783-0.616-1.03-0.746,0,1.1,0.01,2.2-0.01,3.3-0.272,0.279-0.853,0.233-1.17,0.0476-0.056-0.302-0.012-0.621-0.026-0.931v-8.38c0.13-0.356,0.768-0.263,1.04-0.106,0.056,0.304,0.012,0.624,0.026,0.934,0.118,0.0191,0.434-0.416,0.648-0.532,0.829-0.702,2.11-0.848,3.04-0.274,1.05,0.66,1.31,2.03,1.31,3.17zm-1.27,0.139c-0.017-0.793-0.083-1.7-0.693-2.28-0.562-0.524-1.48-0.396-2.03,0.0766-0.319,0.258-0.63,0.56-0.854,0.897v2.6c0.478,0.555,1.03,1.21,1.82,1.25,0.65,0.0579,1.23-0.409,1.46-0.993,0.216-0.484,0.292-1.02,0.298-1.55z"/>
<path fill-rule="nonzero" fill="#000" d="m1013.2558,115c0.042,0.301-0.227,0.568-0.525,0.527h-4.26c0,0.728,0.136,1.57,0.771,2.02,0.637,0.448,1.47,0.423,2.21,0.297,0.447-0.0768,0.86-0.268,1.28-0.416,0.364,0.0199,0.242,0.556,0.203,0.805-0.164,0.29-0.549,0.335-0.838,0.442-1.03,0.277-2.18,0.356-3.19-0.0602-0.77-0.314-1.32-1.03-1.53-1.82-0.245-0.922-0.255-1.91-0.019-2.84,0.229-0.897,0.846-1.72,1.72-2.06,0.764-0.304,1.64-0.316,2.42-0.0598,0.852,0.291,1.48,1.07,1.65,1.95,0.097,0.398,0.111,0.808,0.112,1.22zm-1.22-0.359c0.029-0.682-0.178-1.47-0.814-1.82-0.677-0.349-1.6-0.286-2.15,0.271-0.407,0.406-0.589,0.989-0.611,1.55,1.19,0.00002,2.38,0.00003,3.57,0.00005z"/>
<path d="m919,92.1-14.8-25.4,1.08-0.638,14.8,25.5-1.09,0.625zm-14.89-17.187l0.0125-9.75,8.49,4.8c0.3,0.175,0.4,0.562,0.237,0.862-0.175,0.3-0.55,0.4-0.85,0.225l-7.56-4.28,0.938-0.538-0.0125,8.68c0,0.35-0.275,0.625-0.625,0.625-0.338,0-0.625-0.275-0.625-0.625z" fill-rule="nonzero" fill="#000"/>
</svg>
