<?xml version="1.0" encoding="UTF-8" standalone="no"?>
<!-- Created with Inkscape (http://www.inkscape.org/) -->

<svg
   xmlns:dc="http://purl.org/dc/elements/1.1/"
   xmlns:cc="http://creativecommons.org/ns#"
   xmlns:rdf="http://www.w3.org/1999/02/22-rdf-syntax-ns#"
   xmlns:svg="http://www.w3.org/2000/svg"
   xmlns="http://www.w3.org/2000/svg"
   xmlns:sodipodi="http://sodipodi.sourceforge.net/DTD/sodipodi-0.dtd"
   xmlns:inkscape="http://www.inkscape.org/namespaces/inkscape"
   id="svg2985"
   viewBox="0 0 254.76367 203.94159"
   height="100%"
   width="100%"
   version="1.1"
   inkscape:version="0.48.4 r9939"
   sodipodi:docname="LED_Polarity.svg">
  <defs
     id="defs32" />
  <sodipodi:namedview
     pagecolor="#ffffff"
     bordercolor="#666666"
     borderopacity="1"
     objecttolerance="10"
     gridtolerance="10"
     guidetolerance="10"
     inkscape:pageopacity="0"
     inkscape:pageshadow="2"
     inkscape:window-width="1920"
     inkscape:window-height="1018"
     id="namedview30"
     showgrid="false"
     inkscape:zoom="2.1749876"
     inkscape:cx="148.58034"
     inkscape:cy="85.298204"
     inkscape:window-x="1912"
     inkscape:window-y="-8"
     inkscape:window-maximized="1"
     inkscape:current-layer="svg2985"
     fit-margin-top="0"
     fit-margin-left="0"
     fit-margin-right="0"
     fit-margin-bottom="0" />
  <metadata
     id="metadata2991">
    <rdf:RDF>
      <cc:Work
         rdf:about="">
        <dc:format>image/svg+xml</dc:format>
        <dc:type
           rdf:resource="http://purl.org/dc/dcmitype/StillImage" />
        <dc:title />
      </cc:Work>
    </rdf:RDF>
  </metadata>
  <path
     style="fill:#000000"
     inkscape:connector-curvature="0"
     d="m 167.71268,65.994395 0,-7.8516 -7.793,0 0,-3.2812 7.793,0 0,-7.793 3.3203,0 0,7.793 7.793,0 0,3.2812 -7.793,0 0,7.8516 z"
     id="path3010" />
  <path
     style="fill:#000000"
     inkscape:connector-curvature="0"
     d="m 243.96268,58.885395 0,-3.5352 10.801,0 0,3.5352 z"
     id="path3013" />
  <path
     style="fill:#5e5e5e"
     inkscape:connector-curvature="0"
     d="m 196.21268,64.468395 2.085,0 c 1.1782,0 2.1266,0.94847 2.1266,2.1266 V 201.815 c 0,1.1781 -0.94848,2.1266 -2.1266,2.1266 h -2.085 c -1.1782,0 -2.1266,-0.94848 -2.1266,-2.1266 V 66.594995 c 0,-1.1782 0.94848,-2.1266 2.1266,-2.1266 z"
     id="rect3805" />
  <path
     style="fill:#5e5e5e"
     inkscape:connector-curvature="0"
     d="m 229.78268,65.325395 4.215,0 c 0.58813,0 1.0616,0.47348 1.0616,1.0616 V 133.892 c 0,0.58814 -0.47348,1.0616 -1.0616,1.0616 h -4.215 c -0.58811,0 -1.0616,-0.47348 -1.0616,-1.0616 V 66.386995 c 0,-0.58813 0.4735,-1.0616 1.0616,-1.0616 z"
     id="rect3805-1" />
  <path
     style="fill:#5e5e5e"
     inkscape:connector-curvature="0"
     d="m 196.71268,40.542395 c 0,0 0.12685,0.04239 0.17875,0.08256 0.0399,0.03086 0.0958,0.11704 0.0958,0.11704 l -0.18024,3.0203 0.0224,0.39904 8.5721,11.507 0.6671,1.0674 c 0,0 0.21924,0.5647 0.13342,0.93393 -0.0786,0.33833 -0.37676,0.60985 -0.6671,0.80051 -0.65874,0.43257 -1.4856,0.57429 -2.2682,0.66711 -0.88438,0.10489 -2.6684,-0.13342 -2.6684,-0.13342 l -0.3486,1.4616 0.20434,5.6564 -6.3764,-0.13099 -0.11658,-7.2539 -0.76854,-1.3954 c 0,0 -0.0446,-0.03903 -0.0575,-0.05575 -0.009,-0.01223 -0.0165,-0.07484 -0.0165,-0.07484 l 0.78528,-16.575 c 0,0 0.0134,-0.02656 0.0245,-0.03247 0.0173,-0.0092 0.0608,-0.01286 0.0608,-0.01286 z"
     id="path3959" />
  <path
     style="fill:#5e5e5e"
     inkscape:connector-curvature="0"
     d="m 202.06268,42.530395 11.863,15.405 13.342,0.80051 1.0674,0.80051 0.43152,7.0376 6.231,-0.03967 -1.0556,-20.182 c 0,0 0.003,-0.02168 -0.004,-0.02498 l -0.0165,-0.01789 -4.1017,-4.358 -0.0747,-0.0931 -0.1319,-0.04837 -26.337,-0.15195 -0.0191,0.0013 c -0.006,0 -0.023,0.0096 -0.023,0.0096 l -1.1195,0.74727 c 0,0 -0.0363,0.03019 -0.0455,0.05212 -0.008,0.01841 -0.006,0.0608 -0.006,0.0608 z"
     id="path3961" />
  <path
     style="fill:#ff0000;fill-opacity:0.66666667"
     inkscape:connector-curvature="0"
     d="m 213.63268,3.9508103e-4 c -14.305,0 -26.018,9.10150001897 -26.812,20.56199991897 -0.002,0.0091 0.002,0.02209 0,0.03125 -0.002,0.03072 0.002,0.063 0,0.09375 -0.009,0.06285 -0.0311,0.12226 -0.0312,0.1875 v 0.9375 l -0.125,45.312 c -1.8077,0.0625 -5.8992,0.1875 -9.375,0.1875 -0.77814,0 -1.4062,0.62811 -1.4062,1.4062 v 12.688 c 0,0.77814 0.62811,1.4062 1.4062,1.4062 h 71.188 c 0.77814,0 1.4062,-0.62811 1.4062,-1.4062 v -12.688 c 0,-0.77814 -0.69061,-1.6875 -1.4688,-1.6875 -0.49224,-0.17932 -4.6365,-0.199 -8.25,-0.15625 l 0.28125,-44.812 v -1.1876 c 4.2e-4,-0.06524 -0.023,-0.12465 -0.0312,-0.1875 -0.003,-0.05125 0.004,-0.10509 0,-0.15625 -0.82,-11.4459999 -12.49,-20.53099991897 -26.79,-20.53099991897 z"
     id="path3834" />
  <path
     style="fill:none;stroke:#5e5e5e;stroke-width:2.03648877;stroke-linecap:butt;stroke-linejoin:miter;stroke-miterlimit:4;stroke-dasharray:none"
     inkscape:connector-curvature="0"
     stroke-miterlimit="4"
     d="m 52.86668,51.783395 9.3283,0"
     id="path3892" />
  <path
     style="fill:none;stroke:#5e5e5e;stroke-width:2.30599999;stroke-linecap:butt;stroke-linejoin:miter;stroke-miterlimit:4;stroke-dasharray:none"
     inkscape:connector-curvature="0"
     stroke-miterlimit="4"
     d="m 68.70968,51.783395 20.489,0"
     id="path3892-4" />
  <path
     style="fill:#ff0000;fill-opacity:0.67000002"
     inkscape:connector-curvature="0"
     d="m 102.17268,31.518395 c -22.297,-24.0319999 -42.772,-14.309 -47.357,-12.886 -4.5851,1.423 -11.542,6.9567 -11.542,6.9567 -6.7333,5.6919 -9.6134,12.515 -10.83,22.214 -0.90439,9.7905 -0.12016,13.508 4.0317,22.214 1.7816,3.6761 11.925,15.307 19.684,17.471 4.2601,1.4362 7.5313,2.7746 15.178,2.5297 10.337,-0.92392 17.043,-3.7769 19.289,-5.7709 8.1383,-6.2393 11.213,-9.8544 11.226,-9.8817 z"
     id="path3856" />
  <path
     style="fill:#ff0000;fill-opacity:0.37234042;fill-rule:evenodd"
     inkscape:connector-curvature="0"
     d="m 95.662782,52.072099 a 26.036893,26.036893 0 1 1 -1e-5,-0.014"
     id="path3890" />
  <path
     style="fill:#000000"
     inkscape:connector-curvature="0"
     d="m 11.18768,63.170395 0,-7.8516 -7.7929999,0 0,-3.2812 7.7929999,0 0,-7.793 3.3203,0 0,7.793 7.793,0 0,3.2812 -7.793,0 0,7.8516 z"
     id="path3018" />
  <path
     style="fill:#000000"
     inkscape:connector-curvature="0"
     d="m 107.85268,57.596395 0,-3.5352 10.801,0 0,3.5352 z"
     id="path3021" />
  <path
     style="fill:#000000"
     inkscape:connector-curvature="0"
     d="m 111.41268,69.229395 1.0872,0.2746 c -0.22791,0.89292 -0.63795,1.5738 -1.2301,2.0427 -0.59218,0.46888 -1.316,0.70332 -2.1716,0.70332 -0.88546,0 -1.6056,-0.18026 -2.1604,-0.5408 -0.55481,-0.36053 -0.97699,-0.88265 -1.2665,-1.5664 -0.28955,-0.6837 -0.43432,-1.4178 -0.43432,-2.2024 0,-0.85556 0.16345,-1.6018 0.49036,-2.2389 0.3269,-0.63699 0.79204,-1.1208 1.3954,-1.4515 0.60338,-0.33063 1.2675,-0.49596 1.9923,-0.49596 0.82194,5e-6 1.5131,0.20923 2.0735,0.62766 0.56041,0.41845 0.95082,1.0069 1.1713,1.7653 l -1.0704,0.25219 c -0.19054,-0.59777 -0.46701,-1.033 -0.82941,-1.3058 -0.3624,-0.27273 -0.81821,-0.40909 -1.3674,-0.4091 -0.63141,8e-6 -1.1591,0.15132 -1.5832,0.45393 -0.42405,0.30263 -0.722,0.70893 -0.89386,1.2189 -0.17186,0.50998 -0.25779,1.0358 -0.25779,1.5776 0,0.69865 0.10181,1.3086 0.30543,1.8297 0.20361,0.52118 0.52024,0.91067 0.9499,1.1685 0.42964,0.25779 0.89478,0.38669 1.3954,0.38668 0.60898,3e-6 1.1246,-0.17559 1.5467,-0.52679 0.42217,-0.35119 0.70798,-0.87238 0.85743,-1.5636 z"
     id="path3024" />
  <path
     style="fill:#000000"
     inkscape:connector-curvature="0"
     d="m 117.60268,71.375395 c -0.37361,0.31757 -0.73321,0.54173 -1.0788,0.6725 -0.3456,0.13076 -0.7164,0.19614 -1.1124,0.19614 -0.65382,0 -1.1563,-0.15972 -1.5075,-0.47915 -0.3512,-0.31944 -0.52679,-0.7276 -0.52679,-1.2245 0,-0.29141 0.0663,-0.55761 0.19894,-0.79859 0.13264,-0.24098 0.30636,-0.43432 0.52119,-0.58003 0.21482,-0.1457 0.45673,-0.25592 0.72573,-0.33064 0.19801,-0.0523 0.4969,-0.10274 0.89666,-0.15131 0.81447,-0.09713 1.4141,-0.21295 1.7989,-0.34745 0.004,-0.13823 0.006,-0.22603 0.006,-0.2634 -10e-6,-0.41097 -0.0953,-0.70051 -0.28582,-0.86864 -0.25779,-0.2279 -0.64074,-0.34184 -1.1488,-0.34185 -0.47449,5e-6 -0.82475,0.08313 -1.0508,0.24938 -0.22603,0.16626 -0.39322,0.46048 -0.50157,0.88265 l -0.98632,-0.1345 c 0.0897,-0.42217 0.23724,-0.76309 0.44272,-1.0228 0.20549,-0.25965 0.50251,-0.45954 0.89106,-0.59964 0.38855,-0.1401 0.83875,-0.21015 1.3506,-0.21015 0.50811,5e-6 0.92095,0.05978 1.2385,0.17933 0.31756,0.11956 0.55106,0.26994 0.70051,0.45113 0.14944,0.18121 0.25405,0.41004 0.31383,0.68651 0.0336,0.17186 0.0504,0.48196 0.0504,0.93028 v 1.345 c -1e-5,0.93776 0.0215,1.5309 0.0645,1.7793 0.043,0.24845 0.12796,0.48663 0.25499,0.71453 h -1.0536 c -0.10461,-0.20922 -0.17186,-0.45393 -0.20175,-0.73414 z m -0.0841,-2.2529 c -0.36614,0.14945 -0.91535,0.27647 -1.6476,0.38108 -0.41471,0.05978 -0.708,0.12703 -0.87985,0.20175 -0.17186,0.07473 -0.3045,0.18401 -0.3979,0.32784 -0.0934,0.14384 -0.1401,0.30356 -0.1401,0.47915 0,0.269 0.10181,0.49317 0.30543,0.6725 0.20361,0.17934 0.50156,0.269 0.89385,0.269 0.38856,3e-6 0.73414,-0.085 1.0368,-0.25499 0.30262,-0.16999 0.52491,-0.40256 0.66689,-0.69771 0.10834,-0.2279 0.16251,-0.56415 0.16252,-1.0087 z"
     id="path3026" />
  <path
     style="fill:#000000"
     inkscape:connector-curvature="0"
     d="m 122.30268,71.207395 0.14571,0.89106 c -0.28395,0.05978 -0.538,0.08967 -0.76217,0.08967 -0.36613,0 -0.65008,-0.05791 -0.85182,-0.17373 -0.20175,-0.11582 -0.34372,-0.26806 -0.42592,-0.45674 -0.0822,-0.18867 -0.12329,-0.58563 -0.12329,-1.1909 v -3.4241 h -0.73974 v -0.78458 h 0.73974 v -1.4739 l 1.0031,-0.60524 v 2.0791 h 1.0144 v 0.78458 h -1.0144 v 3.4802 c 0,0.28768 0.0177,0.47262 0.0532,0.55481 0.0355,0.08219 0.0934,0.14757 0.17373,0.19614 0.0803,0.04857 0.1952,0.07285 0.34465,0.07285 0.11208,0 0.25966,-0.01308 0.44273,-0.03923 z"
     id="path3028" />
  <path
     style="fill:#000000"
     inkscape:connector-curvature="0"
     d="m 123.28268,72.109395 0,-8.2157 1.0087,0 0,2.9478 c 0.47075,-0.54546 1.0648,-0.8182 1.7821,-0.8182 0.44085,5e-6 0.8238,0.08687 1.1488,0.26059 0.32504,0.17373 0.55761,0.41378 0.69772,0.72013 0.1401,0.30636 0.21015,0.75096 0.21015,1.3338 v 3.7716 h -1.0087 v -3.7716 c -10e-6,-0.50437 -0.10929,-0.87144 -0.32784,-1.1012 -0.21857,-0.22977 -0.52773,-0.34465 -0.92749,-0.34465 -0.29889,3e-6 -0.58003,0.07753 -0.84342,0.23257 -0.26339,0.15505 -0.45113,0.36521 -0.56321,0.63047 -0.11209,0.26526 -0.16813,0.6314 -0.16813,1.0984 v 3.256 z"
     id="path3030" />
  <path
     style="fill:#000000"
     inkscape:connector-curvature="0"
     d="m 129.30268,69.134395 c 0,-1.1021 0.30636,-1.9185 0.91908,-2.449 0.51184,-0.44085 1.1358,-0.66128 1.8718,-0.66129 0.81819,5e-6 1.487,0.26807 2.0063,0.80419 0.51931,0.53613 0.77897,1.2768 0.77898,2.222 -1e-5,0.7659 -0.11489,1.3683 -0.34466,1.8073 -0.22977,0.43899 -0.56415,0.77991 -1.0031,1.0228 -0.43899,0.24284 -0.91814,0.36427 -1.4374,0.36427 -0.83316,0 -1.5066,-0.26713 -2.0203,-0.80139 -0.51371,-0.53426 -0.77057,-1.3039 -0.77057,-2.3089 z m 1.0368,0 c 0,0.76216 0.16626,1.3328 0.49877,1.7121 0.33251,0.37921 0.75095,0.56882 1.2553,0.56882 0.50063,3e-6 0.9172,-0.19054 1.2497,-0.57162 0.3325,-0.38108 0.49876,-0.96204 0.49876,-1.7429 0,-0.736 -0.16719,-1.2936 -0.50157,-1.6728 -0.33438,-0.37921 -0.75002,-0.56881 -1.2469,-0.56882 -0.50438,5e-6 -0.92282,0.18868 -1.2553,0.56602 -0.33251,0.37735 -0.49877,0.9471 -0.49877,1.7093 z"
     id="path3032" />
  <path
     style="fill:#000000"
     inkscape:connector-curvature="0"
     d="m 139.92268,72.109395 0,-0.75095 c -0.37734,0.5903 -0.93215,0.88545 -1.6644,0.88545 -0.47449,0 -0.91067,-0.13076 -1.3086,-0.39229 -0.3979,-0.26152 -0.70612,-0.62673 -0.92469,-1.0956 -0.21856,-0.46888 -0.32784,-1.0078 -0.32784,-1.6168 0,-0.59403 0.099,-1.133 0.29702,-1.6168 0.19801,-0.48382 0.49503,-0.85462 0.89106,-1.1124 0.39602,-0.25778 0.83875,-0.38668 1.3282,-0.38668 0.35866,5e-6 0.67809,0.07566 0.9583,0.22697 0.28021,0.15132 0.50811,0.3484 0.68371,0.59123 v -2.9478 h 1.0031 v 8.2157 z m -3.1887,-2.9702 c 0,0.76216 0.16065,1.3319 0.48195,1.7093 0.3213,0.37735 0.70052,0.56602 1.1376,0.56602 0.44085,3e-6 0.8154,-0.18026 1.1236,-0.5408 0.30822,-0.36053 0.46233,-0.91067 0.46234,-1.6504 -1e-5,-0.81446 -0.15692,-1.4122 -0.47075,-1.7933 -0.31383,-0.38108 -0.70052,-0.57162 -1.16,-0.57162 -0.44833,5e-6 -0.82288,0.18307 -1.1236,0.5492 -0.30076,0.36614 -0.45113,0.94336 -0.45113,1.7317 z"
     id="path3034" />
  <path
     style="fill:#000000"
     inkscape:connector-curvature="0"
     d="m 146.52268,70.193395 1.0424,0.1289 c -0.1644,0.60898 -0.46889,1.0816 -0.91348,1.4178 -0.4446,0.33625 -1.0125,0.50437 -1.7036,0.50437 -0.87051,0 -1.5608,-0.26807 -2.0707,-0.80419 -0.50997,-0.53612 -0.76496,-1.288 -0.76496,-2.2557 0,-1.0013 0.25779,-1.7784 0.77337,-2.3313 0.51558,-0.55294 1.1843,-0.82941 2.0063,-0.82941 0.79578,5e-6 1.4459,0.27087 1.9502,0.8126 0.50437,0.54174 0.75656,1.3039 0.75656,2.2865 0,0.05978 -0.002,0.14945 -0.006,0.269 h -4.4385 c 0.0374,0.65382 0.22229,1.1545 0.5548,1.5019 0.33251,0.34746 0.74722,0.52118 1.2441,0.52118 0.36987,3e-6 0.68557,-0.09713 0.9471,-0.29141 0.26152,-0.19428 0.46887,-0.50437 0.62206,-0.93028 z m -3.312,-1.6308 3.3232,0 c -0.0448,-0.50063 -0.17187,-0.87611 -0.38109,-1.1264 -0.3213,-0.38855 -0.73787,-0.58283 -1.2497,-0.58283 -0.46328,3e-6 -0.85277,0.15505 -1.1685,0.46514 -0.3157,0.3101 -0.49036,0.72481 -0.52398,1.2441 z"
     id="path3036" />
  <path
     inkscape:connector-curvature="0"
     id="path3039"
     style="font-size:11.07841301px;font-style:normal;font-weight:normal;line-height:125%;letter-spacing:0px;word-spacing:0px;fill:#000000;fill-opacity:1;stroke:none;font-family:Sans"
     d="m 0,72.969882 3.0454821,-7.930153 1.130561,0 3.245628,7.930153 -1.195473,0 -0.925004,-2.401765 -3.315951,0 -0.8709101,2.401765 z m 2.2881691,-3.256447 2.688462,0 -0.827635,-2.196209 c -0.252442,-0.667151 -0.439967,-1.215301 -0.562576,-1.644452 -0.100978,0.508489 -0.243425,1.013364 -0.427341,1.514627 z" />
  <path
     inkscape:connector-curvature="0"
     id="path3041"
     style="font-size:11.07841301px;font-style:normal;font-weight:normal;line-height:125%;letter-spacing:0px;word-spacing:0px;fill:#000000;fill-opacity:1;stroke:none;font-family:Sans"
     d="m 8.1465281,72.969882 0,-5.744763 0.87632,0 0,0.816817 c 0.42193,-0.631089 1.0313859,-0.946636 1.8283709,-0.946642 0.346197,6e-6 0.664448,0.06221 0.954756,0.186624 0.290299,0.124421 0.507575,0.287604 0.65183,0.489549 0.144245,0.201955 0.24522,0.441771 0.302926,0.719448 0.03606,0.180317 0.05409,0.495864 0.05409,0.946641 l 0,3.532326 -0.973688,0 0,-3.49446 c -5e-6,-0.396684 -0.03787,-0.693298 -0.113597,-0.889843 -0.07574,-0.196536 -0.210069,-0.353408 -0.402999,-0.470616 -0.192938,-0.117199 -0.419231,-0.1758 -0.678877,-0.175805 -0.414722,5e-6 -0.7726429,0.131633 -1.0737629,0.394885 -0.301124,0.263261 -0.451685,0.762726 -0.451683,1.498398 l 0,3.137441 z" />
  <path
     inkscape:connector-curvature="0"
     id="path3043"
     style="font-size:11.07841301px;font-style:normal;font-weight:normal;line-height:125%;letter-spacing:0px;word-spacing:0px;fill:#000000;fill-opacity:1;stroke:none;font-family:Sans"
     d="m 13.950795,70.097501 c 0,-1.063841 0.295712,-1.851807 0.887138,-2.3639 0.494056,-0.425532 1.096299,-0.638301 1.806734,-0.638307 0.789766,6e-6 1.435285,0.258755 1.936558,0.776247 0.501264,0.517502 0.751899,1.232441 0.751904,2.144819 -5e-6,0.739285 -0.110898,1.320793 -0.332677,1.744526 -0.221789,0.423735 -0.544549,0.752806 -0.968279,0.987212 -0.423739,0.234406 -0.88624,0.35161 -1.387506,0.35161 -0.804197,0 -1.454224,-0.257847 -1.950082,-0.773542 -0.495861,-0.515693 -0.74379,-1.258581 -0.74379,-2.228665 z m 1.000735,0 c -10e-7,0.735678 0.160477,1.286533 0.481435,1.652566 0.320955,0.366036 0.724855,0.549053 1.211702,0.549052 0.483234,10e-7 0.885331,-0.183918 1.206292,-0.551757 0.320952,-0.367836 0.48143,-0.928608 0.481435,-1.682317 -5e-6,-0.710429 -0.161385,-1.248662 -0.48414,-1.614701 -0.322763,-0.36603 -0.723959,-0.549047 -1.203587,-0.549052 -0.486847,5e-6 -0.890747,0.182121 -1.211702,0.546348 -0.320958,0.364236 -0.481436,0.914189 -0.481435,1.649861 z" />
  <path
     inkscape:connector-curvature="0"
     id="path3045"
     style="font-size:11.07841301px;font-style:normal;font-weight:normal;line-height:125%;letter-spacing:0px;word-spacing:0px;fill:#000000;fill-opacity:1;stroke:none;font-family:Sans"
     d="m 24.206982,72.969882 0,-0.724857 c -0.364236,0.569789 -0.899764,0.854683 -1.606586,0.854683 -0.457997,0 -0.879027,-0.126219 -1.263091,-0.378657 -0.384067,-0.252437 -0.681583,-0.604948 -0.892548,-1.057534 -0.210966,-0.452583 -0.316449,-0.972785 -0.316449,-1.560607 0,-0.573391 0.09557,-1.093592 0.286698,-1.560606 0.19113,-0.467005 0.477827,-0.824926 0.860091,-1.073762 0.382261,-0.248826 0.809602,-0.373242 1.282024,-0.373248 0.346197,6e-6 0.654531,0.07303 0.925004,0.21908 0.270465,0.146059 0.490446,0.336289 0.659944,0.57069 l 0,-2.845335 0.96828,0 0,7.930153 z M 21.129044,70.10291 c -1e-6,0.735678 0.155067,1.285632 0.465207,1.649862 0.310135,0.364232 0.67617,0.546348 1.098104,0.546347 0.425535,10e-7 0.787061,-0.174001 1.084581,-0.522005 0.297512,-0.348002 0.44627,-0.879022 0.446274,-1.593063 -4e-6,-0.78616 -0.151467,-1.36316 -0.454388,-1.731002 -0.302929,-0.367833 -0.676176,-0.551752 -1.119742,-0.551757 -0.432753,5e-6 -0.79428,0.176712 -1.084581,0.53012 -0.290305,0.353417 -0.435456,0.910582 -0.435455,1.671498 z" />
  <path
     inkscape:connector-curvature="0"
     id="path3047"
     style="font-size:11.07841301px;font-style:normal;font-weight:normal;line-height:125%;letter-spacing:0px;word-spacing:0px;fill:#000000;fill-opacity:1;stroke:none;font-family:Sans"
     d="m 30.579233,71.119874 1.006145,0.124416 c -0.158681,0.58782 -0.45259,1.044011 -0.881729,1.368573 -0.429149,0.324563 -0.977299,0.486845 -1.644452,0.486845 -0.84026,0 -1.506514,-0.258749 -1.998767,-0.776247 -0.492254,-0.517496 -0.738381,-1.243254 -0.73838,-2.177276 -1e-6,-0.966472 0.248831,-1.716572 0.746495,-2.250302 0.497661,-0.53372 1.14318,-0.800583 1.936558,-0.800589 0.768128,6e-6 1.395616,0.261459 1.882465,0.784361 0.486839,0.522911 0.730261,1.258586 0.730266,2.207027 -5e-6,0.0577 -0.0018,0.144253 -0.0054,0.259651 l -4.28423,0 c 0.03606,0.631096 0.21457,1.114334 0.535529,1.449714 0.320954,0.335382 0.721248,0.503073 1.200882,0.503072 0.357016,10e-7 0.661744,-0.09376 0.914186,-0.281288 0.252433,-0.187524 0.45258,-0.486843 0.600441,-0.897957 z m -3.196944,-1.57413 3.207763,0 c -0.04328,-0.483234 -0.165892,-0.845662 -0.367838,-1.087286 -0.310142,-0.375045 -0.712239,-0.56257 -1.206292,-0.562575 -0.447178,5e-6 -0.82313,0.149664 -1.127856,0.448978 -0.30473,0.299324 -0.473323,0.699618 -0.505777,1.200883 z" />
</svg>
