<!-- Created with Inkscape (http://www.inkscape.org/) -->
<svg xmlns:rdf="http://www.w3.org/1999/02/22-rdf-syntax-ns#" xmlns="http://www.w3.org/2000/svg" viewBox="0 0 472.29434 554.79168" height="100%" width="100%" version="1.1" xmlns:cc="http://creativecommons.org/ns#" xmlns:xlink="http://www.w3.org/1999/xlink" xmlns:dc="http://purl.org/dc/elements/1.1/">
<defs></defs>
<metadata>
<rdf:RDF>
<cc:Work rdf:about="">
<dc:format>image/svg+xml</dc:format>
<dc:type rdf:resource="http://purl.org/dc/dcmitype/StillImage"/>
<dc:title/>
</cc:Work>
</rdf:RDF>
</metadata>
<g transform="matrix(0.61927171,0,0,0.61927171,-610.63105,99.223703)">
<path stroke-linejoin="round" d="m1564,232.3,0,91.84-26.24,7.327,52.24,12.86-52.24,13.12,52.24,12.88-52.24,13.36,52.24,13.12-26,7.327,0,71.39" stroke="#000" stroke-linecap="butt" stroke-miterlimit="10" stroke-dasharray="none" stroke-width="1.51468253" fill="none"/>
<path fill-rule="nonzero" fill="#000" d="m1615,386.2v-41.96c6.976,0.0293,13.95-0.0628,20.93,0.0541,3.69,0.1503,7.857,0.8492,10.17,4.057,3.614,4.561,3.299,12.08-1.429,15.77-2.26,1.798-5.134,2.596-7.95,2.99,4.398,1.902,6.995,6.141,9.463,10.03,1.931,3.021,3.862,6.042,5.793,9.064h-6.984c-3.278-5.022-6.266-10.25-9.948-14.99-1.693-2.274-4.397-3.851-7.292-3.632-2.401-0.0154-4.802-0.003-7.203-0.007v18.63c-1.851-0.00032-3.702-0.00065-5.553-0.00097zm5.553-23.44c4.717-0.037,9.438,0.0824,14.15-0.0769,2.924-0.1082,6.272-1.186,7.487-4.114,1.541-3.141,0.2086-7.439-3.128-8.785-3.254-1.355-6.838-0.7808-10.26-0.9065h-8.247c0,4.627-0.0001,9.254-0.0001,13.88z"/>
<path fill-rule="nonzero" fill="#000" d="m1700,361.6h-27.71v-4.808h27.71v4.808zm0,12.74h-27.71v-4.808h27.71v4.808z"/>
<path fill-rule="nonzero" fill="#000" d="m1733,375.9c-0.2308-3.474,0.3292-7.213,2.689-9.921,2.27-2.868,5.695-4.712,7.544-7.921,1.656-3.328-0.1808-7.466-3.304-9.188-3.668-2.147-9.108-1.069-11.12,2.857-0.7811,1.408-1.2,2.986-1.451,4.568-1.765-0.2099-3.53-0.4198-5.295-0.6297,0.4125-4.312,2.646-8.697,6.682-10.63,3.937-1.883,8.652-1.903,12.75-0.5295,4.456,1.562,7.925,6.022,7.64,10.85,0.019,3.501-2.151,6.472-4.6,8.765-2.279,2.365-5.565,4.222-6.245,7.692-0.6121,1.191,0.3499,3.744-0.8467,4.095-1.482-0.00006-2.964-0.00013-4.446-0.00019zm-0.3148,10.33v-5.867h5.867v5.867h-5.867z"/>
<path stroke-linejoin="round" d="m1564,471.2,0,105.7" stroke="#000" stroke-linecap="butt" stroke-miterlimit="10" stroke-dasharray="none" stroke-width="1.50880361" fill="none"/>
<path stroke-linejoin="round" d="m1538,576.4,52.24,0-26,52.22-26.24-52.22z" stroke="#000" stroke-linecap="butt" stroke-miterlimit="10" stroke-dasharray="none" stroke-width="1.51468253" fill="none"/>
<path stroke-linejoin="round" d="m1537,626.5,56.52,0.0202" stroke="#000" stroke-linecap="butt" stroke-miterlimit="10" stroke-dasharray="none" stroke-width="1.51468253" fill="none"/>
<path d="m1595,612.5,24.22,14.63-24.22-14.63z" fill-rule="evenodd" fill="#FFF"/>
<path d="m1615,629.7,18.17,5.288-13.38-13.87-4.784,8.579z" fill-rule="evenodd" fill="#FFF"/>
<path stroke-linejoin="round" d="m1595,612.5,24.22,14.63" stroke="#000" stroke-linecap="butt" stroke-miterlimit="10" stroke-dasharray="none" stroke-width="1.51468253" fill="none"/>
<path d="m1609,631.9,36.33,10.35-26.5-27.25-9.83,16.89z" fill-rule="evenodd" fill="#000"/>
<path d="m1610,587.3,24.22,14.37-24.22-14.37z" fill-rule="evenodd" fill="#FFF"/>
<path d="m1629,604.2,18.43,4.804-13.38-13.38-5.046,8.579z" fill-rule="evenodd" fill="#FFF"/>
<path stroke-linejoin="round" d="m1610,587.3,24.22,14.37" stroke="#000" stroke-linecap="butt" stroke-miterlimit="10" stroke-dasharray="none" stroke-width="1.51468253" fill="none"/>
<path d="m1624,606.5,36.33,10.33-26.74-27.25-9.588,16.92z" fill-rule="evenodd" fill="#000"/>
<path stroke-linejoin="round" d="m1564,628.4,0,106.5" stroke="#000" stroke-linecap="butt" stroke-miterlimit="10" stroke-dasharray="none" stroke-width="1.51468253" fill="none"/>
<path stroke-linejoin="round" d="m1130,443.1c0-21.03,18.97-38.09,42.39-38.09,23.41,0,42.39,17.06,42.39,38.09s-18.97,38.09-42.39,38.09c-23.41,0-42.39-17.06-42.39-38.09z" stroke="#000" stroke-linecap="butt" stroke-miterlimit="10" stroke-dasharray="none" stroke-width="2.01850009" fill="none"/>
<path fill-rule="nonzero" fill="#000" d="m1183,431.2c0.075,0.6195-0.254,1.443-0.9933,1.277h-5.5v6.458c-0.3147,0.8194-1.55,0.5804-2.251,0.4419-0.5517-0.1641-0.3289-0.7932-0.3747-1.218v-5.682h-5.819c-0.87-0.2192-0.7459-1.473-0.521-2.15,0.214-0.5647,0.8646-0.3409,1.325-0.3864h5.015v-6.458c0.2689-0.8764,1.547-0.6458,2.251-0.4901,0.5544,0.211,0.3265,0.8585,0.3743,1.312v5.636c1.99,0.0117,3.984-0.0234,5.972,0.0177,0.4868,0.18,0.513,0.8074,0.5207,1.242z"/>
<path fill-rule="nonzero" fill="#000" d="m1184,466.1c0.04,0.5016-0.093,1.309-0.7699,1.189h-16.9c-0.8247-0.1523-0.6419-1.277-0.5312-1.888,0.086-0.4748,0.5879-0.4998,0.9738-0.4712h16.64c0.568,0.0311,0.5731,0.7562,0.5855,1.171z"/>
<path stroke-linejoin="round" d="m1172,405,0-172.8" stroke="#000" stroke-linecap="butt" stroke-miterlimit="10" stroke-dasharray="none" stroke-width="1.51387513" fill="none"/>
<path stroke-linejoin="round" d="m1172,232.3,391.8,0.0202" stroke="#000" stroke-linecap="butt" stroke-miterlimit="10" stroke-dasharray="none" stroke-width="1.51387513" fill="none"/>
<path stroke-linejoin="round" d="m1172,481.2,0,253.7" stroke="#000" stroke-linecap="butt" stroke-miterlimit="10" stroke-dasharray="none" stroke-width="1.51387513" fill="none"/>
<path stroke-linejoin="round" d="m1172,734.9,392.7,0" stroke="#000" stroke-linecap="butt" stroke-miterlimit="10" stroke-dasharray="none" stroke-width="1.51387513" fill="none"/>
<path fill-rule="nonzero" fill="#953735" d="m1052,450.3c0.079,2.41-1.239,4.844-3.438,5.907-2.771,1.346-6.084,1.247-8.946,0.235-0.8773-0.3318-2.07-0.7737-1.989-1.922-0.2391-0.8453,0.2269-2.258,1.215-1.274,2.168,1.213,4.853,1.932,7.272,1.055,1.716-0.5712,2.697-2.446,2.456-4.193-0.1261-1.821-1.722-3.165-3.42-3.535-1.512-0.4049-3.084-0.2082-4.626-0.2806-0.8309-0.3626-0.8745-2.227,0.122-2.397,1.74-0.0265,3.617,0.1981,5.16-0.7825,2.104-1.215,2.572-4.606,0.6958-6.221-1.581-1.197-3.803-0.9264-5.484-0.0863-0.9158,0.1857-1.654,1.384-2.581,1.125-0.334-0.8945-0.3569-2.243,0.6115-2.775,2.442-1.599,5.642-2.029,8.417-1.124,1.808,0.5781,3.181,2.232,3.394,4.121,0.3332,2.131-0.3164,4.579-2.194,5.818-0.5929,0.4538-1.382,0.6672-2.041,0.866,2.434,0.1953,4.827,1.93,5.276,4.415,0.068,0.3451,0.099,0.6983,0.1005,1.049z"/>
<path d="m1061,454.9c-0.0001,0.8397-0.1391,1.399-0.4169,1.676-0.278,0.2779-0.7836,0.4169-1.517,0.4169-0.7096,0-1.2-0.136-1.472-0.408s-0.408-0.8161-0.408-1.632c0-0.8397,0.139-1.399,0.4169-1.676,0.2779-0.2779,0.7836-0.4169,1.517-0.4169,0.7096,0.00001,1.2,0.136,1.472,0.408s0.408,0.8161,0.4081,1.632z" fill-rule="nonzero" fill="#953735"/>
<path fill-rule="nonzero" fill="#953735" d="m1079,450.3c0.079,2.41-1.239,4.844-3.438,5.907-2.771,1.346-6.084,1.247-8.946,0.235-0.8772-0.3319-2.07-0.7737-1.989-1.922-0.2391-0.8453,0.2269-2.258,1.215-1.274,2.168,1.213,4.853,1.932,7.272,1.055,1.716-0.5712,2.697-2.446,2.456-4.193-0.1261-1.821-1.722-3.165-3.42-3.535-1.512-0.4049-3.084-0.2082-4.626-0.2806-0.831-0.3626-0.8744-2.227,0.1221-2.397,1.74-0.0265,3.616,0.1981,5.16-0.7825,2.104-1.215,2.572-4.606,0.6958-6.221-1.581-1.197-3.803-0.9264-5.484-0.0863-0.9158,0.1858-1.654,1.384-2.581,1.125-0.3339-0.8945-0.3571-2.243,0.6115-2.775,2.442-1.599,5.642-2.029,8.417-1.124,1.808,0.5781,3.181,2.232,3.394,4.121,0.3333,2.131-0.3163,4.579-2.194,5.818-0.5929,0.4538-1.382,0.6672-2.041,0.866,2.434,0.1952,4.827,1.93,5.276,4.415,0.068,0.3451,0.099,0.6985,0.1006,1.049z"/>
<path fill-rule="nonzero" fill="#953735" d="m1102,456.3c-0.5751,0.9863-1.969,0.5425-2.925,0.6151-0.8098,0.0907-1.204-0.5873-1.358-1.259-2.448-6.962-4.902-13.92-7.346-20.88-0.4242-1.411,1.649-0.9402,2.463-0.9603,0.798,0.0761,0.7876,1.016,1.055,1.59,2.077,6.097,4.154,12.19,6.231,18.29,0.8431-2.412,1.633-4.898,2.455-7.339,1.369-4.086,2.696-8.189,4.091-12.26,0.8051-0.4436,2.256-0.5454,2.98,0.0466-0.053,0.8677-0.4955,1.663-0.7399,2.493-2.302,6.557-4.604,13.11-6.907,19.67z"/>
<path d="m1088,396.9c0,0.3746-0.03,0.6949-0.089,0.961s-0.1381,0.4879-0.2366,0.6653c-0.099,0.1774-0.2168,0.3056-0.3548,0.3844-0.1381,0.0788-0.2858,0.1184-0.4435,0.1182h-9.698v10.76c-0.0001,0.1578-0.039,0.2908-0.1182,0.3992-0.079,0.1084-0.2021,0.2021-0.3696,0.2809-0.1676,0.0788-0.3894,0.1429-0.6653,0.1922-0.276,0.0493-0.621,0.074-1.035,0.074-0.3942,0-0.7343-0.0247-1.02-0.074-0.2858-0.0492-0.5125-0.1134-0.68-0.1922-0.1676-0.0788-0.2908-0.1725-0.3696-0.2809-0.079-0.1084-0.1184-0.2415-0.1182-0.3992v-10.76h-9.698c-0.1774,0.00002-0.3302-0.0394-0.4583-0.1182-0.1282-0.0788-0.2415-0.207-0.34-0.3844-0.098-0.1774-0.1774-0.3992-0.2366-0.6653-0.059-0.2661-0.089-0.5864-0.089-0.961,0-0.3548,0.03-0.6652,0.089-0.9314,0.059-0.2661,0.138-0.4878,0.2366-0.6653,0.099-0.1774,0.2119-0.3055,0.34-0.3844,0.1281-0.0788,0.2711-0.1182,0.4288-0.1184h9.728v-10.76c0-0.1576,0.039-0.3006,0.1182-0.4287,0.079-0.1281,0.2021-0.2365,0.3696-0.3252,0.1676-0.0887,0.3943-0.1576,0.6801-0.207,0.2858-0.0493,0.6258-0.0738,1.02-0.074,0.4139,0.00003,0.7589,0.0247,1.035,0.074,0.2759,0.0492,0.4977,0.1184,0.6653,0.207,0.1675,0.0886,0.2907,0.1972,0.3695,0.3252,0.079,0.1282,0.1182,0.2711,0.1182,0.4287v10.76h9.728c0.1576,0.00003,0.3006,0.0394,0.4288,0.1184,0.128,0.0788,0.2463,0.207,0.3548,0.3844,0.1083,0.1774,0.1872,0.3992,0.2365,0.6653,0.049,0.2661,0.074,0.5766,0.074,0.9314z" fill-rule="nonzero" fill="#953735"/>
<path d="m1076,511.3c-0.0001,0.7688-0.089,1.301-0.2662,1.597-0.1774,0.2957-0.4336,0.4435-0.7687,0.4435h-12.36c-0.3548,0-0.6209-0.1528-0.7983-0.4583s-0.2661-0.8328-0.2661-1.582c0-0.749,0.089-1.271,0.2661-1.567,0.1774-0.2957,0.4435-0.4435,0.7983-0.4435h12.36c0.1576,0.00002,0.3006,0.0296,0.4287,0.0887s0.2365,0.1725,0.3252,0.34c0.089,0.1676,0.1577,0.3795,0.207,0.6357,0.049,0.2563,0.074,0.5717,0.074,0.9462z" fill-rule="nonzero" fill="#953735"/>
<path fill-rule="nonzero" fill="#953735" d="m1536,555.9c0.1242,1.032-0.4242,2.404-1.656,2.129h-9.166v10.76c-0.5243,1.366-2.583,0.9672-3.751,0.7364-0.9198-0.2734-0.548-1.322-0.6245-2.029v-9.47h-9.698c-1.45-0.3655-1.244-2.455-0.8686-3.584,0.3572-0.9411,1.441-0.5683,2.208-0.644h8.359v-10.76c0.4479-1.461,2.579-1.076,3.752-0.8168,0.9242,0.3515,0.5439,1.431,0.6237,2.186v9.394h9.728c1.002,0.0703,1.088,1.34,1.094,2.099z"/>
<path fill-rule="nonzero" fill="#953735" d="m1525,670.3c-0.026,0.6371,0.02,1.405-0.499,1.867-0.4052,0.2792-0.9158,0.139-1.377,0.1732-3.861-0.001-7.723,0.002-11.58-0.002-0.6152-0.007-0.9074-0.6531-0.948-1.183-0.07-0.7846-0.122-1.621,0.183-2.365,0.1864-0.4329,0.6765-0.5395,1.101-0.5016,4.068,0.004,8.137-0.007,12.2,0.006,0.6377,0.0296,0.8098,0.7494,0.8776,1.262,0.032,0.2463,0.042,0.4948,0.042,0.743z"/>
<path fill-rule="nonzero" fill="#953735" d="m1500,619.7c0.2376,1.034-0.8036,1.595-1.691,1.312-3.929-0.002-7.858,0.005-11.79-0.004-1.295-0.2362-1.041-2.11-0.446-2.912,1.039-1.241,2.2-2.379,3.301-3.567,2.116-2.243,4.392-4.494,5.59-7.391,0.6206-1.625,0.9143-3.636-0.065-5.18-0.8566-1.287-2.517-1.751-3.986-1.497-1.497,0.2048-2.828,0.9896-4.076,1.795-1.217-0.005-0.9434-2.082-0.2763-2.67,1.295-1.031,2.946-1.547,4.568-1.79,2.435-0.3334,5.264,0.2693,6.77,2.364,1.35,1.951,1.271,4.531,0.5923,6.714-1.148,3.277-3.691,5.772-6.008,8.254-1.053,1.099-2.121,2.184-3.163,3.294h9.988c0.6216,0.0439,0.6953,0.7967,0.6909,1.278z"/>
<path fill-rule="nonzero" fill="#953735" d="m1523,620.5c-0.7571,1.07-2.243,0.5115-3.338,0.5901-0.9389-0.2997-0.9292-1.46-1.29-2.213-2.341-6.678-4.716-13.35-7.035-20.03-0.01-1.362,2.118-0.9305,2.959-0.6336,0.5161,0.7462,0.6229,1.703,0.9808,2.533,1.947,5.716,3.894,11.43,5.842,17.15,2.219-6.522,4.327-13.08,6.547-19.6,0.8042-0.4358,3.027-0.7587,2.914,0.5278-0.8672,2.686-1.861,5.334-2.778,8.006-1.601,4.559-3.202,9.118-4.802,13.68z"/>
<path d="m1524,315.4c0,0.3745-0.029,0.6948-0.089,0.961-0.059,0.2661-0.1381,0.4879-0.2366,0.6653-0.098,0.1774-0.2168,0.3055-0.3548,0.3844-0.138,0.0788-0.2858,0.1184-0.4435,0.1182h-9.698v10.76c0,0.1578-0.039,0.2908-0.1182,0.3992-0.079,0.1084-0.2021,0.202-0.3696,0.2809-0.1676,0.0788-0.3893,0.1429-0.6653,0.1922-0.276,0.0492-0.6209,0.074-1.035,0.074-0.3942,0-0.7343-0.0247-1.02-0.074-0.2858-0.0493-0.5125-0.1134-0.68-0.1922-0.1676-0.0788-0.2908-0.1725-0.3696-0.2809-0.079-0.1084-0.1184-0.2415-0.1182-0.3992v-10.76h-9.698c-0.1774,0.00001-0.3301-0.0394-0.4583-0.1182-0.128-0.0788-0.2414-0.207-0.34-0.3844-0.099-0.1774-0.1774-0.3992-0.2365-0.6653-0.059-0.2661-0.089-0.5864-0.089-0.961,0-0.3548,0.03-0.6653,0.089-0.9314s0.1379-0.4878,0.2365-0.6653c0.099-0.1774,0.2119-0.3055,0.34-0.3844,0.1281-0.0788,0.2711-0.1182,0.4288-0.1182h9.728v-10.76c-0.0001-0.1576,0.039-0.3006,0.1182-0.4287,0.079-0.1281,0.202-0.2365,0.3695-0.3252,0.1676-0.0886,0.3943-0.1576,0.6801-0.207,0.2858-0.0492,0.6259-0.0738,1.02-0.0739,0.4139,0.00003,0.7589,0.0247,1.035,0.0739,0.2759,0.0493,0.4977,0.1184,0.6653,0.207,0.1675,0.0887,0.2907,0.1972,0.3696,0.3252,0.079,0.1282,0.1182,0.2711,0.1182,0.4287v10.76h9.728c0.1576,0.00002,0.3006,0.0394,0.4288,0.1182,0.128,0.0788,0.2463,0.207,0.3548,0.3844,0.1083,0.1774,0.1872,0.3992,0.2365,0.6653,0.049,0.2661,0.074,0.5766,0.074,0.9314z" fill-rule="nonzero" fill="#953735"/>
<path d="m1512,429.8c-0.0001,0.7688-0.089,1.301-0.2661,1.597-0.1775,0.2957-0.4337,0.4435-0.7688,0.4435h-12.36c-0.3548,0.00001-0.6209-0.1528-0.7983-0.4583s-0.2661-0.8328-0.2661-1.582c0-0.749,0.089-1.271,0.2661-1.567,0.1774-0.2956,0.4435-0.4435,0.7983-0.4435h12.36c0.1576,0.00002,0.3006,0.0295,0.4287,0.0886s0.2365,0.1725,0.3253,0.34c0.089,0.1676,0.1577,0.3795,0.2069,0.6357,0.049,0.2563,0.074,0.5717,0.074,0.9462z" fill-rule="nonzero" fill="#953735"/>
<path fill-rule="nonzero" fill="#953735" d="m1496,379.9c-0.5751,0.9864-1.969,0.5423-2.925,0.615-0.8098,0.0907-1.204-0.5873-1.358-1.259-2.448-6.962-4.902-13.92-7.346-20.88-0.4243-1.411,1.649-0.9409,2.463-0.9603,0.798,0.0761,0.7876,1.016,1.055,1.59,2.077,6.097,4.154,12.19,6.231,18.29,0.8431-2.412,1.633-4.898,2.455-7.338,1.369-4.086,2.696-8.189,4.091-12.26,0.8051-0.4436,2.256-0.5452,2.98,0.0467-0.053,0.8677-0.4955,1.663-0.7399,2.493-2.302,6.557-4.604,13.11-6.907,19.67z"/>
<path fill-rule="nonzero" fill="#953735" d="m1517,389.1c-0.2231,0.6097-1.166,0.3153-1.683,0.3409-0.5266-0.0507-0.5527-0.6525-0.7445-1.032-0.5432-1.34-1.008-2.714-1.628-4.022-0.4385-1.024-1.445-1.816-2.586-1.8-0.5104-0.007-1.021-0.001-1.532-0.003v6.517c-0.3352,0.5948-1.346,0.399-1.922,0.2292-0.2055-0.2404-0.075-0.5978-0.112-0.8935,0-4.538-0.01-9.077,0-13.62-0.02-0.5594,0.5779-0.7798,1.048-0.7169,1.512,0.0226,3.028-0.0621,4.535,0.0859,1.411,0.1854,2.881,0.944,3.417,2.337,0.5627,1.476,0.3604,3.372-0.8833,4.45-0.5117,0.46-1.137,0.776-1.782,1.005,1.323,0.578,1.88,2.013,2.388,3.262,0.4739,1.199,0.9993,2.378,1.432,3.592,0.024,0.0869,0.046,0.1765,0.046,0.2662zm-3.063-10.75c0.033-0.9167-0.4071-1.915-1.311-2.255-1.09-0.4608-2.297-0.2719-3.449-0.3117-0.2877-0.0605-0.4216,0.0327-0.3493,0.3322v4.825c0.9963-0.026,2.002,0.0697,2.989-0.0923,1.045-0.1755,2.01-0.9909,2.094-2.093,0.018-0.1343,0.026-0.2699,0.026-0.4052z"/>
<path fill-rule="nonzero" fill="#000" d="m1282-87.3c0.1279,3.332-1.896,6.586-4.951,7.927-3.916,1.728-8.629,1.418-12.39-0.5636-1.345-0.4944-1.674-1.986-1.477-3.262,0-1.957,1.909-0.6431,2.765-0.07173,2.714,1.461,6.124,2.158,9.036,0.8715,2.776-1.114,3.707-5.148,1.668-7.338-2.003-2.121-4.964-2.806-7.425-4.229-2.548-1.268-4.88-3.522-5.229-6.473-0.4448-2.841,0.5715-6.006,3.038-7.636,3.518-2.31,8.284-2.186,11.96-0.3153,1.366,0.4443,1.372,1.987,1.24,3.166-0.029,1.822-1.776,0.4482-2.585,0.0194-2.36-1.267-5.457-1.791-7.858-0.3429-2.257,1.423-2.293,5.036-0.2551,6.675,2.234,1.958,5.205,2.701,7.72,4.208,2.519,1.298,4.629,3.762,4.721,6.698,0.014,0.2218,0.022,0.4456,0.021,0.6664z"/>
<path fill-rule="nonzero" fill="#000" d="m1303-82.53c0.1123,0.9676-0.2742,1.953-1.16,2.426-3.017,2.033-7.104,2.463-10.45,1.004-2.568-1.122-4.165-3.713-4.756-6.37-0.633-2.916-0.6166-5.995,0.1012-8.893,0.6858-2.659,2.364-5.183,4.924-6.34,3.187-1.433,7.164-1.261,10.07,0.7473,0.9654,0.5338,1.306,1.642,1.173,2.684,0.2641,1.219-1.059,1.913-1.794,0.8441-1.622-1.342-3.744-2.182-5.87-1.866-2.024,0.1842-3.642,1.788-4.266,3.659-0.8461,2.479-0.87,5.187-0.4528,7.753,0.3532,2.047,1.474,4.22,3.564,4.916,1.936,0.6697,4.131,0.3306,5.839-0.7761,0.9568-0.3564,1.652-1.708,2.722-1.492,0.4006,0.456,0.3229,1.142,0.355,1.705z"/>
<path fill-rule="nonzero" fill="#000" d="m1327-79.29c-0.6143,1.161-2.602,0.7927-3.688,0.441-0.4079-0.4873-0.1438-1.208-0.2194-1.804-0.022-4.127,0.047-8.257-0.04-12.38-0.085-2.059-0.9534-4.515-3.168-5.077-2.176-0.6694-4.307,0.6282-5.754,2.16-0.5275,0.7598-1.722,1.33-1.574,2.376v14.29c-0.6196,1.167-2.612,0.7867-3.706,0.441-0.3815-0.5244-0.1273-1.259-0.2013-1.88v-30.19c0.5671-1.196,2.608-0.8166,3.688-0.4617,0.408,0.5254,0.1436,1.272,0.2193,1.901v11.32c1.968-2.169,4.814-3.875,7.843-3.459,2.785,0.1329,5.308,2.155,6.046,4.843,0.8285,2.87,0.4785,5.884,0.5552,8.829,0.0001,2.886,0.0002,5.772,0.0003,8.659z"/>
<path fill-rule="nonzero" fill="#000" d="m1352-90.87c0.1366,0.9739-0.7336,1.836-1.699,1.705h-13.79c-0.01,2.355,0.4413,5.069,2.492,6.535,2.061,1.45,4.766,1.367,7.145,0.959,1.444-0.2482,2.78-0.8668,4.15-1.346,1.179,0.06245,0.778,1.794,0.6685,2.604-0.5323,0.9373-1.775,1.082-2.711,1.43-3.342,0.8952-7.04,1.15-10.3-0.1946-2.489-1.015-4.284-3.315-4.962-5.881-0.7918-2.98-0.8244-6.183-0.06-9.173,0.7385-2.901,2.733-5.553,5.566-6.668,2.47-0.9816,5.306-1.02,7.824-0.1935,2.756,0.9395,4.771,3.464,5.32,6.292,0.3073,1.288,0.3722,2.613,0.3513,3.932zm-3.931-1.16c0.093-2.203-0.575-4.752-2.631-5.898-2.189-1.129-5.168-0.9249-6.949,0.8768-1.317,1.312-1.904,3.198-1.976,5.021h11.56z"/>
<path fill-rule="nonzero" fill="#000" d="m1390-79.29c-0.621,1.168-2.613,0.7854-3.709,0.441-0.4165-0.4985-0.1435-1.24-0.2222-1.851-0.02-4.173,0.042-8.349-0.033-12.52-0.083-1.945-0.842-4.308-2.931-4.893-1.882-0.6245-3.754,0.4646-5.021,1.793-0.634,0.8855-2.064,1.546-1.936,2.763v14.27c-0.6254,1.159-2.611,0.7866-3.706,0.441-0.3846-0.5399-0.1254-1.292-0.2013-1.929-0.016-4.095,0.032-8.19-0.025-12.28-0.085-2.055-0.9256-4.621-3.198-5.111-2.127-0.562-4.017,0.9469-5.358,2.414-0.6036,0.7364-1.607,1.369-1.364,2.437v14.03c-0.6195,1.167-2.612,0.7867-3.706,0.441-0.3847-0.5398-0.1255-1.292-0.2014-1.929,0.012-6.665-0.024-13.33,0.018-20,0.7067-0.8052,3.045-0.9502,3.51,0.1746v2.818c1.888-2.17,4.524-4.164,7.56-3.864,2.501,0.0514,4.911,1.597,5.815,3.961,0.6584,0.04868,1.671-1.629,2.597-2.114,1.83-1.55,4.336-2.251,6.688-1.686,2.679,0.4885,4.661,2.885,5.1,5.504,0.523,2.633,0.257,5.33,0.3232,7.995,0.0004,2.899,0.0007,5.797,0,8.696z"/>
<path fill-rule="nonzero" fill="#000" d="m1413-79.26c-0.2505,1.003-1.678,0.657-2.465,0.6704-0.8084,0.07137-0.9898-0.6873-0.8976-1.314v-1.488c-1.856,2.031-4.578,3.365-7.367,3.134-2.409-0.07283-5.003-1.155-6.096-3.43-1.215-2.515-0.8473-5.929,1.373-7.779,2.31-1.906,5.434-2.278,8.324-2.342,1.082-0.0038,2.163-0.000745,3.245-0.0017-0.024-1.843,0.211-3.92-1.101-5.41-1.408-1.435-3.619-1.382-5.466-1.133-1.746,0.304-3.329,1.143-4.866,1.982-1.252,0.3888-1.22-1.377-1.092-2.178,0.219-1.123,1.483-1.501,2.38-1.957,3.114-1.276,6.711-1.59,9.923-0.4956,1.969,0.6598,3.427,2.439,3.809,4.464,0.4648,2.146,0.2454,4.351,0.2968,6.529,0,3.583-0.0001,7.165-0.0001,10.75zm-3.883-9.732c-2.189,0.05715-4.423-0.1974-6.562,0.3836-1.513,0.3745-2.95,1.565-3.028,3.218-0.2428,1.616,0.6691,3.386,2.294,3.848,1.982,0.6464,4.202,0.01237,5.712-1.378,0.5277-0.5438,1.333-1.022,1.584-1.725,0-1.449-0.0001-2.898-0.0001-4.347z"/>
<path fill-rule="nonzero" fill="#000" d="m1431-80.85c0.1957,1.184-0.5695,2.256-1.812,2.309-2.173,0.4527-4.728,0.4095-6.497-1.1-1.76-1.623-1.859-4.215-1.85-6.448v-11.88c-1.05-0.01504-2.105,0.03056-3.152-0.02366-0.8952-0.6577-0.7984-2.331-0.1511-3.137,0.8585-0.174,1.764-0.0413,2.643-0.0828,0.446,0.0556,0.8229,0.0421,0.6601-0.511,0.014-1.572-0.028-3.147,0.021-4.716,0.658-0.9212,2.079-0.5426,3.071-0.5231,0.8163,0.0178,0.8784,0.8323,0.8157,1.449v4.301c1.882,0.0136,3.767-0.0273,5.647,0.0207,0.8857,0.6391,0.7982,2.329,0.1417,3.128-0.7145,0.1961-1.494,0.04916-2.236,0.09469h-3.553c0.014,4.225-0.029,8.45,0.023,12.67,0.083,1.318,0.3811,3.059,1.844,3.505,1.222,0.3934,2.503,0.0071,3.638-0.4782,0.8166-0.2213,0.6932,0.9511,0.7466,1.418z"/>
<path fill-rule="nonzero" fill="#000" d="m1440-79.29c-0.3993,1.094-1.986,0.6481-2.913,0.6867-0.8556,0.07096-1.112-0.6971-0.9945-1.389v-20.61c0.3975-1.091,1.973-0.6589,2.912-0.6867,0.8374-0.0624,1.116,0.7036,0.9947,1.389v20.61zm0.4499-28.51c0.133,1.132-0.5129,2.399-1.795,2.337-1.037,0.0763-2.608,0.1213-2.908-1.156-0.1849-1.026-0.3122-2.356,0.5375-3.121,1.012-0.5269,2.293-0.4911,3.348-0.1077,0.7508,0.3631,0.804,1.319,0.8176,2.047z"/>
<path fill-rule="nonzero" fill="#000" d="m1462-82.53c0.1123,0.9676-0.2742,1.953-1.16,2.426-3.017,2.033-7.104,2.463-10.45,1.004-2.568-1.122-4.165-3.713-4.756-6.37-0.633-2.916-0.6166-5.995,0.1012-8.893,0.6858-2.659,2.364-5.183,4.924-6.34,3.187-1.433,7.164-1.261,10.07,0.7473,0.9654,0.5338,1.306,1.642,1.173,2.684,0.2641,1.219-1.059,1.913-1.794,0.8441-1.622-1.342-3.744-2.182-5.87-1.866-2.024,0.1842-3.642,1.788-4.266,3.659-0.8461,2.479-0.87,5.187-0.4528,7.753,0.3533,2.047,1.474,4.22,3.564,4.916,1.936,0.6697,4.131,0.3306,5.839-0.7761,0.9569-0.3564,1.652-1.708,2.722-1.492,0.4003,0.4561,0.323,1.142,0.3547,1.705z"/>
<path fill-rule="nonzero" fill="#000" d="m1498-90.17c0.021,3.53-1.018,7.352-3.853,9.663-2.809,2.31-6.747,2.671-10.2,1.934-2.805-0.5918-5.239-2.627-6.259-5.315-1.145-2.969-1.241-6.282-0.6518-9.386,0.5732-3.034,2.408-5.935,5.262-7.274,2.678-1.292,5.828-1.369,8.687-0.7026,2.746,0.6553,5.064,2.727,6.045,5.372,0.7161,1.809,0.9653,3.773,0.9674,5.708zm-4.12,0.2605c-0.033-2.506-0.3885-5.351-2.364-7.119-1.79-1.542-4.447-1.664-6.612-0.9518-2.409,0.8576-3.668,3.409-3.965,5.808-0.299,2.521-0.2251,5.219,0.8862,7.548,0.926,1.977,3.092,3.146,5.241,3.094,2.224,0.1433,4.561-0.9084,5.627-2.925,0.9317-1.648,1.173-3.591,1.187-5.455z"/>
<path fill-rule="nonzero" fill="#000" d="m1515-109.4c0.2455,1.122-0.5978,1.849-1.562,1.101-1.442-0.5051-3.52-0.6478-4.452,0.8287-0.9824,1.864-0.6442,4.04-0.7103,6.072,0.1396,0.3195,0.8587,0.0594,1.234,0.1437,1.233,0.0134,2.469-0.0271,3.7,0.0207,0.8553,0.6462,0.9539,2.813-0.1747,3.223h-4.759v18.68c-0.6268,1.157-2.612,0.7899-3.709,0.441-0.4085-0.4662-0.1485-1.169-0.2222-1.747v-17.38c-1.061-0.0153-2.126,0.03092-3.185-0.02366-0.8302-0.6373-0.9278-2.841,0.1773-3.22h3.007c0.019-2.839-0.2196-5.932,1.475-8.379,1.56-2.161,4.554-2.522,7.002-2.099,1.27,0.0624,2.471,0.9356,2.178,2.332v0.00007z"/>
<path fill-rule="nonzero" fill="#000" d="m1550-83.03c0.2637,1.495-1.018,2.454-2.207,3.024-4.016,2.074-9.043,2.32-13.15,0.3591-3.582-1.72-5.737-5.467-6.448-9.265-0.8292-4.701-0.5907-9.795,1.647-14.1,1.797-3.571,5.41-6.132,9.39-6.58,3.367-0.4283,6.988,0.2442,9.757,2.269,1.121,0.8336,1.005,2.467,0.7008,3.675-1.035,1.197-2.331-1.106-3.488-1.314-3.22-1.718-7.604-1.763-10.42,0.7718-2.949,2.743-3.691,7.012-3.61,10.87,0.074,3.494,0.8791,7.364,3.727,9.671,2.822,2.169,6.871,2.186,10.02,0.7329,1.354-0.3679,2.341-1.902,3.746-1.852,0.4127,0.4393,0.2838,1.174,0.3318,1.728z"/>
<path fill-rule="nonzero" fill="#000" d="m1559-79.29c-0.3993,1.094-1.986,0.6481-2.913,0.6867-0.8556,0.07099-1.112-0.697-0.9946-1.389v-20.61c0.3975-1.091,1.973-0.6589,2.912-0.6867,0.8374-0.0625,1.116,0.7036,0.9948,1.389v20.61zm0.4499-28.51c0.1328,1.132-0.5129,2.399-1.795,2.337-1.037,0.0763-2.608,0.1213-2.908-1.156-0.1848-1.026-0.3123-2.356,0.5375-3.121,1.012-0.5269,2.293-0.4911,3.348-0.1077,0.7509,0.3631,0.804,1.319,0.8177,2.047z"/>
<path fill-rule="nonzero" fill="#000" d="m1578-99.2c0.1031,0.7792-0.063,2.351-1.195,1.687-1.238-0.4805-2.757-0.7439-3.911,0.09469-1.5,1.028-2.454,2.63-3.442,4.114v14.02c-0.256,0.9724-1.59,0.6644-2.365,0.7273-0.6747,0.03081-1.734-0.1426-1.542-1.042v-21c0.178-0.9939,1.506-0.672,2.252-0.7254,0.7667-0.1304,1.457,0.4198,1.276,1.198v2.629c1.152-1.623,2.48-3.375,4.463-3.99,1.362-0.3324,2.881-0.2007,4.132,0.438,0.48,0.4547,0.2742,1.257,0.3325,1.847z"/>
<path fill-rule="nonzero" fill="#000" d="m1598-82.53c0.1123,0.9676-0.2742,1.953-1.16,2.426-3.017,2.033-7.104,2.463-10.45,1.004-2.568-1.122-4.165-3.713-4.756-6.37-0.633-2.916-0.6166-5.995,0.1012-8.893,0.6859-2.659,2.364-5.183,4.924-6.34,3.187-1.433,7.164-1.261,10.07,0.7473,0.9653,0.5338,1.306,1.642,1.173,2.684,0.2641,1.219-1.059,1.913-1.794,0.8441-1.622-1.342-3.744-2.182-5.87-1.866-2.024,0.1842-3.642,1.788-4.266,3.659-0.8461,2.479-0.87,5.187-0.4528,7.753,0.3533,2.047,1.474,4.22,3.564,4.916,1.936,0.6697,4.131,0.3306,5.839-0.7761,0.9568-0.3564,1.652-1.708,2.722-1.492,0.4009,0.4561,0.3223,1.142,0.3548,1.705z"/>
<path fill-rule="nonzero" fill="#000" d="m1621-79.29c-0.3538,1.083-1.932,0.6749-2.827,0.6601-0.7771-0.01094-0.7609-0.8018-0.7251-1.368v-2.11c-1.885,2.135-4.484,3.988-7.462,3.857-2.412,0.03381-4.907-1.104-6.098-3.272-1.525-2.659-1.228-5.799-1.263-8.745v-10.33c0.3336-1.071,1.828-0.6479,2.711-0.7143,0.8195-0.1102,1.397,0.5309,1.22,1.304,0.01,4.235-0.021,8.471,0.017,12.71,0.036,1.971,0.5753,4.287,2.493,5.256,1.766,0.8995,3.948,0.3306,5.373-0.9531,0.9729-0.8138,1.91-1.742,2.63-2.764v-14.83c0.334-1.072,1.828-0.648,2.711-0.7143,0.8099-0.1064,1.397,0.5362,1.219,1.304-0.0001,6.907-0.0001,13.81-0.0002,20.72z"/>
<path fill-rule="nonzero" fill="#000" d="m1632-79.29c-0.3993,1.093-1.986,0.6481-2.913,0.6867-0.8556,0.07099-1.112-0.697-0.9946-1.389v-20.61c0.3975-1.091,1.973-0.6589,2.912-0.6867,0.8374-0.0624,1.116,0.7036,0.9948,1.389v20.61zm0.4499-28.51c0.1329,1.132-0.5129,2.399-1.795,2.337-1.037,0.0763-2.608,0.1213-2.908-1.156-0.1848-1.026-0.3123-2.356,0.5375-3.121,1.012-0.5269,2.293-0.4911,3.348-0.1077,0.7509,0.3631,0.8041,1.319,0.8177,2.047z"/>
<path fill-rule="nonzero" fill="#000" d="m1651-80.85c0.1956,1.184-0.5694,2.256-1.812,2.309-2.173,0.4527-4.728,0.4095-6.497-1.1-1.76-1.623-1.859-4.215-1.85-6.448v-11.88c-1.05-0.01504-2.105,0.03056-3.152-0.02366-0.8951-0.6577-0.7984-2.331-0.1511-3.137,0.8585-0.174,1.764-0.0413,2.643-0.0828,0.446,0.0556,0.823,0.0422,0.6602-0.511,0.014-1.572-0.028-3.147,0.021-4.716,0.658-0.9212,2.079-0.5426,3.071-0.5231,0.8163,0.0178,0.8784,0.8323,0.8157,1.449v4.301c1.882,0.0136,3.767-0.0273,5.647,0.0207,0.886,0.6391,0.7981,2.329,0.1417,3.128-0.7145,0.1961-1.494,0.04916-2.236,0.09469h-3.553c0.014,4.225-0.029,8.45,0.023,12.67,0.083,1.318,0.3812,3.059,1.844,3.505,1.222,0.3935,2.504,0.0071,3.638-0.4782,0.8159-0.2213,0.6938,0.951,0.7463,1.418z"/>
<path fill-rule="evenodd" fill="#4f81bd" d="m1004,182.4,218.4,0,0-265.1-218.4,0,0,265.1z"/>
<path stroke-linejoin="round" d="m1004,183.5,218.5,0,0-266.2-218.5,0,0,266.2z" stroke="#385d8a" stroke-linecap="butt" stroke-miterlimit="10" stroke-dasharray="none" stroke-width="2.359483" fill="none"/>
<path stroke-linejoin="round" d="m1116,64.74,34.54,0,2.762,9.862,4.838-19.64,4.938,19.64,4.838-19.64,5.025,19.64,4.938-19.64,2.75,9.775,26.86,0" stroke="#000" stroke-linecap="butt" stroke-miterlimit="10" stroke-dasharray="none" stroke-width="0.175" fill="none"/>
<path stroke-linejoin="round" d="m1114,149.8,38.65,0" stroke="#000" stroke-linecap="butt" stroke-miterlimit="10" stroke-dasharray="none" stroke-width="0.175" fill="none"/>
<path stroke-linejoin="round" d="m1153,159.3,0-18.95,18.96,9.425-18.96,9.525z" stroke="#000" stroke-linecap="butt" stroke-miterlimit="10" stroke-dasharray="none" stroke-width="0.175" fill="none"/>
<path stroke-linejoin="round" d="m1171,160,0-20.51" stroke="#000" stroke-linecap="butt" stroke-miterlimit="10" stroke-dasharray="none" stroke-width="0.175" fill="none"/>
<path fill-rule="evenodd" fill="#FFF" d="m1166,138.8,5.312-8.788-5.312,8.788z"/>
<path fill-rule="evenodd" fill="#FFF" d="m1172,131.8,1.925-6.588-5.038,4.85,3.112,1.738z"/>
<path stroke-linejoin="round" d="m1166,138.8,5.312-8.788" stroke="#000" stroke-linecap="butt" stroke-miterlimit="10" stroke-dasharray="none" stroke-width="0.175" fill="none"/>
<path fill-rule="evenodd" fill="#000" d="m1173,133.8,3.762-13.19-9.888,9.625,6.125,3.562z"/>
<path fill-rule="evenodd" fill="#FFF" d="m1157,133.5,5.212-8.788-5.212,8.788z"/>
<path fill-rule="evenodd" fill="#FFF" d="m1163,126.5,1.738-6.688-4.862,4.85,3.125,1.838z"/>
<path stroke-linejoin="round" d="m1157,133.5,5.212-8.788" stroke="#000" stroke-linecap="butt" stroke-miterlimit="10" stroke-dasharray="none" stroke-width="0.175" fill="none"/>
<path fill-rule="evenodd" fill="#000" d="m1164,128.5,3.762-13.18-9.888,9.7,6.125,3.475z"/>
<path stroke-linejoin="round" d="m1172,149.8,38.64,0" stroke="#000" stroke-linecap="butt" stroke-miterlimit="10" stroke-dasharray="none" stroke-width="0.175" fill="none"/>
<path fill-rule="nonzero" fill="#000" d="m1026,73.88v-10.74c1.785,0.0075,3.571-0.01606,5.356,0.01385,0.9443,0.03847,2.01,0.2173,2.603,1.038,0.925,1.167,0.8442,3.091-0.3657,4.035-0.5784,0.46-1.314,0.6643-2.034,0.7651,1.125,0.4866,1.79,1.571,2.422,2.566,0.4941,0.7731,0.9882,1.546,1.482,2.319h-1.787c-0.8388-1.285-1.603-2.623-2.546-3.837-0.4331-0.5819-1.125-0.9855-1.866-0.9295-0.6143-0.0039-1.229-0.000802-1.843-0.0018v4.768h-1.421zm1.421-5.999c1.207-0.0095,2.415,0.0211,3.622-0.01967,0.7484-0.02771,1.605-0.3034,1.916-1.053,0.3941-0.8038,0.053-1.904-0.8005-2.248-0.8326-0.3467-1.75-0.1998-2.627-0.232h-2.11v3.552z"/>
<path fill-rule="nonzero" fill="#000" d="m1042,71.38c0.4541,0.05615,0.9082,0.1123,1.362,0.1685-0.2577,1.065-1.05,2.011-2.117,2.326-1.016,0.2927-2.16,0.2616-3.121-0.2042-0.9858-0.4794-1.633-1.49-1.801-2.557-0.178-1.144-0.1165-2.379,0.4341-3.419,0.5376-1.013,1.622-1.691,2.765-1.75,1.041-0.09727,2.146,0.2312,2.863,1.016,0.8546,0.8858,1.074,2.186,1.01,3.373h-5.801c0.032,0.8871,0.3685,1.844,1.164,2.322,0.8849,0.5461,2.22,0.4157,2.833-0.4791,0.1767-0.2416,0.3024-0.52,0.4077-0.7957zm-4.329-2.131h4.343c-0.048-0.6932-0.2854-1.427-0.8819-1.84-0.9034-0.6734-2.332-0.4678-2.989,0.4568-0.301,0.3962-0.4423,0.892-0.4722,1.384z"/>
<path fill-rule="nonzero" fill="#000" d="m1045,71.56c0.4346-0.06836,0.8691-0.1367,1.304-0.2051,0.067,0.6678,0.5055,1.314,1.17,1.501,0.6062,0.1708,1.28,0.1706,1.872-0.057,0.5496-0.2137,0.9574-0.9009,0.6628-1.462-0.2595-0.4421-0.8187-0.5045-1.263-0.6525-0.8719-0.2425-1.781-0.4107-2.586-0.8393-0.9035-0.5005-1.195-1.755-0.7003-2.639,0.3726-0.7373,1.183-1.114,1.966-1.228,0.9718-0.1242,2.033-0.02796,2.869,0.5242,0.5378,0.3554,0.7764,0.9971,0.8743,1.609-0.4297,0.05859-0.8594,0.1172-1.289,0.1758-0.06-0.6155-0.5577-1.141-1.171-1.227-0.5713-0.0854-1.193-0.07904-1.719,0.1825-0.4106,0.2133-0.6566,0.7754-0.3699,1.183,0.3262,0.4593,0.9306,0.4985,1.424,0.6628,0.8187,0.2352,1.663,0.416,2.434,0.7862,0.6315,0.321,1.016,1.02,0.9839,1.723,0.012,0.9578-0.6631,1.825-1.54,2.162-0.9462,0.3874-2.024,0.3744-3.002,0.1212-0.8475-0.2169-1.52-0.9093-1.772-1.739-0.063-0.1895-0.1109-0.3842-0.1458-0.5809z"/>
<path fill-rule="nonzero" fill="#000" d="m1053,64.66v-1.516h1.318v1.516h-1.318zm0,9.221v-7.778h1.318v7.778h-1.318z"/>
<path fill-rule="nonzero" fill="#000" d="m1056,71.56c0.4346-0.06836,0.8691-0.1367,1.304-0.2051,0.063,0.7486,0.6342,1.456,1.4,1.557,0.6277,0.1196,1.33,0.09582,1.887-0.2455,0.4637-0.304,0.7211-1.032,0.3072-1.478-0.3597-0.3597-0.897-0.4037-1.358-0.5592-0.8644-0.2356-1.774-0.4044-2.544-0.8861-0.8686-0.6181-1.025-1.963-0.3788-2.796,0.6068-0.8083,1.68-1.04,2.641-1.016,0.8202,0.01993,1.695,0.2208,2.307,0.7995,0.354,0.3737,0.5215,0.8818,0.6023,1.381-0.4297,0.05859-0.8594,0.1172-1.289,0.1758-0.058-0.6946-0.6983-1.249-1.388-1.254-0.5698-0.05133-1.209-0.0259-1.682,0.3336-0.3429,0.2807-0.4448,0.8617-0.092,1.178,0.4179,0.4025,1.035,0.4211,1.556,0.6091,0.822,0.2394,1.691,0.4048,2.428,0.8586,0.7624,0.5347,0.9474,1.621,0.5837,2.444-0.316,0.7528-1.036,1.271-1.817,1.457-0.9363,0.2451-1.949,0.1839-2.859-0.1346-0.8802-0.3526-1.45-1.228-1.595-2.143l-0.014-0.07367v0.000001z"/>
<path fill-rule="nonzero" fill="#000" d="m1067,72.7c0.063,0.3882,0.127,0.7764,0.1905,1.165-0.7224,0.1396-1.548,0.235-2.205-0.1689-0.4212-0.2501-0.5804-0.7474-0.5918-1.212-0.057-1.066-0.02-2.134-0.031-3.201v-2.156h-0.9668v-1.025h0.9668v-1.926c0.437-0.2637,0.874-0.5273,1.311-0.791v2.717h1.326v1.025h-1.326c0,1.62-0.01,3.241,0.01,4.861-0.06,0.4336,0.2988,0.8262,0.7407,0.7635,0.1936-0.001,0.388-0.02464,0.5782-0.05127z"/>
<path fill-rule="nonzero" fill="#000" d="m1067,69.99c-0.01-1.141,0.2743-2.384,1.164-3.168,1.038-0.9382,2.611-1.122,3.9-0.6504,1.096,0.411,1.903,1.435,2.114,2.579,0.1799,0.9535,0.1422,1.953-0.1033,2.891-0.3008,1.128-1.273,1.995-2.39,2.279-1.253,0.3262-2.725,0.08052-3.646-0.8805-0.7954-0.7941-1.043-1.962-1.039-3.05zm1.355,0c-0.01,0.9128,0.1904,1.937,0.9532,2.527,0.8602,0.7047,2.271,0.5793,2.973-0.2933,0.6239-0.746,0.6876-1.78,0.6359-2.712-0.044-0.8566-0.4055-1.758-1.176-2.205-0.8822-0.5302-2.138-0.325-2.774,0.4963-0.4959,0.6074-0.6084,1.427-0.6118,2.187z"/>
<path fill-rule="nonzero" fill="#000" d="m1076,73.88v-7.778h1.187v1.179c0.3016-0.5335,0.6557-1.143,1.296-1.305,0.6014-0.1498,1.232,0.05733,1.744,0.3743-0.1514,0.4077-0.3027,0.8154-0.4541,1.223-0.528-0.332-1.284-0.4254-1.785,0.0077-0.4751,0.3919-0.5584,1.046-0.6373,1.619-0.056,0.7173-0.021,1.438-0.031,2.157v2.523h-1.318z"/>
<path fill-rule="nonzero" fill="#000" d="m1029,152.1v-10.74h1.421v9.47h5.288v1.267h-6.709z"/>
<path fill-rule="nonzero" fill="#000" d="m1037,152.1v-10.74h7.764v1.267h-6.343v3.289h5.94v1.26h-5.94v3.655h6.592v1.267h-8.013z"/>
<path fill-rule="nonzero" fill="#000" d="m1047,152.1v-10.74c1.518,0.009,3.037-0.0217,4.555,0.0216,1.1,0.0233,2.236,0.3898,2.982,1.234,1.152,1.234,1.419,3.023,1.323,4.648-0.091,1.545-0.656,3.198-1.978,4.112-1.126,0.7408-2.516,0.7347-3.815,0.7214h-3.066zm1.421-1.267c1.045-0.0137,2.091,0.0335,3.134-0.0378,0.8607-0.0574,1.754-0.4401,2.187-1.225,0.7083-1.191,0.7437-2.644,0.6045-3.985-0.1183-1.153-0.7719-2.347-1.906-2.762-1.036-0.2881-2.123-0.1664-3.185-0.1931h-0.8349v8.203z"/>
<path fill-rule="nonzero" fill="#000" d="m1025,21.38c-1.387-3.579-2.774-7.158-4.16-10.74h1.538c1.013,2.848,2.048,5.689,3.046,8.543,0.1231,0.234,0.2345,1.028,0.3397,0.9056,0.4774-1.586,1.111-3.119,1.673-4.676,0.5915-1.591,1.183-3.182,1.774-4.772h1.45c-1.401,3.579-2.803,7.158-4.204,10.74h-1.458z"/>
<path fill-rule="nonzero" fill="#000" d="m1030,17.49c-0.01-1.141,0.2742-2.384,1.164-3.168,1.038-0.9382,2.611-1.122,3.9-0.6504,1.096,0.411,1.903,1.435,2.114,2.579,0.18,0.9535,0.1422,1.953-0.1033,2.891-0.3009,1.128-1.273,1.995-2.39,2.279-1.253,0.3262-2.725,0.08049-3.646-0.8805-0.7954-0.7941-1.043-1.962-1.039-3.05zm1.355,0c-0.01,0.9128,0.1904,1.937,0.9532,2.527,0.8602,0.7047,2.271,0.5793,2.973-0.2933,0.624-0.746,0.6876-1.78,0.6359-2.712-0.044-0.8566-0.4054-1.758-1.176-2.205-0.8822-0.5302-2.138-0.3249-2.774,0.4963-0.4959,0.6074-0.6084,1.427-0.6118,2.187z"/>
<path fill-rule="nonzero" fill="#000" d="m1039,21.38v-10.74h1.318v10.74h-1.318z"/>
<path fill-rule="nonzero" fill="#000" d="m1045,20.2c0.063,0.3882,0.1269,0.7764,0.1904,1.165-0.7224,0.1396-1.548,0.235-2.205-0.1689-0.4212-0.2501-0.5803-0.7474-0.5917-1.212-0.057-1.066-0.02-2.134-0.031-3.201v-2.156h-0.9667v-1.025h0.9667v-1.926c0.437-0.2637,0.8741-0.5273,1.311-0.791v2.717h1.326v1.025h-1.326c0,1.62-0.01,3.241,0.01,4.861-0.06,0.4336,0.2988,0.8263,0.7407,0.7635,0.1936-0.001,0.388-0.02466,0.5782-0.05127z"/>
<path fill-rule="nonzero" fill="#000" d="m1052,20.42c-0.7137,0.6309-1.612,1.086-2.576,1.126-0.8928,0.05984-1.909-0.1208-2.492-0.8643-0.74-0.9019-0.5547-2.386,0.3839-3.081,0.8212-0.6396,1.899-0.6399,2.881-0.791,0.5707-0.08677,1.144-0.1818,1.693-0.3673,0.029-0.555,0.027-1.247-0.4975-1.584-0.6255-0.4029-1.424-0.3919-2.132-0.2704-0.5502,0.07922-0.9729,0.5123-1.143,1.025-0.071,0.209-0.082,0.4732-0.3568,0.3502-0.351-0.04786-0.7019-0.09571-1.053-0.1436,0.1506-0.7802,0.5623-1.564,1.302-1.926,0.9968-0.5084,2.17-0.5474,3.257-0.3866,0.7135,0.1262,1.484,0.4789,1.757,1.2,0.2749,0.6752,0.1835,1.419,0.2022,2.131,0.01,1.18-0.035,2.364,0.074,3.54,0.01,0.3394,0.2687,0.7697,0.3001,1h-1.334c-0.1512-0.2982-0.226-0.6332-0.2662-0.9595zm-0.1099-2.944c-0.9728,0.3944-2.036,0.4259-3.046,0.673-0.5535,0.1128-1.012,0.6273-0.9586,1.209,0.01,0.633,0.6031,1.104,1.204,1.143,0.9954,0.133,2.139-0.2713,2.588-1.223,0.2495-0.5651,0.2078-1.198,0.2124-1.802z"/>
<path fill-rule="nonzero" fill="#000" d="m1055,22.03c0.4272,0.06348,0.8545,0.127,1.282,0.1904,0.034,0.5333,0.4282,0.9877,0.9449,1.115,0.7376,0.1892,1.602,0.1847,2.256-0.2503,0.6004-0.4177,0.7721-1.185,0.759-1.875-0.021-0.2236,0.078-0.7966-0.044-0.7795-0.6196,0.7458-1.635,1.076-2.582,0.9272-1.01-0.08763-1.892-0.764-2.342-1.657-0.7158-1.349-0.6997-3.035-0.082-4.418,0.4445-1.03,1.472-1.779,2.598-1.838,0.9808-0.1145,1.994,0.3079,2.587,1.101v-0.9375h1.216c0,2.387,0.01,4.774-0.01,7.161-0.038,0.9944-0.099,2.126-0.879,2.852-0.9365,0.9138-2.367,1.049-3.599,0.8334-0.8823-0.1587-1.807-0.7028-2.023-1.633-0.068-0.2575-0.091-0.5258-0.084-0.7912zm1.091-4.673c0,0.925,0.1604,2.002,0.9742,2.574,0.8379,0.6235,2.145,0.4244,2.755-0.4268,0.5714-0.7926,0.5861-1.838,0.5011-2.773-0.077-0.8957-0.6044-1.806-1.487-2.106-0.8089-0.2908-1.761,0.04293-2.238,0.7521-0.4044,0.5712-0.5026,1.297-0.5053,1.98z"/>
<path fill-rule="nonzero" fill="#000" d="m1068,18.88c0.4541,0.05615,0.9082,0.1123,1.362,0.1685-0.2577,1.065-1.05,2.011-2.117,2.326-1.016,0.2927-2.16,0.2616-3.121-0.2042-0.9858-0.4794-1.633-1.49-1.8-2.557-0.178-1.144-0.1165-2.379,0.434-3.419,0.5376-1.013,1.622-1.691,2.765-1.75,1.041-0.09728,2.146,0.2312,2.863,1.016,0.8547,0.8857,1.074,2.186,1.01,3.373h-5.801c0.032,0.8871,0.3684,1.844,1.164,2.322,0.8849,0.5461,2.22,0.4157,2.833-0.4791,0.1766-0.2416,0.3024-0.5198,0.4076-0.7957zm-4.329-2.131h4.343c-0.048-0.6933-0.2855-1.427-0.8819-1.84-0.9035-0.6734-2.332-0.4678-2.989,0.4568-0.301,0.3962-0.4423,0.892-0.4722,1.384z"/>
<path fill-rule="nonzero" fill="#000" d="m1075,17.93c0.4468-0.03906,0.8935-0.07813,1.34-0.1172,0.068,0.8261,0.4855,1.664,1.262,2.031,1.065,0.5479,2.389,0.5981,3.495,0.1401,0.7516-0.2862,1.266-1.144,1.024-1.936-0.2271-0.805-1.114-1.105-1.839-1.297-1.213-0.3605-2.518-0.5005-3.624-1.153-0.887-0.5079-1.397-1.569-1.22-2.578,0.1422-1.077,0.9842-1.962,2.005-2.279,1.24-0.4116,2.636-0.3783,3.851,0.1041,1.124,0.4305,1.892,1.569,1.927,2.765-0.053,0.1329-0.3473,0.05233-0.5003,0.09672-0.2864,0.02156-0.5729,0.04312-0.8593,0.06468-0.056-0.8347-0.5743-1.666-1.413-1.894-0.8217-0.2345-1.721-0.2248-2.54,0.02-0.7538,0.2188-1.333,1.05-1.071,1.832,0.2101,0.7089,1.008,0.9039,1.631,1.093,1.248,0.3652,2.598,0.4907,3.735,1.165,0.9322,0.5245,1.47,1.62,1.325,2.679-0.1203,1.209-1.049,2.215-2.176,2.598-1.181,0.4244-2.495,0.3684-3.697,0.06086-1.186-0.3051-2.193-1.242-2.513-2.434-0.09-0.3121-0.1354-0.636-0.1441-0.9603z"/>
<path fill-rule="nonzero" fill="#000" d="m1085,17.49c-0.014-1.162,0.29-2.432,1.213-3.211,1.166-1,2.959-1.119,4.295-0.3986,1.011,0.568,1.65,1.675,1.738,2.82,0.1005,0.9554,0.033,1.95-0.315,2.852-0.5022,1.165-1.721,1.918-2.97,1.991-1.209,0.1128-2.51-0.3461-3.227-1.359-0.5599-0.7736-0.7374-1.757-0.7348-2.694zm1.355,0c-0.015,0.9292,0.2051,1.976,0.9938,2.56,0.9234,0.7221,2.436,0.4956,3.068-0.5057,0.5551-0.8337,0.564-1.893,0.468-2.854-0.1105-0.9024-0.6746-1.811-1.581-2.078-0.941-0.3032-2.073,0.1043-2.542,0.9907-0.3251,0.5701-0.4023,1.242-0.4063,1.888z"/>
<path fill-rule="nonzero" fill="#000" d="m1099,21.38v-1.143c-0.4896,0.7501-1.326,1.272-2.228,1.31-0.8594,0.05698-1.797-0.1999-2.374-0.8691-0.5609-0.7221-0.5245-1.675-0.5249-2.542v-4.535h1.318c0,1.648-0.011,3.296,0.01,4.944,0.01,0.5326,0.063,1.135,0.5024,1.5,0.6897,0.5834,1.772,0.4426,2.447-0.09539,0.6075-0.4682,0.6931-1.288,0.7092-1.999,0-1.45,0.0007-2.9,0-4.35h1.318v7.778h-1.179z"/>
<path fill-rule="nonzero" fill="#000" d="m1102,21.38v-7.778h1.186v1.179c0.3017-0.5334,0.6558-1.143,1.296-1.305,0.6014-0.1498,1.232,0.05735,1.744,0.3743-0.1514,0.4077-0.3027,0.8154-0.4541,1.223-0.528-0.332-1.284-0.4254-1.786,0.0077-0.4751,0.3919-0.5582,1.046-0.6372,1.619-0.056,0.7173-0.021,1.438-0.031,2.157v2.523h-1.318z"/>
<path fill-rule="nonzero" fill="#000" d="m1112,18.53c0.4321,0.05615,0.8643,0.1123,1.296,0.1685-0.1393,1.053-0.7584,2.067-1.736,2.53-0.9246,0.4377-2.038,0.4261-2.981,0.04898-0.9872-0.4045-1.69-1.343-1.909-2.374-0.248-1.164-0.208-2.419,0.2437-3.529,0.3331-0.8553,1.085-1.502,1.958-1.764,1.019-0.3123,2.208-0.2584,3.113,0.3418,0.6541,0.4354,1.052,1.173,1.188,1.935-0.4272,0.06592-0.8545,0.1318-1.282,0.1978-0.1378-0.683-0.592-1.357-1.305-1.519-0.887-0.2213-1.903,0.1872-2.328,1.011-0.4221,0.8354-0.423,1.81-0.3324,2.721,0.077,0.7537,0.4055,1.547,1.102,1.924,0.8181,0.4524,2.001,0.307,2.552-0.4957,0.2457-0.3513,0.363-0.775,0.423-1.195z"/>
<path fill-rule="nonzero" fill="#000" d="m1120,18.88c0.4541,0.05615,0.9083,0.1123,1.362,0.1685-0.2578,1.065-1.05,2.011-2.117,2.326-1.016,0.2927-2.16,0.2616-3.121-0.2042-0.9858-0.4794-1.633-1.49-1.8-2.557-0.178-1.144-0.1165-2.379,0.434-3.419,0.5377-1.013,1.622-1.691,2.765-1.75,1.041-0.09727,2.146,0.2312,2.863,1.016,0.8547,0.8857,1.074,2.186,1.01,3.373h-5.801c0.032,0.8871,0.3684,1.844,1.164,2.322,0.8848,0.5461,2.22,0.4158,2.833-0.4791,0.1767-0.2416,0.3024-0.52,0.4077-0.7957zm-4.329-2.131h4.343c-0.048-0.6933-0.2855-1.427-0.8819-1.84-0.9035-0.6734-2.332-0.4677-2.989,0.4568-0.3009,0.3962-0.4423,0.8921-0.4722,1.384z"/>
<path fill-rule="evenodd" fill="#FFF" d="m1163,11.94c0-11.38,10.28-20.6,22.94-20.6,12.68,0,22.94,9.225,22.94,20.6,0,11.39-10.26,20.61-22.94,20.61-12.66,0-22.94-9.225-22.94-20.61z"/>
<path stroke-linejoin="round" d="m1163,11.94c0-11.38,10.28-20.6,22.94-20.6,12.68,0,22.94,9.225,22.94,20.6,0,11.39-10.26,20.61-22.94,20.61-12.66,0-22.94-9.225-22.94-20.61z" stroke="#000" stroke-linecap="butt" stroke-miterlimit="10" stroke-dasharray="none" stroke-width="1.25" fill="none"/>
<path fill-rule="nonzero" fill="#000" d="m1191,4.023c0.079,0.4133-0.2308,0.9317-0.7004,0.791h-3.321v3.999c-0.2865,0.5333-1.144,0.4222-1.57,0.1499-0.114-0.363-0.033-0.7605-0.056-1.14v-3.009h-3.604c-0.5834-0.2076-0.5226-1.124-0.1787-1.513,0.3604-0.1178,0.7531-0.03565,1.129-0.05838h2.653v-3.999c0.2479-0.5683,1.165-0.4766,1.571-0.1609,0.1115,0.3593,0.033,0.7485,0.055,1.123v3.037c1.227,0.0066,2.455-0.01321,3.68,0.00994,0.322,0.08999,0.3325,0.4987,0.3407,0.7701z"/>
<path fill-rule="nonzero" fill="#000" d="m1192,23.25c0.055,0.339-0.1138,0.8489-0.5454,0.7361h-10.4c-0.5302-0.1357-0.3965-0.8208-0.316-1.221,0.1514-0.3453,0.5655-0.2184,0.8645-0.2399h10.03c0.3544,0.02474,0.3522,0.4617,0.3626,0.7251z"/>
<path fill-rule="nonzero" fill="#000" d="m1050-53.47c-1.387-3.579-2.774-7.158-4.16-10.74h1.538c1.013,2.848,2.048,5.689,3.046,8.543,0.123,0.234,0.2345,1.028,0.3397,0.9056,0.4774-1.586,1.111-3.119,1.673-4.676,0.5915-1.591,1.183-3.182,1.774-4.772h1.45c-1.401,3.579-2.803,7.158-4.204,10.74h-1.458z"/>
<path fill-rule="nonzero" fill="#000" d="m1055-57.36c-0.01-1.141,0.2743-2.384,1.164-3.168,1.038-0.9382,2.611-1.122,3.9-0.6504,1.096,0.411,1.903,1.435,2.114,2.579,0.18,0.9535,0.1422,1.953-0.1033,2.891-0.3009,1.128-1.273,1.995-2.39,2.279-1.253,0.3262-2.725,0.08052-3.646-0.8805-0.7954-0.7941-1.043-1.962-1.039-3.05zm1.355,0c-0.01,0.9128,0.1903,1.937,0.9531,2.527,0.8603,0.7047,2.271,0.5793,2.973-0.2933,0.6239-0.7461,0.6875-1.78,0.6358-2.712-0.044-0.8566-0.4054-1.758-1.176-2.205-0.8823-0.5302-2.138-0.3249-2.774,0.4963-0.4958,0.6075-0.6083,1.427-0.6117,2.187z"/>
<path fill-rule="nonzero" fill="#000" d="m1064-53.47v-10.74h1.318v10.74h-1.318z"/>
<path fill-rule="nonzero" fill="#000" d="m1070-54.65c0.064,0.3882,0.1269,0.7764,0.1904,1.165-0.7223,0.1396-1.548,0.235-2.204-0.1689-0.4212-0.2501-0.5804-0.7474-0.5918-1.212-0.057-1.066-0.02-2.134-0.031-3.201v-2.156h-0.9668v-1.025h0.9668v-1.926c0.437-0.2637,0.874-0.5273,1.311-0.791v2.717h1.326v1.025h-1.326c0,1.62-0.01,3.241,0.01,4.861-0.06,0.4336,0.2988,0.8263,0.7407,0.7635,0.1936-0.001,0.388-0.02465,0.5782-0.05126z"/>
<path fill-rule="nonzero" fill="#000" d="m1077-54.43c-0.7137,0.6309-1.612,1.086-2.576,1.126-0.8928,0.05984-1.909-0.1208-2.492-0.8643-0.74-0.9019-0.5546-2.386,0.3839-3.081,0.8213-0.6396,1.899-0.6399,2.881-0.791,0.5708-0.08678,1.144-0.1818,1.693-0.3673,0.029-0.555,0.027-1.247-0.4976-1.584-0.6255-0.4029-1.424-0.3919-2.132-0.2704-0.5501,0.07922-0.9728,0.5123-1.143,1.025-0.071,0.209-0.082,0.4732-0.3568,0.3502-0.351-0.04786-0.7019-0.09571-1.053-0.1436,0.1506-0.7802,0.5624-1.564,1.302-1.926,0.9968-0.5083,2.17-0.5474,3.257-0.3866,0.7134,0.1262,1.484,0.4788,1.757,1.2,0.2749,0.6752,0.1835,1.419,0.2022,2.131,0.01,1.18-0.035,2.364,0.074,3.54,0.01,0.3394,0.2687,0.7697,0.3001,1h-1.334c-0.151-0.2983-0.2261-0.633-0.2661-0.9595zm-0.1099-2.944c-0.9728,0.3944-2.036,0.4259-3.046,0.673-0.5535,0.1128-1.012,0.6273-0.9586,1.209,0.01,0.6329,0.6032,1.104,1.204,1.143,0.9954,0.1329,2.139-0.2713,2.588-1.223,0.2495-0.5651,0.2078-1.198,0.2124-1.802z"/>
<path fill-rule="nonzero" fill="#000" d="m1080-52.82c0.4273,0.06348,0.8545,0.127,1.282,0.1904,0.034,0.5333,0.4281,0.9877,0.9448,1.115,0.7377,0.1892,1.602,0.1846,2.256-0.2503,0.6003-0.4178,0.772-1.185,0.7589-1.875-0.021-0.2236,0.078-0.7966-0.044-0.7795-0.6196,0.7458-1.635,1.076-2.582,0.9272-1.01-0.08759-1.892-0.764-2.342-1.657-0.7157-1.349-0.6996-3.035-0.082-4.418,0.4445-1.03,1.472-1.779,2.598-1.838,0.9808-0.1146,1.994,0.3079,2.587,1.101v-0.9375h1.216c0,2.387,0.01,4.774-0.01,7.161-0.038,0.9944-0.098,2.126-0.879,2.852-0.9365,0.9138-2.367,1.049-3.599,0.8334-0.8823-0.1588-1.807-0.7028-2.023-1.633-0.068-0.2575-0.091-0.5258-0.084-0.7912zm1.091-4.673c0,0.9251,0.1606,2.002,0.9742,2.574,0.8379,0.6235,2.145,0.4245,2.755-0.4268,0.5715-0.7926,0.5862-1.838,0.5012-2.773-0.077-0.8958-0.6046-1.806-1.488-2.106-0.8089-0.2908-1.761,0.04294-2.238,0.7521-0.4044,0.5711-0.5026,1.297-0.5053,1.98z"/>
<path fill-rule="nonzero" fill="#000" d="m1094-55.97c0.4541,0.05615,0.9082,0.1123,1.362,0.1685-0.2577,1.065-1.05,2.011-2.117,2.326-1.016,0.2927-2.16,0.2616-3.121-0.2042-0.9858-0.4794-1.633-1.49-1.8-2.557-0.178-1.144-0.1165-2.379,0.434-3.419,0.5376-1.013,1.622-1.691,2.765-1.75,1.041-0.09728,2.146,0.2312,2.863,1.016,0.8547,0.8857,1.074,2.186,1.01,3.373h-5.801c0.032,0.8871,0.3684,1.844,1.164,2.322,0.8849,0.5461,2.22,0.4158,2.833-0.4791,0.1767-0.2416,0.3024-0.52,0.4077-0.7957zm-4.329-2.131h4.343c-0.048-0.6933-0.2855-1.427-0.8819-1.84-0.9035-0.6734-2.332-0.4677-2.989,0.4568-0.3009,0.3962-0.4423,0.8921-0.4722,1.384z"/>
<path fill-rule="nonzero" fill="#000" d="m1101-53.47v-10.74c1.518,0.0094,3.037-0.0217,4.555,0.02164,1.1,0.02325,2.236,0.3898,2.982,1.234,1.152,1.234,1.419,3.023,1.323,4.648-0.091,1.545-0.6561,3.198-1.978,4.112-1.126,0.7408-2.516,0.7347-3.814,0.7214h-3.067zm1.421-1.267c1.045-0.01367,2.091,0.03352,3.134-0.03785,0.8607-0.05744,1.754-0.44,2.187-1.225,0.7082-1.191,0.7438-2.644,0.6045-3.985-0.1183-1.153-0.7719-2.347-1.906-2.762-1.036-0.2881-2.123-0.1664-3.185-0.1931h-0.8349v8.203z"/>
<path fill-rule="nonzero" fill="#000" d="m1111-53.47v-7.778h1.186v1.179c0.3016-0.5335,0.6558-1.143,1.296-1.305,0.6014-0.1498,1.232,0.05735,1.744,0.3743-0.1514,0.4077-0.3027,0.8154-0.4541,1.223-0.528-0.332-1.284-0.4254-1.786,0.0077-0.4751,0.3919-0.5582,1.046-0.6373,1.619-0.056,0.7173-0.021,1.438-0.031,2.157v2.523h-1.318z"/>
<path fill-rule="nonzero" fill="#000" d="m1116-57.36c-0.01-1.141,0.2742-2.384,1.164-3.168,1.038-0.9382,2.611-1.122,3.9-0.6504,1.096,0.411,1.903,1.435,2.114,2.579,0.18,0.9535,0.1422,1.953-0.1033,2.891-0.3009,1.128-1.273,1.995-2.39,2.279-1.253,0.3262-2.725,0.08049-3.646-0.8805-0.7954-0.7941-1.043-1.962-1.039-3.05zm1.355,0c-0.01,0.9128,0.1904,1.937,0.9532,2.527,0.8602,0.7047,2.271,0.5793,2.973-0.2933,0.624-0.746,0.6876-1.78,0.6359-2.712-0.044-0.8566-0.4054-1.758-1.176-2.205-0.8822-0.5302-2.138-0.3249-2.774,0.4963-0.4959,0.6074-0.6084,1.427-0.6118,2.187z"/>
<path fill-rule="nonzero" fill="#000" d="m1125-50.49v-10.76h1.201v1.011c0.476-0.7154,1.29-1.205,2.162-1.185,1.137-0.06185,2.281,0.5567,2.814,1.57,0.6793,1.282,0.7407,2.851,0.2931,4.218-0.3177,1.007-1.107,1.858-2.122,2.18-0.9466,0.3326-2.081,0.1579-2.801-0.5692-0.203-0.2767-0.2613-0.2574-0.2288,0.05725v3.478h-1.318zm1.194-6.826c-0.01,0.9244,0.1745,1.984,0.9702,2.566,0.7497,0.5994,1.928,0.4468,2.536-0.2826,0.7065-0.7847,0.7415-1.926,0.6841-2.925-0.049-0.8843-0.4326-1.832-1.261-2.25-0.7183-0.3829-1.642-0.1463-2.157,0.4617-0.6173,0.6403-0.771,1.574-0.7715,2.43z"/>
<path fill-rule="nonzero" fill="#000" d="m1021-35.47c1.374-3.579,2.749-7.158,4.124-10.74h1.531c1.465,3.579,2.93,7.158,4.394,10.74h-1.619c-0.4175-1.084-0.835-2.168-1.252-3.252h-4.49c-0.3931,1.084-0.7861,2.168-1.179,3.252h-1.509zm3.098-4.409h3.64c-0.6219-1.694-1.315-3.365-1.85-5.089-0.078-0.1844-0.1278,0.4884-0.2097,0.6616-0.3511,1.293-0.8881,2.525-1.34,3.785-0.08,0.2143-0.1605,0.4285-0.2407,0.6428z"/>
<path fill-rule="nonzero" fill="#000" d="m1037-38.32c0.4321,0.05615,0.8643,0.1123,1.296,0.1685-0.1394,1.053-0.7585,2.067-1.737,2.53-0.9246,0.4377-2.038,0.4261-2.981,0.04898-0.9872-0.4045-1.69-1.342-1.91-2.374-0.2443-1.144-0.2078-2.373,0.2188-3.469,0.3127-0.8411,1.021-1.503,1.869-1.786,1.007-0.3469,2.189-0.3164,3.118,0.233,0.7129,0.4253,1.155,1.2,1.296,2.005-0.4272,0.06592-0.8545,0.1318-1.282,0.1978-0.1378-0.6831-0.592-1.357-1.305-1.519-0.8869-0.2213-1.903,0.1873-2.328,1.011-0.4222,0.8353-0.4231,1.81-0.3325,2.721,0.077,0.7537,0.4055,1.547,1.102,1.924,0.8182,0.4524,2.001,0.307,2.552-0.4957,0.2456-0.3511,0.3631-0.7753,0.423-1.195z"/>
<path fill-rule="nonzero" fill="#000" d="m1039-35.47v-7.778h1.186v1.179c0.3016-0.5334,0.6558-1.143,1.296-1.305,0.6014-0.1498,1.232,0.05731,1.744,0.3743-0.1514,0.4077-0.3027,0.8154-0.4541,1.223-0.528-0.332-1.284-0.4253-1.785,0.0077-0.4751,0.3919-0.5582,1.046-0.6373,1.619-0.056,0.7173-0.021,1.438-0.031,2.157v2.523h-1.318z"/>
<path fill-rule="nonzero" fill="#000" d="m1044-39.36c-0.01-1.141,0.2742-2.384,1.164-3.168,1.038-0.9382,2.611-1.122,3.9-0.6504,1.096,0.411,1.903,1.435,2.114,2.579,0.18,0.9535,0.1422,1.953-0.1033,2.891-0.3009,1.128-1.273,1.995-2.39,2.279-1.253,0.3261-2.725,0.08055-3.646-0.8805-0.7954-0.7941-1.044-1.962-1.039-3.05zm1.355,0c-0.01,0.9128,0.1903,1.937,0.9531,2.527,0.8602,0.7046,2.271,0.5794,2.973-0.2933,0.624-0.746,0.6876-1.78,0.6359-2.712-0.044-0.8566-0.4054-1.758-1.176-2.205-0.8822-0.5302-2.138-0.3249-2.774,0.4963-0.4959,0.6074-0.6083,1.427-0.6117,2.187z"/>
<path fill-rule="nonzero" fill="#000" d="m1052-37.79c0.4346-0.06836,0.8691-0.1367,1.304-0.2051,0.067,0.6678,0.5054,1.314,1.17,1.501,0.6063,0.1708,1.28,0.1706,1.872-0.057,0.5497-0.2136,0.9574-0.9009,0.6629-1.462-0.2595-0.4421-0.8187-0.5045-1.263-0.6525-0.8719-0.2425-1.781-0.4106-2.586-0.8393-0.9034-0.5006-1.195-1.755-0.7003-2.639,0.3726-0.7373,1.183-1.114,1.966-1.228,0.9717-0.1242,2.033-0.02796,2.869,0.5242,0.538,0.3554,0.7764,0.9971,0.8744,1.609-0.4297,0.05859-0.8594,0.1172-1.289,0.1758-0.059-0.6155-0.5576-1.141-1.171-1.227-0.5713-0.0854-1.193-0.07905-1.719,0.1825-0.4106,0.2133-0.6567,0.7753-0.37,1.183,0.3262,0.4593,0.9306,0.4986,1.424,0.6628,0.8187,0.2352,1.663,0.416,2.434,0.7862,0.6315,0.321,1.016,1.02,0.9838,1.723,0.012,0.9577-0.663,1.825-1.54,2.162-0.9463,0.3874-2.024,0.3744-3.002,0.1212-0.8475-0.2169-1.52-0.9093-1.772-1.739-0.063-0.1895-0.1109-0.3842-0.1458-0.5809z"/>
<path fill-rule="nonzero" fill="#000" d="m1059-37.79c0.4346-0.06836,0.8691-0.1367,1.304-0.2051,0.067,0.6678,0.5054,1.314,1.17,1.501,0.6063,0.1708,1.28,0.1706,1.872-0.057,0.5497-0.2136,0.9574-0.9009,0.6629-1.462-0.2595-0.4421-0.8187-0.5045-1.263-0.6525-0.8719-0.2425-1.781-0.4106-2.586-0.8393-0.9034-0.5006-1.195-1.755-0.7003-2.639,0.3726-0.7373,1.183-1.114,1.966-1.228,0.9717-0.1242,2.033-0.02796,2.869,0.5242,0.538,0.3554,0.7764,0.9971,0.8744,1.609-0.4297,0.05859-0.8594,0.1172-1.289,0.1758-0.059-0.6155-0.5576-1.141-1.171-1.227-0.5713-0.0854-1.193-0.07905-1.719,0.1825-0.4106,0.2133-0.6567,0.7753-0.37,1.183,0.3262,0.4593,0.9306,0.4986,1.424,0.6628,0.8187,0.2352,1.663,0.416,2.434,0.7862,0.6315,0.321,1.016,1.02,0.9838,1.723,0.012,0.9577-0.663,1.825-1.54,2.162-0.9463,0.3874-2.024,0.3744-3.002,0.1212-0.8475-0.2169-1.52-0.9093-1.772-1.739-0.063-0.1895-0.1109-0.3842-0.1458-0.5809z"/>
<path fill-rule="nonzero" fill="#000" d="m1077-36.43c-0.7137,0.631-1.612,1.086-2.576,1.126-0.8928,0.05983-1.909-0.1208-2.492-0.8643-0.7399-0.9019-0.5546-2.386,0.384-3.081,0.8212-0.6396,1.899-0.6399,2.881-0.791,0.5708-0.08678,1.144-0.1818,1.693-0.3673,0.029-0.555,0.027-1.247-0.4976-1.584-0.6255-0.4029-1.424-0.3919-2.132-0.2704-0.5502,0.07921-0.9729,0.5123-1.143,1.025-0.071,0.209-0.082,0.4732-0.3568,0.3502-0.351-0.04786-0.7019-0.09571-1.053-0.1436,0.1506-0.7802,0.5624-1.564,1.302-1.926,0.9967-0.5084,2.169-0.5474,3.257-0.3866,0.7134,0.1262,1.484,0.4788,1.757,1.2,0.2749,0.6752,0.1835,1.419,0.2022,2.131,0.01,1.18-0.035,2.364,0.074,3.54,0.01,0.3394,0.2687,0.7697,0.3001,1h-1.334c-0.1511-0.2982-0.226-0.6332-0.2662-0.9595zm-0.1098-2.944c-0.9728,0.3944-2.036,0.4259-3.046,0.673-0.5535,0.1128-1.012,0.6273-0.9586,1.209,0.01,0.6329,0.6032,1.104,1.204,1.143,0.9954,0.1329,2.139-0.2713,2.588-1.223,0.2494-0.5651,0.2079-1.198,0.2125-1.802z"/>
<path fill-rule="nonzero" fill="#000" d="m1092-39.23c0.4736,0.1196,0.9473,0.2393,1.421,0.3589-0.3237,1.41-1.249,2.741-2.636,3.265-1.211,0.46-2.586,0.4123-3.809,0.01966-1.394-0.4644-2.342-1.758-2.728-3.132-0.4928-1.694-0.4618-3.612,0.3622-5.199,0.7815-1.55,2.512-2.44,4.21-2.465,1.38-0.07208,2.836,0.4543,3.669,1.594,0.3462,0.4553,0.5895,0.9827,0.7482,1.531-0.4663,0.1099-0.9327,0.2197-1.399,0.3296-0.2763-0.9519-0.9275-1.882-1.942-2.124-1.277-0.3241-2.797-0.0069-3.631,1.073-0.6637,0.8629-0.8501,1.995-0.8724,3.058,0.013,1.232,0.2159,2.592,1.114,3.51,1.235,1.199,3.49,1.264,4.664-0.05626,0.4404-0.4917,0.6915-1.124,0.8291-1.762z"/>
<path fill-rule="nonzero" fill="#000" d="m1094-39.36c-0.01-1.141,0.2743-2.384,1.164-3.168,1.038-0.9382,2.611-1.122,3.9-0.6504,1.096,0.4111,1.903,1.435,2.114,2.579,0.18,0.9535,0.1422,1.953-0.1033,2.891-0.3008,1.128-1.273,1.995-2.39,2.279-1.253,0.3262-2.725,0.08051-3.646-0.8805-0.7954-0.7941-1.043-1.962-1.039-3.05zm1.355,0c-0.01,0.9128,0.1904,1.937,0.9532,2.527,0.8602,0.7047,2.271,0.5793,2.973-0.2933,0.6239-0.7461,0.6875-1.78,0.6358-2.712-0.044-0.8566-0.4054-1.758-1.176-2.205-0.8822-0.5302-2.138-0.325-2.774,0.4963-0.4959,0.6074-0.6084,1.427-0.6118,2.187z"/>
<path fill-rule="nonzero" fill="#000" d="m1103-35.47v-7.778h1.179v1.091c0.5705-0.9243,1.707-1.402,2.771-1.245,0.7872,0.05765,1.542,0.5726,1.785,1.34,0.5369-0.8567,1.519-1.439,2.545-1.36,0.8241-0.0014,1.702,0.4146,2.016,1.216,0.3546,0.853,0.2138,1.791,0.2432,2.69v4.045h-1.311c0-1.756,0.01-3.512-0.01-5.268,0-0.5277-0.1419-1.14-0.6714-1.381-0.9265-0.4594-2.212,0.07086-2.474,1.093-0.2153,0.7583-0.1101,1.554-0.1355,2.331v3.225h-1.318c0-1.755,0.01-3.511-0.01-5.267-0.011-0.5907-0.2297-1.327-0.8803-1.483-0.8929-0.2535-1.969,0.2394-2.231,1.161-0.2799,0.9594-0.1603,1.968-0.1867,2.953v2.636h-1.318z"/>
<path fill-rule="nonzero" fill="#000" d="m1116-32.49v-10.76h1.201v1.011c0.476-0.7154,1.29-1.205,2.162-1.185,1.137-0.06182,2.281,0.5567,2.814,1.57,0.6792,1.282,0.7406,2.851,0.293,4.218-0.3177,1.007-1.107,1.858-2.121,2.18-0.9467,0.3327-2.081,0.1578-2.802-0.5692-0.203-0.2767-0.2613-0.2574-0.2288,0.05725v3.478h-1.318zm1.194-6.826c-0.01,0.9244,0.1743,1.984,0.9701,2.566,0.7497,0.5994,1.928,0.4467,2.536-0.2826,0.7064-0.7847,0.7414-1.926,0.684-2.925-0.049-0.8843-0.4326-1.832-1.261-2.25-0.7182-0.3829-1.642-0.1464-2.157,0.4617-0.6172,0.6401-0.771,1.574-0.7714,2.43z"/>
<path fill-rule="nonzero" fill="#000" d="m1124-39.36c-0.01-1.141,0.2743-2.384,1.164-3.168,1.038-0.9382,2.611-1.122,3.9-0.6504,1.096,0.411,1.903,1.435,2.114,2.579,0.18,0.9535,0.1421,1.953-0.1033,2.891-0.3008,1.128-1.273,1.995-2.39,2.279-1.253,0.3262-2.725,0.08051-3.646-0.8805-0.7954-0.7941-1.043-1.962-1.039-3.05zm1.355,0c-0.01,0.9128,0.1903,1.937,0.9531,2.527,0.8603,0.7046,2.271,0.5794,2.973-0.2933,0.6239-0.7461,0.6875-1.78,0.6358-2.712-0.044-0.8566-0.4054-1.758-1.176-2.205-0.8823-0.5302-2.138-0.3249-2.774,0.4963-0.4958,0.6075-0.6083,1.427-0.6117,2.187z"/>
<path fill-rule="nonzero" fill="#000" d="m1132-35.47v-7.778h1.186v1.106c0.4692-0.7429,1.302-1.225,2.179-1.27,0.8745-0.06563,1.851,0.1568,2.434,0.8536,0.4653,0.5893,0.5248,1.364,0.5199,2.086,0,1.668,0.0004,3.335,0,5.003h-1.318c0-1.673,0.01-3.346-0.01-5.019-0.014-0.5426-0.1081-1.169-0.5999-1.492-0.7578-0.513-1.852-0.3444-2.505,0.269-0.5282,0.5442-0.569,1.358-0.574,2.076v4.167h-1.318z"/>
<path fill-rule="nonzero" fill="#000" d="m1146-37.97c0.4541,0.05615,0.9082,0.1123,1.362,0.1685-0.2577,1.065-1.05,2.011-2.117,2.326-1.016,0.2927-2.16,0.2616-3.121-0.2042-0.9858-0.4794-1.633-1.49-1.8-2.557-0.178-1.144-0.1165-2.379,0.434-3.419,0.5376-1.013,1.622-1.691,2.765-1.75,1.041-0.09728,2.146,0.2312,2.863,1.016,0.8547,0.8857,1.074,2.186,1.01,3.373h-5.801c0.032,0.8871,0.3684,1.844,1.164,2.322,0.8849,0.5461,2.22,0.4158,2.833-0.4791,0.1767-0.2416,0.3024-0.52,0.4077-0.7957zm-4.329-2.131h4.343c-0.048-0.6933-0.2855-1.427-0.8819-1.84-0.9035-0.6734-2.332-0.4677-2.989,0.4568-0.3009,0.3962-0.4423,0.8921-0.4722,1.384z"/>
<path fill-rule="nonzero" fill="#000" d="m1149-35.47v-7.778h1.187v1.106c0.4691-0.7429,1.302-1.225,2.179-1.27,0.8745-0.06563,1.851,0.1568,2.434,0.8536,0.4654,0.5893,0.5248,1.364,0.5199,2.086,0,1.668,0.0004,3.335,0,5.003h-1.318c0-1.673,0.01-3.346-0.01-5.019-0.014-0.5426-0.1081-1.169-0.5999-1.492-0.7578-0.513-1.852-0.3444-2.505,0.269-0.5282,0.5442-0.569,1.358-0.574,2.076v4.167h-1.318z"/>
<path fill-rule="nonzero" fill="#000" d="m1160-36.65c0.063,0.3882,0.127,0.7764,0.1905,1.165-0.7224,0.1396-1.548,0.235-2.205-0.1689-0.4212-0.2501-0.5804-0.7474-0.5918-1.212-0.057-1.066-0.02-2.134-0.031-3.201v-2.156h-0.9668v-1.025h0.9668v-1.926c0.437-0.2637,0.8741-0.5273,1.311-0.791v2.717h1.326v1.025h-1.326c0,1.62-0.01,3.241,0.01,4.861-0.06,0.4336,0.2988,0.8262,0.7407,0.7635,0.1935-0.001,0.3883-0.02467,0.5781-0.05126z"/>
<path fill-rule="nonzero" fill="#953735" d="m1187-39.79c-0.3559,0.6107-1.219,0.3363-1.811,0.3804-0.5017,0.05621-0.7454-0.3637-0.8407-0.7795-1.516-4.311-3.036-8.621-4.55-12.93-0.2605-0.8739,1.021-0.5823,1.525-0.5946,0.4942,0.04712,0.4872,0.6293,0.6531,0.9845,1.286,3.776,2.572,7.551,3.859,11.33,0.5218-1.494,1.011-3.033,1.52-4.544,0.8478-2.531,1.669-5.072,2.534-7.596,0.4987-0.2748,1.397-0.3376,1.846,0.02886-0.037,0.5493-0.3154,1.053-0.4707,1.579-1.422,4.049-2.843,8.098-4.265,12.15z"/>
<path fill-rule="nonzero" fill="#953735" d="m1202-40.2c0.065,0.4156-0.2085,0.8601-0.6601,0.7471h-7.162c-0.5415-0.1727-0.465-1.001-0.2253-1.406,0.2439-0.1993,0.5923-0.07517,0.8866-0.1099h2.305v-10.81c-0.9499,0.5598-1.889,1.139-2.846,1.686-0.732,0.3495-0.636-0.8332-0.4647-1.241,0.3447-0.3522,0.8127-0.5607,1.215-0.8456,0.7959-0.5001,1.575-1.03,2.382-1.511,0.4925-0.06115,1.329-0.2704,1.604,0.2307v12.49c0.8849,0.0081,1.772-0.01628,2.656,0.01236,0.2966,0.1085,0.3009,0.4953,0.3106,0.7567z"/>
<path fill-rule="nonzero" fill="#953735" d="m1201-65.97c0.077,0.6393-0.2627,1.489-1.026,1.318h-5.676v6.665c-0.3243,0.8459-1.599,0.5988-2.323,0.456-0.5695-0.1694-0.339-0.8187-0.3865-1.257v-5.864h-6.006c-0.8978-0.2263-0.7704-1.52-0.538-2.22,0.2212-0.5828,0.8923-0.3519,1.367-0.3988h5.176v-6.665c0.277-0.9047,1.597-0.6664,2.324-0.5058,0.5721,0.2178,0.3364,0.8861,0.3859,1.354v5.817h6.024c0.6206,0.04351,0.6743,0.8298,0.6776,1.3z"/>
<path fill-rule="nonzero" fill="#953735" d="m1196-19.99c-0.016,0.3946,0.012,0.87-0.309,1.156-0.251,0.1729-0.5672,0.08606-0.8526,0.1073-2.391-0.000738-4.782,0.0015-7.174-0.0011-0.3809-0.0045-0.5619-0.4045-0.587-0.7323-0.043-0.4859-0.076-1.004,0.1133-1.464,0.1154-0.2681,0.4189-0.3341,0.6817-0.3106,2.519,0.0023,5.039-0.0046,7.558,0.0034,0.3946,0.01871,0.5017,0.464,0.5432,0.7816,0.019,0.1524,0.026,0.3068,0.026,0.46z"/>
<path fill-rule="nonzero" fill="#000" d="m1091-92.33c-0.2234,0.5755-1.086,0.3299-1.593,0.3406-0.5298-0.04279-0.719-0.6025-1.026-0.9516-1.588-2.158-3.176-4.317-4.764-6.475v7.108c-0.3086,0.553-1.252,0.3703-1.785,0.2115-0.1926-0.2354-0.07-0.5757-0.1045-0.8607v-13c0.304-0.5517,1.252-0.3705,1.785-0.2129,0.1913,0.2226,0.07,0.5539,0.1045,0.8279v5.702c1.701-2.136,3.403-4.271,5.103-6.408,0.5297-0.373,1.315-0.331,1.901-0.1126,0.2711,0.3789-0.1752,0.7721-0.4008,1.068-1.52,1.818-3.04,3.635-4.56,5.453,1.705,2.272,3.423,4.536,5.12,6.814,0.091,0.1529,0.2098,0.3063,0.2188,0.4917z"/>
<path fill-rule="nonzero" fill="#000" d="m1102-92.8c0.069,0.4173-0.1744,0.8973-0.6449,0.78h-6.562c-0.5332,0.02911-0.7768-0.5094-0.7031-0.9643v-12.59c-0.019-0.4949,0.5014-0.7254,0.9274-0.666h6.518c0.5315,0.193,0.4252,1.043,0.2239,1.471-0.2463,0.1829-0.5844,0.0678-0.8747,0.1002h-4.908v4.46h4.768c0.5306,0.1834,0.435,1.026,0.2253,1.438-0.2765,0.1669-0.629,0.05787-0.9411,0.08921h-4.052v5.087h5.636c0.3839,0.02078,0.3812,0.5122,0.3846,0.7912z"/>
<path fill-rule="nonzero" fill="#000" d="m1109-97.55c-0.01,1.774,0.015,3.55-0.011,5.323-0.4478,0.4128-1.322,0.3407-1.846,0.07141-0.094-0.413-0.021-0.8566-0.044-1.282v-4.112c-1.357-2.714-2.725-5.422-4.076-8.139-0.3929-0.7977,0.7883-0.6048,1.258-0.6044,0.4617-0.0579,0.7493,0.2863,0.8832,0.6791,0.9934,2.083,2.035,4.143,2.923,6.274,0.3076-0.6372,0.5723-1.356,0.8825-2.016,0.7382-1.593,1.515-3.17,2.276-4.751,0.5343-0.3091,1.288-0.2463,1.862-0.0659,0.1745,0.3467-0.1726,0.689-0.2938,1.014-1.272,2.537-2.543,5.073-3.815,7.61z"/>
</g>
</svg>
